<svg xmlns="http://www.w3.org/2000/svg" xmlns:xlink="http://www.w3.org/1999/xlink" contentStyleType="text/css" data-diagram-type="STATE" height="524px" preserveAspectRatio="none" style="width:313px;height:524px;background:#FFFFFF;" version="1.1" viewBox="0 0 313 524" width="313px" zoomAndPan="magnify"><defs/><g><ellipse cx="129" cy="16" fill="#222222" rx="10" ry="10" style="stroke:#222222;stroke-width:1;"/><g id="Created"><rect fill="#F1F1F1" height="50" rx="12.5" ry="12.5" style="stroke:#181818;stroke-width:0.5;" width="75.7129" x="91" y="103"/><line style="stroke:#181818;stroke-width:0.5;" x1="91" x2="166.7129" y1="129.2969" y2="129.2969"/><text fill="#000000" font-family="sans-serif" font-size="14" lengthAdjust="spacing" textLength="55.7129" x="101" y="120.9951">Created</text></g><g id="Terminated"><rect fill="#F1F1F1" height="50" rx="12.5" ry="12.5" style="stroke:#181818;stroke-width:0.5;" width="100.8896" x="78.5" y="214"/><line style="stroke:#181818;stroke-width:0.5;" x1="78.5" x2="179.3896" y1="240.2969" y2="240.2969"/><text fill="#000000" font-family="sans-serif" font-size="14" lengthAdjust="spacing" textLength="80.8896" x="88.5" y="231.9951">Terminated</text></g><g id="Init"><rect fill="#F1F1F1" height="50" rx="12.5" ry="12.5" style="stroke:#181818;stroke-width:0.5;" width="50" x="7" y="341"/><line style="stroke:#181818;stroke-width:0.5;" x1="7" x2="57" y1="367.2969" y2="367.2969"/><text fill="#000000" font-family="sans-serif" font-size="14" lengthAdjust="spacing" textLength="22.3809" x="20.8096" y="358.9951">Init</text></g><g id="Run"><rect fill="#F1F1F1" height="50" rx="12.5" ry="12.5" style="stroke:#181818;stroke-width:0.5;" width="50" x="92" y="468"/><line style="stroke:#181818;stroke-width:0.5;" x1="92" x2="142" y1="494.2969" y2="494.2969"/><text fill="#000000" font-family="sans-serif" font-size="14" lengthAdjust="spacing" textLength="27.4736" x="103.2632" y="485.9951">Run</text></g><ellipse cx="120" cy="366" fill="transparent" rx="11" ry="11" style="stroke:#222222;stroke-width:1;"/><ellipse cx="120" cy="366" fill="#222222" rx="6" ry="6" style="stroke:#222222;stroke-width:1;"/><!--link *start* to Created--><g id="link_*start*_Created"><path d="M129,26 C129,42.63 129,72.66 129,96.87 " fill="transparent" id="*start*-to-Created" style="stroke:#181818;stroke-width:1;"/><polygon fill="#181818" points="129,102.87,133,93.87,129,97.87,125,93.87,129,102.87" style="stroke:#181818;stroke-width:1;"/><text fill="#000000" font-family="sans-serif" font-size="13" lengthAdjust="spacing" textLength="101.791" x="130" y="69.0669">set-up Sandbox</text></g><!--link Created to Terminated--><g id="link_Created_Terminated"><path d="M129,153.19 C129,171.25 129,189.83 129,207.88 " fill="transparent" id="Created-to-Terminated" style="stroke:#181818;stroke-width:1;"/><polygon fill="#181818" points="129,213.88,133,204.88,129,208.88,125,204.88,129,213.88" style="stroke:#181818;stroke-width:1;"/></g><!--link Terminated to Init--><g id="link_Terminated_Init"><path d="M78.4,256.42 C60.91,264.79 43.16,276.9 33,294 C24.75,307.88 23.902,320.2006 25.802,334.7306 " fill="transparent" id="Terminated-to-Init" style="stroke:#181818;stroke-width:1;"/><polygon fill="#181818" points="26.58,340.68,29.3793,331.2373,25.9317,335.7222,21.4468,332.2746,26.58,340.68" style="stroke:#181818;stroke-width:1;"/><text fill="#000000" font-family="sans-serif" font-size="13" lengthAdjust="spacing" textLength="80.9072" x="34" y="307.0669">fork()/exec()</text></g><!--link Init to Run--><g id="link_Init_Run"><path d="M48.39,391.1 C63.44,413.24 82.2569,440.8979 97.2869,463.0079 " fill="transparent" id="Init-to-Run" style="stroke:#181818;stroke-width:1;"/><polygon fill="#181818" points="100.66,467.97,98.9084,458.2782,97.8491,463.835,92.2923,462.7757,100.66,467.97" style="stroke:#181818;stroke-width:1;"/><text fill="#000000" font-family="sans-serif" font-size="13" lengthAdjust="spacing" textLength="65.9458" x="80" y="434.0669">report run</text></g><!--link Run to Terminated--><g id="link_Run_Terminated"><path d="M138.12,467.84 C144.51,459.05 150.7,448.64 154,438 C172.94,376.84 162.79,356.73 150,294 C147.95,283.95 146.49,278.8758 142.72,269.7458 " fill="transparent" id="Run-to-Terminated" style="stroke:#181818;stroke-width:1;"/><polygon fill="#181818" points="140.43,264.2,140.1678,274.0454,142.3383,268.8215,147.5622,270.992,140.43,264.2" style="stroke:#181818;stroke-width:1;"/><text fill="#000000" font-family="sans-serif" font-size="13" lengthAdjust="spacing" textLength="140.7275" x="165" y="370.5669">exit/SIGTERM/SIGKILL</text></g><!--link Terminated to *end*--><g id="link_Terminated_*end*"><path d="M127.26,264.1 C125.28,291.63 122.561,329.3955 121.151,348.9755 " fill="transparent" id="Terminated-to-*end*" style="stroke:#181818;stroke-width:1;"/><polygon fill="#181818" points="120.72,354.96,125.3561,346.2706,121.0791,349.9729,117.3768,345.6959,120.72,354.96" style="stroke:#181818;stroke-width:1;"/></g><!--SRC=[YzQALT3LjLDmBafDB4bDKR1IA4ujqIqjK0XEp4j9og_WWac058Ma5kLcve6uN0WcMCOpBxC4g3SjloXRGrC_jI8rMKEJ2om8aWqgpGDA5gKMv1ULA1ILvd61150D1CgdLcIMw0TxkeUu1lc2Q6zF7nzqUwArOW40]--></g></svg>