<svg xmlns="http://www.w3.org/2000/svg" xmlns:xlink="http://www.w3.org/1999/xlink" contentStyleType="text/css" data-diagram-type="CLASS" height="566px" preserveAspectRatio="none" style="width:534px;height:566px;background:#FFFFFF;" version="1.1" viewBox="0 0 534 566" width="534px" zoomAndPan="magnify"><title>Static View - kvs</title><defs/><g><text fill="#000000" font-family="sans-serif" font-size="14" font-weight="bold" lengthAdjust="spacing" textLength="131.2773" x="194.7886" y="22.9951">Static View - kvs</text><!--cluster persistency--><g id="cluster_persistency"><path d="M8.5,43.2969 L100.9648,43.2969 A3.75,3.75 0 0 1 103.4648,45.7969 L110.4648,65.5938 L346.5,65.5938 A2.5,2.5 0 0 1 349,68.0938 L349,441.7969 A2.5,2.5 0 0 1 346.5,444.2969 L8.5,444.2969 A2.5,2.5 0 0 1 6,441.7969 L6,45.7969 A2.5,2.5 0 0 1 8.5,43.2969 " fill="#90EE90" style="stroke:#000000;stroke-width:1.5;"/><line style="stroke:#000000;stroke-width:1.5;" x1="6" x2="110.4648" y1="65.5938" y2="65.5938"/><text fill="#000000" font-family="sans-serif" font-size="14" font-weight="bold" lengthAdjust="spacing" textLength="91.4648" x="10" y="58.292">persistency</text><text fill="#000000" font-family="sans-serif" font-size="14" font-style="italic" lengthAdjust="spacing" textLength="69.7471" x="146.6265" y="80.5889">&#171;module&#187;</text></g><!--entity kvs--><g id="elem_kvs"><rect fill="#FFFFFF" height="62.5938" rx="2.5" ry="2.5" style="stroke:#181818;stroke-width:0.5;" width="138.4824" x="195" y="94.2969"/><rect fill="#FFFFFF" height="10" style="stroke:#181818;stroke-width:0.5;" width="15" x="313.4824" y="99.2969"/><rect fill="#FFFFFF" height="2" style="stroke:#181818;stroke-width:0.5;" width="4" x="311.4824" y="101.2969"/><rect fill="#FFFFFF" height="2" style="stroke:#181818;stroke-width:0.5;" width="4" x="311.4824" y="105.2969"/><text fill="#000000" font-family="sans-serif" font-size="14" font-style="italic" lengthAdjust="spacing" textLength="96.4824" x="211" y="127.292">&#171;component&#187;</text><text fill="#000000" font-family="sans-serif" font-size="14" lengthAdjust="spacing" textLength="23.6865" x="247.3979" y="143.5889">kvs</text></g><!--entity fs--><g id="elem_fs"><rect fill="#FFFFFF" height="62.5938" rx="2.5" ry="2.5" style="stroke:#181818;stroke-width:0.5;" width="138.4824" x="22" y="365.2969"/><rect fill="#FFFFFF" height="10" style="stroke:#181818;stroke-width:0.5;" width="15" x="140.4824" y="370.2969"/><rect fill="#FFFFFF" height="2" style="stroke:#181818;stroke-width:0.5;" width="4" x="138.4824" y="372.2969"/><rect fill="#FFFFFF" height="2" style="stroke:#181818;stroke-width:0.5;" width="4" x="138.4824" y="376.2969"/><text fill="#000000" font-family="sans-serif" font-size="14" font-style="italic" lengthAdjust="spacing" textLength="96.4824" x="38" y="398.292">&#171;component&#187;</text><text fill="#000000" font-family="sans-serif" font-size="14" lengthAdjust="spacing" textLength="12.2227" x="80.1299" y="414.5889">fs</text></g><!--entity tiny_json--><g id="elem_tiny_json"><rect fill="#FFFFFF" height="62.5938" rx="2.5" ry="2.5" style="stroke:#181818;stroke-width:0.5;" width="138.4824" x="195" y="365.2969"/><rect fill="#FFFFFF" height="10" style="stroke:#181818;stroke-width:0.5;" width="15" x="313.4824" y="370.2969"/><rect fill="#FFFFFF" height="2" style="stroke:#181818;stroke-width:0.5;" width="4" x="311.4824" y="372.2969"/><rect fill="#FFFFFF" height="2" style="stroke:#181818;stroke-width:0.5;" width="4" x="311.4824" y="376.2969"/><text fill="#000000" font-family="sans-serif" font-size="14" font-style="italic" lengthAdjust="spacing" textLength="96.4824" x="211" y="398.292">&#171;component&#187;</text><text fill="#000000" font-family="sans-serif" font-size="14" lengthAdjust="spacing" textLength="62.1592" x="228.1616" y="414.5889">tiny_json</text></g><!--class IKvs--><g id="elem_IKvs"><rect codeLine="2" fill="#F1F1F1" height="325.0469" id="IKvs" rx="2.5" ry="2.5" style="stroke:#181818;stroke-width:0.5;" width="159.8545" x="368" y="234.2969"/><ellipse cx="429.2329" cy="250.2969" fill="#B4A7E5" rx="11" ry="11" style="stroke:#181818;stroke-width:1;"/><path d="M425.1548,246.0625 L425.1548,243.9063 L432.5454,243.9063 L432.5454,246.0625 L430.0767,246.0625 L430.0767,254.1406 L432.5454,254.1406 L432.5454,256.2969 L425.1548,256.2969 L425.1548,254.1406 L427.6235,254.1406 L427.6235,246.0625 L425.1548,246.0625 Z " fill="#000000"/><text fill="#000000" font-family="sans-serif" font-size="14" font-style="italic" lengthAdjust="spacing" textLength="28.8887" x="449.7329" y="255.1436">IKvs</text><line style="stroke:#181818;stroke-width:0.5;" x1="369" x2="526.8545" y1="266.2969" y2="266.2969"/><text fill="#000000" font-family="sans-serif" font-size="14" lengthAdjust="spacing" textLength="34.9385" x="374" y="283.292">open</text><text fill="#000000" font-family="sans-serif" font-size="14" lengthAdjust="spacing" textLength="91.5742" x="374" y="299.5889">flush_on_exit</text><text fill="#000000" font-family="sans-serif" font-size="14" lengthAdjust="spacing" textLength="35.7656" x="374" y="315.8857">reset</text><text fill="#000000" font-family="sans-serif" font-size="14" lengthAdjust="spacing" textLength="85.6475" x="374" y="332.1826">get_all_keys</text><text fill="#000000" font-family="sans-serif" font-size="14" lengthAdjust="spacing" textLength="72.8711" x="374" y="348.4795">key_exists</text><text fill="#000000" font-family="sans-serif" font-size="14" lengthAdjust="spacing" textLength="68.2295" x="374" y="364.7764">get_value</text><text fill="#000000" font-family="sans-serif" font-size="14" lengthAdjust="spacing" textLength="124.4893" x="374" y="381.0732">get_default_value</text><text fill="#000000" font-family="sans-serif" font-size="14" lengthAdjust="spacing" textLength="126.2461" x="374" y="397.3701">has_default_value</text><text fill="#000000" font-family="sans-serif" font-size="14" lengthAdjust="spacing" textLength="122.8965" x="374" y="413.667">set_default_value</text><text fill="#000000" font-family="sans-serif" font-size="14" lengthAdjust="spacing" textLength="66.6367" x="374" y="429.9639">set_value</text><text fill="#000000" font-family="sans-serif" font-size="14" lengthAdjust="spacing" textLength="85.4766" x="374" y="446.2607">remove_key</text><text fill="#000000" font-family="sans-serif" font-size="14" lengthAdjust="spacing" textLength="33.8584" x="374" y="462.5576">flush</text><text fill="#000000" font-family="sans-serif" font-size="14" lengthAdjust="spacing" textLength="110.3525" x="374" y="478.8545">snapshot_count</text><text fill="#000000" font-family="sans-serif" font-size="14" lengthAdjust="spacing" textLength="147.8545" x="374" y="495.1514">snapshot_max_count</text><text fill="#000000" font-family="sans-serif" font-size="14" lengthAdjust="spacing" textLength="120.9414" x="374" y="511.4482">snapshot_restore</text><text fill="#000000" font-family="sans-serif" font-size="14" lengthAdjust="spacing" textLength="121.7002" x="374" y="527.7451">get_kvs_filename</text><text fill="#000000" font-family="sans-serif" font-size="14" lengthAdjust="spacing" textLength="131.6328" x="374" y="544.042">get_hash_filename</text><line style="stroke:#181818;stroke-width:0.5;" x1="369" x2="526.8545" y1="551.3438" y2="551.3438"/></g><!--link kvs to IKvs--><g id="link_kvs_IKvs"><path codeLine="27" d="M289.93,157.5669 C307.31,178.6669 330.34,207.5669 349,234.2969 C355.31,243.3269 358.3718,247.7481 364.6418,257.3181 " fill="transparent" id="kvs-to-IKvs" style="stroke:#181818;stroke-width:1;"/><polygon fill="#181818" points="367.93,262.3369,366.3436,252.6166,365.1899,258.1546,359.6519,257.0008,367.93,262.3369" style="stroke:#181818;stroke-width:1;"/><text fill="#000000" font-family="sans-serif" font-size="13" lengthAdjust="spacing" textLength="76.9082" x="327" y="200.3638">implements</text></g><!--link kvs to tiny_json--><g id="link_kvs_tiny_json"><path codeLine="29" d="M264,157.3969 C264,209.1669 264,307.4769 264,359.2269 " fill="transparent" id="kvs-to-tiny_json" style="stroke:#181818;stroke-width:1;stroke-dasharray:7.0,7.0;"/><polygon fill="#181818" points="264,365.2269,268,356.2269,264,360.2269,260,356.2269,264,365.2269" style="stroke:#181818;stroke-width:1;"/><text fill="#000000" font-family="sans-serif" font-size="13" lengthAdjust="spacing" textLength="23.0103" x="265" y="200.3638">use</text></g><!--link kvs to fs--><g id="link_kvs_fs"><path codeLine="30" d="M236.46,157.5669 C218.45,178.4369 195.03,207.0669 177,234.2969 C148.24,277.7369 123.6105,326.3801 107.7705,359.6301 " fill="transparent" id="kvs-to-fs" style="stroke:#181818;stroke-width:1;stroke-dasharray:7.0,7.0;"/><polygon fill="#181818" points="105.19,365.0469,112.6719,358.6421,107.3404,360.5329,105.4496,355.2014,105.19,365.0469" style="stroke:#181818;stroke-width:1;"/><text fill="#000000" font-family="sans-serif" font-size="13" lengthAdjust="spacing" textLength="23.0103" x="211" y="200.3638">use</text></g><!--SRC=[VL2xJiD04EptAvPGKCLo7KKkGeA4A95ee-EyTZQ-b-w1YH3_pXaRuWI9gsvdPcT6AvIolUPtDYr0vAW8dwE8BF65gSSbTcy1u8QDLAccOTgpYUGR8QbmIIi021qR9xpGw8JiH4lu0PZV9a-jjydKzrPPZxUxSbTkov6plYO_uXkLXT_ew-N6UgrjdHHL5Ifk3x7rH0O-vudIQcSDcJXb_d7u5MIJ_i2HXlqxt5B3Xl21H4oU0lmqNpZoWKCa8qyBd1KOxSzn-H9uuNx5D__JaSrfVmpMNAboEO316vVB2l7nANzNoDefqbaH9h8eCddsM64AD6EQC47m1G00]--></g></svg>