<svg xmlns="http://www.w3.org/2000/svg" xmlns:xlink="http://www.w3.org/1999/xlink" contentStyleType="text/css" data-diagram-type="CLASS" height="623px" preserveAspectRatio="none" style="width:913px;height:623px;background:#FFFFFF;" version="1.1" viewBox="0 0 913 623" width="913px" zoomAndPan="magnify"><defs/><g><!--cluster C1--><a href="../process/process_areas/architecture_design/_assets/architecture_modeling_example.html#comp_arc_sta__archdes_component_1" target="_top" title="../process/process_areas/architecture_design/_assets/architecture_modeling_example.html#comp_arc_sta__archdes_component_1" xlink:actuate="onRequest" xlink:href="../process/process_areas/architecture_design/_assets/architecture_modeling_example.html#comp_arc_sta__archdes_component_1" xlink:show="new" xlink:title="../process/process_areas/architecture_design/_assets/architecture_modeling_example.html#comp_arc_sta__archdes_component_1" xlink:type="simple"><rect fill="transparent" height="388" rx="2.5" ry="2.5" style="stroke:#0000FF;stroke-width:2;" width="603" x="7" y="7"/><rect fill="transparent" height="10" style="stroke:#0000FF;stroke-width:2;" width="15" x="590" y="12"/><rect fill="transparent" height="2" style="stroke:#0000FF;stroke-width:2;" width="4" x="588" y="14"/><rect fill="transparent" height="2" style="stroke:#0000FF;stroke-width:2;" width="4" x="588" y="18"/><text fill="#000000" font-family="sans-serif" font-size="14" font-weight="bold" lengthAdjust="spacing" textLength="104.8564" x="256.0718" y="32.9951">Component 1</text></a><!--class CI2--><a href="../process/process_areas/architecture_design/_assets/architecture_modeling_example.html#comp_arc_int__archdes_component_interface_2" target="_top" title="../process/process_areas/architecture_design/_assets/architecture_modeling_example.html#comp_arc_int__archdes_component_interface_2" xlink:actuate="onRequest" xlink:href="../process/process_areas/architecture_design/_assets/architecture_modeling_example.html#comp_arc_int__archdes_component_interface_2" xlink:show="new" xlink:title="../process/process_areas/architecture_design/_assets/architecture_modeling_example.html#comp_arc_int__archdes_component_interface_2" xlink:type="simple"><g id="elem_CI2"><rect codeLine="16" fill="#F1F1F1" height="80.5938" id="CI2" rx="2.5" ry="2.5" style="stroke:#181818;stroke-width:0.5;" width="193.7656" x="392" y="248.5"/><ellipse cx="407" cy="264.5" fill="#B4A7E5" rx="11" ry="11" style="stroke:#181818;stroke-width:1;"/><path d="M402.9219,260.2656 L402.9219,258.1094 L410.3125,258.1094 L410.3125,260.2656 L407.8438,260.2656 L407.8438,268.3438 L410.3125,268.3438 L410.3125,270.5 L402.9219,270.5 L402.9219,268.3438 L405.3906,268.3438 L405.3906,260.2656 L402.9219,260.2656 Z " fill="#000000"/><text fill="#000000" font-family="sans-serif" font-size="14" font-style="italic" lengthAdjust="spacing" textLength="161.7656" x="421" y="269.3467">Component Interface 2</text><line style="stroke:#181818;stroke-width:0.5;" x1="393" x2="584.7656" y1="280.5" y2="280.5"/><line style="stroke:#181818;stroke-width:0.5;" x1="393" x2="584.7656" y1="288.5" y2="288.5"/><text fill="#000000" font-family="sans-serif" font-size="14" lengthAdjust="spacing" textLength="127.2373" x="398" y="305.4951">real operation 3 ()</text><text fill="#000000" font-family="sans-serif" font-size="14" lengthAdjust="spacing" textLength="127.2373" x="398" y="321.792">real operation 4 ()</text></g></a><!--class CI4--><a href="../process/process_areas/architecture_design/_assets/architecture_modeling_example.html#comp_arc_int__archdes_component_interface_4" target="_top" title="../process/process_areas/architecture_design/_assets/architecture_modeling_example.html#comp_arc_int__archdes_component_interface_4" xlink:actuate="onRequest" xlink:href="../process/process_areas/architecture_design/_assets/architecture_modeling_example.html#comp_arc_int__archdes_component_interface_4" xlink:show="new" xlink:title="../process/process_areas/architecture_design/_assets/architecture_modeling_example.html#comp_arc_int__archdes_component_interface_4" xlink:type="simple"><g id="elem_CI4"><rect codeLine="22" fill="#F1F1F1" height="80.5938" id="CI4" rx="2.5" ry="2.5" style="stroke:#181818;stroke-width:0.5;" width="193.7656" x="392" y="83.5"/><ellipse cx="407" cy="99.5" fill="#B4A7E5" rx="11" ry="11" style="stroke:#181818;stroke-width:1;"/><path d="M402.9219,95.2656 L402.9219,93.1094 L410.3125,93.1094 L410.3125,95.2656 L407.8438,95.2656 L407.8438,103.3438 L410.3125,103.3438 L410.3125,105.5 L402.9219,105.5 L402.9219,103.3438 L405.3906,103.3438 L405.3906,95.2656 L402.9219,95.2656 Z " fill="#000000"/><text fill="#000000" font-family="sans-serif" font-size="14" font-style="italic" lengthAdjust="spacing" textLength="161.7656" x="421" y="104.3467">Component Interface 4</text><line style="stroke:#181818;stroke-width:0.5;" x1="393" x2="584.7656" y1="115.5" y2="115.5"/><line style="stroke:#181818;stroke-width:0.5;" x1="393" x2="584.7656" y1="123.5" y2="123.5"/><text fill="#000000" font-family="sans-serif" font-size="14" lengthAdjust="spacing" textLength="127.2373" x="398" y="140.4951">real operation 7 ()</text><text fill="#000000" font-family="sans-serif" font-size="14" lengthAdjust="spacing" textLength="127.2373" x="398" y="156.792">real operation 8 ()</text></g></a><!--entity LLC1--><a href="../process/process_areas/architecture_design/_assets/architecture_modeling_example.html#comp_arc_sta__archdes_sub_component_1" target="_top" title="../process/process_areas/architecture_design/_assets/architecture_modeling_example.html#comp_arc_sta__archdes_sub_component_1" xlink:actuate="onRequest" xlink:href="../process/process_areas/architecture_design/_assets/architecture_modeling_example.html#comp_arc_sta__archdes_sub_component_1" xlink:show="new" xlink:title="../process/process_areas/architecture_design/_assets/architecture_modeling_example.html#comp_arc_sta__archdes_sub_component_1" xlink:type="simple"><rect fill="#F1F1F1" height="46.2969" rx="2.5" ry="2.5" style="stroke:#0000FF;stroke-width:2;" width="222.9229" x="31" y="161"/><rect fill="#F1F1F1" height="10" style="stroke:#0000FF;stroke-width:2;" width="15" x="233.9229" y="166"/><rect fill="#F1F1F1" height="2" style="stroke:#0000FF;stroke-width:2;" width="4" x="231.9229" y="168"/><rect fill="#F1F1F1" height="2" style="stroke:#0000FF;stroke-width:2;" width="4" x="231.9229" y="172"/><text fill="#000000" font-family="sans-serif" font-size="14" lengthAdjust="spacing" textLength="182.9229" x="46" y="193.9951">Lower Level Component 1</text></a><!--entity LLC2--><a href="../process/process_areas/architecture_design/_assets/architecture_modeling_example.html#comp_arc_sta__archdes_sub_component_2" target="_top" title="../process/process_areas/architecture_design/_assets/architecture_modeling_example.html#comp_arc_sta__archdes_sub_component_2" xlink:actuate="onRequest" xlink:href="../process/process_areas/architecture_design/_assets/architecture_modeling_example.html#comp_arc_sta__archdes_sub_component_2" xlink:show="new" xlink:title="../process/process_areas/architecture_design/_assets/architecture_modeling_example.html#comp_arc_sta__archdes_sub_component_2" xlink:type="simple"><rect fill="#F1F1F1" height="46.2969" rx="2.5" ry="2.5" style="stroke:#0000FF;stroke-width:2;" width="222.9229" x="31" y="257"/><rect fill="#F1F1F1" height="10" style="stroke:#0000FF;stroke-width:2;" width="15" x="233.9229" y="262"/><rect fill="#F1F1F1" height="2" style="stroke:#0000FF;stroke-width:2;" width="4" x="231.9229" y="264"/><rect fill="#F1F1F1" height="2" style="stroke:#0000FF;stroke-width:2;" width="4" x="231.9229" y="268"/><text fill="#000000" font-family="sans-serif" font-size="14" lengthAdjust="spacing" textLength="182.9229" x="46" y="289.9951">Lower Level Component 2</text></a><!--entity LLC3--><a href="../process/process_areas/architecture_design/_assets/architecture_modeling_example.html#comp_arc_sta__archdes_sub_component_3" target="_top" title="../process/process_areas/architecture_design/_assets/architecture_modeling_example.html#comp_arc_sta__archdes_sub_component_3" xlink:actuate="onRequest" xlink:href="../process/process_areas/architecture_design/_assets/architecture_modeling_example.html#comp_arc_sta__archdes_sub_component_3" xlink:show="new" xlink:title="../process/process_areas/architecture_design/_assets/architecture_modeling_example.html#comp_arc_sta__archdes_sub_component_3" xlink:type="simple"><rect fill="#F1F1F1" height="46.2969" rx="2.5" ry="2.5" style="stroke:#181818;stroke-width:0.5;" width="222.9229" x="31" y="50"/><rect fill="#F1F1F1" height="10" style="stroke:#181818;stroke-width:0.5;" width="15" x="233.9229" y="55"/><rect fill="#F1F1F1" height="2" style="stroke:#181818;stroke-width:0.5;" width="4" x="231.9229" y="57"/><rect fill="#F1F1F1" height="2" style="stroke:#181818;stroke-width:0.5;" width="4" x="231.9229" y="61"/><text fill="#000000" font-family="sans-serif" font-size="14" lengthAdjust="spacing" textLength="182.9229" x="46" y="82.9951">Lower Level Component 3</text></a><!--class CI1--><a href="../process/process_areas/architecture_design/architecture_concept.html#comp_arc_int__archdes_component_interface_1" target="_top" title="../process/process_areas/architecture_design/architecture_concept.html#comp_arc_int__archdes_component_interface_1" xlink:actuate="onRequest" xlink:href="../process/process_areas/architecture_design/architecture_concept.html#comp_arc_int__archdes_component_interface_1" xlink:show="new" xlink:title="../process/process_areas/architecture_design/architecture_concept.html#comp_arc_int__archdes_component_interface_1" xlink:type="simple"><g id="elem_CI1"><rect codeLine="36" fill="#F1F1F1" height="80.5938" id="CI1" rx="2.5" ry="2.5" style="stroke:#181818;stroke-width:0.5;" width="193.7656" x="392" y="419.5"/><ellipse cx="407" cy="435.5" fill="#B4A7E5" rx="11" ry="11" style="stroke:#181818;stroke-width:1;"/><path d="M402.9219,431.2656 L402.9219,429.1094 L410.3125,429.1094 L410.3125,431.2656 L407.8438,431.2656 L407.8438,439.3438 L410.3125,439.3438 L410.3125,441.5 L402.9219,441.5 L402.9219,439.3438 L405.3906,439.3438 L405.3906,431.2656 L402.9219,431.2656 Z " fill="#000000"/><text fill="#000000" font-family="sans-serif" font-size="14" font-style="italic" lengthAdjust="spacing" textLength="161.7656" x="421" y="440.3467">Component Interface 1</text><line style="stroke:#181818;stroke-width:0.5;" x1="393" x2="584.7656" y1="451.5" y2="451.5"/><line style="stroke:#181818;stroke-width:0.5;" x1="393" x2="584.7656" y1="459.5" y2="459.5"/><text fill="#000000" font-family="sans-serif" font-size="14" lengthAdjust="spacing" textLength="127.2373" x="398" y="476.4951">real operation 1 ()</text><text fill="#000000" font-family="sans-serif" font-size="14" lengthAdjust="spacing" textLength="127.2373" x="398" y="492.792">real operation 2 ()</text></g></a><!--class CI3--><a href="../process/process_areas/architecture_design/_assets/architecture_modeling_example.html#comp_arc_int__archdes_component_interface_3" target="_top" title="../process/process_areas/architecture_design/_assets/architecture_modeling_example.html#comp_arc_int__archdes_component_interface_3" xlink:actuate="onRequest" xlink:href="../process/process_areas/architecture_design/_assets/architecture_modeling_example.html#comp_arc_int__archdes_component_interface_3" xlink:show="new" xlink:title="../process/process_areas/architecture_design/_assets/architecture_modeling_example.html#comp_arc_int__archdes_component_interface_3" xlink:type="simple"><g id="elem_CI3"><rect codeLine="42" fill="#F1F1F1" height="80.5938" id="CI3" rx="2.5" ry="2.5" style="stroke:#181818;stroke-width:0.5;" width="193.7656" x="392" y="535.5"/><ellipse cx="407" cy="551.5" fill="#B4A7E5" rx="11" ry="11" style="stroke:#181818;stroke-width:1;"/><path d="M402.9219,547.2656 L402.9219,545.1094 L410.3125,545.1094 L410.3125,547.2656 L407.8438,547.2656 L407.8438,555.3438 L410.3125,555.3438 L410.3125,557.5 L402.9219,557.5 L402.9219,555.3438 L405.3906,555.3438 L405.3906,547.2656 L402.9219,547.2656 Z " fill="#000000"/><text fill="#000000" font-family="sans-serif" font-size="14" font-style="italic" lengthAdjust="spacing" textLength="161.7656" x="421" y="556.3467">Component Interface 3</text><line style="stroke:#181818;stroke-width:0.5;" x1="393" x2="584.7656" y1="567.5" y2="567.5"/><line style="stroke:#181818;stroke-width:0.5;" x1="393" x2="584.7656" y1="575.5" y2="575.5"/><text fill="#000000" font-family="sans-serif" font-size="14" lengthAdjust="spacing" textLength="127.2373" x="398" y="592.4951">real operation 5 ()</text><text fill="#000000" font-family="sans-serif" font-size="14" lengthAdjust="spacing" textLength="127.2373" x="398" y="608.792">real operation 6 ()</text></g></a><!--class LI2--><a href="../process/process_areas/architecture_design/_assets/architecture_modeling_example.html#feat_arc_int__archdes_logical_interface_2" target="_top" title="../process/process_areas/architecture_design/_assets/architecture_modeling_example.html#feat_arc_int__archdes_logical_interface_2" xlink:actuate="onRequest" xlink:href="../process/process_areas/architecture_design/_assets/architecture_modeling_example.html#feat_arc_int__archdes_logical_interface_2" xlink:show="new" xlink:title="../process/process_areas/architecture_design/_assets/architecture_modeling_example.html#feat_arc_int__archdes_logical_interface_2" xlink:type="simple"><g id="elem_LI2"><rect codeLine="48" fill="#F1F1F1" height="80.5938" id="LI2" rx="2.5" ry="2.5" style="stroke:#181818;stroke-width:0.5;" width="164.1611" x="742" y="248.5"/><ellipse cx="758.0652" cy="264.5" fill="#B4A7E5" rx="11" ry="11" style="stroke:#181818;stroke-width:1;"/><path d="M753.9871,260.2656 L753.9871,258.1094 L761.3777,258.1094 L761.3777,260.2656 L758.909,260.2656 L758.909,268.3438 L761.3777,268.3438 L761.3777,270.5 L753.9871,270.5 L753.9871,268.3438 L756.4559,268.3438 L756.4559,260.2656 L753.9871,260.2656 Z " fill="#000000"/><text fill="#000000" font-family="sans-serif" font-size="14" font-style="italic" lengthAdjust="spacing" textLength="129.7939" x="772.302" y="269.3467">Logical Interface 2</text><line style="stroke:#181818;stroke-width:0.5;" x1="743" x2="905.1611" y1="280.5" y2="280.5"/><line style="stroke:#181818;stroke-width:0.5;" x1="743" x2="905.1611" y1="288.5" y2="288.5"/><text fill="#000000" font-family="sans-serif" font-size="14" lengthAdjust="spacing" textLength="152.1611" x="748" y="305.4951">Logical Operation 3 ()</text><text fill="#000000" font-family="sans-serif" font-size="14" lengthAdjust="spacing" textLength="152.1611" x="748" y="321.792">Logical Operation 4 ()</text></g></a><!--class LI3--><a href="../process/process_areas/architecture_design/_assets/architecture_modeling_example.html#feat_arc_int__archdes_logical_interface_3" target="_top" title="../process/process_areas/architecture_design/_assets/architecture_modeling_example.html#feat_arc_int__archdes_logical_interface_3" xlink:actuate="onRequest" xlink:href="../process/process_areas/architecture_design/_assets/architecture_modeling_example.html#feat_arc_int__archdes_logical_interface_3" xlink:show="new" xlink:title="../process/process_areas/architecture_design/_assets/architecture_modeling_example.html#feat_arc_int__archdes_logical_interface_3" xlink:type="simple"><g id="elem_LI3"><rect codeLine="54" fill="#F1F1F1" height="80.5938" id="LI3" rx="2.5" ry="2.5" style="stroke:#181818;stroke-width:0.5;" width="164.1611" x="742" y="83.5"/><ellipse cx="758.0652" cy="99.5" fill="#B4A7E5" rx="11" ry="11" style="stroke:#181818;stroke-width:1;"/><path d="M753.9871,95.2656 L753.9871,93.1094 L761.3777,93.1094 L761.3777,95.2656 L758.909,95.2656 L758.909,103.3438 L761.3777,103.3438 L761.3777,105.5 L753.9871,105.5 L753.9871,103.3438 L756.4559,103.3438 L756.4559,95.2656 L753.9871,95.2656 Z " fill="#000000"/><text fill="#000000" font-family="sans-serif" font-size="14" font-style="italic" lengthAdjust="spacing" textLength="129.7939" x="772.302" y="104.3467">Logical Interface 3</text><line style="stroke:#181818;stroke-width:0.5;" x1="743" x2="905.1611" y1="115.5" y2="115.5"/><line style="stroke:#181818;stroke-width:0.5;" x1="743" x2="905.1611" y1="123.5" y2="123.5"/><text fill="#000000" font-family="sans-serif" font-size="14" lengthAdjust="spacing" textLength="152.1611" x="748" y="140.4951">Logical Operation 7 ()</text><text fill="#000000" font-family="sans-serif" font-size="14" lengthAdjust="spacing" textLength="152.1611" x="748" y="156.792">Logical Operation 8 ()</text></g></a><!--class LI1--><a href="../process/process_areas/architecture_design/architecture_concept.html#feat_arc_int__archdes_logical_interface_1" target="_top" title="../process/process_areas/architecture_design/architecture_concept.html#feat_arc_int__archdes_logical_interface_1" xlink:actuate="onRequest" xlink:href="../process/process_areas/architecture_design/architecture_concept.html#feat_arc_int__archdes_logical_interface_1" xlink:show="new" xlink:title="../process/process_areas/architecture_design/architecture_concept.html#feat_arc_int__archdes_logical_interface_1" xlink:type="simple"><g id="elem_LI1"><rect codeLine="60" fill="#F1F1F1" height="80.5938" id="LI1" rx="2.5" ry="2.5" style="stroke:#181818;stroke-width:0.5;" width="164.1611" x="742" y="419.5"/><ellipse cx="758.0652" cy="435.5" fill="#B4A7E5" rx="11" ry="11" style="stroke:#181818;stroke-width:1;"/><path d="M753.9871,431.2656 L753.9871,429.1094 L761.3777,429.1094 L761.3777,431.2656 L758.909,431.2656 L758.909,439.3438 L761.3777,439.3438 L761.3777,441.5 L753.9871,441.5 L753.9871,439.3438 L756.4559,439.3438 L756.4559,431.2656 L753.9871,431.2656 Z " fill="#000000"/><text fill="#000000" font-family="sans-serif" font-size="14" font-style="italic" lengthAdjust="spacing" textLength="129.7939" x="772.302" y="440.3467">Logical Interface 1</text><line style="stroke:#181818;stroke-width:0.5;" x1="743" x2="905.1611" y1="451.5" y2="451.5"/><line style="stroke:#181818;stroke-width:0.5;" x1="743" x2="905.1611" y1="459.5" y2="459.5"/><text fill="#000000" font-family="sans-serif" font-size="14" lengthAdjust="spacing" textLength="152.1611" x="748" y="476.4951">Logical Operation 1 ()</text><text fill="#000000" font-family="sans-serif" font-size="14" lengthAdjust="spacing" textLength="152.1611" x="748" y="492.792">Logical Operation 2 ()</text></g></a><!--link CI1 to LI1--><g id="link_CI1_LI1"><path codeLine="67" d="M586.32,460 C635.59,460 688.89,460 735.81,460 " fill="transparent" id="CI1-to-LI1" style="stroke:#181818;stroke-width:1;"/><polygon fill="#181818" points="741.81,460,732.81,456,736.81,460,732.81,464,741.81,460" style="stroke:#181818;stroke-width:1;"/><text fill="#000000" font-family="sans-serif" font-size="13" lengthAdjust="spacing" textLength="76.9082" x="635" y="456.0669">implements</text></g><!--link LLC2 to CI4--><g id="link_LLC2_CI4"><path codeLine="68" d="M198.1,256.99 C242.46,238.12 306.55,210.46 362,185 C376.14,178.51 385.6707,174.0461 400.1307,167.1061 " fill="transparent" id="LLC2-to-CI4" style="stroke:#181818;stroke-width:1;"/><polygon fill="#181818" points="405.54,164.51,395.6954,164.798,401.0323,166.6735,399.1569,172.0104,405.54,164.51" style="stroke:#181818;stroke-width:1;"/><text fill="#000000" font-family="sans-serif" font-size="13" lengthAdjust="spacing" textLength="29.7832" x="308.5" y="181.0669">uses</text></g><!--link CI4 to LI3--><g id="link_CI4_LI3"><path codeLine="69" d="M586.32,124 C635.59,124 688.89,124 735.81,124 " fill="transparent" id="CI4-to-LI3" style="stroke:#181818;stroke-width:1;"/><polygon fill="#181818" points="741.81,124,732.81,120,736.81,124,732.81,128,741.81,124" style="stroke:#181818;stroke-width:1;"/><text fill="#000000" font-family="sans-serif" font-size="13" lengthAdjust="spacing" textLength="76.9082" x="635" y="120.0669">implements</text></g><!--link LLC1 to CI4--><g id="link_LLC1_CI4"><path codeLine="70" d="M254.4,164.69 C298.65,156.98 343.2192,149.2206 385.8892,141.7806 " fill="transparent" id="LLC1-to-CI4" style="stroke:#181818;stroke-width:1;"/><polygon fill="#181818" points="391.8,140.75,382.2467,138.3554,386.8743,141.6088,383.6208,146.2365,391.8,140.75" style="stroke:#181818;stroke-width:1;"/><text fill="#000000" font-family="sans-serif" font-size="13" lengthAdjust="spacing" textLength="29.7832" x="308.5" y="143.0669">uses</text></g><!--link C1 to CI1--><g id="link_C1_CI1"><path codeLine="71" d="M181.5529,395.0627 C181.8372,395.1229 182.1228,395.1834 182.4097,395.2442 C186.9996,396.217 191.9146,397.2587 197.1095,398.3597 C207.4993,400.5616 219.0091,403.0009 231.2788,405.6013 C280.3575,416.0025 335.7253,427.7362 386.0803,438.4062 " fill="transparent" id="C1-to-CI1" style="stroke:#181818;stroke-width:1;"/><polygon fill="#181818" points="391.95,439.65,383.9747,433.8712,387.0586,438.6135,382.3163,441.6975,391.95,439.65" style="stroke:#181818;stroke-width:1;"/><text fill="#000000" font-family="sans-serif" font-size="13" lengthAdjust="spacing" textLength="76.9082" x="285" y="413.0669">implements</text></g><!--link C1 to CI2--><g id="link_C1_CI2"><path codeLine="72" d="M143.59,386.97 C147.29,385.93 266.43,352.21 362,325 C371.63,322.26 375.9004,321.0468 385.9204,318.1868 " fill="transparent" id="C1-to-CI2" style="stroke:#181818;stroke-width:1;"/><polygon fill="#181818" points="391.69,316.54,381.9378,315.1638,386.882,317.9123,384.1335,322.8566,391.69,316.54" style="stroke:#181818;stroke-width:1;"/><text fill="#000000" font-family="sans-serif" font-size="13" lengthAdjust="spacing" textLength="76.9082" x="285" y="321.0669">implements</text></g><!--link CI2 to LI2--><g id="link_CI2_LI2"><path codeLine="73" d="M586.32,289 C635.59,289 688.89,289 735.81,289 " fill="transparent" id="CI2-to-LI2" style="stroke:#181818;stroke-width:1;"/><polygon fill="#181818" points="741.81,289,732.81,285,736.81,289,732.81,293,741.81,289" style="stroke:#181818;stroke-width:1;"/><text fill="#000000" font-family="sans-serif" font-size="13" lengthAdjust="spacing" textLength="76.9082" x="635" y="285.0669">implements</text></g><!--link LLC2 to CI2--><g id="link_LLC2_CI2"><path codeLine="74" d="M254.2,295.52 C264.26,296.53 274.31,297.38 284,298 C318.6,300.21 327.36,299.24 362,298 C371.64,297.66 375.6996,297.5001 385.7396,296.9301 " fill="transparent" id="LLC2-to-CI2" style="stroke:#181818;stroke-width:1;"/><polygon fill="#181818" points="391.73,296.59,382.5177,293.1066,386.738,296.8734,382.9712,301.0937,391.73,296.59" style="stroke:#181818;stroke-width:1;"/><text fill="#000000" font-family="sans-serif" font-size="13" lengthAdjust="spacing" textLength="76.9082" x="285" y="294.0669">implements</text></g><!--link LLC1 to CI2--><g id="link_LLC1_CI2"><path codeLine="75" d="M194.84,207.05 C221.15,218.29 253.9,231.42 284,241 C318.76,252.07 351.7181,260.5054 386.0881,268.2854 " fill="transparent" id="LLC1-to-CI2" style="stroke:#181818;stroke-width:1;"/><polygon fill="#181818" points="391.94,269.61,384.0452,263.7217,387.0634,268.5061,382.279,271.5243,391.94,269.61" style="stroke:#181818;stroke-width:1;"/><text fill="#000000" font-family="sans-serif" font-size="13" lengthAdjust="spacing" textLength="76.9082" x="285" y="237.0669">implements</text></g><!--link LLC3 to CI4--><g id="link_LLC3_CI4"><path codeLine="76" d="M254.4,89.42 C298.65,95.97 343.1947,102.5609 385.8647,108.8809 " fill="transparent" id="LLC3-to-CI4" style="stroke:#181818;stroke-width:1;"/><polygon fill="#181818" points="391.8,109.76,383.4832,104.4845,386.854,109.0274,382.3111,112.3982,391.8,109.76" style="stroke:#181818;stroke-width:1;"/><text fill="#000000" font-family="sans-serif" font-size="13" lengthAdjust="spacing" textLength="76.9082" x="285" y="90.0669">implements</text></g><!--link C1 to CI3--><g id="link_C1_CI3"><path codeLine="77" d="M158.1149,395.0156 C158.3177,395.1269 158.5224,395.2392 158.7289,395.3525 C159.5552,395.8059 160.4116,396.2757 161.2972,396.7616 C164.8398,398.7053 168.8504,400.9057 173.273,403.3322 C190.9634,413.0381 215.2469,426.3613 242.5438,441.3375 C297.1375,471.29 358.5246,504.9692 408.5896,532.4342 " fill="transparent" id="C1-to-CI3" style="stroke:#181818;stroke-width:1;"/><polygon fill="#181818" points="413.85,535.32,407.8832,527.4843,409.4663,532.9152,404.0355,534.4982,413.85,535.32" style="stroke:#181818;stroke-width:1;"/><text fill="#000000" font-family="sans-serif" font-size="13" lengthAdjust="spacing" textLength="29.7832" x="308.5" y="460.0669">uses</text></g><!--SRC=[pPPDRvim6CVl_XIFkaEtGs7OsLfLKIuvHKBQPRUgGWvv4gmPZB2pjghwtMVAon8mX4hhcbo2_hOU_tyyBuPBgHwYL3oAR4SaRWqO1ONO9GOsei3O29MHH6mGjC42bNdAaSorUPAu853_FAw5NCDpAuGYmwMIge2rtEEH_3CHyQyCjGRgVMrNNjgdkLy79x5ASvLXPk1YsJu65y0rB0EOpryFNIpWxixp_BnGiGtQ_4UyGAvzNiI9C9PYNs2qGIrscHznhT5qrbArGMbVGOIFFCqbUeb9vQVIWOqKHzhmg7n8R8oezHK5z_TWgG-CXke12mZnDqhecWx33xMjz-k-zHVmBs70D5pwG8Z8RDwtFCR3BAnQaLRvM57u7q3MZ2iFhSU8MgndOi-Ke78iU5c-mE3pbwusAxKAtuar2NvMmy_E0txcWhzsmD-Cmyyg-9DbJPkofcTJrlHaMTE9SAo1O_31JEma4wkOEWcTri3rG5q5RyOyqcALnPYRjvPiu2hPm56oTBnafx6ocfMTHxyo5_mt1_ptSNZMWm_LJiGsH7TEX-yxfxV8JHzTLcPwKxen-UDuKFVbWrdj09i0N_Vo- -PzAZmRWBzsmz-CmK_9VFtnyKyRV2fhCC0Qk5df66lTugGSLLTNYvBe5aJv_bFR3Xh8wqLKhjWB-HRs6grMtitLPjRR7FGsDqedSAlJZhwYTN0ww8GE7jjVONyDEOzdZT4_]--></g></svg>