<svg xmlns="http://www.w3.org/2000/svg" xmlns:xlink="http://www.w3.org/1999/xlink" contentStyleType="text/css" data-diagram-type="CLASS" height="344px" preserveAspectRatio="none" style="width:832px;height:344px;background:#FFFFFF;" version="1.1" viewBox="0 0 832 344" width="832px" zoomAndPan="magnify"><defs/><g><!--cluster C2--><g id="cluster_C2"><rect fill="transparent" height="331" rx="2.5" ry="2.5" style="stroke:#0000FF;stroke-width:3;" width="530" x="7" y="7"/><rect fill="transparent" height="10" style="stroke:#0000FF;stroke-width:3;" width="15" x="517" y="12"/><rect fill="transparent" height="2" style="stroke:#0000FF;stroke-width:3;" width="4" x="515" y="14"/><rect fill="transparent" height="2" style="stroke:#0000FF;stroke-width:3;" width="4" x="515" y="18"/><text fill="#000000" font-family="sans-serif" font-size="14" font-weight="bold" lengthAdjust="spacing" textLength="104.8564" x="219.5718" y="32.9951">Component 2</text></g><!--class CI2--><g id="elem_CI2"><rect codeLine="16" fill="#F1F1F1" height="80.5938" id="CI2" rx="2.5" ry="2.5" style="stroke:#181818;stroke-width:0.5;" width="193.7656" x="327" y="58.5"/><ellipse cx="342" cy="74.5" fill="#B4A7E5" rx="11" ry="11" style="stroke:#181818;stroke-width:1;"/><path d="M337.9219,70.2656 L337.9219,68.1094 L345.3125,68.1094 L345.3125,70.2656 L342.8438,70.2656 L342.8438,78.3438 L345.3125,78.3438 L345.3125,80.5 L337.9219,80.5 L337.9219,78.3438 L340.3906,78.3438 L340.3906,70.2656 L337.9219,70.2656 Z " fill="#000000"/><text fill="#000000" font-family="sans-serif" font-size="14" font-style="italic" lengthAdjust="spacing" textLength="161.7656" x="356" y="79.3467">Component Interface 2</text><line style="stroke:#181818;stroke-width:0.5;" x1="328" x2="519.7656" y1="90.5" y2="90.5"/><line style="stroke:#181818;stroke-width:0.5;" x1="328" x2="519.7656" y1="98.5" y2="98.5"/><text fill="#000000" font-family="sans-serif" font-size="14" lengthAdjust="spacing" textLength="127.2373" x="333" y="115.4951">real operation 3 ()</text><text fill="#000000" font-family="sans-serif" font-size="14" lengthAdjust="spacing" textLength="127.2373" x="333" y="131.792">real operation 4 ()</text></g><!--class CI4--><g id="elem_CI4"><rect codeLine="22" fill="#F1F1F1" height="80.5938" id="CI4" rx="2.5" ry="2.5" style="stroke:#181818;stroke-width:0.5;" width="193.7656" x="327" y="189.5"/><ellipse cx="342" cy="205.5" fill="#B4A7E5" rx="11" ry="11" style="stroke:#181818;stroke-width:1;"/><path d="M337.9219,201.2656 L337.9219,199.1094 L345.3125,199.1094 L345.3125,201.2656 L342.8438,201.2656 L342.8438,209.3438 L345.3125,209.3438 L345.3125,211.5 L337.9219,211.5 L337.9219,209.3438 L340.3906,209.3438 L340.3906,201.2656 L337.9219,201.2656 Z " fill="#000000"/><text fill="#000000" font-family="sans-serif" font-size="14" font-style="italic" lengthAdjust="spacing" textLength="161.7656" x="356" y="210.3467">Component Interface 4</text><line style="stroke:#181818;stroke-width:0.5;" x1="328" x2="519.7656" y1="221.5" y2="221.5"/><line style="stroke:#181818;stroke-width:0.5;" x1="328" x2="519.7656" y1="229.5" y2="229.5"/><text fill="#000000" font-family="sans-serif" font-size="14" lengthAdjust="spacing" textLength="127.2373" x="333" y="246.4951">real operation 7 ()</text><text fill="#000000" font-family="sans-serif" font-size="14" lengthAdjust="spacing" textLength="127.2373" x="333" y="262.792">real operation 8 ()</text></g><!--entity SC1--><g id="elem_SC1"><rect fill="#F1F1F1" height="46.2969" rx="2.5" ry="2.5" style="stroke:#0000FF;stroke-width:3;" width="165.7334" x="23" y="79"/><rect fill="#F1F1F1" height="10" style="stroke:#0000FF;stroke-width:3;" width="15" x="168.7334" y="84"/><rect fill="#F1F1F1" height="2" style="stroke:#0000FF;stroke-width:3;" width="4" x="166.7334" y="86"/><rect fill="#F1F1F1" height="2" style="stroke:#0000FF;stroke-width:3;" width="4" x="166.7334" y="90"/><text fill="#000000" font-family="sans-serif" font-size="14" lengthAdjust="spacing" textLength="125.7334" x="38" y="111.9951">Sub Component 1</text></g><!--entity SC2--><g id="elem_SC2"><rect fill="#F1F1F1" height="46.2969" rx="2.5" ry="2.5" style="stroke:#0000FF;stroke-width:3;" width="165.7334" x="23" y="164"/><rect fill="#F1F1F1" height="10" style="stroke:#0000FF;stroke-width:3;" width="15" x="168.7334" y="169"/><rect fill="#F1F1F1" height="2" style="stroke:#0000FF;stroke-width:3;" width="4" x="166.7334" y="171"/><rect fill="#F1F1F1" height="2" style="stroke:#0000FF;stroke-width:3;" width="4" x="166.7334" y="175"/><text fill="#000000" font-family="sans-serif" font-size="14" lengthAdjust="spacing" textLength="125.7334" x="38" y="196.9951">Sub Component 2</text></g><!--entity SC3--><g id="elem_SC3"><rect fill="#F1F1F1" height="46.2969" rx="2.5" ry="2.5" style="stroke:#0000FF;stroke-width:3;" width="165.7334" x="23" y="264"/><rect fill="#F1F1F1" height="10" style="stroke:#0000FF;stroke-width:3;" width="15" x="168.7334" y="269"/><rect fill="#F1F1F1" height="2" style="stroke:#0000FF;stroke-width:3;" width="4" x="166.7334" y="271"/><rect fill="#F1F1F1" height="2" style="stroke:#0000FF;stroke-width:3;" width="4" x="166.7334" y="275"/><text fill="#000000" font-family="sans-serif" font-size="14" lengthAdjust="spacing" textLength="125.7334" x="38" y="296.9951">Sub Component 3</text></g><!--class LI2--><g id="elem_LI2"><rect codeLine="36" fill="#F1F1F1" height="80.5938" id="LI2" rx="2.5" ry="2.5" style="stroke:#181818;stroke-width:0.5;" width="164.1611" x="661" y="58.5"/><ellipse cx="677.0652" cy="74.5" fill="#B4A7E5" rx="11" ry="11" style="stroke:#181818;stroke-width:1;"/><path d="M672.9871,70.2656 L672.9871,68.1094 L680.3777,68.1094 L680.3777,70.2656 L677.909,70.2656 L677.909,78.3438 L680.3777,78.3438 L680.3777,80.5 L672.9871,80.5 L672.9871,78.3438 L675.4559,78.3438 L675.4559,70.2656 L672.9871,70.2656 Z " fill="#000000"/><text fill="#000000" font-family="sans-serif" font-size="14" font-style="italic" lengthAdjust="spacing" textLength="129.7939" x="691.302" y="79.3467">Logical Interface 2</text><line style="stroke:#181818;stroke-width:0.5;" x1="662" x2="824.1611" y1="90.5" y2="90.5"/><line style="stroke:#181818;stroke-width:0.5;" x1="662" x2="824.1611" y1="98.5" y2="98.5"/><text fill="#000000" font-family="sans-serif" font-size="14" lengthAdjust="spacing" textLength="152.1611" x="667" y="115.4951">Logical Operation 3 ()</text><text fill="#000000" font-family="sans-serif" font-size="14" lengthAdjust="spacing" textLength="152.1611" x="667" y="131.792">Logical Operation 4 ()</text></g><!--class LI3--><g id="elem_LI3"><rect codeLine="42" fill="#F1F1F1" height="80.5938" id="LI3" rx="2.5" ry="2.5" style="stroke:#181818;stroke-width:0.5;" width="164.1611" x="661" y="189.5"/><ellipse cx="677.0652" cy="205.5" fill="#B4A7E5" rx="11" ry="11" style="stroke:#181818;stroke-width:1;"/><path d="M672.9871,201.2656 L672.9871,199.1094 L680.3777,199.1094 L680.3777,201.2656 L677.909,201.2656 L677.909,209.3438 L680.3777,209.3438 L680.3777,211.5 L672.9871,211.5 L672.9871,209.3438 L675.4559,209.3438 L675.4559,201.2656 L672.9871,201.2656 Z " fill="#000000"/><text fill="#000000" font-family="sans-serif" font-size="14" font-style="italic" lengthAdjust="spacing" textLength="129.7939" x="691.302" y="210.3467">Logical Interface 3</text><line style="stroke:#181818;stroke-width:0.5;" x1="662" x2="824.1611" y1="221.5" y2="221.5"/><line style="stroke:#181818;stroke-width:0.5;" x1="662" x2="824.1611" y1="229.5" y2="229.5"/><text fill="#000000" font-family="sans-serif" font-size="14" lengthAdjust="spacing" textLength="152.1611" x="667" y="246.4951">Logical Operation 7 ()</text><text fill="#000000" font-family="sans-serif" font-size="14" lengthAdjust="spacing" textLength="152.1611" x="667" y="262.792">Logical Operation 8 ()</text></g><!--link SC1 to CI4--><g id="link_SC1_CI4"><path codeLine="50" d="M189.05,119.83 C223.15,128.52 262.68,140.31 297,155 C319.12,164.47 336.9428,174.0435 357.1128,186.3035 " fill="transparent" id="SC1-to-CI4" style="stroke:#181818;stroke-width:1;"/><polygon fill="#181818" points="362.24,189.42,356.6269,181.3272,357.9674,186.823,352.4716,188.1634,362.24,189.42" style="stroke:#181818;stroke-width:1;"/><text fill="#000000" font-family="sans-serif" font-size="13" lengthAdjust="spacing" textLength="29.7832" x="243.5" y="125.0669">uses</text></g><!--link CI4 to LI3--><g id="link_CI4_LI3"><path codeLine="51" d="M521.4,230 C565.94,230 612.25,230 654.74,230 " fill="transparent" id="CI4-to-LI3" style="stroke:#181818;stroke-width:1;"/><polygon fill="#181818" points="660.74,230,651.74,226,655.74,230,651.74,234,660.74,230" style="stroke:#181818;stroke-width:1;"/><text fill="#000000" font-family="sans-serif" font-size="13" lengthAdjust="spacing" textLength="76.9082" x="554" y="226.0669">implements</text></g><!--link SC1 to CI2--><g id="link_SC1_CI2"><path codeLine="52" d="M189.26,98.73 C199.28,98.43 209.37,98.17 219,98 C254.15,97.37 286.7002,97.3359 320.7402,97.5859 " fill="transparent" id="SC1-to-CI2" style="stroke:#181818;stroke-width:1;"/><polygon fill="#181818" points="326.74,97.63,317.7696,93.564,321.7401,97.5933,317.7109,101.5638,326.74,97.63" style="stroke:#181818;stroke-width:1;"/><text fill="#000000" font-family="sans-serif" font-size="13" lengthAdjust="spacing" textLength="76.9082" x="220" y="94.0669">implements</text></g><!--link CI2 to LI2--><g id="link_CI2_LI2"><path codeLine="53" d="M521.4,99 C565.94,99 612.25,99 654.74,99 " fill="transparent" id="CI2-to-LI2" style="stroke:#181818;stroke-width:1;"/><polygon fill="#181818" points="660.74,99,651.74,95,655.74,99,651.74,103,660.74,99" style="stroke:#181818;stroke-width:1;"/><text fill="#000000" font-family="sans-serif" font-size="13" lengthAdjust="spacing" textLength="76.9082" x="554" y="95.0669">implements</text></g><!--link SC3 to CI4--><g id="link_SC3_CI4"><path codeLine="54" d="M189.29,280.95 C222.88,277.69 261.99,272.88 297,266 C306.71,264.09 310.9395,263.2466 320.9295,260.7466 " fill="transparent" id="SC3-to-CI4" style="stroke:#181818;stroke-width:1;"/><polygon fill="#181818" points="326.75,259.29,317.0482,257.5945,321.8996,260.5038,318.9903,265.3552,326.75,259.29" style="stroke:#181818;stroke-width:1;"/><text fill="#000000" font-family="sans-serif" font-size="13" lengthAdjust="spacing" textLength="76.9082" x="220" y="262.0669">implements</text></g><!--link SC2 to CI4--><g id="link_SC2_CI4"><path codeLine="55" d="M151.79,210.08 C171.79,219.15 196.01,228.46 219,233 C253.75,239.86 286.4842,241.1238 320.7842,239.8438 " fill="transparent" id="SC2-to-CI4" style="stroke:#181818;stroke-width:1;"/><polygon fill="#181818" points="326.78,239.62,317.6371,235.9584,321.7835,239.8065,317.9354,243.9528,326.78,239.62" style="stroke:#181818;stroke-width:1;"/><text fill="#000000" font-family="sans-serif" font-size="13" lengthAdjust="spacing" textLength="29.7832" x="243.5" y="229.0669">uses</text></g><!--link SC2 to CI2--><g id="link_SC2_CI2"><path codeLine="56" d="M189.47,190.91 C223.44,190.31 262.79,186.7 297,176 C322.57,168 343.2484,156.999 364.6984,142.879 " fill="transparent" id="SC2-to-CI2" style="stroke:#181818;stroke-width:1;"/><polygon fill="#181818" points="369.71,139.58,359.9932,141.1875,365.5336,142.3292,364.3919,147.8696,369.71,139.58" style="stroke:#181818;stroke-width:1;"/><text fill="#000000" font-family="sans-serif" font-size="13" lengthAdjust="spacing" textLength="76.9082" x="220" y="172.0669">implements</text></g><!--SRC=[ZP8_Ry8m4CLtVueJ2-q0ANOa48goP492wa3tAeG3h3fs51krgEAxDoPkGapuuybwTtu_-vrJ8TJtPyv_kDmHWLi3Ha79Tti36rvYPhYIPCyt2DfWYSeS2oIHDaU1CG6tngdcOWs_ZR3a4XCbL0bhSS2E_B7dsPT4hO6DtvhAwRoB0cTCCfKNIg8qC4YQBHr0gY6X44LdO1n3nRneNHtMqBPFpkshPDBjFq4m1AyJXW4GmcNrn6sQuILqqOWElw3MfSHKW2gmJ6r2mE3brTT2gzMuNhkdeA63XZtGQGzqTXyQrj2RcL6N6NsO6NtWn9mJU-Z4QYVlpjVnBDMEPzLZ_Oaiwudybz-xGxcMB-RIO_a4bZaiwyTE-x6pUrYN0I7skuv6iPtu70uQDH0xV2jLm3dml12OLm5LXRQNTWlsZzOdg7-2jUxT0lMnhUIP_040]--></g></svg>