<svg xmlns="http://www.w3.org/2000/svg" xmlns:xlink="http://www.w3.org/1999/xlink" contentStyleType="text/css" data-diagram-type="CLASS" height="436px" preserveAspectRatio="none" style="width:983px;height:436px;background:#FFFFFF;" version="1.1" viewBox="0 0 983 436" width="983px" zoomAndPan="magnify"><defs/><g><!--cluster C1--><g id="cluster_C1"><rect fill="transparent" height="271" rx="2.5" ry="2.5" style="stroke:#181818;stroke-width:1;" width="523" x="7" y="7"/><rect fill="transparent" height="10" style="stroke:#181818;stroke-width:1;" width="15" x="510" y="12"/><rect fill="transparent" height="2" style="stroke:#181818;stroke-width:1;" width="4" x="508" y="14"/><rect fill="transparent" height="2" style="stroke:#181818;stroke-width:1;" width="4" x="508" y="18"/><text fill="#000000" font-family="sans-serif" font-size="14" font-weight="bold" lengthAdjust="spacing" textLength="104.8564" x="216.0718" y="32.9951">Component 1</text></g><!--class CI2--><g id="elem_CI2"><rect codeLine="7" fill="#F1F1F1" height="80.5938" id="CI2" rx="2.5" ry="2.5" style="stroke:#181818;stroke-width:0.5;" width="193.7656" x="260" y="173"/><ellipse cx="275" cy="189" fill="#B4A7E5" rx="11" ry="11" style="stroke:#181818;stroke-width:1;"/><path d="M270.9219,184.7656 L270.9219,182.6094 L278.3125,182.6094 L278.3125,184.7656 L275.8438,184.7656 L275.8438,192.8438 L278.3125,192.8438 L278.3125,195 L270.9219,195 L270.9219,192.8438 L273.3906,192.8438 L273.3906,184.7656 L270.9219,184.7656 Z " fill="#000000"/><text fill="#000000" font-family="sans-serif" font-size="14" font-style="italic" lengthAdjust="spacing" textLength="161.7656" x="289" y="193.8467">Component Interface 2</text><line style="stroke:#181818;stroke-width:0.5;" x1="261" x2="452.7656" y1="205" y2="205"/><text fill="#000000" font-family="sans-serif" font-size="14" lengthAdjust="spacing" textLength="111.8633" x="266" y="221.9951">real operation 3</text><text fill="#000000" font-family="sans-serif" font-size="14" lengthAdjust="spacing" textLength="111.8633" x="266" y="238.292">real operation 4</text><line style="stroke:#181818;stroke-width:0.5;" x1="261" x2="452.7656" y1="245.5938" y2="245.5938"/></g><!--class CI4--><g id="elem_CI4"><rect codeLine="13" fill="#F1F1F1" height="80.5938" id="CI4" rx="2.5" ry="2.5" style="stroke:#181818;stroke-width:0.5;" width="193.7656" x="31" y="173"/><ellipse cx="46" cy="189" fill="#B4A7E5" rx="11" ry="11" style="stroke:#181818;stroke-width:1;"/><path d="M41.9219,184.7656 L41.9219,182.6094 L49.3125,182.6094 L49.3125,184.7656 L46.8438,184.7656 L46.8438,192.8438 L49.3125,192.8438 L49.3125,195 L41.9219,195 L41.9219,192.8438 L44.3906,192.8438 L44.3906,184.7656 L41.9219,184.7656 Z " fill="#000000"/><text fill="#000000" font-family="sans-serif" font-size="14" font-style="italic" lengthAdjust="spacing" textLength="161.7656" x="60" y="193.8467">Component Interface 4</text><line style="stroke:#181818;stroke-width:0.5;" x1="32" x2="223.7656" y1="205" y2="205"/><text fill="#000000" font-family="sans-serif" font-size="14" lengthAdjust="spacing" textLength="111.8633" x="37" y="221.9951">real operation 7</text><text fill="#000000" font-family="sans-serif" font-size="14" lengthAdjust="spacing" textLength="111.8633" x="37" y="238.292">real operation 8</text><line style="stroke:#181818;stroke-width:0.5;" x1="32" x2="223.7656" y1="245.5938" y2="245.5938"/></g><!--entity SC1--><g id="elem_SC1"><rect fill="#F1F1F1" height="46.2969" rx="2.5" ry="2.5" style="stroke:#181818;stroke-width:0.5;" width="165.7334" x="240" y="50"/><rect fill="#F1F1F1" height="10" style="stroke:#181818;stroke-width:0.5;" width="15" x="385.7334" y="55"/><rect fill="#F1F1F1" height="2" style="stroke:#181818;stroke-width:0.5;" width="4" x="383.7334" y="57"/><rect fill="#F1F1F1" height="2" style="stroke:#181818;stroke-width:0.5;" width="4" x="383.7334" y="61"/><text fill="#000000" font-family="sans-serif" font-size="14" lengthAdjust="spacing" textLength="125.7334" x="255" y="82.9951">Sub Component 1</text></g><!--entity SC2--><g id="elem_SC2"><rect fill="#F1F1F1" height="46.2969" rx="2.5" ry="2.5" style="stroke:#181818;stroke-width:0.5;" width="165.7334" x="36" y="50"/><rect fill="#F1F1F1" height="10" style="stroke:#181818;stroke-width:0.5;" width="15" x="181.7334" y="55"/><rect fill="#F1F1F1" height="2" style="stroke:#181818;stroke-width:0.5;" width="4" x="179.7334" y="57"/><rect fill="#F1F1F1" height="2" style="stroke:#181818;stroke-width:0.5;" width="4" x="179.7334" y="61"/><text fill="#000000" font-family="sans-serif" font-size="14" lengthAdjust="spacing" textLength="125.7334" x="51" y="82.9951">Sub Component 2</text></g><!--class CI1--><g id="elem_CI1"><rect codeLine="24" fill="#F1F1F1" height="80.5938" id="CI1" rx="2.5" ry="2.5" style="stroke:#181818;stroke-width:0.5;" width="193.7656" x="783" y="173"/><ellipse cx="798" cy="189" fill="#B4A7E5" rx="11" ry="11" style="stroke:#181818;stroke-width:1;"/><path d="M793.9219,184.7656 L793.9219,182.6094 L801.3125,182.6094 L801.3125,184.7656 L798.8438,184.7656 L798.8438,192.8438 L801.3125,192.8438 L801.3125,195 L793.9219,195 L793.9219,192.8438 L796.3906,192.8438 L796.3906,184.7656 L793.9219,184.7656 Z " fill="#000000"/><text fill="#000000" font-family="sans-serif" font-size="14" font-style="italic" lengthAdjust="spacing" textLength="161.7656" x="812" y="193.8467">Component Interface 1</text><line style="stroke:#181818;stroke-width:0.5;" x1="784" x2="975.7656" y1="205" y2="205"/><text fill="#000000" font-family="sans-serif" font-size="14" lengthAdjust="spacing" textLength="111.8633" x="789" y="221.9951">real operation 1</text><text fill="#000000" font-family="sans-serif" font-size="14" lengthAdjust="spacing" textLength="111.8633" x="789" y="238.292">real operation 2</text><line style="stroke:#181818;stroke-width:0.5;" x1="784" x2="975.7656" y1="245.5938" y2="245.5938"/></g><!--class CI3--><g id="elem_CI3"><rect codeLine="30" fill="#F1F1F1" height="80.5938" id="CI3" rx="2.5" ry="2.5" style="stroke:#181818;stroke-width:0.5;" width="193.7656" x="554" y="173"/><ellipse cx="569" cy="189" fill="#B4A7E5" rx="11" ry="11" style="stroke:#181818;stroke-width:1;"/><path d="M564.9219,184.7656 L564.9219,182.6094 L572.3125,182.6094 L572.3125,184.7656 L569.8438,184.7656 L569.8438,192.8438 L572.3125,192.8438 L572.3125,195 L564.9219,195 L564.9219,192.8438 L567.3906,192.8438 L567.3906,184.7656 L564.9219,184.7656 Z " fill="#000000"/><text fill="#000000" font-family="sans-serif" font-size="14" font-style="italic" lengthAdjust="spacing" textLength="161.7656" x="583" y="193.8467">Component Interface 3</text><line style="stroke:#181818;stroke-width:0.5;" x1="555" x2="746.7656" y1="205" y2="205"/><text fill="#000000" font-family="sans-serif" font-size="14" lengthAdjust="spacing" textLength="111.8633" x="560" y="221.9951">real operation 5</text><text fill="#000000" font-family="sans-serif" font-size="14" lengthAdjust="spacing" textLength="111.8633" x="560" y="238.292">real operation 6</text><line style="stroke:#181818;stroke-width:0.5;" x1="555" x2="746.7656" y1="245.5938" y2="245.5938"/></g><!--class LI2--><g id="elem_LI2"><rect codeLine="36" fill="#F1F1F1" height="80.5938" id="LI2" rx="2.5" ry="2.5" style="stroke:#181818;stroke-width:0.5;" width="161.7939" x="276" y="349"/><ellipse cx="291" cy="365" fill="#B4A7E5" rx="11" ry="11" style="stroke:#181818;stroke-width:1;"/><path d="M286.9219,360.7656 L286.9219,358.6094 L294.3125,358.6094 L294.3125,360.7656 L291.8438,360.7656 L291.8438,368.8438 L294.3125,368.8438 L294.3125,371 L286.9219,371 L286.9219,368.8438 L289.3906,368.8438 L289.3906,360.7656 L286.9219,360.7656 Z " fill="#000000"/><text fill="#000000" font-family="sans-serif" font-size="14" font-style="italic" lengthAdjust="spacing" textLength="129.7939" x="305" y="369.8467">Logical Interface 2</text><line style="stroke:#181818;stroke-width:0.5;" x1="277" x2="436.7939" y1="381" y2="381"/><text fill="#000000" font-family="sans-serif" font-size="14" lengthAdjust="spacing" textLength="136.7871" x="282" y="397.9951">Logical Operation 3</text><text fill="#000000" font-family="sans-serif" font-size="14" lengthAdjust="spacing" textLength="136.7871" x="282" y="414.292">Logical Operation 4</text><line style="stroke:#181818;stroke-width:0.5;" x1="277" x2="436.7939" y1="421.5938" y2="421.5938"/></g><!--class LI3--><g id="elem_LI3"><rect codeLine="42" fill="#F1F1F1" height="80.5938" id="LI3" rx="2.5" ry="2.5" style="stroke:#181818;stroke-width:0.5;" width="161.7939" x="47" y="349"/><ellipse cx="62" cy="365" fill="#B4A7E5" rx="11" ry="11" style="stroke:#181818;stroke-width:1;"/><path d="M57.9219,360.7656 L57.9219,358.6094 L65.3125,358.6094 L65.3125,360.7656 L62.8438,360.7656 L62.8438,368.8438 L65.3125,368.8438 L65.3125,371 L57.9219,371 L57.9219,368.8438 L60.3906,368.8438 L60.3906,360.7656 L57.9219,360.7656 Z " fill="#000000"/><text fill="#000000" font-family="sans-serif" font-size="14" font-style="italic" lengthAdjust="spacing" textLength="129.7939" x="76" y="369.8467">Logical Interface 3</text><line style="stroke:#181818;stroke-width:0.5;" x1="48" x2="207.7939" y1="381" y2="381"/><text fill="#000000" font-family="sans-serif" font-size="14" lengthAdjust="spacing" textLength="136.7871" x="53" y="397.9951">Logical Operation 7</text><text fill="#000000" font-family="sans-serif" font-size="14" lengthAdjust="spacing" textLength="136.7871" x="53" y="414.292">Logical Operation 8</text><line style="stroke:#181818;stroke-width:0.5;" x1="48" x2="207.7939" y1="421.5938" y2="421.5938"/></g><!--class LI1--><g id="elem_LI1"><rect codeLine="48" fill="#F1F1F1" height="80.5938" id="LI1" rx="2.5" ry="2.5" style="stroke:#181818;stroke-width:0.5;" width="161.7939" x="799" y="349"/><ellipse cx="814" cy="365" fill="#B4A7E5" rx="11" ry="11" style="stroke:#181818;stroke-width:1;"/><path d="M809.9219,360.7656 L809.9219,358.6094 L817.3125,358.6094 L817.3125,360.7656 L814.8438,360.7656 L814.8438,368.8438 L817.3125,368.8438 L817.3125,371 L809.9219,371 L809.9219,368.8438 L812.3906,368.8438 L812.3906,360.7656 L809.9219,360.7656 Z " fill="#000000"/><text fill="#000000" font-family="sans-serif" font-size="14" font-style="italic" lengthAdjust="spacing" textLength="129.7939" x="828" y="369.8467">Logical Interface 1</text><line style="stroke:#181818;stroke-width:0.5;" x1="800" x2="959.7939" y1="381" y2="381"/><text fill="#000000" font-family="sans-serif" font-size="14" lengthAdjust="spacing" textLength="136.7871" x="805" y="397.9951">Logical Operation 1</text><text fill="#000000" font-family="sans-serif" font-size="14" lengthAdjust="spacing" textLength="136.7871" x="805" y="414.292">Logical Operation 2</text><line style="stroke:#181818;stroke-width:0.5;" x1="800" x2="959.7939" y1="421.5938" y2="421.5938"/></g><!--link SC1 to CI2--><g id="link_SC1_CI2"><path codeLine="56" d="M321.87,96.04 C321.68,109.73 322.37,127.59 326,143 C328.36,153.03 329.7877,157.8932 333.9277,167.4632 " fill="transparent" id="SC1-to-CI2" style="stroke:#181818;stroke-width:1;"/><polygon fill="#181818" points="336.31,172.97,336.4078,163.1216,334.3248,168.381,329.0654,166.298,336.31,172.97" style="stroke:#181818;stroke-width:1;"/><text fill="#000000" font-family="sans-serif" font-size="13" lengthAdjust="spacing" textLength="76.9082" x="327" y="139.0669">implements</text></g><!--link CI2 to LI2--><g id="link_CI2_LI2"><path codeLine="57" d="M357,254.42 C357,282.71 357,314.51 357,342.77 " fill="transparent" id="CI2-to-LI2" style="stroke:#181818;stroke-width:1;"/><polygon fill="#181818" points="357,348.77,361,339.77,357,343.77,353,339.77,357,348.77" style="stroke:#181818;stroke-width:1;"/><text fill="#000000" font-family="sans-serif" font-size="13" lengthAdjust="spacing" textLength="76.9082" x="358" y="315.0669">implements</text></g><!--link SC2 to CI2--><g id="link_SC2_CI2"><path codeLine="58" d="M122.49,96.1 C125.99,111.24 132.83,130.72 146,143 C178.7,173.48 199.52,159.07 242,173 C247.82,174.91 248.1017,174.9813 254.1217,177.0013 " fill="transparent" id="SC2-to-CI2" style="stroke:#181818;stroke-width:1;"/><polygon fill="#181818" points="259.81,178.91,252.55,172.2547,255.0697,177.3194,250.0051,179.8392,259.81,178.91" style="stroke:#181818;stroke-width:1;"/><text fill="#000000" font-family="sans-serif" font-size="13" lengthAdjust="spacing" textLength="76.9082" x="147" y="139.0669">implements</text></g><!--link CI1 to LI1--><g id="link_CI1_LI1"><path codeLine="59" d="M880,254.42 C880,282.71 880,314.51 880,342.77 " fill="transparent" id="CI1-to-LI1" style="stroke:#181818;stroke-width:1;"/><polygon fill="#181818" points="880,348.77,884,339.77,880,343.77,876,339.77,880,348.77" style="stroke:#181818;stroke-width:1;"/><text fill="#000000" font-family="sans-serif" font-size="13" lengthAdjust="spacing" textLength="76.9082" x="881" y="315.0669">implements</text></g><!--link SC1 to CI4--><g id="link_SC1_CI4"><path codeLine="60" d="M291.67,96.25 C262.6,116.9 223.5717,144.6257 188.5417,169.5057 " fill="transparent" id="SC1-to-CI4" style="stroke:#181818;stroke-width:1;"/><polygon fill="#181818" points="183.65,172.98,193.3038,171.0296,187.7264,170.0847,188.6714,164.5073,183.65,172.98" style="stroke:#181818;stroke-width:1;"/><text fill="#000000" font-family="sans-serif" font-size="13" lengthAdjust="spacing" textLength="29.7832" x="250" y="139.0669">uses</text></g><!--link C1 to CI1--><g id="link_C1_CI1"><path codeLine="61" d="M530.4464,77.2696 C530.5973,77.328 530.7501,77.3871 530.9048,77.4469 C531.2141,77.5666 531.5309,77.6891 531.8551,77.8145 C532.5035,78.0653 533.1814,78.3276 533.8882,78.6009 C535.3016,79.1477 536.8302,79.739 538.468,80.3725 C541.7435,81.6396 545.4557,83.0756 549.5567,84.662 C565.9609,91.0078 588.5869,99.7606 614.3738,109.7362 C665.9475,129.6875 724.5691,152.3654 776.9441,172.6254 " fill="transparent" id="C1-to-CI1" style="stroke:#181818;stroke-width:1;"/><polygon fill="#181818" points="782.54,174.79,775.5892,167.8124,777.8767,172.9861,772.703,175.2736,782.54,174.79" style="stroke:#181818;stroke-width:1;"/><text fill="#000000" font-family="sans-serif" font-size="13" lengthAdjust="spacing" textLength="76.9082" x="691" y="139.0669">implements</text></g><!--link C1 to CI2--><g id="link_C1_CI2"><path codeLine="62" d="M521.88,74.1 C518.68,76.79 456.5051,128.9719 408.9351,168.9119 " fill="transparent" id="C1-to-CI2" style="stroke:#181818;stroke-width:1;"/><polygon fill="#181818" points="404.34,172.77,413.8047,170.0463,408.1693,169.5549,408.6606,163.9195,404.34,172.77" style="stroke:#181818;stroke-width:1;"/><text fill="#000000" font-family="sans-serif" font-size="13" lengthAdjust="spacing" textLength="76.9082" x="461" y="139.0669">implements</text></g><!--link C1 to CI3--><g id="link_C1_CI3"><path codeLine="63" d="M530.1932,82.797 C530.8542,83.5066 531.55,84.2535 532.2784,85.0355 C538.1063,91.2916 546.0288,99.7969 555.035,109.4663 C573.0475,128.805 591.3062,148.4089 609.9012,168.3789 " fill="transparent" id="C1-to-CI3" style="stroke:#181818;stroke-width:1;"/><polygon fill="#181818" points="613.99,172.77,610.7842,163.4575,610.5827,169.1107,604.9294,168.9092,613.99,172.77" style="stroke:#181818;stroke-width:1;"/><text fill="#000000" font-family="sans-serif" font-size="13" lengthAdjust="spacing" textLength="29.7832" x="583" y="139.0669">uses</text></g><!--link CI4 to LI3--><g id="link_CI4_LI3"><path codeLine="64" d="M128,254.42 C128,282.71 128,314.51 128,342.77 " fill="transparent" id="CI4-to-LI3" style="stroke:#181818;stroke-width:1;"/><polygon fill="#181818" points="128,348.77,132,339.77,128,343.77,124,339.77,128,348.77" style="stroke:#181818;stroke-width:1;"/><text fill="#000000" font-family="sans-serif" font-size="13" lengthAdjust="spacing" textLength="76.9082" x="129" y="315.0669">implements</text></g><!--link SC2 to CI4--><g id="link_SC2_CI4"><path codeLine="65" d="M83.72,96.23 C68.69,108.73 56.03,125.35 63,143 C67.25,153.76 70.1404,159.2615 77.7604,168.2115 " fill="transparent" id="SC2-to-CI4" style="stroke:#181818;stroke-width:1;"/><polygon fill="#181818" points="81.65,172.78,78.8613,163.3342,78.4087,168.9729,72.77,168.5203,81.65,172.78" style="stroke:#181818;stroke-width:1;"/><text fill="#000000" font-family="sans-serif" font-size="13" lengthAdjust="spacing" textLength="29.7832" x="64" y="139.0669">uses</text></g><!--SRC=[ZPFDQiCm3CVlVWhHIq-b-6DhwQ6NdWA17Ve0mmjUCIHsI58s67ltnRCJWc87tynV7pz9bcHTsw_tHdzhyo2LRLfhb1bWTvkVT0UoXni5-5awt9yVW9tktkiNZdj0TjWVWH1j1jLzoaej0SKiCeygs9YaKx86swfE3jeQu5WGn7EYUR9e8j34cdR2mdc39ZmjEHiMPiCIimdLelnv4mkVKz1r3nGBRAE7F1eFDBwclM3XTOF6LxJIFdGrnkDTAFztORA-BTPXhKqR4ScLmUE1nwEyKqGx9tav_T70er4UZMWioGk_HuWxmCFXwaxe0hffQzMCa- -1k9joXX8Rt5ec8cY8e3XYOeWBF7lbV2S5kIQhcNG-PnYlqDDughwPzWS0]--></g></svg>