<svg xmlns="http://www.w3.org/2000/svg" xmlns:xlink="http://www.w3.org/1999/xlink" contentStyleType="text/css" data-diagram-type="CLASS" height="284px" preserveAspectRatio="none" style="width:510px;height:284px;background:#FFFFFF;" version="1.1" viewBox="0 0 510 284" width="510px" zoomAndPan="magnify"><defs/><g><!--cluster FGS--><g id="cluster_FGS"><path d="M114.5,6 L305.3066,6 A3.75,3.75 0 0 1 307.8066,8.5 L314.8066,28.2969 L500.5,28.2969 A2.5,2.5 0 0 1 503,30.7969 L503,274.5 A2.5,2.5 0 0 1 500.5,277 L114.5,277 A2.5,2.5 0 0 1 112,274.5 L112,8.5 A2.5,2.5 0 0 1 114.5,6 " fill="transparent" style="stroke:#000000;stroke-width:1.5;"/><line style="stroke:#000000;stroke-width:1.5;" x1="112" x2="314.8066" y1="28.2969" y2="28.2969"/><text fill="#000000" font-family="sans-serif" font-size="14" font-weight="bold" lengthAdjust="spacing" textLength="189.8066" x="116" y="20.9951">Feature Getting Started</text></g><!--class LI1--><g id="elem_LI1"><rect codeLine="5" fill="#F1F1F1" height="80.5938" id="LI1" rx="2.5" ry="2.5" style="stroke:#181818;stroke-width:0.5;" width="161.7939" x="128" y="180"/><ellipse cx="143" cy="196" fill="#B4A7E5" rx="11" ry="11" style="stroke:#181818;stroke-width:1;"/><path d="M138.9219,191.7656 L138.9219,189.6094 L146.3125,189.6094 L146.3125,191.7656 L143.8438,191.7656 L143.8438,199.8438 L146.3125,199.8438 L146.3125,202 L138.9219,202 L138.9219,199.8438 L141.3906,199.8438 L141.3906,191.7656 L138.9219,191.7656 Z " fill="#000000"/><text fill="#000000" font-family="sans-serif" font-size="14" font-style="italic" lengthAdjust="spacing" textLength="129.7939" x="157" y="200.8467">Logical Interface 1</text><line style="stroke:#181818;stroke-width:0.5;" x1="129" x2="288.7939" y1="212" y2="212"/><text fill="#000000" font-family="sans-serif" font-size="14" lengthAdjust="spacing" textLength="136.7871" x="134" y="228.9951">Logical Operation 1</text><text fill="#000000" font-family="sans-serif" font-size="14" lengthAdjust="spacing" textLength="136.7871" x="134" y="245.292">Logical Operation 2</text><line style="stroke:#181818;stroke-width:0.5;" x1="129" x2="288.7939" y1="252.5938" y2="252.5938"/></g><!--class C1--><g id="elem_C1"><rect codeLine="18" fill="#F1F1F1" height="48" id="C1" rx="2.5" ry="2.5" style="stroke:#181818;stroke-width:0.5;" width="126.6367" x="224.5" y="41"/><ellipse cx="239.5" cy="57" fill="#ADD1B2" rx="11" ry="11" style="stroke:#181818;stroke-width:1;"/><path d="M242.4688,62.6406 Q241.8906,62.9375 241.25,63.0781 Q240.6094,63.2344 239.9063,63.2344 Q237.4063,63.2344 236.0781,61.5938 Q234.7656,59.9375 234.7656,56.8125 Q234.7656,53.6875 236.0781,52.0313 Q237.4063,50.375 239.9063,50.375 Q240.6094,50.375 241.25,50.5313 Q241.9063,50.6875 242.4688,50.9844 L242.4688,53.7031 Q241.8438,53.125 241.25,52.8594 Q240.6563,52.5781 240.0313,52.5781 Q238.6875,52.5781 238,53.6563 Q237.3125,54.7188 237.3125,56.8125 Q237.3125,58.9063 238,59.9844 Q238.6875,61.0469 240.0313,61.0469 Q240.6563,61.0469 241.25,60.7813 Q241.8438,60.5 242.4688,59.9219 L242.4688,62.6406 Z " fill="#000000"/><text fill="#000000" font-family="sans-serif" font-size="14" lengthAdjust="spacing" textLength="94.6367" x="253.5" y="61.8467">Component 1</text><line style="stroke:#181818;stroke-width:0.5;" x1="225.5" x2="350.1367" y1="73" y2="73"/><line style="stroke:#181818;stroke-width:0.5;" x1="225.5" x2="350.1367" y1="81" y2="81"/></g><!--class LI2--><g id="elem_LI2"><rect codeLine="12" fill="#F1F1F1" height="80.5938" id="LI2" rx="2.5" ry="2.5" style="stroke:#181818;stroke-width:0.5;" width="161.7939" x="325" y="180"/><ellipse cx="340" cy="196" fill="#B4A7E5" rx="11" ry="11" style="stroke:#181818;stroke-width:1;"/><path d="M335.9219,191.7656 L335.9219,189.6094 L343.3125,189.6094 L343.3125,191.7656 L340.8438,191.7656 L340.8438,199.8438 L343.3125,199.8438 L343.3125,202 L335.9219,202 L335.9219,199.8438 L338.3906,199.8438 L338.3906,191.7656 L335.9219,191.7656 Z " fill="#000000"/><text fill="#000000" font-family="sans-serif" font-size="14" font-style="italic" lengthAdjust="spacing" textLength="129.7939" x="354" y="200.8467">Logical Interface 2</text><line style="stroke:#181818;stroke-width:0.5;" x1="326" x2="485.7939" y1="212" y2="212"/><text fill="#000000" font-family="sans-serif" font-size="14" lengthAdjust="spacing" textLength="136.7871" x="331" y="228.9951">Logical Operation 3</text><text fill="#000000" font-family="sans-serif" font-size="14" lengthAdjust="spacing" textLength="136.7871" x="331" y="245.292">Logical Operation 4</text><line style="stroke:#181818;stroke-width:0.5;" x1="326" x2="485.7939" y1="252.5938" y2="252.5938"/></g><!--entity FU--><g id="elem_FU"><ellipse cx="51.1685" cy="35.5" fill="#F1F1F1" rx="8" ry="8" style="stroke:#181818;stroke-width:0.5;"/><path d="M51.1685,43.5 L51.1685,70.5 M38.1685,51.5 L64.1685,51.5 M51.1685,70.5 L38.1685,85.5 M51.1685,70.5 L64.1685,85.5 " fill="transparent" style="stroke:#181818;stroke-width:0.5;"/><text fill="#000000" font-family="sans-serif" font-size="14" lengthAdjust="spacing" textLength="90.3369" x="6" y="99.9951">Feature User</text></g><!--link FU to LI1--><g id="link_FU_LI1"><path codeLine="21" d="M62.13,103.21 C68.2,118.97 76.97,136.71 89,150 C100.06,162.23 108.7439,169.6595 122.9239,178.7195 " fill="transparent" id="FU-to-LI1" style="stroke:#181818;stroke-width:1;"/><polygon fill="#181818" points="127.98,181.95,122.5495,173.7336,123.7666,179.2579,118.2422,180.475,127.98,181.95" style="stroke:#181818;stroke-width:1;"/><text fill="#000000" font-family="sans-serif" font-size="13" lengthAdjust="spacing" textLength="23.0103" x="90" y="146.0669">use</text></g><!--link C1 to LI1--><g id="link_C1_LI1"><path codeLine="22" d="M276,89.31 C263.66,113.3 246.9463,145.7754 232.1663,174.4854 " fill="transparent" id="C1-to-LI1" style="stroke:#181818;stroke-width:1;"/><polygon fill="#181818" points="229.42,179.82,237.0958,173.6489,231.7086,175.3745,229.983,169.9872,229.42,179.82" style="stroke:#181818;stroke-width:1;"/><text fill="#000000" font-family="sans-serif" font-size="13" lengthAdjust="spacing" textLength="76.9082" x="254" y="146.0669">implements</text></g><!--link FU to LI2--><g id="link_FU_LI2"><path codeLine="23" d="M96.32,94.23 C101.56,97.28 106.86,100.26 112,103 C155.68,126.32 166.85,132.06 213,150 C254.27,166.04 266.32,165.05 308,180 C313.53,181.98 313.5893,181.9639 319.2893,184.1239 " fill="transparent" id="FU-to-LI2" style="stroke:#181818;stroke-width:1;"/><polygon fill="#181818" points="324.9,186.25,317.9014,179.3203,320.2244,184.4782,315.0666,186.8012,324.9,186.25" style="stroke:#181818;stroke-width:1;"/><text fill="#000000" font-family="sans-serif" font-size="13" lengthAdjust="spacing" textLength="23.0103" x="214" y="146.0669">use</text></g><!--link C1 to LI2--><g id="link_C1_LI2"><path codeLine="24" d="M305.92,89.31 C324.36,113.3 349.7743,146.3523 371.8343,175.0623 " fill="transparent" id="C1-to-LI2" style="stroke:#181818;stroke-width:1;"/><polygon fill="#181818" points="375.49,179.82,373.1783,170.2463,372.4436,175.8552,366.8346,175.1206,375.49,179.82" style="stroke:#181818;stroke-width:1;"/><text fill="#000000" font-family="sans-serif" font-size="13" lengthAdjust="spacing" textLength="76.9082" x="351" y="146.0669">implements</text></g><!--SRC=[XP3DYW8n48JlUOfYBfu6IToJXxqCA0E21_41cjWxXCqaGzAY8Bxxnh_zOzozLdzLNHHv7m-zExhGAR8I4we5a-mJOvivLQ2CnHPg8FjE7NzTbonIJDW89U7T3LnkS58k2AStiWLUnSvPycW_9Nq5LwqkuEEw7ZYHk1YWHpIZr1dJ2KQoC9b2AUifPrHDx8SOECZzHwF_RcBkJSneazc8zlAqYVcloTNtP3hSp6NbUbU_NhQPOvyPgj6e7uBh1yzzoSpuHfhVfFb9VW00]--></g></svg>