<svg xmlns="http://www.w3.org/2000/svg" xmlns:xlink="http://www.w3.org/1999/xlink" contentStyleType="text/css" data-diagram-type="CLASS" height="353px" preserveAspectRatio="none" style="width:474px;height:353px;background:#FFFFFF;" version="1.1" viewBox="0 0 474 353" width="474px" zoomAndPan="magnify"><defs/><g><!--cluster FGS--><g id="cluster_FGS"><path d="M8.5,97.5 L199.3066,97.5 A3.75,3.75 0 0 1 201.8066,100 L208.8066,119.7969 L464.5,119.7969 A2.5,2.5 0 0 1 467,122.2969 L467,344 A2.5,2.5 0 0 1 464.5,346.5 L8.5,346.5 A2.5,2.5 0 0 1 6,344 L6,100 A2.5,2.5 0 0 1 8.5,97.5 " fill="transparent" style="stroke:#000000;stroke-width:1.5;"/><line style="stroke:#000000;stroke-width:1.5;" x1="6" x2="208.8066" y1="119.7969" y2="119.7969"/><text fill="#000000" font-family="sans-serif" font-size="14" font-weight="bold" lengthAdjust="spacing" textLength="189.8066" x="10" y="112.4951">Feature Getting Started</text></g><!--class LI1--><g id="elem_LI1"><rect codeLine="15" fill="#F1F1F1" height="80.5938" id="LI1" rx="2.5" ry="2.5" style="stroke:#181818;stroke-width:0.5;" width="164.1611" x="287" y="133"/><ellipse cx="303.0652" cy="149" fill="#B4A7E5" rx="11" ry="11" style="stroke:#181818;stroke-width:1;"/><path d="M298.9871,144.7656 L298.9871,142.6094 L306.3777,142.6094 L306.3777,144.7656 L303.909,144.7656 L303.909,152.8438 L306.3777,152.8438 L306.3777,155 L298.9871,155 L298.9871,152.8438 L301.4559,152.8438 L301.4559,144.7656 L298.9871,144.7656 Z " fill="#000000"/><text fill="#000000" font-family="sans-serif" font-size="14" font-style="italic" lengthAdjust="spacing" textLength="129.7939" x="317.302" y="153.8467">Logical Interface 1</text><line style="stroke:#181818;stroke-width:0.5;" x1="288" x2="450.1611" y1="165" y2="165"/><line style="stroke:#181818;stroke-width:0.5;" x1="288" x2="450.1611" y1="173" y2="173"/><text fill="#000000" font-family="sans-serif" font-size="14" lengthAdjust="spacing" textLength="152.1611" x="293" y="189.9951">Logical Operation 1 ()</text><text fill="#000000" font-family="sans-serif" font-size="14" lengthAdjust="spacing" textLength="152.1611" x="293" y="206.292">Logical Operation 2 ()</text></g><!--class C1--><g id="elem_C1"><rect codeLine="28" fill="#F1F1F1" height="48" id="C1" rx="2.5" ry="2.5" style="stroke:#0000FF;stroke-width:3;" width="126.6367" x="22" y="216.5"/><ellipse cx="37" cy="232.5" fill="#ADD1B2" rx="11" ry="11" style="stroke:#181818;stroke-width:1;"/><path d="M39.9688,238.1406 Q39.3906,238.4375 38.75,238.5781 Q38.1094,238.7344 37.4063,238.7344 Q34.9063,238.7344 33.5781,237.0938 Q32.2656,235.4375 32.2656,232.3125 Q32.2656,229.1875 33.5781,227.5313 Q34.9063,225.875 37.4063,225.875 Q38.1094,225.875 38.75,226.0313 Q39.4063,226.1875 39.9688,226.4844 L39.9688,229.2031 Q39.3438,228.625 38.75,228.3594 Q38.1563,228.0781 37.5313,228.0781 Q36.1875,228.0781 35.5,229.1563 Q34.8125,230.2188 34.8125,232.3125 Q34.8125,234.4063 35.5,235.4844 Q36.1875,236.5469 37.5313,236.5469 Q38.1563,236.5469 38.75,236.2813 Q39.3438,236 39.9688,235.4219 L39.9688,238.1406 Z " fill="#000000"/><text fill="#000000" font-family="sans-serif" font-size="14" lengthAdjust="spacing" textLength="94.6367" x="51" y="237.3467">Component 1</text><line style="stroke:#0000FF;stroke-width:3;" x1="23" x2="147.6367" y1="248.5" y2="248.5"/><line style="stroke:#0000FF;stroke-width:3;" x1="23" x2="147.6367" y1="256.5" y2="256.5"/></g><!--class LI2--><g id="elem_LI2"><rect codeLine="22" fill="#F1F1F1" height="80.5938" id="LI2" rx="2.5" ry="2.5" style="stroke:#181818;stroke-width:0.5;" width="164.1611" x="287" y="249"/><ellipse cx="303.0652" cy="265" fill="#B4A7E5" rx="11" ry="11" style="stroke:#181818;stroke-width:1;"/><path d="M298.9871,260.7656 L298.9871,258.6094 L306.3777,258.6094 L306.3777,260.7656 L303.909,260.7656 L303.909,268.8438 L306.3777,268.8438 L306.3777,271 L298.9871,271 L298.9871,268.8438 L301.4559,268.8438 L301.4559,260.7656 L298.9871,260.7656 Z " fill="#000000"/><text fill="#000000" font-family="sans-serif" font-size="14" font-style="italic" lengthAdjust="spacing" textLength="129.7939" x="317.302" y="269.8467">Logical Interface 2</text><line style="stroke:#181818;stroke-width:0.5;" x1="288" x2="450.1611" y1="281" y2="281"/><line style="stroke:#181818;stroke-width:0.5;" x1="288" x2="450.1611" y1="289" y2="289"/><text fill="#000000" font-family="sans-serif" font-size="14" lengthAdjust="spacing" textLength="152.1611" x="293" y="305.9951">Logical Operation 3 ()</text><text fill="#000000" font-family="sans-serif" font-size="14" lengthAdjust="spacing" textLength="152.1611" x="293" y="322.292">Logical Operation 4 ()</text></g><!--entity FU--><g id="elem_FU"><ellipse cx="85.6685" cy="14" fill="#F1F1F1" rx="8" ry="8" style="stroke:#181818;stroke-width:0.5;"/><path d="M85.6685,22 L85.6685,49 M72.6685,30 L98.6685,30 M85.6685,49 L72.6685,64 M85.6685,49 L98.6685,64 " fill="transparent" style="stroke:#181818;stroke-width:0.5;"/><text fill="#000000" font-family="sans-serif" font-size="14" lengthAdjust="spacing" textLength="90.3369" x="40.5" y="78.4951">Feature User</text></g><!--link FU to LI1--><g id="link_FU_LI1"><path codeLine="31" d="M130.79,51.76 C166.15,59.4 216.33,72.6 257,92.5 C279.07,103.3 296.5841,114.875 315.3341,129.215 " fill="transparent" id="FU-to-LI1" style="stroke:#181818;stroke-width:1;"/><polygon fill="#181818" points="320.1,132.86,315.3811,124.2152,316.1284,129.8225,310.5211,130.5698,320.1,132.86" style="stroke:#181818;stroke-width:1;"/><text fill="#000000" font-family="sans-serif" font-size="13" lengthAdjust="spacing" textLength="23.0103" x="206.5" y="60.5669">use</text></g><!--link C1 to LI1--><g id="link_C1_LI1"><path codeLine="32" d="M149.32,225.55 C189.91,215.89 237.2931,204.6095 281.0631,194.1895 " fill="transparent" id="C1-to-LI1" style="stroke:#181818;stroke-width:1;"/><polygon fill="#181818" points="286.9,192.8,277.2183,190.9931,282.0359,193.958,279.071,198.7756,286.9,192.8" style="stroke:#181818;stroke-width:1;"/><text fill="#000000" font-family="sans-serif" font-size="13" lengthAdjust="spacing" textLength="76.9082" x="180" y="197.5669">implements</text></g><!--link FU to LI2--><g id="link_FU_LI2"><path codeLine="33" d="M130.53,79.13 C145.81,91.38 163.09,105.12 179,117.5 C213.31,144.19 228.62,143.57 257,176.5 C275.18,197.59 268.55,210.65 287,231.5 C292.39,237.59 293.9424,239.533 300.3724,244.953 " fill="transparent" id="FU-to-LI2" style="stroke:#181818;stroke-width:1;"/><polygon fill="#181818" points="304.96,248.82,300.6566,239.9611,301.137,245.5975,295.5006,246.0779,304.96,248.82" style="stroke:#181818;stroke-width:1;"/><text fill="#000000" font-family="sans-serif" font-size="13" lengthAdjust="spacing" textLength="23.0103" x="206.5" y="113.5669">use</text></g><!--link C1 to LI2--><g id="link_C1_LI2"><path codeLine="34" d="M149.17,252.14 C159.15,253.96 169.35,255.8 179,257.5 C214.23,263.72 247.2831,269.365 280.6431,274.975 " fill="transparent" id="C1-to-LI2" style="stroke:#181818;stroke-width:1;"/><polygon fill="#181818" points="286.56,275.97,278.348,270.5329,281.6292,275.1408,277.0213,278.4221,286.56,275.97" style="stroke:#181818;stroke-width:1;"/><text fill="#000000" font-family="sans-serif" font-size="13" lengthAdjust="spacing" textLength="76.9082" x="180" y="253.5669">implements</text></g><!--SRC=[ZP4nRy8m48Lt_ueJ2-q0DA5J5ML10Y4XTQ3CrU4SmSAn8_kY5bNyzpeXfAKAg9wiTy_FdvzHQ_lnNgXFPNAXQSV05fpAzmoPSYHPMIFsAYFmJ8ui7qiIYUUZfbH0kyRebTx2LoUibA6PrTR1LbTq9R_jbJmOyXwcuwTkScfsoQGD5bXZjLGeEGGDveHSEOAD9pS0z33VW2XH7Z2dd-c2cCCXM3CwfkniNAmXm2aJNh136Tmhcok96fQT53NErJAgdPVnQqaEwmOWWeV77ZckPN62oH1w8c4u0I6anl3OmSmMfJLakBrg5a6IDBsbwNsqk4MB-z6c_MZFzz3Y_wCr2JVQXNDC-8XHDahhzbwWyWGY98mkWYfAJKL8z_3B6VzrnjVERm00]--></g></svg>