<svg xmlns="http://www.w3.org/2000/svg" xmlns:xlink="http://www.w3.org/1999/xlink" contentStyleType="text/css" data-diagram-type="CLASS" height="566px" preserveAspectRatio="none" style="width:856px;height:566px;background:#FFFFFF;" version="1.1" viewBox="0 0 856 566" width="856px" zoomAndPan="magnify"><defs/><g><!--cluster C1--><g id="cluster_C1"><rect fill="transparent" height="331" rx="2.5" ry="2.5" style="stroke:#0000FF;stroke-width:3;" width="546" x="7" y="7"/><rect fill="transparent" height="10" style="stroke:#0000FF;stroke-width:3;" width="15" x="533" y="12"/><rect fill="transparent" height="2" style="stroke:#0000FF;stroke-width:3;" width="4" x="531" y="14"/><rect fill="transparent" height="2" style="stroke:#0000FF;stroke-width:3;" width="4" x="531" y="18"/><text fill="#000000" font-family="sans-serif" font-size="14" font-weight="bold" lengthAdjust="spacing" textLength="104.8564" x="227.5718" y="32.9951">Component 1</text></g><!--class CI2--><g id="elem_CI2"><rect codeLine="16" fill="#F1F1F1" height="80.5938" id="CI2" rx="2.5" ry="2.5" style="stroke:#181818;stroke-width:0.5;" width="193.7656" x="335" y="191.5"/><ellipse cx="350" cy="207.5" fill="#B4A7E5" rx="11" ry="11" style="stroke:#181818;stroke-width:1;"/><path d="M345.9219,203.2656 L345.9219,201.1094 L353.3125,201.1094 L353.3125,203.2656 L350.8438,203.2656 L350.8438,211.3438 L353.3125,211.3438 L353.3125,213.5 L345.9219,213.5 L345.9219,211.3438 L348.3906,211.3438 L348.3906,203.2656 L345.9219,203.2656 Z " fill="#000000"/><text fill="#000000" font-family="sans-serif" font-size="14" font-style="italic" lengthAdjust="spacing" textLength="161.7656" x="364" y="212.3467">Component Interface 2</text><line style="stroke:#181818;stroke-width:0.5;" x1="336" x2="527.7656" y1="223.5" y2="223.5"/><line style="stroke:#181818;stroke-width:0.5;" x1="336" x2="527.7656" y1="231.5" y2="231.5"/><text fill="#000000" font-family="sans-serif" font-size="14" lengthAdjust="spacing" textLength="127.2373" x="341" y="248.4951">real operation 3 ()</text><text fill="#000000" font-family="sans-serif" font-size="14" lengthAdjust="spacing" textLength="127.2373" x="341" y="264.792">real operation 4 ()</text></g><!--class CI4--><g id="elem_CI4"><rect codeLine="22" fill="#F1F1F1" height="80.5938" id="CI4" rx="2.5" ry="2.5" style="stroke:#181818;stroke-width:0.5;" width="193.7656" x="335" y="63.5"/><ellipse cx="350" cy="79.5" fill="#B4A7E5" rx="11" ry="11" style="stroke:#181818;stroke-width:1;"/><path d="M345.9219,75.2656 L345.9219,73.1094 L353.3125,73.1094 L353.3125,75.2656 L350.8438,75.2656 L350.8438,83.3438 L353.3125,83.3438 L353.3125,85.5 L345.9219,85.5 L345.9219,83.3438 L348.3906,83.3438 L348.3906,75.2656 L345.9219,75.2656 Z " fill="#000000"/><text fill="#000000" font-family="sans-serif" font-size="14" font-style="italic" lengthAdjust="spacing" textLength="161.7656" x="364" y="84.3467">Component Interface 4</text><line style="stroke:#181818;stroke-width:0.5;" x1="336" x2="527.7656" y1="95.5" y2="95.5"/><line style="stroke:#181818;stroke-width:0.5;" x1="336" x2="527.7656" y1="103.5" y2="103.5"/><text fill="#000000" font-family="sans-serif" font-size="14" lengthAdjust="spacing" textLength="127.2373" x="341" y="120.4951">real operation 7 ()</text><text fill="#000000" font-family="sans-serif" font-size="14" lengthAdjust="spacing" textLength="127.2373" x="341" y="136.792">real operation 8 ()</text></g><!--entity SC1--><g id="elem_SC1"><rect fill="#F1F1F1" height="46.2969" rx="2.5" ry="2.5" style="stroke:#0000FF;stroke-width:3;" width="165.7334" x="31" y="76"/><rect fill="#F1F1F1" height="10" style="stroke:#0000FF;stroke-width:3;" width="15" x="176.7334" y="81"/><rect fill="#F1F1F1" height="2" style="stroke:#0000FF;stroke-width:3;" width="4" x="174.7334" y="83"/><rect fill="#F1F1F1" height="2" style="stroke:#0000FF;stroke-width:3;" width="4" x="174.7334" y="87"/><text fill="#000000" font-family="sans-serif" font-size="14" lengthAdjust="spacing" textLength="125.7334" x="46" y="108.9951">Sub Component 1</text></g><!--entity SC2--><g id="elem_SC2"><rect fill="#F1F1F1" height="46.2969" rx="2.5" ry="2.5" style="stroke:#0000FF;stroke-width:3;" width="165.7334" x="31" y="187"/><rect fill="#F1F1F1" height="10" style="stroke:#0000FF;stroke-width:3;" width="15" x="176.7334" y="192"/><rect fill="#F1F1F1" height="2" style="stroke:#0000FF;stroke-width:3;" width="4" x="174.7334" y="194"/><rect fill="#F1F1F1" height="2" style="stroke:#0000FF;stroke-width:3;" width="4" x="174.7334" y="198"/><text fill="#000000" font-family="sans-serif" font-size="14" lengthAdjust="spacing" textLength="125.7334" x="46" y="219.9951">Sub Component 2</text></g><!--class CI1--><g id="elem_CI1"><rect codeLine="33" fill="#F1F1F1" height="80.5938" id="CI1" rx="2.5" ry="2.5" style="stroke:#181818;stroke-width:0.5;" width="193.7656" x="335" y="478.5"/><ellipse cx="350" cy="494.5" fill="#B4A7E5" rx="11" ry="11" style="stroke:#181818;stroke-width:1;"/><path d="M345.9219,490.2656 L345.9219,488.1094 L353.3125,488.1094 L353.3125,490.2656 L350.8438,490.2656 L350.8438,498.3438 L353.3125,498.3438 L353.3125,500.5 L345.9219,500.5 L345.9219,498.3438 L348.3906,498.3438 L348.3906,490.2656 L345.9219,490.2656 Z " fill="#000000"/><text fill="#000000" font-family="sans-serif" font-size="14" font-style="italic" lengthAdjust="spacing" textLength="161.7656" x="364" y="499.3467">Component Interface 1</text><line style="stroke:#181818;stroke-width:0.5;" x1="336" x2="527.7656" y1="510.5" y2="510.5"/><line style="stroke:#181818;stroke-width:0.5;" x1="336" x2="527.7656" y1="518.5" y2="518.5"/><text fill="#000000" font-family="sans-serif" font-size="14" lengthAdjust="spacing" textLength="127.2373" x="341" y="535.4951">real operation 1 ()</text><text fill="#000000" font-family="sans-serif" font-size="14" lengthAdjust="spacing" textLength="127.2373" x="341" y="551.792">real operation 2 ()</text></g><!--class CI3--><g id="elem_CI3"><rect codeLine="39" fill="#F1F1F1" height="80.5938" id="CI3" rx="2.5" ry="2.5" style="stroke:#181818;stroke-width:0.5;" width="193.7656" x="335" y="362.5"/><ellipse cx="350" cy="378.5" fill="#B4A7E5" rx="11" ry="11" style="stroke:#181818;stroke-width:1;"/><path d="M345.9219,374.2656 L345.9219,372.1094 L353.3125,372.1094 L353.3125,374.2656 L350.8438,374.2656 L350.8438,382.3438 L353.3125,382.3438 L353.3125,384.5 L345.9219,384.5 L345.9219,382.3438 L348.3906,382.3438 L348.3906,374.2656 L345.9219,374.2656 Z " fill="#000000"/><text fill="#000000" font-family="sans-serif" font-size="14" font-style="italic" lengthAdjust="spacing" textLength="161.7656" x="364" y="383.3467">Component Interface 3</text><line style="stroke:#181818;stroke-width:0.5;" x1="336" x2="527.7656" y1="394.5" y2="394.5"/><line style="stroke:#181818;stroke-width:0.5;" x1="336" x2="527.7656" y1="402.5" y2="402.5"/><text fill="#000000" font-family="sans-serif" font-size="14" lengthAdjust="spacing" textLength="127.2373" x="341" y="419.4951">real operation 5 ()</text><text fill="#000000" font-family="sans-serif" font-size="14" lengthAdjust="spacing" textLength="127.2373" x="341" y="435.792">real operation 6 ()</text></g><!--class LI2--><g id="elem_LI2"><rect codeLine="45" fill="#F1F1F1" height="80.5938" id="LI2" rx="2.5" ry="2.5" style="stroke:#181818;stroke-width:0.5;" width="164.1611" x="685" y="191.5"/><ellipse cx="701.0652" cy="207.5" fill="#B4A7E5" rx="11" ry="11" style="stroke:#181818;stroke-width:1;"/><path d="M696.9871,203.2656 L696.9871,201.1094 L704.3777,201.1094 L704.3777,203.2656 L701.909,203.2656 L701.909,211.3438 L704.3777,211.3438 L704.3777,213.5 L696.9871,213.5 L696.9871,211.3438 L699.4559,211.3438 L699.4559,203.2656 L696.9871,203.2656 Z " fill="#000000"/><text fill="#000000" font-family="sans-serif" font-size="14" font-style="italic" lengthAdjust="spacing" textLength="129.7939" x="715.302" y="212.3467">Logical Interface 2</text><line style="stroke:#181818;stroke-width:0.5;" x1="686" x2="848.1611" y1="223.5" y2="223.5"/><line style="stroke:#181818;stroke-width:0.5;" x1="686" x2="848.1611" y1="231.5" y2="231.5"/><text fill="#000000" font-family="sans-serif" font-size="14" lengthAdjust="spacing" textLength="152.1611" x="691" y="248.4951">Logical Operation 3 ()</text><text fill="#000000" font-family="sans-serif" font-size="14" lengthAdjust="spacing" textLength="152.1611" x="691" y="264.792">Logical Operation 4 ()</text></g><!--class LI3--><g id="elem_LI3"><rect codeLine="51" fill="#F1F1F1" height="80.5938" id="LI3" rx="2.5" ry="2.5" style="stroke:#181818;stroke-width:0.5;" width="164.1611" x="685" y="63.5"/><ellipse cx="701.0652" cy="79.5" fill="#B4A7E5" rx="11" ry="11" style="stroke:#181818;stroke-width:1;"/><path d="M696.9871,75.2656 L696.9871,73.1094 L704.3777,73.1094 L704.3777,75.2656 L701.909,75.2656 L701.909,83.3438 L704.3777,83.3438 L704.3777,85.5 L696.9871,85.5 L696.9871,83.3438 L699.4559,83.3438 L699.4559,75.2656 L696.9871,75.2656 Z " fill="#000000"/><text fill="#000000" font-family="sans-serif" font-size="14" font-style="italic" lengthAdjust="spacing" textLength="129.7939" x="715.302" y="84.3467">Logical Interface 3</text><line style="stroke:#181818;stroke-width:0.5;" x1="686" x2="848.1611" y1="95.5" y2="95.5"/><line style="stroke:#181818;stroke-width:0.5;" x1="686" x2="848.1611" y1="103.5" y2="103.5"/><text fill="#000000" font-family="sans-serif" font-size="14" lengthAdjust="spacing" textLength="152.1611" x="691" y="120.4951">Logical Operation 7 ()</text><text fill="#000000" font-family="sans-serif" font-size="14" lengthAdjust="spacing" textLength="152.1611" x="691" y="136.792">Logical Operation 8 ()</text></g><!--class LI1--><g id="elem_LI1"><rect codeLine="57" fill="#F1F1F1" height="80.5938" id="LI1" rx="2.5" ry="2.5" style="stroke:#181818;stroke-width:0.5;" width="164.1611" x="685" y="478.5"/><ellipse cx="701.0652" cy="494.5" fill="#B4A7E5" rx="11" ry="11" style="stroke:#181818;stroke-width:1;"/><path d="M696.9871,490.2656 L696.9871,488.1094 L704.3777,488.1094 L704.3777,490.2656 L701.909,490.2656 L701.909,498.3438 L704.3777,498.3438 L704.3777,500.5 L696.9871,500.5 L696.9871,498.3438 L699.4559,498.3438 L699.4559,490.2656 L696.9871,490.2656 Z " fill="#000000"/><text fill="#000000" font-family="sans-serif" font-size="14" font-style="italic" lengthAdjust="spacing" textLength="129.7939" x="715.302" y="499.3467">Logical Interface 1</text><line style="stroke:#181818;stroke-width:0.5;" x1="686" x2="848.1611" y1="510.5" y2="510.5"/><line style="stroke:#181818;stroke-width:0.5;" x1="686" x2="848.1611" y1="518.5" y2="518.5"/><text fill="#000000" font-family="sans-serif" font-size="14" lengthAdjust="spacing" textLength="152.1611" x="691" y="535.4951">Logical Operation 1 ()</text><text fill="#000000" font-family="sans-serif" font-size="14" lengthAdjust="spacing" textLength="152.1611" x="691" y="551.792">Logical Operation 2 ()</text></g><!--link CI1 to LI1--><g id="link_CI1_LI1"><path codeLine="65" d="M529.32,519 C578.59,519 631.89,519 678.81,519 " fill="transparent" id="CI1-to-LI1" style="stroke:#181818;stroke-width:1;"/><polygon fill="#181818" points="684.81,519,675.81,515,679.81,519,675.81,523,684.81,519" style="stroke:#181818;stroke-width:1;"/><text fill="#000000" font-family="sans-serif" font-size="13" lengthAdjust="spacing" textLength="76.9082" x="578" y="515.0669">implements</text></g><!--link SC1 to CI4--><g id="link_SC1_CI4"><path codeLine="66" d="M197.2,100.3 C239.35,100.97 284.9408,101.6845 328.9208,102.3845 " fill="transparent" id="SC1-to-CI4" style="stroke:#181818;stroke-width:1;"/><polygon fill="#181818" points="334.92,102.48,325.9848,98.3373,329.9206,102.4004,325.8575,106.3363,334.92,102.48" style="stroke:#181818;stroke-width:1;"/><text fill="#000000" font-family="sans-serif" font-size="13" lengthAdjust="spacing" textLength="29.7832" x="251.5" y="97.0669">uses</text></g><!--link CI4 to LI3--><g id="link_CI4_LI3"><path codeLine="67" d="M529.32,104 C578.59,104 631.89,104 678.81,104 " fill="transparent" id="CI4-to-LI3" style="stroke:#181818;stroke-width:1;"/><polygon fill="#181818" points="684.81,104,675.81,100,679.81,104,675.81,108,684.81,104" style="stroke:#181818;stroke-width:1;"/><text fill="#000000" font-family="sans-serif" font-size="13" lengthAdjust="spacing" textLength="76.9082" x="578" y="100.0669">implements</text></g><!--link SC1 to CI2--><g id="link_SC1_CI2"><path codeLine="68" d="M193.83,122.12 C228.46,133.15 269.29,147.35 305,163 C323.96,171.31 338.6033,178.6057 356.8533,188.5657 " fill="transparent" id="SC1-to-CI2" style="stroke:#181818;stroke-width:1;"/><polygon fill="#181818" points="362.12,191.44,356.1361,183.6174,357.7311,189.0447,352.3037,190.6397,362.12,191.44" style="stroke:#181818;stroke-width:1;"/><text fill="#000000" font-family="sans-serif" font-size="13" lengthAdjust="spacing" textLength="76.9082" x="228" y="130.0669">implements</text></g><!--link CI2 to LI2--><g id="link_CI2_LI2"><path codeLine="69" d="M529.32,232 C578.59,232 631.89,232 678.81,232 " fill="transparent" id="CI2-to-LI2" style="stroke:#181818;stroke-width:1;"/><polygon fill="#181818" points="684.81,232,675.81,228,679.81,232,675.81,236,684.81,232" style="stroke:#181818;stroke-width:1;"/><text fill="#000000" font-family="sans-serif" font-size="13" lengthAdjust="spacing" textLength="76.9082" x="578" y="228.0669">implements</text></g><!--link C1 to CI1--><g id="link_C1_CI1"><path codeLine="70" d="M128.3918,338.1914 C128.6174,338.3293 128.8454,338.4686 129.0757,338.6093 C129.9973,339.1724 130.9571,339.7586 131.9529,340.3668 C133.9444,341.5831 136.0802,342.8869 138.3428,344.2676 C142.868,347.0289 147.9006,350.0975 153.3025,353.3875 C174.91,366.5475 202.425,383.25 227,398 C271.84,424.91 317.2352,451.8463 356.7952,475.2363 " fill="transparent" id="C1-to-CI1" style="stroke:#181818;stroke-width:1;"/><polygon fill="#181818" points="361.96,478.29,356.2486,470.2663,357.656,475.7453,352.177,477.1526,361.96,478.29" style="stroke:#181818;stroke-width:1;"/><text fill="#000000" font-family="sans-serif" font-size="13" lengthAdjust="spacing" textLength="76.9082" x="228" y="394.0669">implements</text></g><!--link C1 to CI2--><g id="link_C1_CI2"><path codeLine="71" d="M115.06,329.98 C118.12,329.03 237.3292,292.0569 329.1492,263.5869 " fill="transparent" id="C1-to-CI2" style="stroke:#181818;stroke-width:1;"/><polygon fill="#181818" points="334.88,261.81,325.0991,260.6548,330.1043,263.2908,327.4684,268.2959,334.88,261.81" style="stroke:#181818;stroke-width:1;"/><text fill="#000000" font-family="sans-serif" font-size="13" lengthAdjust="spacing" textLength="76.9082" x="228" y="269.0669">implements</text></g><!--link SC2 to CI4--><g id="link_SC2_CI4"><path codeLine="72" d="M197.29,206.46 C231.42,203.04 270.92,196.47 305,184 C330.67,174.6 351.6165,162.741 373.2165,148.071 " fill="transparent" id="SC2-to-CI4" style="stroke:#181818;stroke-width:1;"/><polygon fill="#181818" points="378.18,144.7,368.4874,146.4476,374.0438,147.5092,372.9821,153.0655,378.18,144.7" style="stroke:#181818;stroke-width:1;"/><text fill="#000000" font-family="sans-serif" font-size="13" lengthAdjust="spacing" textLength="29.7832" x="251.5" y="180.0669">uses</text></g><!--link C1 to CI3--><g id="link_C1_CI3"><path codeLine="73" d="M149.6601,338.0048 C149.9127,338.0631 150.1664,338.1218 150.4212,338.1806 C150.9309,338.2984 151.445,338.4171 151.9634,338.5369 C153.0002,338.7764 154.0543,339.02 155.1252,339.2674 C157.267,339.7622 159.4758,340.2725 161.7468,340.7972 C170.8309,342.8959 180.9113,345.2247 191.685,347.7138 C234.78,357.67 283.1241,368.839 329.0341,379.449 " fill="transparent" id="C1-to-CI3" style="stroke:#181818;stroke-width:1;"/><polygon fill="#181818" points="334.88,380.8,327.0118,374.8762,330.0084,379.6742,325.2104,382.6708,334.88,380.8" style="stroke:#181818;stroke-width:1;"/><text fill="#000000" font-family="sans-serif" font-size="13" lengthAdjust="spacing" textLength="29.7832" x="251.5" y="354.0669">uses</text></g><!--link SC2 to CI2--><g id="link_SC2_CI2"><path codeLine="74" d="M187.3,233.07 C200.39,236.37 214.01,239.23 227,241 C262.04,245.76 294.7618,245.8166 328.9518,243.6666 " fill="transparent" id="SC2-to-CI2" style="stroke:#181818;stroke-width:1;"/><polygon fill="#181818" points="334.94,243.29,325.7067,239.8627,329.9499,243.6038,326.2088,247.847,334.94,243.29" style="stroke:#181818;stroke-width:1;"/><text fill="#000000" font-family="sans-serif" font-size="13" lengthAdjust="spacing" textLength="76.9082" x="228" y="237.0669">implements</text></g><!--SRC=[ZPF1Ri8m38RlUGfh5xO3i2JTGAZgXHCIqWxiFfLY85hQL6tGXYRUVGrDEmYXQq_Lxp_-OiUEfLHV7wdu5jcEIDngq0eAiTjhs8W24orKHlPYWr1gB53fOuuaBFLHOaJ0VgEu578DFwsm51dEbLG5hEK1h-JtlKW-ConBuAFdDd8w_uLZcvWaAirLXfc6XtdxInyWBc5E8GpFm2Y2YdbXNHtMuDfNhly4um4uJXYCWH2HLILkumGleOjMP3L-mKoM0cC9AiSYDXq23ezFhXOOhSPvq_M21XOQUA0J3tJQ3GrgwDsUCTipzc_FxFKTKhzEseTSK4zHr5CKwowg7vHRAFT0NppGrsuelu4krKuaLGftOfRrn3JXj-kXkPKlviQJiWUMMoptOoT-xBGBswTQQh7KZwL-BEl2sfSbnCpAS1YPx3CGQIunhPwZ16BMsmIg3Pd1eSHACijIU_azBxiEc9skJxY1vW2zepENm6vkqrXve_oPdDE_]--></g></svg>