<svg xmlns="http://www.w3.org/2000/svg" xmlns:xlink="http://www.w3.org/1999/xlink" contentStyleType="text/css" data-diagram-type="DESCRIPTION" height="263px" preserveAspectRatio="none" style="width:567px;height:263px;background:#FFFFFF;" version="1.1" viewBox="0 0 567 263" width="567px" zoomAndPan="magnify"><defs/><g><!--cluster process_description--><g id="cluster_process_description"><path d="M6,16 C6,6 92,6 92,6 C92,6 178,6 178,16 L178,211 C178,221 92,221 92,221 C92,221 6,221 6,211 L6,16 " fill="transparent" style="stroke:#181818;stroke-width:1;"/><path d="M6,16 C6,26 92,26 92,26 C92,26 178,26 178,16 " fill="transparent" style="stroke:#181818;stroke-width:1;"/><text fill="#000000" font-family="sans-serif" font-size="14" font-weight="bold" lengthAdjust="spacing" textLength="156.9531" x="13.5234" y="40.9951">process_description</text></g><!--cluster docs_as_code--><g id="cluster_docs_as_code"><path d="M353,104 C353,94 451.5,94 451.5,94 C451.5,94 550,94 550,104 L550,225 C550,235 451.5,235 451.5,235 C451.5,235 353,235 353,225 L353,104 " fill="transparent" style="stroke:#181818;stroke-width:1;"/><path d="M353,104 C353,114 451.5,114 451.5,114 C451.5,114 550,114 550,104 " fill="transparent" style="stroke:#181818;stroke-width:1;"/><text fill="#000000" font-family="sans-serif" font-size="14" font-weight="bold" lengthAdjust="spacing" textLength="105.4854" x="398.7573" y="128.9951">docs_as_code</text></g><!--entity examples--><g id="elem_examples"><rect fill="#F1F1F1" height="39.2969" rx="2.5" ry="2.5" style="stroke:#181818;stroke-width:0.5;" width="97.7988" x="43" y="64.5"/><polygon fill="#F1F1F1" points="123.7988,69.5,123.7988,83.5,135.7988,83.5,135.7988,75.5,129.7988,69.5,123.7988,69.5" style="stroke:#181818;stroke-width:0.5;"/><line style="stroke:#181818;stroke-width:0.5;" x1="129.7988" x2="129.7988" y1="69.5" y2="75.5"/><line style="stroke:#181818;stroke-width:0.5;" x1="135.7988" x2="129.7988" y1="75.5" y2="75.5"/><text fill="#000000" font-family="sans-serif" font-size="14" lengthAdjust="spacing" textLength="67.7988" x="53" y="90.4951">examples</text></g><!--entity templates--><g id="elem_templates"><rect fill="#F1F1F1" height="39.2969" rx="2.5" ry="2.5" style="stroke:#181818;stroke-width:0.5;" width="100.4922" x="42" y="138.5"/><polygon fill="#F1F1F1" points="125.4922,143.5,125.4922,157.5,137.4922,157.5,137.4922,149.5,131.4922,143.5,125.4922,143.5" style="stroke:#181818;stroke-width:0.5;"/><line style="stroke:#181818;stroke-width:0.5;" x1="131.4922" x2="131.4922" y1="143.5" y2="149.5"/><line style="stroke:#181818;stroke-width:0.5;" x1="137.4922" x2="131.4922" y1="149.5" y2="149.5"/><text fill="#000000" font-family="sans-serif" font-size="14" lengthAdjust="spacing" textLength="70.4922" x="52" y="164.4951">templates</text></g><!--entity yaml--><g id="elem_yaml"><rect fill="#F1F1F1" height="39.2969" rx="2.5" ry="2.5" style="stroke:#181818;stroke-width:0.5;" width="148.7539" x="377" y="152.5"/><polygon fill="#F1F1F1" points="508.7539,157.5,508.7539,171.5,520.7539,171.5,520.7539,163.5,514.7539,157.5,508.7539,157.5" style="stroke:#181818;stroke-width:0.5;"/><line style="stroke:#181818;stroke-width:0.5;" x1="514.7539" x2="514.7539" y1="157.5" y2="163.5"/><line style="stroke:#181818;stroke-width:0.5;" x1="520.7539" x2="514.7539" y1="163.5" y2="163.5"/><text fill="#000000" font-family="sans-serif" font-size="14" lengthAdjust="spacing" textLength="118.7539" x="387" y="178.4951">metamodel.yaml</text></g><!--link process_description to docs_as_code--><g id="link_process_description_docs_as_code"><path d="M179.0664,216.3723 C179.664,216.3957 180.2635,216.4192 180.8648,216.4427 C182.0675,216.4899 183.2777,216.5373 184.4951,216.585 C186.9298,216.6804 189.3932,216.7769 191.8825,216.8744 C196.8612,217.0695 201.944,217.2686 207.11,217.471 C227.7741,218.2805 249.7703,219.1422 271.7663,220.0038 C293.7622,220.8653 315.7579,221.7268 336.4211,222.536 C341.5869,222.7383 346.6694,222.9374 351.6478,223.1324 C351.9589,223.1445 346.2743,222.9219 346.5846,222.9341 " fill="transparent" id="process_description-to-docs_as_code" style="stroke:#181818;stroke-width:1;"/><polygon fill="#181818" points="352.58,223.1689,343.7434,218.8197,347.5839,222.9732,343.4304,226.8136,352.58,223.1689" style="stroke:#181818;stroke-width:1;"/><text fill="#000000" font-family="sans-serif" font-size="13" lengthAdjust="spacing" textLength="125.7852" x="203" y="214.0669">defines metamodel</text></g><!--link docs_as_code to process_description--><g id="link_docs_as_code_process_description"><path d="M415.893,235.1217 C414.8222,235.3467 413.7309,235.574 412.6195,235.8031 C408.1741,236.7197 403.4087,237.6663 398.3626,238.6212 C388.2704,240.531 377.0553,242.4741 365.0313,244.2763 C316.935,251.485 255.895,256.44 202,248 C177.26,244.125 150.4675,235.585 129.6363,227.9113 C124.4284,225.9928 119.5932,224.1285 115.2558,222.4048 C114.1714,221.9739 118.6816,223.7986 117.6614,223.3865 " fill="transparent" id="docs_as_code-to-process_description" style="stroke:#181818;stroke-width:1;"/><polygon fill="#181818" points="112.098,221.1397,118.9452,228.2189,116.7342,223.0121,121.941,220.801,112.098,221.1397" style="stroke:#181818;stroke-width:1;"/><text fill="#000000" font-family="sans-serif" font-size="13" lengthAdjust="spacing" textLength="123.1699" x="204" y="244.0669">checks metamodel</text></g><!--SRC=[ROun3i8m34NtdC8NA0Vem5Kgu_pGYAI9OWyWnDr9fbBKoTAptvCJWf4LQl6-6ldO81RBvZmRtrX1jHM1wkAXqc8TItex8k9cCR0OuScv9kW16ZfZw_IpjtmHNLWNAHv_aGpZt76wl3WdOgKnk-pE7fYcwp4saqU86tGFkSF1CCvACyaAUVnuNm00]--></g></svg>