<svg xmlns="http://www.w3.org/2000/svg" xmlns:xlink="http://www.w3.org/1999/xlink" contentStyleType="text/css" data-diagram-type="CLASS" height="85px" preserveAspectRatio="none" style="width:155px;height:85px;background:#FFFFFF;" version="1.1" viewBox="0 0 155 85" width="155px" zoomAndPan="magnify"><defs/><g><!--class ExampleClass--><g id="elem_ExampleClass"><rect codeLine="2" fill="#F1F1F1" height="64.2969" id="ExampleClass" rx="2.5" ry="2.5" style="stroke:#181818;stroke-width:0.5;" width="134.6846" x="7" y="7"/><ellipse cx="24.3019" cy="23" fill="#ADD1B2" rx="11" ry="11" style="stroke:#181818;stroke-width:1;"/><path d="M27.2706,28.6406 Q26.6925,28.9375 26.0519,29.0781 Q25.4112,29.2344 24.7081,29.2344 Q22.2081,29.2344 20.88,27.5938 Q19.5675,25.9375 19.5675,22.8125 Q19.5675,19.6875 20.88,18.0313 Q22.2081,16.375 24.7081,16.375 Q25.4112,16.375 26.0519,16.5313 Q26.7081,16.6875 27.2706,16.9844 L27.2706,19.7031 Q26.6456,19.125 26.0519,18.8594 Q25.4581,18.5781 24.8331,18.5781 Q23.4894,18.5781 22.8019,19.6563 Q22.1144,20.7188 22.1144,22.8125 Q22.1144,24.9063 22.8019,25.9844 Q23.4894,27.0469 24.8331,27.0469 Q25.4581,27.0469 26.0519,26.7813 Q26.6456,26.5 27.2706,25.9219 L27.2706,28.6406 Z " fill="#000000"/><text fill="#000000" font-family="sans-serif" font-size="14" lengthAdjust="spacing" textLength="97.5693" x="38.8134" y="27.8467">ExampleClass</text><line style="stroke:#181818;stroke-width:0.5;" x1="8" x2="140.6846" y1="39" y2="39"/><line style="stroke:#181818;stroke-width:0.5;" x1="8" x2="140.6846" y1="47" y2="47"/><ellipse cx="18" cy="60.6484" fill="#84BE84" rx="3" ry="3" style="stroke:#038048;stroke-width:1;"/><text fill="#000000" font-family="sans-serif" font-size="14" lengthAdjust="spacing" textLength="108.6846" x="27" y="63.9951">fun(input): bool</text></g><!--SRC=[Iyv9B2vMSAr8p2t8INK6Swgv51GKjDDAypGoymfAIpIj59BoytEuQha0]--></g></svg>