<svg xmlns="http://www.w3.org/2000/svg" xmlns:xlink="http://www.w3.org/1999/xlink" contentStyleType="text/css" data-diagram-type="CLASS" height="375px" preserveAspectRatio="none" style="width:436px;height:375px;background:#FFFFFF;" version="1.1" viewBox="0 0 436 375" width="436px" zoomAndPan="magnify"><defs/><g><!--entity C1--><g id="elem_C1"><rect fill="#F1F1F1" height="46.2969" rx="2.5" ry="2.5" style="stroke:#181818;stroke-width:0.5;" width="134.6367" x="205.5" y="7"/><rect fill="#F1F1F1" height="10" style="stroke:#181818;stroke-width:0.5;" width="15" x="320.1367" y="12"/><rect fill="#F1F1F1" height="2" style="stroke:#181818;stroke-width:0.5;" width="4" x="318.1367" y="14"/><rect fill="#F1F1F1" height="2" style="stroke:#181818;stroke-width:0.5;" width="4" x="318.1367" y="18"/><text fill="#000000" font-family="sans-serif" font-size="14" lengthAdjust="spacing" textLength="94.6367" x="220.5" y="39.9951">Component 1</text></g><!--class CI1--><g id="elem_CI1"><rect codeLine="5" fill="#F1F1F1" height="80.5938" id="CI1" rx="2.5" ry="2.5" style="stroke:#181818;stroke-width:0.5;" width="193.7656" x="7" y="130"/><ellipse cx="22" cy="146" fill="#B4A7E5" rx="11" ry="11" style="stroke:#181818;stroke-width:1;"/><path d="M17.9219,141.7656 L17.9219,139.6094 L25.3125,139.6094 L25.3125,141.7656 L22.8438,141.7656 L22.8438,149.8438 L25.3125,149.8438 L25.3125,152 L17.9219,152 L17.9219,149.8438 L20.3906,149.8438 L20.3906,141.7656 L17.9219,141.7656 Z " fill="#000000"/><text fill="#000000" font-family="sans-serif" font-size="14" font-style="italic" lengthAdjust="spacing" textLength="161.7656" x="36" y="150.8467">Component Interface 1</text><line style="stroke:#181818;stroke-width:0.5;" x1="8" x2="199.7656" y1="162" y2="162"/><text fill="#000000" font-family="sans-serif" font-size="14" lengthAdjust="spacing" textLength="111.8633" x="13" y="178.9951">real operation 1</text><text fill="#000000" font-family="sans-serif" font-size="14" lengthAdjust="spacing" textLength="111.8633" x="13" y="195.292">real operation 2</text><line style="stroke:#181818;stroke-width:0.5;" x1="8" x2="199.7656" y1="202.5938" y2="202.5938"/></g><!--class LI1--><g id="elem_LI1"><rect codeLine="10" fill="#F1F1F1" height="80.5938" id="LI1" rx="2.5" ry="2.5" style="stroke:#181818;stroke-width:0.5;" width="161.7939" x="23" y="288"/><ellipse cx="38" cy="304" fill="#B4A7E5" rx="11" ry="11" style="stroke:#181818;stroke-width:1;"/><path d="M33.9219,299.7656 L33.9219,297.6094 L41.3125,297.6094 L41.3125,299.7656 L38.8438,299.7656 L38.8438,307.8438 L41.3125,307.8438 L41.3125,310 L33.9219,310 L33.9219,307.8438 L36.3906,307.8438 L36.3906,299.7656 L33.9219,299.7656 Z " fill="#000000"/><text fill="#000000" font-family="sans-serif" font-size="14" font-style="italic" lengthAdjust="spacing" textLength="129.7939" x="52" y="308.8467">Logical Interface 1</text><line style="stroke:#181818;stroke-width:0.5;" x1="24" x2="183.7939" y1="320" y2="320"/><text fill="#000000" font-family="sans-serif" font-size="14" lengthAdjust="spacing" textLength="136.7871" x="29" y="336.9951">Logical Operation 1</text><text fill="#000000" font-family="sans-serif" font-size="14" lengthAdjust="spacing" textLength="136.7871" x="29" y="353.292">Logical Operation 2</text><line style="stroke:#181818;stroke-width:0.5;" x1="24" x2="183.7939" y1="360.5938" y2="360.5938"/></g><!--class CI3--><g id="elem_CI3"><rect codeLine="15" fill="#F1F1F1" height="80.5938" id="CI3" rx="2.5" ry="2.5" style="stroke:#181818;stroke-width:0.5;" width="193.7656" x="236" y="130"/><ellipse cx="251" cy="146" fill="#B4A7E5" rx="11" ry="11" style="stroke:#181818;stroke-width:1;"/><path d="M246.9219,141.7656 L246.9219,139.6094 L254.3125,139.6094 L254.3125,141.7656 L251.8438,141.7656 L251.8438,149.8438 L254.3125,149.8438 L254.3125,152 L246.9219,152 L246.9219,149.8438 L249.3906,149.8438 L249.3906,141.7656 L246.9219,141.7656 Z " fill="#000000"/><text fill="#000000" font-family="sans-serif" font-size="14" font-style="italic" lengthAdjust="spacing" textLength="161.7656" x="265" y="150.8467">Component Interface 3</text><line style="stroke:#181818;stroke-width:0.5;" x1="237" x2="428.7656" y1="162" y2="162"/><text fill="#000000" font-family="sans-serif" font-size="14" lengthAdjust="spacing" textLength="111.8633" x="242" y="178.9951">real operation 5</text><text fill="#000000" font-family="sans-serif" font-size="14" lengthAdjust="spacing" textLength="111.8633" x="242" y="195.292">real operation 6</text><line style="stroke:#181818;stroke-width:0.5;" x1="237" x2="428.7656" y1="202.5938" y2="202.5938"/></g><!--link CI1 to LI1--><g id="link_CI1_LI1"><path codeLine="21" d="M104,211.27 C104,234.74 104,258.35 104,281.8 " fill="transparent" id="CI1-to-LI1" style="stroke:#181818;stroke-width:1;"/><polygon fill="#181818" points="104,287.8,108,278.8,104,282.8,100,278.8,104,287.8" style="stroke:#181818;stroke-width:1;"/><text fill="#000000" font-family="sans-serif" font-size="13" lengthAdjust="spacing" textLength="76.9082" x="105" y="254.0669">implements</text></g><!--link C1 to CI1--><g id="link_C1_CI1"><path codeLine="23" d="M245.56,53.23 C234.23,62.42 220.97,73.21 209,83 C190.35,98.25 174.5311,111.2752 156.6611,125.9952 " fill="transparent" id="C1-to-CI1" style="stroke:#181818;stroke-width:1;"/><polygon fill="#181818" points="152.03,129.81,161.5199,127.1752,155.8893,126.631,156.4335,121.0004,152.03,129.81" style="stroke:#181818;stroke-width:1;"/><text fill="#000000" font-family="sans-serif" font-size="13" lengthAdjust="spacing" textLength="76.9082" x="210" y="96.0669">implements</text></g><!--link C1 to CI3--><g id="link_C1_CI3"><path codeLine="24" d="M282.64,53.25 C291.58,73.9 302.7146,99.5946 313.4946,124.4746 " fill="transparent" id="C1-to-CI3" style="stroke:#181818;stroke-width:1;"/><polygon fill="#181818" points="315.88,129.98,315.9722,120.1316,313.8922,125.3921,308.6316,123.3121,315.88,129.98" style="stroke:#181818;stroke-width:1;"/><text fill="#000000" font-family="sans-serif" font-size="13" lengthAdjust="spacing" textLength="29.7832" x="302" y="96.0669">uses</text></g><!--SRC=[RO-z2i8m58NtFCMbUuSOTEZWagbGy1b2k9P0_aWY2kAxcsWD8NMxVEVmSQxGsjsDUYYx4kcCTnPjWe7NamuW8d0AJ_8YoYOCLo6nRSmLRjsvb0CA3SvZ44av2xG7XwnhVOjRbSoDthPyRB_qqWZth7V-syYsZMo_yTY3K_6HyiyudikI2PJn6arMnXnyEUzunMo2MyH8tW00]--></g></svg>