<svg xmlns="http://www.w3.org/2000/svg" xmlns:xlink="http://www.w3.org/1999/xlink" contentStyleType="text/css" data-diagram-type="SEQUENCE" height="358px" preserveAspectRatio="none" style="width:766px;height:358px;background:#FFFFFF;" version="1.1" viewBox="0 0 766 358" width="766px" zoomAndPan="magnify"><defs/><g><rect fill="transparent" height="90.2031" style="stroke:#000000;stroke-width:1.5;" width="634.8438" x="124.3369" y="111.5625"/><rect fill="transparent" height="90.2031" style="stroke:#000000;stroke-width:1.5;" width="436.7588" x="10" y="215.7656"/><g><title>Feature User</title><rect fill="transparent" height="286.6719" width="8" x="68.1685" y="36.2969"/><line style="stroke:#181818;stroke-width:0.5;stroke-dasharray:5.0,5.0;" x1="72" x2="72" y1="36.2969" y2="322.9688"/></g><g><title>&#171;component&#187; :Lower Level Component 1</title><rect fill="transparent" height="286.6719" width="8" x="281.5479" y="36.2969"/><line style="stroke:#181818;stroke-width:0.5;stroke-dasharray:5.0,5.0;" x1="285.3369" x2="285.3369" y1="36.2969" y2="322.9688"/></g><g><title>&#171;component&#187; :Lower Level Component 3</title><rect fill="transparent" height="286.6719" width="8" x="593.9697" y="36.2969"/><line style="stroke:#181818;stroke-width:0.5;stroke-dasharray:5.0,5.0;" x1="597.7588" x2="597.7588" y1="36.2969" y2="322.9688"/></g><rect fill="#E2E2F0" height="30.2969" rx="2.5" ry="2.5" style="stroke:#181818;stroke-width:0.5;" width="104.3369" x="20" y="5"/><text fill="#000000" font-family="sans-serif" font-size="14" lengthAdjust="spacing" textLength="90.3369" x="27" y="24.9951">Feature User</text><rect fill="#E2E2F0" height="30.2969" rx="2.5" ry="2.5" style="stroke:#181818;stroke-width:0.5;" width="104.3369" x="20" y="321.9688"/><text fill="#000000" font-family="sans-serif" font-size="14" lengthAdjust="spacing" textLength="90.3369" x="27" y="341.9639">Feature User</text><rect fill="#E2E2F0" height="30.2969" rx="2.5" ry="2.5" style="stroke:#181818;stroke-width:0.5;" width="302.4219" x="134.3369" y="5"/><text fill="#000000" font-family="sans-serif" font-size="14" lengthAdjust="spacing" textLength="288.4219" x="141.3369" y="24.9951">&#171;component&#187; :Lower Level Component 1</text><rect fill="#E2E2F0" height="30.2969" rx="2.5" ry="2.5" style="stroke:#181818;stroke-width:0.5;" width="302.4219" x="134.3369" y="321.9688"/><text fill="#000000" font-family="sans-serif" font-size="14" lengthAdjust="spacing" textLength="288.4219" x="141.3369" y="341.9639">&#171;component&#187; :Lower Level Component 1</text><rect fill="#E2E2F0" height="30.2969" rx="2.5" ry="2.5" style="stroke:#181818;stroke-width:0.5;" width="302.4219" x="446.7588" y="5"/><text fill="#000000" font-family="sans-serif" font-size="14" lengthAdjust="spacing" textLength="288.4219" x="453.7588" y="24.9951">&#171;component&#187; :Lower Level Component 3</text><rect fill="#E2E2F0" height="30.2969" rx="2.5" ry="2.5" style="stroke:#181818;stroke-width:0.5;" width="302.4219" x="446.7588" y="321.9688"/><text fill="#000000" font-family="sans-serif" font-size="14" lengthAdjust="spacing" textLength="288.4219" x="453.7588" y="341.9639">&#171;component&#187; :Lower Level Component 3</text><polygon fill="#181818" points="273.5479,63.4297,283.5479,67.4297,273.5479,71.4297,277.5479,67.4297" style="stroke:#181818;stroke-width:1;"/><line style="stroke:#181818;stroke-width:1;" x1="72.1685" x2="279.5479" y1="67.4297" y2="67.4297"/><text fill="#000000" font-family="sans-serif" font-size="13" lengthAdjust="spacing" textLength="118.1489" x="79.1685" y="62.3638">real operation 3 ()</text><polygon fill="#181818" points="585.9697,92.5625,595.9697,96.5625,585.9697,100.5625,589.9697,96.5625" style="stroke:#181818;stroke-width:1;"/><line style="stroke:#181818;stroke-width:1;" x1="285.5479" x2="591.9697" y1="96.5625" y2="96.5625"/><text fill="#000000" font-family="sans-serif" font-size="13" lengthAdjust="spacing" textLength="118.1489" x="292.5479" y="91.4966">real operation 9 ()</text><path d="M124.3369,111.5625 L188.7798,111.5625 L188.7798,118.6953 L178.7798,128.6953 L124.3369,128.6953 L124.3369,111.5625 " fill="#EEEEEE" style="stroke:#000000;stroke-width:1.5;"/><rect fill="transparent" height="90.2031" style="stroke:#000000;stroke-width:1.5;" width="634.8438" x="124.3369" y="111.5625"/><text fill="#000000" font-family="sans-serif" font-size="13" font-weight="bold" lengthAdjust="spacing" textLength="19.4429" x="139.3369" y="124.6294">alt</text><text fill="#000000" font-family="sans-serif" font-size="11" font-weight="bold" lengthAdjust="spacing" textLength="58.0293" x="203.7798" y="123.7729">[success]</text><polygon fill="#181818" points="296.5479,145.8281,286.5479,149.8281,296.5479,153.8281,292.5479,149.8281" style="stroke:#181818;stroke-width:1;"/><line style="stroke:#181818;stroke-width:1;stroke-dasharray:2.0,2.0;" x1="290.5479" x2="596.9697" y1="149.8281" y2="149.8281"/><text fill="#000000" font-family="sans-serif" font-size="13" lengthAdjust="spacing" textLength="50.8511" x="302.5479" y="144.7622">success</text><line style="stroke:#000000;stroke-width:1;stroke-dasharray:2.0,2.0;" x1="124.3369" x2="759.1807" y1="158.8281" y2="158.8281"/><text fill="#000000" font-family="sans-serif" font-size="11" font-weight="bold" lengthAdjust="spacing" textLength="41.3467" x="129.3369" y="169.0386">[error]</text><polygon fill="#181818" points="296.5479,189.7656,286.5479,193.7656,296.5479,197.7656,292.5479,193.7656" style="stroke:#181818;stroke-width:1;"/><line style="stroke:#181818;stroke-width:1;stroke-dasharray:2.0,2.0;" x1="290.5479" x2="596.9697" y1="193.7656" y2="193.7656"/><text fill="#000000" font-family="sans-serif" font-size="13" lengthAdjust="spacing" textLength="65.1587" x="302.5479" y="188.6997">error type</text><path d="M10,215.7656 L74.4429,215.7656 L74.4429,222.8984 L64.4429,232.8984 L10,232.8984 L10,215.7656 " fill="#EEEEEE" style="stroke:#000000;stroke-width:1.5;"/><rect fill="transparent" height="90.2031" style="stroke:#000000;stroke-width:1.5;" width="436.7588" x="10" y="215.7656"/><text fill="#000000" font-family="sans-serif" font-size="13" font-weight="bold" lengthAdjust="spacing" textLength="19.4429" x="25" y="228.8325">alt</text><text fill="#000000" font-family="sans-serif" font-size="11" font-weight="bold" lengthAdjust="spacing" textLength="58.0293" x="89.4429" y="227.9761">[success]</text><polygon fill="#181818" points="83.1685,250.0313,73.1685,254.0313,83.1685,258.0313,79.1685,254.0313" style="stroke:#181818;stroke-width:1;"/><line style="stroke:#181818;stroke-width:1;stroke-dasharray:2.0,2.0;" x1="77.1685" x2="284.5479" y1="254.0313" y2="254.0313"/><text fill="#000000" font-family="sans-serif" font-size="13" lengthAdjust="spacing" textLength="26.6792" x="89.1685" y="248.9653">true</text><line style="stroke:#000000;stroke-width:1;stroke-dasharray:2.0,2.0;" x1="10" x2="446.7588" y1="263.0313" y2="263.0313"/><text fill="#000000" font-family="sans-serif" font-size="11" font-weight="bold" lengthAdjust="spacing" textLength="41.3467" x="15" y="273.2417">[error]</text><polygon fill="#181818" points="83.1685,293.9688,73.1685,297.9688,83.1685,301.9688,79.1685,297.9688" style="stroke:#181818;stroke-width:1;"/><line style="stroke:#181818;stroke-width:1;" x1="77.1685" x2="284.5479" y1="297.9688" y2="297.9688"/><text fill="#000000" font-family="sans-serif" font-size="13" lengthAdjust="spacing" textLength="65.1587" x="89.1685" y="292.9028">error type</text><!--SRC=[dOyn3i8m34NtdEAh4mmTganqO45Ywie1ek2XKaWYnmLn9ex0rfEHXbP2b0cFUVy_Ez6mzBQFnWkg8naPc71An1LCWh4IMCNFpFYmuHA39o_Z4sqNRiJew4eEXmMWAUracp-wUkvgfSfwrFl9r8B9E8H8RAGF7XgRhShWpVMAxoQkZ1EamLfAII5FJg9UZ0iWbmZ4dF-wofHdo3sI8d_-9MnAkDpQGdYWjQySEIU-X2y0]--></g></svg>