<svg xmlns="http://www.w3.org/2000/svg" xmlns:xlink="http://www.w3.org/1999/xlink" contentStyleType="text/css" data-diagram-type="CLASS" height="693px" preserveAspectRatio="none" style="width:945px;height:693px;background:#FFFFFF;" version="1.1" viewBox="0 0 945 693" width="945px" zoomAndPan="magnify"><defs/><g><!--cluster application--><g id="cluster_application"><rect fill="transparent" height="120" rx="2.5" ry="2.5" style="stroke:#181818;stroke-width:1;" width="402" x="108" y="7"/><path d="M248.2725,7 L248.2725,16.2969 L238.2725,26.2969 L108,26.2969 " fill="transparent" style="stroke:#181818;stroke-width:1;"/><text fill="#000000" font-family="sans-serif" font-size="14" font-weight="bold" lengthAdjust="spacing" textLength="130.2725" x="111" y="20.9951">User Application</text></g><!--cluster feo--><g id="cluster_feo"><rect fill="transparent" height="237" rx="2.5" ry="2.5" style="stroke:#181818;stroke-width:1;" width="311" x="7" y="317"/><path d="M42.2041,317 L42.2041,326.2969 L32.2041,336.2969 L7,336.2969 " fill="transparent" style="stroke:#181818;stroke-width:1;"/><text fill="#000000" font-family="sans-serif" font-size="14" font-weight="bold" lengthAdjust="spacing" textLength="25.2041" x="10" y="330.9951">feo</text></g><!--entity PP--><g id="elem_PP"><rect fill="#F1F1F1" height="36.2969" rx="2.5" ry="2.5" style="stroke:#181818;stroke-width:0.5;" width="132.458" x="354" y="58.5"/><text fill="#000000" font-family="sans-serif" font-size="14" lengthAdjust="spacing" textLength="112.458" x="364" y="81.4951">Primary Process</text></g><!--entity SP--><g id="elem_SP"><rect fill="#F1F1F1" height="52.5938" rx="2.5" ry="2.5" style="stroke:#181818;stroke-width:0.5;" width="168.1621" x="151" y="50"/><text fill="#000000" font-family="sans-serif" font-size="14" lengthAdjust="spacing" textLength="148.1621" x="161" y="72.9951">Secondary Processes</text><text fill="#000000" font-family="sans-serif" font-size="14" lengthAdjust="spacing" textLength="67.6621" x="161" y="89.292">(optional)</text></g><!--entity feo_com--><g id="elem_feo_com"><rect fill="#F1F1F1" height="46.2969" rx="2.5" ry="2.5" style="stroke:#181818;stroke-width:0.5;" width="99.0078" x="32.5" y="360"/><rect fill="#F1F1F1" height="10" style="stroke:#181818;stroke-width:0.5;" width="15" x="111.5078" y="365"/><rect fill="#F1F1F1" height="2" style="stroke:#181818;stroke-width:0.5;" width="4" x="109.5078" y="367"/><rect fill="#F1F1F1" height="2" style="stroke:#181818;stroke-width:0.5;" width="4" x="109.5078" y="371"/><text fill="#000000" font-family="sans-serif" font-size="14" lengthAdjust="spacing" textLength="59.0078" x="47.5" y="392.9951">feo_com</text></g><!--entity feo_log--><g id="elem_feo_log"><rect fill="#F1F1F1" height="46.2969" rx="2.5" ry="2.5" style="stroke:#181818;stroke-width:0.5;" width="90.4492" x="167" y="360"/><rect fill="#F1F1F1" height="10" style="stroke:#181818;stroke-width:0.5;" width="15" x="237.4492" y="365"/><rect fill="#F1F1F1" height="2" style="stroke:#181818;stroke-width:0.5;" width="4" x="235.4492" y="367"/><rect fill="#F1F1F1" height="2" style="stroke:#181818;stroke-width:0.5;" width="4" x="235.4492" y="371"/><text fill="#000000" font-family="sans-serif" font-size="14" lengthAdjust="spacing" textLength="50.4492" x="182" y="392.9951">feo_log</text></g><!--entity feo_time--><g id="elem_feo_time"><rect fill="#F1F1F1" height="46.2969" rx="2.5" ry="2.5" style="stroke:#181818;stroke-width:0.5;" width="100.7373" x="31.5" y="484"/><rect fill="#F1F1F1" height="10" style="stroke:#181818;stroke-width:0.5;" width="15" x="112.2373" y="489"/><rect fill="#F1F1F1" height="2" style="stroke:#181818;stroke-width:0.5;" width="4" x="110.2373" y="491"/><rect fill="#F1F1F1" height="2" style="stroke:#181818;stroke-width:0.5;" width="4" x="110.2373" y="495"/><text fill="#000000" font-family="sans-serif" font-size="14" lengthAdjust="spacing" textLength="60.7373" x="46.5" y="516.9951">feo_time</text></g><!--entity feo_tracing--><g id="elem_feo_tracing"><rect fill="#F1F1F1" height="46.2969" rx="2.5" ry="2.5" style="stroke:#181818;stroke-width:0.5;" width="118.2783" x="168" y="484"/><rect fill="#F1F1F1" height="10" style="stroke:#181818;stroke-width:0.5;" width="15" x="266.2783" y="489"/><rect fill="#F1F1F1" height="2" style="stroke:#181818;stroke-width:0.5;" width="4" x="264.2783" y="491"/><rect fill="#F1F1F1" height="2" style="stroke:#181818;stroke-width:0.5;" width="4" x="264.2783" y="495"/><text fill="#000000" font-family="sans-serif" font-size="14" lengthAdjust="spacing" textLength="78.2783" x="183" y="516.9951">feo_tracing</text></g><!--entity life_mgr--><g id="elem_life_mgr"><rect fill="#F1F1F1" height="46.2969" rx="2.5" ry="2.5" style="stroke:#181818;stroke-width:0.5;" width="167.2305" x="533.5" y="53.5"/><rect fill="#F1F1F1" height="10" style="stroke:#181818;stroke-width:0.5;" width="15" x="680.7305" y="58.5"/><rect fill="#F1F1F1" height="2" style="stroke:#181818;stroke-width:0.5;" width="4" x="678.7305" y="60.5"/><rect fill="#F1F1F1" height="2" style="stroke:#181818;stroke-width:0.5;" width="4" x="678.7305" y="64.5"/><text fill="#000000" font-family="sans-serif" font-size="14" lengthAdjust="spacing" textLength="127.2305" x="548.5" y="86.4951">Lifecycle Manager</text></g><!--entity health_mgr--><g id="elem_health_mgr"><rect fill="#F1F1F1" height="46.2969" rx="2.5" ry="2.5" style="stroke:#181818;stroke-width:0.5;" width="151.7881" x="788" y="633.5"/><rect fill="#F1F1F1" height="10" style="stroke:#181818;stroke-width:0.5;" width="15" x="919.7881" y="638.5"/><rect fill="#F1F1F1" height="2" style="stroke:#181818;stroke-width:0.5;" width="4" x="917.7881" y="640.5"/><rect fill="#F1F1F1" height="2" style="stroke:#181818;stroke-width:0.5;" width="4" x="917.7881" y="644.5"/><text fill="#000000" font-family="sans-serif" font-size="14" lengthAdjust="spacing" textLength="111.7881" x="803" y="666.4951">Health Manager</text></g><!--entity com_mgr--><g id="elem_com_mgr"><rect fill="#F1F1F1" height="46.2969" rx="2.5" ry="2.5" style="stroke:#181818;stroke-width:0.5;" width="148.2676" x="605" y="633.5"/><rect fill="#F1F1F1" height="10" style="stroke:#181818;stroke-width:0.5;" width="15" x="733.2676" y="638.5"/><rect fill="#F1F1F1" height="2" style="stroke:#181818;stroke-width:0.5;" width="4" x="731.2676" y="640.5"/><rect fill="#F1F1F1" height="2" style="stroke:#181818;stroke-width:0.5;" width="4" x="731.2676" y="644.5"/><text fill="#000000" font-family="sans-serif" font-size="14" lengthAdjust="spacing" textLength="108.2676" x="620" y="666.4951">communication</text></g><!--entity log_trace_mgr--><g id="elem_log_trace_mgr"><rect fill="#F1F1F1" height="62.5938" rx="2.5" ry="2.5" style="stroke:#181818;stroke-width:0.5;" width="96.5947" x="465.5" y="625"/><rect fill="#F1F1F1" height="10" style="stroke:#181818;stroke-width:0.5;" width="15" x="542.0947" y="630"/><rect fill="#F1F1F1" height="2" style="stroke:#181818;stroke-width:0.5;" width="4" x="540.0947" y="632"/><rect fill="#F1F1F1" height="2" style="stroke:#181818;stroke-width:0.5;" width="4" x="540.0947" y="636"/><text fill="#000000" font-family="sans-serif" font-size="14" lengthAdjust="spacing" textLength="56.5947" x="480.5" y="657.9951">logging/</text><text fill="#000000" font-family="sans-serif" font-size="14" lengthAdjust="spacing" textLength="49.1709" x="480.5" y="674.292">tracing</text></g><!--entity time_mgr--><g id="elem_time_mgr"><rect fill="#F1F1F1" height="46.2969" rx="2.5" ry="2.5" style="stroke:#181818;stroke-width:0.5;" width="71.6299" x="338" y="633.5"/><rect fill="#F1F1F1" height="10" style="stroke:#181818;stroke-width:0.5;" width="15" x="389.6299" y="638.5"/><rect fill="#F1F1F1" height="2" style="stroke:#181818;stroke-width:0.5;" width="4" x="387.6299" y="640.5"/><rect fill="#F1F1F1" height="2" style="stroke:#181818;stroke-width:0.5;" width="4" x="387.6299" y="644.5"/><text fill="#000000" font-family="sans-serif" font-size="14" lengthAdjust="spacing" textLength="31.6299" x="353" y="666.4951">time</text></g><!--class activity--><g id="elem_activity"><rect codeLine="37" fill="#F1F1F1" height="48" id="activity" rx="2.5" ry="2.5" style="stroke:#181818;stroke-width:0.5;" width="84.6025" x="28.5" y="198"/><ellipse cx="43.5" cy="214" fill="#B4A7E5" rx="11" ry="11" style="stroke:#181818;stroke-width:1;"/><path d="M39.4219,209.7656 L39.4219,207.6094 L46.8125,207.6094 L46.8125,209.7656 L44.3438,209.7656 L44.3438,217.8438 L46.8125,217.8438 L46.8125,220 L39.4219,220 L39.4219,217.8438 L41.8906,217.8438 L41.8906,209.7656 L39.4219,209.7656 Z " fill="#000000"/><text fill="#000000" font-family="sans-serif" font-size="14" font-style="italic" lengthAdjust="spacing" textLength="52.6025" x="57.5" y="218.8467">Activity</text><line style="stroke:#181818;stroke-width:0.5;" x1="29.5" x2="112.1025" y1="230" y2="230"/><line style="stroke:#181818;stroke-width:0.5;" x1="29.5" x2="112.1025" y1="238" y2="238"/></g><!--class primary--><g id="elem_primary"><rect codeLine="39" fill="#F1F1F1" height="48" id="primary" rx="2.5" ry="2.5" style="stroke:#181818;stroke-width:0.5;" width="132.2354" x="336" y="198"/><ellipse cx="351" cy="214" fill="#B4A7E5" rx="11" ry="11" style="stroke:#181818;stroke-width:1;"/><path d="M346.9219,209.7656 L346.9219,207.6094 L354.3125,207.6094 L354.3125,209.7656 L351.8438,209.7656 L351.8438,217.8438 L354.3125,217.8438 L354.3125,220 L346.9219,220 L346.9219,217.8438 L349.3906,217.8438 L349.3906,209.7656 L346.9219,209.7656 Z " fill="#000000"/><text fill="#000000" font-family="sans-serif" font-size="14" font-style="italic" lengthAdjust="spacing" textLength="100.2354" x="365" y="218.8467">Primary Agent</text><line style="stroke:#181818;stroke-width:0.5;" x1="337" x2="467.2354" y1="230" y2="230"/><line style="stroke:#181818;stroke-width:0.5;" x1="337" x2="467.2354" y1="238" y2="238"/></g><!--class secondary--><g id="elem_secondary"><rect codeLine="40" fill="#F1F1F1" height="48" id="secondary" rx="2.5" ry="2.5" style="stroke:#181818;stroke-width:0.5;" width="152.0322" x="149" y="198"/><ellipse cx="164" cy="214" fill="#B4A7E5" rx="11" ry="11" style="stroke:#181818;stroke-width:1;"/><path d="M159.9219,209.7656 L159.9219,207.6094 L167.3125,207.6094 L167.3125,209.7656 L164.8438,209.7656 L164.8438,217.8438 L167.3125,217.8438 L167.3125,220 L159.9219,220 L159.9219,217.8438 L162.3906,217.8438 L162.3906,209.7656 L159.9219,209.7656 Z " fill="#000000"/><text fill="#000000" font-family="sans-serif" font-size="14" font-style="italic" lengthAdjust="spacing" textLength="120.0322" x="178" y="218.8467">Secondary Agent</text><line style="stroke:#181818;stroke-width:0.5;" x1="150" x2="300.0322" y1="230" y2="230"/><line style="stroke:#181818;stroke-width:0.5;" x1="150" x2="300.0322" y1="238" y2="238"/></g><!--class health--><g id="elem_health"><rect codeLine="42" fill="#F1F1F1" height="48" id="health" rx="2.5" ry="2.5" style="stroke:#181818;stroke-width:0.5;" width="77.9717" x="812" y="483"/><ellipse cx="827" cy="499" fill="#B4A7E5" rx="11" ry="11" style="stroke:#181818;stroke-width:1;"/><path d="M822.9219,494.7656 L822.9219,492.6094 L830.3125,492.6094 L830.3125,494.7656 L827.8438,494.7656 L827.8438,502.8438 L830.3125,502.8438 L830.3125,505 L822.9219,505 L822.9219,502.8438 L825.3906,502.8438 L825.3906,494.7656 L822.9219,494.7656 Z " fill="#000000"/><text fill="#000000" font-family="sans-serif" font-size="14" font-style="italic" lengthAdjust="spacing" textLength="45.9717" x="841" y="503.8467">Health</text><line style="stroke:#181818;stroke-width:0.5;" x1="813" x2="888.9717" y1="515" y2="515"/><line style="stroke:#181818;stroke-width:0.5;" x1="813" x2="888.9717" y1="523" y2="523"/></g><!--class lifecycle--><g id="elem_lifecycle"><rect codeLine="43" fill="#F1F1F1" height="48" id="lifecycle" rx="2.5" ry="2.5" style="stroke:#181818;stroke-width:0.5;" width="154.1924" x="523" y="198"/><ellipse cx="538" cy="214" fill="#B4A7E5" rx="11" ry="11" style="stroke:#181818;stroke-width:1;"/><path d="M533.9219,209.7656 L533.9219,207.6094 L541.3125,207.6094 L541.3125,209.7656 L538.8438,209.7656 L538.8438,217.8438 L541.3125,217.8438 L541.3125,220 L533.9219,220 L533.9219,217.8438 L536.3906,217.8438 L536.3906,209.7656 L533.9219,209.7656 Z " fill="#000000"/><text fill="#000000" font-family="sans-serif" font-size="14" font-style="italic" lengthAdjust="spacing" textLength="122.1924" x="552" y="218.8467">Lifecycle Listener</text><line style="stroke:#181818;stroke-width:0.5;" x1="524" x2="676.1924" y1="230" y2="230"/><line style="stroke:#181818;stroke-width:0.5;" x1="524" x2="676.1924" y1="238" y2="238"/></g><!--class mw_com--><g id="elem_mw_com"><rect codeLine="45" fill="#F1F1F1" height="48" id="mw_com" rx="2.5" ry="2.5" style="stroke:#181818;stroke-width:0.5;" width="96.4219" x="677" y="483"/><ellipse cx="692" cy="499" fill="#B4A7E5" rx="11" ry="11" style="stroke:#181818;stroke-width:1;"/><path d="M687.9219,494.7656 L687.9219,492.6094 L695.3125,492.6094 L695.3125,494.7656 L692.8438,494.7656 L692.8438,502.8438 L695.3125,502.8438 L695.3125,505 L687.9219,505 L687.9219,502.8438 L690.3906,502.8438 L690.3906,494.7656 L687.9219,494.7656 Z " fill="#000000"/><text fill="#000000" font-family="sans-serif" font-size="14" font-style="italic" lengthAdjust="spacing" textLength="64.4219" x="706" y="503.8467">mw::com</text><line style="stroke:#181818;stroke-width:0.5;" x1="678" x2="772.4219" y1="515" y2="515"/><line style="stroke:#181818;stroke-width:0.5;" x1="678" x2="772.4219" y1="523" y2="523"/></g><!--class logging--><g id="elem_logging"><rect codeLine="46" fill="#F1F1F1" height="48" id="logging" rx="2.5" ry="2.5" style="stroke:#181818;stroke-width:0.5;" width="83.8779" x="558" y="483"/><ellipse cx="573" cy="499" fill="#B4A7E5" rx="11" ry="11" style="stroke:#181818;stroke-width:1;"/><path d="M568.9219,494.7656 L568.9219,492.6094 L576.3125,492.6094 L576.3125,494.7656 L573.8438,494.7656 L573.8438,502.8438 L576.3125,502.8438 L576.3125,505 L568.9219,505 L568.9219,502.8438 L571.3906,502.8438 L571.3906,494.7656 L568.9219,494.7656 Z " fill="#000000"/><text fill="#000000" font-family="sans-serif" font-size="14" font-style="italic" lengthAdjust="spacing" textLength="51.8779" x="587" y="503.8467">logging</text><line style="stroke:#181818;stroke-width:0.5;" x1="559" x2="640.8779" y1="515" y2="515"/><line style="stroke:#181818;stroke-width:0.5;" x1="559" x2="640.8779" y1="523" y2="523"/></g><!--class tracing--><g id="elem_tracing"><rect codeLine="47" fill="#F1F1F1" height="48" id="tracing" rx="2.5" ry="2.5" style="stroke:#181818;stroke-width:0.5;" width="81.1709" x="441.5" y="483"/><ellipse cx="456.5" cy="499" fill="#B4A7E5" rx="11" ry="11" style="stroke:#181818;stroke-width:1;"/><path d="M452.4219,494.7656 L452.4219,492.6094 L459.8125,492.6094 L459.8125,494.7656 L457.3438,494.7656 L457.3438,502.8438 L459.8125,502.8438 L459.8125,505 L452.4219,505 L452.4219,502.8438 L454.8906,502.8438 L454.8906,494.7656 L452.4219,494.7656 Z " fill="#000000"/><text fill="#000000" font-family="sans-serif" font-size="14" font-style="italic" lengthAdjust="spacing" textLength="49.1709" x="470.5" y="503.8467">tracing</text><line style="stroke:#181818;stroke-width:0.5;" x1="442.5" x2="521.6709" y1="515" y2="515"/><line style="stroke:#181818;stroke-width:0.5;" x1="442.5" x2="521.6709" y1="523" y2="523"/></g><!--class time--><g id="elem_time"><rect codeLine="48" fill="#F1F1F1" height="48" id="time" rx="2.5" ry="2.5" style="stroke:#181818;stroke-width:0.5;" width="63.6299" x="342" y="483"/><ellipse cx="357" cy="499" fill="#B4A7E5" rx="11" ry="11" style="stroke:#181818;stroke-width:1;"/><path d="M352.9219,494.7656 L352.9219,492.6094 L360.3125,492.6094 L360.3125,494.7656 L357.8438,494.7656 L357.8438,502.8438 L360.3125,502.8438 L360.3125,505 L352.9219,505 L352.9219,502.8438 L355.3906,502.8438 L355.3906,494.7656 L352.9219,494.7656 Z " fill="#000000"/><text fill="#000000" font-family="sans-serif" font-size="14" font-style="italic" lengthAdjust="spacing" textLength="31.6299" x="371" y="503.8467">time</text><line style="stroke:#181818;stroke-width:0.5;" x1="343" x2="404.6299" y1="515" y2="515"/><line style="stroke:#181818;stroke-width:0.5;" x1="343" x2="404.6299" y1="523" y2="523"/></g><!--reverse link health to health_mgr--><g id="link_health_health_mgr"><path codeLine="50" d="M854.6127,548.9803 C857.0727,576.8503 859.59,605.52 862.03,633.1 " fill="transparent" id="health-backto-health_mgr" style="stroke:#181818;stroke-width:1;"/><polygon fill="transparent" points="853.03,531.05,848.6359,549.5078,860.5894,548.4527,853.03,531.05" style="stroke:#181818;stroke-width:1;"/><text fill="#000000" font-family="sans-serif" font-size="13" lengthAdjust="spacing" textLength="28.1392" x="859" y="591.0669">impl</text></g><!--reverse link mw_com to com_mgr--><g id="link_mw_com_com_mgr"><path codeLine="52" d="M712.4519,548.234 C703.7619,576.104 694.59,605.52 685.99,633.1 " fill="transparent" id="mw_com-backto-com_mgr" style="stroke:#181818;stroke-width:1;"/><polygon fill="transparent" points="717.81,531.05,706.7239,546.448,718.1799,550.0201,717.81,531.05" style="stroke:#181818;stroke-width:1;"/><text fill="#000000" font-family="sans-serif" font-size="13" lengthAdjust="spacing" textLength="28.1392" x="703" y="591.0669">impl</text></g><!--reverse link logging to log_trace_mgr--><g id="link_logging_log_trace_mgr"><path codeLine="53" d="M577.4934,546.5998 C562.7534,571.8798 548.1,597.01 531.82,624.94 " fill="transparent" id="logging-backto-log_trace_mgr" style="stroke:#181818;stroke-width:1;"/><polygon fill="transparent" points="586.56,531.05,572.3101,543.5776,582.6766,549.622,586.56,531.05" style="stroke:#181818;stroke-width:1;"/><text fill="#000000" font-family="sans-serif" font-size="13" lengthAdjust="spacing" textLength="28.1392" x="558" y="591.0669">impl</text></g><!--reverse link tracing to log_trace_mgr--><g id="link_tracing_log_trace_mgr"><path codeLine="54" d="M490.8133,548.6414 C496.2933,573.9214 501.31,597.01 507.37,624.94 " fill="transparent" id="tracing-backto-log_trace_mgr" style="stroke:#181818;stroke-width:1;"/><polygon fill="transparent" points="487,531.05,484.9495,549.9125,496.6771,547.3703,487,531.05" style="stroke:#181818;stroke-width:1;"/><text fill="#000000" font-family="sans-serif" font-size="13" lengthAdjust="spacing" textLength="28.1392" x="501" y="591.0669">impl</text></g><!--reverse link time to time_mgr--><g id="link_time_time_mgr"><path codeLine="55" d="M374,549.05 C374,576.92 374,605.52 374,633.1 " fill="transparent" id="time-backto-time_mgr" style="stroke:#181818;stroke-width:1;"/><polygon fill="transparent" points="374,531.05,368,549.05,380,549.05,374,531.05" style="stroke:#181818;stroke-width:1;"/><text fill="#000000" font-family="sans-serif" font-size="13" lengthAdjust="spacing" textLength="28.1392" x="375" y="591.0669">impl</text></g><!--reverse link primary to feo--><g id="link_primary_feo"><path codeLine="57" d="M379.6073,261.7011 C367.0523,283.4061 356.8225,301.08 340.5175,329.2575 C332.365,343.3462 324.9469,356.1656 319.4663,365.6372 C319.1237,366.2292 318.7887,366.8081 318.4616,367.3734 C318.3799,367.5147 318.2986,367.6552 318.2178,367.7948 " fill="transparent" id="primary-backto-feo" style="stroke:#181818;stroke-width:1;"/><polygon fill="transparent" points="388.62,246.12,374.4136,258.6969,384.801,264.7053,388.62,246.12" style="stroke:#181818;stroke-width:1;"/><text fill="#000000" font-family="sans-serif" font-size="13" lengthAdjust="spacing" textLength="28.1392" x="370" y="289.0669">impl</text></g><!--reverse link secondary to feo--><g id="link_secondary_feo"><path codeLine="58" d="M256.7762,259.5566 C269.3862,273.7266 274.45,278.43 291,293 C295.54,296.99 299,295.75 302,301 C304.1775,304.8013 305.945,308.8697 307.3699,313.0849 C307.7261,314.1387 308.0609,315.2016 308.3753,316.2719 C308.4146,316.4057 308.4536,316.5396 308.4923,316.6736 " fill="transparent" id="secondary-backto-feo" style="stroke:#181818;stroke-width:1;"/><polygon fill="transparent" points="244.81,246.11,252.294,263.5453,261.2584,255.5678,244.81,246.11" style="stroke:#181818;stroke-width:1;"/><text fill="#000000" font-family="sans-serif" font-size="13" lengthAdjust="spacing" textLength="28.1392" x="292" y="289.0669">impl</text></g><!--reverse link activity to feo--><g id="link_activity_feo"><path codeLine="59" d="M129.777,252.8729 C162.427,268.7529 192.86,281.48 236,293 C250.27,296.81 291.67,290.44 302,301 C305.0625,304.1313 307.5006,307.6919 309.4207,311.532 C309.9007,312.492 310.3483,313.4695 310.7653,314.4621 C310.9737,314.9584 311.1745,315.4585 311.3678,315.9621 C311.4645,316.2139 311.5592,316.4665 311.6522,316.72 " fill="transparent" id="activity-backto-feo" style="stroke:#181818;stroke-width:1;"/><polygon fill="transparent" points="113.59,245,127.1527,258.2685,132.4013,247.4772,113.59,245" style="stroke:#181818;stroke-width:1;"/><text fill="#000000" font-family="sans-serif" font-size="13" lengthAdjust="spacing" textLength="28.1392" x="237" y="289.0669">impl</text></g><!--reverse link lifecycle to feo--><g id="link_lifecycle_feo"><path codeLine="60" d="M542.0469,254.7741 C502.4619,276.4791 457.59,301.08 406.195,329.2575 C380.4975,343.3462 357.115,356.1656 339.8388,365.6372 C331.2006,370.373 324.0891,374.2718 318.978,377.0739 C318.6585,377.249 318.3469,377.4198 318.0432,377.5863 " fill="transparent" id="lifecycle-backto-feo" style="stroke:#181818;stroke-width:1;"/><polygon fill="transparent" points="557.83,246.12,539.1622,249.5131,544.9316,260.0351,557.83,246.12" style="stroke:#181818;stroke-width:1;"/><text fill="#000000" font-family="sans-serif" font-size="13" lengthAdjust="spacing" textLength="28.1392" x="498" y="289.0669">impl</text></g><!--link feo to health--><g id="link_feo_health"><path codeLine="62" d="M318.5846,385.1068 C318.7917,385.134 319.0023,385.1617 319.2165,385.1899 C319.6448,385.2463 320.0873,385.3047 320.5439,385.3651 C321.457,385.486 322.4262,385.6148 323.4503,385.7517 C331.6431,386.8466 343.3475,388.4548 357.92,390.5728 C387.065,394.8088 427.6825,401.0838 474.625,409.37 C568.51,425.9425 687.695,450.56 791,483 C797.81,485.14 799.342,485.5701 806.242,488.1201 " fill="transparent" id="feo-to-health" style="stroke:#181818;stroke-width:1;"/><polygon fill="#181818" points="811.87,490.2,804.8147,483.3282,807.18,488.4667,802.0414,490.8321,811.87,490.2" style="stroke:#181818;stroke-width:1;"/><text fill="#000000" font-family="sans-serif" font-size="13" lengthAdjust="spacing" textLength="23.0103" x="675" y="449.0669">use</text></g><!--link feo to mw_com--><g id="link_feo_mw_com"><path codeLine="63" d="M318.2365,385.9674 C318.4886,386.0279 318.746,386.0897 319.0086,386.1528 C320.0593,386.4052 321.1944,386.6782 322.41,386.9711 C324.8413,387.557 327.5947,388.2224 330.6386,388.9609 C342.8141,391.915 359.6369,396.0387 379.0813,400.92 C417.97,410.6825 467.345,423.475 511,436 C577.75,455.15 594.15,460.97 660,483 C665.45,484.82 665.4714,484.8035 671.1214,486.7635 " fill="transparent" id="feo-to-mw_com" style="stroke:#181818;stroke-width:1;"/><polygon fill="#181818" points="676.79,488.73,669.5981,482.0013,672.0662,487.0913,666.9761,489.5594,676.79,488.73" style="stroke:#181818;stroke-width:1;"/><text fill="#000000" font-family="sans-serif" font-size="13" lengthAdjust="spacing" textLength="23.0103" x="569" y="449.0669">use</text></g><!--link feo to logging--><g id="link_feo_logging"><path codeLine="64" d="M318.2519,387.2376 C318.3509,387.2765 318.4507,387.3158 318.5514,387.3554 C318.7527,387.4345 318.9571,387.5149 319.1647,387.5966 C319.58,387.76 320.0078,387.9283 320.4479,388.1015 C321.3281,388.448 322.2574,388.814 323.2333,389.1986 C331.0403,392.2753 341.8281,396.5419 354.3013,401.5163 C379.2475,411.465 410.935,424.245 439,436 C479.48,452.96 519.8696,470.5602 552.2696,484.8402 " fill="transparent" id="feo-to-logging" style="stroke:#181818;stroke-width:1;"/><polygon fill="#181818" points="557.76,487.26,551.1376,479.97,553.1847,485.2435,547.9112,487.2905,557.76,487.26" style="stroke:#181818;stroke-width:1;"/><text fill="#000000" font-family="sans-serif" font-size="13" lengthAdjust="spacing" textLength="23.0103" x="479" y="449.0669">use</text></g><!--link feo to tracing--><g id="link_feo_tracing"><path codeLine="65" d="M318.1253,389.7671 C318.3418,389.9206 318.5621,390.0768 318.7862,390.2358 C319.2344,390.5536 319.6977,390.8823 320.1758,391.2214 C322.0882,392.5777 324.2361,394.1011 326.59,395.7706 C336.0056,402.4488 348.7175,411.465 362.8375,421.48 C391.0775,441.51 420.0559,462.064 444.4559,479.369 " fill="transparent" id="feo-to-tracing" style="stroke:#181818;stroke-width:1;"/><polygon fill="#181818" points="449.35,482.84,444.3229,474.3708,445.2716,479.9475,439.6949,480.8962,449.35,482.84" style="stroke:#181818;stroke-width:1;"/><text fill="#000000" font-family="sans-serif" font-size="13" lengthAdjust="spacing" textLength="23.0103" x="407" y="449.0669">use</text></g><!--link feo to time--><g id="link_feo_time"><path codeLine="66" d="M318.0876,399.4144 C318.1486,399.5307 318.2098,399.6475 318.2714,399.7648 C318.5175,400.2341 318.7679,400.7115 319.0224,401.1967 C320.0404,403.1376 321.124,405.2036 322.2624,407.374 C324.5391,411.7147 327.0347,416.4725 329.6613,421.48 C340.1675,441.51 349.9822,460.222 359.0622,477.527 " fill="transparent" id="feo-to-time" style="stroke:#181818;stroke-width:1;"/><polygon fill="#181818" points="361.85,482.84,361.2104,473.0119,359.5269,478.4125,354.1263,476.729,361.85,482.84" style="stroke:#181818;stroke-width:1;"/><text fill="#000000" font-family="sans-serif" font-size="13" lengthAdjust="spacing" textLength="23.0103" x="346" y="449.0669">use</text></g><!--link application to activity--><g id="link_application_activity"><path codeLine="68" d="M107.9535,103.1701 C107.9029,103.3314 107.8522,103.4932 107.8012,103.6556 C107.6994,103.9803 107.5969,104.3072 107.4938,104.6362 C107.2874,105.2941 107.0785,105.9603 106.8672,106.6343 C105.1762,112.0268 103.3272,117.9228 101.3888,124.1037 C93.635,148.8275 86.2467,172.3853 80.0167,192.2353 " fill="transparent" id="application-to-activity" style="stroke:#181818;stroke-width:1;"/><polygon fill="#181818" points="78.22,197.96,84.7315,190.5708,79.7173,193.1894,77.0986,188.1752,78.22,197.96" style="stroke:#181818;stroke-width:1;"/><text fill="#000000" font-family="sans-serif" font-size="13" lengthAdjust="spacing" textLength="23.0103" x="94" y="164.0669">use</text></g><!--link application to secondary--><g id="link_application_secondary"><path codeLine="69" d="M127.1194,127.3267 C127.2068,127.5465 127.295,127.7661 127.3838,127.9854 C128.0942,129.7401 128.8475,131.4781 129.6461,133.1873 C131.2431,136.6056 133.0213,139.9088 135,143 C148.94,164.77 165.9042,180.2911 184.5542,194.1511 " fill="transparent" id="application-to-secondary" style="stroke:#181818;stroke-width:1;"/><polygon fill="#181818" points="189.37,197.73,184.5323,189.1512,185.3569,194.7476,179.7604,195.5722,189.37,197.73" style="stroke:#181818;stroke-width:1;"/><text fill="#000000" font-family="sans-serif" font-size="13" lengthAdjust="spacing" textLength="23.0103" x="155" y="164.0669">use</text></g><!--link application to primary--><g id="link_application_primary"><path codeLine="70" d="M123.6612,127.2135 C123.7093,127.3184 123.7578,127.423 123.8066,127.5275 C124.1967,128.3636 124.6052,129.1901 125.0331,130.005 C125.8888,131.6349 126.8217,133.2185 127.8385,134.7402 C129.872,137.7834 132.2413,140.5788 135,143 C152.57,158.43 164.25,145.58 187,151 C239.51,163.5 291.9874,180.7579 334.5474,195.9079 " fill="transparent" id="application-to-primary" style="stroke:#181818;stroke-width:1;"/><polygon fill="#181818" points="340.2,197.92,333.0626,191.1334,335.4895,196.2432,330.3798,198.6702,340.2,197.92" style="stroke:#181818;stroke-width:1;"/><text fill="#000000" font-family="sans-serif" font-size="13" lengthAdjust="spacing" textLength="23.0103" x="248" y="164.0669">use</text></g><!--link life_mgr to lifecycle--><g id="link_life_mgr_lifecycle"><path codeLine="72" d="M614.38,99.61 C611.23,126.18 606.6755,164.6116 603.4655,191.7216 " fill="transparent" id="life_mgr-to-lifecycle" style="stroke:#181818;stroke-width:1;"/><polygon fill="#181818" points="602.76,197.68,607.7905,189.2128,603.3479,192.7147,599.846,188.2721,602.76,197.68" style="stroke:#181818;stroke-width:1;"/><text fill="#000000" font-family="sans-serif" font-size="13" lengthAdjust="spacing" textLength="23.0103" x="608" y="164.0669">use</text></g><!--SRC=[hLHTQzim57tthxXa3sq7ZajXBtaOXAvZXQmBf2jxA1HLbcqnMJAIKYzi_U-x-h0jBs5FxKkaSuxE_QoBimm0ti7xj_qBfjUgEsXUDnREwGLSNLvzG4XQpP_tLca3Le5j6DnGmJl3uBFQov9OhgH_7ZnsZ7dHtRVxs-iRgBXWv-O2Icw23okXvxP13JVGA_qJAgM1b2LtHaG45ouHRRqtQ5OJNN9P0ntpKxrasZIyMoQXxvrbfrMjIGj4bZuFGgbgEo8FpW0TcUP4622QuQr4_eLmGPu50oo6QVSckA6oDQ0gxxBk2CMV3QTCOkKF6DobThMyXBxXj06CF3aH6omQQpkpAeg-xvV4EooLhWiHN4onmGxTxMvoj4axkFtq8u-HyjkIISihplGg9Z6gttm7pegC2A7wbl_2PcLPLc4Z6Io-6-pBkkimRp-H1H2iThh3RvSFa1fJXSLMyvRe0soreimOBzvkKyMEKOMBCscOUPJdgWiBSE5VxBRPQvQvqIdf7srunUY1OdU_4eb6sii4eazjhLFb5qO4BbWgQppaXQaIZ-rUfbKXyg-TK7MDxIWUyH-1K3o5mAf-SlUZw9Qtp2lS8KICRQoOyWJ-neubpn1ymklY58wnJk8-r4aY9kfQo2KkSeM9mc9DBN_XzX3c5o-Oocig6iQtThFooYuWgMYQu2Gp0pQB6OQH324bfvbkyFF0P39K3y-SsdwrSXroYhPtpKhPEALXDkwSqkdeudb6fqFBicbT8D_dVpx6r5V0sqxu3Kgua4laPciH1J6T_oXYHb4nBCv0udM8x5Ode74eaPZmSGf7p33m8s9izonAcKzbxmsRmA7U6JZME4F7kkQeByX1MVeHyToKfEEFwAIwa_pO5Uy-V1mWpsTL8laN]--></g></svg>