<svg xmlns="http://www.w3.org/2000/svg" xmlns:xlink="http://www.w3.org/1999/xlink" contentStyleType="text/css" data-diagram-type="DESCRIPTION" height="312px" preserveAspectRatio="none" style="width:517px;height:312px;background:#FFFFFF;" version="1.1" viewBox="0 0 517 312" width="517px" zoomAndPan="magnify"><defs/><g><!--cluster process_description--><g id="cluster_process_description"><path d="M6,16 C6,6 104.5,6 104.5,6 C104.5,6 203,6 203,16 L203,285 C203,295 104.5,295 104.5,295 C104.5,295 6,295 6,285 L6,16 " fill="transparent" style="stroke:#181818;stroke-width:1;"/><path d="M6,16 C6,26 104.5,26 104.5,26 C104.5,26 203,26 203,16 " fill="transparent" style="stroke:#181818;stroke-width:1;"/><text fill="#000000" font-family="sans-serif" font-size="14" font-weight="bold" lengthAdjust="spacing" textLength="156.9531" x="26.0234" y="40.9951">process_description</text></g><!--entity examples--><g id="elem_examples"><rect fill="#F1F1F1" height="39.2969" rx="2.5" ry="2.5" style="stroke:#181818;stroke-width:0.5;" width="97.7988" x="55.5" y="83.5"/><polygon fill="#F1F1F1" points="136.2988,88.5,136.2988,102.5,148.2988,102.5,148.2988,94.5,142.2988,88.5,136.2988,88.5" style="stroke:#181818;stroke-width:0.5;"/><line style="stroke:#181818;stroke-width:0.5;" x1="142.2988" x2="142.2988" y1="88.5" y2="94.5"/><line style="stroke:#181818;stroke-width:0.5;" x1="148.2988" x2="142.2988" y1="94.5" y2="94.5"/><text fill="#000000" font-family="sans-serif" font-size="14" lengthAdjust="spacing" textLength="67.7988" x="65.5" y="109.4951">examples</text></g><!--entity templates--><g id="elem_templates"><rect fill="#F1F1F1" height="39.2969" rx="2.5" ry="2.5" style="stroke:#181818;stroke-width:0.5;" width="100.4922" x="54.5" y="157.5"/><polygon fill="#F1F1F1" points="137.9922,162.5,137.9922,176.5,149.9922,176.5,149.9922,168.5,143.9922,162.5,137.9922,162.5" style="stroke:#181818;stroke-width:0.5;"/><line style="stroke:#181818;stroke-width:0.5;" x1="143.9922" x2="143.9922" y1="162.5" y2="168.5"/><line style="stroke:#181818;stroke-width:0.5;" x1="149.9922" x2="143.9922" y1="168.5" y2="168.5"/><text fill="#000000" font-family="sans-serif" font-size="14" lengthAdjust="spacing" textLength="70.4922" x="64.5" y="183.4951">templates</text></g><!--entity yaml--><g id="elem_yaml"><rect fill="#F1F1F1" height="39.2969" rx="2.5" ry="2.5" style="stroke:#181818;stroke-width:0.5;" width="148.7539" x="30" y="231.5"/><polygon fill="#F1F1F1" points="161.7539,236.5,161.7539,250.5,173.7539,250.5,173.7539,242.5,167.7539,236.5,161.7539,236.5" style="stroke:#181818;stroke-width:0.5;"/><line style="stroke:#181818;stroke-width:0.5;" x1="167.7539" x2="167.7539" y1="236.5" y2="242.5"/><line style="stroke:#181818;stroke-width:0.5;" x1="173.7539" x2="167.7539" y1="242.5" y2="242.5"/><text fill="#000000" font-family="sans-serif" font-size="14" lengthAdjust="spacing" textLength="118.7539" x="40" y="257.4951">metamodel.yaml</text></g><!--entity docs_as_code--><g id="elem_docs_as_code"><path d="M384,92.5 C384,82.5 442.0396,82.5 442.0396,82.5 C442.0396,82.5 500.0791,82.5 500.0791,92.5 L500.0791,117.7969 C500.0791,127.7969 442.0396,127.7969 442.0396,127.7969 C442.0396,127.7969 384,127.7969 384,117.7969 L384,92.5 " fill="#F1F1F1" style="stroke:#181818;stroke-width:0.5;"/><path d="M384,92.5 C384,102.5 442.0396,102.5 442.0396,102.5 C442.0396,102.5 500.0791,102.5 500.0791,92.5 " fill="transparent" style="stroke:#181818;stroke-width:0.5;"/><text fill="#000000" font-family="sans-serif" font-size="14" lengthAdjust="spacing" textLength="96.0791" x="394" y="119.4951">docs_as_code</text></g><!--link process_description to docs_as_code--><g id="link_process_description_docs_as_code"><path d="M203.3447,55.8063 C203.5176,55.8967 203.6901,55.9877 203.8623,56.0794 C209.3714,59.0127 214.49,62.61 219,67 C232.3,79.95 212.67,96.2 227,108 C270.57,143.89 297.56,108.97 354,108 C363.67,107.83 367.9429,107.7465 377.9129,107.4365 " fill="transparent" id="process_description-to-docs_as_code" style="stroke:#181818;stroke-width:1;"/><polygon fill="#181818" points="383.91,107.25,374.79,103.5316,378.9124,107.4054,375.0387,111.5278,383.91,107.25" style="stroke:#181818;stroke-width:1;"/><text fill="#000000" font-family="sans-serif" font-size="13" lengthAdjust="spacing" textLength="125.7852" x="228" y="104.0669">defines metamodel</text></g><!--link docs_as_code to process_description--><g id="link_docs_as_code_process_description"><path d="M383.98,92.79 C374.01,90.77 363.71,88.77 354,87 C326.9325,82.0775 298.1375,77.2156 270.1045,72.6827 C256.088,70.4162 242.2621,68.2319 228.9378,66.1634 C222.2757,65.1292 215.7389,64.1239 209.3666,63.1517 C207.7735,62.9086 206.1906,62.6677 204.6187,62.4288 C204.2257,62.3691 209.7654,63.2099 209.3738,63.1505 " fill="transparent" id="docs_as_code-to-process_description" style="stroke:#181818;stroke-width:1;"/><polygon fill="#181818" points="203.4418,62.2501,211.7396,67.5554,208.3851,63.0004,212.9401,59.646,203.4418,62.2501" style="stroke:#181818;stroke-width:1;"/><text fill="#000000" font-family="sans-serif" font-size="13" lengthAdjust="spacing" textLength="123.1699" x="229" y="63.0669">checks metamodel</text></g><!--link yaml to docs_as_code--><g id="link_yaml_docs_as_code"><path d="M170.24,231.47 C186.31,226.19 203.4,220.21 219,214 C280.69,189.44 294.5,179.48 354,150 C368.32,142.9 378.5338,137.7126 392.4538,130.4926 " fill="transparent" id="yaml-to-docs_as_code" style="stroke:#181818;stroke-width:1;"/><polygon fill="#181818" points="397.78,127.73,387.949,128.3231,393.3415,130.0321,391.6324,135.4246,397.78,127.73" style="stroke:#181818;stroke-width:1;"/><text fill="#000000" font-family="sans-serif" font-size="13" lengthAdjust="spacing" textLength="52.311" x="264.5" y="146.0669">as input</text></g><!--SRC=[ROx13SCm203_JC42wG1vT9M8OjAWsh5bgDIgokvryabJvOLqd3YYZ8wUiUfzSWnQXLtp386SRcI2fMOMio68STMoBl43Y4ZLTIHsb1Ub4iKEqAKnyZ-Qn2db8F7ofXIH3DS9ovuBcMqW6xXPhRC0d3tGTTUZsMEGKMUnFG5RuiHiLPtBq-70L_4irIDFme-Vmry0]--></g></svg>