<svg xmlns="http://www.w3.org/2000/svg" xmlns:xlink="http://www.w3.org/1999/xlink" contentStyleType="text/css" data-diagram-type="SEQUENCE" height="273px" preserveAspectRatio="none" style="width:284px;height:273px;background:#FFFFFF;" version="1.1" viewBox="0 0 284 273" width="284px" zoomAndPan="magnify"><defs/><g><rect fill="transparent" height="77.3984" style="stroke:#000000;stroke-width:1.5;" width="268.2236" x="10" y="98.2969"/><rect fill="transparent" height="46.2656" style="stroke:#000000;stroke-width:1.5;" width="248.2236" x="20" y="122.4297"/><g><title>Network</title><rect fill="transparent" height="111.3984" width="8" x="58.2271" y="81.2969"/><line style="stroke:#181818;stroke-width:0.5;stroke-dasharray:5.0,5.0;" x1="62" x2="62" y1="81.2969" y2="192.6953"/></g><g><title>SOME/IP Gateway</title><rect fill="transparent" height="111.3984" width="8" x="169.6611" y="81.2969"/><line style="stroke:#181818;stroke-width:0.5;stroke-dasharray:5.0,5.0;" x1="173.4541" x2="173.4541" y1="81.2969" y2="192.6953"/></g><text fill="#000000" font-family="sans-serif" font-size="14" lengthAdjust="spacing" textLength="58.4541" x="30" y="77.9951">Network</text><ellipse cx="62.2271" cy="13.5" fill="#E2E2F0" rx="8" ry="8" style="stroke:#181818;stroke-width:0.5;"/><path d="M62.2271,21.5 L62.2271,48.5 M49.2271,29.5 L75.2271,29.5 M62.2271,48.5 L49.2271,63.5 M62.2271,48.5 L75.2271,63.5 " fill="transparent" style="stroke:#181818;stroke-width:0.5;"/><text fill="#000000" font-family="sans-serif" font-size="14" lengthAdjust="spacing" textLength="58.4541" x="30" y="204.6904">Network</text><ellipse cx="62.2271" cy="216.4922" fill="#E2E2F0" rx="8" ry="8" style="stroke:#181818;stroke-width:0.5;"/><path d="M62.2271,224.4922 L62.2271,251.4922 M49.2271,232.4922 L75.2271,232.4922 M62.2271,251.4922 L49.2271,266.4922 M62.2271,251.4922 L75.2271,266.4922 " fill="transparent" style="stroke:#181818;stroke-width:0.5;"/><rect fill="#E2E2F0" height="30.2969" rx="2.5" ry="2.5" style="stroke:#181818;stroke-width:0.5;" width="138.4141" x="104.4541" y="50"/><text fill="#000000" font-family="sans-serif" font-size="14" lengthAdjust="spacing" textLength="124.4141" x="111.4541" y="69.9951">SOME/IP Gateway</text><rect fill="#E2E2F0" height="30.2969" rx="2.5" ry="2.5" style="stroke:#181818;stroke-width:0.5;" width="138.4141" x="104.4541" y="191.6953"/><text fill="#000000" font-family="sans-serif" font-size="14" lengthAdjust="spacing" textLength="124.4141" x="111.4541" y="211.6904">SOME/IP Gateway</text><path d="M10,98.2969 L86.624,98.2969 L86.624,105.4297 L76.624,115.4297 L10,115.4297 L10,98.2969 " fill="#EEEEEE" style="stroke:#000000;stroke-width:1.5;"/><rect fill="transparent" height="77.3984" style="stroke:#000000;stroke-width:1.5;" width="268.2236" x="10" y="98.2969"/><text fill="#000000" font-family="sans-serif" font-size="13" font-weight="bold" lengthAdjust="spacing" textLength="31.624" x="25" y="111.3638">loop</text><text fill="#000000" font-family="sans-serif" font-size="11" font-weight="bold" lengthAdjust="spacing" textLength="112.7339" x="101.624" y="110.5073">[required Service]</text><path d="M20,122.4297 L84.4429,122.4297 L84.4429,129.5625 L74.4429,139.5625 L20,139.5625 L20,122.4297 " fill="#EEEEEE" style="stroke:#000000;stroke-width:1.5;"/><rect fill="transparent" height="46.2656" style="stroke:#000000;stroke-width:1.5;" width="248.2236" x="20" y="122.4297"/><text fill="#000000" font-family="sans-serif" font-size="13" font-weight="bold" lengthAdjust="spacing" textLength="19.4429" x="35" y="135.4966">alt</text><text fill="#000000" font-family="sans-serif" font-size="11" font-weight="bold" lengthAdjust="spacing" textLength="163.7808" x="99.4429" y="134.6401">[no OfferService received]</text><polygon fill="#181818" points="73.2271,156.6953,63.2271,160.6953,73.2271,164.6953,69.2271,160.6953" style="stroke:#181818;stroke-width:1;"/><line style="stroke:#181818;stroke-width:1;" x1="67.2271" x2="172.6611" y1="160.6953" y2="160.6953"/><text fill="#000000" font-family="sans-serif" font-size="13" lengthAdjust="spacing" textLength="75.626" x="79.2271" y="155.6294">FindService</text><!--SRC=[LKv12W8n4Blt5M7lujs3DnKFka9VCBIpChYsTNRSnTzRTGKD148IGYXOLZH7jYdhfG4DcBKhf2P12YL3uzl3Pha_OKV64ptUHP-lBENySPphSovGljr5ESApZXBO0Q3Ua3BQhcETxTeBB2F7LrxnDuN5-djYXQsa-BF5ARhA9m00]--></g></svg>