<svg xmlns="http://www.w3.org/2000/svg" xmlns:xlink="http://www.w3.org/1999/xlink" contentStyleType="text/css" data-diagram-type="SEQUENCE" height="2582px" preserveAspectRatio="none" style="width:1059px;height:2582px;background:#FFFFFF;" version="1.1" viewBox="0 0 1059 2582" width="1059px" zoomAndPan="magnify"><defs/><g><rect fill="#E0E0E0" height="2570.0859" style="stroke:#181818;stroke-width:0.5;" width="353.3569" x="1" y="6"/><text fill="#000000" font-family="sans-serif" font-size="13" font-weight="bold" lengthAdjust="spacing" textLength="118.9932" x="118.1819" y="18.0669">Primary Process</text><rect fill="#F0F0F0" height="2570.0859" style="stroke:#181818;stroke-width:0.5;" width="399.1299" x="356.3569" y="6"/><text fill="#000000" font-family="sans-serif" font-size="13" font-weight="bold" lengthAdjust="spacing" textLength="152.001" x="479.9214" y="18.0669">Secondary Process 1</text><rect fill="#F0F0F0" height="2570.0859" style="stroke:#181818;stroke-width:0.5;" width="277.2598" x="757.4868" y="6"/><text fill="#000000" font-family="sans-serif" font-size="13" font-weight="bold" lengthAdjust="spacing" textLength="152.001" x="820.1162" y="18.0669">Secondary Process 2</text><g><title>Scheduler</title><rect fill="#FFFFFF" height="229.9297" style="stroke:#181818;stroke-width:1;" width="10" x="181.4424" y="360.7578"/></g><g><title>Scheduler</title><rect fill="#FFFFFF" height="1825.7031" style="stroke:#181818;stroke-width:1;" width="10" x="181.4424" y="698.0859"/></g><rect fill="transparent" height="508.3906" style="stroke:#000000;stroke-width:1.5;" width="924.7466" x="116" y="1332.6094"/><g><title>Primary Agent</title><rect fill="transparent" height="2485.3594" width="8" x="58.1177" y="56.4297"/><line style="stroke:#181818;stroke-width:0.5;stroke-dasharray:5.0,5.0;" x1="62" x2="62" y1="56.4297" y2="2541.7891"/></g><g><title>Scheduler</title><rect fill="transparent" height="2485.3594" width="8" x="182.4424" y="56.4297"/><line style="stroke:#181818;stroke-width:0.5;stroke-dasharray:5.0,5.0;" x1="186.3979" x2="186.3979" y1="56.4297" y2="2541.7891"/></g><g><title>UserActivity 1</title><rect fill="transparent" height="2485.3594" width="8" x="290.4219" y="56.4297"/><line style="stroke:#181818;stroke-width:0.5;stroke-dasharray:5.0,5.0;" x1="293.4868" x2="293.4868" y1="56.4297" y2="2541.7891"/></g><g><title>Secondary Agent 1</title><rect fill="transparent" height="2485.3594" width="8" x="430.0518" y="56.4297"/><line style="stroke:#181818;stroke-width:0.5;stroke-dasharray:5.0,5.0;" x1="433.3569" x2="433.3569" y1="56.4297" y2="2541.7891"/></g><g><title>UserActivity 2</title><rect fill="transparent" height="2485.3594" width="8" x="569.6816" y="56.4297"/><line style="stroke:#181818;stroke-width:0.5;stroke-dasharray:5.0,5.0;" x1="572.7466" x2="572.7466" y1="56.4297" y2="2541.7891"/></g><g><title>UserActivity 3</title><rect fill="transparent" height="2485.3594" width="8" x="691.5518" y="56.4297"/><line style="stroke:#181818;stroke-width:0.5;stroke-dasharray:5.0,5.0;" x1="694.6167" x2="694.6167" y1="56.4297" y2="2541.7891"/></g><g><title>Secondary Agent 2</title><rect fill="transparent" height="2485.3594" width="8" x="831.1816" y="56.4297"/><line style="stroke:#181818;stroke-width:0.5;stroke-dasharray:5.0,5.0;" x1="834.4868" x2="834.4868" y1="56.4297" y2="2541.7891"/></g><g><title>UserActivity 4</title><rect fill="transparent" height="2485.3594" width="8" x="970.8115" y="56.4297"/><line style="stroke:#181818;stroke-width:0.5;stroke-dasharray:5.0,5.0;" x1="973.8765" x2="973.8765" y1="56.4297" y2="2541.7891"/></g><rect fill="#E2E2F0" height="30.2969" rx="2.5" ry="2.5" style="stroke:#181818;stroke-width:0.5;" width="114.2354" x="5" y="25.1328"/><text fill="#000000" font-family="sans-serif" font-size="14" lengthAdjust="spacing" textLength="100.2354" x="12" y="45.1279">Primary Agent</text><rect fill="#E2E2F0" height="30.2969" rx="2.5" ry="2.5" style="stroke:#181818;stroke-width:0.5;" width="114.2354" x="5" y="2540.7891"/><text fill="#000000" font-family="sans-serif" font-size="14" lengthAdjust="spacing" textLength="100.2354" x="12" y="2560.7842">Primary Agent</text><rect fill="#E2E2F0" height="30.2969" rx="2.5" ry="2.5" style="stroke:#181818;stroke-width:0.5;" width="84.0889" x="144.3979" y="25.1328"/><text fill="#000000" font-family="sans-serif" font-size="14" lengthAdjust="spacing" textLength="70.0889" x="151.3979" y="45.1279">Scheduler</text><rect fill="#E2E2F0" height="30.2969" rx="2.5" ry="2.5" style="stroke:#181818;stroke-width:0.5;" width="84.0889" x="144.3979" y="2540.7891"/><text fill="#000000" font-family="sans-serif" font-size="14" lengthAdjust="spacing" textLength="70.0889" x="151.3979" y="2560.7842">Scheduler</text><rect fill="#E2E2F0" height="30.2969" rx="2.5" ry="2.5" style="stroke:#181818;stroke-width:0.5;" width="111.8701" x="238.4868" y="25.1328"/><text fill="#000000" font-family="sans-serif" font-size="14" lengthAdjust="spacing" textLength="97.8701" x="245.4868" y="45.1279">UserActivity 1</text><rect fill="#E2E2F0" height="30.2969" rx="2.5" ry="2.5" style="stroke:#181818;stroke-width:0.5;" width="111.8701" x="238.4868" y="2540.7891"/><text fill="#000000" font-family="sans-serif" font-size="14" lengthAdjust="spacing" textLength="97.8701" x="245.4868" y="2560.7842">UserActivity 1</text><rect fill="#E2E2F0" height="30.2969" rx="2.5" ry="2.5" style="stroke:#181818;stroke-width:0.5;" width="147.3896" x="360.3569" y="25.1328"/><text fill="#000000" font-family="sans-serif" font-size="14" lengthAdjust="spacing" textLength="133.3896" x="367.3569" y="45.1279">Secondary Agent 1</text><rect fill="#E2E2F0" height="30.2969" rx="2.5" ry="2.5" style="stroke:#181818;stroke-width:0.5;" width="147.3896" x="360.3569" y="2540.7891"/><text fill="#000000" font-family="sans-serif" font-size="14" lengthAdjust="spacing" textLength="133.3896" x="367.3569" y="2560.7842">Secondary Agent 1</text><rect fill="#E2E2F0" height="30.2969" rx="2.5" ry="2.5" style="stroke:#181818;stroke-width:0.5;" width="111.8701" x="517.7466" y="25.1328"/><text fill="#000000" font-family="sans-serif" font-size="14" lengthAdjust="spacing" textLength="97.8701" x="524.7466" y="45.1279">UserActivity 2</text><rect fill="#E2E2F0" height="30.2969" rx="2.5" ry="2.5" style="stroke:#181818;stroke-width:0.5;" width="111.8701" x="517.7466" y="2540.7891"/><text fill="#000000" font-family="sans-serif" font-size="14" lengthAdjust="spacing" textLength="97.8701" x="524.7466" y="2560.7842">UserActivity 2</text><rect fill="#E2E2F0" height="30.2969" rx="2.5" ry="2.5" style="stroke:#181818;stroke-width:0.5;" width="111.8701" x="639.6167" y="25.1328"/><text fill="#000000" font-family="sans-serif" font-size="14" lengthAdjust="spacing" textLength="97.8701" x="646.6167" y="45.1279">UserActivity 3</text><rect fill="#E2E2F0" height="30.2969" rx="2.5" ry="2.5" style="stroke:#181818;stroke-width:0.5;" width="111.8701" x="639.6167" y="2540.7891"/><text fill="#000000" font-family="sans-serif" font-size="14" lengthAdjust="spacing" textLength="97.8701" x="646.6167" y="2560.7842">UserActivity 3</text><rect fill="#E2E2F0" height="30.2969" rx="2.5" ry="2.5" style="stroke:#181818;stroke-width:0.5;" width="147.3896" x="761.4868" y="25.1328"/><text fill="#000000" font-family="sans-serif" font-size="14" lengthAdjust="spacing" textLength="133.3896" x="768.4868" y="45.1279">Secondary Agent 2</text><rect fill="#E2E2F0" height="30.2969" rx="2.5" ry="2.5" style="stroke:#181818;stroke-width:0.5;" width="147.3896" x="761.4868" y="2540.7891"/><text fill="#000000" font-family="sans-serif" font-size="14" lengthAdjust="spacing" textLength="133.3896" x="768.4868" y="2560.7842">Secondary Agent 2</text><rect fill="#E2E2F0" height="30.2969" rx="2.5" ry="2.5" style="stroke:#181818;stroke-width:0.5;" width="111.8701" x="918.8765" y="25.1328"/><text fill="#000000" font-family="sans-serif" font-size="14" lengthAdjust="spacing" textLength="97.8701" x="925.8765" y="45.1279">UserActivity 4</text><rect fill="#E2E2F0" height="30.2969" rx="2.5" ry="2.5" style="stroke:#181818;stroke-width:0.5;" width="111.8701" x="918.8765" y="2540.7891"/><text fill="#000000" font-family="sans-serif" font-size="14" lengthAdjust="spacing" textLength="97.8701" x="925.8765" y="2560.7842">UserActivity 4</text><g><title>Scheduler</title><rect fill="#FFFFFF" height="229.9297" style="stroke:#181818;stroke-width:1;" width="10" x="181.4424" y="360.7578"/></g><g><title>Scheduler</title><rect fill="#FFFFFF" height="1825.7031" style="stroke:#181818;stroke-width:1;" width="10" x="181.4424" y="698.0859"/></g><rect fill="#EEEEEE" height="3" style="stroke:#EEEEEE;stroke-width:1;" width="1052.2373" x="0" y="86.9961"/><line style="stroke:#000000;stroke-width:1;" x1="0" x2="1052.2373" y1="86.9961" y2="86.9961"/><line style="stroke:#000000;stroke-width:1;" x1="0" x2="1052.2373" y1="89.9961" y2="89.9961"/><rect fill="#EEEEEE" height="23.1328" style="stroke:#000000;stroke-width:2;" width="135.4561" x="458.3906" y="76.4297"/><text fill="#000000" font-family="sans-serif" font-size="13" font-weight="bold" lengthAdjust="spacing" textLength="116.9302" x="464.3906" y="92.4966">Process Startup</text><line style="stroke:#181818;stroke-width:1;" x1="62.1177" x2="104.1177" y1="145.8281" y2="145.8281"/><line style="stroke:#181818;stroke-width:1;" x1="104.1177" x2="104.1177" y1="145.8281" y2="158.8281"/><line style="stroke:#181818;stroke-width:1;" x1="63.1177" x2="104.1177" y1="158.8281" y2="158.8281"/><polygon fill="#181818" points="73.1177,154.8281,63.1177,158.8281,73.1177,162.8281,69.1177,158.8281" style="stroke:#181818;stroke-width:1;"/><text fill="#000000" font-family="sans-serif" font-size="13" lengthAdjust="spacing" textLength="41.5518" x="69.1177" y="125.6294">create</text><text fill="#000000" font-family="sans-serif" font-size="13" lengthAdjust="spacing" textLength="98.6045" x="69.1177" y="140.7622">worker threads</text><line style="stroke:#181818;stroke-width:1;" x1="434.0518" x2="476.0518" y1="203.0938" y2="203.0938"/><line style="stroke:#181818;stroke-width:1;" x1="476.0518" x2="476.0518" y1="203.0938" y2="216.0938"/><line style="stroke:#181818;stroke-width:1;" x1="435.0518" x2="476.0518" y1="216.0938" y2="216.0938"/><polygon fill="#181818" points="445.0518,212.0938,435.0518,216.0938,445.0518,220.0938,441.0518,216.0938" style="stroke:#181818;stroke-width:1;"/><text fill="#000000" font-family="sans-serif" font-size="13" lengthAdjust="spacing" textLength="41.5518" x="441.0518" y="182.895">create</text><text fill="#000000" font-family="sans-serif" font-size="13" lengthAdjust="spacing" textLength="98.6045" x="441.0518" y="198.0278">worker threads</text><line style="stroke:#181818;stroke-width:1;" x1="835.1816" x2="877.1816" y1="260.3594" y2="260.3594"/><line style="stroke:#181818;stroke-width:1;" x1="877.1816" x2="877.1816" y1="260.3594" y2="273.3594"/><line style="stroke:#181818;stroke-width:1;" x1="836.1816" x2="877.1816" y1="273.3594" y2="273.3594"/><polygon fill="#181818" points="846.1816,269.3594,836.1816,273.3594,846.1816,277.3594,842.1816,273.3594" style="stroke:#181818;stroke-width:1;"/><text fill="#000000" font-family="sans-serif" font-size="13" lengthAdjust="spacing" textLength="41.5518" x="842.1816" y="240.1606">create</text><text fill="#000000" font-family="sans-serif" font-size="13" lengthAdjust="spacing" textLength="98.6045" x="842.1816" y="255.2935">worker threads</text><polygon fill="#181818" points="73.1177,298.4922,63.1177,302.4922,73.1177,306.4922,69.1177,302.4922" style="stroke:#181818;stroke-width:1;"/><line style="stroke:#181818;stroke-width:1;" x1="67.1177" x2="433.0518" y1="302.4922" y2="302.4922"/><text fill="#000000" font-family="sans-serif" font-size="13" lengthAdjust="spacing" textLength="51.8223" x="79.1177" y="297.4263">connect</text><polygon fill="#181818" points="73.1177,327.625,63.1177,331.625,73.1177,335.625,69.1177,331.625" style="stroke:#181818;stroke-width:1;"/><line style="stroke:#181818;stroke-width:1;" x1="67.1177" x2="834.1816" y1="331.625" y2="331.625"/><text fill="#000000" font-family="sans-serif" font-size="13" lengthAdjust="spacing" textLength="51.8223" x="79.1177" y="326.5591">connect</text><polygon fill="#181818" points="169.4424,356.7578,179.4424,360.7578,169.4424,364.7578,173.4424,360.7578" style="stroke:#181818;stroke-width:1;"/><line style="stroke:#181818;stroke-width:1;" x1="62.1177" x2="175.4424" y1="360.7578" y2="360.7578"/><text fill="#000000" font-family="sans-serif" font-size="13" lengthAdjust="spacing" textLength="100.3247" x="69.1177" y="355.6919">sync_remotes()</text><polygon fill="#181818" points="422.0518,385.8906,432.0518,389.8906,422.0518,393.8906,426.0518,389.8906" style="stroke:#181818;stroke-width:1;"/><line style="stroke:#181818;stroke-width:1;" x1="191.4424" x2="428.0518" y1="389.8906" y2="389.8906"/><text fill="#000000" font-family="sans-serif" font-size="13" lengthAdjust="spacing" textLength="29.853" x="198.4424" y="384.8247">sync</text><polygon fill="#181818" points="823.1816,415.0234,833.1816,419.0234,823.1816,423.0234,827.1816,419.0234" style="stroke:#181818;stroke-width:1;"/><line style="stroke:#181818;stroke-width:1;" x1="191.4424" x2="829.1816" y1="419.0234" y2="419.0234"/><text fill="#000000" font-family="sans-serif" font-size="13" lengthAdjust="spacing" textLength="29.853" x="198.4424" y="413.9575">sync</text><line style="stroke:#181818;stroke-width:1;" x1="434.0518" x2="476.0518" y1="448.1563" y2="448.1563"/><line style="stroke:#181818;stroke-width:1;" x1="476.0518" x2="476.0518" y1="448.1563" y2="461.1563"/><line style="stroke:#181818;stroke-width:1;" x1="435.0518" x2="476.0518" y1="461.1563" y2="461.1563"/><polygon fill="#181818" points="445.0518,457.1563,435.0518,461.1563,445.0518,465.1563,441.0518,461.1563" style="stroke:#181818;stroke-width:1;"/><text fill="#000000" font-family="sans-serif" font-size="13" lengthAdjust="spacing" textLength="29.853" x="441.0518" y="443.0903">sync</text><line style="stroke:#181818;stroke-width:1;" x1="835.1816" x2="877.1816" y1="490.2891" y2="490.2891"/><line style="stroke:#181818;stroke-width:1;" x1="877.1816" x2="877.1816" y1="490.2891" y2="503.2891"/><line style="stroke:#181818;stroke-width:1;" x1="836.1816" x2="877.1816" y1="503.2891" y2="503.2891"/><polygon fill="#181818" points="846.1816,499.2891,836.1816,503.2891,846.1816,507.2891,842.1816,503.2891" style="stroke:#181818;stroke-width:1;"/><text fill="#000000" font-family="sans-serif" font-size="13" lengthAdjust="spacing" textLength="29.853" x="842.1816" y="485.2231">sync</text><polygon fill="#181818" points="202.4424,528.4219,192.4424,532.4219,202.4424,536.4219,198.4424,532.4219" style="stroke:#181818;stroke-width:1;"/><line style="stroke:#181818;stroke-width:1;stroke-dasharray:2.0,2.0;" x1="196.4424" x2="433.0518" y1="532.4219" y2="532.4219"/><text fill="#000000" font-family="sans-serif" font-size="13" lengthAdjust="spacing" textLength="37.2544" x="208.4424" y="527.356">ready</text><polygon fill="#181818" points="202.4424,557.5547,192.4424,561.5547,202.4424,565.5547,198.4424,561.5547" style="stroke:#181818;stroke-width:1;"/><line style="stroke:#181818;stroke-width:1;stroke-dasharray:2.0,2.0;" x1="196.4424" x2="834.1816" y1="561.5547" y2="561.5547"/><text fill="#000000" font-family="sans-serif" font-size="13" lengthAdjust="spacing" textLength="37.2544" x="208.4424" y="556.4888">ready</text><polygon fill="#181818" points="73.1177,586.6875,63.1177,590.6875,73.1177,594.6875,69.1177,590.6875" style="stroke:#181818;stroke-width:1;"/><line style="stroke:#181818;stroke-width:1;stroke-dasharray:2.0,2.0;" x1="67.1177" x2="185.4424" y1="590.6875" y2="590.6875"/><text fill="#000000" font-family="sans-serif" font-size="13" lengthAdjust="spacing" textLength="15.4819" x="79.1177" y="585.6216">ok</text><rect fill="#EEEEEE" height="3" style="stroke:#EEEEEE;stroke-width:1;" width="1052.2373" x="0" y="619.2539"/><line style="stroke:#000000;stroke-width:1;" x1="0" x2="1052.2373" y1="619.2539" y2="619.2539"/><line style="stroke:#000000;stroke-width:1;" x1="0" x2="1052.2373" y1="622.2539" y2="622.2539"/><rect fill="#EEEEEE" height="23.1328" style="stroke:#000000;stroke-width:2;" width="103.8701" x="474.1836" y="608.6875"/><text fill="#000000" font-family="sans-serif" font-size="13" font-weight="bold" lengthAdjust="spacing" textLength="85.3442" x="480.1836" y="624.7544">Activity Init</text><path d="M139,646.8203 L139,671.8203 L1020,671.8203 L1020,656.8203 L1010,646.8203 L139,646.8203 " fill="#FEFFDD" style="stroke:#181818;stroke-width:0.5;"/><path d="M1010,646.8203 L1010,656.8203 L1020,656.8203 L1010,646.8203 " fill="#FEFFDD" style="stroke:#181818;stroke-width:0.5;"/><text fill="#000000" font-family="sans-serif" font-size="13" lengthAdjust="spacing" textLength="438.3628" x="355.9929" y="663.8872">Call each activity's init() method exactly once in an arbitrary order.</text><polygon fill="#181818" points="169.4424,694.0859,179.4424,698.0859,169.4424,702.0859,173.4424,698.0859" style="stroke:#181818;stroke-width:1;"/><line style="stroke:#181818;stroke-width:1;" x1="62.1177" x2="175.4424" y1="698.0859" y2="698.0859"/><text fill="#000000" font-family="sans-serif" font-size="13" lengthAdjust="spacing" textLength="31.9668" x="69.1177" y="693.02">run()</text><polygon fill="#181818" points="282.4219,723.2188,292.4219,727.2188,282.4219,731.2188,286.4219,727.2188" style="stroke:#181818;stroke-width:1;"/><line style="stroke:#181818;stroke-width:1;" x1="191.4424" x2="288.4219" y1="727.2188" y2="727.2188"/><text fill="#000000" font-family="sans-serif" font-size="13" lengthAdjust="spacing" textLength="30.7036" x="198.4424" y="722.1528">init()</text><line style="stroke:#181818;stroke-width:1;" x1="294.4219" x2="336.4219" y1="756.3516" y2="756.3516"/><line style="stroke:#181818;stroke-width:1;" x1="336.4219" x2="336.4219" y1="756.3516" y2="769.3516"/><line style="stroke:#181818;stroke-width:1;" x1="295.4219" x2="336.4219" y1="769.3516" y2="769.3516"/><polygon fill="#181818" points="305.4219,765.3516,295.4219,769.3516,305.4219,773.3516,301.4219,769.3516" style="stroke:#181818;stroke-width:1;"/><text fill="#000000" font-family="sans-serif" font-size="13" lengthAdjust="spacing" textLength="20.5601" x="301.4219" y="751.2856">init</text><polygon fill="#181818" points="202.4424,794.4844,192.4424,798.4844,202.4424,802.4844,198.4424,798.4844" style="stroke:#181818;stroke-width:1;"/><line style="stroke:#181818;stroke-width:1;stroke-dasharray:2.0,2.0;" x1="196.4424" x2="293.4219" y1="798.4844" y2="798.4844"/><text fill="#000000" font-family="sans-serif" font-size="13" lengthAdjust="spacing" textLength="37.2544" x="208.4424" y="793.4185">ready</text><polygon fill="#181818" points="422.0518,823.6172,432.0518,827.6172,422.0518,831.6172,426.0518,827.6172" style="stroke:#181818;stroke-width:1;"/><line style="stroke:#181818;stroke-width:1;" x1="191.4424" x2="428.0518" y1="827.6172" y2="827.6172"/><text fill="#000000" font-family="sans-serif" font-size="13" lengthAdjust="spacing" textLength="46.9409" x="198.4424" y="822.5513">init(a2)</text><polygon fill="#181818" points="561.6816,852.75,571.6816,856.75,561.6816,860.75,565.6816,856.75" style="stroke:#181818;stroke-width:1;"/><line style="stroke:#181818;stroke-width:1;" x1="434.0518" x2="567.6816" y1="856.75" y2="856.75"/><text fill="#000000" font-family="sans-serif" font-size="13" lengthAdjust="spacing" textLength="30.7036" x="441.0518" y="851.6841">init()</text><line style="stroke:#181818;stroke-width:1;" x1="573.6816" x2="615.6816" y1="885.8828" y2="885.8828"/><line style="stroke:#181818;stroke-width:1;" x1="615.6816" x2="615.6816" y1="885.8828" y2="898.8828"/><line style="stroke:#181818;stroke-width:1;" x1="574.6816" x2="615.6816" y1="898.8828" y2="898.8828"/><polygon fill="#181818" points="584.6816,894.8828,574.6816,898.8828,584.6816,902.8828,580.6816,898.8828" style="stroke:#181818;stroke-width:1;"/><text fill="#000000" font-family="sans-serif" font-size="13" lengthAdjust="spacing" textLength="20.5601" x="580.6816" y="880.8169">init</text><polygon fill="#181818" points="445.0518,924.0156,435.0518,928.0156,445.0518,932.0156,441.0518,928.0156" style="stroke:#181818;stroke-width:1;"/><line style="stroke:#181818;stroke-width:1;stroke-dasharray:2.0,2.0;" x1="439.0518" x2="572.6816" y1="928.0156" y2="928.0156"/><text fill="#000000" font-family="sans-serif" font-size="13" lengthAdjust="spacing" textLength="37.2544" x="451.0518" y="922.9497">ready</text><polygon fill="#181818" points="202.4424,953.1484,192.4424,957.1484,202.4424,961.1484,198.4424,957.1484" style="stroke:#181818;stroke-width:1;"/><line style="stroke:#181818;stroke-width:1;stroke-dasharray:2.0,2.0;" x1="196.4424" x2="433.0518" y1="957.1484" y2="957.1484"/><text fill="#000000" font-family="sans-serif" font-size="13" lengthAdjust="spacing" textLength="63.6353" x="208.4424" y="952.0825">ready(a2)</text><polygon fill="#181818" points="422.0518,982.2813,432.0518,986.2813,422.0518,990.2813,426.0518,986.2813" style="stroke:#181818;stroke-width:1;"/><line style="stroke:#181818;stroke-width:1;" x1="191.4424" x2="428.0518" y1="986.2813" y2="986.2813"/><text fill="#000000" font-family="sans-serif" font-size="13" lengthAdjust="spacing" textLength="46.9409" x="198.4424" y="981.2153">init(a3)</text><polygon fill="#181818" points="683.5518,1011.4141,693.5518,1015.4141,683.5518,1019.4141,687.5518,1015.4141" style="stroke:#181818;stroke-width:1;"/><line style="stroke:#181818;stroke-width:1;" x1="434.0518" x2="689.5518" y1="1015.4141" y2="1015.4141"/><text fill="#000000" font-family="sans-serif" font-size="13" lengthAdjust="spacing" textLength="30.7036" x="441.0518" y="1010.3481">init()</text><line style="stroke:#181818;stroke-width:1;" x1="695.5518" x2="737.5518" y1="1044.5469" y2="1044.5469"/><line style="stroke:#181818;stroke-width:1;" x1="737.5518" x2="737.5518" y1="1044.5469" y2="1057.5469"/><line style="stroke:#181818;stroke-width:1;" x1="696.5518" x2="737.5518" y1="1057.5469" y2="1057.5469"/><polygon fill="#181818" points="706.5518,1053.5469,696.5518,1057.5469,706.5518,1061.5469,702.5518,1057.5469" style="stroke:#181818;stroke-width:1;"/><text fill="#000000" font-family="sans-serif" font-size="13" lengthAdjust="spacing" textLength="20.5601" x="702.5518" y="1039.481">init</text><polygon fill="#181818" points="445.0518,1082.6797,435.0518,1086.6797,445.0518,1090.6797,441.0518,1086.6797" style="stroke:#181818;stroke-width:1;"/><line style="stroke:#181818;stroke-width:1;stroke-dasharray:2.0,2.0;" x1="439.0518" x2="694.5518" y1="1086.6797" y2="1086.6797"/><text fill="#000000" font-family="sans-serif" font-size="13" lengthAdjust="spacing" textLength="37.2544" x="451.0518" y="1081.6138">ready</text><polygon fill="#181818" points="202.4424,1111.8125,192.4424,1115.8125,202.4424,1119.8125,198.4424,1115.8125" style="stroke:#181818;stroke-width:1;"/><line style="stroke:#181818;stroke-width:1;stroke-dasharray:2.0,2.0;" x1="196.4424" x2="433.0518" y1="1115.8125" y2="1115.8125"/><text fill="#000000" font-family="sans-serif" font-size="13" lengthAdjust="spacing" textLength="63.6353" x="208.4424" y="1110.7466">ready(a3)</text><polygon fill="#181818" points="823.1816,1140.9453,833.1816,1144.9453,823.1816,1148.9453,827.1816,1144.9453" style="stroke:#181818;stroke-width:1;"/><line style="stroke:#181818;stroke-width:1;" x1="191.4424" x2="829.1816" y1="1144.9453" y2="1144.9453"/><text fill="#000000" font-family="sans-serif" font-size="13" lengthAdjust="spacing" textLength="46.9409" x="198.4424" y="1139.8794">init(a4)</text><polygon fill="#181818" points="962.8115,1170.0781,972.8115,1174.0781,962.8115,1178.0781,966.8115,1174.0781" style="stroke:#181818;stroke-width:1;"/><line style="stroke:#181818;stroke-width:1;" x1="835.1816" x2="968.8115" y1="1174.0781" y2="1174.0781"/><text fill="#000000" font-family="sans-serif" font-size="13" lengthAdjust="spacing" textLength="30.7036" x="842.1816" y="1169.0122">init()</text><line style="stroke:#181818;stroke-width:1;" x1="974.8115" x2="1016.8115" y1="1203.2109" y2="1203.2109"/><line style="stroke:#181818;stroke-width:1;" x1="1016.8115" x2="1016.8115" y1="1203.2109" y2="1216.2109"/><line style="stroke:#181818;stroke-width:1;" x1="975.8115" x2="1016.8115" y1="1216.2109" y2="1216.2109"/><polygon fill="#181818" points="985.8115,1212.2109,975.8115,1216.2109,985.8115,1220.2109,981.8115,1216.2109" style="stroke:#181818;stroke-width:1;"/><text fill="#000000" font-family="sans-serif" font-size="13" lengthAdjust="spacing" textLength="20.5601" x="981.8115" y="1198.145">init</text><polygon fill="#181818" points="846.1816,1241.3438,836.1816,1245.3438,846.1816,1249.3438,842.1816,1245.3438" style="stroke:#181818;stroke-width:1;"/><line style="stroke:#181818;stroke-width:1;stroke-dasharray:2.0,2.0;" x1="840.1816" x2="973.8115" y1="1245.3438" y2="1245.3438"/><text fill="#000000" font-family="sans-serif" font-size="13" lengthAdjust="spacing" textLength="37.2544" x="852.1816" y="1240.2778">ready</text><polygon fill="#181818" points="202.4424,1270.4766,192.4424,1274.4766,202.4424,1278.4766,198.4424,1274.4766" style="stroke:#181818;stroke-width:1;"/><line style="stroke:#181818;stroke-width:1;stroke-dasharray:2.0,2.0;" x1="196.4424" x2="834.1816" y1="1274.4766" y2="1274.4766"/><text fill="#000000" font-family="sans-serif" font-size="13" lengthAdjust="spacing" textLength="63.6353" x="208.4424" y="1269.4106">ready(a4)</text><rect fill="#EEEEEE" height="3" style="stroke:#EEEEEE;stroke-width:1;" width="1052.2373" x="0" y="1303.043"/><line style="stroke:#000000;stroke-width:1;" x1="0" x2="1052.2373" y1="1303.043" y2="1303.043"/><line style="stroke:#000000;stroke-width:1;" x1="0" x2="1052.2373" y1="1306.043" y2="1306.043"/><rect fill="#EEEEEE" height="23.1328" style="stroke:#000000;stroke-width:2;" width="93.9233" x="479.157" y="1292.4766"/><text fill="#000000" font-family="sans-serif" font-size="13" font-weight="bold" lengthAdjust="spacing" textLength="75.3975" x="485.157" y="1308.5435">Main Loop</text><path d="M116,1332.6094 L192.624,1332.6094 L192.624,1339.7422 L182.624,1349.7422 L116,1349.7422 L116,1332.6094 " fill="#EEEEEE" style="stroke:#000000;stroke-width:1.5;"/><rect fill="transparent" height="508.3906" style="stroke:#000000;stroke-width:1.5;" width="924.7466" x="116" y="1332.6094"/><text fill="#000000" font-family="sans-serif" font-size="13" font-weight="bold" lengthAdjust="spacing" textLength="31.624" x="131" y="1345.6763">loop</text><text fill="#000000" font-family="sans-serif" font-size="11" font-weight="bold" lengthAdjust="spacing" textLength="303.8535" x="207.624" y="1344.8198">[break on termination signal to Primary Process]</text><path d="M139,1354.7422 L139,1379.7422 L1020,1379.7422 L1020,1364.7422 L1010,1354.7422 L139,1354.7422 " fill="#FEFFDD" style="stroke:#181818;stroke-width:0.5;"/><path d="M1010,1354.7422 L1010,1364.7422 L1020,1364.7422 L1010,1354.7422 " fill="#FEFFDD" style="stroke:#181818;stroke-width:0.5;"/><text fill="#000000" font-family="sans-serif" font-size="13" lengthAdjust="spacing" textLength="496.3296" x="327.0095" y="1371.8091">Call each activity's step() method in the order defined by the activity graph.</text><polygon fill="#181818" points="422.0518,1402.0078,432.0518,1406.0078,422.0518,1410.0078,426.0518,1406.0078" style="stroke:#181818;stroke-width:1;"/><line style="stroke:#181818;stroke-width:1;" x1="191.4424" x2="428.0518" y1="1406.0078" y2="1406.0078"/><text fill="#000000" font-family="sans-serif" font-size="13" lengthAdjust="spacing" textLength="54.501" x="198.4424" y="1400.9419">step(a3)</text><polygon fill="#181818" points="683.5518,1431.1406,693.5518,1435.1406,683.5518,1439.1406,687.5518,1435.1406" style="stroke:#181818;stroke-width:1;"/><line style="stroke:#181818;stroke-width:1;" x1="434.0518" x2="689.5518" y1="1435.1406" y2="1435.1406"/><text fill="#000000" font-family="sans-serif" font-size="13" lengthAdjust="spacing" textLength="38.2637" x="441.0518" y="1430.0747">step()</text><polygon fill="#181818" points="445.0518,1460.2734,435.0518,1464.2734,445.0518,1468.2734,441.0518,1464.2734" style="stroke:#181818;stroke-width:1;"/><line style="stroke:#181818;stroke-width:1;stroke-dasharray:2.0,2.0;" x1="439.0518" x2="694.5518" y1="1464.2734" y2="1464.2734"/><text fill="#000000" font-family="sans-serif" font-size="13" lengthAdjust="spacing" textLength="37.2544" x="451.0518" y="1459.2075">ready</text><polygon fill="#181818" points="202.4424,1489.4063,192.4424,1493.4063,202.4424,1497.4063,198.4424,1493.4063" style="stroke:#181818;stroke-width:1;"/><line style="stroke:#181818;stroke-width:1;stroke-dasharray:2.0,2.0;" x1="196.4424" x2="433.0518" y1="1493.4063" y2="1493.4063"/><text fill="#000000" font-family="sans-serif" font-size="13" lengthAdjust="spacing" textLength="63.6353" x="208.4424" y="1488.3403">ready(a3)</text><polygon fill="#181818" points="823.1816,1518.5391,833.1816,1522.5391,823.1816,1526.5391,827.1816,1522.5391" style="stroke:#181818;stroke-width:1;"/><line style="stroke:#181818;stroke-width:1;" x1="191.4424" x2="829.1816" y1="1522.5391" y2="1522.5391"/><text fill="#000000" font-family="sans-serif" font-size="13" lengthAdjust="spacing" textLength="54.501" x="198.4424" y="1517.4731">step(a4)</text><polygon fill="#181818" points="962.8115,1547.6719,972.8115,1551.6719,962.8115,1555.6719,966.8115,1551.6719" style="stroke:#181818;stroke-width:1;"/><line style="stroke:#181818;stroke-width:1;" x1="835.1816" x2="968.8115" y1="1551.6719" y2="1551.6719"/><text fill="#000000" font-family="sans-serif" font-size="13" lengthAdjust="spacing" textLength="38.2637" x="842.1816" y="1546.606">step()</text><polygon fill="#181818" points="282.4219,1576.8047,292.4219,1580.8047,282.4219,1584.8047,286.4219,1580.8047" style="stroke:#181818;stroke-width:1;"/><line style="stroke:#181818;stroke-width:1;" x1="191.4424" x2="288.4219" y1="1580.8047" y2="1580.8047"/><text fill="#000000" font-family="sans-serif" font-size="13" lengthAdjust="spacing" textLength="38.2637" x="198.4424" y="1575.7388">step()</text><polygon fill="#181818" points="202.4424,1605.9375,192.4424,1609.9375,202.4424,1613.9375,198.4424,1609.9375" style="stroke:#181818;stroke-width:1;"/><line style="stroke:#181818;stroke-width:1;stroke-dasharray:2.0,2.0;" x1="196.4424" x2="293.4219" y1="1609.9375" y2="1609.9375"/><text fill="#000000" font-family="sans-serif" font-size="13" lengthAdjust="spacing" textLength="37.2544" x="208.4424" y="1604.8716">ready</text><polygon fill="#181818" points="846.1816,1635.0703,836.1816,1639.0703,846.1816,1643.0703,842.1816,1639.0703" style="stroke:#181818;stroke-width:1;"/><line style="stroke:#181818;stroke-width:1;stroke-dasharray:2.0,2.0;" x1="840.1816" x2="973.8115" y1="1639.0703" y2="1639.0703"/><text fill="#000000" font-family="sans-serif" font-size="13" lengthAdjust="spacing" textLength="37.2544" x="852.1816" y="1634.0044">ready</text><polygon fill="#181818" points="202.4424,1664.2031,192.4424,1668.2031,202.4424,1672.2031,198.4424,1668.2031" style="stroke:#181818;stroke-width:1;"/><line style="stroke:#181818;stroke-width:1;stroke-dasharray:2.0,2.0;" x1="196.4424" x2="834.1816" y1="1668.2031" y2="1668.2031"/><text fill="#000000" font-family="sans-serif" font-size="13" lengthAdjust="spacing" textLength="63.6353" x="208.4424" y="1663.1372">ready(a4)</text><polygon fill="#181818" points="422.0518,1693.3359,432.0518,1697.3359,422.0518,1701.3359,426.0518,1697.3359" style="stroke:#181818;stroke-width:1;"/><line style="stroke:#181818;stroke-width:1;" x1="191.4424" x2="428.0518" y1="1697.3359" y2="1697.3359"/><text fill="#000000" font-family="sans-serif" font-size="13" lengthAdjust="spacing" textLength="54.501" x="198.4424" y="1692.27">step(a2)</text><polygon fill="#181818" points="561.6816,1722.4688,571.6816,1726.4688,561.6816,1730.4688,565.6816,1726.4688" style="stroke:#181818;stroke-width:1;"/><line style="stroke:#181818;stroke-width:1;" x1="434.0518" x2="567.6816" y1="1726.4688" y2="1726.4688"/><text fill="#000000" font-family="sans-serif" font-size="13" lengthAdjust="spacing" textLength="38.2637" x="441.0518" y="1721.4028">step()</text><polygon fill="#181818" points="445.0518,1751.6016,435.0518,1755.6016,445.0518,1759.6016,441.0518,1755.6016" style="stroke:#181818;stroke-width:1;"/><line style="stroke:#181818;stroke-width:1;stroke-dasharray:2.0,2.0;" x1="439.0518" x2="572.6816" y1="1755.6016" y2="1755.6016"/><text fill="#000000" font-family="sans-serif" font-size="13" lengthAdjust="spacing" textLength="37.2544" x="451.0518" y="1750.5356">ready</text><polygon fill="#181818" points="202.4424,1780.7344,192.4424,1784.7344,202.4424,1788.7344,198.4424,1784.7344" style="stroke:#181818;stroke-width:1;"/><line style="stroke:#181818;stroke-width:1;stroke-dasharray:2.0,2.0;" x1="196.4424" x2="433.0518" y1="1784.7344" y2="1784.7344"/><text fill="#000000" font-family="sans-serif" font-size="13" lengthAdjust="spacing" textLength="63.6353" x="208.4424" y="1779.6685">ready(a2)</text><polygon fill="#FEFFDD" points="136,1797.7344,236,1797.7344,246,1816.7344,236,1835.7344,136,1835.7344,126,1816.7344,136,1797.7344" style="stroke:#181818;stroke-width:0.5;"/><text fill="#000000" font-family="sans-serif" font-size="13" lengthAdjust="spacing" textLength="96.186" x="138" y="1813.8013">sleep until end</text><text fill="#000000" font-family="sans-serif" font-size="13" lengthAdjust="spacing" textLength="83.7637" x="138" y="1828.9341">of cycle time</text><rect fill="#EEEEEE" height="3" style="stroke:#EEEEEE;stroke-width:1;" width="1052.2373" x="0" y="1868.5664"/><line style="stroke:#000000;stroke-width:1;" x1="0" x2="1052.2373" y1="1868.5664" y2="1868.5664"/><line style="stroke:#000000;stroke-width:1;" x1="0" x2="1052.2373" y1="1871.5664" y2="1871.5664"/><rect fill="#EEEEEE" height="23.1328" style="stroke:#000000;stroke-width:2;" width="152.6963" x="449.7705" y="1858"/><text fill="#000000" font-family="sans-serif" font-size="13" font-weight="bold" lengthAdjust="spacing" textLength="134.1704" x="455.7705" y="1874.0669">Activity Shutdown</text><path d="M139,1896.1328 L139,1921.1328 L1020,1921.1328 L1020,1906.1328 L1010,1896.1328 L139,1896.1328 " fill="#FEFFDD" style="stroke:#181818;stroke-width:0.5;"/><path d="M1010,1896.1328 L1010,1906.1328 L1020,1906.1328 L1010,1896.1328 " fill="#FEFFDD" style="stroke:#181818;stroke-width:0.5;"/><text fill="#000000" font-family="sans-serif" font-size="13" lengthAdjust="spacing" textLength="481.2285" x="334.5601" y="1913.1997">Call each activity's shutdown() method exactly once in an arbitrary order.</text><polygon fill="#181818" points="282.4219,1943.3984,292.4219,1947.3984,282.4219,1951.3984,286.4219,1947.3984" style="stroke:#181818;stroke-width:1;"/><line style="stroke:#181818;stroke-width:1;" x1="191.4424" x2="288.4219" y1="1947.3984" y2="1947.3984"/><text fill="#000000" font-family="sans-serif" font-size="13" lengthAdjust="spacing" textLength="73.5693" x="198.4424" y="1942.3325">shutdown()</text><line style="stroke:#181818;stroke-width:1;" x1="294.4219" x2="336.4219" y1="1976.5313" y2="1976.5313"/><line style="stroke:#181818;stroke-width:1;" x1="336.4219" x2="336.4219" y1="1976.5313" y2="1989.5313"/><line style="stroke:#181818;stroke-width:1;" x1="295.4219" x2="336.4219" y1="1989.5313" y2="1989.5313"/><polygon fill="#181818" points="305.4219,1985.5313,295.4219,1989.5313,305.4219,1993.5313,301.4219,1989.5313" style="stroke:#181818;stroke-width:1;"/><text fill="#000000" font-family="sans-serif" font-size="13" lengthAdjust="spacing" textLength="63.4258" x="301.4219" y="1971.4653">shutdown</text><polygon fill="#181818" points="202.4424,2014.6641,192.4424,2018.6641,202.4424,2022.6641,198.4424,2018.6641" style="stroke:#181818;stroke-width:1;"/><line style="stroke:#181818;stroke-width:1;stroke-dasharray:2.0,2.0;" x1="196.4424" x2="293.4219" y1="2018.6641" y2="2018.6641"/><text fill="#000000" font-family="sans-serif" font-size="13" lengthAdjust="spacing" textLength="37.2544" x="208.4424" y="2013.5981">ready</text><polygon fill="#181818" points="422.0518,2043.7969,432.0518,2047.7969,422.0518,2051.7969,426.0518,2047.7969" style="stroke:#181818;stroke-width:1;"/><line style="stroke:#181818;stroke-width:1;" x1="191.4424" x2="428.0518" y1="2047.7969" y2="2047.7969"/><text fill="#000000" font-family="sans-serif" font-size="13" lengthAdjust="spacing" textLength="89.8066" x="198.4424" y="2042.731">shutdown(a2)</text><polygon fill="#181818" points="561.6816,2072.9297,571.6816,2076.9297,561.6816,2080.9297,565.6816,2076.9297" style="stroke:#181818;stroke-width:1;"/><line style="stroke:#181818;stroke-width:1;" x1="434.0518" x2="567.6816" y1="2076.9297" y2="2076.9297"/><text fill="#000000" font-family="sans-serif" font-size="13" lengthAdjust="spacing" textLength="73.5693" x="441.0518" y="2071.8638">shutdown()</text><line style="stroke:#181818;stroke-width:1;" x1="573.6816" x2="615.6816" y1="2106.0625" y2="2106.0625"/><line style="stroke:#181818;stroke-width:1;" x1="615.6816" x2="615.6816" y1="2106.0625" y2="2119.0625"/><line style="stroke:#181818;stroke-width:1;" x1="574.6816" x2="615.6816" y1="2119.0625" y2="2119.0625"/><polygon fill="#181818" points="584.6816,2115.0625,574.6816,2119.0625,584.6816,2123.0625,580.6816,2119.0625" style="stroke:#181818;stroke-width:1;"/><text fill="#000000" font-family="sans-serif" font-size="13" lengthAdjust="spacing" textLength="63.4258" x="580.6816" y="2100.9966">shutdown</text><polygon fill="#181818" points="445.0518,2144.1953,435.0518,2148.1953,445.0518,2152.1953,441.0518,2148.1953" style="stroke:#181818;stroke-width:1;"/><line style="stroke:#181818;stroke-width:1;stroke-dasharray:2.0,2.0;" x1="439.0518" x2="572.6816" y1="2148.1953" y2="2148.1953"/><text fill="#000000" font-family="sans-serif" font-size="13" lengthAdjust="spacing" textLength="37.2544" x="451.0518" y="2143.1294">ready</text><polygon fill="#181818" points="202.4424,2173.3281,192.4424,2177.3281,202.4424,2181.3281,198.4424,2177.3281" style="stroke:#181818;stroke-width:1;"/><line style="stroke:#181818;stroke-width:1;stroke-dasharray:2.0,2.0;" x1="196.4424" x2="433.0518" y1="2177.3281" y2="2177.3281"/><text fill="#000000" font-family="sans-serif" font-size="13" lengthAdjust="spacing" textLength="63.6353" x="208.4424" y="2172.2622">ready(a2)</text><polygon fill="#181818" points="422.0518,2202.4609,432.0518,2206.4609,422.0518,2210.4609,426.0518,2206.4609" style="stroke:#181818;stroke-width:1;"/><line style="stroke:#181818;stroke-width:1;" x1="191.4424" x2="428.0518" y1="2206.4609" y2="2206.4609"/><text fill="#000000" font-family="sans-serif" font-size="13" lengthAdjust="spacing" textLength="89.8066" x="198.4424" y="2201.395">shutdown(a3)</text><polygon fill="#181818" points="683.5518,2231.5938,693.5518,2235.5938,683.5518,2239.5938,687.5518,2235.5938" style="stroke:#181818;stroke-width:1;"/><line style="stroke:#181818;stroke-width:1;" x1="434.0518" x2="689.5518" y1="2235.5938" y2="2235.5938"/><text fill="#000000" font-family="sans-serif" font-size="13" lengthAdjust="spacing" textLength="73.5693" x="441.0518" y="2230.5278">shutdown()</text><line style="stroke:#181818;stroke-width:1;" x1="695.5518" x2="737.5518" y1="2264.7266" y2="2264.7266"/><line style="stroke:#181818;stroke-width:1;" x1="737.5518" x2="737.5518" y1="2264.7266" y2="2277.7266"/><line style="stroke:#181818;stroke-width:1;" x1="696.5518" x2="737.5518" y1="2277.7266" y2="2277.7266"/><polygon fill="#181818" points="706.5518,2273.7266,696.5518,2277.7266,706.5518,2281.7266,702.5518,2277.7266" style="stroke:#181818;stroke-width:1;"/><text fill="#000000" font-family="sans-serif" font-size="13" lengthAdjust="spacing" textLength="63.4258" x="702.5518" y="2259.6606">shutdown</text><polygon fill="#181818" points="445.0518,2302.8594,435.0518,2306.8594,445.0518,2310.8594,441.0518,2306.8594" style="stroke:#181818;stroke-width:1;"/><line style="stroke:#181818;stroke-width:1;stroke-dasharray:2.0,2.0;" x1="439.0518" x2="694.5518" y1="2306.8594" y2="2306.8594"/><text fill="#000000" font-family="sans-serif" font-size="13" lengthAdjust="spacing" textLength="37.2544" x="451.0518" y="2301.7935">ready</text><polygon fill="#181818" points="202.4424,2331.9922,192.4424,2335.9922,202.4424,2339.9922,198.4424,2335.9922" style="stroke:#181818;stroke-width:1;"/><line style="stroke:#181818;stroke-width:1;stroke-dasharray:2.0,2.0;" x1="196.4424" x2="433.0518" y1="2335.9922" y2="2335.9922"/><text fill="#000000" font-family="sans-serif" font-size="13" lengthAdjust="spacing" textLength="63.6353" x="208.4424" y="2330.9263">ready(a3)</text><polygon fill="#181818" points="823.1816,2361.125,833.1816,2365.125,823.1816,2369.125,827.1816,2365.125" style="stroke:#181818;stroke-width:1;"/><line style="stroke:#181818;stroke-width:1;" x1="191.4424" x2="829.1816" y1="2365.125" y2="2365.125"/><text fill="#000000" font-family="sans-serif" font-size="13" lengthAdjust="spacing" textLength="89.8066" x="198.4424" y="2360.0591">shutdown(a4)</text><polygon fill="#181818" points="962.8115,2390.2578,972.8115,2394.2578,962.8115,2398.2578,966.8115,2394.2578" style="stroke:#181818;stroke-width:1;"/><line style="stroke:#181818;stroke-width:1;" x1="835.1816" x2="968.8115" y1="2394.2578" y2="2394.2578"/><text fill="#000000" font-family="sans-serif" font-size="13" lengthAdjust="spacing" textLength="73.5693" x="842.1816" y="2389.1919">shutdown()</text><line style="stroke:#181818;stroke-width:1;" x1="974.8115" x2="1016.8115" y1="2423.3906" y2="2423.3906"/><line style="stroke:#181818;stroke-width:1;" x1="1016.8115" x2="1016.8115" y1="2423.3906" y2="2436.3906"/><line style="stroke:#181818;stroke-width:1;" x1="975.8115" x2="1016.8115" y1="2436.3906" y2="2436.3906"/><polygon fill="#181818" points="985.8115,2432.3906,975.8115,2436.3906,985.8115,2440.3906,981.8115,2436.3906" style="stroke:#181818;stroke-width:1;"/><text fill="#000000" font-family="sans-serif" font-size="13" lengthAdjust="spacing" textLength="63.4258" x="981.8115" y="2418.3247">shutdown</text><polygon fill="#181818" points="846.1816,2461.5234,836.1816,2465.5234,846.1816,2469.5234,842.1816,2465.5234" style="stroke:#181818;stroke-width:1;"/><line style="stroke:#181818;stroke-width:1;stroke-dasharray:2.0,2.0;" x1="840.1816" x2="973.8115" y1="2465.5234" y2="2465.5234"/><text fill="#000000" font-family="sans-serif" font-size="13" lengthAdjust="spacing" textLength="37.2544" x="852.1816" y="2460.4575">ready</text><polygon fill="#181818" points="202.4424,2490.6563,192.4424,2494.6563,202.4424,2498.6563,198.4424,2494.6563" style="stroke:#181818;stroke-width:1;"/><line style="stroke:#181818;stroke-width:1;stroke-dasharray:2.0,2.0;" x1="196.4424" x2="834.1816" y1="2494.6563" y2="2494.6563"/><text fill="#000000" font-family="sans-serif" font-size="13" lengthAdjust="spacing" textLength="63.6353" x="208.4424" y="2489.5903">ready(a4)</text><polygon fill="#181818" points="73.1177,2519.7891,63.1177,2523.7891,73.1177,2527.7891,69.1177,2523.7891" style="stroke:#181818;stroke-width:1;"/><line style="stroke:#181818;stroke-width:1;stroke-dasharray:2.0,2.0;" x1="67.1177" x2="185.4424" y1="2523.7891" y2="2523.7891"/><text fill="#000000" font-family="sans-serif" font-size="13" lengthAdjust="spacing" textLength="15.4819" x="79.1177" y="2518.7231">ok</text><!--SRC=[hLPTJzim57tFhxY21-WqMfPsBvMOX1YJaDY6L3RjOTBaEhUDHM97jakNVxzh9usRafIjAtqWiO_FEVRzY4Td4G2SmflZ_bMaDweejLYc5ixv0EBB-3qDIQl5V6MLDc0Ls1JXbcUYC0YVr4ecp0eb_VAAOuReGL- -FjxTtC92P7Xk1f08K_5W0cjXKy880skbds2XDB0a4Ow8PHMBa3IQUsxGk6Gw4N89lF6drXArIKKnt99-T9I5LalDSc0oyJuOvoelc2mT0J6Y5Ympm3JIMqBppqnaR9uXq6PGkpKL6o5p0shXMQuBnkdVlU0eQUVVITnPYuUNi4u5Ju6K0nEp5KLgRM6cez5wlHuopp1KUZdAAXOpkgSJ-ZAxlI2QxHDy-FZZebQwk4jGMh4GgAUrYGPzz1mu6qNHNFs6amSjSgPBUD2Aep4dS7fxwNvHmRGLND1nse2wNfB54s3kx4NUnip8SBBAKFjvitbhWxuPrDVSYcTXItZdaQn-_VKkGWeakQgjpP0hIhfWpYqu_NJfVZlI3T8Rh8aDSkBibu_Ryl4UwBWD7R_gDFvBft7ZT9_yf2q_2V9NLutapDBwLG5NLr7aeWCN7toKfi0rKZ70J-bgqESz3IGcyWVaOFvXFoxUuE9-N22iTPMKo6rOtnuEDfjacO8f9V-bCLSMpVaWydjsOY6VekPnoxfRzd8YtapiRBGPZ7kGRKzkT-K6tpMrhTniKpr52NRvTq5hGdidXVKXaxHZKCz4qK3VReVyXcKP45_Q39uPwft2dWyWHvkg1F0tJMKbACcHfgWlKk-R2wjTlYbDBM_eCyT9THw-Nic_EVDGiTFQGHI6kW2jwTSEi8cIfsRn88GlrEfBuRWBq9eEp26WtNwywXvFuovFuvUUnbs0rlI_U1ftUTgS19iCGaQ7j7dfQT85Q4q7vjSItwkwTFxCADtkbQgwJ-OUveHuebJq7rSXg- -x4KlwxhlBnSvtvy3yDnQBaF_amNt0VQP3WWiXwGOoB-kxGLrmT6Ceqkqww6mdZhStp9NgqUDOYVR5iHRjBSHTKpsLzZ-1xZ-flYBTDNL05KPfHsP49aCiw1fd1IM5J2Awk_6IqttCYXotWkkUN3gsc-uiNTc4xfM7DrvJCnpQVFl3s13lwQaRq65zjP7e3rk7YRWFTFGU6_pr5c27lt4VwFXrslZhhTKEVvC-qB5ASllYqNtp-0C0]--></g></svg>