<svg xmlns="http://www.w3.org/2000/svg" xmlns:xlink="http://www.w3.org/1999/xlink" contentStyleType="text/css" data-diagram-type="CLASS" height="775px" preserveAspectRatio="none" style="width:2413px;height:775px;background:#FFFFFF;" version="1.1" viewBox="0 0 2413 775" width="2413px" zoomAndPan="magnify"><defs/><g><!--cluster feat_ipc--><g id="cluster_feat_ipc"><path d="M8.5,116 L35.2441,116 A3.75,3.75 0 0 1 37.7441,118.5 L44.7441,138.2969 L2403.5,138.2969 A2.5,2.5 0 0 1 2406,140.7969 L2406,765.5 A2.5,2.5 0 0 1 2403.5,768 L8.5,768 A2.5,2.5 0 0 1 6,765.5 L6,118.5 A2.5,2.5 0 0 1 8.5,116 " fill="transparent" style="stroke:#000000;stroke-width:1.5;"/><line style="stroke:#000000;stroke-width:1.5;" x1="6" x2="44.7441" y1="138.2969" y2="138.2969"/><text fill="#000000" font-family="sans-serif" font-size="14" font-weight="bold" lengthAdjust="spacing" textLength="25.7441" x="10" y="130.9951">IPC</text><text fill="#000000" font-family="sans-serif" font-size="14" font-style="italic" lengthAdjust="spacing" textLength="68.1338" x="1175.9331" y="153.292">&#171;feature&#187;</text></g><!--cluster mod_ipc--><g id="cluster_mod_ipc"><rect fill="transparent" height="130" rx="2.5" ry="2.5" style="stroke:#181818;stroke-width:1;" width="205" x="1552" y="286"/><text fill="#000000" font-family="sans-serif" font-size="14" font-weight="bold" lengthAdjust="spacing" textLength="25.7441" x="1641.6279" y="300.9951">IPC</text></g><!--cluster os--><g id="cluster_os"><rect fill="transparent" height="97" rx="2.5" ry="2.5" style="stroke:#181818;stroke-width:1;" width="678" x="852" y="647"/><text fill="#000000" font-family="sans-serif" font-size="14" font-weight="bold" lengthAdjust="spacing" textLength="17.9512" x="1182.0244" y="661.9951">os</text></g><!--cluster logging--><g id="cluster_logging"><rect fill="transparent" height="97" rx="2.5" ry="2.5" style="stroke:#181818;stroke-width:1;" width="172" x="1924" y="647"/><text fill="#000000" font-family="sans-serif" font-size="14" font-weight="bold" lengthAdjust="spacing" textLength="59.2471" x="1980.3765" y="661.9951">logging</text></g><!--cluster mod_json--><g id="cluster_mod_json"><rect fill="transparent" height="97" rx="2.5" ry="2.5" style="stroke:#181818;stroke-width:1;" width="102" x="2192" y="647"/><text fill="#000000" font-family="sans-serif" font-size="14" font-weight="bold" lengthAdjust="spacing" textLength="32.7168" x="2226.6416" y="661.9951">json</text></g><!--class mwcom--><g id="elem_mwcom"><rect codeLine="21" fill="#F1F1F1" height="48" id="mwcom" rx="2.5" ry="2.5" style="stroke:#181818;stroke-width:0.5;" width="96.4219" x="1512" y="167"/><ellipse cx="1527" cy="183" fill="#B4A7E5" rx="11" ry="11" style="stroke:#181818;stroke-width:1;"/><path d="M1522.9219,178.7656 L1522.9219,176.6094 L1530.3125,176.6094 L1530.3125,178.7656 L1527.8438,178.7656 L1527.8438,186.8438 L1530.3125,186.8438 L1530.3125,189 L1522.9219,189 L1522.9219,186.8438 L1525.3906,186.8438 L1525.3906,178.7656 L1522.9219,178.7656 Z " fill="#000000"/><text fill="#000000" font-family="sans-serif" font-size="14" font-style="italic" lengthAdjust="spacing" textLength="64.4219" x="1541" y="187.8467">mw::com</text><line style="stroke:#181818;stroke-width:0.5;" x1="1513" x2="1607.4219" y1="199" y2="199"/><line style="stroke:#181818;stroke-width:0.5;" x1="1513" x2="1607.4219" y1="207" y2="207"/></g><!--class i_ipctracing--><g id="elem_i_ipctracing"><rect codeLine="44" fill="#F1F1F1" height="48" id="i_ipctracing" rx="2.5" ry="2.5" style="stroke:#181818;stroke-width:0.5;" width="101.6445" x="1959" y="511.5"/><ellipse cx="1974" cy="527.5" fill="#B4A7E5" rx="11" ry="11" style="stroke:#181818;stroke-width:1;"/><path d="M1969.9219,523.2656 L1969.9219,521.1094 L1977.3125,521.1094 L1977.3125,523.2656 L1974.8438,523.2656 L1974.8438,531.3438 L1977.3125,531.3438 L1977.3125,533.5 L1969.9219,533.5 L1969.9219,531.3438 L1972.3906,531.3438 L1972.3906,523.2656 L1969.9219,523.2656 Z " fill="#000000"/><text fill="#000000" font-family="sans-serif" font-size="14" font-style="italic" lengthAdjust="spacing" textLength="69.6445" x="1988" y="532.3467">ipctracing</text><line style="stroke:#181818;stroke-width:0.5;" x1="1960" x2="2059.6445" y1="543.5" y2="543.5"/><line style="stroke:#181818;stroke-width:0.5;" x1="1960" x2="2059.6445" y1="551.5" y2="551.5"/></g><!--class i_combind--><g id="elem_i_combind"><rect codeLine="47" fill="#F1F1F1" height="80.5938" id="i_combind" rx="2.5" ry="2.5" style="stroke:#181818;stroke-width:0.5;" width="294.2197" x="2096" y="495"/><ellipse cx="2111" cy="511" fill="#B4A7E5" rx="11" ry="11" style="stroke:#181818;stroke-width:1;"/><path d="M2106.9219,506.7656 L2106.9219,504.6094 L2114.3125,504.6094 L2114.3125,506.7656 L2111.8438,506.7656 L2111.8438,514.8438 L2114.3125,514.8438 L2114.3125,517 L2106.9219,517 L2106.9219,514.8438 L2109.3906,514.8438 L2109.3906,506.7656 L2106.9219,506.7656 Z " fill="#000000"/><text fill="#000000" font-family="sans-serif" font-size="14" font-style="italic" lengthAdjust="spacing" textLength="262.2197" x="2125" y="515.8467">communication binding configuration</text><line style="stroke:#181818;stroke-width:0.5;" x1="2097" x2="2389.2197" y1="527" y2="527"/><text fill="#000000" font-family="sans-serif" font-size="14" lengthAdjust="spacing" textLength="175.3896" x="2102" y="543.9951">file: mw_com_config.json</text><text fill="#000000" font-family="sans-serif" font-size="14" lengthAdjust="spacing" textLength="248.9854" x="2102" y="560.292">type: persistent memory, read-only</text><line style="stroke:#181818;stroke-width:0.5;" x1="2097" x2="2389.2197" y1="567.5938" y2="567.5938"/></g><!--class i_pf--><g id="elem_i_pf"><rect codeLine="52" fill="#F1F1F1" height="80.5938" id="i_pf" rx="2.5" ry="2.5" style="stroke:#181818;stroke-width:0.5;" width="163.3887" x="1760.5" y="495"/><ellipse cx="1803.1311" cy="511" fill="#B4A7E5" rx="11" ry="11" style="stroke:#181818;stroke-width:1;"/><path d="M1799.0529,506.7656 L1799.0529,504.6094 L1806.4436,504.6094 L1806.4436,506.7656 L1803.9748,506.7656 L1803.9748,514.8438 L1806.4436,514.8438 L1806.4436,517 L1799.0529,517 L1799.0529,514.8438 L1801.5217,514.8438 L1801.5217,506.7656 L1799.0529,506.7656 Z " fill="#000000"/><text fill="#000000" font-family="sans-serif" font-size="14" font-style="italic" lengthAdjust="spacing" textLength="69.9863" x="1823.2713" y="515.8467">posix files</text><line style="stroke:#181818;stroke-width:0.5;" x1="1761.5" x2="1922.8887" y1="527" y2="527"/><text fill="#000000" font-family="sans-serif" font-size="14" lengthAdjust="spacing" textLength="95.5117" x="1766.5" y="543.9951">file: /dev/shm</text><text fill="#000000" font-family="sans-serif" font-size="14" lengthAdjust="spacing" textLength="151.3887" x="1766.5" y="560.292">type: shared memory</text><line style="stroke:#181818;stroke-width:0.5;" x1="1761.5" x2="1922.8887" y1="567.5938" y2="567.5938"/></g><!--class i_acl--><g id="elem_i_acl"><rect codeLine="57" fill="#F1F1F1" height="96.8906" id="i_acl" rx="2.5" ry="2.5" style="stroke:#181818;stroke-width:0.5;" width="331.1768" x="1394.5" y="487"/><ellipse cx="1489.6084" cy="503" fill="#B4A7E5" rx="11" ry="11" style="stroke:#181818;stroke-width:1;"/><path d="M1485.5303,498.7656 L1485.5303,496.6094 L1492.9209,496.6094 L1492.9209,498.7656 L1490.4521,498.7656 L1490.4521,506.8438 L1492.9209,506.8438 L1492.9209,509 L1485.5303,509 L1485.5303,506.8438 L1487.999,506.8438 L1487.999,498.7656 L1485.5303,498.7656 Z " fill="#000000"/><text fill="#000000" font-family="sans-serif" font-size="14" font-style="italic" lengthAdjust="spacing" textLength="132.46" x="1510.1084" y="507.8467">Access Control List</text><line style="stroke:#181818;stroke-width:0.5;" x1="1395.5" x2="1724.6768" y1="519" y2="519"/><text fill="#000000" font-family="sans-serif" font-size="14" lengthAdjust="spacing" textLength="319.1768" x="1400.5" y="535.9951">file: access control of shared memory objects</text><text fill="#000000" font-family="sans-serif" font-size="14" lengthAdjust="spacing" textLength="151.3887" x="1400.5" y="552.292">type: shared memory</text><text fill="#000000" font-family="sans-serif" font-size="14" lengthAdjust="spacing" textLength="276.7666" x="1400.5" y="568.5889">ACL control of file owners / permissions</text><line style="stroke:#181818;stroke-width:0.5;" x1="1395.5" x2="1724.6768" y1="575.8906" y2="575.8906"/></g><!--class i_ipc--><g id="elem_i_ipc"><rect codeLine="63" fill="#F1F1F1" height="80.5938" id="i_ipc" rx="2.5" ry="2.5" style="stroke:#181818;stroke-width:0.5;" width="350.4199" x="1009" y="495"/><ellipse cx="1168.7866" cy="511" fill="#B4A7E5" rx="11" ry="11" style="stroke:#181818;stroke-width:1;"/><path d="M1164.7085,506.7656 L1164.7085,504.6094 L1172.0991,504.6094 L1172.0991,506.7656 L1169.6304,506.7656 L1169.6304,514.8438 L1172.0991,514.8438 L1172.0991,517 L1164.7085,517 L1164.7085,514.8438 L1167.1772,514.8438 L1167.1772,506.7656 L1164.7085,506.7656 Z " fill="#000000"/><text fill="#000000" font-family="sans-serif" font-size="14" font-style="italic" lengthAdjust="spacing" textLength="22.3467" x="1189.2866" y="515.8467">IPC</text><line style="stroke:#181818;stroke-width:0.5;" x1="1010" x2="1358.4199" y1="527" y2="527"/><text fill="#000000" font-family="sans-serif" font-size="14" lengthAdjust="spacing" textLength="338.4199" x="1015" y="543.9951">file: IPC as a control channel for shared memory</text><text fill="#000000" font-family="sans-serif" font-size="14" lengthAdjust="spacing" textLength="92.1279" x="1015" y="560.292">type: OS::IPC</text><line style="stroke:#181818;stroke-width:0.5;" x1="1010" x2="1358.4199" y1="567.5938" y2="567.5938"/></g><!--class i_flock--><g id="elem_i_flock"><rect codeLine="68" fill="#F1F1F1" height="80.5938" id="i_flock" rx="2.5" ry="2.5" style="stroke:#181818;stroke-width:0.5;" width="438.6309" x="534.5" y="495"/><ellipse cx="732.9712" cy="511" fill="#B4A7E5" rx="11" ry="11" style="stroke:#181818;stroke-width:1;"/><path d="M728.8931,506.7656 L728.8931,504.6094 L736.2837,504.6094 L736.2837,506.7656 L733.8149,506.7656 L733.8149,514.8438 L736.2837,514.8438 L736.2837,517 L728.8931,517 L728.8931,514.8438 L731.3618,514.8438 L731.3618,506.7656 L728.8931,506.7656 Z " fill="#000000"/><text fill="#000000" font-family="sans-serif" font-size="14" font-style="italic" lengthAdjust="spacing" textLength="33.1885" x="753.4712" y="515.8467">flock</text><line style="stroke:#181818;stroke-width:0.5;" x1="535.5" x2="972.1309" y1="527" y2="527"/><text fill="#000000" font-family="sans-serif" font-size="14" lengthAdjust="spacing" textLength="426.6309" x="540.5" y="543.9951">file: unique ownership of marker files during process lifetime</text><text fill="#000000" font-family="sans-serif" font-size="14" lengthAdjust="spacing" textLength="151.3887" x="540.5" y="560.292">type: shared memory</text><line style="stroke:#181818;stroke-width:0.5;" x1="535.5" x2="972.1309" y1="567.5938" y2="567.5938"/></g><!--class i_inotify--><g id="elem_i_inotify"><rect codeLine="73" fill="#F1F1F1" height="80.5938" id="i_inotify" rx="2.5" ry="2.5" style="stroke:#181818;stroke-width:0.5;" width="476.8643" x="22.5" y="495"/><ellipse cx="234.7217" cy="511" fill="#B4A7E5" rx="11" ry="11" style="stroke:#181818;stroke-width:1;"/><path d="M230.6436,506.7656 L230.6436,504.6094 L238.0342,504.6094 L238.0342,506.7656 L235.5654,506.7656 L235.5654,514.8438 L238.0342,514.8438 L238.0342,517 L230.6436,517 L230.6436,514.8438 L233.1123,514.8438 L233.1123,506.7656 L230.6436,506.7656 Z " fill="#000000"/><text fill="#000000" font-family="sans-serif" font-size="14" font-style="italic" lengthAdjust="spacing" textLength="43.9209" x="255.2217" y="515.8467">inotify</text><line style="stroke:#181818;stroke-width:0.5;" x1="23.5" x2="498.3643" y1="527" y2="527"/><text fill="#000000" font-family="sans-serif" font-size="14" lengthAdjust="spacing" textLength="464.8643" x="28.5" y="543.9951">file: event based information of file creation, alteration or deletion</text><text fill="#000000" font-family="sans-serif" font-size="14" lengthAdjust="spacing" textLength="204.21" x="28.5" y="560.292">type: inotify, shared memory</text><line style="stroke:#181818;stroke-width:0.5;" x1="23.5" x2="498.3643" y1="567.5938" y2="567.5938"/></g><!--entity lola--><g id="elem_lola"><rect fill="#F1F1F1" height="62.5938" rx="2.5" ry="2.5" style="stroke:#181818;stroke-width:0.5;" width="138.4824" x="1595" y="329"/><rect fill="#F1F1F1" height="10" style="stroke:#181818;stroke-width:0.5;" width="15" x="1713.4824" y="334"/><rect fill="#F1F1F1" height="2" style="stroke:#181818;stroke-width:0.5;" width="4" x="1711.4824" y="336"/><rect fill="#F1F1F1" height="2" style="stroke:#181818;stroke-width:0.5;" width="4" x="1711.4824" y="340"/><text fill="#000000" font-family="sans-serif" font-size="14" font-style="italic" lengthAdjust="spacing" textLength="96.4824" x="1611" y="361.9951">&#171;component&#187;</text><text fill="#000000" font-family="sans-serif" font-size="14" lengthAdjust="spacing" textLength="64.4219" x="1627.0303" y="378.292">mw::com</text></g><!--entity osramfs--><g id="elem_osramfs"><rect fill="#F1F1F1" height="46.2969" rx="2.5" ry="2.5" style="stroke:#181818;stroke-width:0.5;" width="117.6631" x="1396" y="682"/><rect fill="#F1F1F1" height="10" style="stroke:#181818;stroke-width:0.5;" width="15" x="1493.6631" y="687"/><rect fill="#F1F1F1" height="2" style="stroke:#181818;stroke-width:0.5;" width="4" x="1491.6631" y="689"/><rect fill="#F1F1F1" height="2" style="stroke:#181818;stroke-width:0.5;" width="4" x="1491.6631" y="693"/><text fill="#000000" font-family="sans-serif" font-size="14" lengthAdjust="spacing" textLength="77.6631" x="1411" y="714.9951">OS::RAMFS</text></g><!--entity osfs--><g id="elem_osfs"><rect fill="#F1F1F1" height="46.2969" rx="2.5" ry="2.5" style="stroke:#181818;stroke-width:0.5;" width="86.2793" x="1017" y="682"/><rect fill="#F1F1F1" height="10" style="stroke:#181818;stroke-width:0.5;" width="15" x="1083.2793" y="687"/><rect fill="#F1F1F1" height="2" style="stroke:#181818;stroke-width:0.5;" width="4" x="1081.2793" y="689"/><rect fill="#F1F1F1" height="2" style="stroke:#181818;stroke-width:0.5;" width="4" x="1081.2793" y="693"/><text fill="#000000" font-family="sans-serif" font-size="14" lengthAdjust="spacing" textLength="46.2793" x="1032" y="714.9951">OS::FS</text></g><!--entity osipc--><g id="elem_osipc"><rect fill="#F1F1F1" height="46.2969" rx="2.5" ry="2.5" style="stroke:#181818;stroke-width:0.5;" width="91.6865" x="1138" y="682"/><rect fill="#F1F1F1" height="10" style="stroke:#181818;stroke-width:0.5;" width="15" x="1209.6865" y="687"/><rect fill="#F1F1F1" height="2" style="stroke:#181818;stroke-width:0.5;" width="4" x="1207.6865" y="689"/><rect fill="#F1F1F1" height="2" style="stroke:#181818;stroke-width:0.5;" width="4" x="1207.6865" y="693"/><text fill="#000000" font-family="sans-serif" font-size="14" lengthAdjust="spacing" textLength="51.6865" x="1153" y="714.9951">OS::IPC</text></g><!--entity osacl--><g id="elem_osacl"><rect fill="#F1F1F1" height="46.2969" rx="2.5" ry="2.5" style="stroke:#181818;stroke-width:0.5;" width="96.4922" x="1265" y="682"/><rect fill="#F1F1F1" height="10" style="stroke:#181818;stroke-width:0.5;" width="15" x="1341.4922" y="687"/><rect fill="#F1F1F1" height="2" style="stroke:#181818;stroke-width:0.5;" width="4" x="1339.4922" y="689"/><rect fill="#F1F1F1" height="2" style="stroke:#181818;stroke-width:0.5;" width="4" x="1339.4922" y="693"/><text fill="#000000" font-family="sans-serif" font-size="14" lengthAdjust="spacing" textLength="56.4922" x="1280" y="714.9951">OS::ACL</text></g><!--entity osinotify--><g id="elem_osinotify"><rect fill="#F1F1F1" height="46.2969" rx="2.5" ry="2.5" style="stroke:#181818;stroke-width:0.5;" width="113.2607" x="868.5" y="682"/><rect fill="#F1F1F1" height="10" style="stroke:#181818;stroke-width:0.5;" width="15" x="961.7607" y="687"/><rect fill="#F1F1F1" height="2" style="stroke:#181818;stroke-width:0.5;" width="4" x="959.7607" y="689"/><rect fill="#F1F1F1" height="2" style="stroke:#181818;stroke-width:0.5;" width="4" x="959.7607" y="693"/><text fill="#000000" font-family="sans-serif" font-size="14" lengthAdjust="spacing" textLength="73.2607" x="883.5" y="714.9951">OS::inotify</text></g><!--entity ipctracing--><g id="elem_ipctracing"><rect fill="#F1F1F1" height="46.2969" rx="2.5" ry="2.5" style="stroke:#181818;stroke-width:0.5;" width="140.4199" x="1940" y="682"/><rect fill="#F1F1F1" height="10" style="stroke:#181818;stroke-width:0.5;" width="15" x="2060.4199" y="687"/><rect fill="#F1F1F1" height="2" style="stroke:#181818;stroke-width:0.5;" width="4" x="2058.4199" y="689"/><rect fill="#F1F1F1" height="2" style="stroke:#181818;stroke-width:0.5;" width="4" x="2058.4199" y="693"/><text fill="#000000" font-family="sans-serif" font-size="14" lengthAdjust="spacing" textLength="100.4199" x="1955" y="714.9951">log::ipctracing</text></g><!--entity json--><g id="elem_json"><rect fill="#F1F1F1" height="46.2969" rx="2.5" ry="2.5" style="stroke:#181818;stroke-width:0.5;" width="68.6221" x="2208.5" y="682"/><rect fill="#F1F1F1" height="10" style="stroke:#181818;stroke-width:0.5;" width="15" x="2257.1221" y="687"/><rect fill="#F1F1F1" height="2" style="stroke:#181818;stroke-width:0.5;" width="4" x="2255.1221" y="689"/><rect fill="#F1F1F1" height="2" style="stroke:#181818;stroke-width:0.5;" width="4" x="2255.1221" y="693"/><text fill="#000000" font-family="sans-serif" font-size="14" lengthAdjust="spacing" textLength="28.6221" x="2223.5" y="714.9951">json</text></g><!--entity UA--><g id="elem_UA"><rect fill="#F1F1F1" height="46.2969" rx="2.5" ry="2.5" style="stroke:#181818;stroke-width:0.5;" width="154.584" x="1482.5" y="7"/><rect fill="#F1F1F1" height="10" style="stroke:#181818;stroke-width:0.5;" width="15" x="1617.084" y="12"/><rect fill="#F1F1F1" height="2" style="stroke:#181818;stroke-width:0.5;" width="4" x="1615.084" y="14"/><rect fill="#F1F1F1" height="2" style="stroke:#181818;stroke-width:0.5;" width="4" x="1615.084" y="18"/><text fill="#000000" font-family="sans-serif" font-size="14" lengthAdjust="spacing" textLength="114.584" x="1497.5" y="39.9951">User Application</text></g><!--reverse link mwcom to mod_ipc--><g id="link_mwcom_mod_ipc"><path codeLine="78" d="M1560,233.29 C1560,244.6175 1560,241.1031 1560,256.5066 C1560,264.2083 1560,272.1395 1560,280.02 C1560,281.9902 1560,283.9572 1560,285.9166 " fill="transparent" id="mwcom-backto-mod_ipc" style="stroke:#181818;stroke-width:1;"/><polygon fill="transparent" points="1560,215.29,1554,233.29,1566,233.29,1560,215.29" style="stroke:#181818;stroke-width:1;"/><text fill="#000000" font-family="sans-serif" font-size="13" lengthAdjust="spacing" textLength="70.1353" x="1561" y="258.0669">implement</text></g><!--link mod_ipc to i_pf--><g id="link_mod_ipc_i_pf"><path codeLine="80" d="M1568.762,416.2268 C1568.813,416.3403 1568.8643,416.4536 1568.9159,416.5668 C1569.019,416.7932 1569.1233,417.019 1569.2288,417.2443 C1570.0724,419.046 1570.9904,420.8092 1571.989,422.5184 C1573.9863,425.9367 1576.3063,429.1388 1579,432 C1592.17,445.99 1725.19,479.77 1743,487 C1749.09,489.47 1749.8532,489.7121 1756.1132,492.4821 " fill="transparent" id="mod_ipc-to-i_pf" style="stroke:#181818;stroke-width:1;stroke-dasharray:7.0,7.0;"/><polygon fill="#181818" points="1761.6,494.91,1754.9883,487.6103,1757.0276,492.8868,1751.7512,494.9261,1761.6,494.91" style="stroke:#181818;stroke-width:1;"/><text fill="#000000" font-family="sans-serif" font-size="13" lengthAdjust="spacing" textLength="23.0103" x="1642" y="453.0669">use</text></g><!--link mod_ipc to i_acl--><g id="link_mod_ipc_i_acl"><path codeLine="81" d="M1560,416.1565 C1560,419.3904 1560,422.6934 1560,426.0434 C1560,432.7434 1560,439.6316 1560,446.5323 C1560,460.3338 1560,468.185 1560,480.68 " fill="transparent" id="mod_ipc-to-i_acl" style="stroke:#181818;stroke-width:1;stroke-dasharray:7.0,7.0;"/><polygon fill="#181818" points="1560,486.68,1564,477.68,1560,481.68,1556,477.68,1560,486.68" style="stroke:#181818;stroke-width:1;"/><text fill="#000000" font-family="sans-serif" font-size="13" lengthAdjust="spacing" textLength="23.0103" x="1561" y="453.0669">use</text></g><!--link mod_ipc to i_ipc--><g id="link_mod_ipc_i_ipc"><path codeLine="82" d="M1551.8228,365.2612 C1551.502,365.4088 1551.1724,365.5605 1550.8342,365.7161 C1545.422,368.2066 1537.7848,371.7208 1528.3891,376.0441 C1509.5975,384.6906 1483.7713,396.5737 1454.64,409.9775 C1396.3775,436.785 1330.3457,467.167 1275.4807,492.412 " fill="transparent" id="mod_ipc-to-i_ipc" style="stroke:#181818;stroke-width:1;stroke-dasharray:7.0,7.0;"/><polygon fill="#181818" points="1270.03,494.92,1279.878,494.7918,1274.5722,492.83,1276.534,487.5242,1270.03,494.92" style="stroke:#181818;stroke-width:1;"/><text fill="#000000" font-family="sans-serif" font-size="13" lengthAdjust="spacing" textLength="23.0103" x="1384" y="453.0669">use</text></g><!--link mod_ipc to i_flock--><g id="link_mod_ipc_i_flock"><path codeLine="83" d="M1551.3327,363.3585 C1550.3465,363.5702 1549.2798,363.7992 1548.1347,364.045 C1545.8444,364.5366 1543.2403,365.0957 1540.3379,365.7187 C1528.7282,368.2108 1512.3465,371.7273 1492.193,376.0533 C1451.8859,384.7053 1396.4919,396.5956 1334.0137,410.0063 C1209.0575,436.8275 1061.6314,468.471 944.0264,493.711 " fill="transparent" id="mod_ipc-to-i_flock" style="stroke:#181818;stroke-width:1;stroke-dasharray:7.0,7.0;"/><polygon fill="#181818" points="938.16,494.97,947.799,496.9924,943.0487,493.9208,946.1203,489.1705,938.16,494.97" style="stroke:#181818;stroke-width:1;"/><text fill="#000000" font-family="sans-serif" font-size="13" lengthAdjust="spacing" textLength="23.0103" x="1182" y="453.0669">use</text></g><!--link mod_ipc to i_inotify--><g id="link_mod_ipc_i_inotify"><path codeLine="84" d="M1551.7307,362.2908 C1546.9076,362.755 1540.0368,363.4202 1531.2856,364.2767 C1513.7833,365.9899 1488.7595,368.4688 1457.552,371.6383 C1395.1372,377.9772 1307.9881,387.0781 1206.8088,398.3388 C1004.45,420.86 745.97,452.02 517,487 C500.91,489.46 490.205,491.1535 473.515,493.9935 " fill="transparent" id="mod_ipc-to-i_inotify" style="stroke:#181818;stroke-width:1;stroke-dasharray:7.0,7.0;"/><polygon fill="#181818" points="467.6,495,477.1435,497.4336,472.5291,494.1612,475.8015,489.5469,467.6,495" style="stroke:#181818;stroke-width:1;"/><text fill="#000000" font-family="sans-serif" font-size="13" lengthAdjust="spacing" textLength="23.0103" x="832" y="453.0669">use</text></g><!--link mod_ipc to i_combind--><g id="link_mod_ipc_i_combind"><path codeLine="85" d="M1566.8952,416.2445 C1566.9476,416.355 1567.0003,416.4654 1567.0534,416.5755 C1567.1595,416.7958 1567.2671,417.0153 1567.376,417.234 C1567.5938,417.6714 1567.8173,418.1055 1568.0464,418.536 C1568.963,420.258 1569.9713,421.9226 1571.0796,423.5118 C1573.2964,426.6903 1575.9138,429.5675 1579,432 C1591.92,442.18 1858.68,437.92 1875,440 C1967.3,451.76 1988.95,463.6 2079,487 C2088.61,489.5 2092.7353,490.557 2102.6853,493.297 " fill="transparent" id="mod_ipc-to-i_combind" style="stroke:#181818;stroke-width:1;stroke-dasharray:7.0,7.0;"/><polygon fill="#181818" points="2108.47,494.89,2100.855,488.6441,2103.6494,493.5625,2098.731,496.357,2108.47,494.89" style="stroke:#181818;stroke-width:1;"/><text fill="#000000" font-family="sans-serif" font-size="13" lengthAdjust="spacing" textLength="23.0103" x="1968" y="453.0669">use</text></g><!--link mod_ipc to i_ipctracing--><g id="link_mod_ipc_i_ipctracing"><path codeLine="86" d="M1567.2772,416.2993 C1567.382,416.5213 1567.4881,416.7425 1567.5956,416.963 C1567.8106,417.4039 1568.031,417.8418 1568.2569,418.2763 C1569.1606,420.0143 1570.1528,421.6987 1571.2417,423.3121 C1573.4194,426.5388 1575.9837,429.4813 1579,432 C1587.13,438.79 1663.5,438.64 1674,440 C1793.49,455.52 1829.49,441.35 1941,487 C1955.67,493.01 1965.5423,498.9338 1977.5723,507.8638 " fill="transparent" id="mod_ipc-to-i_ipctracing" style="stroke:#181818;stroke-width:1;stroke-dasharray:7.0,7.0;"/><polygon fill="#181818" points="1982.39,511.44,1977.5476,502.8638,1978.3752,508.4598,1972.7793,509.2874,1982.39,511.44" style="stroke:#181818;stroke-width:1;"/><text fill="#000000" font-family="sans-serif" font-size="13" lengthAdjust="spacing" textLength="23.0103" x="1843" y="453.0669">use</text></g><!--reverse link i_combind to json--><g id="link_i_combind_json"><path codeLine="88" d="M2243,594.2 C2243,627.09 2243,654.65 2243,681.56 " fill="transparent" id="i_combind-backto-json" style="stroke:#181818;stroke-width:1;"/><polygon fill="transparent" points="2243,576.2,2237,594.2,2249,594.2,2243,576.2" style="stroke:#181818;stroke-width:1;"/><text fill="#000000" font-family="sans-serif" font-size="13" lengthAdjust="spacing" textLength="70.1353" x="2244" y="627.0669">implement</text></g><!--reverse link i_ipctracing to ipctracing--><g id="link_i_ipctracing_ipctracing"><path codeLine="89" d="M2010,577.79 C2010,610.15 2010,650.3 2010,681.97 " fill="transparent" id="i_ipctracing-backto-ipctracing" style="stroke:#181818;stroke-width:1;"/><polygon fill="transparent" points="2010,559.79,2004,577.79,2016,577.79,2010,559.79" style="stroke:#181818;stroke-width:1;"/><text fill="#000000" font-family="sans-serif" font-size="13" lengthAdjust="spacing" textLength="70.1353" x="2011" y="627.0669">implement</text></g><!--reverse link i_pf to osramfs--><g id="link_i_pf_osramfs"><path codeLine="91" d="M1743.9716,583.6637 C1738.1316,586.3637 1748.65,581.47 1743,584 C1662.79,619.92 1568.57,658.51 1510.31,681.96 " fill="transparent" id="i_pf-backto-osramfs" style="stroke:#181818;stroke-width:1;"/><polygon fill="transparent" points="1760.31,576.11,1741.4538,578.2176,1746.4895,589.1098,1760.31,576.11" style="stroke:#181818;stroke-width:1;"/><text fill="#000000" font-family="sans-serif" font-size="13" lengthAdjust="spacing" textLength="70.1353" x="1673" y="627.0669">implement</text></g><!--reverse link i_acl to osacl--><g id="link_i_acl_osacl"><path codeLine="92" d="M1449.2579,592.9244 C1420.6279,608.8844 1405.52,618.99 1379,639 C1362.18,651.69 1345.3,668.41 1332.81,681.72 " fill="transparent" id="i_acl-backto-osacl" style="stroke:#181818;stroke-width:1;"/><polygon fill="transparent" points="1464.98,584.16,1446.3364,587.6837,1452.1793,598.1651,1464.98,584.16" style="stroke:#181818;stroke-width:1;"/><text fill="#000000" font-family="sans-serif" font-size="13" lengthAdjust="spacing" textLength="70.1353" x="1412" y="627.0669">implement</text></g><!--reverse link i_ipc to osipc--><g id="link_i_ipc_osipc"><path codeLine="93" d="M1184,594.2 C1184,627.09 1184,654.65 1184,681.56 " fill="transparent" id="i_ipc-backto-osipc" style="stroke:#181818;stroke-width:1;"/><polygon fill="transparent" points="1184,576.2,1178,594.2,1190,594.2,1184,576.2" style="stroke:#181818;stroke-width:1;"/><text fill="#000000" font-family="sans-serif" font-size="13" lengthAdjust="spacing" textLength="70.1353" x="1185" y="627.0669">implement</text></g><!--reverse link i_flock to osfs--><g id="link_i_flock_osfs"><path codeLine="94" d="M893.4054,582.7478 C934.2354,598.9178 961.97,613.3 999,639 C1016.04,650.82 1031.95,668.08 1043.25,681.84 " fill="transparent" id="i_flock-backto-osfs" style="stroke:#181818;stroke-width:1;"/><polygon fill="transparent" points="876.67,576.12,891.1961,588.3262,895.6146,577.1693,876.67,576.12" style="stroke:#181818;stroke-width:1;"/><text fill="#000000" font-family="sans-serif" font-size="13" lengthAdjust="spacing" textLength="70.1353" x="982" y="627.0669">implement</text></g><!--reverse link i_inotify to osinotify--><g id="link_i_inotify_osinotify"><path codeLine="95" d="M435.3931,580.4934 C580.1431,617.0134 769.64,664.81 868.38,689.72 " fill="transparent" id="i_inotify-backto-osinotify" style="stroke:#181818;stroke-width:1;"/><polygon fill="transparent" points="417.94,576.09,433.9253,586.3111,436.8609,574.6757,417.94,576.09" style="stroke:#181818;stroke-width:1;"/><text fill="#000000" font-family="sans-serif" font-size="13" lengthAdjust="spacing" textLength="70.1353" x="633" y="627.0669">implement</text></g><!--link UA to mwcom--><g id="link_UA_mwcom"><path codeLine="98" d="M1560,53.11 C1560,83.06 1560,130.28 1560,160.79 " fill="transparent" id="UA-to-mwcom" style="stroke:#181818;stroke-width:1;"/><polygon fill="#181818" points="1560,166.79,1564,157.79,1560,161.79,1556,157.79,1560,166.79" style="stroke:#181818;stroke-width:1;"/><text fill="#000000" font-family="sans-serif" font-size="13" lengthAdjust="spacing" textLength="23.0103" x="1561" y="96.0669">use</text></g><!--SRC=[hPNRQXin48Rl_HH3Uf6qnDuIUcLCmAG91D83JL8AfGHPqkugqKfRISxMj7ttZWvxi6lNAIGNpgxqwvjVez5iTZW2W1Vmwdd_8lHCroiZYjB14Nq99wzFtk2GSaOibauR2qw3ApcSKobgo-52BnKZJcWLbaV6DUT1zFx3pUNPEUH2yYFx4fYmaSCPDCALg14M6cqU8DS626F2WuYC5A5mj0fiCBmWXWbL0EtywKPnOqjHJmQXRpooDhemf0AYMF11ADLLJTJA0v38ZI3I0Z4StnZEFn8XoK9omCrmuzT46Yeh2peFb7bDAFwx4fGhtFbd3EwjdKnUGrCAMW96xad4HKJfN6sdMTOqpOG4maIR8fEHOhChpD3xw_CnOeOP_FZsopX56byohfp81JVJPA9JFtiD76OZ8gLkAl43apKQ-SHfXV7XuDPYQkPrZTR3eHm0iN0x7utGqWCfE5n-F8FPBEV4BGq_FVNJ_kLEr1H-ZhnVF5DCQKueXuEgcKwH7YXLWq-eyPBVKJc4UeLcWJERVUBK4LL87o6k67ZieBDPDngTI2t9DhwsVXP_zv0_N4-dd-RlBguFeXxhAxVRH9rY-pJk9ytZThO9vcTNIK2et2OGIcCrh5fAVDksDQcBmbTys7rytBD9b26_fiuGYl8Ged_T5kFUuXL8vnEUzqJmce3r3qFWe38s3Tpr0-irCbY38QgbIfK92w5Iir2vA9QchrTnXqe_dKY-Dqsn_lpmNPHFEcjkLUDaxI-wTTv-nIjjLiVOZWWRQoLNEzpKU2u_0jkcg7M-5Z1Z_36pPJK8OqliHoo5sC6TKygjZGrPIsn5rYK-rifQ01ALD2cnXQtnGI_kyPZiF-DZ9Gu17foQBcG-AvMmlWFQ7MRRIXUf0VJcqfqc7PsMH2akmsVWRn_HNxeyEuBbKjE752uy3-DXONnVylw3uNTJ4VE0_IoS4R2byUM2tusGDIboxaJ5__DqXXSJDntVXZxueo-Y1R586dxTskHIh2i_S0n48ZLD6c1SylOJc_ma-l5kOst772_7lqvJXyLrLIrvXJOsHEmh8xRaxDluD5OhPitoVsbynUqL-Q6zed1UJs35BUyNjZVyAUxQlXArGHpQMCpQaDLdBXnxlxILhj4syfo-5vqs97YT6Ffz9uZPtLJqvzccTbCnYD6czIz8ocC7wlBQAx66RkUOhd5VEPYVFm00]--></g></svg>