<svg xmlns="http://www.w3.org/2000/svg" xmlns:xlink="http://www.w3.org/1999/xlink" contentStyleType="text/css" data-diagram-type="CLASS" height="337px" preserveAspectRatio="none" style="width:137px;height:337px;background:#FFFFFF;" version="1.1" viewBox="0 0 137 337" width="137px" zoomAndPan="magnify"><defs/><g><g id="elem_coverage"><rect fill="#F1F1F1" height="36.2969" rx="2.5" ry="2.5" style="stroke:#181818;stroke-width:0.5;" width="81.0742" x="28.5" y="7"/><text fill="#000000" font-family="sans-serif" font-size="14" lengthAdjust="spacing" textLength="67.0742" x="35.5" y="21.9951">Coverage</text><line style="stroke:#181818;stroke-width:0.5;" x1="29.5" x2="108.5742" y1="27.2969" y2="27.2969"/></g><g id="elem_gtest"><rect fill="#F1F1F1" height="36.2969" rx="2.5" ry="2.5" style="stroke:#181818;stroke-width:0.5;" width="49.7725" x="44" y="103"/><text fill="#000000" font-family="sans-serif" font-size="14" lengthAdjust="spacing" textLength="35.7725" x="51" y="117.9951">gtest</text><line style="stroke:#181818;stroke-width:0.5;" x1="45" x2="92.7725" y1="123.2969" y2="123.2969"/></g><g id="elem_gcov"><rect fill="#F1F1F1" height="36.2969" rx="2.5" ry="2.5" style="stroke:#181818;stroke-width:0.5;" width="107.2559" x="15.5" y="199"/><text fill="#000000" font-family="sans-serif" font-size="14" lengthAdjust="spacing" textLength="93.2559" x="22.5" y="213.9951">gcov + gcovr</text><line style="stroke:#181818;stroke-width:0.5;" x1="16.5" x2="121.7559" y1="219.2969" y2="219.2969"/></g><g id="elem_host"><rect fill="#F1F1F1" height="36.2969" rx="2.5" ry="2.5" style="stroke:#181818;stroke-width:0.5;" width="44.2217" x="7" y="295"/><text fill="#000000" font-family="sans-serif" font-size="14" lengthAdjust="spacing" textLength="30.2217" x="14" y="309.9951">host</text><line style="stroke:#181818;stroke-width:0.5;" x1="8" x2="50.2217" y1="315.2969" y2="315.2969"/></g><g id="elem_qnx"><rect fill="#F1F1F1" height="36.2969" rx="2.5" ry="2.5" style="stroke:#181818;stroke-width:0.5;" width="45.083" x="86.5" y="295"/><text fill="#000000" font-family="sans-serif" font-size="14" lengthAdjust="spacing" textLength="31.083" x="93.5" y="309.9951">QNX</text><line style="stroke:#181818;stroke-width:0.5;" x1="87.5" x2="130.583" y1="315.2969" y2="315.2969"/></g><!--link coverage to gtest--><g id="link_coverage_gtest"><path codeLine="8" d="M69,43.24 C69,60.2 69,79.95 69,96.87 " fill="transparent" id="coverage-to-gtest" style="stroke:#181818;stroke-width:1;"/><polygon fill="#181818" points="69,102.87,73,93.87,69,97.87,65,93.87,69,102.87" style="stroke:#181818;stroke-width:1;"/></g><!--link gtest to gcov--><g id="link_gtest_gcov"><path codeLine="9" d="M69,139.24 C69,156.2 69,175.95 69,192.87 " fill="transparent" id="gtest-to-gcov" style="stroke:#181818;stroke-width:1;"/><polygon fill="#181818" points="69,198.87,73,189.87,69,193.87,65,189.87,69,198.87" style="stroke:#181818;stroke-width:1;"/></g><!--link gcov to host--><g id="link_gcov_host"><path codeLine="10" d="M61.66,235.24 C54.45,252.2 45.8393,272.4291 38.6393,289.3491 " fill="transparent" id="gcov-to-host" style="stroke:#181818;stroke-width:1;"/><polygon fill="#181818" points="36.29,294.87,43.4946,288.1548,38.2478,290.2692,36.1334,285.0224,36.29,294.87" style="stroke:#181818;stroke-width:1;"/></g><!--link gcov to qnx--><g id="link_gcov_qnx"><path codeLine="11" d="M76.34,235.24 C83.55,252.2 92.1607,272.4291 99.3607,289.3491 " fill="transparent" id="gcov-to-qnx" style="stroke:#181818;stroke-width:1;"/><polygon fill="#181818" points="101.71,294.87,101.8666,285.0224,99.7522,290.2692,94.5054,288.1548,101.71,294.87" style="stroke:#181818;stroke-width:1;"/></g><!--SRC=[oq_AIaqkKL1opYzBBKfCJrLII2nMI8PokFAXikabgSKbO2am2o4ELAcWhG2YYY3IG1PSDYCVgWd4W8i6-aM01GlpAhYuO3OfwEhQGSq6an0-o32m5I0Us10u3wWR0000]--></g></svg>