<svg xmlns="http://www.w3.org/2000/svg" xmlns:xlink="http://www.w3.org/1999/xlink" contentStyleType="text/css" data-diagram-type="SEQUENCE" height="311px" preserveAspectRatio="none" style="width:611px;height:311px;background:#FFFFFF;" version="1.1" viewBox="0 0 611 311" width="611px" zoomAndPan="magnify"><defs/><g><g><title>Network</title><rect fill="transparent" height="149.5313" width="8" x="33.2271" y="81.2969"/><line style="stroke:#181818;stroke-width:0.5;stroke-dasharray:5.0,5.0;" x1="37" x2="37" y1="81.2969" y2="230.8281"/></g><g><title>SOME/IP Gateway</title><rect fill="transparent" height="149.5313" width="8" x="167.5557" y="81.2969"/><line style="stroke:#181818;stroke-width:0.5;stroke-dasharray:5.0,5.0;" x1="171.3486" x2="171.3486" y1="81.2969" y2="230.8281"/></g><g><title>Service</title><rect fill="transparent" height="149.5313" width="8" x="312.0278" y="81.2969"/><line style="stroke:#181818;stroke-width:0.5;stroke-dasharray:5.0,5.0;" x1="315.1572" x2="315.1572" y1="81.2969" y2="230.8281"/></g><g><title>Consumer</title><rect fill="transparent" height="149.5313" width="8" x="461.7051" y="81.2969"/><line style="stroke:#181818;stroke-width:0.5;stroke-dasharray:5.0,5.0;" x1="465.0112" x2="465.0112" y1="81.2969" y2="230.8281"/></g><text fill="#000000" font-family="sans-serif" font-size="14" lengthAdjust="spacing" textLength="58.4541" x="5" y="77.9951">Network</text><ellipse cx="37.2271" cy="13.5" fill="#E2E2F0" rx="8" ry="8" style="stroke:#181818;stroke-width:0.5;"/><path d="M37.2271,21.5 L37.2271,48.5 M24.2271,29.5 L50.2271,29.5 M37.2271,48.5 L24.2271,63.5 M37.2271,48.5 L50.2271,63.5 " fill="transparent" style="stroke:#181818;stroke-width:0.5;"/><text fill="#000000" font-family="sans-serif" font-size="14" lengthAdjust="spacing" textLength="58.4541" x="5" y="242.8232">Network</text><ellipse cx="37.2271" cy="254.625" fill="#E2E2F0" rx="8" ry="8" style="stroke:#181818;stroke-width:0.5;"/><path d="M37.2271,262.625 L37.2271,289.625 M24.2271,270.625 L50.2271,270.625 M37.2271,289.625 L24.2271,304.625 M37.2271,289.625 L50.2271,304.625 " fill="transparent" style="stroke:#181818;stroke-width:0.5;"/><rect fill="#E2E2F0" height="30.2969" rx="2.5" ry="2.5" style="stroke:#181818;stroke-width:0.5;" width="138.4141" x="102.3486" y="50"/><text fill="#000000" font-family="sans-serif" font-size="14" lengthAdjust="spacing" textLength="124.4141" x="109.3486" y="69.9951">SOME/IP Gateway</text><rect fill="#E2E2F0" height="30.2969" rx="2.5" ry="2.5" style="stroke:#181818;stroke-width:0.5;" width="138.4141" x="102.3486" y="229.8281"/><text fill="#000000" font-family="sans-serif" font-size="14" lengthAdjust="spacing" textLength="124.4141" x="109.3486" y="249.8232">SOME/IP Gateway</text><rect fill="#E2E2F0" height="46.5938" rx="2.5" ry="2.5" style="stroke:#181818;stroke-width:0.5;" width="65.7412" x="283.1572" y="33.7031"/><text fill="#000000" font-family="sans-serif" font-size="14" lengthAdjust="spacing" textLength="51.7412" x="290.1572" y="53.6982">Service</text><text fill="#000000" font-family="sans-serif" font-size="14" lengthAdjust="spacing" textLength="47.5508" x="292.2524" y="69.9951">via IPC</text><rect fill="#E2E2F0" height="46.5938" rx="2.5" ry="2.5" style="stroke:#181818;stroke-width:0.5;" width="65.7412" x="283.1572" y="229.8281"/><text fill="#000000" font-family="sans-serif" font-size="14" lengthAdjust="spacing" textLength="51.7412" x="290.1572" y="249.8232">Service</text><text fill="#000000" font-family="sans-serif" font-size="14" lengthAdjust="spacing" textLength="47.5508" x="292.2524" y="266.1201">via IPC</text><rect fill="#E2E2F0" height="30.2969" rx="2.5" ry="2.5" style="stroke:#181818;stroke-width:0.5;" width="85.3877" x="423.0112" y="50"/><text fill="#000000" font-family="sans-serif" font-size="14" lengthAdjust="spacing" textLength="71.3877" x="430.0112" y="69.9951">Consumer</text><rect fill="#E2E2F0" height="30.2969" rx="2.5" ry="2.5" style="stroke:#181818;stroke-width:0.5;" width="85.3877" x="423.0112" y="229.8281"/><text fill="#000000" font-family="sans-serif" font-size="14" lengthAdjust="spacing" textLength="71.3877" x="430.0112" y="249.8232">Consumer</text><polygon fill="#181818" points="159.5557,108.4297,169.5557,112.4297,159.5557,116.4297,163.5557,112.4297" style="stroke:#181818;stroke-width:1;"/><line style="stroke:#181818;stroke-width:1;" x1="37.2271" x2="165.5557" y1="112.4297" y2="112.4297"/><text fill="#000000" font-family="sans-serif" font-size="13" lengthAdjust="spacing" textLength="110.3286" x="44.2271" y="107.3638">StopOfferService</text><polygon fill="#181818" points="304.0278,137.5625,314.0278,141.5625,304.0278,145.5625,308.0278,141.5625" style="stroke:#181818;stroke-width:1;"/><line style="stroke:#181818;stroke-width:1;" x1="171.5557" x2="310.0278" y1="141.5625" y2="141.5625"/><text fill="#000000" font-family="sans-serif" font-size="13" lengthAdjust="spacing" textLength="120.4722" x="178.5557" y="136.4966">StopOfferService()</text><polygon fill="#181818" points="327.0278,166.6953,317.0278,170.6953,327.0278,174.6953,323.0278,170.6953" style="stroke:#181818;stroke-width:1;"/><line style="stroke:#181818;stroke-width:1;" x1="321.0278" x2="464.7051" y1="170.6953" y2="170.6953"/><text fill="#000000" font-family="sans-serif" font-size="13" lengthAdjust="spacing" textLength="125.6772" x="333.0278" y="165.6294">service_discovery()</text><line style="stroke:#181818;stroke-width:1;" x1="465.7051" x2="507.7051" y1="199.8281" y2="199.8281"/><line style="stroke:#181818;stroke-width:1;" x1="507.7051" x2="507.7051" y1="199.8281" y2="212.8281"/><line style="stroke:#181818;stroke-width:1;" x1="466.7051" x2="507.7051" y1="212.8281" y2="212.8281"/><polygon fill="#181818" points="476.7051,208.8281,466.7051,212.8281,476.7051,216.8281,472.7051,212.8281" style="stroke:#181818;stroke-width:1;"/><text fill="#000000" font-family="sans-serif" font-size="13" lengthAdjust="spacing" textLength="131.4092" x="472.7051" y="194.7622">handle_disconnect()</text><!--SRC=[PSwz2eCm403WtQSud7GetHswI2aEhO9hGOvujg6QXEIg-FOjnYAfs_ryzuE2jONuHZnf-ue17QnnPD2o5DAWOeZhyde-5XLSa6d2UO6r7aYQXw_ySRAZ57HNeqGegjnxNmnbhfLx3sGNyPMDw2KfZgBr3JYSmaCPrAnDsNLaVmk3_ZBW6tkQfD5s8v3E1qqhdT0ZsNb7joo39wgsNx5I93X9Fm00]--></g></svg>