<svg xmlns="http://www.w3.org/2000/svg" xmlns:xlink="http://www.w3.org/1999/xlink" contentStyleType="text/css" data-diagram-type="SEQUENCE" height="807px" preserveAspectRatio="none" style="width:762px;height:807px;background:#FFFFFF;" version="1.1" viewBox="0 0 762 807" width="762px" zoomAndPan="magnify"><title>Sequence Diagram: Read Data into Local Representation (KvsValue)</title><defs/><g><text fill="#000000" font-family="sans-serif" font-size="14" font-weight="bold" lengthAdjust="spacing" textLength="539.834" x="110.1143" y="27.9951">Sequence Diagram: Read Data into Local Representation (KvsValue)</text><rect fill="transparent" height="119.3359" style="stroke:#000000;stroke-width:1.5;" width="572.0264" x="10" y="148.8594"/><rect fill="transparent" height="119.3359" style="stroke:#000000;stroke-width:1.5;" width="572.0264" x="10" y="311.3281"/><rect fill="transparent" height="90.2031" style="stroke:#000000;stroke-width:1.5;" width="430.3047" x="10" y="502.9297"/><rect fill="transparent" height="119.3359" style="stroke:#000000;stroke-width:1.5;" width="430.3047" x="10" y="607.1328"/><g><title>Builder</title><rect fill="transparent" height="699.0078" width="8" x="47.7563" y="73.5938"/><line style="stroke:#181818;stroke-width:0.5;stroke-dasharray:5.0,5.0;" x1="51" x2="51" y1="73.5938" y2="772.6016"/></g><g><title>&#171;component&#187; :kvs</title><rect fill="transparent" height="699.0078" width="8" x="161.1055" y="73.5938"/><line style="stroke:#181818;stroke-width:0.5;stroke-dasharray:5.0,5.0;" x1="164.5127" x2="164.5127" y1="73.5938" y2="772.6016"/></g><g><title>&#171;component&#187; :TinyJSON</title><rect fill="transparent" height="699.0078" width="8" x="334.5015" y="73.5938"/><line style="stroke:#181818;stroke-width:0.5;stroke-dasharray:5.0,5.0;" x1="337.6982" x2="337.6982" y1="73.5938" y2="772.6016"/></g><g><title>&#171;component&#187; :fs</title><rect fill="transparent" height="699.0078" width="8" x="502.1655" y="73.5938"/><line style="stroke:#181818;stroke-width:0.5;stroke-dasharray:5.0,5.0;" x1="505.3047" x2="505.3047" y1="73.5938" y2="772.6016"/></g><g><title>&#171;component&#187; :Adler32</title><rect fill="transparent" height="699.0078" width="8" x="665.0444" y="73.5938"/><line style="stroke:#181818;stroke-width:0.5;stroke-dasharray:5.0,5.0;" x1="669.0264" x2="669.0264" y1="73.5938" y2="772.6016"/></g><rect fill="#E2E2F0" height="30.2969" rx="2.5" ry="2.5" style="stroke:#181818;stroke-width:0.5;" width="63.5127" x="20" y="42.2969"/><text fill="#000000" font-family="sans-serif" font-size="14" lengthAdjust="spacing" textLength="49.5127" x="27" y="62.292">Builder</text><rect fill="#E2E2F0" height="30.2969" rx="2.5" ry="2.5" style="stroke:#181818;stroke-width:0.5;" width="63.5127" x="20" y="771.6016"/><text fill="#000000" font-family="sans-serif" font-size="14" lengthAdjust="spacing" textLength="49.5127" x="27" y="791.5967">Builder</text><rect fill="#E2E2F0" height="30.2969" rx="2.5" ry="2.5" style="stroke:#181818;stroke-width:0.5;" width="143.1855" x="93.5127" y="42.2969"/><text fill="#000000" font-family="sans-serif" font-size="14" lengthAdjust="spacing" textLength="129.1855" x="100.5127" y="62.292">&#171;component&#187; :kvs</text><rect fill="#E2E2F0" height="30.2969" rx="2.5" ry="2.5" style="stroke:#181818;stroke-width:0.5;" width="143.1855" x="93.5127" y="771.6016"/><text fill="#000000" font-family="sans-serif" font-size="14" lengthAdjust="spacing" textLength="129.1855" x="100.5127" y="791.5967">&#171;component&#187; :kvs</text><rect fill="#E2E2F0" height="30.2969" rx="2.5" ry="2.5" style="stroke:#181818;stroke-width:0.5;" width="183.6064" x="246.6982" y="42.2969"/><text fill="#000000" font-family="sans-serif" font-size="14" lengthAdjust="spacing" textLength="169.6064" x="253.6982" y="62.292">&#171;component&#187; :TinyJSON</text><rect fill="#E2E2F0" height="30.2969" rx="2.5" ry="2.5" style="stroke:#181818;stroke-width:0.5;" width="183.6064" x="246.6982" y="771.6016"/><text fill="#000000" font-family="sans-serif" font-size="14" lengthAdjust="spacing" textLength="169.6064" x="253.6982" y="791.5967">&#171;component&#187; :TinyJSON</text><rect fill="#E2E2F0" height="30.2969" rx="2.5" ry="2.5" style="stroke:#181818;stroke-width:0.5;" width="131.7217" x="440.3047" y="42.2969"/><text fill="#000000" font-family="sans-serif" font-size="14" lengthAdjust="spacing" textLength="117.7217" x="447.3047" y="62.292">&#171;component&#187; :fs</text><rect fill="#E2E2F0" height="30.2969" rx="2.5" ry="2.5" style="stroke:#181818;stroke-width:0.5;" width="131.7217" x="440.3047" y="771.6016"/><text fill="#000000" font-family="sans-serif" font-size="14" lengthAdjust="spacing" textLength="117.7217" x="447.3047" y="791.5967">&#171;component&#187; :fs</text><rect fill="#E2E2F0" height="30.2969" rx="2.5" ry="2.5" style="stroke:#181818;stroke-width:0.5;" width="174.0361" x="582.0264" y="42.2969"/><text fill="#000000" font-family="sans-serif" font-size="14" lengthAdjust="spacing" textLength="160.0361" x="589.0264" y="62.292">&#171;component&#187; :Adler32</text><rect fill="#E2E2F0" height="30.2969" rx="2.5" ry="2.5" style="stroke:#181818;stroke-width:0.5;" width="174.0361" x="582.0264" y="771.6016"/><text fill="#000000" font-family="sans-serif" font-size="14" lengthAdjust="spacing" textLength="160.0361" x="589.0264" y="791.5967">&#171;component&#187; :Adler32</text><polygon fill="#181818" points="153.1055,100.7266,163.1055,104.7266,153.1055,108.7266,157.1055,104.7266" style="stroke:#181818;stroke-width:1;"/><line style="stroke:#181818;stroke-width:1;" x1="51.7563" x2="159.1055" y1="104.7266" y2="104.7266"/><text fill="#000000" font-family="sans-serif" font-size="13" lengthAdjust="spacing" textLength="64.5239" x="58.7563" y="99.6606">Open KVS</text><polygon fill="#181818" points="494.1655,129.8594,504.1655,133.8594,494.1655,137.8594,498.1655,133.8594" style="stroke:#181818;stroke-width:1;"/><line style="stroke:#181818;stroke-width:1;" x1="165.1055" x2="500.1655" y1="133.8594" y2="133.8594"/><text fill="#000000" font-family="sans-serif" font-size="13" lengthAdjust="spacing" textLength="113.8262" x="172.1055" y="128.7935">Read defaults file</text><path d="M10,148.8594 L74.4429,148.8594 L74.4429,155.9922 L64.4429,165.9922 L10,165.9922 L10,148.8594 " fill="#EEEEEE" style="stroke:#000000;stroke-width:1.5;"/><rect fill="transparent" height="119.3359" style="stroke:#000000;stroke-width:1.5;" width="572.0264" x="10" y="148.8594"/><text fill="#000000" font-family="sans-serif" font-size="13" font-weight="bold" lengthAdjust="spacing" textLength="19.4429" x="25" y="161.9263">alt</text><text fill="#000000" font-family="sans-serif" font-size="11" font-weight="bold" lengthAdjust="spacing" textLength="71.0864" x="89.4429" y="161.0698">[file-exists]</text><polygon fill="#181818" points="176.1055,183.125,166.1055,187.125,176.1055,191.125,172.1055,187.125" style="stroke:#181818;stroke-width:1;"/><line style="stroke:#181818;stroke-width:1;stroke-dasharray:2.0,2.0;" x1="170.1055" x2="505.1655" y1="187.125" y2="187.125"/><text fill="#000000" font-family="sans-serif" font-size="13" lengthAdjust="spacing" textLength="178.4263" x="182.1055" y="182.0591">Defaults file content (JSON)</text><line style="stroke:#000000;stroke-width:1;stroke-dasharray:2.0,2.0;" x1="10" x2="582.0264" y1="196.125" y2="196.125"/><text fill="#000000" font-family="sans-serif" font-size="11" font-weight="bold" lengthAdjust="spacing" textLength="107.4434" x="15" y="206.3354">[file-based-error]</text><polygon fill="#181818" points="176.1055,227.0625,166.1055,231.0625,176.1055,235.0625,172.1055,231.0625" style="stroke:#181818;stroke-width:1;"/><line style="stroke:#181818;stroke-width:1;stroke-dasharray:2.0,2.0;" x1="170.1055" x2="505.1655" y1="231.0625" y2="231.0625"/><text fill="#000000" font-family="sans-serif" font-size="13" lengthAdjust="spacing" textLength="59.5918" x="182.1055" y="225.9966">File-Error</text><polygon fill="#181818" points="62.7563,256.1953,52.7563,260.1953,62.7563,264.1953,58.7563,260.1953" style="stroke:#181818;stroke-width:1;"/><line style="stroke:#181818;stroke-width:1;" x1="56.7563" x2="164.1055" y1="260.1953" y2="260.1953"/><text fill="#000000" font-family="sans-serif" font-size="13" lengthAdjust="spacing" textLength="59.5918" x="68.7563" y="255.1294">File-Error</text><polygon fill="#181818" points="494.1655,292.3281,504.1655,296.3281,494.1655,300.3281,498.1655,296.3281" style="stroke:#181818;stroke-width:1;"/><line style="stroke:#181818;stroke-width:1;" x1="165.1055" x2="500.1655" y1="296.3281" y2="296.3281"/><text fill="#000000" font-family="sans-serif" font-size="13" lengthAdjust="spacing" textLength="149.1763" x="172.1055" y="291.2622">Read defaults file hash</text><path d="M10,311.3281 L74.4429,311.3281 L74.4429,318.4609 L64.4429,328.4609 L10,328.4609 L10,311.3281 " fill="#EEEEEE" style="stroke:#000000;stroke-width:1.5;"/><rect fill="transparent" height="119.3359" style="stroke:#000000;stroke-width:1.5;" width="572.0264" x="10" y="311.3281"/><text fill="#000000" font-family="sans-serif" font-size="13" font-weight="bold" lengthAdjust="spacing" textLength="19.4429" x="25" y="324.395">alt</text><text fill="#000000" font-family="sans-serif" font-size="11" font-weight="bold" lengthAdjust="spacing" textLength="71.0864" x="89.4429" y="323.5386">[file-exists]</text><polygon fill="#181818" points="176.1055,345.5938,166.1055,349.5938,176.1055,353.5938,172.1055,349.5938" style="stroke:#181818;stroke-width:1;"/><line style="stroke:#181818;stroke-width:1;stroke-dasharray:2.0,2.0;" x1="170.1055" x2="505.1655" y1="349.5938" y2="349.5938"/><text fill="#000000" font-family="sans-serif" font-size="13" lengthAdjust="spacing" textLength="113.5532" x="182.1055" y="344.5278">Defaults file hash</text><line style="stroke:#000000;stroke-width:1;stroke-dasharray:2.0,2.0;" x1="10" x2="582.0264" y1="358.5938" y2="358.5938"/><text fill="#000000" font-family="sans-serif" font-size="11" font-weight="bold" lengthAdjust="spacing" textLength="107.4434" x="15" y="368.8042">[file-based-error]</text><polygon fill="#181818" points="176.1055,389.5313,166.1055,393.5313,176.1055,397.5313,172.1055,393.5313" style="stroke:#181818;stroke-width:1;"/><line style="stroke:#181818;stroke-width:1;stroke-dasharray:2.0,2.0;" x1="170.1055" x2="505.1655" y1="393.5313" y2="393.5313"/><text fill="#000000" font-family="sans-serif" font-size="13" lengthAdjust="spacing" textLength="59.5918" x="182.1055" y="388.4653">File-Error</text><polygon fill="#181818" points="62.7563,418.6641,52.7563,422.6641,62.7563,426.6641,58.7563,422.6641" style="stroke:#181818;stroke-width:1;"/><line style="stroke:#181818;stroke-width:1;" x1="56.7563" x2="164.1055" y1="422.6641" y2="422.6641"/><text fill="#000000" font-family="sans-serif" font-size="13" lengthAdjust="spacing" textLength="59.5918" x="68.7563" y="417.5981">File-Error</text><polygon fill="#181818" points="657.0444,454.7969,667.0444,458.7969,657.0444,462.7969,661.0444,458.7969" style="stroke:#181818;stroke-width:1;"/><line style="stroke:#181818;stroke-width:1;" x1="165.1055" x2="663.0444" y1="458.7969" y2="458.7969"/><text fill="#000000" font-family="sans-serif" font-size="13" lengthAdjust="spacing" textLength="176.6426" x="172.1055" y="453.731">Generate defaults file hash</text><polygon fill="#181818" points="176.1055,483.9297,166.1055,487.9297,176.1055,491.9297,172.1055,487.9297" style="stroke:#181818;stroke-width:1;"/><line style="stroke:#181818;stroke-width:1;stroke-dasharray:2.0,2.0;" x1="170.1055" x2="668.0444" y1="487.9297" y2="487.9297"/><text fill="#000000" font-family="sans-serif" font-size="13" lengthAdjust="spacing" textLength="184.8311" x="182.1055" y="482.8638">Defaults file generated hash</text><path d="M10,502.9297 L74.4429,502.9297 L74.4429,510.0625 L64.4429,520.0625 L10,520.0625 L10,502.9297 " fill="#EEEEEE" style="stroke:#000000;stroke-width:1.5;"/><rect fill="transparent" height="90.2031" style="stroke:#000000;stroke-width:1.5;" width="430.3047" x="10" y="502.9297"/><text fill="#000000" font-family="sans-serif" font-size="13" font-weight="bold" lengthAdjust="spacing" textLength="19.4429" x="25" y="515.9966">alt</text><text fill="#000000" font-family="sans-serif" font-size="11" font-weight="bold" lengthAdjust="spacing" textLength="96.7549" x="89.4429" y="515.1401">[hash-matches]</text><polygon fill="#181818" points="326.5015,537.1953,336.5015,541.1953,326.5015,545.1953,330.5015,541.1953" style="stroke:#181818;stroke-width:1;"/><line style="stroke:#181818;stroke-width:1;" x1="165.1055" x2="332.5015" y1="541.1953" y2="541.1953"/><text fill="#000000" font-family="sans-serif" font-size="13" lengthAdjust="spacing" textLength="105.5107" x="172.1055" y="536.1294">Parse JSON data</text><line style="stroke:#000000;stroke-width:1;stroke-dasharray:2.0,2.0;" x1="10" x2="440.3047" y1="550.1953" y2="550.1953"/><text fill="#000000" font-family="sans-serif" font-size="11" font-weight="bold" lengthAdjust="spacing" textLength="118.6045" x="15" y="560.4058">[hash-match-error]</text><polygon fill="#181818" points="62.7563,581.1328,52.7563,585.1328,62.7563,589.1328,58.7563,585.1328" style="stroke:#181818;stroke-width:1;"/><line style="stroke:#181818;stroke-width:1;" x1="56.7563" x2="164.1055" y1="585.1328" y2="585.1328"/><text fill="#000000" font-family="sans-serif" font-size="13" lengthAdjust="spacing" textLength="69.6465" x="68.7563" y="580.0669">Hash-Error</text><path d="M10,607.1328 L74.4429,607.1328 L74.4429,614.2656 L64.4429,624.2656 L10,624.2656 L10,607.1328 " fill="#EEEEEE" style="stroke:#000000;stroke-width:1.5;"/><rect fill="transparent" height="119.3359" style="stroke:#000000;stroke-width:1.5;" width="430.3047" x="10" y="607.1328"/><text fill="#000000" font-family="sans-serif" font-size="13" font-weight="bold" lengthAdjust="spacing" textLength="19.4429" x="25" y="620.1997">alt</text><text fill="#000000" font-family="sans-serif" font-size="11" font-weight="bold" lengthAdjust="spacing" textLength="109.3394" x="89.4429" y="619.3433">[parsing-success]</text><polygon fill="#181818" points="176.1055,641.3984,166.1055,645.3984,176.1055,649.3984,172.1055,645.3984" style="stroke:#181818;stroke-width:1;"/><line style="stroke:#181818;stroke-width:1;stroke-dasharray:2.0,2.0;" x1="170.1055" x2="337.5015" y1="645.3984" y2="645.3984"/><text fill="#000000" font-family="sans-serif" font-size="13" lengthAdjust="spacing" textLength="124.541" x="182.1055" y="640.3325">Parsed JSON object</text><line style="stroke:#000000;stroke-width:1;stroke-dasharray:2.0,2.0;" x1="10" x2="440.3047" y1="654.3984" y2="654.3984"/><text fill="#000000" font-family="sans-serif" font-size="11" font-weight="bold" lengthAdjust="spacing" textLength="134.4009" x="15" y="664.6089">[parsing-based-error]</text><polygon fill="#181818" points="176.1055,685.3359,166.1055,689.3359,176.1055,693.3359,172.1055,689.3359" style="stroke:#181818;stroke-width:1;"/><line style="stroke:#181818;stroke-width:1;" x1="170.1055" x2="337.5015" y1="689.3359" y2="689.3359"/><text fill="#000000" font-family="sans-serif" font-size="13" lengthAdjust="spacing" textLength="78.1587" x="182.1055" y="684.27">Parser-Error</text><polygon fill="#181818" points="62.7563,714.4688,52.7563,718.4688,62.7563,722.4688,58.7563,718.4688" style="stroke:#181818;stroke-width:1;"/><line style="stroke:#181818;stroke-width:1;" x1="56.7563" x2="164.1055" y1="718.4688" y2="718.4688"/><text fill="#000000" font-family="sans-serif" font-size="13" lengthAdjust="spacing" textLength="78.1587" x="68.7563" y="713.4028">Parser-Error</text><polygon fill="#181818" points="62.7563,750.6016,52.7563,754.6016,62.7563,758.6016,58.7563,754.6016" style="stroke:#181818;stroke-width:1;"/><line style="stroke:#181818;stroke-width:1;stroke-dasharray:2.0,2.0;" x1="56.7563" x2="164.1055" y1="754.6016" y2="754.6016"/><text fill="#000000" font-family="sans-serif" font-size="13" lengthAdjust="spacing" textLength="84.8745" x="68.7563" y="749.5356">KVS instance</text><!--SRC=[jLIzJiCm4Dxz5ATETCW2MmOaKFaH88eeOaM7VMaDhXti2u9duX7OU39ifoL91KKCP77Y- -xxkJXXpOPWHayDMKamqJZtk2pXcb3111b1MtPmuIIQk5bx2cGPMJiBE-VFuHPDGsCXQlIifQxHCemE6sqK-H5W09Ji_B3yyIRTidOs4dsyG_du738ohbjnDzg-discbndy49ozY-X0sychbhlQJdsW3FcztGnTO5X4Kf6DGx6VV9KmhSd2-UrCYFYOTgkm6fAY2Xl3KKCRYcs6yrr1Bpfm412lAdQiYIPzE4XdENg0dHHiBCW4QhllCP0goFiul4sAumGu-Ygj36M_Wo9PzOlT7FQlddFF_pbjvr_22LdooFITunRpay7vgbFrugMxOeai5nJwNdhdg8Ihj49w5Q3YqMz3TfszaCCafmdIIv844wUsyo8qKb9eDNjYdVSigbfLT_z0ablTDS7cV0SaVGx_uwG7vMxM7I0UxFYT1yRu3n2V]--></g></svg>