<svg xmlns="http://www.w3.org/2000/svg" xmlns:xlink="http://www.w3.org/1999/xlink" contentStyleType="text/css" data-diagram-type="SEQUENCE" height="791px" preserveAspectRatio="none" style="width:576px;height:791px;background:#FFFFFF;" version="1.1" viewBox="0 0 576 791" width="576px" zoomAndPan="magnify"><title>Sequence Diagram: Read Data into Local Representation (KvsValue)</title><defs/><g><text fill="#000000" font-family="sans-serif" font-size="14" font-weight="bold" lengthAdjust="spacing" textLength="539.834" x="18.7102" y="27.9951">Sequence Diagram: Read Data into Local Representation (KvsValue)</text><rect fill="transparent" height="119.3359" style="stroke:#000000;stroke-width:1.5;" width="558.2544" x="10" y="148.8594"/><rect fill="transparent" height="119.3359" style="stroke:#000000;stroke-width:1.5;" width="558.2544" x="10" y="311.3281"/><rect fill="transparent" height="90.2031" style="stroke:#000000;stroke-width:1.5;" width="416.5327" x="10" y="486.7969"/><rect fill="transparent" height="119.3359" style="stroke:#000000;stroke-width:1.5;" width="416.5327" x="10" y="591"/><g><title>User</title><rect fill="transparent" height="682.875" width="8" x="38.9551" y="73.5938"/><line style="stroke:#181818;stroke-width:0.5;stroke-dasharray:5.0,5.0;" x1="42" x2="42" y1="73.5938" y2="756.4688"/></g><g><title>&#171;component&#187; :kvs</title><rect fill="transparent" height="682.875" width="8" x="147.8296" y="73.5938"/><line style="stroke:#181818;stroke-width:0.5;stroke-dasharray:5.0,5.0;" x1="151.2368" x2="151.2368" y1="73.5938" y2="756.4688"/></g><g><title>&#171;component&#187; :json</title><rect fill="transparent" height="682.875" width="8" x="338.4722" y="73.5938"/><line style="stroke:#181818;stroke-width:0.5;stroke-dasharray:5.0,5.0;" x1="342.4116" x2="342.4116" y1="73.5938" y2="756.4688"/></g><g><title>&#171;component&#187; :fs</title><rect fill="transparent" height="682.875" width="8" x="488.3936" y="73.5938"/><line style="stroke:#181818;stroke-width:0.5;stroke-dasharray:5.0,5.0;" x1="491.5327" x2="491.5327" y1="73.5938" y2="756.4688"/></g><rect fill="#E2E2F0" height="30.2969" rx="2.5" ry="2.5" style="stroke:#181818;stroke-width:0.5;" width="45.9102" x="20" y="42.2969"/><text fill="#000000" font-family="sans-serif" font-size="14" lengthAdjust="spacing" textLength="31.9102" x="27" y="62.292">User</text><rect fill="#E2E2F0" height="30.2969" rx="2.5" ry="2.5" style="stroke:#181818;stroke-width:0.5;" width="45.9102" x="20" y="755.4688"/><text fill="#000000" font-family="sans-serif" font-size="14" lengthAdjust="spacing" textLength="31.9102" x="27" y="775.4639">User</text><rect fill="#E2E2F0" height="30.2969" rx="2.5" ry="2.5" style="stroke:#181818;stroke-width:0.5;" width="143.1855" x="80.2368" y="42.2969"/><text fill="#000000" font-family="sans-serif" font-size="14" lengthAdjust="spacing" textLength="129.1855" x="87.2368" y="62.292">&#171;component&#187; :kvs</text><rect fill="#E2E2F0" height="30.2969" rx="2.5" ry="2.5" style="stroke:#181818;stroke-width:0.5;" width="143.1855" x="80.2368" y="755.4688"/><text fill="#000000" font-family="sans-serif" font-size="14" lengthAdjust="spacing" textLength="129.1855" x="87.2368" y="775.4639">&#171;component&#187; :kvs</text><rect fill="#E2E2F0" height="30.2969" rx="2.5" ry="2.5" style="stroke:#181818;stroke-width:0.5;" width="148.1211" x="268.4116" y="42.2969"/><text fill="#000000" font-family="sans-serif" font-size="14" lengthAdjust="spacing" textLength="134.1211" x="275.4116" y="62.292">&#171;component&#187; :json</text><rect fill="#E2E2F0" height="30.2969" rx="2.5" ry="2.5" style="stroke:#181818;stroke-width:0.5;" width="148.1211" x="268.4116" y="755.4688"/><text fill="#000000" font-family="sans-serif" font-size="14" lengthAdjust="spacing" textLength="134.1211" x="275.4116" y="775.4639">&#171;component&#187; :json</text><rect fill="#E2E2F0" height="30.2969" rx="2.5" ry="2.5" style="stroke:#181818;stroke-width:0.5;" width="131.7217" x="426.5327" y="42.2969"/><text fill="#000000" font-family="sans-serif" font-size="14" lengthAdjust="spacing" textLength="117.7217" x="433.5327" y="62.292">&#171;component&#187; :fs</text><rect fill="#E2E2F0" height="30.2969" rx="2.5" ry="2.5" style="stroke:#181818;stroke-width:0.5;" width="131.7217" x="426.5327" y="755.4688"/><text fill="#000000" font-family="sans-serif" font-size="14" lengthAdjust="spacing" textLength="117.7217" x="433.5327" y="775.4639">&#171;component&#187; :fs</text><polygon fill="#181818" points="139.8296,100.7266,149.8296,104.7266,139.8296,108.7266,143.8296,104.7266" style="stroke:#181818;stroke-width:1;"/><line style="stroke:#181818;stroke-width:1;" x1="42.9551" x2="145.8296" y1="104.7266" y2="104.7266"/><text fill="#000000" font-family="sans-serif" font-size="13" lengthAdjust="spacing" textLength="64.5239" x="49.9551" y="99.6606">Open KVS</text><polygon fill="#181818" points="480.3936,129.8594,490.3936,133.8594,480.3936,137.8594,484.3936,133.8594" style="stroke:#181818;stroke-width:1;"/><line style="stroke:#181818;stroke-width:1;" x1="151.8296" x2="486.3936" y1="133.8594" y2="133.8594"/><text fill="#000000" font-family="sans-serif" font-size="13" lengthAdjust="spacing" textLength="113.8262" x="158.8296" y="128.7935">Read defaults file</text><path d="M10,148.8594 L74.4429,148.8594 L74.4429,155.9922 L64.4429,165.9922 L10,165.9922 L10,148.8594 " fill="#EEEEEE" style="stroke:#000000;stroke-width:1.5;"/><rect fill="transparent" height="119.3359" style="stroke:#000000;stroke-width:1.5;" width="558.2544" x="10" y="148.8594"/><text fill="#000000" font-family="sans-serif" font-size="13" font-weight="bold" lengthAdjust="spacing" textLength="19.4429" x="25" y="161.9263">alt</text><text fill="#000000" font-family="sans-serif" font-size="11" font-weight="bold" lengthAdjust="spacing" textLength="71.0864" x="89.4429" y="161.0698">[file-exists]</text><polygon fill="#181818" points="162.8296,183.125,152.8296,187.125,162.8296,191.125,158.8296,187.125" style="stroke:#181818;stroke-width:1;"/><line style="stroke:#181818;stroke-width:1;stroke-dasharray:2.0,2.0;" x1="156.8296" x2="491.3936" y1="187.125" y2="187.125"/><text fill="#000000" font-family="sans-serif" font-size="13" lengthAdjust="spacing" textLength="178.4263" x="168.8296" y="182.0591">Defaults file content (JSON)</text><line style="stroke:#000000;stroke-width:1;stroke-dasharray:2.0,2.0;" x1="10" x2="568.2544" y1="196.125" y2="196.125"/><text fill="#000000" font-family="sans-serif" font-size="11" font-weight="bold" lengthAdjust="spacing" textLength="107.4434" x="15" y="206.3354">[file-based-error]</text><polygon fill="#181818" points="162.8296,227.0625,152.8296,231.0625,162.8296,235.0625,158.8296,231.0625" style="stroke:#181818;stroke-width:1;"/><line style="stroke:#181818;stroke-width:1;stroke-dasharray:2.0,2.0;" x1="156.8296" x2="491.3936" y1="231.0625" y2="231.0625"/><text fill="#000000" font-family="sans-serif" font-size="13" lengthAdjust="spacing" textLength="59.5918" x="168.8296" y="225.9966">File-Error</text><polygon fill="#181818" points="53.9551,256.1953,43.9551,260.1953,53.9551,264.1953,49.9551,260.1953" style="stroke:#181818;stroke-width:1;"/><line style="stroke:#181818;stroke-width:1;" x1="47.9551" x2="150.8296" y1="260.1953" y2="260.1953"/><text fill="#000000" font-family="sans-serif" font-size="13" lengthAdjust="spacing" textLength="59.5918" x="59.9551" y="255.1294">File-Error</text><polygon fill="#181818" points="480.3936,292.3281,490.3936,296.3281,480.3936,300.3281,484.3936,296.3281" style="stroke:#181818;stroke-width:1;"/><line style="stroke:#181818;stroke-width:1;" x1="151.8296" x2="486.3936" y1="296.3281" y2="296.3281"/><text fill="#000000" font-family="sans-serif" font-size="13" lengthAdjust="spacing" textLength="149.1763" x="158.8296" y="291.2622">Read defaults file hash</text><path d="M10,311.3281 L74.4429,311.3281 L74.4429,318.4609 L64.4429,328.4609 L10,328.4609 L10,311.3281 " fill="#EEEEEE" style="stroke:#000000;stroke-width:1.5;"/><rect fill="transparent" height="119.3359" style="stroke:#000000;stroke-width:1.5;" width="558.2544" x="10" y="311.3281"/><text fill="#000000" font-family="sans-serif" font-size="13" font-weight="bold" lengthAdjust="spacing" textLength="19.4429" x="25" y="324.395">alt</text><text fill="#000000" font-family="sans-serif" font-size="11" font-weight="bold" lengthAdjust="spacing" textLength="71.0864" x="89.4429" y="323.5386">[file-exists]</text><polygon fill="#181818" points="162.8296,345.5938,152.8296,349.5938,162.8296,353.5938,158.8296,349.5938" style="stroke:#181818;stroke-width:1;"/><line style="stroke:#181818;stroke-width:1;stroke-dasharray:2.0,2.0;" x1="156.8296" x2="491.3936" y1="349.5938" y2="349.5938"/><text fill="#000000" font-family="sans-serif" font-size="13" lengthAdjust="spacing" textLength="113.5532" x="168.8296" y="344.5278">Defaults file hash</text><line style="stroke:#000000;stroke-width:1;stroke-dasharray:2.0,2.0;" x1="10" x2="568.2544" y1="358.5938" y2="358.5938"/><text fill="#000000" font-family="sans-serif" font-size="11" font-weight="bold" lengthAdjust="spacing" textLength="107.4434" x="15" y="368.8042">[file-based-error]</text><polygon fill="#181818" points="162.8296,389.5313,152.8296,393.5313,162.8296,397.5313,158.8296,393.5313" style="stroke:#181818;stroke-width:1;"/><line style="stroke:#181818;stroke-width:1;stroke-dasharray:2.0,2.0;" x1="156.8296" x2="491.3936" y1="393.5313" y2="393.5313"/><text fill="#000000" font-family="sans-serif" font-size="13" lengthAdjust="spacing" textLength="59.5918" x="168.8296" y="388.4653">File-Error</text><polygon fill="#181818" points="53.9551,418.6641,43.9551,422.6641,53.9551,426.6641,49.9551,422.6641" style="stroke:#181818;stroke-width:1;"/><line style="stroke:#181818;stroke-width:1;" x1="47.9551" x2="150.8296" y1="422.6641" y2="422.6641"/><text fill="#000000" font-family="sans-serif" font-size="13" lengthAdjust="spacing" textLength="59.5918" x="59.9551" y="417.5981">File-Error</text><line style="stroke:#181818;stroke-width:1;" x1="151.8296" x2="193.8296" y1="458.7969" y2="458.7969"/><line style="stroke:#181818;stroke-width:1;" x1="193.8296" x2="193.8296" y1="458.7969" y2="471.7969"/><line style="stroke:#181818;stroke-width:1;" x1="152.8296" x2="193.8296" y1="471.7969" y2="471.7969"/><polygon fill="#181818" points="162.8296,467.7969,152.8296,471.7969,162.8296,475.7969,158.8296,471.7969" style="stroke:#181818;stroke-width:1;"/><text fill="#000000" font-family="sans-serif" font-size="13" lengthAdjust="spacing" textLength="176.6426" x="158.8296" y="453.731">Generate defaults file hash</text><path d="M10,486.7969 L74.4429,486.7969 L74.4429,493.9297 L64.4429,503.9297 L10,503.9297 L10,486.7969 " fill="#EEEEEE" style="stroke:#000000;stroke-width:1.5;"/><rect fill="transparent" height="90.2031" style="stroke:#000000;stroke-width:1.5;" width="416.5327" x="10" y="486.7969"/><text fill="#000000" font-family="sans-serif" font-size="13" font-weight="bold" lengthAdjust="spacing" textLength="19.4429" x="25" y="499.8638">alt</text><text fill="#000000" font-family="sans-serif" font-size="11" font-weight="bold" lengthAdjust="spacing" textLength="135.2871" x="89.4429" y="499.0073">[hash-match-success]</text><polygon fill="#181818" points="330.4722,521.0625,340.4722,525.0625,330.4722,529.0625,334.4722,525.0625" style="stroke:#181818;stroke-width:1;"/><line style="stroke:#181818;stroke-width:1;" x1="151.8296" x2="336.4722" y1="525.0625" y2="525.0625"/><text fill="#000000" font-family="sans-serif" font-size="13" lengthAdjust="spacing" textLength="105.5107" x="158.8296" y="519.9966">Parse JSON data</text><line style="stroke:#000000;stroke-width:1;stroke-dasharray:2.0,2.0;" x1="10" x2="426.5327" y1="534.0625" y2="534.0625"/><text fill="#000000" font-family="sans-serif" font-size="11" font-weight="bold" lengthAdjust="spacing" textLength="118.6045" x="15" y="544.2729">[hash-match-error]</text><polygon fill="#181818" points="53.9551,565,43.9551,569,53.9551,573,49.9551,569" style="stroke:#181818;stroke-width:1;"/><line style="stroke:#181818;stroke-width:1;" x1="47.9551" x2="150.8296" y1="569" y2="569"/><text fill="#000000" font-family="sans-serif" font-size="13" lengthAdjust="spacing" textLength="69.6465" x="59.9551" y="563.9341">Hash-Error</text><path d="M10,591 L74.4429,591 L74.4429,598.1328 L64.4429,608.1328 L10,608.1328 L10,591 " fill="#EEEEEE" style="stroke:#000000;stroke-width:1.5;"/><rect fill="transparent" height="119.3359" style="stroke:#000000;stroke-width:1.5;" width="416.5327" x="10" y="591"/><text fill="#000000" font-family="sans-serif" font-size="13" font-weight="bold" lengthAdjust="spacing" textLength="19.4429" x="25" y="604.0669">alt</text><text fill="#000000" font-family="sans-serif" font-size="11" font-weight="bold" lengthAdjust="spacing" textLength="109.3394" x="89.4429" y="603.2104">[parsing-success]</text><polygon fill="#181818" points="162.8296,625.2656,152.8296,629.2656,162.8296,633.2656,158.8296,629.2656" style="stroke:#181818;stroke-width:1;"/><line style="stroke:#181818;stroke-width:1;stroke-dasharray:2.0,2.0;" x1="156.8296" x2="341.4722" y1="629.2656" y2="629.2656"/><text fill="#000000" font-family="sans-serif" font-size="13" lengthAdjust="spacing" textLength="124.541" x="168.8296" y="624.1997">Parsed JSON object</text><line style="stroke:#000000;stroke-width:1;stroke-dasharray:2.0,2.0;" x1="10" x2="426.5327" y1="638.2656" y2="638.2656"/><text fill="#000000" font-family="sans-serif" font-size="11" font-weight="bold" lengthAdjust="spacing" textLength="134.4009" x="15" y="648.4761">[parsing-based-error]</text><polygon fill="#181818" points="162.8296,669.2031,152.8296,673.2031,162.8296,677.2031,158.8296,673.2031" style="stroke:#181818;stroke-width:1;"/><line style="stroke:#181818;stroke-width:1;" x1="156.8296" x2="341.4722" y1="673.2031" y2="673.2031"/><text fill="#000000" font-family="sans-serif" font-size="13" lengthAdjust="spacing" textLength="78.1587" x="168.8296" y="668.1372">Parser-Error</text><polygon fill="#181818" points="53.9551,698.3359,43.9551,702.3359,53.9551,706.3359,49.9551,702.3359" style="stroke:#181818;stroke-width:1;"/><line style="stroke:#181818;stroke-width:1;" x1="47.9551" x2="150.8296" y1="702.3359" y2="702.3359"/><text fill="#000000" font-family="sans-serif" font-size="13" lengthAdjust="spacing" textLength="78.1587" x="59.9551" y="697.27">Parser-Error</text><polygon fill="#181818" points="53.9551,734.4688,43.9551,738.4688,53.9551,742.4688,49.9551,738.4688" style="stroke:#181818;stroke-width:1;"/><line style="stroke:#181818;stroke-width:1;stroke-dasharray:2.0,2.0;" x1="47.9551" x2="150.8296" y1="738.4688" y2="738.4688"/><text fill="#000000" font-family="sans-serif" font-size="13" lengthAdjust="spacing" textLength="84.8745" x="59.9551" y="733.4028">KVS instance</text><!--SRC=[jLDBRi8m4Dtx52DMiCW5ikYAVbIgKXMLRJKu4p0DTkgPeDwfH-YEazLse2H8K7NHRFoPz_F45YCLmOpU6xAQO6nmwN6JmpDX0MCK16F5mOFJM8NDsXEJ5HJZB0mdMvvZrT18gHgz66rgj0A35oO_06H0BSxtQxjFxJQriq5bzmNvsvOJCemNSMjsDW7Zv3KWWyL5GjdgbgnKIW7PLJJ9OLgJXSbyfbHOnjsIzySjgCIcaa0o5GLQ9McMqOTXOGNXAmFZ83Jkma4xAy4QXlUpwUD8KSNKiXV8L6JaVUZ4gSHD15p_bFQ1KjvUaMpnIrnO8Q_-cZbn_Yzf8jwI9Oz2P-F6MRP1qQkC6ws9kUlG-TqvFCKHOeEX25UpZTxXqvbyTn7IoHTjewQnovvdn-nuycHQjAvkiIOjhUz1uBHhFP6kXZ_RlrxvsC4Z85pNy0vPCBnHzGq0]--></g></svg>