<svg host="65bd71144e" xmlns="http://www.w3.org/2000/svg" style="background: #ffffff; background-color: light-dark(#ffffff, #121212);" xmlns:xlink="http://www.w3.org/1999/xlink" version="1.1" width="571px" height="229px" viewBox="-0.5 -0.5 571 229" content="&lt;mxfile scale=&quot;1&quot; border=&quot;0&quot;&gt;&lt;diagram name=&quot;Page-1&quot; id=&quot;T3BMX8OljUpALTbiXzM3&quot;&gt;7Vpbb+I4FP41SO1KRUmchPBY6NDZlVY7Umc1M/tmEhOsMTGbmEvn1+8xdu4JDddtJXiA+PgS5/j7Ph8f0kPjxfY5xsv5nzwgrGcZwbaHnnqWNUBD+JaGV2VwXEMZwpgGymTmhhf6i2hj2mxFA5KUGgrOmaDLstHnUUR8UbLhOOabcrMZZ+W7LnFIaoYXH7O69RsNxFxZPcfI7Z8JDefpnU1D10yx/zOM+SrS9+tZaLb7qOoFTsfS7ZM5DvimYEKfemgccy7U1WI7Jky6NnWb6jdpqc3mHZNIdOnwDT+LyT+vxmRACRHD+eSP2d8PthpljdlK++P3KBHxagGDkqBnuXix7KFRNE3kD5QZ3GsU0DVchvJySiMcv6YVcPdCnX5u8Zr6GkbmPzM3m9BkLhZMX4J/lrLdYhtKoPVnjG/8OY5FP+D+bkLgstFmTgV5WWJfNt1AQ9lTgcroW055yN3qEPn8BpQYnhI2ylZtzBmPoSriEZGD7OaWGmExDc8xhz7UzChjBXtAyHQ2yHoUnybAyTy73ZzH9BePBM4eEGZNo7Bc+srhCZ4evMxdxQXVa7wmsSDbgkkv8DPhCyKk9w1di5AGmyajpdd3kyPbTIk3L6DaRppQmkxhNnIOKLjQmDoAX6ZTA1gDiFLTDNwlOaxWF6z/riQ7Rp8JWxNBfZyb0q4vfCY24LI2qMKs1ajlO1WBes4pJXwV+yBplnEHTgPz6P7A2VRp08qMxQqE8iHlh6RjBu+/VoJRiewd2iSEYLLskdEwkkPRIJDDvxu2aA4DYNEI60n6UoRivQgTvKBMwjr3vKrQW4pp6XJ684DM8IrlDj2JWFaFV0adV6iJV97pvEJmDRAkgC1MF/WCFNaRbKn4Xrj+sdNGR5eettrju8JrofCFxBRmJz2ubBHM9Puus+FZqUGOZvaNrJyPtyulA+Zgqi91CTv5MpURYjUBoRXGnRBitiKkBezFuQHdHmW4UeQA2CZULpx2QJC28BlOEuoro25i1slh7D6p76r+b4WtEhgdbmnlhrmERDdL20mY7AV3TBgWdF2OhJqwuusKD4dfCw2WnEYiKYz8RRpyzpjDYYk0pjGo4F6N2NLbMSq9K1xSXtC9KnTKnrETwzI5qG9SWv5z7qViLyselGg9QgPTXm6VoGebQX3P+ArLC/4aJ7DQs1JTP8NEbkzRUdtfnsfj1v2kIhRlFjbFTgXdqIDTD8jUmzZpPXLREAXn5+dFFdwcvi3hTaGRs4cWXSU8hXJ3Cc+ktyi7WsT3qG5dQjuJyN7Q7bLK0tmFqEsg+ZUkoi0ShIA7aqSyJp+kcRxO71y4E0zHyH/vFUnz2Oqh0EXEOEpS/44OjQbVpG7R4IeOBj10vWjQqZ/YG3gw5tGMhqsYOMijG64+Cq6yDSjbo654znCcI88Z+dniR+E0cdQ5w0bu7ZzxPs8Z9rs9Z1h25aQwMCq433vO8Cq9vW7njIZpeOWBqpGjct05Dixu/cAyWlEWgInxsK7st7RrS9p1b4R8fNp1aDacLawG2TZOl23XutLZ4qa0l1Paoqq670RV3YqcmeYBqlrtPbCOE1WEyuO4lT8qzqip6Mjw56A065Hca0TTjZCHELKRVG+GPU0Ebf8j9Qp5EPfgKD2Pri2niDrzDczd4HV5eLmtUfWpcl9X5EqM4lVijxYlPXjbqBxhTXtPMH6MTLfnP05N8FUzd09kCWtPIp/K9F1Lyu6WRLlAEqUWeTcQqWtyLvsf6Ro5FHd4vDqXxDmX45aAIMu92MNBKQAZGmm5ewbmJvVXkHq3IdT3rhU1uDXVHHNYH/lunGUEWOCGJPLdb/3Qj7gSSXkd4PuuueRbxuHNF71OEjnb+/9e9HIH1zgp7U0U305PH0Lz9r1yWtJB9yIhr11JDNt23+mUhjgmLvVqChv6fF1jyilvZEzg43lNEha4U9dxzw/IPD96VrXKpOkCL19AMX+nWi1k/t46+vQf&lt;/diagram&gt;&lt;/mxfile&gt;">
    <defs/>
    <rect fill="#ffffff" width="100%" height="100%" x="0" y="0" style="fill: light-dark(rgb(255, 255, 255), rgb(18, 18, 18));"/>
    <g>
        <g>
            <path d="M 415 4 C 417.76 4 420 6.24 420 9 L 420 41.63 Q 392.5 31.95 365 41.63 Q 337.5 51.3 310 41.63 L 310 9.38 L 310 9 C 310 6.24 312.24 4 315 4 Z" fill="#deebf7" stroke="#08519c" stroke-miterlimit="10" pointer-events="all" style="fill: light-dark(rgb(222, 235, 247), rgb(27, 38, 48)); stroke: light-dark(rgb(8, 81, 156), rgb(122, 185, 249));"/>
        </g>
        <g>
            <g transform="translate(-0.5 -0.5)">
                <switch>
                    <foreignObject style="overflow: visible; text-align: left;" pointer-events="none" width="100%" height="100%" requiredFeatures="http://www.w3.org/TR/SVG11/feature#Extensibility">
                        <div xmlns="http://www.w3.org/1999/xhtml" style="display: flex; align-items: unsafe center; justify-content: unsafe center; width: 110px; height: 1px; padding-top: 22px; margin-left: 310px;">
                            <div style="box-sizing: border-box; font-size: 0; text-align: center; color: #000000; ">
                                <div style="display: inline-block; font-size: 12px; font-family: &quot;Helvetica&quot;; color: light-dark(#000000, #ffffff); line-height: 1.2; pointer-events: all; white-space: normal; word-wrap: normal; ">
                                    Instrumented
                                    <div>
                                        binary
                                    </div>
                                </div>
                            </div>
                        </div>
                    </foreignObject>
                    <text x="365" y="25" fill="light-dark(#000000, #ffffff)" font-family="&quot;Helvetica&quot;" font-size="12px" text-anchor="middle">
                        Instrumented...
                    </text>
                </switch>
            </g>
        </g>
        <g>
            <path d="M 14.77 3.98 C 14.77 2.93 15.55 1.91 16.94 1.17 C 18.32 0.42 20.2 0 22.16 0 L 122.61 0 C 124.57 0 126.45 0.42 127.84 1.17 C 129.22 1.91 130 2.93 130 3.98 L 130 35.83 C 111.59 31.63 90.8 31.63 72.39 35.83 C 53.97 40.04 33.19 40.04 14.77 35.83 Z" fill="#deebf7" stroke="#08519c" stroke-miterlimit="10" pointer-events="all" style="fill: light-dark(rgb(222, 235, 247), rgb(27, 38, 48)); stroke: light-dark(rgb(8, 81, 156), rgb(122, 185, 249));"/>
            <path d="M 7.39 7.96 C 7.39 6.91 8.16 5.89 9.55 5.15 C 10.93 4.4 12.81 3.98 14.77 3.98 L 115.23 3.98 C 117.19 3.98 119.07 4.4 120.45 5.15 C 121.84 5.89 122.61 6.91 122.61 7.96 L 122.61 39.81 C 104.2 35.61 83.41 35.61 65 39.81 C 46.59 44.02 25.8 44.02 7.39 39.81 Z" fill="#deebf7" stroke="#08519c" stroke-miterlimit="10" pointer-events="all" style="fill: light-dark(rgb(222, 235, 247), rgb(27, 38, 48)); stroke: light-dark(rgb(8, 81, 156), rgb(122, 185, 249));"/>
            <path d="M 0 11.94 C 0 9.75 3.31 7.96 7.39 7.96 L 107.84 7.96 C 111.92 7.96 115.23 9.75 115.23 11.94 L 115.23 43.8 C 96.81 39.59 76.03 39.59 57.61 43.8 C 39.2 48 18.41 48 0 43.8 Z" fill="#deebf7" stroke="#08519c" stroke-miterlimit="10" pointer-events="all" style="fill: light-dark(rgb(222, 235, 247), rgb(27, 38, 48)); stroke: light-dark(rgb(8, 81, 156), rgb(122, 185, 249));"/>
        </g>
        <g>
            <g transform="translate(-0.5 -0.5)">
                <switch>
                    <foreignObject style="overflow: visible; text-align: left;" pointer-events="none" width="100%" height="100%" requiredFeatures="http://www.w3.org/TR/SVG11/feature#Extensibility">
                        <div xmlns="http://www.w3.org/1999/xhtml" style="display: flex; align-items: unsafe center; justify-content: unsafe center; width: 1px; height: 1px; padding-top: 24px; margin-left: 65px;">
                            <div style="box-sizing: border-box; font-size: 0; text-align: center; color: #000000; ">
                                <div style="display: inline-block; font-size: 12px; font-family: &quot;Helvetica&quot;; color: light-dark(#000000, #ffffff); line-height: 1.2; pointer-events: all; white-space: nowrap; ">
                                    <div>
                                        <font face="Helvetica">
                                            Software
                                        </font>
                                    </div>
                                    <div>
                                        <font face="Helvetica">
                                            sources (C++)
                                        </font>
                                    </div>
                                </div>
                            </div>
                        </div>
                    </foreignObject>
                    <text x="65" y="28" fill="light-dark(#000000, #ffffff)" font-family="&quot;Helvetica&quot;" font-size="12px" text-anchor="middle">
                        Software...
                    </text>
                </switch>
            </g>
        </g>
        <g>
            <path d="M 130 87 L 169 87 Q 179 87 179.01 77 L 179.02 60.26" fill="none" stroke="#000000" stroke-width="2" stroke-miterlimit="10" pointer-events="stroke" style="stroke: light-dark(rgb(0, 0, 0), rgb(255, 255, 255));"/>
            <path d="M 179.02 54.26 L 183.01 62.26 L 179.02 60.26 L 175.01 62.25 Z" fill="#000000" stroke="#000000" stroke-width="2" stroke-miterlimit="10" pointer-events="all" style="fill: light-dark(rgb(0, 0, 0), rgb(255, 255, 255)); stroke: light-dark(rgb(0, 0, 0), rgb(255, 255, 255));"/>
        </g>
        <g>
            <rect x="170" y="0" width="110" height="51" rx="7.65" ry="7.65" fill="#cdeb8b" stroke="#36393d" pointer-events="all" style="fill: light-dark(rgb(205, 235, 139), rgb(32, 58, 0)); stroke: light-dark(rgb(54, 57, 61), rgb(186, 189, 192));"/>
        </g>
        <g>
            <g transform="translate(-0.5 -0.5)">
                <switch>
                    <foreignObject style="overflow: visible; text-align: left;" pointer-events="none" width="100%" height="100%" requiredFeatures="http://www.w3.org/TR/SVG11/feature#Extensibility">
                        <div xmlns="http://www.w3.org/1999/xhtml" style="display: flex; align-items: unsafe center; justify-content: unsafe center; width: 108px; height: 1px; padding-top: 26px; margin-left: 171px;">
                            <div style="box-sizing: border-box; font-size: 0; text-align: center; color: #000000; ">
                                <div style="display: inline-block; font-size: 12px; font-family: &quot;Helvetica&quot;; color: light-dark(#000000, #ffffff); line-height: 1.2; pointer-events: all; white-space: normal; word-wrap: normal; ">
                                    <font color="#000000" face="Times,serif" style="font-size: 14px; color: light-dark(rgb(0, 0, 0), rgb(237, 237, 237));">
                                        GCC
                                    </font>
                                </div>
                            </div>
                        </div>
                    </foreignObject>
                    <text x="225" y="29" fill="light-dark(#000000, #ffffff)" font-family="&quot;Helvetica&quot;" font-size="12px" text-anchor="middle">
                        GCC
                    </text>
                </switch>
            </g>
        </g>
        <g>
            <path d="M 130 24.93 L 161.76 25.38" fill="none" stroke="#000000" stroke-width="2" stroke-miterlimit="10" pointer-events="stroke" style="stroke: light-dark(rgb(0, 0, 0), rgb(255, 255, 255));"/>
            <path d="M 167.76 25.47 L 159.71 29.35 L 161.76 25.38 L 159.82 21.35 Z" fill="#000000" stroke="#000000" stroke-width="2" stroke-miterlimit="10" pointer-events="all" style="fill: light-dark(rgb(0, 0, 0), rgb(255, 255, 255)); stroke: light-dark(rgb(0, 0, 0), rgb(255, 255, 255));"/>
        </g>
        <g>
            <path d="M 14.77 66.98 C 14.77 65.93 15.55 64.91 16.94 64.17 C 18.32 63.42 20.2 63 22.16 63 L 122.61 63 C 124.57 63 126.45 63.42 127.84 64.17 C 129.22 64.91 130 65.93 130 66.98 L 130 98.83 C 111.59 94.63 90.8 94.63 72.39 98.83 C 53.97 103.04 33.19 103.04 14.77 98.83 Z" fill="#deebf7" stroke="#08519c" stroke-miterlimit="10" pointer-events="all" style="fill: light-dark(rgb(222, 235, 247), rgb(27, 38, 48)); stroke: light-dark(rgb(8, 81, 156), rgb(122, 185, 249));"/>
            <path d="M 7.39 70.96 C 7.39 69.91 8.16 68.89 9.55 68.15 C 10.93 67.4 12.81 66.98 14.77 66.98 L 115.23 66.98 C 117.19 66.98 119.07 67.4 120.45 68.15 C 121.84 68.89 122.61 69.91 122.61 70.96 L 122.61 102.81 C 104.2 98.61 83.41 98.61 65 102.81 C 46.59 107.02 25.8 107.02 7.39 102.81 Z" fill="#deebf7" stroke="#08519c" stroke-miterlimit="10" pointer-events="all" style="fill: light-dark(rgb(222, 235, 247), rgb(27, 38, 48)); stroke: light-dark(rgb(8, 81, 156), rgb(122, 185, 249));"/>
            <path d="M 0 74.94 C 0 72.75 3.31 70.96 7.39 70.96 L 107.84 70.96 C 111.92 70.96 115.23 72.75 115.23 74.94 L 115.23 106.8 C 96.81 102.59 76.03 102.59 57.61 106.8 C 39.2 111 18.41 111 0 106.8 Z" fill="#deebf7" stroke="#08519c" stroke-miterlimit="10" pointer-events="all" style="fill: light-dark(rgb(222, 235, 247), rgb(27, 38, 48)); stroke: light-dark(rgb(8, 81, 156), rgb(122, 185, 249));"/>
        </g>
        <g>
            <g transform="translate(-0.5 -0.5)">
                <switch>
                    <foreignObject style="overflow: visible; text-align: left;" pointer-events="none" width="100%" height="100%" requiredFeatures="http://www.w3.org/TR/SVG11/feature#Extensibility">
                        <div xmlns="http://www.w3.org/1999/xhtml" style="display: flex; align-items: unsafe center; justify-content: unsafe center; width: 1px; height: 1px; padding-top: 87px; margin-left: 65px;">
                            <div style="box-sizing: border-box; font-size: 0; text-align: center; color: #000000; ">
                                <div style="display: inline-block; font-size: 12px; font-family: &quot;Helvetica&quot;; color: light-dark(#000000, #ffffff); line-height: 1.2; pointer-events: all; white-space: nowrap; ">
                                    <div>
                                        Test
                                        <span style="color: light-dark(rgb(63, 63, 63), rgb(183, 183, 183)); background-color: transparent;">
                                            sources (C++)
                                        </span>
                                    </div>
                                </div>
                            </div>
                        </div>
                    </foreignObject>
                    <text x="65" y="91" fill="light-dark(#000000, #ffffff)" font-family="&quot;Helvetica&quot;" font-size="12px" text-anchor="middle">
                        Test sources (C++)
                    </text>
                </switch>
            </g>
        </g>
        <g>
            <path d="M 104.77 183.98 C 104.77 182.93 105.55 181.91 106.94 181.17 C 108.32 180.42 110.2 180 112.16 180 L 212.61 180 C 214.57 180 216.45 180.42 217.84 181.17 C 219.22 181.91 220 182.93 220 183.98 L 220 215.83 C 201.59 211.63 180.8 211.63 162.39 215.83 C 143.97 220.04 123.19 220.04 104.77 215.83 Z" fill="#deebf7" stroke="#08519c" stroke-miterlimit="10" pointer-events="all" style="fill: light-dark(rgb(222, 235, 247), rgb(27, 38, 48)); stroke: light-dark(rgb(8, 81, 156), rgb(122, 185, 249));"/>
            <path d="M 97.39 187.96 C 97.39 186.91 98.16 185.89 99.55 185.15 C 100.93 184.4 102.81 183.98 104.77 183.98 L 205.23 183.98 C 207.19 183.98 209.07 184.4 210.45 185.15 C 211.84 185.89 212.61 186.91 212.61 187.96 L 212.61 219.81 C 194.2 215.61 173.41 215.61 155 219.81 C 136.59 224.02 115.8 224.02 97.39 219.81 Z" fill="#deebf7" stroke="#08519c" stroke-miterlimit="10" pointer-events="all" style="fill: light-dark(rgb(222, 235, 247), rgb(27, 38, 48)); stroke: light-dark(rgb(8, 81, 156), rgb(122, 185, 249));"/>
            <path d="M 90 191.94 C 90 189.75 93.31 187.96 97.39 187.96 L 197.84 187.96 C 201.92 187.96 205.23 189.75 205.23 191.94 L 205.23 223.8 C 186.81 219.59 166.03 219.59 147.61 223.8 C 129.2 228 108.41 228 90 223.8 Z" fill="#deebf7" stroke="#08519c" stroke-miterlimit="10" pointer-events="all" style="fill: light-dark(rgb(222, 235, 247), rgb(27, 38, 48)); stroke: light-dark(rgb(8, 81, 156), rgb(122, 185, 249));"/>
        </g>
        <g>
            <g transform="translate(-0.5 -0.5)">
                <switch>
                    <foreignObject style="overflow: visible; text-align: left;" pointer-events="none" width="100%" height="100%" requiredFeatures="http://www.w3.org/TR/SVG11/feature#Extensibility">
                        <div xmlns="http://www.w3.org/1999/xhtml" style="display: flex; align-items: unsafe center; justify-content: unsafe center; width: 1px; height: 1px; padding-top: 204px; margin-left: 155px;">
                            <div style="box-sizing: border-box; font-size: 0; text-align: center; color: #000000; ">
                                <div style="display: inline-block; font-size: 12px; font-family: &quot;Helvetica&quot;; color: light-dark(#000000, #ffffff); line-height: 1.2; pointer-events: all; white-space: nowrap; ">
                                    <div>
                                        Configuration
                                    </div>
                                </div>
                            </div>
                        </div>
                    </foreignObject>
                    <text x="155" y="208" fill="light-dark(#000000, #ffffff)" font-family="&quot;Helvetica&quot;" font-size="12px" text-anchor="middle">
                        Configuration
                    </text>
                </switch>
            </g>
        </g>
        <g>
            <path d="M 155 180 L 210.92 154.19 Q 220 150 219.79 140 L 218.13 60.25" fill="none" stroke="#000000" stroke-width="2" stroke-miterlimit="10" pointer-events="stroke" style="stroke: light-dark(rgb(0, 0, 0), rgb(255, 255, 255));"/>
            <path d="M 218.01 54.26 L 222.17 62.17 L 218.13 60.25 L 214.17 62.34 Z" fill="#000000" stroke="#000000" stroke-width="2" stroke-miterlimit="10" pointer-events="all" style="fill: light-dark(rgb(0, 0, 0), rgb(255, 255, 255)); stroke: light-dark(rgb(0, 0, 0), rgb(255, 255, 255));"/>
        </g>
        <g>
            <path d="M 417 71 C 419.76 71 422 73.24 422 76 L 422 106 Q 394 97 366 106 Q 338 115 310 106 L 310 76 L 310 76 C 310 73.24 312.24 71 315 71 Z" fill="#deebf7" stroke="#08519c" stroke-miterlimit="10" pointer-events="all" style="fill: light-dark(rgb(222, 235, 247), rgb(27, 38, 48)); stroke: light-dark(rgb(8, 81, 156), rgb(122, 185, 249));"/>
        </g>
        <g>
            <g transform="translate(-0.5 -0.5)">
                <switch>
                    <foreignObject style="overflow: visible; text-align: left;" pointer-events="none" width="100%" height="100%" requiredFeatures="http://www.w3.org/TR/SVG11/feature#Extensibility">
                        <div xmlns="http://www.w3.org/1999/xhtml" style="display: flex; align-items: unsafe center; justify-content: unsafe center; width: 112px; height: 1px; padding-top: 90px; margin-left: 310px;">
                            <div style="box-sizing: border-box; font-size: 0; text-align: center; color: #000000; ">
                                <div style="display: inline-block; font-size: 12px; font-family: &quot;Helvetica&quot;; color: light-dark(#000000, #ffffff); line-height: 1.2; pointer-events: all; white-space: normal; word-wrap: normal; ">
                                    Build log
                                </div>
                            </div>
                        </div>
                    </foreignObject>
                    <text x="366" y="94" fill="light-dark(#000000, #ffffff)" font-family="&quot;Helvetica&quot;" font-size="12px" text-anchor="middle">
                        Build log
                    </text>
                </switch>
            </g>
        </g>
        <g>
            <path d="M 248 52 L 248 81 Q 248 91 258 91 L 301.76 91" fill="none" stroke="#000000" stroke-width="2" stroke-miterlimit="10" pointer-events="stroke" style="stroke: light-dark(rgb(0, 0, 0), rgb(255, 255, 255));"/>
            <path d="M 307.76 91 L 299.76 95 L 301.76 91 L 299.76 87 Z" fill="#000000" stroke="#000000" stroke-width="2" stroke-miterlimit="10" pointer-events="all" style="fill: light-dark(rgb(0, 0, 0), rgb(255, 255, 255)); stroke: light-dark(rgb(0, 0, 0), rgb(255, 255, 255));"/>
        </g>
        <g>
            <path d="M 280 25.5 L 301.76 25.5" fill="none" stroke="#000000" stroke-width="2" stroke-miterlimit="10" pointer-events="stroke" style="stroke: light-dark(rgb(0, 0, 0), rgb(255, 255, 255));"/>
            <path d="M 307.76 25.5 L 299.76 29.5 L 301.76 25.5 L 299.76 21.5 Z" fill="#000000" stroke="#000000" stroke-width="2" stroke-miterlimit="10" pointer-events="all" style="fill: light-dark(rgb(0, 0, 0), rgb(255, 255, 255)); stroke: light-dark(rgb(0, 0, 0), rgb(255, 255, 255));"/>
        </g>
        <g>
            <path d="M 130 136.32 L 180.35 122.62 Q 190 120 191.08 110.06 L 196.61 59.19" fill="none" stroke="#000000" stroke-width="2" stroke-miterlimit="10" pointer-events="stroke" style="stroke: light-dark(rgb(0, 0, 0), rgb(255, 255, 255));"/>
            <path d="M 197.26 53.22 L 200.37 61.61 L 196.61 59.19 L 192.42 60.74 Z" fill="#000000" stroke="#000000" stroke-width="2" stroke-miterlimit="10" pointer-events="all" style="fill: light-dark(rgb(0, 0, 0), rgb(255, 255, 255)); stroke: light-dark(rgb(0, 0, 0), rgb(255, 255, 255));"/>
        </g>
        <g>
            <path d="M 14.77 133.98 C 14.77 132.93 15.55 131.91 16.94 131.17 C 18.32 130.42 20.2 130 22.16 130 L 122.61 130 C 124.57 130 126.45 130.42 127.84 131.17 C 129.22 131.91 130 132.93 130 133.98 L 130 165.83 C 111.59 161.63 90.8 161.63 72.39 165.83 C 53.97 170.04 33.19 170.04 14.77 165.83 Z" fill="#deebf7" stroke="#08519c" stroke-miterlimit="10" pointer-events="all" style="fill: light-dark(rgb(222, 235, 247), rgb(27, 38, 48)); stroke: light-dark(rgb(8, 81, 156), rgb(122, 185, 249));"/>
            <path d="M 7.39 137.96 C 7.39 136.91 8.16 135.89 9.55 135.15 C 10.93 134.4 12.81 133.98 14.77 133.98 L 115.23 133.98 C 117.19 133.98 119.07 134.4 120.45 135.15 C 121.84 135.89 122.61 136.91 122.61 137.96 L 122.61 169.81 C 104.2 165.61 83.41 165.61 65 169.81 C 46.59 174.02 25.8 174.02 7.39 169.81 Z" fill="#deebf7" stroke="#08519c" stroke-miterlimit="10" pointer-events="all" style="fill: light-dark(rgb(222, 235, 247), rgb(27, 38, 48)); stroke: light-dark(rgb(8, 81, 156), rgb(122, 185, 249));"/>
            <path d="M 0 141.94 C 0 139.75 3.31 137.96 7.39 137.96 L 107.84 137.96 C 111.92 137.96 115.23 139.75 115.23 141.94 L 115.23 173.8 C 96.81 169.59 76.03 169.59 57.61 173.8 C 39.2 178 18.41 178 0 173.8 Z" fill="#deebf7" stroke="#08519c" stroke-miterlimit="10" pointer-events="all" style="fill: light-dark(rgb(222, 235, 247), rgb(27, 38, 48)); stroke: light-dark(rgb(8, 81, 156), rgb(122, 185, 249));"/>
        </g>
        <g>
            <g transform="translate(-0.5 -0.5)">
                <switch>
                    <foreignObject style="overflow: visible; text-align: left;" pointer-events="none" width="100%" height="100%" requiredFeatures="http://www.w3.org/TR/SVG11/feature#Extensibility">
                        <div xmlns="http://www.w3.org/1999/xhtml" style="display: flex; align-items: unsafe center; justify-content: unsafe center; width: 1px; height: 1px; padding-top: 154px; margin-left: 65px;">
                            <div style="box-sizing: border-box; font-size: 0; text-align: center; color: #000000; ">
                                <div style="display: inline-block; font-size: 12px; font-family: &quot;Helvetica&quot;; color: light-dark(#000000, #ffffff); line-height: 1.2; pointer-events: all; white-space: nowrap; ">
                                    <span style="color: light-dark(rgb(63, 63, 63), rgb(183, 183, 183));">
                                        Dependencies
                                    </span>
                                </div>
                            </div>
                        </div>
                    </foreignObject>
                    <text x="65" y="158" fill="light-dark(#000000, #ffffff)" font-family="&quot;Helvetica&quot;" font-size="12px" text-anchor="middle">
                        Dependencies
                    </text>
                </switch>
            </g>
        </g>
        <g>
            <path d="M 514.67 43 L 514.94 81.76" fill="none" stroke="#000000" stroke-width="2" stroke-miterlimit="10" pointer-events="stroke" style="stroke: light-dark(rgb(0, 0, 0), rgb(255, 255, 255));"/>
            <path d="M 514.98 87.76 L 510.93 79.79 L 514.94 81.76 L 518.93 79.74 Z" fill="#000000" stroke="#000000" stroke-width="2" stroke-miterlimit="10" pointer-events="all" style="fill: light-dark(rgb(0, 0, 0), rgb(255, 255, 255)); stroke: light-dark(rgb(0, 0, 0), rgb(255, 255, 255));"/>
        </g>
        <g>
            <path d="M 565 4 C 567.76 4 570 6.24 570 9 L 570 41.63 Q 542.5 31.95 515 41.63 Q 487.5 51.3 460 41.63 L 460 9.38 L 460 9 C 460 6.24 462.24 4 465 4 Z" fill="#deebf7" stroke="#08519c" stroke-miterlimit="10" pointer-events="all" style="fill: light-dark(rgb(222, 235, 247), rgb(27, 38, 48)); stroke: light-dark(rgb(8, 81, 156), rgb(122, 185, 249));"/>
        </g>
        <g>
            <g transform="translate(-0.5 -0.5)">
                <switch>
                    <foreignObject style="overflow: visible; text-align: left;" pointer-events="none" width="100%" height="100%" requiredFeatures="http://www.w3.org/TR/SVG11/feature#Extensibility">
                        <div xmlns="http://www.w3.org/1999/xhtml" style="display: flex; align-items: unsafe center; justify-content: unsafe center; width: 110px; height: 1px; padding-top: 22px; margin-left: 460px;">
                            <div style="box-sizing: border-box; font-size: 0; text-align: center; color: #000000; ">
                                <div style="display: inline-block; font-size: 12px; font-family: &quot;Helvetica&quot;; color: light-dark(#000000, #ffffff); line-height: 1.2; pointer-events: all; white-space: normal; word-wrap: normal; ">
                                    Coverage data
                                    <div>
                                        (*.gcno, *.gcda)
                                    </div>
                                </div>
                            </div>
                        </div>
                    </foreignObject>
                    <text x="515" y="25" fill="light-dark(#000000, #ffffff)" font-family="&quot;Helvetica&quot;" font-size="12px" text-anchor="middle">
                        Coverage data...
                    </text>
                </switch>
            </g>
        </g>
        <g>
            <path d="M 420 25.5 L 451.76 25.5" fill="none" stroke="#000000" stroke-width="2" stroke-miterlimit="10" pointer-events="stroke" style="stroke: light-dark(rgb(0, 0, 0), rgb(255, 255, 255));"/>
            <path d="M 457.76 25.5 L 449.76 29.5 L 451.76 25.5 L 449.76 21.5 Z" fill="#000000" stroke="#000000" stroke-width="2" stroke-miterlimit="10" pointer-events="all" style="fill: light-dark(rgb(0, 0, 0), rgb(255, 255, 255)); stroke: light-dark(rgb(0, 0, 0), rgb(255, 255, 255));"/>
        </g>
        <g>
            <rect x="460" y="90" width="110" height="51" rx="7.65" ry="7.65" fill="#ffff88" stroke="#d6b656" pointer-events="all" style="fill: light-dark(rgb(255, 255, 136), rgb(33, 33, 0)); stroke: light-dark(rgb(214, 182, 86), rgb(109, 81, 0));"/>
        </g>
        <g>
            <g transform="translate(-0.5 -0.5)">
                <switch>
                    <foreignObject style="overflow: visible; text-align: left;" pointer-events="none" width="100%" height="100%" requiredFeatures="http://www.w3.org/TR/SVG11/feature#Extensibility">
                        <div xmlns="http://www.w3.org/1999/xhtml" style="display: flex; align-items: unsafe center; justify-content: unsafe center; width: 108px; height: 1px; padding-top: 116px; margin-left: 461px;">
                            <div style="box-sizing: border-box; font-size: 0; text-align: center; color: #000000; ">
                                <div style="display: inline-block; font-size: 12px; font-family: &quot;Helvetica&quot;; color: light-dark(#000000, #ffffff); line-height: 1.2; pointer-events: all; white-space: normal; word-wrap: normal; ">
                                    gcov
                                </div>
                            </div>
                        </div>
                    </foreignObject>
                    <text x="515" y="119" fill="light-dark(#000000, #ffffff)" font-family="&quot;Helvetica&quot;" font-size="12px" text-anchor="middle">
                        gcov
                    </text>
                </switch>
            </g>
        </g>
    </g>
    <switch>
        <g requiredFeatures="http://www.w3.org/TR/SVG11/feature#Extensibility"/>
        <a transform="translate(0,-5)" xlink:href="https://www.drawio.com/doc/faq/svg-export-text-problems" target="_blank">
            <text text-anchor="middle" font-size="10px" x="50%" y="100%">
                Text is not SVG - cannot display
            </text>
        </a>
    </switch>
</svg>
