<svg xmlns="http://www.w3.org/2000/svg" xmlns:xlink="http://www.w3.org/1999/xlink" contentStyleType="text/css" data-diagram-type="CLASS" height="560px" preserveAspectRatio="none" style="width:2137px;height:560px;background:#FFFFFF;" version="1.1" viewBox="0 0 2137 560" width="2137px" zoomAndPan="magnify"><defs/><g><!--cluster feat_feo--><g id="cluster_feat_feo"><path d="M423.5,166 L455.5283,166 A3.75,3.75 0 0 1 458.0283,168.5 L465.0283,188.2969 L2127.5,188.2969 A2.5,2.5 0 0 1 2130,190.7969 L2130,550.5 A2.5,2.5 0 0 1 2127.5,553 L423.5,553 A2.5,2.5 0 0 1 421,550.5 L421,168.5 A2.5,2.5 0 0 1 423.5,166 " fill="transparent" style="stroke:#000000;stroke-width:1.5;"/><line style="stroke:#000000;stroke-width:1.5;" x1="421" x2="465.0283" y1="188.2969" y2="188.2969"/><text fill="#000000" font-family="sans-serif" font-size="14" font-weight="bold" lengthAdjust="spacing" textLength="31.0283" x="425" y="180.9951">FEO</text><text fill="#000000" font-family="sans-serif" font-size="14" font-style="italic" lengthAdjust="spacing" textLength="68.1338" x="1245.4331" y="203.292">&#171;feature&#187;</text></g><!--cluster user_application--><g id="cluster_user_application"><path d="M8.5,6 L139.7725,6 A3.75,3.75 0 0 1 142.2725,8.5 L149.2725,28.2969 L394.5,28.2969 A2.5,2.5 0 0 1 397,30.7969 L397,327.5 A2.5,2.5 0 0 1 394.5,330 L8.5,330 A2.5,2.5 0 0 1 6,327.5 L6,8.5 A2.5,2.5 0 0 1 8.5,6 " fill="transparent" style="stroke:#000000;stroke-width:1.5;"/><line style="stroke:#000000;stroke-width:1.5;" x1="6" x2="149.2725" y1="28.2969" y2="28.2969"/><text fill="#000000" font-family="sans-serif" font-size="14" font-weight="bold" lengthAdjust="spacing" textLength="130.2725" x="10" y="20.9951">User Application</text><text fill="#000000" font-family="sans-serif" font-size="14" font-style="italic" lengthAdjust="spacing" textLength="94.5068" x="158.2466" y="43.292">&#171;application&#187;</text></g><!--class feo_primary--><g id="elem_feo_primary"><rect codeLine="19" fill="#F1F1F1" height="80.5938" id="feo_primary" rx="2.5" ry="2.5" style="stroke:#181818;stroke-width:0.5;" width="269.1338" x="437.5" y="249.5"/><ellipse cx="499.936" cy="265.5" fill="#F1F1F1" rx="11" ry="11" style="stroke:#181818;stroke-width:1;"/><path d="M499.4204,266.0625 Q497.561,265.3594 496.9048,264.5938 Q496.2642,263.8125 496.2642,262.5 Q496.2642,260.8125 497.3423,259.8438 Q498.4204,258.875 500.2954,258.875 Q501.1548,258.875 501.9985,259.0781 Q502.8579,259.2656 503.7017,259.6563 L503.7017,262.0469 Q502.9204,261.4844 502.0923,261.2031 Q501.2798,260.9063 500.4829,260.9063 Q499.6079,260.9063 499.1235,261.2656 Q498.6548,261.625 498.6548,262.2813 Q498.6548,262.7969 498.9985,263.1406 Q499.3423,263.4688 500.436,263.875 L501.4985,264.2813 Q502.9829,264.8281 503.686,265.7344 Q504.4048,266.6406 504.4048,268.0156 Q504.4048,269.8906 503.2954,270.8125 Q502.186,271.7344 499.936,271.7344 Q499.0142,271.7344 498.0923,271.5156 Q497.1704,271.2969 496.311,270.875 L496.311,268.3438 Q497.2798,269.0313 498.2017,269.375 Q499.1235,269.7188 500.0142,269.7188 Q500.9204,269.7188 501.4204,269.3125 Q501.9204,268.8906 501.9204,268.1563 Q501.9204,267.5938 501.5767,267.1875 Q501.2485,266.7656 500.6235,266.5156 L499.4204,266.0625 Z " fill="#000000"/><text fill="#000000" font-family="sans-serif" font-size="14" lengthAdjust="spacing" textLength="135.7617" x="520.436" y="270.3467">feo::agent::Primary</text><line style="stroke:#181818;stroke-width:0.5;" x1="438.5" x2="705.6338" y1="281.5" y2="281.5"/><line style="stroke:#181818;stroke-width:0.5;" x1="438.5" x2="705.6338" y1="289.5" y2="289.5"/><ellipse cx="448.5" cy="303.1484" fill="#84BE84" rx="3" ry="3" style="stroke:#038048;stroke-width:1;"/><text fill="#000000" font-family="sans-serif" font-size="14" lengthAdjust="spacing" textLength="243.1338" x="457.5" y="306.4951">new(config: PrimaryConfig) -&gt; Self</text><ellipse cx="448.5" cy="319.4453" fill="#84BE84" rx="3" ry="3" style="stroke:#038048;stroke-width:1;"/><text fill="#000000" font-family="sans-serif" font-size="14" lengthAdjust="spacing" textLength="172.0879" x="457.5" y="322.792">run(&amp;mut self) -&gt; Result</text></g><!--class feo_secondary--><g id="elem_feo_secondary"><rect codeLine="24" fill="#F1F1F1" height="80.5938" id="feo_secondary" rx="2.5" ry="2.5" style="stroke:#181818;stroke-width:0.5;" width="288.9307" x="1285.5" y="249.5"/><ellipse cx="1347.936" cy="265.5" fill="#F1F1F1" rx="11" ry="11" style="stroke:#181818;stroke-width:1;"/><path d="M1347.4204,266.0625 Q1345.561,265.3594 1344.9048,264.5938 Q1344.2642,263.8125 1344.2642,262.5 Q1344.2642,260.8125 1345.3423,259.8438 Q1346.4204,258.875 1348.2954,258.875 Q1349.1548,258.875 1349.9985,259.0781 Q1350.8579,259.2656 1351.7017,259.6563 L1351.7017,262.0469 Q1350.9204,261.4844 1350.0923,261.2031 Q1349.2798,260.9063 1348.4829,260.9063 Q1347.6079,260.9063 1347.1235,261.2656 Q1346.6548,261.625 1346.6548,262.2813 Q1346.6548,262.7969 1346.9985,263.1406 Q1347.3423,263.4688 1348.436,263.875 L1349.4985,264.2813 Q1350.9829,264.8281 1351.686,265.7344 Q1352.4048,266.6406 1352.4048,268.0156 Q1352.4048,269.8906 1351.2954,270.8125 Q1350.186,271.7344 1347.936,271.7344 Q1347.0142,271.7344 1346.0923,271.5156 Q1345.1704,271.2969 1344.311,270.875 L1344.311,268.3438 Q1345.2798,269.0313 1346.2017,269.375 Q1347.1235,269.7188 1348.0142,269.7188 Q1348.9204,269.7188 1349.4204,269.3125 Q1349.9204,268.8906 1349.9204,268.1563 Q1349.9204,267.5938 1349.5767,267.1875 Q1349.2485,266.7656 1348.6235,266.5156 L1347.4204,266.0625 Z " fill="#000000"/><text fill="#000000" font-family="sans-serif" font-size="14" lengthAdjust="spacing" textLength="155.5586" x="1368.436" y="270.3467">feo::agent::Secondary</text><line style="stroke:#181818;stroke-width:0.5;" x1="1286.5" x2="1573.4307" y1="281.5" y2="281.5"/><line style="stroke:#181818;stroke-width:0.5;" x1="1286.5" x2="1573.4307" y1="289.5" y2="289.5"/><ellipse cx="1296.5" cy="303.1484" fill="#84BE84" rx="3" ry="3" style="stroke:#038048;stroke-width:1;"/><text fill="#000000" font-family="sans-serif" font-size="14" lengthAdjust="spacing" textLength="262.9307" x="1305.5" y="306.4951">new(config: SecondaryConfig) -&gt; Self</text><ellipse cx="1296.5" cy="319.4453" fill="#84BE84" rx="3" ry="3" style="stroke:#038048;stroke-width:1;"/><text fill="#000000" font-family="sans-serif" font-size="14" lengthAdjust="spacing" textLength="77.4033" x="1305.5" y="322.792">fn run(self)</text></g><!--class feo_primary_config--><g id="elem_feo_primary_config"><rect codeLine="29" fill="#F1F1F1" height="145.7813" id="feo_primary_config" rx="2.5" ry="2.5" style="stroke:#181818;stroke-width:0.5;" width="508.2344" x="742" y="217"/><ellipse cx="901.5269" cy="233" fill="#F1F1F1" rx="11" ry="11" style="stroke:#181818;stroke-width:1;"/><path d="M901.0112,233.5625 Q899.1519,232.8594 898.4956,232.0938 Q897.855,231.3125 897.855,230 Q897.855,228.3125 898.9331,227.3438 Q900.0112,226.375 901.8862,226.375 Q902.7456,226.375 903.5894,226.5781 Q904.4487,226.7656 905.2925,227.1563 L905.2925,229.5469 Q904.5112,228.9844 903.6831,228.7031 Q902.8706,228.4063 902.0737,228.4063 Q901.1987,228.4063 900.7144,228.7656 Q900.2456,229.125 900.2456,229.7813 Q900.2456,230.2969 900.5894,230.6406 Q900.9331,230.9688 902.0269,231.375 L903.0894,231.7813 Q904.5737,232.3281 905.2769,233.2344 Q905.9956,234.1406 905.9956,235.5156 Q905.9956,237.3906 904.8862,238.3125 Q903.7769,239.2344 901.5269,239.2344 Q900.605,239.2344 899.6831,239.0156 Q898.7612,238.7969 897.9019,238.375 L897.9019,235.8438 Q898.8706,236.5313 899.7925,236.875 Q900.7144,237.2188 901.605,237.2188 Q902.5112,237.2188 903.0112,236.8125 Q903.5112,236.3906 903.5112,235.6563 Q903.5112,235.0938 903.1675,234.6875 Q902.8394,234.2656 902.2144,234.0156 L901.0112,233.5625 Z " fill="#000000"/><text fill="#000000" font-family="sans-serif" font-size="14" lengthAdjust="spacing" textLength="180.6807" x="922.0269" y="237.8467">feo::agent::PrimaryConfig</text><line style="stroke:#181818;stroke-width:0.5;" x1="743" x2="1249.2344" y1="249" y2="249"/><ellipse cx="753" cy="262.6484" fill="transparent" rx="3" ry="3" style="stroke:#038048;stroke-width:1;"/><text fill="#000000" font-family="sans-serif" font-size="14" lengthAdjust="spacing" textLength="149.2354" x="762" y="265.9951">cycle_time : Duration</text><ellipse cx="753" cy="278.9453" fill="transparent" rx="3" ry="3" style="stroke:#038048;stroke-width:1;"/><text fill="#000000" font-family="sans-serif" font-size="14" lengthAdjust="spacing" textLength="447.7266" x="762" y="282.292">activity_dependencies : HashMap&lt;ActivityId, Vec&lt;ActivityId&gt;&gt;</text><ellipse cx="753" cy="295.2422" fill="transparent" rx="3" ry="3" style="stroke:#038048;stroke-width:1;"/><text fill="#000000" font-family="sans-serif" font-size="14" lengthAdjust="spacing" textLength="204.1348" x="762" y="298.5889">recorder_ids : Vec&lt;AgentId&gt;</text><ellipse cx="753" cy="311.5391" fill="transparent" rx="3" ry="3" style="stroke:#038048;stroke-width:1;"/><text fill="#000000" font-family="sans-serif" font-size="14" lengthAdjust="spacing" textLength="482.2344" x="762" y="314.8857">worker_assignments : Vec&lt;(WorkerId, Vec&lt;ActivityIdAndBuilder&gt;)&gt;</text><ellipse cx="753" cy="327.8359" fill="transparent" rx="3" ry="3" style="stroke:#038048;stroke-width:1;"/><text fill="#000000" font-family="sans-serif" font-size="14" lengthAdjust="spacing" textLength="128.9805" x="762" y="331.1826">timeout : Duration</text><ellipse cx="753" cy="344.1328" fill="transparent" rx="3" ry="3" style="stroke:#038048;stroke-width:1;"/><text fill="#000000" font-family="sans-serif" font-size="14" lengthAdjust="spacing" textLength="172.9902" x="762" y="347.4795">endpoint : NodeAddress,</text><line style="stroke:#181818;stroke-width:0.5;" x1="743" x2="1249.2344" y1="354.7813" y2="354.7813"/></g><!--class feo_secondary_config--><g id="elem_feo_secondary_config"><rect codeLine="38" fill="#F1F1F1" height="113.1875" id="feo_secondary_config" rx="2.5" ry="2.5" style="stroke:#181818;stroke-width:0.5;" width="503.7842" x="1610" y="233.5"/><ellipse cx="1757.4033" cy="249.5" fill="#F1F1F1" rx="11" ry="11" style="stroke:#181818;stroke-width:1;"/><path d="M1756.8877,250.0625 Q1755.0283,249.3594 1754.3721,248.5938 Q1753.7314,247.8125 1753.7314,246.5 Q1753.7314,244.8125 1754.8096,243.8438 Q1755.8877,242.875 1757.7627,242.875 Q1758.6221,242.875 1759.4658,243.0781 Q1760.3252,243.2656 1761.1689,243.6563 L1761.1689,246.0469 Q1760.3877,245.4844 1759.5596,245.2031 Q1758.7471,244.9063 1757.9502,244.9063 Q1757.0752,244.9063 1756.5908,245.2656 Q1756.1221,245.625 1756.1221,246.2813 Q1756.1221,246.7969 1756.4658,247.1406 Q1756.8096,247.4688 1757.9033,247.875 L1758.9658,248.2813 Q1760.4502,248.8281 1761.1533,249.7344 Q1761.8721,250.6406 1761.8721,252.0156 Q1761.8721,253.8906 1760.7627,254.8125 Q1759.6533,255.7344 1757.4033,255.7344 Q1756.4814,255.7344 1755.5596,255.5156 Q1754.6377,255.2969 1753.7783,254.875 L1753.7783,252.3438 Q1754.7471,253.0313 1755.6689,253.375 Q1756.5908,253.7188 1757.4814,253.7188 Q1758.3877,253.7188 1758.8877,253.3125 Q1759.3877,252.8906 1759.3877,252.1563 Q1759.3877,251.5938 1759.0439,251.1875 Q1758.7158,250.7656 1758.0908,250.5156 L1756.8877,250.0625 Z " fill="#000000"/><text fill="#000000" font-family="sans-serif" font-size="14" lengthAdjust="spacing" textLength="200.4775" x="1777.9033" y="254.3467">feo::agent::SecondaryConfig</text><line style="stroke:#181818;stroke-width:0.5;" x1="1611" x2="2112.7842" y1="265.5" y2="265.5"/><ellipse cx="1621" cy="279.1484" fill="transparent" rx="3" ry="3" style="stroke:#038048;stroke-width:1;"/><text fill="#000000" font-family="sans-serif" font-size="14" lengthAdjust="spacing" textLength="76.3984" x="1630" y="282.4951">id: AgentId</text><ellipse cx="1621" cy="295.4453" fill="transparent" rx="3" ry="3" style="stroke:#038048;stroke-width:1;"/><text fill="#000000" font-family="sans-serif" font-size="14" lengthAdjust="spacing" textLength="477.7842" x="1630" y="298.792">worker_assignments: Vec&lt;(WorkerId, Vec&lt;ActivityIdAndBuilder&gt;)&gt;</text><ellipse cx="1621" cy="311.7422" fill="transparent" rx="3" ry="3" style="stroke:#038048;stroke-width:1;"/><text fill="#000000" font-family="sans-serif" font-size="14" lengthAdjust="spacing" textLength="128.9805" x="1630" y="315.0889">timeout: Duration,</text><ellipse cx="1621" cy="328.0391" fill="transparent" rx="3" ry="3" style="stroke:#038048;stroke-width:1;"/><text fill="#000000" font-family="sans-serif" font-size="14" lengthAdjust="spacing" textLength="168.54" x="1630" y="331.3857">endpoint: NodeAddress,</text><line style="stroke:#181818;stroke-width:0.5;" x1="1611" x2="2112.7842" y1="338.6875" y2="338.6875"/></g><!--class feo_scheduler--><g id="elem_feo_scheduler"><rect codeLine="45" fill="#F1F1F1" height="96.8906" id="feo_scheduler" rx="2.5" ry="2.5" style="stroke:#181818;stroke-width:0.5;" width="211.5596" x="648" y="440"/><ellipse cx="663" cy="456" fill="#F1F1F1" rx="11" ry="11" style="stroke:#181818;stroke-width:1;"/><path d="M662.4844,456.5625 Q660.625,455.8594 659.9688,455.0938 Q659.3281,454.3125 659.3281,453 Q659.3281,451.3125 660.4063,450.3438 Q661.4844,449.375 663.3594,449.375 Q664.2188,449.375 665.0625,449.5781 Q665.9219,449.7656 666.7656,450.1563 L666.7656,452.5469 Q665.9844,451.9844 665.1563,451.7031 Q664.3438,451.4063 663.5469,451.4063 Q662.6719,451.4063 662.1875,451.7656 Q661.7188,452.125 661.7188,452.7813 Q661.7188,453.2969 662.0625,453.6406 Q662.4063,453.9688 663.5,454.375 L664.5625,454.7813 Q666.0469,455.3281 666.75,456.2344 Q667.4688,457.1406 667.4688,458.5156 Q667.4688,460.3906 666.3594,461.3125 Q665.25,462.2344 663,462.2344 Q662.0781,462.2344 661.1563,462.0156 Q660.2344,461.7969 659.375,461.375 L659.375,458.8438 Q660.3438,459.5313 661.2656,459.875 Q662.1875,460.2188 663.0781,460.2188 Q663.9844,460.2188 664.4844,459.8125 Q664.9844,459.3906 664.9844,458.6563 Q664.9844,458.0938 664.6406,457.6875 Q664.3125,457.2656 663.6875,457.0156 L662.4844,456.5625 Z " fill="#000000"/><text fill="#000000" font-family="sans-serif" font-size="14" lengthAdjust="spacing" textLength="179.5596" x="677" y="460.8467">feo::scheduler::Scheduler</text><line style="stroke:#181818;stroke-width:0.5;" x1="649" x2="858.5596" y1="472" y2="472"/><line style="stroke:#181818;stroke-width:0.5;" x1="649" x2="858.5596" y1="480" y2="480"/><ellipse cx="659" cy="493.6484" fill="#84BE84" rx="3" ry="3" style="stroke:#038048;stroke-width:1;"/><text fill="#000000" font-family="sans-serif" font-size="14" lengthAdjust="spacing" textLength="105.2119" x="668" y="496.9951">new(...) -&gt; Self</text><ellipse cx="659" cy="509.9453" fill="#84BE84" rx="3" ry="3" style="stroke:#038048;stroke-width:1;"/><text fill="#000000" font-family="sans-serif" font-size="14" lengthAdjust="spacing" textLength="34.4258" x="668" y="513.292">run()</text><ellipse cx="659" cy="526.2422" fill="#84BE84" rx="3" ry="3" style="stroke:#038048;stroke-width:1;"/><text fill="#000000" font-family="sans-serif" font-size="14" lengthAdjust="spacing" textLength="177.6113" x="668" y="529.5889">sync_remotes() -&gt; Result</text></g><!--class activity--><g id="elem_activity"><rect codeLine="51" fill="#F1F1F1" height="96.8906" id="activity" rx="2.5" ry="2.5" style="stroke:#181818;stroke-width:0.5;" width="177.1816" x="436.5" y="440"/><ellipse cx="451.5" cy="456" fill="#B4A7E5" rx="11" ry="11" style="stroke:#181818;stroke-width:1;"/><path d="M447.4219,451.7656 L447.4219,449.6094 L454.8125,449.6094 L454.8125,451.7656 L452.3438,451.7656 L452.3438,459.8438 L454.8125,459.8438 L454.8125,462 L447.4219,462 L447.4219,459.8438 L449.8906,459.8438 L449.8906,451.7656 L447.4219,451.7656 Z " fill="#000000"/><text fill="#000000" font-family="sans-serif" font-size="14" font-style="italic" lengthAdjust="spacing" textLength="145.1816" x="465.5" y="460.8467">feo::activity::Activity</text><line style="stroke:#181818;stroke-width:0.5;" x1="437.5" x2="612.6816" y1="472" y2="472"/><line style="stroke:#181818;stroke-width:0.5;" x1="437.5" x2="612.6816" y1="480" y2="480"/><ellipse cx="447.5" cy="493.6484" fill="#84BE84" rx="3" ry="3" style="stroke:#038048;stroke-width:1;"/><text fill="#000000" font-family="sans-serif" font-size="14" lengthAdjust="spacing" textLength="33.0654" x="456.5" y="496.9951">init()</text><ellipse cx="447.5" cy="509.9453" fill="#84BE84" rx="3" ry="3" style="stroke:#038048;stroke-width:1;"/><text fill="#000000" font-family="sans-serif" font-size="14" lengthAdjust="spacing" textLength="41.207" x="456.5" y="513.292">step()</text><ellipse cx="447.5" cy="526.2422" fill="#84BE84" rx="3" ry="3" style="stroke:#038048;stroke-width:1;"/><text fill="#000000" font-family="sans-serif" font-size="14" lengthAdjust="spacing" textLength="79.2285" x="456.5" y="529.5889">shutdown()</text></g><!--entity PP--><g id="elem_PP"><rect fill="#F1F1F1" height="46.2969" rx="2.5" ry="2.5" style="stroke:#181818;stroke-width:0.5;" width="152.458" x="22" y="57"/><rect fill="#F1F1F1" height="10" style="stroke:#181818;stroke-width:0.5;" width="15" x="154.458" y="62"/><rect fill="#F1F1F1" height="2" style="stroke:#181818;stroke-width:0.5;" width="4" x="152.458" y="64"/><rect fill="#F1F1F1" height="2" style="stroke:#181818;stroke-width:0.5;" width="4" x="152.458" y="68"/><text fill="#000000" font-family="sans-serif" font-size="14" lengthAdjust="spacing" textLength="112.458" x="37" y="89.9951">Primary Process</text></g><!--entity SP--><g id="elem_SP"><rect fill="#F1F1F1" height="46.2969" rx="2.5" ry="2.5" style="stroke:#181818;stroke-width:0.5;" width="172.2549" x="209" y="57"/><rect fill="#F1F1F1" height="10" style="stroke:#181818;stroke-width:0.5;" width="15" x="361.2549" y="62"/><rect fill="#F1F1F1" height="2" style="stroke:#181818;stroke-width:0.5;" width="4" x="359.2549" y="64"/><rect fill="#F1F1F1" height="2" style="stroke:#181818;stroke-width:0.5;" width="4" x="359.2549" y="68"/><text fill="#000000" font-family="sans-serif" font-size="14" lengthAdjust="spacing" textLength="132.2549" x="224" y="89.9951">Secondary Process</text></g><!--class user_activity_1--><g id="elem_user_activity_1"><rect codeLine="69" fill="#F1F1F1" height="48" id="user_activity_1" rx="2.5" ry="2.5" style="stroke:#181818;stroke-width:0.5;" width="132.4199" x="57" y="266"/><ellipse cx="72" cy="282" fill="#F1F1F1" rx="11" ry="11" style="stroke:#181818;stroke-width:1;"/><path d="M71.4844,282.5625 Q69.625,281.8594 68.9688,281.0938 Q68.3281,280.3125 68.3281,279 Q68.3281,277.3125 69.4063,276.3438 Q70.4844,275.375 72.3594,275.375 Q73.2188,275.375 74.0625,275.5781 Q74.9219,275.7656 75.7656,276.1563 L75.7656,278.5469 Q74.9844,277.9844 74.1563,277.7031 Q73.3438,277.4063 72.5469,277.4063 Q71.6719,277.4063 71.1875,277.7656 Q70.7188,278.125 70.7188,278.7813 Q70.7188,279.2969 71.0625,279.6406 Q71.4063,279.9688 72.5,280.375 L73.5625,280.7813 Q75.0469,281.3281 75.75,282.2344 Q76.4688,283.1406 76.4688,284.5156 Q76.4688,286.3906 75.3594,287.3125 Q74.25,288.2344 72,288.2344 Q71.0781,288.2344 70.1563,288.0156 Q69.2344,287.7969 68.375,287.375 L68.375,284.8438 Q69.3438,285.5313 70.2656,285.875 Q71.1875,286.2188 72.0781,286.2188 Q72.9844,286.2188 73.4844,285.8125 Q73.9844,285.3906 73.9844,284.6563 Q73.9844,284.0938 73.6406,283.6875 Q73.3125,283.2656 72.6875,283.0156 L71.4844,282.5625 Z " fill="#000000"/><text fill="#000000" font-family="sans-serif" font-size="14" lengthAdjust="spacing" textLength="100.4199" x="86" y="286.8467">UserActivity_1</text><line style="stroke:#181818;stroke-width:0.5;" x1="58" x2="188.4199" y1="298" y2="298"/><line style="stroke:#181818;stroke-width:0.5;" x1="58" x2="188.4199" y1="306" y2="306"/></g><!--class user_activity_2--><g id="elem_user_activity_2"><rect codeLine="70" fill="#F1F1F1" height="48" id="user_activity_2" rx="2.5" ry="2.5" style="stroke:#181818;stroke-width:0.5;" width="132.4199" x="244" y="266"/><ellipse cx="259" cy="282" fill="#F1F1F1" rx="11" ry="11" style="stroke:#181818;stroke-width:1;"/><path d="M258.4844,282.5625 Q256.625,281.8594 255.9688,281.0938 Q255.3281,280.3125 255.3281,279 Q255.3281,277.3125 256.4063,276.3438 Q257.4844,275.375 259.3594,275.375 Q260.2188,275.375 261.0625,275.5781 Q261.9219,275.7656 262.7656,276.1563 L262.7656,278.5469 Q261.9844,277.9844 261.1563,277.7031 Q260.3438,277.4063 259.5469,277.4063 Q258.6719,277.4063 258.1875,277.7656 Q257.7188,278.125 257.7188,278.7813 Q257.7188,279.2969 258.0625,279.6406 Q258.4063,279.9688 259.5,280.375 L260.5625,280.7813 Q262.0469,281.3281 262.75,282.2344 Q263.4688,283.1406 263.4688,284.5156 Q263.4688,286.3906 262.3594,287.3125 Q261.25,288.2344 259,288.2344 Q258.0781,288.2344 257.1563,288.0156 Q256.2344,287.7969 255.375,287.375 L255.375,284.8438 Q256.3438,285.5313 257.2656,285.875 Q258.1875,286.2188 259.0781,286.2188 Q259.9844,286.2188 260.4844,285.8125 Q260.9844,285.3906 260.9844,284.6563 Q260.9844,284.0938 260.6406,283.6875 Q260.3125,283.2656 259.6875,283.0156 L258.4844,282.5625 Z " fill="#000000"/><text fill="#000000" font-family="sans-serif" font-size="14" lengthAdjust="spacing" textLength="100.4199" x="273" y="286.8467">UserActivity_2</text><line style="stroke:#181818;stroke-width:0.5;" x1="245" x2="375.4199" y1="298" y2="298"/><line style="stroke:#181818;stroke-width:0.5;" x1="245" x2="375.4199" y1="306" y2="306"/></g><!--link feo_primary to activity--><g id="link_feo_primary_activity"><path codeLine="57" d="M562.49,330.76 C554.95,362.28 545.7972,400.5749 537.7972,433.9849 " fill="transparent" id="feo_primary-to-activity" style="stroke:#181818;stroke-width:1;"/><polygon fill="#181818" points="536.4,439.82,542.3858,431.9989,537.5643,434.9575,534.6058,430.136,536.4,439.82" style="stroke:#181818;stroke-width:1;"/><text fill="#000000" font-family="sans-serif" font-size="13" lengthAdjust="spacing" textLength="23.0103" x="548" y="406.0669">use</text></g><!--link feo_primary to feo_scheduler--><g id="link_feo_primary_feo_scheduler"><path codeLine="58" d="M608.83,330.76 C638.02,362.28 674.8125,402.0084 705.7625,435.4184 " fill="transparent" id="feo_primary-to-feo_scheduler" style="stroke:#181818;stroke-width:1;"/><polygon fill="#181818" points="709.84,439.82,706.6581,430.4993,706.4421,436.152,700.7894,435.9359,709.84,439.82" style="stroke:#181818;stroke-width:1;"/><text fill="#000000" font-family="sans-serif" font-size="13" lengthAdjust="spacing" textLength="23.0103" x="680" y="406.0669">use</text></g><!--link feo_secondary to activity--><g id="link_feo_secondary_activity"><path codeLine="60" d="M1353.45,330.63 C1327.01,342.8 1296.78,355.06 1268,363 C993.1,438.86 905.78,363.72 631,440 C625.27,441.59 625.1142,441.4709 619.3042,443.5009 " fill="transparent" id="feo_secondary-to-activity" style="stroke:#181818;stroke-width:1;"/><polygon fill="#181818" points="613.64,445.48,623.4557,446.2875,618.3602,443.8308,620.8169,438.7353,613.64,445.48" style="stroke:#181818;stroke-width:1;"/><text fill="#000000" font-family="sans-serif" font-size="13" lengthAdjust="spacing" textLength="23.0103" x="1110" y="406.0669">use</text></g><!--link PP to user_activity_1--><g id="link_PP_user_activity_1"><path codeLine="72" d="M100.68,103.26 C105.45,142.98 114.6742,219.7129 119.5142,259.9929 " fill="transparent" id="PP-to-user_activity_1" style="stroke:#181818;stroke-width:1;"/><polygon fill="#181818" points="120.23,265.95,123.1277,256.5371,119.6335,260.9857,115.1849,257.4915,120.23,265.95" style="stroke:#181818;stroke-width:1;"/><text fill="#000000" font-family="sans-serif" font-size="13" lengthAdjust="spacing" textLength="23.0103" x="108" y="146.0669">use</text></g><!--link SP to user_activity_2--><g id="link_SP_user_activity_2"><path codeLine="73" d="M296.61,103.26 C299.47,142.98 304.9977,219.6856 307.9077,259.9656 " fill="transparent" id="SP-to-user_activity_2" style="stroke:#181818;stroke-width:1;"/><polygon fill="#181818" points="308.34,265.95,311.6811,256.6852,307.9797,260.963,303.7019,257.2616,308.34,265.95" style="stroke:#181818;stroke-width:1;"/><text fill="#000000" font-family="sans-serif" font-size="13" lengthAdjust="spacing" textLength="23.0103" x="301" y="146.0669">use</text></g><!--link user_activity_1 to activity--><g id="link_user_activity_1_activity"><path codeLine="75" d="M152.54,314.21 C172.55,329.29 199.99,348.71 226,363 C294.01,400.36 358.7205,427.3147 419.4705,450.0347 " fill="transparent" id="user_activity_1-to-activity" style="stroke:#181818;stroke-width:1;stroke-dasharray:7.0,7.0;"/><polygon fill="transparent" points="436.33,456.34,421.5723,444.4148,417.3687,455.6545,436.33,456.34" style="stroke:#181818;stroke-width:1;"/><text fill="#000000" font-family="sans-serif" font-size="13" lengthAdjust="spacing" textLength="28.1392" x="323" y="406.0669">impl</text></g><!--link user_activity_2 to activity--><g id="link_user_activity_2_activity"><path codeLine="76" d="M335.51,314.31 C369.21,345.12 416.1024,387.9776 459.6124,427.7376 " fill="transparent" id="user_activity_2-to-activity" style="stroke:#181818;stroke-width:1;stroke-dasharray:7.0,7.0;"/><polygon fill="transparent" points="472.9,439.88,463.6598,423.3084,455.5649,432.1668,472.9,439.88" style="stroke:#181818;stroke-width:1;"/><text fill="#000000" font-family="sans-serif" font-size="13" lengthAdjust="spacing" textLength="28.1392" x="437" y="406.0669">impl</text></g><!--link PP to feo_primary--><g id="link_PP_feo_primary"><path codeLine="79" d="M174.1,99.16 C179.81,100.47 185.5,101.77 191,103 C283.47,123.7 314.18,111.95 397,158 C443.93,184.1 487.8259,217.5467 521.8359,245.6667 " fill="transparent" id="PP-to-feo_primary" style="stroke:#181818;stroke-width:1;"/><polygon fill="#181818" points="526.46,249.49,522.0727,240.6723,522.6066,246.3039,516.975,246.8378,526.46,249.49" style="stroke:#181818;stroke-width:1;"/><text fill="#000000" font-family="sans-serif" font-size="13" lengthAdjust="spacing" textLength="23.0103" x="380" y="146.0669">use</text></g><!--link PP to feo_primary_config--><g id="link_PP_feo_primary_config"><path codeLine="80" d="M174.22,99.87 C179.88,101.01 185.52,102.07 191,103 C425.81,142.72 494.86,93.14 724,158 C773.42,171.99 819.507,191.7795 864.177,214.1895 " fill="transparent" id="PP-to-feo_primary_config" style="stroke:#181818;stroke-width:1;"/><polygon fill="#181818" points="869.54,216.88,863.2892,209.269,865.0709,214.6379,859.7019,216.4196,869.54,216.88" style="stroke:#181818;stroke-width:1;"/><text fill="#000000" font-family="sans-serif" font-size="13" lengthAdjust="spacing" textLength="23.0103" x="685" y="146.0669">use</text></g><!--link SP to feo_secondary--><g id="link_SP_feo_secondary"><path codeLine="81" d="M381.16,81.33 C588.11,83.16 1107.95,94.17 1268,158 C1317.72,177.83 1359.8929,214.2421 1390.1729,245.0321 " fill="transparent" id="SP-to-feo_secondary" style="stroke:#181818;stroke-width:1;"/><polygon fill="#181818" points="1394.38,249.31,1390.9214,240.0884,1390.8741,245.7451,1385.2175,245.6978,1394.38,249.31" style="stroke:#181818;stroke-width:1;"/><text fill="#000000" font-family="sans-serif" font-size="13" lengthAdjust="spacing" textLength="23.0103" x="1242" y="146.0669">use</text></g><!--link SP to feo_secondary_config--><g id="link_SP_feo_secondary_config"><path codeLine="82" d="M381.19,81.53 C632.76,83.81 1362.74,95.76 1592,158 C1653.97,174.82 1713.5828,202.9366 1764.2128,230.5566 " fill="transparent" id="SP-to-feo_secondary_config" style="stroke:#181818;stroke-width:1;"/><polygon fill="#181818" points="1769.48,233.43,1763.4948,225.6084,1765.0907,231.0355,1759.6636,232.6314,1769.48,233.43" style="stroke:#181818;stroke-width:1;"/><text fill="#000000" font-family="sans-serif" font-size="13" lengthAdjust="spacing" textLength="23.0103" x="1556" y="146.0669">use</text></g><!--SRC=[hLNRRXCn47tFLuo210aq6uZ4owgA54eHbQ14XDjRvDgpMOjTUsLxMQBIVsVMUqyJKOdc9V7up9ap5q_cpqO0y0IUF-wd8htGsTx8NUnWmgUmUBbuJIRbZBp9dJOMd0ON8rpoH6OMuPtEbM1EQkNTAuuDeWTTV_foTN49aKnmOgSWfAruK40XNKmOQQ7GvYT4sW0JGfP4BAbOf29hwhd1u8uP8TKEUAjF5mgDZMKMz49_AIapetU6fS2Ky3eOvphDcDgN1CI8HhB40ZD89q7tlvXCs4s2GCcWANqgDaAc5dJaMLOPu_JrGN9KbFat2bvAMmGleOWbZu4YTqpCLHInSvaDv_EYA0Bc6G9jTlEaOh7p3rIXwytbZ6Zw5Lo__J6h8ysk12ed8uach4Mqw4UVWMVp4KiINQJoDnLhDA9mFzcE-dpv2SxF8sGkDxXS0hDG7hOHQhWTbLg0cfjp1sCoXI7vA1U6QoDJPlRZ2g-tMNKc5wW_Bq1XCU5QHN8NGes_yCSfp9OqIqdK0vjSJPwckGDBTW_uZ3PFVB7XxhIG3L88qPTY6yj9CQtFQJcHyegyc7z96EHsM95j5NIWXUzvWbidKuGGtkQcVMRrFUDE_f9klnMO8GskuX8jGTyp6tzasVcglhyIPpIjl7TUBlibfJGDZVrMYjBR8ql516jHjpHzYRWZTFbS2SkibJkL4gpncNptD_U3hPHuayk48Yod_RXbOfewUJGtoYVJKfMtrrhWIWY3rfuzkCq7LMwRVQpEKj2xgZ9-KCB_bs-NxjcHV1-OhgKb8FA4DaAuQNvsoJQMUvCT1C6fHpNjdUrUyQt1L3kqanEFZBIYYHZ7fW5r_c7OLCBhQSp3WYlfXW4TPaD3d3j12tuoU5Nz3J8ZLMrCo2qUHGpAKS5QNBS0xdEDxhhLD_vggPIhBAETxVisfat8kcEr3ScBXgIpDbkn_EVHYiO6nlK2e2MdENNNrsUzFaIr8pp0RTR3AIWrDONUlXft2bhRQVZY27nHqQ_NlXW7LD0LU7CCi81UQGzzW-1FLrq2oZHBZW0Nnu7KXrfJlxLLkFiNpUkkxZVTVTVhqrT3vxy0]--></g></svg>