<svg xmlns="http://www.w3.org/2000/svg" xmlns:xlink="http://www.w3.org/1999/xlink" contentStyleType="text/css" data-diagram-type="SEQUENCE" height="1195px" preserveAspectRatio="none" style="width:868px;height:1195px;background:#FFFFFF;" version="1.1" viewBox="0 0 868 1195" width="868px" zoomAndPan="magnify"><defs/><g><g><title>LogicalFlowSupervisor</title><rect fill="#FFFFFF" height="35.1328" style="stroke:#181818;stroke-width:1;" width="10" x="311.792" y="155.5625"/></g><g><title>LogicalFlowSupervisor</title><rect fill="#FFFFFF" height="35.1328" style="stroke:#181818;stroke-width:1;" width="10" x="311.792" y="226.8281"/></g><g><title>LogicalFlowSupervisor</title><rect fill="#FFFFFF" height="93.3984" style="stroke:#181818;stroke-width:1;" width="10" x="311.792" y="298.0938"/></g><g><title>LogicalFlowSupervisor</title><rect fill="#FFFFFF" height="64.2656" style="stroke:#181818;stroke-width:1;" width="10" x="311.792" y="427.625"/></g><g><title>LogicalFlowSupervisor</title><rect fill="#FFFFFF" height="306.7344" style="stroke:#181818;stroke-width:1;" width="10" x="311.792" y="571.1563"/></g><g><title>LogicalFlowSupervisor</title><rect fill="#FFFFFF" height="77.2656" style="stroke:#181818;stroke-width:1;" width="10" x="311.792" y="899.0234"/></g><g><title>LogicalFlowSupervisor</title><rect fill="#FFFFFF" height="77.2656" style="stroke:#181818;stroke-width:1;" width="10" x="311.792" y="1012.4219"/></g><rect fill="transparent" height="242.6016" style="stroke:#000000;stroke-width:1.5;" width="325.0967" x="221.7563" y="628.2891"/><g><title>Client</title><rect fill="transparent" height="1033.3906" width="8" x="24.2651" y="81.2969"/><line style="stroke:#181818;stroke-width:0.5;stroke-dasharray:5.0,5.0;" x1="28" x2="28" y1="81.2969" y2="1114.6875"/></g><g><title>LogicalFlowSupervisor</title><rect fill="transparent" height="1033.3906" width="8" x="312.792" y="81.2969"/><line style="stroke:#181818;stroke-width:0.5;stroke-dasharray:5.0,5.0;" x1="316.7563" x2="316.7563" y1="81.2969" y2="1114.6875"/></g><g><title>Transition</title><rect fill="transparent" height="1033.3906" width="8" x="719.7241" y="81.2969"/><line style="stroke:#181818;stroke-width:0.5;stroke-dasharray:5.0,5.0;" x1="722.8438" x2="722.8438" y1="81.2969" y2="1114.6875"/></g><g><title>Condition</title><rect fill="transparent" height="1033.3906" width="8" x="812.0083" y="81.2969"/><line style="stroke:#181818;stroke-width:0.5;stroke-dasharray:5.0,5.0;" x1="815.6045" x2="815.6045" y1="81.2969" y2="1114.6875"/></g><text fill="#000000" font-family="sans-serif" font-size="14" lengthAdjust="spacing" textLength="40.5303" x="5" y="77.9951">Client</text><ellipse cx="28.2651" cy="13.5" fill="#E2E2F0" rx="8" ry="8" style="stroke:#181818;stroke-width:0.5;"/><path d="M28.2651,21.5 L28.2651,48.5 M15.2651,29.5 L41.2651,29.5 M28.2651,48.5 L15.2651,63.5 M28.2651,48.5 L41.2651,63.5 " fill="transparent" style="stroke:#181818;stroke-width:0.5;"/><text fill="#000000" font-family="sans-serif" font-size="14" lengthAdjust="spacing" textLength="40.5303" x="5" y="1126.6826">Client</text><ellipse cx="28.2651" cy="1138.4844" fill="#E2E2F0" rx="8" ry="8" style="stroke:#181818;stroke-width:0.5;"/><path d="M28.2651,1146.4844 L28.2651,1173.4844 M15.2651,1154.4844 L41.2651,1154.4844 M28.2651,1173.4844 L15.2651,1188.4844 M28.2651,1173.4844 L41.2651,1188.4844 " fill="transparent" style="stroke:#181818;stroke-width:0.5;"/><rect fill="#E2E2F0" height="30.2969" rx="2.5" ry="2.5" style="stroke:#181818;stroke-width:0.5;" width="170.0713" x="231.7563" y="50"/><text fill="#000000" font-family="sans-serif" font-size="14" lengthAdjust="spacing" textLength="156.0713" x="238.7563" y="69.9951">LogicalFlowSupervisor</text><rect fill="#E2E2F0" height="30.2969" rx="2.5" ry="2.5" style="stroke:#181818;stroke-width:0.5;" width="170.0713" x="231.7563" y="1113.6875"/><text fill="#000000" font-family="sans-serif" font-size="14" lengthAdjust="spacing" textLength="156.0713" x="238.7563" y="1133.6826">LogicalFlowSupervisor</text><rect fill="#E2E2F0" height="30.2969" rx="2.5" ry="2.5" style="stroke:#181818;stroke-width:0.5;" width="83.7607" x="681.8438" y="50"/><text fill="#000000" font-family="sans-serif" font-size="14" lengthAdjust="spacing" textLength="69.7607" x="688.8438" y="69.9951">Transition</text><rect fill="#E2E2F0" height="30.2969" rx="2.5" ry="2.5" style="stroke:#181818;stroke-width:0.5;" width="83.7607" x="681.8438" y="1113.6875"/><text fill="#000000" font-family="sans-serif" font-size="14" lengthAdjust="spacing" textLength="69.7607" x="688.8438" y="1133.6826">Transition</text><rect fill="#E2E2F0" height="30.2969" rx="2.5" ry="2.5" style="stroke:#181818;stroke-width:0.5;" width="80.8076" x="775.6045" y="50"/><text fill="#000000" font-family="sans-serif" font-size="14" lengthAdjust="spacing" textLength="66.8076" x="782.6045" y="69.9951">Condition</text><rect fill="#E2E2F0" height="30.2969" rx="2.5" ry="2.5" style="stroke:#181818;stroke-width:0.5;" width="80.8076" x="775.6045" y="1113.6875"/><text fill="#000000" font-family="sans-serif" font-size="14" lengthAdjust="spacing" textLength="66.8076" x="782.6045" y="1133.6826">Condition</text><g><title>LogicalFlowSupervisor</title><rect fill="#FFFFFF" height="35.1328" style="stroke:#181818;stroke-width:1;" width="10" x="311.792" y="155.5625"/></g><g><title>LogicalFlowSupervisor</title><rect fill="#FFFFFF" height="35.1328" style="stroke:#181818;stroke-width:1;" width="10" x="311.792" y="226.8281"/></g><g><title>LogicalFlowSupervisor</title><rect fill="#FFFFFF" height="93.3984" style="stroke:#181818;stroke-width:1;" width="10" x="311.792" y="298.0938"/></g><g><title>LogicalFlowSupervisor</title><rect fill="#FFFFFF" height="64.2656" style="stroke:#181818;stroke-width:1;" width="10" x="311.792" y="427.625"/></g><g><title>LogicalFlowSupervisor</title><rect fill="#FFFFFF" height="306.7344" style="stroke:#181818;stroke-width:1;" width="10" x="311.792" y="571.1563"/></g><g><title>LogicalFlowSupervisor</title><rect fill="#FFFFFF" height="77.2656" style="stroke:#181818;stroke-width:1;" width="10" x="311.792" y="899.0234"/></g><g><title>LogicalFlowSupervisor</title><rect fill="#FFFFFF" height="77.2656" style="stroke:#181818;stroke-width:1;" width="10" x="311.792" y="1012.4219"/></g><rect fill="#EEEEEE" height="3" style="stroke:#EEEEEE;stroke-width:1;" width="861.4121" x="0" y="111.8633"/><line style="stroke:#000000;stroke-width:1;" x1="0" x2="861.4121" y1="111.8633" y2="111.8633"/><line style="stroke:#000000;stroke-width:1;" x1="0" x2="861.4121" y1="114.8633" y2="114.8633"/><rect fill="#EEEEEE" height="23.1328" style="stroke:#000000;stroke-width:2;" width="159.2598" x="351.0762" y="101.2969"/><text fill="#000000" font-family="sans-serif" font-size="13" font-weight="bold" lengthAdjust="spacing" textLength="140.7339" x="357.0762" y="117.3638">Initialization Phase</text><polygon fill="#181818" points="299.792,151.5625,309.792,155.5625,299.792,159.5625,303.792,155.5625" style="stroke:#181818;stroke-width:1;"/><line style="stroke:#181818;stroke-width:1;" x1="28.2651" x2="305.792" y1="155.5625" y2="155.5625"/><text fill="#000000" font-family="sans-serif" font-size="13" font-weight="bold" lengthAdjust="spacing" textLength="39.019" x="35.2651" y="150.4966">[001]</text><text fill="#000000" font-family="sans-serif" font-size="13" lengthAdjust="spacing" textLength="204.7183" x="78.2842" y="150.4966">add_entry_point(checkpoint_id)</text><line style="stroke:#181818;stroke-width:1;" x1="321.792" x2="363.792" y1="189.6953" y2="189.6953"/><line style="stroke:#181818;stroke-width:1;" x1="363.792" x2="363.792" y1="189.6953" y2="202.6953"/><line style="stroke:#181818;stroke-width:1;" x1="316.792" x2="363.792" y1="202.6953" y2="202.6953"/><polygon fill="#181818" points="326.792,198.6953,316.792,202.6953,326.792,206.6953,322.792,202.6953" style="stroke:#181818;stroke-width:1;"/><text fill="#000000" font-family="sans-serif" font-size="13" font-weight="bold" lengthAdjust="spacing" textLength="39.019" x="328.792" y="184.6294">[002]</text><text fill="#000000" font-family="sans-serif" font-size="13" lengthAdjust="spacing" textLength="221.2222" x="371.811" y="184.6294">Add checkpoint_id to entry_points</text><polygon fill="#181818" points="299.792,222.8281,309.792,226.8281,299.792,230.8281,303.792,226.8281" style="stroke:#181818;stroke-width:1;"/><line style="stroke:#181818;stroke-width:1;" x1="28.2651" x2="305.792" y1="226.8281" y2="226.8281"/><text fill="#000000" font-family="sans-serif" font-size="13" font-weight="bold" lengthAdjust="spacing" textLength="39.019" x="35.2651" y="221.7622">[003]</text><text fill="#000000" font-family="sans-serif" font-size="13" lengthAdjust="spacing" textLength="194.7461" x="78.2842" y="221.7622">add_exit_point(checkpoint_id)</text><line style="stroke:#181818;stroke-width:1;" x1="321.792" x2="363.792" y1="260.9609" y2="260.9609"/><line style="stroke:#181818;stroke-width:1;" x1="363.792" x2="363.792" y1="260.9609" y2="273.9609"/><line style="stroke:#181818;stroke-width:1;" x1="316.792" x2="363.792" y1="273.9609" y2="273.9609"/><polygon fill="#181818" points="326.792,269.9609,316.792,273.9609,326.792,277.9609,322.792,273.9609" style="stroke:#181818;stroke-width:1;"/><text fill="#000000" font-family="sans-serif" font-size="13" font-weight="bold" lengthAdjust="spacing" textLength="39.019" x="328.792" y="255.895">[004]</text><text fill="#000000" font-family="sans-serif" font-size="13" lengthAdjust="spacing" textLength="211.25" x="371.811" y="255.895">Add checkpoint_id to exit_points</text><polygon fill="#181818" points="299.792,294.0938,309.792,298.0938,299.792,302.0938,303.792,298.0938" style="stroke:#181818;stroke-width:1;"/><line style="stroke:#181818;stroke-width:1;" x1="28.2651" x2="305.792" y1="298.0938" y2="298.0938"/><text fill="#000000" font-family="sans-serif" font-size="13" font-weight="bold" lengthAdjust="spacing" textLength="39.019" x="35.2651" y="293.0278">[005]</text><text fill="#000000" font-family="sans-serif" font-size="13" lengthAdjust="spacing" textLength="221.5078" x="78.2842" y="293.0278">add_allowed_transition(transition)</text><polygon fill="#181818" points="711.7241,323.2266,721.7241,327.2266,711.7241,331.2266,715.7241,327.2266" style="stroke:#181818;stroke-width:1;"/><line style="stroke:#181818;stroke-width:1;" x1="321.792" x2="717.7241" y1="327.2266" y2="327.2266"/><text fill="#000000" font-family="sans-serif" font-size="13" font-weight="bold" lengthAdjust="spacing" textLength="39.019" x="328.792" y="322.1606">[006]</text><text fill="#000000" font-family="sans-serif" font-size="13" lengthAdjust="spacing" textLength="81.4468" x="371.811" y="322.1606">get_source()</text><polygon fill="#181818" points="711.7241,352.3594,721.7241,356.3594,711.7241,360.3594,715.7241,356.3594" style="stroke:#181818;stroke-width:1;"/><line style="stroke:#181818;stroke-width:1;" x1="321.792" x2="717.7241" y1="356.3594" y2="356.3594"/><text fill="#000000" font-family="sans-serif" font-size="13" font-weight="bold" lengthAdjust="spacing" textLength="39.019" x="328.792" y="351.2935">[007]</text><text fill="#000000" font-family="sans-serif" font-size="13" lengthAdjust="spacing" textLength="77.7461" x="371.811" y="351.2935">get_target()</text><line style="stroke:#181818;stroke-width:1;" x1="321.792" x2="363.792" y1="390.4922" y2="390.4922"/><line style="stroke:#181818;stroke-width:1;" x1="363.792" x2="363.792" y1="390.4922" y2="403.4922"/><line style="stroke:#181818;stroke-width:1;" x1="316.792" x2="363.792" y1="403.4922" y2="403.4922"/><polygon fill="#181818" points="326.792,399.4922,316.792,403.4922,326.792,407.4922,322.792,403.4922" style="stroke:#181818;stroke-width:1;"/><text fill="#000000" font-family="sans-serif" font-size="13" font-weight="bold" lengthAdjust="spacing" textLength="39.019" x="328.792" y="385.4263">[008]</text><text fill="#000000" font-family="sans-serif" font-size="13" lengthAdjust="spacing" textLength="329.9131" x="371.811" y="385.4263">Add edge to allowed_transitions (source -&gt; target)</text><polygon fill="#181818" points="299.792,423.625,309.792,427.625,299.792,431.625,303.792,427.625" style="stroke:#181818;stroke-width:1;"/><line style="stroke:#181818;stroke-width:1;" x1="28.2651" x2="305.792" y1="427.625" y2="427.625"/><text fill="#000000" font-family="sans-serif" font-size="13" font-weight="bold" lengthAdjust="spacing" textLength="39.019" x="35.2651" y="422.5591">[009]</text><text fill="#000000" font-family="sans-serif" font-size="13" lengthAdjust="spacing" textLength="159.8467" x="78.2842" y="422.5591">link_condition(condition)</text><polygon fill="#181818" points="804.0083,452.7578,814.0083,456.7578,804.0083,460.7578,808.0083,456.7578" style="stroke:#181818;stroke-width:1;"/><line style="stroke:#181818;stroke-width:1;" x1="321.792" x2="810.0083" y1="456.7578" y2="456.7578"/><text fill="#000000" font-family="sans-serif" font-size="13" font-weight="bold" lengthAdjust="spacing" textLength="39.019" x="328.792" y="451.6919">[010]</text><text fill="#000000" font-family="sans-serif" font-size="13" lengthAdjust="spacing" textLength="182.8442" x="371.811" y="451.6919">Store reference to condition</text><line style="stroke:#181818;stroke-width:1;" x1="321.792" x2="363.792" y1="490.8906" y2="490.8906"/><line style="stroke:#181818;stroke-width:1;" x1="363.792" x2="363.792" y1="490.8906" y2="503.8906"/><line style="stroke:#181818;stroke-width:1;" x1="316.792" x2="363.792" y1="503.8906" y2="503.8906"/><polygon fill="#181818" points="326.792,499.8906,316.792,503.8906,326.792,507.8906,322.792,503.8906" style="stroke:#181818;stroke-width:1;"/><text fill="#000000" font-family="sans-serif" font-size="13" font-weight="bold" lengthAdjust="spacing" textLength="39.019" x="328.792" y="485.8247">[011]</text><text fill="#000000" font-family="sans-serif" font-size="13" lengthAdjust="spacing" textLength="159.3325" x="371.811" y="485.8247">Add to linked_conditions</text><rect fill="#EEEEEE" height="3" style="stroke:#EEEEEE;stroke-width:1;" width="861.4121" x="0" y="527.457"/><line style="stroke:#000000;stroke-width:1;" x1="0" x2="861.4121" y1="527.457" y2="527.457"/><line style="stroke:#000000;stroke-width:1;" x1="0" x2="861.4121" y1="530.457" y2="530.457"/><rect fill="#EEEEEE" height="23.1328" style="stroke:#000000;stroke-width:2;" width="231.585" x="314.9136" y="516.8906"/><text fill="#000000" font-family="sans-serif" font-size="13" font-weight="bold" lengthAdjust="spacing" textLength="213.0591" x="320.9136" y="532.9575">Supervision (Runtime) Phase</text><polygon fill="#181818" points="299.792,567.1563,309.792,571.1563,299.792,575.1563,303.792,571.1563" style="stroke:#181818;stroke-width:1;"/><line style="stroke:#181818;stroke-width:1;" x1="28.2651" x2="305.792" y1="571.1563" y2="571.1563"/><text fill="#000000" font-family="sans-serif" font-size="13" font-weight="bold" lengthAdjust="spacing" textLength="39.019" x="35.2651" y="566.0903">[012]</text><text fill="#000000" font-family="sans-serif" font-size="13" lengthAdjust="spacing" textLength="219.4766" x="78.2842" y="566.0903">record_checkpoint(checkpoint_id)</text><line style="stroke:#181818;stroke-width:1;" x1="321.792" x2="363.792" y1="600.2891" y2="600.2891"/><line style="stroke:#181818;stroke-width:1;" x1="363.792" x2="363.792" y1="600.2891" y2="613.2891"/><line style="stroke:#181818;stroke-width:1;" x1="322.792" x2="363.792" y1="613.2891" y2="613.2891"/><polygon fill="#181818" points="332.792,609.2891,322.792,613.2891,332.792,617.2891,328.792,613.2891" style="stroke:#181818;stroke-width:1;"/><text fill="#000000" font-family="sans-serif" font-size="13" font-weight="bold" lengthAdjust="spacing" textLength="39.019" x="328.792" y="595.2231">[013]</text><text fill="#000000" font-family="sans-serif" font-size="13" lengthAdjust="spacing" textLength="187.0527" x="371.811" y="595.2231">Check if transition is allowed</text><path d="M221.7563,628.2891 L286.1992,628.2891 L286.1992,635.4219 L276.1992,645.4219 L221.7563,645.4219 L221.7563,628.2891 " fill="#EEEEEE" style="stroke:#000000;stroke-width:1.5;"/><rect fill="transparent" height="242.6016" style="stroke:#000000;stroke-width:1.5;" width="325.0967" x="221.7563" y="628.2891"/><text fill="#000000" font-family="sans-serif" font-size="13" font-weight="bold" lengthAdjust="spacing" textLength="19.4429" x="236.7563" y="641.356">alt</text><text fill="#000000" font-family="sans-serif" font-size="11" font-weight="bold" lengthAdjust="spacing" textLength="123.6641" x="301.1992" y="640.4995">[Allowed transition]</text><line style="stroke:#181818;stroke-width:1;" x1="321.792" x2="363.792" y1="666.5547" y2="666.5547"/><line style="stroke:#181818;stroke-width:1;" x1="363.792" x2="363.792" y1="666.5547" y2="679.5547"/><line style="stroke:#181818;stroke-width:1;" x1="322.792" x2="363.792" y1="679.5547" y2="679.5547"/><polygon fill="#181818" points="332.792,675.5547,322.792,679.5547,332.792,683.5547,328.792,679.5547" style="stroke:#181818;stroke-width:1;"/><text fill="#000000" font-family="sans-serif" font-size="13" font-weight="bold" lengthAdjust="spacing" textLength="39.019" x="328.792" y="661.4888">[014]</text><text fill="#000000" font-family="sans-serif" font-size="13" lengthAdjust="spacing" textLength="152.3755" x="371.811" y="661.4888">Update last_checkpoint</text><line style="stroke:#181818;stroke-width:1;" x1="321.792" x2="363.792" y1="708.6875" y2="708.6875"/><line style="stroke:#181818;stroke-width:1;" x1="363.792" x2="363.792" y1="708.6875" y2="721.6875"/><line style="stroke:#181818;stroke-width:1;" x1="322.792" x2="363.792" y1="721.6875" y2="721.6875"/><polygon fill="#181818" points="332.792,717.6875,322.792,721.6875,332.792,725.6875,328.792,721.6875" style="stroke:#181818;stroke-width:1;"/><text fill="#000000" font-family="sans-serif" font-size="13" font-weight="bold" lengthAdjust="spacing" textLength="39.019" x="328.792" y="703.6216">[015]</text><text fill="#000000" font-family="sans-serif" font-size="13" lengthAdjust="spacing" textLength="84.1445" x="371.811" y="703.6216">Update state</text><line style="stroke:#181818;stroke-width:1;" x1="321.792" x2="363.792" y1="750.8203" y2="750.8203"/><line style="stroke:#181818;stroke-width:1;" x1="363.792" x2="363.792" y1="750.8203" y2="763.8203"/><line style="stroke:#181818;stroke-width:1;" x1="322.792" x2="363.792" y1="763.8203" y2="763.8203"/><polygon fill="#181818" points="332.792,759.8203,322.792,763.8203,332.792,767.8203,328.792,763.8203" style="stroke:#181818;stroke-width:1;"/><text fill="#000000" font-family="sans-serif" font-size="13" font-weight="bold" lengthAdjust="spacing" textLength="39.019" x="328.792" y="745.7544">[016]</text><text fill="#000000" font-family="sans-serif" font-size="13" lengthAdjust="spacing" textLength="153.042" x="371.811" y="745.7544">Notify linked conditions</text><line style="stroke:#000000;stroke-width:1;stroke-dasharray:2.0,2.0;" x1="221.7563" x2="546.853" y1="772.8203" y2="772.8203"/><text fill="#000000" font-family="sans-serif" font-size="11" font-weight="bold" lengthAdjust="spacing" textLength="116.4883" x="226.7563" y="783.0308">[Invalid transition]</text><line style="stroke:#181818;stroke-width:1;" x1="321.792" x2="363.792" y1="807.7578" y2="807.7578"/><line style="stroke:#181818;stroke-width:1;" x1="363.792" x2="363.792" y1="807.7578" y2="820.7578"/><line style="stroke:#181818;stroke-width:1;" x1="322.792" x2="363.792" y1="820.7578" y2="820.7578"/><polygon fill="#181818" points="332.792,816.7578,322.792,820.7578,332.792,824.7578,328.792,820.7578" style="stroke:#181818;stroke-width:1;"/><text fill="#000000" font-family="sans-serif" font-size="13" font-weight="bold" lengthAdjust="spacing" textLength="39.019" x="328.792" y="802.6919">[017]</text><text fill="#000000" font-family="sans-serif" font-size="13" lengthAdjust="spacing" textLength="130.9902" x="371.811" y="802.6919">Set status to Failure</text><line style="stroke:#181818;stroke-width:1;" x1="321.792" x2="363.792" y1="849.8906" y2="849.8906"/><line style="stroke:#181818;stroke-width:1;" x1="363.792" x2="363.792" y1="849.8906" y2="862.8906"/><line style="stroke:#181818;stroke-width:1;" x1="322.792" x2="363.792" y1="862.8906" y2="862.8906"/><polygon fill="#181818" points="332.792,858.8906,322.792,862.8906,332.792,866.8906,328.792,862.8906" style="stroke:#181818;stroke-width:1;"/><text fill="#000000" font-family="sans-serif" font-size="13" font-weight="bold" lengthAdjust="spacing" textLength="39.019" x="328.792" y="844.8247">[018]</text><text fill="#000000" font-family="sans-serif" font-size="13" lengthAdjust="spacing" textLength="153.042" x="371.811" y="844.8247">Notify linked conditions</text><polygon fill="#181818" points="299.792,895.0234,309.792,899.0234,299.792,903.0234,303.792,899.0234" style="stroke:#181818;stroke-width:1;"/><line style="stroke:#181818;stroke-width:1;" x1="28.2651" x2="305.792" y1="899.0234" y2="899.0234"/><text fill="#000000" font-family="sans-serif" font-size="13" font-weight="bold" lengthAdjust="spacing" textLength="39.019" x="35.2651" y="893.9575">[019]</text><text fill="#000000" font-family="sans-serif" font-size="13" lengthAdjust="spacing" textLength="54.209" x="78.2842" y="893.9575">enable()</text><line style="stroke:#181818;stroke-width:1;" x1="321.792" x2="363.792" y1="928.1563" y2="928.1563"/><line style="stroke:#181818;stroke-width:1;" x1="363.792" x2="363.792" y1="928.1563" y2="941.1563"/><line style="stroke:#181818;stroke-width:1;" x1="322.792" x2="363.792" y1="941.1563" y2="941.1563"/><polygon fill="#181818" points="332.792,937.1563,322.792,941.1563,332.792,945.1563,328.792,941.1563" style="stroke:#181818;stroke-width:1;"/><text fill="#000000" font-family="sans-serif" font-size="13" font-weight="bold" lengthAdjust="spacing" textLength="39.019" x="328.792" y="923.0903">[020]</text><text fill="#000000" font-family="sans-serif" font-size="13" lengthAdjust="spacing" textLength="114.8608" x="371.811" y="923.0903">Set enabled state</text><line style="stroke:#181818;stroke-width:1;" x1="321.792" x2="363.792" y1="975.2891" y2="975.2891"/><line style="stroke:#181818;stroke-width:1;" x1="363.792" x2="363.792" y1="975.2891" y2="988.2891"/><line style="stroke:#181818;stroke-width:1;" x1="316.792" x2="363.792" y1="988.2891" y2="988.2891"/><polygon fill="#181818" points="326.792,984.2891,316.792,988.2891,326.792,992.2891,322.792,988.2891" style="stroke:#181818;stroke-width:1;"/><text fill="#000000" font-family="sans-serif" font-size="13" font-weight="bold" lengthAdjust="spacing" textLength="39.019" x="328.792" y="970.2231">[021]</text><text fill="#000000" font-family="sans-serif" font-size="13" lengthAdjust="spacing" textLength="151.3726" x="371.811" y="970.2231">Prepare for supervision</text><polygon fill="#181818" points="299.792,1008.4219,309.792,1012.4219,299.792,1016.4219,303.792,1012.4219" style="stroke:#181818;stroke-width:1;"/><line style="stroke:#181818;stroke-width:1;" x1="28.2651" x2="305.792" y1="1012.4219" y2="1012.4219"/><text fill="#000000" font-family="sans-serif" font-size="13" font-weight="bold" lengthAdjust="spacing" textLength="39.019" x="35.2651" y="1007.356">[022]</text><text fill="#000000" font-family="sans-serif" font-size="13" lengthAdjust="spacing" textLength="56.6084" x="78.2842" y="1007.356">disable()</text><line style="stroke:#181818;stroke-width:1;" x1="321.792" x2="363.792" y1="1041.5547" y2="1041.5547"/><line style="stroke:#181818;stroke-width:1;" x1="363.792" x2="363.792" y1="1041.5547" y2="1054.5547"/><line style="stroke:#181818;stroke-width:1;" x1="322.792" x2="363.792" y1="1054.5547" y2="1054.5547"/><polygon fill="#181818" points="332.792,1050.5547,322.792,1054.5547,332.792,1058.5547,328.792,1054.5547" style="stroke:#181818;stroke-width:1;"/><text fill="#000000" font-family="sans-serif" font-size="13" font-weight="bold" lengthAdjust="spacing" textLength="39.019" x="328.792" y="1036.4888">[023]</text><text fill="#000000" font-family="sans-serif" font-size="13" lengthAdjust="spacing" textLength="117.2603" x="371.811" y="1036.4888">Set disabled state</text><line style="stroke:#181818;stroke-width:1;" x1="321.792" x2="363.792" y1="1088.6875" y2="1088.6875"/><line style="stroke:#181818;stroke-width:1;" x1="363.792" x2="363.792" y1="1088.6875" y2="1101.6875"/><line style="stroke:#181818;stroke-width:1;" x1="316.792" x2="363.792" y1="1101.6875" y2="1101.6875"/><polygon fill="#181818" points="326.792,1097.6875,316.792,1101.6875,326.792,1105.6875,322.792,1101.6875" style="stroke:#181818;stroke-width:1;"/><text fill="#000000" font-family="sans-serif" font-size="13" font-weight="bold" lengthAdjust="spacing" textLength="39.019" x="328.792" y="1083.6216">[024]</text><text fill="#000000" font-family="sans-serif" font-size="13" lengthAdjust="spacing" textLength="53.3838" x="371.811" y="1083.6216">Cleanup</text><!--SRC=[hLJ1QkCm4BtxAuQSdCD2pg4f54EWK9RIP4-bc8aqIOUgaf76sRPVlvATs4wJRBAm1jjZpTEyfwUni1Pdw_SLUHZTh6wV9vF9ooX39IuE58R9oWWmG1jc5NfXnHLQWT63sx12CpVkzwAko6yvED-W7-QBG-ZIemqix6oJNnvc2sTrdoooR3Q3Unj7qF0NfWGylc8WcCsoLWZyk4qaKq2jo_ZjFylAiPLSlP9wQyAIzJWjXBSer2YATpVlJcium88u61GAcQQ3oIU9FrZ-2szNvofQDD5nqgLqfkPzU9fxEOKDIHbSxHNbus_3WZw- -k5EAUaD9O77Z07ojbZ2j_F7bxGRjc-bskzrtaMd9HTJMCGk9F2q9azMDKgwIKTQOp8HH9KTvjZDs5ZxLarTbJ_LLlYTncVxovDoFfRijkpgdIuI3dWDlMd0OMzbXaRWheq7Y0pYDQpogzAfkC4W0n7dO47YyoZvqmclFtVkmC0TCd7DztORVxE_YbYGDANha5oU8vlQ_mkDrPTQWookJ6hCitOc3IrAxvOvp3vwYYSAmJeUMw7Vu4kqciCrl3lOAUB24Dgw-axq1m00]--></g></svg>