<svg xmlns="http://www.w3.org/2000/svg" xmlns:xlink="http://www.w3.org/1999/xlink" contentStyleType="text/css" data-diagram-type="CLASS" height="308px" preserveAspectRatio="none" style="width:815px;height:308px;background:#FFFFFF;" version="1.1" viewBox="0 0 815 308" width="815px" zoomAndPan="magnify"><defs/><g><!--entity C1--><a href="../process/process_areas/architecture_design/architecture_getstrt.html#comp_arc_sta__component_getstrt" target="_top" title="../process/process_areas/architecture_design/architecture_getstrt.html#comp_arc_sta__component_getstrt" xlink:actuate="onRequest" xlink:href="../process/process_areas/architecture_design/architecture_getstrt.html#comp_arc_sta__component_getstrt" xlink:show="new" xlink:title="../process/process_areas/architecture_design/architecture_getstrt.html#comp_arc_sta__component_getstrt" xlink:type="simple"><rect fill="#F1F1F1" height="46.2969" rx="2.5" ry="2.5" style="stroke:#0000FF;stroke-width:2;" width="134.6367" x="7" y="210"/><rect fill="#F1F1F1" height="10" style="stroke:#0000FF;stroke-width:2;" width="15" x="121.6367" y="215"/><rect fill="#F1F1F1" height="2" style="stroke:#0000FF;stroke-width:2;" width="4" x="119.6367" y="217"/><rect fill="#F1F1F1" height="2" style="stroke:#0000FF;stroke-width:2;" width="4" x="119.6367" y="221"/><text fill="#000000" font-family="sans-serif" font-size="14" lengthAdjust="spacing" textLength="94.6367" x="22" y="242.9951">Component 1</text></a><!--entity CM--><g id="elem_CM"><rect fill="#F1F1F1" height="46.2969" rx="2.5" ry="2.5" style="stroke:#181818;stroke-width:0.5;" width="176.6025" x="612" y="7"/><rect fill="#F1F1F1" height="10" style="stroke:#181818;stroke-width:0.5;" width="15" x="768.6025" y="12"/><rect fill="#F1F1F1" height="2" style="stroke:#181818;stroke-width:0.5;" width="4" x="766.6025" y="14"/><rect fill="#F1F1F1" height="2" style="stroke:#181818;stroke-width:0.5;" width="4" x="766.6025" y="18"/><text fill="#000000" font-family="sans-serif" font-size="14" lengthAdjust="spacing" textLength="136.6025" x="627" y="39.9951">Component Manual</text></g><!--class CI1--><a href="../process/process_areas/architecture_design/architecture_concept.html#comp_arc_int__archdes_component_interface_1" target="_top" title="../process/process_areas/architecture_design/architecture_concept.html#comp_arc_int__archdes_component_interface_1" xlink:actuate="onRequest" xlink:href="../process/process_areas/architecture_design/architecture_concept.html#comp_arc_int__archdes_component_interface_1" xlink:show="new" xlink:title="../process/process_areas/architecture_design/architecture_concept.html#comp_arc_int__archdes_component_interface_1" xlink:type="simple"><g id="elem_CI1"><rect codeLine="15" fill="#F1F1F1" height="80.5938" id="CI1" rx="2.5" ry="2.5" style="stroke:#181818;stroke-width:0.5;" width="193.7656" x="280" y="104.5"/><ellipse cx="295" cy="120.5" fill="#B4A7E5" rx="11" ry="11" style="stroke:#181818;stroke-width:1;"/><path d="M290.9219,116.2656 L290.9219,114.1094 L298.3125,114.1094 L298.3125,116.2656 L295.8438,116.2656 L295.8438,124.3438 L298.3125,124.3438 L298.3125,126.5 L290.9219,126.5 L290.9219,124.3438 L293.3906,124.3438 L293.3906,116.2656 L290.9219,116.2656 Z " fill="#000000"/><text fill="#000000" font-family="sans-serif" font-size="14" font-style="italic" lengthAdjust="spacing" textLength="161.7656" x="309" y="125.3467">Component Interface 1</text><line style="stroke:#181818;stroke-width:0.5;" x1="281" x2="472.7656" y1="136.5" y2="136.5"/><line style="stroke:#181818;stroke-width:0.5;" x1="281" x2="472.7656" y1="144.5" y2="144.5"/><text fill="#000000" font-family="sans-serif" font-size="14" lengthAdjust="spacing" textLength="127.2373" x="286" y="161.4951">real operation 1 ()</text><text fill="#000000" font-family="sans-serif" font-size="14" lengthAdjust="spacing" textLength="127.2373" x="286" y="177.792">real operation 2 ()</text></g></a><!--class CI3--><a href="../process/process_areas/architecture_design/_assets/architecture_modeling_example.html#comp_arc_int__archdes_component_interface_3" target="_top" title="../process/process_areas/architecture_design/_assets/architecture_modeling_example.html#comp_arc_int__archdes_component_interface_3" xlink:actuate="onRequest" xlink:href="../process/process_areas/architecture_design/_assets/architecture_modeling_example.html#comp_arc_int__archdes_component_interface_3" xlink:show="new" xlink:title="../process/process_areas/architecture_design/_assets/architecture_modeling_example.html#comp_arc_int__archdes_component_interface_3" xlink:type="simple"><g id="elem_CI3"><rect codeLine="21" fill="#F1F1F1" height="80.5938" id="CI3" rx="2.5" ry="2.5" style="stroke:#181818;stroke-width:0.5;" width="193.7656" x="280" y="220.5"/><ellipse cx="295" cy="236.5" fill="#B4A7E5" rx="11" ry="11" style="stroke:#181818;stroke-width:1;"/><path d="M290.9219,232.2656 L290.9219,230.1094 L298.3125,230.1094 L298.3125,232.2656 L295.8438,232.2656 L295.8438,240.3438 L298.3125,240.3438 L298.3125,242.5 L290.9219,242.5 L290.9219,240.3438 L293.3906,240.3438 L293.3906,232.2656 L290.9219,232.2656 Z " fill="#000000"/><text fill="#000000" font-family="sans-serif" font-size="14" font-style="italic" lengthAdjust="spacing" textLength="161.7656" x="309" y="241.3467">Component Interface 3</text><line style="stroke:#181818;stroke-width:0.5;" x1="281" x2="472.7656" y1="252.5" y2="252.5"/><line style="stroke:#181818;stroke-width:0.5;" x1="281" x2="472.7656" y1="260.5" y2="260.5"/><text fill="#000000" font-family="sans-serif" font-size="14" lengthAdjust="spacing" textLength="127.2373" x="286" y="277.4951">real operation 5 ()</text><text fill="#000000" font-family="sans-serif" font-size="14" lengthAdjust="spacing" textLength="127.2373" x="286" y="293.792">real operation 6 ()</text></g></a><!--class LI1--><a href="../process/process_areas/architecture_design/architecture_concept.html#feat_arc_int__archdes_logical_interface_1" target="_top" title="../process/process_areas/architecture_design/architecture_concept.html#feat_arc_int__archdes_logical_interface_1" xlink:actuate="onRequest" xlink:href="../process/process_areas/architecture_design/architecture_concept.html#feat_arc_int__archdes_logical_interface_1" xlink:show="new" xlink:title="../process/process_areas/architecture_design/architecture_concept.html#feat_arc_int__archdes_logical_interface_1" xlink:type="simple"><g id="elem_LI1"><rect codeLine="27" fill="#F1F1F1" height="80.5938" id="LI1" rx="2.5" ry="2.5" style="stroke:#181818;stroke-width:0.5;" width="164.1611" x="618.5" y="104.5"/><ellipse cx="634.5652" cy="120.5" fill="#B4A7E5" rx="11" ry="11" style="stroke:#181818;stroke-width:1;"/><path d="M630.4871,116.2656 L630.4871,114.1094 L637.8777,114.1094 L637.8777,116.2656 L635.409,116.2656 L635.409,124.3438 L637.8777,124.3438 L637.8777,126.5 L630.4871,126.5 L630.4871,124.3438 L632.9559,124.3438 L632.9559,116.2656 L630.4871,116.2656 Z " fill="#000000"/><text fill="#000000" font-family="sans-serif" font-size="14" font-style="italic" lengthAdjust="spacing" textLength="129.7939" x="648.802" y="125.3467">Logical Interface 1</text><line style="stroke:#181818;stroke-width:0.5;" x1="619.5" x2="781.6611" y1="136.5" y2="136.5"/><line style="stroke:#181818;stroke-width:0.5;" x1="619.5" x2="781.6611" y1="144.5" y2="144.5"/><text fill="#000000" font-family="sans-serif" font-size="14" lengthAdjust="spacing" textLength="152.1611" x="624.5" y="161.4951">Logical Operation 1 ()</text><text fill="#000000" font-family="sans-serif" font-size="14" lengthAdjust="spacing" textLength="152.1611" x="624.5" y="177.792">Logical Operation 2 ()</text></g></a><!--link C1 to CI1--><g id="link_C1_CI1"><path codeLine="34" d="M142.19,213.47 C182.65,201.62 229.2117,187.9859 274.0917,174.8459 " fill="transparent" id="C1-to-CI1" style="stroke:#181818;stroke-width:1;"/><polygon fill="#181818" points="279.85,173.16,270.0887,171.85,275.0514,174.5649,272.3365,179.5277,279.85,173.16" style="stroke:#181818;stroke-width:1;"/><text fill="#000000" font-family="sans-serif" font-size="13" lengthAdjust="spacing" textLength="76.9082" x="173" y="180.0669">implements</text></g><!--link C1 to CI3--><g id="link_C1_CI3"><path codeLine="35" d="M142.19,239.21 C182.65,242.98 228.9959,247.3036 273.8759,251.4836 " fill="transparent" id="C1-to-CI3" style="stroke:#181818;stroke-width:1;"/><polygon fill="#181818" points="279.85,252.04,271.2597,247.2226,274.8715,251.5763,270.5178,255.1881,279.85,252.04" style="stroke:#181818;stroke-width:1;"/><text fill="#000000" font-family="sans-serif" font-size="13" lengthAdjust="spacing" textLength="29.7832" x="196.5" y="238.0669">uses</text></g><!--link CI1 to LI1--><g id="link_CI1_LI1"><path codeLine="36" d="M474.03,145 C520,145 568.47,145 612.34,145 " fill="transparent" id="CI1-to-LI1" style="stroke:#181818;stroke-width:1;"/><polygon fill="#181818" points="618.34,145,609.34,141,613.34,145,609.34,149,618.34,145" style="stroke:#181818;stroke-width:1;"/><text fill="#000000" font-family="sans-serif" font-size="13" lengthAdjust="spacing" textLength="76.9082" x="505" y="141.0669">implements</text></g><!--link CM to LI1--><g id="link_CM_LI1"><path codeLine="40" d="M700.5,53.13 C700.5,67.83 700.5,81.25 700.5,98.46 " fill="transparent" id="CM-to-LI1" style="stroke:#181818;stroke-width:1;"/><polygon fill="#181818" points="700.5,104.46,704.5,95.46,700.5,99.46,696.5,95.46,700.5,104.46" style="stroke:#181818;stroke-width:1;"/><text fill="#000000" font-family="sans-serif" font-size="13" lengthAdjust="spacing" textLength="236.7993" x="571" y="83.3169">EXTRA_LINKAGE_MANUALLY_ADDED</text></g><!--SRC=[hPDHIyCm4CVVyocE-Q0-s3gBFiWOb6t8i9iW4nIH4BDR6qoJacGuaNrtKxVLhXkYQ5uI_adk_h-xX4cfNsak5aAbHEBCWTDWH9evc0g3t0cjI2Qc2DQXGUtU2YGTwzuaTWciHy2iaC_mNWc9KDZJKXjubdFSaYUPu2yAhOMpuBJQMLQhJhWEJhZE2wrGEMZrgcMx1Sn2hmsTpcVIRXSU7uCWB8pcFkXcfimWio4pF1FEKymDqYbQaQfjBKLddN51vd9vK2Rq5pcrZb5QfTySUde2ZxY4y11gVk0m14A4yjMPCOvrhyDANBiUjk5FRhbM78kcMv-RbelCNwcvhYpHjdV-JdmA2Rf0mygUUkD7nqtjhDIQX3MA7x56QzRerwoKMUjBlRsNwobA_pWfBbXUIFmjVBGF_dmF_CNtyD4EVA9JmNs8PfkJVstp39dR9PMht3jDtdYwsUxphbnhzHwE5Ilnt-paf5k-sqiGPV5pNnCBNtfq2NEBfJ9SIKdpwFvVF69gpkJgeOpAJqNyjBa-k9_SnZGPZg_Zgm4TnUExE4aUQDpl3_eV]--></g></svg>