<svg xmlns="http://www.w3.org/2000/svg" xmlns:xlink="http://www.w3.org/1999/xlink" contentStyleType="text/css" data-diagram-type="ACTIVITY" height="429.1667px" preserveAspectRatio="none" style="width:423px;height:429px;" version="1.1" viewBox="0 0 423 429" width="423.9583px" zoomAndPan="magnify"><defs><filter height="300%" id="ffww4leaxp41h" width="300%" x="-1" y="-1"><feGaussianBlur result="blurOut" stdDeviation="2.0833"/><feColorMatrix in="blurOut" result="blurOut2" type="matrix" values="0 0 0 0 0 0 0 0 0 0 0 0 0 0 0 0 0 0 .4 0"/><feOffset dx="4.1667" dy="4.1667" in="blurOut2" result="blurOut3"/><feBlend in="SourceGraphic" in2="blurOut3" mode="normal"/></filter><linearGradient id="gfww4leaxp41h0" x1="50%" x2="50%" y1="0%" y2="100%"><stop offset="0%" stop-color="#85CECB"/><stop offset="100%" stop-color="#45ADA8"/></linearGradient></defs><g><ellipse cx="175.3438" cy="20.8333" fill="#45ADA8" filter="url(#ffww4leaxp41h)" rx="10.4167" ry="10.4167" style="stroke:#296865;stroke-width:1.0417;"/><rect fill="url(#gfww4leaxp41h0)" filter="url(#ffww4leaxp41h)" height="29.1341" rx="4.1667" ry="4.1667" style="stroke:#45ADA8;stroke-width:1.0417;" width="115.8468" x="117.4205" y="52.0833"/><text fill="#0E2322" font-family="Arial" font-size="12.5" lengthAdjust="spacing" textLength="101.2634" x="124.7121" y="70.9778">Ingress SOME/IP</text><rect fill="url(#gfww4leaxp41h0)" filter="url(#ffww4leaxp41h)" height="29.1341" rx="4.1667" ry="4.1667" style="stroke:#45ADA8;stroke-width:1.0417;" width="81.252" x="134.7178" y="102.0508"/><text fill="#0E2322" font-family="Arial" font-size="12.5" lengthAdjust="spacing" textLength="66.6687" x="142.0095" y="120.9452">ACL Check</text><polygon fill="#85CECB" filter="url(#ffww4leaxp41h)" points="88.56,152.0182,262.1277,152.0182,274.6277,164.5182,262.1277,177.0182,88.56,177.0182,76.06,164.5182,88.56,152.0182" style="stroke:#296865;stroke-width:1.0417;"/><text fill="#0E2322" font-family="Arial" font-size="12.5" lengthAdjust="spacing" textLength="171.4844" x="89.6016" y="168.8456">Packet matches ACL entry?</text><text fill="#0E2322" font-family="Arial" font-size="12.5" lengthAdjust="spacing" textLength="21.8384" x="53.1799" y="160.5286">Yes</text><text fill="#0E2322" font-family="Arial" font-size="12.5" lengthAdjust="spacing" textLength="16.9983" x="275.6694" y="160.5286">No</text><rect fill="url(#gfww4leaxp41h0)" filter="url(#ffww4leaxp41h)" height="29.1341" rx="4.1667" ry="4.1667" style="stroke:#45ADA8;stroke-width:1.0417;" width="108.37" x="11.4583" y="187.4349"/><text fill="#0E2322" font-family="Arial" font-size="12.5" lengthAdjust="spacing" textLength="93.7866" x="18.75" y="206.3293">Process Packet</text><rect fill="url(#gfww4leaxp41h0)" filter="url(#ffww4leaxp41h)" height="29.1341" rx="4.1667" ry="4.1667" style="stroke:#45ADA8;stroke-width:1.0417;" width="76.9124" x="246.5881" y="187.4349"/><text fill="#0E2322" font-family="Arial" font-size="12.5" lengthAdjust="spacing" textLength="62.3291" x="253.8798" y="206.3293">Log Event</text><polygon fill="#85CECB" filter="url(#ffww4leaxp41h)" points="240.6006,237.4023,329.4881,237.4023,341.9881,249.9023,329.4881,262.4023,240.6006,262.4023,228.1006,249.9023,240.6006,237.4023" style="stroke:#296865;stroke-width:1.0417;"/><text fill="#0E2322" font-family="Arial" font-size="12.5" lengthAdjust="spacing" textLength="86.8042" x="241.6423" y="254.2297">ACL is active?</text><text fill="#0E2322" font-family="Arial" font-size="12.5" lengthAdjust="spacing" textLength="21.8384" x="205.2205" y="245.9127">Yes</text><text fill="#0E2322" font-family="Arial" font-size="12.5" lengthAdjust="spacing" textLength="16.9983" x="343.0298" y="245.9127">No</text><rect fill="url(#gfww4leaxp41h0)" filter="url(#ffww4leaxp41h)" height="29.1341" rx="4.1667" ry="4.1667" style="stroke:#45ADA8;stroke-width:1.0417;" width="90.804" x="172.2819" y="272.819"/><text fill="#0E2322" font-family="Arial" font-size="12.5" lengthAdjust="spacing" textLength="76.2207" x="179.5736" y="291.7135">Drop Packet</text><rect fill="url(#gfww4leaxp41h0)" filter="url(#ffww4leaxp41h)" height="29.1341" rx="4.1667" ry="4.1667" style="stroke:#45ADA8;stroke-width:1.0417;" width="108.37" x="298.2198" y="272.819"/><text fill="#0E2322" font-family="Arial" font-size="12.5" lengthAdjust="spacing" textLength="93.7866" x="305.5115" y="291.7135">Process Packet</text><polygon fill="#85CECB" filter="url(#ffww4leaxp41h)" points="285.0444,310.2865,297.5444,322.7865,285.0444,335.2865,272.5444,322.7865,285.0444,310.2865" style="stroke:#296865;stroke-width:1.0417;"/><polygon fill="#85CECB" filter="url(#ffww4leaxp41h)" points="175.3438,343.6198,187.8438,356.1198,175.3438,368.6198,162.8438,356.1198,175.3438,343.6198" style="stroke:#296865;stroke-width:1.0417;"/><ellipse cx="175.3438" cy="400.9115" fill="transparent" filter="url(#ffww4leaxp41h)" rx="11.4583" ry="11.4583" style="stroke:#296865;stroke-width:1.0417;"/><ellipse cx="175.3438" cy="400.9115" fill="transparent" rx="6.25" ry="6.25" style="stroke:#296865;stroke-width:1.0417;"/><line style="stroke:#45ADA8;stroke-width:1.0417;" x1="175.3438" x2="175.3438" y1="31.25" y2="52.0833"/><polygon fill="#45ADA8" points="171.1772,41.6667,175.3438,52.0833,179.5105,41.6667,175.3438,45.8333" style="stroke:#45ADA8;stroke-width:1.0417;"/><line style="stroke:#45ADA8;stroke-width:1.0417;" x1="175.3438" x2="175.3438" y1="81.2174" y2="102.0508"/><polygon fill="#45ADA8" points="171.1772,91.6341,175.3438,102.0508,179.5105,91.6341,175.3438,95.8008" style="stroke:#45ADA8;stroke-width:1.0417;"/><line style="stroke:#45ADA8;stroke-width:1.0417;" x1="228.1006" x2="217.6839" y1="249.9023" y2="249.9023"/><line style="stroke:#45ADA8;stroke-width:1.0417;" x1="217.6839" x2="217.6839" y1="249.9023" y2="272.819"/><polygon fill="#45ADA8" points="213.5173,262.4023,217.6839,272.819,221.8506,262.4023,217.6839,266.569" style="stroke:#45ADA8;stroke-width:1.0417;"/><line style="stroke:#45ADA8;stroke-width:1.0417;" x1="341.9881" x2="352.4048" y1="249.9023" y2="249.9023"/><line style="stroke:#45ADA8;stroke-width:1.0417;" x1="352.4048" x2="352.4048" y1="249.9023" y2="272.819"/><polygon fill="#45ADA8" points="348.2381,262.4023,352.4048,272.819,356.5715,262.4023,352.4048,266.569" style="stroke:#45ADA8;stroke-width:1.0417;"/><line style="stroke:#45ADA8;stroke-width:1.0417;" x1="217.6839" x2="217.6839" y1="301.9531" y2="322.7865"/><line style="stroke:#45ADA8;stroke-width:1.0417;" x1="217.6839" x2="272.5444" y1="322.7865" y2="322.7865"/><polygon fill="#45ADA8" points="262.1277,318.6198,272.5444,322.7865,262.1277,326.9531,266.2944,322.7865" style="stroke:#45ADA8;stroke-width:1.0417;"/><line style="stroke:#45ADA8;stroke-width:1.0417;" x1="352.4048" x2="352.4048" y1="301.9531" y2="322.7865"/><line style="stroke:#45ADA8;stroke-width:1.0417;" x1="352.4048" x2="297.5444" y1="322.7865" y2="322.7865"/><polygon fill="#45ADA8" points="307.961,318.6198,297.5444,322.7865,307.961,326.9531,303.7944,322.7865" style="stroke:#45ADA8;stroke-width:1.0417;"/><line style="stroke:#45ADA8;stroke-width:1.0417;" x1="285.0444" x2="285.0444" y1="216.569" y2="237.4023"/><polygon fill="#45ADA8" points="280.8777,226.9857,285.0444,237.4023,289.211,226.9857,285.0444,231.1523" style="stroke:#45ADA8;stroke-width:1.0417;"/><line style="stroke:#45ADA8;stroke-width:1.0417;" x1="76.06" x2="65.6433" y1="164.5182" y2="164.5182"/><line style="stroke:#45ADA8;stroke-width:1.0417;" x1="65.6433" x2="65.6433" y1="164.5182" y2="187.4349"/><polygon fill="#45ADA8" points="61.4766,177.0182,65.6433,187.4349,69.81,177.0182,65.6433,181.1849" style="stroke:#45ADA8;stroke-width:1.0417;"/><line style="stroke:#45ADA8;stroke-width:1.0417;" x1="274.6277" x2="285.0444" y1="164.5182" y2="164.5182"/><line style="stroke:#45ADA8;stroke-width:1.0417;" x1="285.0444" x2="285.0444" y1="164.5182" y2="187.4349"/><polygon fill="#45ADA8" points="280.8777,177.0182,285.0444,187.4349,289.211,177.0182,285.0444,181.1849" style="stroke:#45ADA8;stroke-width:1.0417;"/><line style="stroke:#45ADA8;stroke-width:1.0417;" x1="65.6433" x2="65.6433" y1="216.569" y2="356.1198"/><line style="stroke:#45ADA8;stroke-width:1.0417;" x1="65.6433" x2="162.8438" y1="356.1198" y2="356.1198"/><polygon fill="#45ADA8" points="152.4272,351.9531,162.8438,356.1198,152.4272,360.2865,156.5938,356.1198" style="stroke:#45ADA8;stroke-width:1.0417;"/><line style="stroke:#45ADA8;stroke-width:1.0417;" x1="285.0444" x2="285.0444" y1="335.2865" y2="356.1198"/><line style="stroke:#45ADA8;stroke-width:1.0417;" x1="285.0444" x2="187.8438" y1="356.1198" y2="356.1198"/><polygon fill="#45ADA8" points="198.2605,351.9531,187.8438,356.1198,198.2605,360.2865,194.0938,356.1198" style="stroke:#45ADA8;stroke-width:1.0417;"/><line style="stroke:#45ADA8;stroke-width:1.0417;" x1="175.3438" x2="175.3438" y1="131.1849" y2="152.0182"/><polygon fill="#45ADA8" points="171.1772,141.6016,175.3438,152.0182,179.5105,141.6016,175.3438,145.7682" style="stroke:#45ADA8;stroke-width:1.0417;"/><line style="stroke:#45ADA8;stroke-width:1.0417;" x1="175.3438" x2="175.3438" y1="368.6198" y2="389.4531"/><polygon fill="#45ADA8" points="171.1772,379.0365,175.3438,389.4531,179.5105,379.0365,175.3438,383.2031" style="stroke:#45ADA8;stroke-width:1.0417;"/><!--SRC=[ROyn2uCm48Nt-nNNJGVhhaCfra6mhT2fOuYd1ZMHN1JwxviW54gx7Dnxzxx77PIMqzeI2cPod2xhF2Lke9aIbiRICGW0x8Hr05cbUqlC-BXVoxHgSiZEHOt5G7BC0LI7KIFaI0vduUH0ZC4cxUph5AF7QeoUn34WOjPO8mDhJ-H04nD6DxExjUcnt7mq3siW1vHY5DAfZNvm8NEnPldWlF15_5SPRdIhEjYdVzCiRm00]--></g></svg>