<svg xmlns="http://www.w3.org/2000/svg" xmlns:xlink="http://www.w3.org/1999/xlink" contentStyleType="text/css" data-diagram-type="CLASS" height="375px" preserveAspectRatio="none" style="width:870px;height:375px;background:#FFFFFF;" version="1.1" viewBox="0 0 870 375" width="870px" zoomAndPan="magnify"><defs/><g><!--entity C1--><g id="elem_C1"><rect fill="#F1F1F1" height="46.2969" rx="2.5" ry="2.5" style="stroke:#181818;stroke-width:0.5;" width="134.6367" x="585" y="7"/><rect fill="#F1F1F1" height="10" style="stroke:#181818;stroke-width:0.5;" width="15" x="699.6367" y="12"/><rect fill="#F1F1F1" height="2" style="stroke:#181818;stroke-width:0.5;" width="4" x="697.6367" y="14"/><rect fill="#F1F1F1" height="2" style="stroke:#181818;stroke-width:0.5;" width="4" x="697.6367" y="18"/><text fill="#000000" font-family="sans-serif" font-size="14" lengthAdjust="spacing" textLength="94.6367" x="600" y="39.9951">Component 1</text></g><!--entity CM--><g id="elem_CM"><rect fill="#F1F1F1" height="46.2969" rx="2.5" ry="2.5" style="stroke:#181818;stroke-width:0.5;" width="176.6025" x="7" y="305.5"/><rect fill="#F1F1F1" height="10" style="stroke:#181818;stroke-width:0.5;" width="15" x="163.6025" y="310.5"/><rect fill="#F1F1F1" height="2" style="stroke:#181818;stroke-width:0.5;" width="4" x="161.6025" y="312.5"/><rect fill="#F1F1F1" height="2" style="stroke:#181818;stroke-width:0.5;" width="4" x="161.6025" y="316.5"/><text fill="#000000" font-family="sans-serif" font-size="14" lengthAdjust="spacing" textLength="136.6025" x="22" y="338.4951">Component Manual</text></g><!--class CI1--><g id="elem_CI1"><rect codeLine="4" fill="#F1F1F1" height="80.5938" id="CI1" rx="2.5" ry="2.5" style="stroke:#181818;stroke-width:0.5;" width="193.7656" x="440.5" y="130"/><ellipse cx="455.5" cy="146" fill="#B4A7E5" rx="11" ry="11" style="stroke:#181818;stroke-width:1;"/><path d="M451.4219,141.7656 L451.4219,139.6094 L458.8125,139.6094 L458.8125,141.7656 L456.3438,141.7656 L456.3438,149.8438 L458.8125,149.8438 L458.8125,152 L451.4219,152 L451.4219,149.8438 L453.8906,149.8438 L453.8906,141.7656 L451.4219,141.7656 Z " fill="#000000"/><text fill="#000000" font-family="sans-serif" font-size="14" font-style="italic" lengthAdjust="spacing" textLength="161.7656" x="469.5" y="150.8467">Component Interface 1</text><line style="stroke:#181818;stroke-width:0.5;" x1="441.5" x2="633.2656" y1="162" y2="162"/><text fill="#000000" font-family="sans-serif" font-size="14" lengthAdjust="spacing" textLength="111.8633" x="446.5" y="178.9951">real operation 1</text><text fill="#000000" font-family="sans-serif" font-size="14" lengthAdjust="spacing" textLength="111.8633" x="446.5" y="195.292">real operation 2</text><line style="stroke:#181818;stroke-width:0.5;" x1="441.5" x2="633.2656" y1="202.5938" y2="202.5938"/></g><!--class LI1--><g id="elem_LI1"><rect codeLine="9" fill="#F1F1F1" height="80.5938" id="LI1" rx="2.5" ry="2.5" style="stroke:#181818;stroke-width:0.5;" width="161.7939" x="456.5" y="288"/><ellipse cx="471.5" cy="304" fill="#B4A7E5" rx="11" ry="11" style="stroke:#181818;stroke-width:1;"/><path d="M467.4219,299.7656 L467.4219,297.6094 L474.8125,297.6094 L474.8125,299.7656 L472.3438,299.7656 L472.3438,307.8438 L474.8125,307.8438 L474.8125,310 L467.4219,310 L467.4219,307.8438 L469.8906,307.8438 L469.8906,299.7656 L467.4219,299.7656 Z " fill="#000000"/><text fill="#000000" font-family="sans-serif" font-size="14" font-style="italic" lengthAdjust="spacing" textLength="129.7939" x="485.5" y="308.8467">Logical Interface 1</text><line style="stroke:#181818;stroke-width:0.5;" x1="457.5" x2="617.2939" y1="320" y2="320"/><text fill="#000000" font-family="sans-serif" font-size="14" lengthAdjust="spacing" textLength="136.7871" x="462.5" y="336.9951">Logical Operation 1</text><text fill="#000000" font-family="sans-serif" font-size="14" lengthAdjust="spacing" textLength="136.7871" x="462.5" y="353.292">Logical Operation 2</text><line style="stroke:#181818;stroke-width:0.5;" x1="457.5" x2="617.2939" y1="360.5938" y2="360.5938"/></g><!--class CI3--><g id="elem_CI3"><rect codeLine="14" fill="#F1F1F1" height="80.5938" id="CI3" rx="2.5" ry="2.5" style="stroke:#181818;stroke-width:0.5;" width="193.7656" x="669.5" y="130"/><ellipse cx="684.5" cy="146" fill="#B4A7E5" rx="11" ry="11" style="stroke:#181818;stroke-width:1;"/><path d="M680.4219,141.7656 L680.4219,139.6094 L687.8125,139.6094 L687.8125,141.7656 L685.3438,141.7656 L685.3438,149.8438 L687.8125,149.8438 L687.8125,152 L680.4219,152 L680.4219,149.8438 L682.8906,149.8438 L682.8906,141.7656 L680.4219,141.7656 Z " fill="#000000"/><text fill="#000000" font-family="sans-serif" font-size="14" font-style="italic" lengthAdjust="spacing" textLength="161.7656" x="698.5" y="150.8467">Component Interface 3</text><line style="stroke:#181818;stroke-width:0.5;" x1="670.5" x2="862.2656" y1="162" y2="162"/><text fill="#000000" font-family="sans-serif" font-size="14" lengthAdjust="spacing" textLength="111.8633" x="675.5" y="178.9951">real operation 5</text><text fill="#000000" font-family="sans-serif" font-size="14" lengthAdjust="spacing" textLength="111.8633" x="675.5" y="195.292">real operation 6</text><line style="stroke:#181818;stroke-width:0.5;" x1="670.5" x2="862.2656" y1="202.5938" y2="202.5938"/></g><!--link CI1 to LI1--><g id="link_CI1_LI1"><path codeLine="20" d="M537.5,211.27 C537.5,234.74 537.5,258.35 537.5,281.8 " fill="transparent" id="CI1-to-LI1" style="stroke:#181818;stroke-width:1;"/><polygon fill="#181818" points="537.5,287.8,541.5,278.8,537.5,282.8,533.5,278.8,537.5,287.8" style="stroke:#181818;stroke-width:1;"/><text fill="#000000" font-family="sans-serif" font-size="13" lengthAdjust="spacing" textLength="76.9082" x="538.5" y="254.0669">implements</text></g><!--link C1 to CI1--><g id="link_C1_CI1"><path codeLine="22" d="M634.02,53.25 C616.88,73.9 594.8131,100.484 574.1531,125.364 " fill="transparent" id="C1-to-CI1" style="stroke:#181818;stroke-width:1;"/><polygon fill="#181818" points="570.32,129.98,579.1469,125.6114,573.5142,126.1333,572.9923,120.5006,570.32,129.98" style="stroke:#181818;stroke-width:1;"/><text fill="#000000" font-family="sans-serif" font-size="13" lengthAdjust="spacing" textLength="76.9082" x="610.5" y="96.0669">implements</text></g><!--link C1 to CI3--><g id="link_C1_CI3"><path codeLine="23" d="M670.82,53.25 C687.81,73.9 709.6768,100.4676 730.1568,125.3476 " fill="transparent" id="C1-to-CI3" style="stroke:#181818;stroke-width:1;"/><polygon fill="#181818" points="733.97,129.98,731.3385,120.4892,730.7923,126.1196,725.1619,125.5735,733.97,129.98" style="stroke:#181818;stroke-width:1;"/><text fill="#000000" font-family="sans-serif" font-size="13" lengthAdjust="spacing" textLength="29.7832" x="706.5" y="96.0669">uses</text></g><!--link CM to LI1--><g id="link_CM_LI1"><path codeLine="27" d="M184.15,328.5 C263.66,328.5 373.35,328.5 450.44,328.5 " fill="transparent" id="CM-to-LI1" style="stroke:#181818;stroke-width:1;"/><polygon fill="#181818" points="456.44,328.5,447.44,324.5,451.44,328.5,447.44,332.5,456.44,328.5" style="stroke:#181818;stroke-width:1;"/><text fill="#000000" font-family="sans-serif" font-size="13" lengthAdjust="spacing" textLength="236.7993" x="202.25" y="321.5669">EXTRA_LINKAGE_MANUALLY_ADDED</text></g><!--SRC=[RP3B2eCm44NtViNWteMLTk6Y45IAD5eeBRGh2M5Q0fg8ZrNflpVnXSIk4ivSJcw6gwfM4cK7RhHSVHTO2v4F7-Vh2DbXys8SrubqWLCsDU46MGcgnePrGadmRR3JkhMFghVWEc7Rw62RfvULSCjivx-EmTGns7RSs-1WV8xvZ-STJPCGH5MNM6bbgmSZZoo-u224laKTvFyMcp7Pit9iamtRrSVyJFAuNKb1q_nCJacHaVnEA7qM98wJ-0S0]--></g></svg>