<svg xmlns="http://www.w3.org/2000/svg" xmlns:xlink="http://www.w3.org/1999/xlink" contentStyleType="text/css" data-diagram-type="SEQUENCE" height="358px" preserveAspectRatio="none" style="width:651px;height:358px;background:#FFFFFF;" version="1.1" viewBox="0 0 651 358" width="651px" zoomAndPan="magnify"><defs/><g><rect fill="transparent" height="90.2031" style="stroke:#000000;stroke-width:1.5;" width="520.4648" x="124.3369" y="111.5625"/><rect fill="transparent" height="90.2031" style="stroke:#000000;stroke-width:1.5;" width="379.5693" x="10" y="215.7656"/><g><title>Feature User</title><rect fill="transparent" height="286.6719" width="8" x="68.1685" y="36.2969"/><line style="stroke:#181818;stroke-width:0.5;stroke-dasharray:5.0,5.0;" x1="72" x2="72" y1="36.2969" y2="322.9688"/></g><g><title>&#171;component&#187; :Sub Component 1</title><rect fill="transparent" height="286.6719" width="8" x="252.9531" y="36.2969"/><line style="stroke:#181818;stroke-width:0.5;stroke-dasharray:5.0,5.0;" x1="256.3369" x2="256.3369" y1="36.2969" y2="322.9688"/></g><g><title>&#171;component&#187; :Sub Component 3</title><rect fill="transparent" height="286.6719" width="8" x="508.1855" y="36.2969"/><line style="stroke:#181818;stroke-width:0.5;stroke-dasharray:5.0,5.0;" x1="511.5693" x2="511.5693" y1="36.2969" y2="322.9688"/></g><rect fill="#E2E2F0" height="30.2969" rx="2.5" ry="2.5" style="stroke:#181818;stroke-width:0.5;" width="104.3369" x="20" y="5"/><text fill="#000000" font-family="sans-serif" font-size="14" lengthAdjust="spacing" textLength="90.3369" x="27" y="24.9951">Feature User</text><rect fill="#E2E2F0" height="30.2969" rx="2.5" ry="2.5" style="stroke:#181818;stroke-width:0.5;" width="104.3369" x="20" y="321.9688"/><text fill="#000000" font-family="sans-serif" font-size="14" lengthAdjust="spacing" textLength="90.3369" x="27" y="341.9639">Feature User</text><rect fill="#E2E2F0" height="30.2969" rx="2.5" ry="2.5" style="stroke:#181818;stroke-width:0.5;" width="245.2324" x="134.3369" y="5"/><text fill="#000000" font-family="sans-serif" font-size="14" lengthAdjust="spacing" textLength="231.2324" x="141.3369" y="24.9951">&#171;component&#187; :Sub Component 1</text><rect fill="#E2E2F0" height="30.2969" rx="2.5" ry="2.5" style="stroke:#181818;stroke-width:0.5;" width="245.2324" x="134.3369" y="321.9688"/><text fill="#000000" font-family="sans-serif" font-size="14" lengthAdjust="spacing" textLength="231.2324" x="141.3369" y="341.9639">&#171;component&#187; :Sub Component 1</text><rect fill="#E2E2F0" height="30.2969" rx="2.5" ry="2.5" style="stroke:#181818;stroke-width:0.5;" width="245.2324" x="389.5693" y="5"/><text fill="#000000" font-family="sans-serif" font-size="14" lengthAdjust="spacing" textLength="231.2324" x="396.5693" y="24.9951">&#171;component&#187; :Sub Component 3</text><rect fill="#E2E2F0" height="30.2969" rx="2.5" ry="2.5" style="stroke:#181818;stroke-width:0.5;" width="245.2324" x="389.5693" y="321.9688"/><text fill="#000000" font-family="sans-serif" font-size="14" lengthAdjust="spacing" textLength="231.2324" x="396.5693" y="341.9639">&#171;component&#187; :Sub Component 3</text><polygon fill="#181818" points="244.9531,63.4297,254.9531,67.4297,244.9531,71.4297,248.9531,67.4297" style="stroke:#181818;stroke-width:1;"/><line style="stroke:#181818;stroke-width:1;" x1="72.1685" x2="250.9531" y1="67.4297" y2="67.4297"/><text fill="#000000" font-family="sans-serif" font-size="13" lengthAdjust="spacing" textLength="118.1489" x="79.1685" y="62.3638">real operation 3 ()</text><polygon fill="#181818" points="500.1855,92.5625,510.1855,96.5625,500.1855,100.5625,504.1855,96.5625" style="stroke:#181818;stroke-width:1;"/><line style="stroke:#181818;stroke-width:1;" x1="256.9531" x2="506.1855" y1="96.5625" y2="96.5625"/><text fill="#000000" font-family="sans-serif" font-size="13" lengthAdjust="spacing" textLength="118.1489" x="263.9531" y="91.4966">real operation 9 ()</text><path d="M124.3369,111.5625 L188.7798,111.5625 L188.7798,118.6953 L178.7798,128.6953 L124.3369,128.6953 L124.3369,111.5625 " fill="#EEEEEE" style="stroke:#000000;stroke-width:1.5;"/><rect fill="transparent" height="90.2031" style="stroke:#000000;stroke-width:1.5;" width="520.4648" x="124.3369" y="111.5625"/><text fill="#000000" font-family="sans-serif" font-size="13" font-weight="bold" lengthAdjust="spacing" textLength="19.4429" x="139.3369" y="124.6294">alt</text><text fill="#000000" font-family="sans-serif" font-size="11" font-weight="bold" lengthAdjust="spacing" textLength="58.0293" x="203.7798" y="123.7729">[success]</text><polygon fill="#181818" points="267.9531,145.8281,257.9531,149.8281,267.9531,153.8281,263.9531,149.8281" style="stroke:#181818;stroke-width:1;"/><line style="stroke:#181818;stroke-width:1;stroke-dasharray:2.0,2.0;" x1="261.9531" x2="511.1855" y1="149.8281" y2="149.8281"/><text fill="#000000" font-family="sans-serif" font-size="13" lengthAdjust="spacing" textLength="50.8511" x="273.9531" y="144.7622">success</text><line style="stroke:#000000;stroke-width:1;stroke-dasharray:2.0,2.0;" x1="124.3369" x2="644.8018" y1="158.8281" y2="158.8281"/><text fill="#000000" font-family="sans-serif" font-size="11" font-weight="bold" lengthAdjust="spacing" textLength="41.3467" x="129.3369" y="169.0386">[error]</text><polygon fill="#181818" points="267.9531,189.7656,257.9531,193.7656,267.9531,197.7656,263.9531,193.7656" style="stroke:#181818;stroke-width:1;"/><line style="stroke:#181818;stroke-width:1;stroke-dasharray:2.0,2.0;" x1="261.9531" x2="511.1855" y1="193.7656" y2="193.7656"/><text fill="#000000" font-family="sans-serif" font-size="13" lengthAdjust="spacing" textLength="65.1587" x="273.9531" y="188.6997">error type</text><path d="M10,215.7656 L74.4429,215.7656 L74.4429,222.8984 L64.4429,232.8984 L10,232.8984 L10,215.7656 " fill="#EEEEEE" style="stroke:#000000;stroke-width:1.5;"/><rect fill="transparent" height="90.2031" style="stroke:#000000;stroke-width:1.5;" width="379.5693" x="10" y="215.7656"/><text fill="#000000" font-family="sans-serif" font-size="13" font-weight="bold" lengthAdjust="spacing" textLength="19.4429" x="25" y="228.8325">alt</text><text fill="#000000" font-family="sans-serif" font-size="11" font-weight="bold" lengthAdjust="spacing" textLength="58.0293" x="89.4429" y="227.9761">[success]</text><polygon fill="#181818" points="83.1685,250.0313,73.1685,254.0313,83.1685,258.0313,79.1685,254.0313" style="stroke:#181818;stroke-width:1;"/><line style="stroke:#181818;stroke-width:1;stroke-dasharray:2.0,2.0;" x1="77.1685" x2="255.9531" y1="254.0313" y2="254.0313"/><text fill="#000000" font-family="sans-serif" font-size="13" lengthAdjust="spacing" textLength="26.6792" x="89.1685" y="248.9653">true</text><line style="stroke:#000000;stroke-width:1;stroke-dasharray:2.0,2.0;" x1="10" x2="389.5693" y1="263.0313" y2="263.0313"/><text fill="#000000" font-family="sans-serif" font-size="11" font-weight="bold" lengthAdjust="spacing" textLength="41.3467" x="15" y="273.2417">[error]</text><polygon fill="#181818" points="83.1685,293.9688,73.1685,297.9688,83.1685,301.9688,79.1685,297.9688" style="stroke:#181818;stroke-width:1;"/><line style="stroke:#181818;stroke-width:1;" x1="77.1685" x2="255.9531" y1="297.9688" y2="297.9688"/><text fill="#000000" font-family="sans-serif" font-size="13" lengthAdjust="spacing" textLength="65.1587" x="89.1685" y="292.9028">error type</text><!--SRC=[bOyn3i8m34NtdEAh4mmTganqO47Y0eW3cE2XKaaYnnqu4qTWwyb8GoiXoa96l_zVx4YYdUiYUKLrPD916EV4Ke4Io6aG4pypuyE5MmoUlOvFjAVXWiCoG5DQoJL_TEpSiSQKxr3l9qCBOUeH8Wjf5pmiDbkJmPlR5TzDt52lI8Dpd991VZc9UZ4kWFl4O95ysofJnj1xPCF- -alOb73PjONAm6jVMN9EV0bV]--></g></svg>