<svg xmlns="http://www.w3.org/2000/svg" xmlns:xlink="http://www.w3.org/1999/xlink" contentStyleType="text/css" data-diagram-type="DESCRIPTION" height="252px" preserveAspectRatio="none" style="width:721px;height:252px;background:#FFFFFF;" version="1.1" viewBox="0 0 721 252" width="721px" zoomAndPan="magnify"><defs/><g><!--cluster docs_as_code--><g id="cluster_docs_as_code"><path d="M346,16 C346,6 525,6 525,6 C525,6 704,6 704,16 L704,211 C704,221 525,221 525,221 C525,221 346,221 346,211 L346,16 " fill="transparent" style="stroke:#181818;stroke-width:1;"/><path d="M346,16 C346,26 525,26 525,26 C525,26 704,26 704,16 " fill="transparent" style="stroke:#181818;stroke-width:1;"/><text fill="#000000" font-family="sans-serif" font-size="14" font-weight="bold" lengthAdjust="spacing" textLength="105.4854" x="472.2573" y="40.9951">docs_as_code</text></g><!--entity process_description--><g id="elem_process_description"><path d="M6,200.5 C6,190.5 85.4736,190.5 85.4736,190.5 C85.4736,190.5 164.9473,190.5 164.9473,200.5 L164.9473,225.7969 C164.9473,235.7969 85.4736,235.7969 85.4736,235.7969 C85.4736,235.7969 6,235.7969 6,225.7969 L6,200.5 " fill="#F1F1F1" style="stroke:#181818;stroke-width:0.5;"/><path d="M6,200.5 C6,210.5 85.4736,210.5 85.4736,210.5 C85.4736,210.5 164.9473,210.5 164.9473,200.5 " fill="transparent" style="stroke:#181818;stroke-width:0.5;"/><text fill="#000000" font-family="sans-serif" font-size="14" lengthAdjust="spacing" textLength="138.9473" x="16" y="227.4951">process_description</text></g><!--entity examples--><g id="elem_examples"><rect fill="#F1F1F1" height="39.2969" rx="2.5" ry="2.5" style="stroke:#181818;stroke-width:0.5;" width="97.7988" x="371" y="138.5"/><polygon fill="#F1F1F1" points="451.7988,143.5,451.7988,157.5,463.7988,157.5,463.7988,149.5,457.7988,143.5,451.7988,143.5" style="stroke:#181818;stroke-width:0.5;"/><line style="stroke:#181818;stroke-width:0.5;" x1="457.7988" x2="457.7988" y1="143.5" y2="149.5"/><line style="stroke:#181818;stroke-width:0.5;" x1="463.7988" x2="457.7988" y1="149.5" y2="149.5"/><text fill="#000000" font-family="sans-serif" font-size="14" lengthAdjust="spacing" textLength="67.7988" x="381" y="164.4951">examples</text></g><!--entity templates--><g id="elem_templates"><rect fill="#F1F1F1" height="39.2969" rx="2.5" ry="2.5" style="stroke:#181818;stroke-width:0.5;" width="100.4922" x="370" y="64.5"/><polygon fill="#F1F1F1" points="453.4922,69.5,453.4922,83.5,465.4922,83.5,465.4922,75.5,459.4922,69.5,453.4922,69.5" style="stroke:#181818;stroke-width:0.5;"/><line style="stroke:#181818;stroke-width:0.5;" x1="459.4922" x2="459.4922" y1="69.5" y2="75.5"/><line style="stroke:#181818;stroke-width:0.5;" x1="465.4922" x2="459.4922" y1="75.5" y2="75.5"/><text fill="#000000" font-family="sans-serif" font-size="14" lengthAdjust="spacing" textLength="70.4922" x="380" y="90.4951">templates</text></g><!--entity yaml--><g id="elem_yaml"><rect fill="#F1F1F1" height="39.2969" rx="2.5" ry="2.5" style="stroke:#181818;stroke-width:0.5;" width="148.7539" x="531" y="138.5"/><polygon fill="#F1F1F1" points="662.7539,143.5,662.7539,157.5,674.7539,157.5,674.7539,149.5,668.7539,143.5,662.7539,143.5" style="stroke:#181818;stroke-width:0.5;"/><line style="stroke:#181818;stroke-width:0.5;" x1="668.7539" x2="668.7539" y1="143.5" y2="149.5"/><line style="stroke:#181818;stroke-width:0.5;" x1="674.7539" x2="668.7539" y1="149.5" y2="149.5"/><text fill="#000000" font-family="sans-serif" font-size="14" lengthAdjust="spacing" textLength="118.7539" x="541" y="164.4951">metamodel.yaml</text></g><!--link process_description to docs_as_code--><g id="link_process_description_docs_as_code"><path d="M165.3,213 C213.695,213 275.91,213 326.6175,213 C332.9559,213 333.1146,213 339.0439,213 " fill="transparent" id="process_description-to-docs_as_code" style="stroke:#181818;stroke-width:1;"/><polygon fill="#181818" points="345.0439,213,336.0439,209,340.0439,213,336.0439,217,345.0439,213" style="stroke:#181818;stroke-width:1;"/><text fill="#000000" font-family="sans-serif" font-size="13" lengthAdjust="spacing" textLength="125.7852" x="196" y="209.0669">defines metamodel</text></g><!--SRC=[ROv13W8n30FlVOK_i3o00r-fGfD2f7PRDJc047-dUrhjYfEbiMMxI7Pumz37qy4w9BcsDJ0vtSa4VRGaPf75qj2-cVY4xnxWbYoInTHOfWE0Xckcv90NrLx43j1bCl8JhU9KPqEvlAaMa67JkHF-7LYMst7t2fQigzXUz0C0]--></g></svg>