<svg xmlns="http://www.w3.org/2000/svg" xmlns:xlink="http://www.w3.org/1999/xlink" contentStyleType="text/css" data-diagram-type="CLASS" height="839px" preserveAspectRatio="none" style="width:1028px;height:839px;background:#FFFFFF;" version="1.1" viewBox="0 0 1028 839" width="1028px" zoomAndPan="magnify"><defs/><g><!--class LaunchManager--><g id="elem_LaunchManager"><rect codeLine="2" fill="#F1F1F1" height="48" id="LaunchManager" rx="2.5" ry="2.5" style="stroke:#181818;stroke-width:0.5;" width="144.0615" x="579" y="145.5"/><ellipse cx="594" cy="161.5" fill="#ADD1B2" rx="11" ry="11" style="stroke:#181818;stroke-width:1;"/><path d="M596.9688,167.1406 Q596.3906,167.4375 595.75,167.5781 Q595.1094,167.7344 594.4063,167.7344 Q591.9063,167.7344 590.5781,166.0938 Q589.2656,164.4375 589.2656,161.3125 Q589.2656,158.1875 590.5781,156.5313 Q591.9063,154.875 594.4063,154.875 Q595.1094,154.875 595.75,155.0313 Q596.4063,155.1875 596.9688,155.4844 L596.9688,158.2031 Q596.3438,157.625 595.75,157.3594 Q595.1563,157.0781 594.5313,157.0781 Q593.1875,157.0781 592.5,158.1563 Q591.8125,159.2188 591.8125,161.3125 Q591.8125,163.4063 592.5,164.4844 Q593.1875,165.5469 594.5313,165.5469 Q595.1563,165.5469 595.75,165.2813 Q596.3438,165 596.9688,164.4219 L596.9688,167.1406 Z " fill="#000000"/><text fill="#000000" font-family="sans-serif" font-size="14" lengthAdjust="spacing" textLength="112.0615" x="608" y="166.3467">LaunchManager</text><line style="stroke:#181818;stroke-width:0.5;" x1="580" x2="722.0615" y1="177.5" y2="177.5"/><line style="stroke:#181818;stroke-width:0.5;" x1="580" x2="722.0615" y1="185.5" y2="185.5"/></g><!--class LaunchConfiguration--><g id="elem_LaunchConfiguration"><rect codeLine="7" fill="#F1F1F1" height="48" id="LaunchConfiguration" rx="2.5" ry="2.5" style="stroke:#181818;stroke-width:0.5;" width="177.6396" x="562" y="393"/><ellipse cx="577" cy="409" fill="#ADD1B2" rx="11" ry="11" style="stroke:#181818;stroke-width:1;"/><path d="M579.9688,414.6406 Q579.3906,414.9375 578.75,415.0781 Q578.1094,415.2344 577.4063,415.2344 Q574.9063,415.2344 573.5781,413.5938 Q572.2656,411.9375 572.2656,408.8125 Q572.2656,405.6875 573.5781,404.0313 Q574.9063,402.375 577.4063,402.375 Q578.1094,402.375 578.75,402.5313 Q579.4063,402.6875 579.9688,402.9844 L579.9688,405.7031 Q579.3438,405.125 578.75,404.8594 Q578.1563,404.5781 577.5313,404.5781 Q576.1875,404.5781 575.5,405.6563 Q574.8125,406.7188 574.8125,408.8125 Q574.8125,410.9063 575.5,411.9844 Q576.1875,413.0469 577.5313,413.0469 Q578.1563,413.0469 578.75,412.7813 Q579.3438,412.5 579.9688,411.9219 L579.9688,414.6406 Z " fill="#000000"/><text fill="#000000" font-family="sans-serif" font-size="14" lengthAdjust="spacing" textLength="145.6396" x="591" y="413.8467">LaunchConfiguration</text><line style="stroke:#181818;stroke-width:0.5;" x1="563" x2="738.6396" y1="425" y2="425"/><line style="stroke:#181818;stroke-width:0.5;" x1="563" x2="738.6396" y1="433" y2="433"/></g><!--class ConfigFile--><g id="elem_ConfigFile"><rect codeLine="15" fill="#F1F1F1" height="48" id="ConfigFile" rx="2.5" ry="2.5" style="stroke:#181818;stroke-width:0.5;" width="101.3643" x="600.5" y="502"/><ellipse cx="615.5" cy="518" fill="#ADD1B2" rx="11" ry="11" style="stroke:#181818;stroke-width:1;"/><path d="M618.4688,523.6406 Q617.8906,523.9375 617.25,524.0781 Q616.6094,524.2344 615.9063,524.2344 Q613.4063,524.2344 612.0781,522.5938 Q610.7656,520.9375 610.7656,517.8125 Q610.7656,514.6875 612.0781,513.0313 Q613.4063,511.375 615.9063,511.375 Q616.6094,511.375 617.25,511.5313 Q617.9063,511.6875 618.4688,511.9844 L618.4688,514.7031 Q617.8438,514.125 617.25,513.8594 Q616.6563,513.5781 616.0313,513.5781 Q614.6875,513.5781 614,514.6563 Q613.3125,515.7188 613.3125,517.8125 Q613.3125,519.9063 614,520.9844 Q614.6875,522.0469 616.0313,522.0469 Q616.6563,522.0469 617.25,521.7813 Q617.8438,521.5 618.4688,520.9219 L618.4688,523.6406 Z " fill="#000000"/><text fill="#000000" font-family="sans-serif" font-size="14" lengthAdjust="spacing" textLength="69.3643" x="629.5" y="522.8467">ConfigFile</text><line style="stroke:#181818;stroke-width:0.5;" x1="601.5" x2="700.8643" y1="534" y2="534"/><line style="stroke:#181818;stroke-width:0.5;" x1="601.5" x2="700.8643" y1="542" y2="542"/></g><!--class ComponentConfig--><g id="elem_ComponentConfig"><rect codeLine="24" fill="#F1F1F1" height="48" id="ComponentConfig" rx="2.5" ry="2.5" style="stroke:#181818;stroke-width:0.5;" width="158.1982" x="572" y="611"/><ellipse cx="587" cy="627" fill="#ADD1B2" rx="11" ry="11" style="stroke:#181818;stroke-width:1;"/><path d="M589.9688,632.6406 Q589.3906,632.9375 588.75,633.0781 Q588.1094,633.2344 587.4063,633.2344 Q584.9063,633.2344 583.5781,631.5938 Q582.2656,629.9375 582.2656,626.8125 Q582.2656,623.6875 583.5781,622.0313 Q584.9063,620.375 587.4063,620.375 Q588.1094,620.375 588.75,620.5313 Q589.4063,620.6875 589.9688,620.9844 L589.9688,623.7031 Q589.3438,623.125 588.75,622.8594 Q588.1563,622.5781 587.5313,622.5781 Q586.1875,622.5781 585.5,623.6563 Q584.8125,624.7188 584.8125,626.8125 Q584.8125,628.9063 585.5,629.9844 Q586.1875,631.0469 587.5313,631.0469 Q588.1563,631.0469 588.75,630.7813 Q589.3438,630.5 589.9688,629.9219 L589.9688,632.6406 Z " fill="#000000"/><text fill="#000000" font-family="sans-serif" font-size="14" lengthAdjust="spacing" textLength="126.1982" x="601" y="631.8467">ComponentConfig</text><line style="stroke:#181818;stroke-width:0.5;" x1="573" x2="729.1982" y1="643" y2="643"/><line style="stroke:#181818;stroke-width:0.5;" x1="573" x2="729.1982" y1="651" y2="651"/></g><!--class AliveMonitoring--><g id="elem_AliveMonitoring"><rect codeLine="30" fill="#F1F1F1" height="96.8906" id="AliveMonitoring" rx="2.5" ry="2.5" style="stroke:#181818;stroke-width:0.5;" width="200.2617" x="7" y="736"/><ellipse cx="48.6128" cy="752" fill="#ADD1B2" rx="11" ry="11" style="stroke:#181818;stroke-width:1;"/><path d="M51.5816,757.6406 Q51.0035,757.9375 50.3628,758.0781 Q49.7222,758.2344 49.0191,758.2344 Q46.5191,758.2344 45.191,756.5938 Q43.8785,754.9375 43.8785,751.8125 Q43.8785,748.6875 45.191,747.0313 Q46.5191,745.375 49.0191,745.375 Q49.7222,745.375 50.3628,745.5313 Q51.0191,745.6875 51.5816,745.9844 L51.5816,748.7031 Q50.9566,748.125 50.3628,747.8594 Q49.7691,747.5781 49.1441,747.5781 Q47.8003,747.5781 47.1128,748.6563 Q46.4253,749.7188 46.4253,751.8125 Q46.4253,753.9063 47.1128,754.9844 Q47.8003,756.0469 49.1441,756.0469 Q49.7691,756.0469 50.3628,755.7813 Q50.9566,755.5 51.5816,754.9219 L51.5816,757.6406 Z " fill="#000000"/><text fill="#000000" font-family="sans-serif" font-size="14" lengthAdjust="spacing" textLength="109.1221" x="68.5268" y="756.8467">AliveMonitoring</text><line style="stroke:#181818;stroke-width:0.5;" x1="8" x2="206.2617" y1="768" y2="768"/><ellipse cx="18" cy="781.6484" fill="transparent" rx="3" ry="3" style="stroke:#038048;stroke-width:1;"/><text fill="#000000" font-family="sans-serif" font-size="14" lengthAdjust="spacing" textLength="174.2617" x="27" y="784.9951">alive notification interval</text><ellipse cx="18" cy="797.9453" fill="transparent" rx="3" ry="3" style="stroke:#038048;stroke-width:1;"/><text fill="#000000" font-family="sans-serif" font-size="14" lengthAdjust="spacing" textLength="144.9902" x="27" y="801.292">Startup grace period</text><ellipse cx="18" cy="814.2422" fill="transparent" rx="3" ry="3" style="stroke:#038048;stroke-width:1;"/><text fill="#000000" font-family="sans-serif" font-size="14" lengthAdjust="spacing" textLength="150.3018" x="27" y="817.5889">failure tolerance limit</text><line style="stroke:#181818;stroke-width:0.5;" x1="8" x2="206.2617" y1="824.8906" y2="824.8906"/></g><!--class RecoveryAction--><g id="elem_RecoveryAction"><rect codeLine="37" fill="#F1F1F1" height="96.8906" id="RecoveryAction" rx="2.5" ry="2.5" style="stroke:#181818;stroke-width:0.5;" width="412.668" x="242.5" y="736"/><ellipse cx="389.7666" cy="752" fill="#ADD1B2" rx="11" ry="11" style="stroke:#181818;stroke-width:1;"/><path d="M392.7354,757.6406 Q392.1572,757.9375 391.5166,758.0781 Q390.876,758.2344 390.1729,758.2344 Q387.6729,758.2344 386.3447,756.5938 Q385.0322,754.9375 385.0322,751.8125 Q385.0322,748.6875 386.3447,747.0313 Q387.6729,745.375 390.1729,745.375 Q390.876,745.375 391.5166,745.5313 Q392.1729,745.6875 392.7354,745.9844 L392.7354,748.7031 Q392.1104,748.125 391.5166,747.8594 Q390.9229,747.5781 390.2979,747.5781 Q388.9541,747.5781 388.2666,748.6563 Q387.5791,749.7188 387.5791,751.8125 Q387.5791,753.9063 388.2666,754.9844 Q388.9541,756.0469 390.2979,756.0469 Q390.9229,756.0469 391.5166,755.7813 Q392.1104,755.5 392.7354,754.9219 L392.7354,757.6406 Z " fill="#000000"/><text fill="#000000" font-family="sans-serif" font-size="14" lengthAdjust="spacing" textLength="109.6348" x="410.2666" y="756.8467">RecoveryAction</text><line style="stroke:#181818;stroke-width:0.5;" x1="243.5" x2="654.168" y1="768" y2="768"/><line style="stroke:#181818;stroke-width:0.5;" x1="243.5" x2="654.168" y1="776" y2="776"/><ellipse cx="253.5" cy="789.6484" fill="#84BE84" rx="3" ry="3" style="stroke:#038048;stroke-width:1;"/><text fill="#000000" font-family="sans-serif" font-size="14" lengthAdjust="spacing" textLength="363.665" x="262.5" y="792.9951">recovery action type (eg. restart, stop, ignore, DSS)</text><ellipse cx="253.5" cy="805.9453" fill="#84BE84" rx="3" ry="3" style="stroke:#038048;stroke-width:1;"/><text fill="#000000" font-family="sans-serif" font-size="14" lengthAdjust="spacing" textLength="251.7949" x="262.5" y="809.292">retry count (how many times to try)</text><ellipse cx="253.5" cy="822.2422" fill="#84BE84" rx="3" ry="3" style="stroke:#038048;stroke-width:1;"/><text fill="#000000" font-family="sans-serif" font-size="14" lengthAdjust="spacing" textLength="386.668" x="262.5" y="825.5889">wait time (before the component can be started again)</text></g><!--class Dependency--><g id="elem_Dependency"><rect codeLine="44" fill="#F1F1F1" height="64.2969" id="Dependency" rx="2.5" ry="2.5" style="stroke:#181818;stroke-width:0.5;" width="121.5801" x="691" y="752.5"/><ellipse cx="706.6561" cy="768.5" fill="#ADD1B2" rx="11" ry="11" style="stroke:#181818;stroke-width:1;"/><path d="M709.6249,774.1406 Q709.0467,774.4375 708.4061,774.5781 Q707.7655,774.7344 707.0624,774.7344 Q704.5624,774.7344 703.2342,773.0938 Q701.9217,771.4375 701.9217,768.3125 Q701.9217,765.1875 703.2342,763.5313 Q704.5624,761.875 707.0624,761.875 Q707.7655,761.875 708.4061,762.0313 Q709.0624,762.1875 709.6249,762.4844 L709.6249,765.2031 Q708.9999,764.625 708.4061,764.3594 Q707.8124,764.0781 707.1874,764.0781 Q705.8436,764.0781 705.1561,765.1563 Q704.4686,766.2188 704.4686,768.3125 Q704.4686,770.4063 705.1561,771.4844 Q705.8436,772.5469 707.1874,772.5469 Q707.8124,772.5469 708.4061,772.2813 Q708.9999,772 709.6249,771.4219 L709.6249,774.1406 Z " fill="#000000"/><text fill="#000000" font-family="sans-serif" font-size="14" lengthAdjust="spacing" textLength="88.1221" x="720.8019" y="773.3467">Dependency</text><line style="stroke:#181818;stroke-width:0.5;" x1="692" x2="811.5801" y1="784.5" y2="784.5"/><ellipse cx="702" cy="798.1484" fill="transparent" rx="3" ry="3" style="stroke:#038048;stroke-width:1;"/><text fill="#000000" font-family="sans-serif" font-size="14" lengthAdjust="spacing" textLength="95.5801" x="711" y="801.4951">depency type</text><line style="stroke:#181818;stroke-width:0.5;" x1="692" x2="811.5801" y1="808.7969" y2="808.7969"/></g><!--class SandboxConfig--><g id="elem_SandboxConfig"><rect codeLine="48" fill="#F1F1F1" height="325.0469" id="SandboxConfig" rx="2.5" ry="2.5" style="stroke:#181818;stroke-width:0.5;" width="255.7217" x="758" y="7"/><ellipse cx="828.6699" cy="23" fill="#ADD1B2" rx="11" ry="11" style="stroke:#181818;stroke-width:1;"/><path d="M831.6387,28.6406 Q831.0605,28.9375 830.4199,29.0781 Q829.7793,29.2344 829.0762,29.2344 Q826.5762,29.2344 825.248,27.5938 Q823.9355,25.9375 823.9355,22.8125 Q823.9355,19.6875 825.248,18.0313 Q826.5762,16.375 829.0762,16.375 Q829.7793,16.375 830.4199,16.5313 Q831.0762,16.6875 831.6387,16.9844 L831.6387,19.7031 Q831.0137,19.125 830.4199,18.8594 Q829.8262,18.5781 829.2012,18.5781 Q827.8574,18.5781 827.1699,19.6563 Q826.4824,20.7188 826.4824,22.8125 Q826.4824,24.9063 827.1699,25.9844 Q827.8574,27.0469 829.2012,27.0469 Q829.8262,27.0469 830.4199,26.7813 Q831.0137,26.5 831.6387,25.9219 L831.6387,28.6406 Z " fill="#000000"/><text fill="#000000" font-family="sans-serif" font-size="14" lengthAdjust="spacing" textLength="105.8818" x="849.1699" y="27.8467">SandboxConfig</text><line style="stroke:#181818;stroke-width:0.5;" x1="759" x2="1012.7217" y1="39" y2="39"/><ellipse cx="769" cy="52.6484" fill="transparent" rx="3" ry="3" style="stroke:#038048;stroke-width:1;"/><text fill="#000000" font-family="sans-serif" font-size="14" lengthAdjust="spacing" textLength="25.1563" x="778" y="55.9951">UID</text><ellipse cx="769" cy="68.9453" fill="transparent" rx="3" ry="3" style="stroke:#038048;stroke-width:1;"/><text fill="#000000" font-family="sans-serif" font-size="14" lengthAdjust="spacing" textLength="25.7578" x="778" y="72.292">GID</text><ellipse cx="769" cy="85.2422" fill="transparent" rx="3" ry="3" style="stroke:#038048;stroke-width:1;"/><text fill="#000000" font-family="sans-serif" font-size="14" lengthAdjust="spacing" textLength="158.3887" x="778" y="88.5889">supplementary groups</text><ellipse cx="769" cy="101.5391" fill="transparent" rx="3" ry="3" style="stroke:#038048;stroke-width:1;"/><text fill="#000000" font-family="sans-serif" font-size="14" lengthAdjust="spacing" textLength="61.1201" x="778" y="104.8857">runmask</text><ellipse cx="769" cy="117.8359" fill="transparent" rx="3" ry="3" style="stroke:#038048;stroke-width:1;"/><text fill="#000000" font-family="sans-serif" font-size="14" lengthAdjust="spacing" textLength="50.5176" x="778" y="121.1826">priority</text><ellipse cx="769" cy="134.1328" fill="transparent" rx="3" ry="3" style="stroke:#038048;stroke-width:1;"/><text fill="#000000" font-family="sans-serif" font-size="14" lengthAdjust="spacing" textLength="42.9092" x="778" y="137.4795">ability</text><ellipse cx="769" cy="150.4297" fill="transparent" rx="3" ry="3" style="stroke:#038048;stroke-width:1;"/><text fill="#000000" font-family="sans-serif" font-size="14" lengthAdjust="spacing" textLength="55.8975" x="778" y="153.7764">security</text><ellipse cx="769" cy="166.7266" fill="transparent" rx="3" ry="3" style="stroke:#038048;stroke-width:1;"/><text fill="#000000" font-family="sans-serif" font-size="14" lengthAdjust="spacing" textLength="28.0342" x="778" y="170.0732">cwd</text><ellipse cx="769" cy="183.0234" fill="transparent" rx="3" ry="3" style="stroke:#038048;stroke-width:1;"/><text fill="#000000" font-family="sans-serif" font-size="14" lengthAdjust="spacing" textLength="170.1602" x="778" y="186.3701">environmental variables</text><ellipse cx="769" cy="199.3203" fill="transparent" rx="3" ry="3" style="stroke:#038048;stroke-width:1;"/><text fill="#000000" font-family="sans-serif" font-size="14" lengthAdjust="spacing" textLength="69.877" x="778" y="202.667">command</text><ellipse cx="769" cy="215.6172" fill="transparent" rx="3" ry="3" style="stroke:#038048;stroke-width:1;"/><text fill="#000000" font-family="sans-serif" font-size="14" lengthAdjust="spacing" textLength="76.002" x="778" y="218.9639">arguments</text><ellipse cx="769" cy="231.9141" fill="transparent" rx="3" ry="3" style="stroke:#038048;stroke-width:1;"/><text fill="#000000" font-family="sans-serif" font-size="14" lengthAdjust="spacing" textLength="34.4326" x="778" y="235.2607">stdin</text><ellipse cx="769" cy="248.2109" fill="transparent" rx="3" ry="3" style="stroke:#038048;stroke-width:1;"/><text fill="#000000" font-family="sans-serif" font-size="14" lengthAdjust="spacing" textLength="44.5977" x="778" y="251.5576">stdout</text><ellipse cx="769" cy="264.5078" fill="transparent" rx="3" ry="3" style="stroke:#038048;stroke-width:1;"/><text fill="#000000" font-family="sans-serif" font-size="14" lengthAdjust="spacing" textLength="41.7949" x="778" y="267.8545">stderr</text><ellipse cx="769" cy="280.8047" fill="transparent" rx="3" ry="3" style="stroke:#038048;stroke-width:1;"/><text fill="#000000" font-family="sans-serif" font-size="14" lengthAdjust="spacing" textLength="25.5186" x="778" y="284.1514">aslr</text><ellipse cx="769" cy="297.1016" fill="transparent" rx="3" ry="3" style="stroke:#038048;stroke-width:1;"/><text fill="#000000" font-family="sans-serif" font-size="14" lengthAdjust="spacing" textLength="43.8457" x="778" y="300.4482">rlimits</text><ellipse cx="769" cy="313.3984" fill="transparent" rx="3" ry="3" style="stroke:#038048;stroke-width:1;"/><text fill="#000000" font-family="sans-serif" font-size="14" lengthAdjust="spacing" textLength="229.7217" x="778" y="316.7451">time between sigterm and sigkill</text><line style="stroke:#181818;stroke-width:0.5;" x1="759" x2="1012.7217" y1="324.0469" y2="324.0469"/></g><!--class ProcessConfig--><g id="elem_ProcessConfig"><rect fill="#F1F1F1" height="48" id="ProcessConfig" rx="2.5" ry="2.5" style="stroke:#181818;stroke-width:0.5;" width="130.5811" x="890.5" y="760.5"/><ellipse cx="905.5" cy="776.5" fill="#ADD1B2" rx="11" ry="11" style="stroke:#181818;stroke-width:1;"/><path d="M908.4688,782.1406 Q907.8906,782.4375 907.25,782.5781 Q906.6094,782.7344 905.9063,782.7344 Q903.4063,782.7344 902.0781,781.0938 Q900.7656,779.4375 900.7656,776.3125 Q900.7656,773.1875 902.0781,771.5313 Q903.4063,769.875 905.9063,769.875 Q906.6094,769.875 907.25,770.0313 Q907.9063,770.1875 908.4688,770.4844 L908.4688,773.2031 Q907.8438,772.625 907.25,772.3594 Q906.6563,772.0781 906.0313,772.0781 Q904.6875,772.0781 904,773.1563 Q903.3125,774.2188 903.3125,776.3125 Q903.3125,778.4063 904,779.4844 Q904.6875,780.5469 906.0313,780.5469 Q906.6563,780.5469 907.25,780.2813 Q907.8438,780 908.4688,779.4219 L908.4688,782.1406 Z " fill="#000000"/><text fill="#000000" font-family="sans-serif" font-size="14" lengthAdjust="spacing" textLength="98.5811" x="919.5" y="781.3467">ProcessConfig</text><line style="stroke:#181818;stroke-width:0.5;" x1="891.5" x2="1020.0811" y1="792.5" y2="792.5"/><line style="stroke:#181818;stroke-width:0.5;" x1="891.5" x2="1020.0811" y1="800.5" y2="800.5"/></g><!--link LaunchManager to LaunchConfiguration--><g id="link_LaunchManager_LaunchConfiguration"><path codeLine="12" d="M651,193.6 C651,240.39 651,345.9 651,392.79 " fill="transparent" id="LaunchManager-LaunchConfiguration" style="stroke:#181818;stroke-width:1;"/><text fill="#000000" font-family="sans-serif" font-size="13" lengthAdjust="spacing" textLength="8.271" x="642.0505" y="213.3856">1</text><text fill="#000000" font-family="sans-serif" font-size="13" lengthAdjust="spacing" textLength="8.271" x="642.0559" y="381.7482">1</text></g><!--link LaunchConfiguration to ConfigFile--><g id="link_LaunchConfiguration_ConfigFile"><path codeLine="20" d="M651,441.22 C651,459.16 651,483.89 651,501.83 " fill="transparent" id="LaunchConfiguration-ConfigFile" style="stroke:#181818;stroke-width:1;"/><text fill="#000000" font-family="sans-serif" font-size="13" lengthAdjust="spacing" textLength="8.271" x="642.1019" y="461.0348">1</text><text fill="#000000" font-family="sans-serif" font-size="13" lengthAdjust="spacing" textLength="23.0356" x="625.011" y="490.7985">1..*</text></g><!--link ConfigFile to ComponentConfig--><g id="link_ConfigFile_ComponentConfig"><path codeLine="28" d="M651,550.22 C651,568.16 651,592.89 651,610.83 " fill="transparent" id="ConfigFile-ComponentConfig" style="stroke:#181818;stroke-width:1;"/><text fill="#000000" font-family="sans-serif" font-size="13" lengthAdjust="spacing" textLength="8.271" x="642.0136" y="570.0348">1</text><text fill="#000000" font-family="sans-serif" font-size="13" lengthAdjust="spacing" textLength="23.0356" x="625.0323" y="599.7985">1..*</text></g><!--link ComponentConfig to Dependency--><g id="link_ComponentConfig_Dependency"><path codeLine="68" d="M655.3,659.27 C658.64,673.5 664.21,691.66 673,706 C683.54,723.2 698.72,739.33 712.97,752.37 " fill="transparent" id="ComponentConfig-Dependency" style="stroke:#181818;stroke-width:1;"/><text fill="#000000" font-family="sans-serif" font-size="13" lengthAdjust="spacing" textLength="8.271" x="647.382" y="679.097">1</text><text fill="#000000" font-family="sans-serif" font-size="13" lengthAdjust="spacing" textLength="8.271" x="696.1663" y="741.2463">1</text></g><!--link Dependency to ComponentConfig--><g id="link_Dependency_ComponentConfig"><path codeLine="73" d="M730.7,752.4 C711.59,724.49 687.3707,689.1101 670.1707,664.0001 " fill="transparent" id="Dependency-to-ComponentConfig" style="stroke:#181818;stroke-width:1;"/><polygon fill="#181818" points="666.78,659.05,668.566,668.7356,669.6056,663.175,675.1661,664.2146,666.78,659.05" style="stroke:#181818;stroke-width:1;"/><text fill="#000000" font-family="sans-serif" font-size="13" lengthAdjust="spacing" textLength="222.6187" x="700" y="702.0669">(reference to another component)</text><text fill="#000000" font-family="sans-serif" font-size="13" lengthAdjust="spacing" textLength="8.271" x="717.5531" y="741.2825">1</text><text fill="#000000" font-family="sans-serif" font-size="13" lengthAdjust="spacing" textLength="23.0356" x="673.7497" y="679.2186">0..*</text></g><!--link ComponentConfig to ProcessConfig--><g id="link_ComponentConfig_ProcessConfig"><path codeLine="69" d="M730.11,641.65 C802.44,648.42 902.39,662.37 931,689 C950.5,707.15 955.49,738.58 956.42,760.18 " fill="transparent" id="ComponentConfig-ProcessConfig" style="stroke:#181818;stroke-width:1;"/><text fill="#000000" font-family="sans-serif" font-size="13" lengthAdjust="spacing" textLength="8.271" x="738.2947" y="638.6398">1</text><text fill="#000000" font-family="sans-serif" font-size="13" lengthAdjust="spacing" textLength="8.271" x="947.6315" y="749.507">1</text></g><!--link ComponentConfig to AliveMonitoring--><g id="link_ComponentConfig_AliveMonitoring"><path codeLine="70" d="M571.9,650.81 C485.63,667.84 343.96,698.34 225,736 C219.11,737.87 213.09,739.89 207.05,742.02 " fill="transparent" id="ComponentConfig-AliveMonitoring" style="stroke:#181818;stroke-width:1;"/><text fill="#000000" font-family="sans-serif" font-size="13" lengthAdjust="spacing" textLength="8.271" x="555.7234" y="648.7014">1</text><text fill="#000000" font-family="sans-serif" font-size="13" lengthAdjust="spacing" textLength="8.271" x="215.3419" y="735.1138">1</text></g><!--link ComponentConfig to RecoveryAction--><g id="link_ComponentConfig_RecoveryAction"><path codeLine="71" d="M619.44,659.05 C591.36,679.55 549.42,710.17 514.17,735.92 " fill="transparent" id="ComponentConfig-RecoveryAction" style="stroke:#181818;stroke-width:1;"/><text fill="#000000" font-family="sans-serif" font-size="13" lengthAdjust="spacing" textLength="8.271" x="602.3371" y="679.2186">1</text><text fill="#000000" font-family="sans-serif" font-size="13" lengthAdjust="spacing" textLength="8.271" x="515.1986" y="724.7679">1</text></g><!--SRC=[VLF1Rjim3BtxAuYSaZKDjkiE0ue5AmgimB1W7q3BZ4DKfWnAJXOC-_THjjFOQv6Bn3m-FZBKi_CO8tp7JjpX6GLhqk9FKVmj2ZV9V0sovxfJJ1napCzgOF5f0VVt_VLUoKLkGB-nfvdAZ7pLscm-BAOb4vcc3KAIXYGCMbVc6uaP_QBouFb8pq4u1MN9AW1tW1a52Odtx8Q1M1Bf4NsVtoNKrBLGApg2bfH3rIVsoBvJWXGyAOebFJUSycHZmv_amf7q_E1wsTpFwdH40GSudLk29TKRoyJSR0qnXNODN4jGMiDsjrjTIfFLkT19WkKXdA11EKFYXgAD0POSYIVarEEmB6aVyfG7ii9nB-1Ge2Jesr45M2FBQZBvbbgIYiITnorL6R1VUTYhMtOeLHb-lxxA7Vnwsjhvs9-nQrjFZVL3cxhMqBNHOEsamVXYKMkxL4vd2x5aFqIHN3U2xbJPIN9a3TBhU3YYCfQUifBz7rj0vg3MNIPaDAQAPRX3buQ0L3Ch-dnf_qwPsc-ef7GY4eXSsxCtO8evVc7l1vVDlJTn_dLBjrW_D3YASVJY3U9__hn5dJkhA2RlDR2-mEBZUz_2PrWgxKaf-zKiWsRyWttFhzPO5Vy0]--></g></svg>