<svg xmlns="http://www.w3.org/2000/svg" xmlns:xlink="http://www.w3.org/1999/xlink" contentStyleType="text/css" data-diagram-type="SEQUENCE" height="750px" preserveAspectRatio="none" style="width:920px;height:750px;background:#FFFFFF;" version="1.1" viewBox="0 0 920 750" width="920px" zoomAndPan="magnify"><defs/><g><g><title>User Application</title><rect fill="#FFFFFF" height="570.6563" style="stroke:#181818;stroke-width:1;" width="10" x="256.1279" y="126.8281"/></g><g><title>feo</title><rect fill="#FFFFFF" height="511.2578" style="stroke:#181818;stroke-width:1;" width="10" x="357.4956" y="186.2266"/></g><rect fill="transparent" height="339.5938" style="stroke:#000000;stroke-width:1.5;" width="904.979" x="10" y="302.7578"/><rect fill="transparent" height="46.2656" style="stroke:#000000;stroke-width:1.5;" width="315.4199" x="20" y="589.0859"/><g><title>Lifecycle Manager</title><rect fill="transparent" height="679.1875" width="8" x="96.6152" y="36.2969"/><line style="stroke:#181818;stroke-width:0.5;stroke-dasharray:5.0,5.0;" x1="100" x2="100" y1="36.2969" y2="715.4844"/></g><g><title>User Application</title><rect fill="transparent" height="679.1875" width="8" x="257.1279" y="36.2969"/><line style="stroke:#181818;stroke-width:0.5;stroke-dasharray:5.0,5.0;" x1="260.8359" x2="260.8359" y1="36.2969" y2="715.4844"/></g><g><title>feo</title><rect fill="transparent" height="679.1875" width="8" x="358.4956" y="36.2969"/><line style="stroke:#181818;stroke-width:0.5;stroke-dasharray:5.0,5.0;" x1="362.4419" x2="362.4419" y1="36.2969" y2="715.4844"/></g><g><title>communication</title><rect fill="transparent" height="679.1875" width="8" x="518.6616" y="36.2969"/><line style="stroke:#181818;stroke-width:0.5;stroke-dasharray:5.0,5.0;" x1="522.5278" x2="522.5278" y1="36.2969" y2="715.4844"/></g><g><title>logging/tracing</title><rect fill="transparent" height="679.1875" width="8" x="649.6782" y="36.2969"/><line style="stroke:#181818;stroke-width:0.5;stroke-dasharray:5.0,5.0;" x1="652.7954" x2="652.7954" y1="36.2969" y2="715.4844"/></g><g><title>time</title><rect fill="transparent" height="679.1875" width="8" x="742.376" y="36.2969"/><line style="stroke:#181818;stroke-width:0.5;stroke-dasharray:5.0,5.0;" x1="745.561" x2="745.561" y1="36.2969" y2="715.4844"/></g><g><title>Health Manager</title><rect fill="transparent" height="679.1875" width="8" x="838.085" y="36.2969"/><line style="stroke:#181818;stroke-width:0.5;stroke-dasharray:5.0,5.0;" x1="841.1909" x2="841.1909" y1="36.2969" y2="715.4844"/></g><rect fill="#E2E2F0" height="30.2969" rx="2.5" ry="2.5" style="stroke:#181818;stroke-width:0.5;" width="141.2305" x="30" y="5"/><text fill="#000000" font-family="sans-serif" font-size="14" lengthAdjust="spacing" textLength="127.2305" x="37" y="24.9951">Lifecycle Manager</text><rect fill="#E2E2F0" height="30.2969" rx="2.5" ry="2.5" style="stroke:#181818;stroke-width:0.5;" width="141.2305" x="30" y="714.4844"/><text fill="#000000" font-family="sans-serif" font-size="14" lengthAdjust="spacing" textLength="127.2305" x="37" y="734.4795">Lifecycle Manager</text><rect fill="#E2E2F0" height="30.2969" rx="2.5" ry="2.5" style="stroke:#181818;stroke-width:0.5;" width="128.584" x="196.8359" y="5"/><text fill="#000000" font-family="sans-serif" font-size="14" lengthAdjust="spacing" textLength="114.584" x="203.8359" y="24.9951">User Application</text><rect fill="#E2E2F0" height="30.2969" rx="2.5" ry="2.5" style="stroke:#181818;stroke-width:0.5;" width="128.584" x="196.8359" y="714.4844"/><text fill="#000000" font-family="sans-serif" font-size="14" lengthAdjust="spacing" textLength="114.584" x="203.8359" y="734.4795">User Application</text><rect fill="#C0F0F0" height="30.2969" rx="2.5" ry="2.5" style="stroke:#181818;stroke-width:0.5;" width="36.1074" x="344.4419" y="5"/><text fill="#000000" font-family="sans-serif" font-size="14" lengthAdjust="spacing" textLength="22.1074" x="351.4419" y="24.9951">feo</text><rect fill="#C0F0F0" height="30.2969" rx="2.5" ry="2.5" style="stroke:#181818;stroke-width:0.5;" width="36.1074" x="344.4419" y="714.4844"/><text fill="#000000" font-family="sans-serif" font-size="14" lengthAdjust="spacing" textLength="22.1074" x="351.4419" y="734.4795">feo</text><rect fill="#E2E2F0" height="30.2969" rx="2.5" ry="2.5" style="stroke:#181818;stroke-width:0.5;" width="122.2676" x="461.5278" y="5"/><text fill="#000000" font-family="sans-serif" font-size="14" lengthAdjust="spacing" textLength="108.2676" x="468.5278" y="24.9951">communication</text><rect fill="#E2E2F0" height="30.2969" rx="2.5" ry="2.5" style="stroke:#181818;stroke-width:0.5;" width="122.2676" x="461.5278" y="714.4844"/><text fill="#000000" font-family="sans-serif" font-size="14" lengthAdjust="spacing" textLength="108.2676" x="468.5278" y="734.4795">communication</text><rect fill="#E2E2F0" height="30.2969" rx="2.5" ry="2.5" style="stroke:#181818;stroke-width:0.5;" width="119.7656" x="593.7954" y="5"/><text fill="#000000" font-family="sans-serif" font-size="14" lengthAdjust="spacing" textLength="105.7656" x="600.7954" y="24.9951">logging/tracing</text><rect fill="#E2E2F0" height="30.2969" rx="2.5" ry="2.5" style="stroke:#181818;stroke-width:0.5;" width="119.7656" x="593.7954" y="714.4844"/><text fill="#000000" font-family="sans-serif" font-size="14" lengthAdjust="spacing" textLength="105.7656" x="600.7954" y="734.4795">logging/tracing</text><rect fill="#E2E2F0" height="30.2969" rx="2.5" ry="2.5" style="stroke:#181818;stroke-width:0.5;" width="45.6299" x="723.561" y="5"/><text fill="#000000" font-family="sans-serif" font-size="14" lengthAdjust="spacing" textLength="31.6299" x="730.561" y="24.9951">time</text><rect fill="#E2E2F0" height="30.2969" rx="2.5" ry="2.5" style="stroke:#181818;stroke-width:0.5;" width="45.6299" x="723.561" y="714.4844"/><text fill="#000000" font-family="sans-serif" font-size="14" lengthAdjust="spacing" textLength="31.6299" x="730.561" y="734.4795">time</text><rect fill="#E2E2F0" height="30.2969" rx="2.5" ry="2.5" style="stroke:#181818;stroke-width:0.5;" width="125.7881" x="779.1909" y="5"/><text fill="#000000" font-family="sans-serif" font-size="14" lengthAdjust="spacing" textLength="111.7881" x="786.1909" y="24.9951">Health Manager</text><rect fill="#E2E2F0" height="30.2969" rx="2.5" ry="2.5" style="stroke:#181818;stroke-width:0.5;" width="125.7881" x="779.1909" y="714.4844"/><text fill="#000000" font-family="sans-serif" font-size="14" lengthAdjust="spacing" textLength="111.7881" x="786.1909" y="734.4795">Health Manager</text><g><title>User Application</title><rect fill="#FFFFFF" height="570.6563" style="stroke:#181818;stroke-width:1;" width="10" x="256.1279" y="126.8281"/></g><g><title>feo</title><rect fill="#FFFFFF" height="511.2578" style="stroke:#181818;stroke-width:1;" width="10" x="357.4956" y="186.2266"/></g><polygon fill="#181818" points="249.1279,78.5625,259.1279,82.5625,249.1279,86.5625,253.1279,82.5625" style="stroke:#181818;stroke-width:1;"/><line style="stroke:#181818;stroke-width:1;" x1="100.6152" x2="255.1279" y1="82.5625" y2="82.5625"/><text fill="#000000" font-family="sans-serif" font-size="13" lengthAdjust="spacing" textLength="46.7695" x="107.6152" y="62.3638">startup</text><text fill="#000000" font-family="sans-serif" font-size="13" lengthAdjust="spacing" textLength="105.2505" x="107.6152" y="77.4966">primary process</text><polygon fill="#181818" points="244.1279,122.8281,254.1279,126.8281,244.1279,130.8281,248.1279,126.8281" style="stroke:#181818;stroke-width:1;"/><line style="stroke:#181818;stroke-width:1;" x1="100.6152" x2="250.1279" y1="126.8281" y2="126.8281"/><text fill="#000000" font-family="sans-serif" font-size="13" lengthAdjust="spacing" textLength="46.7695" x="107.6152" y="106.6294">startup</text><text fill="#000000" font-family="sans-serif" font-size="13" lengthAdjust="spacing" textLength="136.5127" x="107.6152" y="121.7622">secondary processes</text><polygon fill="#181818" points="345.4956,182.2266,355.4956,186.2266,345.4956,190.2266,349.4956,186.2266" style="stroke:#181818;stroke-width:1;"/><line style="stroke:#181818;stroke-width:1;" x1="266.1279" x2="351.4956" y1="186.2266" y2="186.2266"/><text fill="#000000" font-family="sans-serif" font-size="13" lengthAdjust="spacing" textLength="41.5518" x="273.1279" y="150.895">create</text><text fill="#000000" font-family="sans-serif" font-size="13" lengthAdjust="spacing" textLength="50.8765" x="273.1279" y="166.0278">primary</text><text fill="#000000" font-family="sans-serif" font-size="13" lengthAdjust="spacing" textLength="37.5527" x="273.1279" y="181.1606">agent</text><polygon fill="#181818" points="345.4956,241.625,355.4956,245.625,345.4956,249.625,349.4956,245.625" style="stroke:#181818;stroke-width:1;"/><line style="stroke:#181818;stroke-width:1;" x1="266.1279" x2="351.4956" y1="245.625" y2="245.625"/><text fill="#000000" font-family="sans-serif" font-size="13" lengthAdjust="spacing" textLength="41.5518" x="273.1279" y="210.2935">create</text><text fill="#000000" font-family="sans-serif" font-size="13" lengthAdjust="spacing" textLength="67.3677" x="273.1279" y="225.4263">secondary</text><text fill="#000000" font-family="sans-serif" font-size="13" lengthAdjust="spacing" textLength="44.3257" x="273.1279" y="240.5591">agents</text><line style="stroke:#181818;stroke-width:1;" x1="367.4956" x2="409.4956" y1="274.7578" y2="274.7578"/><line style="stroke:#181818;stroke-width:1;" x1="409.4956" x2="409.4956" y1="274.7578" y2="287.7578"/><line style="stroke:#181818;stroke-width:1;" x1="368.4956" x2="409.4956" y1="287.7578" y2="287.7578"/><polygon fill="#181818" points="378.4956,283.7578,368.4956,287.7578,378.4956,291.7578,374.4956,287.7578" style="stroke:#181818;stroke-width:1;"/><text fill="#000000" font-family="sans-serif" font-size="13" lengthAdjust="spacing" textLength="83.3003" x="374.4956" y="269.6919">init activities</text><path d="M10,302.7578 L238.3774,302.7578 L238.3774,309.8906 L228.3774,319.8906 L10,319.8906 L10,302.7578 " fill="#EEEEEE" style="stroke:#000000;stroke-width:1.5;"/><rect fill="transparent" height="339.5938" style="stroke:#000000;stroke-width:1.5;" width="904.979" x="10" y="302.7578"/><text fill="#000000" font-family="sans-serif" font-size="13" font-weight="bold" lengthAdjust="spacing" textLength="183.3774" x="25" y="315.8247">running until term signal</text><polygon fill="#181818" points="510.6616,337.0234,520.6616,341.0234,510.6616,345.0234,514.6616,341.0234" style="stroke:#181818;stroke-width:1;"/><line style="stroke:#181818;stroke-width:1;" x1="367.4956" x2="516.6616" y1="341.0234" y2="341.0234"/><text fill="#000000" font-family="sans-serif" font-size="13" lengthAdjust="spacing" textLength="73.8486" x="374.4956" y="335.9575">send signal</text><polygon fill="#181818" points="378.4956,366.1563,368.4956,370.1563,378.4956,374.1563,374.4956,370.1563" style="stroke:#181818;stroke-width:1;"/><line style="stroke:#181818;stroke-width:1;" x1="372.4956" x2="521.6616" y1="370.1563" y2="370.1563"/><text fill="#000000" font-family="sans-serif" font-size="13" lengthAdjust="spacing" textLength="92.6567" x="384.4956" y="365.0903">forward signal</text><polygon fill="#181818" points="641.6782,395.2891,651.6782,399.2891,641.6782,403.2891,645.6782,399.2891" style="stroke:#181818;stroke-width:1;"/><line style="stroke:#181818;stroke-width:1;" x1="367.4956" x2="647.6782" y1="399.2891" y2="399.2891"/><text fill="#000000" font-family="sans-serif" font-size="13" lengthAdjust="spacing" textLength="122.8652" x="374.4956" y="394.2231">log or trace events</text><polygon fill="#181818" points="510.6616,424.4219,520.6616,428.4219,510.6616,432.4219,514.6616,428.4219" style="stroke:#181818;stroke-width:1;"/><line style="stroke:#181818;stroke-width:1;" x1="367.4956" x2="516.6616" y1="428.4219" y2="428.4219"/><text fill="#000000" font-family="sans-serif" font-size="13" lengthAdjust="spacing" textLength="80.3931" x="374.4956" y="423.356">publish data</text><polygon fill="#181818" points="510.6616,453.5547,520.6616,457.5547,510.6616,461.5547,514.6616,457.5547" style="stroke:#181818;stroke-width:1;"/><line style="stroke:#181818;stroke-width:1;" x1="367.4956" x2="516.6616" y1="457.5547" y2="457.5547"/><text fill="#000000" font-family="sans-serif" font-size="13" lengthAdjust="spacing" textLength="62.9751" x="374.4956" y="452.4888">read data</text><polygon fill="#181818" points="378.4956,482.6875,368.4956,486.6875,378.4956,490.6875,374.4956,486.6875" style="stroke:#181818;stroke-width:1;"/><line style="stroke:#181818;stroke-width:1;stroke-dasharray:2.0,2.0;" x1="372.4956" x2="521.6616" y1="486.6875" y2="486.6875"/><text fill="#000000" font-family="sans-serif" font-size="13" lengthAdjust="spacing" textLength="29.2817" x="384.4956" y="481.6216">data</text><polygon fill="#181818" points="734.376,511.8203,744.376,515.8203,734.376,519.8203,738.376,515.8203" style="stroke:#181818;stroke-width:1;"/><line style="stroke:#181818;stroke-width:1;" x1="367.4956" x2="740.376" y1="515.8203" y2="515.8203"/><text fill="#000000" font-family="sans-serif" font-size="13" lengthAdjust="spacing" textLength="67.082" x="374.4956" y="510.7544">read clock</text><polygon fill="#181818" points="378.4956,540.9531,368.4956,544.9531,378.4956,548.9531,374.4956,544.9531" style="stroke:#181818;stroke-width:1;"/><line style="stroke:#181818;stroke-width:1;stroke-dasharray:2.0,2.0;" x1="372.4956" x2="745.376" y1="544.9531" y2="544.9531"/><text fill="#000000" font-family="sans-serif" font-size="13" lengthAdjust="spacing" textLength="57.8843" x="384.4956" y="539.8872">time info</text><polygon fill="#181818" points="830.085,570.0859,840.085,574.0859,830.085,578.0859,834.085,574.0859" style="stroke:#181818;stroke-width:1;"/><line style="stroke:#181818;stroke-width:1;" x1="367.4956" x2="836.085" y1="574.0859" y2="574.0859"/><text fill="#000000" font-family="sans-serif" font-size="13" lengthAdjust="spacing" textLength="129.3525" x="374.4956" y="569.02">report health status</text><path d="M20,589.0859 L84.4429,589.0859 L84.4429,596.2188 L74.4429,606.2188 L20,606.2188 L20,589.0859 " fill="#EEEEEE" style="stroke:#000000;stroke-width:1.5;"/><rect fill="transparent" height="46.2656" style="stroke:#000000;stroke-width:1.5;" width="315.4199" x="20" y="589.0859"/><text fill="#000000" font-family="sans-serif" font-size="13" font-weight="bold" lengthAdjust="spacing" textLength="19.4429" x="35" y="602.1528">alt</text><text fill="#000000" font-family="sans-serif" font-size="11" font-weight="bold" lengthAdjust="spacing" textLength="108.2813" x="99.4429" y="601.2964">[end of life cycle]</text><polygon fill="#181818" points="244.1279,623.3516,254.1279,627.3516,244.1279,631.3516,248.1279,627.3516" style="stroke:#181818;stroke-width:1;"/><line style="stroke:#181818;stroke-width:1;" x1="100.6152" x2="250.1279" y1="627.3516" y2="627.3516"/><text fill="#000000" font-family="sans-serif" font-size="13" lengthAdjust="spacing" textLength="118.4092" x="107.6152" y="622.2856">signal termination</text><line style="stroke:#181818;stroke-width:1;" x1="367.4956" x2="409.4956" y1="670.4844" y2="670.4844"/><line style="stroke:#181818;stroke-width:1;" x1="409.4956" x2="409.4956" y1="670.4844" y2="683.4844"/><line style="stroke:#181818;stroke-width:1;" x1="368.4956" x2="409.4956" y1="683.4844" y2="683.4844"/><polygon fill="#181818" points="378.4956,679.4844,368.4956,683.4844,378.4956,687.4844,374.4956,683.4844" style="stroke:#181818;stroke-width:1;"/><text fill="#000000" font-family="sans-serif" font-size="13" lengthAdjust="spacing" textLength="126.166" x="374.4956" y="665.4185">shutdown activities</text><polygon fill="#181818" points="272.1279,693.4844,262.1279,697.4844,272.1279,701.4844,268.1279,697.4844" style="stroke:#181818;stroke-width:1;"/><line style="stroke:#181818;stroke-width:1;stroke-dasharray:2.0,2.0;" x1="266.1279" x2="361.4956" y1="697.4844" y2="697.4844"/><!--SRC=[hLHDQnin4BtlhnYIGvA2lI7GYoc5a2OqaAQ5fAM7N1JjU7U8LXAIDel_VKUIlLwvDFGG6xmUxNjllbMVL01m31_UzvD5hupTE6gx0AVo32xEBpxoaGwEdeTWd8TW87G8rrAHzGWtPj2D26HqecUD1yG4kl_-U7jr3MjIUEhFe26VTR21aKB76F8m6lS2Q-D0D0r58Q6o2ca-xPCsE6o5QqYt8AVupAZH-OxiSkRwCKfQPredUX2wIN48AKrlXTv40LP4Hq9v40xPQlZzgo0bdXK29uCkSh8Q8tiFPfrKBgsG_BWZYPep_yNEOsWNotCOEv8TiEUzaWXPeWl1-bLTZ-Eu54bXQLnRgwpYwpkkqFt3zO9bvXNyyUNtOkjfSTkW3hGcTAjj41FwtMVWfAugArmWILom04Ttj4QvaPpHDw55Y-u8X0UrEpr0__HSlajhERtKk0GMUxk4hz70yTNv3N_B5zokVj0xJk51cRRbDjR12SdF78rfeua5Cb1V7XnzHQ5uwkPvTEceggPyOF5v7kyAV629mJvfwwWNRXE7IwBt_qFnA0rlnvw4lX8oq2kFO5cLcH7bk30ha0uPDpb-Yb7hi1TWqDl4oVsMwgigLdm78qq1aXgl7KTMjSuC5joWTToJWMTEfGq0JstSoXsxw0wdYxncMqX4V5eS8dYFHrxVGvrTsrRn7_0Da2p0roBM0oqxF2lo7V2b8_w5uVoR3CZn_1LGGOw3ikL8PUJBHCeluc-wYoP27ff8iSQ5hHcx7WOEcms85U5R8uu8v3LvOrfIKLAXIUTnO7eLVo1rfEoQxuRGyDLNT2u1Ik6gmN9IPlOCzWS0]--></g></svg>