<svg xmlns="http://www.w3.org/2000/svg" xmlns:xlink="http://www.w3.org/1999/xlink" contentStyleType="text/css" data-diagram-type="SEQUENCE" height="1275px" preserveAspectRatio="none" style="width:1147px;height:1275px;background:#FFFFFF;" version="1.1" viewBox="0 0 1147 1275" width="1147px" zoomAndPan="magnify"><title>External Monitoring</title><defs/><g><text fill="#000000" font-family="sans-serif" font-size="14" font-weight="bold" lengthAdjust="spacing" textLength="157.0898" x="493.6912" y="27.9951">External Monitoring</text><g><title>External Watchdog</title><rect fill="#FFFFFF" height="50.2656" style="stroke:#181818;stroke-width:1;" width="10" x="73.8008" y="497.125"/></g><g><title>External Watchdog</title><rect fill="#FFFFFF" height="50.2656" style="stroke:#181818;stroke-width:1;" width="10" x="73.8008" y="721.0547"/></g><g><title>External Watchdog</title><rect fill="#FFFFFF" height="50.2656" style="stroke:#181818;stroke-width:1;" width="10" x="73.8008" y="944.9844"/></g><g><title>External Watchdog</title><rect fill="#FFFFFF" height="90.3984" style="stroke:#181818;stroke-width:1;" width="10" x="73.8008" y="1074.5156"/></g><g><title>Watchdog Proxy</title><rect fill="#FFFFFF" height="175.4688" style="stroke:#181818;stroke-width:1;" width="10" x="443.9609" y="112.7266"/></g><g><title>Watchdog Proxy</title><rect fill="#FFFFFF" height="86.3984" style="stroke:#181818;stroke-width:1;" width="10" x="443.9609" y="410.7266"/></g><g><title>Watchdog Proxy</title><rect fill="#FFFFFF" height="94.3984" style="stroke:#181818;stroke-width:1;" width="10" x="443.9609" y="626.6563"/></g><g><title>Watchdog Proxy</title><rect fill="#FFFFFF" height="94.3984" style="stroke:#181818;stroke-width:1;" width="10" x="443.9609" y="850.5859"/></g><g><title>Launch Manager</title><rect fill="#FFFFFF" height="27.1328" style="stroke:#181818;stroke-width:1;" width="10" x="802.9619" y="83.5938"/></g><g><title>Launch Manager</title><rect fill="#FFFFFF" height="254.7344" style="stroke:#181818;stroke-width:1;" width="10" x="802.9619" y="170.9922"/></g><g><title>Launch Manager</title><rect fill="#FFFFFF" height="150.5313" style="stroke:#181818;stroke-width:1;" width="10" x="802.9619" y="549.3906"/></g><g><title>Launch Manager</title><rect fill="#FFFFFF" height="150.5313" style="stroke:#181818;stroke-width:1;" width="10" x="802.9619" y="773.3203"/></g><g><title>Launch Manager</title><rect fill="#FFFFFF" height="233.9297" style="stroke:#181818;stroke-width:1;" width="10" x="802.9619" y="997.25"/></g><rect fill="transparent" height="148.4688" style="stroke:#000000;stroke-width:1.5;" width="508.5591" x="374.6587" y="132.7266"/><rect fill="transparent" height="46.2656" style="stroke:#000000;stroke-width:1.5;" width="508.5591" x="374.6587" y="372.4609"/><rect fill="transparent" height="46.2656" style="stroke:#000000;stroke-width:1.5;" width="508.5591" x="374.6587" y="646.6563"/><rect fill="transparent" height="46.2656" style="stroke:#000000;stroke-width:1.5;" width="508.5591" x="374.6587" y="870.5859"/><g><title>External Watchdog</title><rect fill="transparent" height="1166.5859" width="8" x="74.8008" y="73.5938"/><line style="stroke:#181818;stroke-width:0.5;stroke-dasharray:5.0,5.0;" x1="78" x2="78" y1="73.5938" y2="1240.1797"/></g><g><title>Watchdog Proxy</title><rect fill="transparent" height="1166.5859" width="8" x="444.9609" y="73.5938"/><line style="stroke:#181818;stroke-width:0.5;stroke-dasharray:5.0,5.0;" x1="448.6587" x2="448.6587" y1="73.5938" y2="1240.1797"/></g><g><title>Launch Manager</title><rect fill="transparent" height="1166.5859" width="8" x="803.9619" y="73.5938"/><line style="stroke:#181818;stroke-width:0.5;stroke-dasharray:5.0,5.0;" x1="807.7061" x2="807.7061" y1="73.5938" y2="1240.1797"/></g><rect fill="#E2E2F0" height="30.2969" rx="2.5" ry="2.5" style="stroke:#181818;stroke-width:0.5;" width="147.6016" x="5" y="42.2969"/><text fill="#000000" font-family="sans-serif" font-size="14" lengthAdjust="spacing" textLength="133.6016" x="12" y="62.292">External Watchdog</text><rect fill="#E2E2F0" height="30.2969" rx="2.5" ry="2.5" style="stroke:#181818;stroke-width:0.5;" width="147.6016" x="5" y="1239.1797"/><text fill="#000000" font-family="sans-serif" font-size="14" lengthAdjust="spacing" textLength="133.6016" x="12" y="1259.1748">External Watchdog</text><rect fill="#E2E2F0" height="30.2969" rx="2.5" ry="2.5" style="stroke:#181818;stroke-width:0.5;" width="128.6045" x="384.6587" y="42.2969"/><text fill="#000000" font-family="sans-serif" font-size="14" lengthAdjust="spacing" textLength="114.6045" x="391.6587" y="62.292">Watchdog Proxy</text><rect fill="#E2E2F0" height="30.2969" rx="2.5" ry="2.5" style="stroke:#181818;stroke-width:0.5;" width="128.6045" x="384.6587" y="1239.1797"/><text fill="#000000" font-family="sans-serif" font-size="14" lengthAdjust="spacing" textLength="114.6045" x="391.6587" y="1259.1748">Watchdog Proxy</text><rect fill="#E2E2F0" height="30.2969" rx="2.5" ry="2.5" style="stroke:#181818;stroke-width:0.5;" width="130.5117" x="742.7061" y="42.2969"/><text fill="#000000" font-family="sans-serif" font-size="14" lengthAdjust="spacing" textLength="116.5117" x="749.7061" y="62.292">Launch Manager</text><rect fill="#E2E2F0" height="30.2969" rx="2.5" ry="2.5" style="stroke:#181818;stroke-width:0.5;" width="130.5117" x="742.7061" y="1239.1797"/><text fill="#000000" font-family="sans-serif" font-size="14" lengthAdjust="spacing" textLength="116.5117" x="749.7061" y="1259.1748">Launch Manager</text><g><title>External Watchdog</title><rect fill="#FFFFFF" height="50.2656" style="stroke:#181818;stroke-width:1;" width="10" x="73.8008" y="497.125"/></g><g><title>External Watchdog</title><rect fill="#FFFFFF" height="50.2656" style="stroke:#181818;stroke-width:1;" width="10" x="73.8008" y="721.0547"/></g><g><title>External Watchdog</title><rect fill="#FFFFFF" height="50.2656" style="stroke:#181818;stroke-width:1;" width="10" x="73.8008" y="944.9844"/></g><g><title>External Watchdog</title><rect fill="#FFFFFF" height="90.3984" style="stroke:#181818;stroke-width:1;" width="10" x="73.8008" y="1074.5156"/></g><g><title>Watchdog Proxy</title><rect fill="#FFFFFF" height="175.4688" style="stroke:#181818;stroke-width:1;" width="10" x="443.9609" y="112.7266"/></g><g><title>Watchdog Proxy</title><rect fill="#FFFFFF" height="86.3984" style="stroke:#181818;stroke-width:1;" width="10" x="443.9609" y="410.7266"/></g><g><title>Watchdog Proxy</title><rect fill="#FFFFFF" height="94.3984" style="stroke:#181818;stroke-width:1;" width="10" x="443.9609" y="626.6563"/></g><g><title>Watchdog Proxy</title><rect fill="#FFFFFF" height="94.3984" style="stroke:#181818;stroke-width:1;" width="10" x="443.9609" y="850.5859"/></g><g><title>Launch Manager</title><rect fill="#FFFFFF" height="27.1328" style="stroke:#181818;stroke-width:1;" width="10" x="802.9619" y="83.5938"/></g><g><title>Launch Manager</title><rect fill="#FFFFFF" height="254.7344" style="stroke:#181818;stroke-width:1;" width="10" x="802.9619" y="170.9922"/></g><g><title>Launch Manager</title><rect fill="#FFFFFF" height="150.5313" style="stroke:#181818;stroke-width:1;" width="10" x="802.9619" y="549.3906"/></g><g><title>Launch Manager</title><rect fill="#FFFFFF" height="150.5313" style="stroke:#181818;stroke-width:1;" width="10" x="802.9619" y="773.3203"/></g><g><title>Launch Manager</title><rect fill="#FFFFFF" height="233.9297" style="stroke:#181818;stroke-width:1;" width="10" x="802.9619" y="997.25"/></g><line style="stroke:#181818;stroke-width:1;stroke-dasharray:2.0,2.0;" x1="812.9619" x2="854.9619" y1="109.7266" y2="109.7266"/><line style="stroke:#181818;stroke-width:1;stroke-dasharray:2.0,2.0;" x1="854.9619" x2="854.9619" y1="109.7266" y2="122.7266"/><line style="stroke:#181818;stroke-width:1;stroke-dasharray:2.0,2.0;" x1="807.9619" x2="854.9619" y1="122.7266" y2="122.7266"/><polygon fill="#181818" points="817.9619,118.7266,807.9619,122.7266,817.9619,126.7266,813.9619,122.7266" style="stroke:#181818;stroke-width:1;"/><text fill="#000000" font-family="sans-serif" font-size="13" font-weight="bold" lengthAdjust="spacing" textLength="39.019" x="819.9619" y="104.6606">[001]</text><text fill="#000000" font-family="sans-serif" font-size="13" lengthAdjust="spacing" textLength="126.6992" x="862.981" y="104.6606">parse configuration</text><path d="M374.6587,132.7266 L439.1016,132.7266 L439.1016,139.8594 L429.1016,149.8594 L374.6587,149.8594 L374.6587,132.7266 " fill="#EEEEEE" style="stroke:#000000;stroke-width:1.5;"/><rect fill="transparent" height="148.4688" style="stroke:#000000;stroke-width:1.5;" width="508.5591" x="374.6587" y="132.7266"/><text fill="#000000" font-family="sans-serif" font-size="13" font-weight="bold" lengthAdjust="spacing" textLength="19.4429" x="389.6587" y="145.7935">alt</text><text fill="#000000" font-family="sans-serif" font-size="11" font-weight="bold" lengthAdjust="spacing" textLength="239.5562" x="454.1016" y="144.937">["Proxy registers to Launch Manager"]</text><polygon fill="#181818" points="790.9619,166.9922,800.9619,170.9922,790.9619,174.9922,794.9619,170.9922" style="stroke:#181818;stroke-width:1;"/><line style="stroke:#181818;stroke-width:1;" x1="453.9609" x2="796.9619" y1="170.9922" y2="170.9922"/><text fill="#000000" font-family="sans-serif" font-size="13" font-weight="bold" lengthAdjust="spacing" textLength="39.019" x="460.9609" y="165.9263">[002]</text><text fill="#000000" font-family="sans-serif" font-size="13" lengthAdjust="spacing" textLength="262.647" x="503.98" y="165.9263">Register for alive notifications (callback)</text><polygon fill="#181818" points="464.9609,196.125,454.9609,200.125,464.9609,204.125,460.9609,200.125" style="stroke:#181818;stroke-width:1;"/><line style="stroke:#181818;stroke-width:1;stroke-dasharray:2.0,2.0;" x1="458.9609" x2="801.9619" y1="200.125" y2="200.125"/><text fill="#000000" font-family="sans-serif" font-size="13" font-weight="bold" lengthAdjust="spacing" textLength="39.019" x="470.9609" y="195.0591">[003]</text><text fill="#000000" font-family="sans-serif" font-size="13" lengthAdjust="spacing" textLength="83.5923" x="513.98" y="195.0591">Return value</text><line style="stroke:#000000;stroke-width:1;stroke-dasharray:2.0,2.0;" x1="374.6587" x2="883.2178" y1="209.125" y2="209.125"/><text fill="#000000" font-family="sans-serif" font-size="11" font-weight="bold" lengthAdjust="spacing" textLength="334.0068" x="379.6587" y="219.3354">["Launch manager opens the watchdog device itself"]</text><polygon fill="#181818" points="464.9609,240.0625,454.9609,244.0625,464.9609,248.0625,460.9609,244.0625" style="stroke:#181818;stroke-width:1;"/><line style="stroke:#181818;stroke-width:1;" x1="458.9609" x2="801.9619" y1="244.0625" y2="244.0625"/><text fill="#000000" font-family="sans-serif" font-size="13" font-weight="bold" lengthAdjust="spacing" textLength="39.019" x="470.9609" y="238.9966">[004]</text><text fill="#000000" font-family="sans-serif" font-size="13" lengthAdjust="spacing" textLength="281.9819" x="513.98" y="238.9966">open watchdog device (eg. /dev/watchdog)</text><polygon fill="#181818" points="790.9619,269.1953,800.9619,273.1953,790.9619,277.1953,794.9619,273.1953" style="stroke:#181818;stroke-width:1;"/><line style="stroke:#181818;stroke-width:1;" x1="453.9609" x2="796.9619" y1="273.1953" y2="273.1953"/><text fill="#000000" font-family="sans-serif" font-size="13" font-weight="bold" lengthAdjust="spacing" textLength="39.019" x="460.9609" y="268.1294">[005]</text><text fill="#000000" font-family="sans-serif" font-size="13" lengthAdjust="spacing" textLength="83.5923" x="503.98" y="268.1294">Return value</text><path d="M453,293.1953 L453,318.1953 L683,318.1953 L683,303.1953 L673,293.1953 L453,293.1953 " fill="#FEFFDD" style="stroke:#181818;stroke-width:0.5;"/><path d="M673,293.1953 L673,303.1953 L683,303.1953 L673,293.1953 " fill="#FEFFDD" style="stroke:#181818;stroke-width:0.5;"/><text fill="#000000" font-family="sans-serif" font-size="13" lengthAdjust="spacing" textLength="209.1045" x="459" y="310.2622">IPC (POSIX or OS-specific event)</text><line style="stroke:#181818;stroke-width:1;stroke-dasharray:2.0,2.0;" x1="812.9619" x2="854.9619" y1="344.4609" y2="344.4609"/><line style="stroke:#181818;stroke-width:1;stroke-dasharray:2.0,2.0;" x1="854.9619" x2="854.9619" y1="344.4609" y2="357.4609"/><line style="stroke:#181818;stroke-width:1;stroke-dasharray:2.0,2.0;" x1="813.9619" x2="854.9619" y1="357.4609" y2="357.4609"/><polygon fill="#181818" points="823.9619,353.4609,813.9619,357.4609,823.9619,361.4609,819.9619,357.4609" style="stroke:#181818;stroke-width:1;"/><text fill="#000000" font-family="sans-serif" font-size="13" font-weight="bold" lengthAdjust="spacing" textLength="39.019" x="819.9619" y="339.395">[006]</text><text fill="#000000" font-family="sans-serif" font-size="13" lengthAdjust="spacing" textLength="137.5854" x="862.981" y="339.395">internal health check</text><path d="M374.6587,372.4609 L439.1016,372.4609 L439.1016,379.5938 L429.1016,389.5938 L374.6587,389.5938 L374.6587,372.4609 " fill="#EEEEEE" style="stroke:#000000;stroke-width:1.5;"/><rect fill="transparent" height="46.2656" style="stroke:#000000;stroke-width:1.5;" width="508.5591" x="374.6587" y="372.4609"/><text fill="#000000" font-family="sans-serif" font-size="13" font-weight="bold" lengthAdjust="spacing" textLength="19.4429" x="389.6587" y="385.5278">alt</text><text fill="#000000" font-family="sans-serif" font-size="11" font-weight="bold" lengthAdjust="spacing" textLength="84.1704" x="454.1016" y="384.6714">["Health OK"]</text><polygon fill="#181818" points="464.9609,406.7266,454.9609,410.7266,464.9609,414.7266,460.9609,410.7266" style="stroke:#181818;stroke-width:1;"/><line style="stroke:#181818;stroke-width:1;stroke-dasharray:2.0,2.0;" x1="458.9609" x2="801.9619" y1="410.7266" y2="410.7266"/><text fill="#000000" font-family="sans-serif" font-size="13" font-weight="bold" lengthAdjust="spacing" textLength="39.019" x="470.9609" y="405.6606">[007]</text><text fill="#000000" font-family="sans-serif" font-size="13" lengthAdjust="spacing" textLength="175.627" x="513.98" y="405.6606">alive notification (callback)</text><path d="M83,430.7266 L83,470.7266 L265,470.7266 L265,440.7266 L255,430.7266 L83,430.7266 " fill="#FEFFDD" style="stroke:#181818;stroke-width:0.5;"/><path d="M255,430.7266 L255,440.7266 L265,440.7266 L255,430.7266 " fill="#FEFFDD" style="stroke:#181818;stroke-width:0.5;"/><text fill="#000000" font-family="sans-serif" font-size="13" lengthAdjust="spacing" textLength="161.4272" x="89" y="447.7935">ECU specific notification.</text><text fill="#000000" font-family="sans-serif" font-size="13" lengthAdjust="spacing" textLength="136.4556" x="89" y="462.9263">GPIO, UART, SPI, etc.</text><polygon fill="#181818" points="94.8008,493.125,84.8008,497.125,94.8008,501.125,90.8008,497.125" style="stroke:#181818;stroke-width:1;"/><line style="stroke:#181818;stroke-width:1;stroke-dasharray:2.0,2.0;" x1="88.8008" x2="447.9609" y1="497.125" y2="497.125"/><text fill="#000000" font-family="sans-serif" font-size="13" font-weight="bold" lengthAdjust="spacing" textLength="39.019" x="100.8008" y="492.0591">[008]</text><text fill="#000000" font-family="sans-serif" font-size="13" lengthAdjust="spacing" textLength="162.9253" x="143.8198" y="492.0591">notify external watchdog</text><line style="stroke:#181818;stroke-width:1;stroke-dasharray:2.0,2.0;" x1="83.8008" x2="125.8008" y1="546.3906" y2="546.3906"/><line style="stroke:#181818;stroke-width:1;stroke-dasharray:2.0,2.0;" x1="125.8008" x2="125.8008" y1="546.3906" y2="559.3906"/><line style="stroke:#181818;stroke-width:1;stroke-dasharray:2.0,2.0;" x1="78.8008" x2="125.8008" y1="559.3906" y2="559.3906"/><polygon fill="#181818" points="88.8008,555.3906,78.8008,559.3906,88.8008,563.3906,84.8008,559.3906" style="stroke:#181818;stroke-width:1;"/><text fill="#000000" font-family="sans-serif" font-size="13" font-weight="bold" lengthAdjust="spacing" textLength="39.019" x="90.8008" y="533.7583">[009]</text><text fill="#000000" font-family="sans-serif" font-size="13" lengthAdjust="spacing" textLength="293.1411" x="133.8198" y="526.1919">Check if the notification fits the alive window</text><text fill="#000000" font-family="sans-serif" font-size="13" lengthAdjust="spacing" textLength="152.3184" x="133.8198" y="541.3247">reset the timeout timer</text><path d="M817,567.3906 L817,592.3906 L1140,592.3906 L1140,577.3906 L1130,567.3906 L817,567.3906 " fill="#FEFFDD" style="stroke:#181818;stroke-width:0.5;"/><path d="M1130,567.3906 L1130,577.3906 L1140,577.3906 L1130,567.3906 " fill="#FEFFDD" style="stroke:#181818;stroke-width:0.5;"/><text fill="#000000" font-family="sans-serif" font-size="13" lengthAdjust="spacing" textLength="302.4722" x="823" y="584.4575">Wait until the next scheduled notification time</text><line style="stroke:#181818;stroke-width:1;stroke-dasharray:2.0,2.0;" x1="812.9619" x2="854.9619" y1="618.6563" y2="618.6563"/><line style="stroke:#181818;stroke-width:1;stroke-dasharray:2.0,2.0;" x1="854.9619" x2="854.9619" y1="618.6563" y2="631.6563"/><line style="stroke:#181818;stroke-width:1;stroke-dasharray:2.0,2.0;" x1="813.9619" x2="854.9619" y1="631.6563" y2="631.6563"/><polygon fill="#181818" points="823.9619,627.6563,813.9619,631.6563,823.9619,635.6563,819.9619,631.6563" style="stroke:#181818;stroke-width:1;"/><text fill="#000000" font-family="sans-serif" font-size="13" font-weight="bold" lengthAdjust="spacing" textLength="39.019" x="819.9619" y="613.5903">[010]</text><text fill="#000000" font-family="sans-serif" font-size="13" lengthAdjust="spacing" textLength="137.5854" x="862.981" y="613.5903">internal health check</text><path d="M374.6587,646.6563 L439.1016,646.6563 L439.1016,653.7891 L429.1016,663.7891 L374.6587,663.7891 L374.6587,646.6563 " fill="#EEEEEE" style="stroke:#000000;stroke-width:1.5;"/><rect fill="transparent" height="46.2656" style="stroke:#000000;stroke-width:1.5;" width="508.5591" x="374.6587" y="646.6563"/><text fill="#000000" font-family="sans-serif" font-size="13" font-weight="bold" lengthAdjust="spacing" textLength="19.4429" x="389.6587" y="659.7231">alt</text><text fill="#000000" font-family="sans-serif" font-size="11" font-weight="bold" lengthAdjust="spacing" textLength="84.1704" x="454.1016" y="658.8667">["Health OK"]</text><polygon fill="#181818" points="464.9609,680.9219,454.9609,684.9219,464.9609,688.9219,460.9609,684.9219" style="stroke:#181818;stroke-width:1;"/><line style="stroke:#181818;stroke-width:1;stroke-dasharray:2.0,2.0;" x1="458.9609" x2="801.9619" y1="684.9219" y2="684.9219"/><text fill="#000000" font-family="sans-serif" font-size="13" font-weight="bold" lengthAdjust="spacing" textLength="39.019" x="470.9609" y="679.856">[011]</text><text fill="#000000" font-family="sans-serif" font-size="13" lengthAdjust="spacing" textLength="175.627" x="513.98" y="679.856">alive notification (callback)</text><polygon fill="#181818" points="94.8008,717.0547,84.8008,721.0547,94.8008,725.0547,90.8008,721.0547" style="stroke:#181818;stroke-width:1;"/><line style="stroke:#181818;stroke-width:1;stroke-dasharray:2.0,2.0;" x1="88.8008" x2="447.9609" y1="721.0547" y2="721.0547"/><text fill="#000000" font-family="sans-serif" font-size="13" font-weight="bold" lengthAdjust="spacing" textLength="39.019" x="100.8008" y="715.9888">[012]</text><text fill="#000000" font-family="sans-serif" font-size="13" lengthAdjust="spacing" textLength="162.9253" x="143.8198" y="715.9888">notify external watchdog</text><line style="stroke:#181818;stroke-width:1;stroke-dasharray:2.0,2.0;" x1="83.8008" x2="125.8008" y1="770.3203" y2="770.3203"/><line style="stroke:#181818;stroke-width:1;stroke-dasharray:2.0,2.0;" x1="125.8008" x2="125.8008" y1="770.3203" y2="783.3203"/><line style="stroke:#181818;stroke-width:1;stroke-dasharray:2.0,2.0;" x1="78.8008" x2="125.8008" y1="783.3203" y2="783.3203"/><polygon fill="#181818" points="88.8008,779.3203,78.8008,783.3203,88.8008,787.3203,84.8008,783.3203" style="stroke:#181818;stroke-width:1;"/><text fill="#000000" font-family="sans-serif" font-size="13" font-weight="bold" lengthAdjust="spacing" textLength="39.019" x="90.8008" y="757.688">[013]</text><text fill="#000000" font-family="sans-serif" font-size="13" lengthAdjust="spacing" textLength="293.1411" x="133.8198" y="750.1216">Check if the notification fits the alive window</text><text fill="#000000" font-family="sans-serif" font-size="13" lengthAdjust="spacing" textLength="152.3184" x="133.8198" y="765.2544">reset the timeout timer</text><path d="M817,791.3203 L817,816.3203 L1140,816.3203 L1140,801.3203 L1130,791.3203 L817,791.3203 " fill="#FEFFDD" style="stroke:#181818;stroke-width:0.5;"/><path d="M1130,791.3203 L1130,801.3203 L1140,801.3203 L1130,791.3203 " fill="#FEFFDD" style="stroke:#181818;stroke-width:0.5;"/><text fill="#000000" font-family="sans-serif" font-size="13" lengthAdjust="spacing" textLength="302.4722" x="823" y="808.3872">Wait until the next scheduled notification time</text><line style="stroke:#181818;stroke-width:1;stroke-dasharray:2.0,2.0;" x1="812.9619" x2="854.9619" y1="842.5859" y2="842.5859"/><line style="stroke:#181818;stroke-width:1;stroke-dasharray:2.0,2.0;" x1="854.9619" x2="854.9619" y1="842.5859" y2="855.5859"/><line style="stroke:#181818;stroke-width:1;stroke-dasharray:2.0,2.0;" x1="813.9619" x2="854.9619" y1="855.5859" y2="855.5859"/><polygon fill="#181818" points="823.9619,851.5859,813.9619,855.5859,823.9619,859.5859,819.9619,855.5859" style="stroke:#181818;stroke-width:1;"/><text fill="#000000" font-family="sans-serif" font-size="13" font-weight="bold" lengthAdjust="spacing" textLength="39.019" x="819.9619" y="837.52">[014]</text><text fill="#000000" font-family="sans-serif" font-size="13" lengthAdjust="spacing" textLength="137.5854" x="862.981" y="837.52">internal health check</text><path d="M374.6587,870.5859 L439.1016,870.5859 L439.1016,877.7188 L429.1016,887.7188 L374.6587,887.7188 L374.6587,870.5859 " fill="#EEEEEE" style="stroke:#000000;stroke-width:1.5;"/><rect fill="transparent" height="46.2656" style="stroke:#000000;stroke-width:1.5;" width="508.5591" x="374.6587" y="870.5859"/><text fill="#000000" font-family="sans-serif" font-size="13" font-weight="bold" lengthAdjust="spacing" textLength="19.4429" x="389.6587" y="883.6528">alt</text><text fill="#000000" font-family="sans-serif" font-size="11" font-weight="bold" lengthAdjust="spacing" textLength="84.1704" x="454.1016" y="882.7964">["Health OK"]</text><polygon fill="#181818" points="464.9609,904.8516,454.9609,908.8516,464.9609,912.8516,460.9609,908.8516" style="stroke:#181818;stroke-width:1;"/><line style="stroke:#181818;stroke-width:1;stroke-dasharray:2.0,2.0;" x1="458.9609" x2="801.9619" y1="908.8516" y2="908.8516"/><text fill="#000000" font-family="sans-serif" font-size="13" font-weight="bold" lengthAdjust="spacing" textLength="39.019" x="470.9609" y="903.7856">[015]</text><text fill="#000000" font-family="sans-serif" font-size="13" lengthAdjust="spacing" textLength="175.627" x="513.98" y="903.7856">alive notification (callback)</text><polygon fill="#181818" points="94.8008,940.9844,84.8008,944.9844,94.8008,948.9844,90.8008,944.9844" style="stroke:#181818;stroke-width:1;"/><line style="stroke:#181818;stroke-width:1;stroke-dasharray:2.0,2.0;" x1="88.8008" x2="447.9609" y1="944.9844" y2="944.9844"/><text fill="#000000" font-family="sans-serif" font-size="13" font-weight="bold" lengthAdjust="spacing" textLength="39.019" x="100.8008" y="939.9185">[016]</text><text fill="#000000" font-family="sans-serif" font-size="13" lengthAdjust="spacing" textLength="162.9253" x="143.8198" y="939.9185">notify external watchdog</text><line style="stroke:#181818;stroke-width:1;stroke-dasharray:2.0,2.0;" x1="83.8008" x2="125.8008" y1="994.25" y2="994.25"/><line style="stroke:#181818;stroke-width:1;stroke-dasharray:2.0,2.0;" x1="125.8008" x2="125.8008" y1="994.25" y2="1007.25"/><line style="stroke:#181818;stroke-width:1;stroke-dasharray:2.0,2.0;" x1="78.8008" x2="125.8008" y1="1007.25" y2="1007.25"/><polygon fill="#181818" points="88.8008,1003.25,78.8008,1007.25,88.8008,1011.25,84.8008,1007.25" style="stroke:#181818;stroke-width:1;"/><text fill="#000000" font-family="sans-serif" font-size="13" font-weight="bold" lengthAdjust="spacing" textLength="39.019" x="90.8008" y="981.6177">[017]</text><text fill="#000000" font-family="sans-serif" font-size="13" lengthAdjust="spacing" textLength="293.1411" x="133.8198" y="974.0513">Check if the notification fits the alive window</text><text fill="#000000" font-family="sans-serif" font-size="13" lengthAdjust="spacing" textLength="152.3184" x="133.8198" y="989.1841">reset the timeout timer</text><path d="M817,1015.25 L817,1040.25 L1140,1040.25 L1140,1025.25 L1130,1015.25 L817,1015.25 " fill="#FEFFDD" style="stroke:#181818;stroke-width:0.5;"/><path d="M1130,1015.25 L1130,1025.25 L1140,1025.25 L1130,1015.25 " fill="#FEFFDD" style="stroke:#181818;stroke-width:0.5;"/><text fill="#000000" font-family="sans-serif" font-size="13" lengthAdjust="spacing" textLength="302.4722" x="823" y="1032.3169">Wait until the next scheduled notification time</text><line style="stroke:#181818;stroke-width:1;stroke-dasharray:2.0,2.0;" x1="812.9619" x2="854.9619" y1="1066.5156" y2="1066.5156"/><line style="stroke:#181818;stroke-width:1;stroke-dasharray:2.0,2.0;" x1="854.9619" x2="854.9619" y1="1066.5156" y2="1079.5156"/><line style="stroke:#181818;stroke-width:1;stroke-dasharray:2.0,2.0;" x1="813.9619" x2="854.9619" y1="1079.5156" y2="1079.5156"/><polygon fill="#181818" points="823.9619,1075.5156,813.9619,1079.5156,823.9619,1083.5156,819.9619,1079.5156" style="stroke:#181818;stroke-width:1;"/><text fill="#000000" font-family="sans-serif" font-size="13" font-weight="bold" lengthAdjust="spacing" textLength="39.019" x="819.9619" y="1061.4497">[018]</text><text fill="#000000" font-family="sans-serif" font-size="13" lengthAdjust="spacing" textLength="137.5854" x="862.981" y="1061.4497">internal health check</text><path d="M817,1092.5156 L817,1117.5156 L1007,1117.5156 L1007,1102.5156 L997,1092.5156 L817,1092.5156 " fill="#FEFFDD" style="stroke:#181818;stroke-width:0.5;"/><path d="M997,1092.5156 L997,1102.5156 L1007,1102.5156 L997,1092.5156 " fill="#FEFFDD" style="stroke:#181818;stroke-width:0.5;"/><text fill="#000000" font-family="sans-serif" font-size="13" lengthAdjust="spacing" textLength="169.5078" x="823" y="1109.5825">status failed, don't trigger</text><line style="stroke:#181818;stroke-width:1;stroke-dasharray:2.0,2.0;" x1="83.8008" x2="125.8008" y1="1163.9141" y2="1163.9141"/><line style="stroke:#181818;stroke-width:1;stroke-dasharray:2.0,2.0;" x1="125.8008" x2="125.8008" y1="1163.9141" y2="1176.9141"/><line style="stroke:#181818;stroke-width:1;stroke-dasharray:2.0,2.0;" x1="78.8008" x2="125.8008" y1="1176.9141" y2="1176.9141"/><polygon fill="#181818" points="88.8008,1172.9141,78.8008,1176.9141,88.8008,1180.9141,84.8008,1176.9141" style="stroke:#181818;stroke-width:1;"/><text fill="#000000" font-family="sans-serif" font-size="13" font-weight="bold" lengthAdjust="spacing" textLength="39.019" x="90.8008" y="1151.2817">[019]</text><text fill="#000000" font-family="sans-serif" font-size="13" lengthAdjust="spacing" textLength="293.1411" x="133.8198" y="1143.7153">Check if the notification fits the alive window</text><text fill="#000000" font-family="sans-serif" font-size="13" lengthAdjust="spacing" textLength="152.3184" x="133.8198" y="1158.8481">reset the timeout timer</text><path d="M83,1184.9141 L83,1224.9141 L262,1224.9141 L262,1194.9141 L252,1184.9141 L83,1184.9141 " fill="#FEFFDD" style="stroke:#181818;stroke-width:0.5;"/><path d="M252,1184.9141 L252,1194.9141 L262,1194.9141 L252,1184.9141 " fill="#FEFFDD" style="stroke:#181818;stroke-width:0.5;"/><text fill="#000000" font-family="sans-serif" font-size="13" lengthAdjust="spacing" textLength="158.3232" x="89" y="1201.981">alive notification missed</text><text fill="#000000" font-family="sans-serif" font-size="13" lengthAdjust="spacing" textLength="140.353" x="89" y="1217.1138">Trigger error reaction</text><!--SRC=[vLLVRzem47_tfpZbPI01vRcQAaqKRMWWejAAIcCFnhaaLeEDx0kqttuNXp02F6pQf6tQGqJid7__xcH8Ku4mVYLqHXOmiqQJTTfaGiYIh2atQtGGlL_VVHaEXryZ8RRIaLPwAmr1T3oubAJon6OHI0_ZvNsxhFaAiRElRw5cUH-tQwQoD2g7cJGoGnTgfZDMeKZl965OJ6VGxz_nwotmMO-Wh4brLZf9sXgHOAlwkAYuX2oO9F23mqnx5kw1B9pn2Yw60yV3eGvIwq0MUeTWBEbKgy3deQDaKQobUkcsT1vaCbA5GQKpi9D5YG8BrjmutTICOBV8K9GZx9kO4jnfXQ39Ov560Uy0LnLVr7Km6y0DBswQBzssZLC99ZdDAKGZ1Dj2S3hB2MnQCqtY4NJY-MBo3En-lkZxBQhAE-0E3NMXdUyL_nMtDeS1oP4Ra8FAKRtKlVXKxym_Hwt0BdE-6dF5UUQbwlcP4vx4MnYFdk0e_XHui38Vuycy1qyV7Xvxi8WdFK1I0r6dnuh2-N3a3R2PzIRaynoFYsh- -VcECAfSWqv3brlMKkvnsArjxxL9x7vb77gai4zwWxQayEjE6IkIjjagxwNK1AKXNTHSB1eyXvwK1IPjwWfHY5zhNCl_ZtVnIkDQIFz8_ByZ_xya_lyr_v-A_vBEawJIGoerm_SWiUOTQ-KIljZ57xyG0jMLKTXexp5PcSTQAA1pVCMx0CL_ezy0]--></g></svg>