<svg xmlns="http://www.w3.org/2000/svg" xmlns:xlink="http://www.w3.org/1999/xlink" contentStyleType="text/css" data-diagram-type="DESCRIPTION" height="121px" preserveAspectRatio="none" style="width:685px;height:121px;background:#FFFFFF;" version="1.1" viewBox="0 0 685 121" width="685px" zoomAndPan="magnify"><defs/><g><!--cluster Monitored controller--><g id="cluster_Monitored controller"><path d="M8.5,6 L172.5166,6 A3.75,3.75 0 0 1 175.0166,8.5 L182.0166,28.2969 L490.5,28.2969 A2.5,2.5 0 0 1 493,30.7969 L493,100.5 A2.5,2.5 0 0 1 490.5,103 L8.5,103 A2.5,2.5 0 0 1 6,100.5 L6,8.5 A2.5,2.5 0 0 1 8.5,6 " fill="transparent" style="stroke:#000000;stroke-width:1.5;"/><line style="stroke:#000000;stroke-width:1.5;" x1="6" x2="182.0166" y1="28.2969" y2="28.2969"/><text fill="#000000" font-family="sans-serif" font-size="14" font-weight="bold" lengthAdjust="spacing" textLength="163.0166" x="10" y="20.9951">Monitored controller</text></g><!--cluster External monitor--><g id="cluster_External monitor"><path d="M532.5,6 L666.459,6 A3.75,3.75 0 0 1 668.959,8.5 L675.959,28.2969 L675.5,28.2969 A2.5,2.5 0 0 1 678,30.7969 L678,100.5 A2.5,2.5 0 0 1 675.5,103 L532.5,103 A2.5,2.5 0 0 1 530,100.5 L530,8.5 A2.5,2.5 0 0 1 532.5,6 " fill="transparent" style="stroke:#000000;stroke-width:1.5;"/><line style="stroke:#000000;stroke-width:1.5;" x1="530" x2="675.959" y1="28.2969" y2="28.2969"/><text fill="#000000" font-family="sans-serif" font-size="14" font-weight="bold" lengthAdjust="spacing" textLength="132.959" x="534" y="20.9951">External monitor</text></g><!--entity Watchdog Proxy--><g id="elem_Watchdog Proxy"><rect fill="#F1F1F1" height="46.2969" rx="2.5" ry="2.5" style="stroke:#181818;stroke-width:0.5;" width="154.6045" x="268.5" y="41"/><rect fill="#F1F1F1" height="10" style="stroke:#181818;stroke-width:0.5;" width="15" x="403.1045" y="46"/><rect fill="#F1F1F1" height="2" style="stroke:#181818;stroke-width:0.5;" width="4" x="401.1045" y="48"/><rect fill="#F1F1F1" height="2" style="stroke:#181818;stroke-width:0.5;" width="4" x="401.1045" y="52"/><text fill="#000000" font-family="sans-serif" font-size="14" lengthAdjust="spacing" textLength="114.6045" x="283.5" y="73.9951">Watchdog Proxy</text></g><!--entity Ext_IPC--><g id="elem_Ext_IPC"><ellipse cx="468" cy="64" fill="#F1F1F1" rx="8" ry="8" style="stroke:#181818;stroke-width:0.5;"/><text fill="#000000" font-family="sans-serif" font-size="14" lengthAdjust="spacing" textLength="51.9668" x="442.0166" y="93.9951">Ext_IPC</text></g><!--entity HealthStatus--><g id="elem_HealthStatus"><ellipse cx="224" cy="64" fill="#F1F1F1" rx="8" ry="8" style="stroke:#181818;stroke-width:0.5;"/><text fill="#000000" font-family="sans-serif" font-size="14" lengthAdjust="spacing" textLength="90.583" x="178.7085" y="93.9951">HealthStatus</text></g><!--entity Launch Manager--><g id="elem_Launch Manager"><rect fill="#F1F1F1" height="46.2969" rx="2.5" ry="2.5" style="stroke:#181818;stroke-width:0.5;" width="156.5117" x="22.5" y="41"/><rect fill="#F1F1F1" height="10" style="stroke:#181818;stroke-width:0.5;" width="15" x="159.0117" y="46"/><rect fill="#F1F1F1" height="2" style="stroke:#181818;stroke-width:0.5;" width="4" x="157.0117" y="48"/><rect fill="#F1F1F1" height="2" style="stroke:#181818;stroke-width:0.5;" width="4" x="157.0117" y="52"/><text fill="#000000" font-family="sans-serif" font-size="14" lengthAdjust="spacing" textLength="116.5117" x="37.5" y="73.9951">Launch Manager</text></g><!--entity Watchdog--><g id="elem_Watchdog"><rect fill="#F1F1F1" height="46.2969" rx="2.5" ry="2.5" style="stroke:#181818;stroke-width:0.5;" width="110.8203" x="548.5" y="41"/><rect fill="#F1F1F1" height="10" style="stroke:#181818;stroke-width:0.5;" width="15" x="639.3203" y="46"/><rect fill="#F1F1F1" height="2" style="stroke:#181818;stroke-width:0.5;" width="4" x="637.3203" y="48"/><rect fill="#F1F1F1" height="2" style="stroke:#181818;stroke-width:0.5;" width="4" x="637.3203" y="52"/><text fill="#000000" font-family="sans-serif" font-size="14" lengthAdjust="spacing" textLength="70.8203" x="563.5" y="73.9951">Watchdog</text></g><!--link Watchdog Proxy to Ext_IPC--><g id="link_Watchdog Proxy_Ext_IPC"><path d="M423.68,64 C435.45,64 447.22,64 459,64 " fill="transparent" id="Watchdog Proxy-Ext_IPC" style="stroke:#181818;stroke-width:1;"/></g><!--link HealthStatus to Watchdog Proxy--><g id="link_HealthStatus_Watchdog Proxy"><path d="M233.05,64 C244.82,64 256.58,64 268.35,64 " fill="transparent" id="HealthStatus-Watchdog Proxy" style="stroke:#181818;stroke-width:1;"/></g><!--link Launch Manager to HealthStatus--><g id="link_Launch Manager_HealthStatus"><path d="M179.8,64 C191.42,64 203.05,64 214.68,64 " fill="transparent" id="Launch Manager-HealthStatus" style="stroke:#181818;stroke-width:1;"/></g><!--link Ext_IPC to Watchdog--><g id="link_Ext_IPC_Watchdog"><path d="M477.35,64 C491.99,64 521.44,64 548.26,64 " fill="transparent" id="Ext_IPC-Watchdog" style="stroke:#181818;stroke-width:1;"/><text fill="#000000" font-family="sans-serif" font-size="13" lengthAdjust="spacing" textLength="35.3818" x="495.25" y="80.0669">UART</text><text fill="#000000" font-family="sans-serif" font-size="13" lengthAdjust="spacing" textLength="31.9795" x="496.9512" y="95.1997">GPIO</text><text fill="#000000" font-family="sans-serif" font-size="13" lengthAdjust="spacing" textLength="24.375" x="500.7534" y="110.3325">etc.</text></g><!--SRC=[NOxT2e9044Rlzoa-lBS7w2uYIaYIVkWY9OPrKMcRbMq48thtLgo8hcVEELzB-aALGPGwRiHvKq8x5k-iDJx2Gm6d8uckIrSXyww_5uYnwEMSPFDmN1coKk-4fBiX_dyTw3Lrh6kanA7Z1_gNKK-bsi-6e3MUoU8wZXdxxrW0l_e2KnncsttEoopPv6n4JuBf1G00]--></g></svg>