<svg host="65bd71144e" xmlns="http://www.w3.org/2000/svg" style="background: #ffffff; background-color: light-dark(#ffffff, #121212);" xmlns:xlink="http://www.w3.org/1999/xlink" version="1.1" width="441px" height="169px" viewBox="-0.5 -0.5 441 169" content="&lt;mxfile scale=&quot;1&quot; border=&quot;0&quot;&gt;&lt;diagram name=&quot;Page-1&quot; id=&quot;T3BMX8OljUpALTbiXzM3&quot;&gt;7Vpbc9o6EP41zLQPZGwLg3kMpKRz5pxpZ9IzbfombNnoVFjUiAD99WeF5It8IYYASWbIQ2utpPVq9X2rXeEOGs839wlezP7hAWEdxwo2HXTXcRzPcuBfKdgqgWsPlSBKaKBEdi54oH+IFlpauqIBWRoDBedM0IUp9HkcE18YMpwkfG0OCzkz37rAEakIHnzMqtLvNBAzvSzXyuWfCY1m6ZttS/dMsf8rSvgq1u/rOCjc/anuOU516fHLGQ74uiBCnzponHAu1NN8MyZMujZ1m5o3aejN7E5ILNpM+I7vxeTn1poMKCFiOJv8Ff7b7SktT5ittD9GNMbJVpsstqmbliLhvzIP2R00mok504+wtIUcN99EEiM3IeNrf4YTcRNwfzUHA2G1o/WMCvKwwL4cuoaBcqbCg3XjuKbKnWOJNN2CFsNTwkaZw8ec8QS6Yh4TqWRnWyqEfbA8QKEPPSFlrCAPCJmGg2xGcTUBXs6y1814Qv/wWOBsgWA1jSOz9Y3DCu66Hkiqe6G354kkgmwKIr0394TPiZB+tnQvQq6aonnkeTdasM5haduabbMCJNFAs0EzIcp052iABw2IA8BhuxV0dJw+E9Jd9AkeI7FbuxKF4DBJQLW/IP29ktAefSbsiQjq41yUTn3goViD06CN5xIO8XS5KKgEq5VW800grnn/aUxa8lXiQzxyrA/gNBCPPh5oTZk4jdyYryDKdVOGwNw8onxZCUYltnd4kyACY9kto1EsVdEgkOrfDF80i50ePGNtpA9rIonehAmeUyaBnXtedejzwHZ0O315QEK8YrlDX0StNAJvzWaRV8iq8qrnvZxXyK4AggRw/uim3pDCPpINFT8Kz4+76Ojq1t1Ge3zX2BYaX0lCwTrpcSWLwdIfu8mW56QCqc2+sbJ2rm/XShXmYKputYGdfJtMhDh1QGiEcSuE2I0IaQB70Tag263MFYocANmEyo3TDgjSET7DyyX1lVAPsavksHZ/qe/K/m+ErQowOldCOuHBSUT0sHSchMlecCeEYUGfzDSmDqu7qbA4vC0MWHAai2VB81cpyDljD4cGaWxrUMK90tgw27VKs0tcUl7Qs0p0ytbYimFZOKgeUjr859xLg73s6KqgdQsD7N5iowJ6dhhUz4xvsL3gr/ESNjo0hvoZJnJhio7K+fLb9xvPk1KgMFlYlz0V4kYJnH5Apt60LtajPhqi4PT8PGsEt4fPh3C7JoS7e2jROoQPGgEGiWBcCzBYlujKTerOoV5SKIu53rUqKJ4FrIaYVJNE0w+wUjDbSv/7+Cx49yQ8X6b/ybIKJlEmAf5crqPW3JTsHFclVDKh91MqmLUAuiSv8qLEyVt/k1BivzvMRSMuBJ9LYf88pUodGx23ho3Wy9mY6mifUGWJUDEJ0inVnhyomtC0OtL3FlLnPedbuxC1KevuyALSHxL71IgK11LnPZU6HrpcqeNW75JqYDXmcUijVQKQ5vEVV+8UV3bvgjW0675+De1kx8Vj8Vy51s8nqJ/blcq9N1sqO7ZnkqPfO6RU9krU8tqVylUzeiUzysWPct0pam63fwlGHpm4Xcl3mcur7Ne6AiPTWvlijGxmQ+UGyj2OVqjE7r53NlZ5R7LKuhmigcGsoXfl1hvlVl2icTTf9v2m+9qn4hCVCHjIBTKyTfqmJ87B7HUdQ4+DzsXe/sEXEyl7DeY6LYlrm8R1rsw9KXOPJWl6AL5qmrrnLDsPq9yznYn96q87oxVlAYgYjyqMu36l0vSVyt4LzOOvfmsvAuo+Uumd4O637xydIA3SsPpY6LrmRm8sNzo6D+q/kZuAQSnn6VslfO/NeSxztleiTOvo3CtZkfLxxeEZmvn3imp4/k0o+vQ/&lt;/diagram&gt;&lt;/mxfile&gt;">
    <defs/>
    <rect fill="#ffffff" width="100%" height="100%" x="0" y="0" style="fill: light-dark(rgb(255, 255, 255), rgb(18, 18, 18));"/>
    <g>
        <g>
            <path d="M 422 68.5 C 424.76 68.5 427 70.74 427 73.5 L 427 100.88 Q 399 92.55 371 100.88 Q 343 109.2 315 100.88 L 315 73.13 L 315 73.5 C 315 70.74 317.24 68.5 320 68.5 Z" fill="#deebf7" stroke="#08519c" stroke-miterlimit="10" pointer-events="all" style="fill: light-dark(rgb(222, 235, 247), rgb(27, 38, 48)); stroke: light-dark(rgb(8, 81, 156), rgb(122, 185, 249));"/>
        </g>
        <g>
            <g transform="translate(-0.5 -0.5)">
                <switch>
                    <foreignObject style="overflow: visible; text-align: left;" pointer-events="none" width="100%" height="100%" requiredFeatures="http://www.w3.org/TR/SVG11/feature#Extensibility">
                        <div xmlns="http://www.w3.org/1999/xhtml" style="display: flex; align-items: unsafe center; justify-content: unsafe center; width: 112px; height: 1px; padding-top: 83px; margin-left: 315px;">
                            <div style="box-sizing: border-box; font-size: 0; text-align: center; color: #000000; ">
                                <div style="display: inline-block; font-size: 12px; font-family: &quot;Helvetica&quot;; color: light-dark(#000000, #ffffff); line-height: 1.2; pointer-events: all; white-space: normal; word-wrap: normal; ">
                                    Binary
                                </div>
                            </div>
                        </div>
                    </foreignObject>
                    <text x="371" y="87" fill="light-dark(#000000, #ffffff)" font-family="&quot;Helvetica&quot;" font-size="12px" text-anchor="middle">
                        Binary
                    </text>
                </switch>
            </g>
        </g>
        <g>
            <path d="M 14.77 3.98 C 14.77 2.93 15.55 1.91 16.94 1.17 C 18.32 0.42 20.2 0 22.16 0 L 122.61 0 C 124.57 0 126.45 0.42 127.84 1.17 C 129.22 1.91 130 2.93 130 3.98 L 130 35.83 C 111.59 31.63 90.8 31.63 72.39 35.83 C 53.97 40.04 33.19 40.04 14.77 35.83 Z" fill="#deebf7" stroke="#08519c" stroke-miterlimit="10" pointer-events="all" style="fill: light-dark(rgb(222, 235, 247), rgb(27, 38, 48)); stroke: light-dark(rgb(8, 81, 156), rgb(122, 185, 249));"/>
            <path d="M 7.39 7.96 C 7.39 6.91 8.16 5.89 9.55 5.15 C 10.93 4.4 12.81 3.98 14.77 3.98 L 115.23 3.98 C 117.19 3.98 119.07 4.4 120.45 5.15 C 121.84 5.89 122.61 6.91 122.61 7.96 L 122.61 39.81 C 104.2 35.61 83.41 35.61 65 39.81 C 46.59 44.02 25.8 44.02 7.39 39.81 Z" fill="#deebf7" stroke="#08519c" stroke-miterlimit="10" pointer-events="all" style="fill: light-dark(rgb(222, 235, 247), rgb(27, 38, 48)); stroke: light-dark(rgb(8, 81, 156), rgb(122, 185, 249));"/>
            <path d="M 0 11.94 C 0 9.75 3.31 7.96 7.39 7.96 L 107.84 7.96 C 111.92 7.96 115.23 9.75 115.23 11.94 L 115.23 43.8 C 96.81 39.59 76.03 39.59 57.61 43.8 C 39.2 48 18.41 48 0 43.8 Z" fill="#deebf7" stroke="#08519c" stroke-miterlimit="10" pointer-events="all" style="fill: light-dark(rgb(222, 235, 247), rgb(27, 38, 48)); stroke: light-dark(rgb(8, 81, 156), rgb(122, 185, 249));"/>
        </g>
        <g>
            <g transform="translate(-0.5 -0.5)">
                <switch>
                    <foreignObject style="overflow: visible; text-align: left;" pointer-events="none" width="100%" height="100%" requiredFeatures="http://www.w3.org/TR/SVG11/feature#Extensibility">
                        <div xmlns="http://www.w3.org/1999/xhtml" style="display: flex; align-items: unsafe center; justify-content: unsafe center; width: 1px; height: 1px; padding-top: 24px; margin-left: 65px;">
                            <div style="box-sizing: border-box; font-size: 0; text-align: center; color: #000000; ">
                                <div style="display: inline-block; font-size: 12px; font-family: &quot;Helvetica&quot;; color: light-dark(#000000, #ffffff); line-height: 1.2; pointer-events: all; white-space: nowrap; ">
                                    <div>
                                        <font face="Helvetica">
                                            Software
                                        </font>
                                    </div>
                                    <div>
                                        <font face="Helvetica">
                                            sources (C++)
                                        </font>
                                    </div>
                                </div>
                            </div>
                        </div>
                    </foreignObject>
                    <text x="65" y="28" fill="light-dark(#000000, #ffffff)" font-family="&quot;Helvetica&quot;" font-size="12px" text-anchor="middle">
                        Software...
                    </text>
                </switch>
            </g>
        </g>
        <g>
            <path d="M 130 87 L 169 87 Q 179 87 179.01 77 L 179.02 60.26" fill="none" stroke="#000000" stroke-width="2" stroke-miterlimit="10" pointer-events="stroke" style="stroke: light-dark(rgb(0, 0, 0), rgb(255, 255, 255));"/>
            <path d="M 179.02 54.26 L 183.01 62.26 L 179.02 60.26 L 175.01 62.25 Z" fill="#000000" stroke="#000000" stroke-width="2" stroke-miterlimit="10" pointer-events="all" style="fill: light-dark(rgb(0, 0, 0), rgb(255, 255, 255)); stroke: light-dark(rgb(0, 0, 0), rgb(255, 255, 255));"/>
        </g>
        <g>
            <rect x="170" y="0" width="110" height="51" rx="7.65" ry="7.65" fill="#cdeb8b" stroke="#36393d" pointer-events="all" style="fill: light-dark(rgb(205, 235, 139), rgb(32, 58, 0)); stroke: light-dark(rgb(54, 57, 61), rgb(186, 189, 192));"/>
        </g>
        <g>
            <g transform="translate(-0.5 -0.5)">
                <switch>
                    <foreignObject style="overflow: visible; text-align: left;" pointer-events="none" width="100%" height="100%" requiredFeatures="http://www.w3.org/TR/SVG11/feature#Extensibility">
                        <div xmlns="http://www.w3.org/1999/xhtml" style="display: flex; align-items: unsafe center; justify-content: unsafe center; width: 108px; height: 1px; padding-top: 26px; margin-left: 171px;">
                            <div style="box-sizing: border-box; font-size: 0; text-align: center; color: #000000; ">
                                <div style="display: inline-block; font-size: 12px; font-family: &quot;Helvetica&quot;; color: light-dark(#000000, #ffffff); line-height: 1.2; pointer-events: all; white-space: normal; word-wrap: normal; ">
                                    <font color="#000000" face="Times,serif" style="font-size: 14px; color: light-dark(rgb(0, 0, 0), rgb(237, 237, 237));">
                                        qcc
                                    </font>
                                </div>
                            </div>
                        </div>
                    </foreignObject>
                    <text x="225" y="29" fill="light-dark(#000000, #ffffff)" font-family="&quot;Helvetica&quot;" font-size="12px" text-anchor="middle">
                        qcc
                    </text>
                </switch>
            </g>
        </g>
        <g>
            <path d="M 329.2 4.15 C 329.2 1.86 332.38 0 336.31 0 L 432.9 0 C 436.82 0 440 1.86 440 4.15 L 440 37.33 C 422.3 32.95 402.31 32.95 384.6 37.33 C 366.9 41.7 346.91 41.7 329.2 37.33 Z" fill="#deebf7" stroke="#08519c" stroke-miterlimit="10" pointer-events="all" style="fill: light-dark(rgb(222, 235, 247), rgb(27, 38, 48)); stroke: light-dark(rgb(8, 81, 156), rgb(122, 185, 249));"/>
            <path d="M 322.1 8.29 C 322.1 7.19 322.85 6.14 324.18 5.36 C 325.51 4.58 327.32 4.15 329.2 4.15 L 425.8 4.15 C 427.68 4.15 429.49 4.58 430.82 5.36 C 432.15 6.14 432.9 7.19 432.9 8.29 L 432.9 41.47 C 415.19 37.09 395.2 37.09 377.5 41.47 C 359.8 45.85 339.81 45.85 322.1 41.47 Z" fill="#deebf7" stroke="#08519c" stroke-miterlimit="10" pointer-events="all" style="fill: light-dark(rgb(222, 235, 247), rgb(27, 38, 48)); stroke: light-dark(rgb(8, 81, 156), rgb(122, 185, 249));"/>
            <path d="M 315 12.44 C 315 10.15 318.18 8.29 322.1 8.29 L 418.69 8.29 C 422.62 8.29 425.8 10.15 425.8 12.44 L 425.8 45.62 C 408.09 41.24 388.1 41.24 370.4 45.62 C 352.69 50 332.7 50 315 45.62 Z" fill="#deebf7" stroke="#08519c" stroke-miterlimit="10" pointer-events="all" style="fill: light-dark(rgb(222, 235, 247), rgb(27, 38, 48)); stroke: light-dark(rgb(8, 81, 156), rgb(122, 185, 249));"/>
        </g>
        <g>
            <g transform="translate(-0.5 -0.5)">
                <switch>
                    <foreignObject style="overflow: visible; text-align: left;" pointer-events="none" width="100%" height="100%" requiredFeatures="http://www.w3.org/TR/SVG11/feature#Extensibility">
                        <div xmlns="http://www.w3.org/1999/xhtml" style="display: flex; align-items: unsafe center; justify-content: unsafe center; width: 132px; height: 1px; padding-top: 27px; margin-left: 307px;">
                            <div style="box-sizing: border-box; font-size: 0; text-align: center; color: #000000; ">
                                <div style="display: inline-block; font-size: 12px; font-family: &quot;Helvetica&quot;; color: light-dark(#000000, #ffffff); line-height: 1.2; pointer-events: all; white-space: normal; word-wrap: normal; ">
                                    <span style="text-wrap-mode: nowrap;">
                                        <font face="Helvetica" style="color: light-dark(rgb(0, 0, 0), rgb(237, 237, 237));">
                                            Object files
                                        </font>
                                    </span>
                                </div>
                            </div>
                        </div>
                    </foreignObject>
                    <text x="373" y="30" fill="light-dark(#000000, #ffffff)" font-family="&quot;Helvetica&quot;" font-size="12px" text-anchor="middle">
                        Object files
                    </text>
                </switch>
            </g>
        </g>
        <g>
            <path d="M 130 24.93 L 161.76 25.38" fill="none" stroke="#000000" stroke-width="2" stroke-miterlimit="10" pointer-events="stroke" style="stroke: light-dark(rgb(0, 0, 0), rgb(255, 255, 255));"/>
            <path d="M 167.76 25.47 L 159.71 29.35 L 161.76 25.38 L 159.82 21.35 Z" fill="#000000" stroke="#000000" stroke-width="2" stroke-miterlimit="10" pointer-events="all" style="fill: light-dark(rgb(0, 0, 0), rgb(255, 255, 255)); stroke: light-dark(rgb(0, 0, 0), rgb(255, 255, 255));"/>
        </g>
        <g>
            <path d="M 14.77 66.98 C 14.77 65.93 15.55 64.91 16.94 64.17 C 18.32 63.42 20.2 63 22.16 63 L 122.61 63 C 124.57 63 126.45 63.42 127.84 64.17 C 129.22 64.91 130 65.93 130 66.98 L 130 98.83 C 111.59 94.63 90.8 94.63 72.39 98.83 C 53.97 103.04 33.19 103.04 14.77 98.83 Z" fill="#deebf7" stroke="#08519c" stroke-miterlimit="10" pointer-events="all" style="fill: light-dark(rgb(222, 235, 247), rgb(27, 38, 48)); stroke: light-dark(rgb(8, 81, 156), rgb(122, 185, 249));"/>
            <path d="M 7.39 70.96 C 7.39 69.91 8.16 68.89 9.55 68.15 C 10.93 67.4 12.81 66.98 14.77 66.98 L 115.23 66.98 C 117.19 66.98 119.07 67.4 120.45 68.15 C 121.84 68.89 122.61 69.91 122.61 70.96 L 122.61 102.81 C 104.2 98.61 83.41 98.61 65 102.81 C 46.59 107.02 25.8 107.02 7.39 102.81 Z" fill="#deebf7" stroke="#08519c" stroke-miterlimit="10" pointer-events="all" style="fill: light-dark(rgb(222, 235, 247), rgb(27, 38, 48)); stroke: light-dark(rgb(8, 81, 156), rgb(122, 185, 249));"/>
            <path d="M 0 74.94 C 0 72.75 3.31 70.96 7.39 70.96 L 107.84 70.96 C 111.92 70.96 115.23 72.75 115.23 74.94 L 115.23 106.8 C 96.81 102.59 76.03 102.59 57.61 106.8 C 39.2 111 18.41 111 0 106.8 Z" fill="#deebf7" stroke="#08519c" stroke-miterlimit="10" pointer-events="all" style="fill: light-dark(rgb(222, 235, 247), rgb(27, 38, 48)); stroke: light-dark(rgb(8, 81, 156), rgb(122, 185, 249));"/>
        </g>
        <g>
            <g transform="translate(-0.5 -0.5)">
                <switch>
                    <foreignObject style="overflow: visible; text-align: left;" pointer-events="none" width="100%" height="100%" requiredFeatures="http://www.w3.org/TR/SVG11/feature#Extensibility">
                        <div xmlns="http://www.w3.org/1999/xhtml" style="display: flex; align-items: unsafe center; justify-content: unsafe center; width: 1px; height: 1px; padding-top: 87px; margin-left: 65px;">
                            <div style="box-sizing: border-box; font-size: 0; text-align: center; color: #000000; ">
                                <div style="display: inline-block; font-size: 12px; font-family: &quot;Helvetica&quot;; color: light-dark(#000000, #ffffff); line-height: 1.2; pointer-events: all; white-space: nowrap; ">
                                    <div>
                                        Dependencies
                                    </div>
                                </div>
                            </div>
                        </div>
                    </foreignObject>
                    <text x="65" y="91" fill="light-dark(#000000, #ffffff)" font-family="&quot;Helvetica&quot;" font-size="12px" text-anchor="middle">
                        Dependencies
                    </text>
                </switch>
            </g>
        </g>
        <g>
            <path d="M 14.77 123.98 C 14.77 122.93 15.55 121.91 16.94 121.17 C 18.32 120.42 20.2 120 22.16 120 L 122.61 120 C 124.57 120 126.45 120.42 127.84 121.17 C 129.22 121.91 130 122.93 130 123.98 L 130 155.83 C 111.59 151.63 90.8 151.63 72.39 155.83 C 53.97 160.04 33.19 160.04 14.77 155.83 Z" fill="#deebf7" stroke="#08519c" stroke-miterlimit="10" pointer-events="all" style="fill: light-dark(rgb(222, 235, 247), rgb(27, 38, 48)); stroke: light-dark(rgb(8, 81, 156), rgb(122, 185, 249));"/>
            <path d="M 7.39 127.96 C 7.39 126.91 8.16 125.89 9.55 125.15 C 10.93 124.4 12.81 123.98 14.77 123.98 L 115.23 123.98 C 117.19 123.98 119.07 124.4 120.45 125.15 C 121.84 125.89 122.61 126.91 122.61 127.96 L 122.61 159.81 C 104.2 155.61 83.41 155.61 65 159.81 C 46.59 164.02 25.8 164.02 7.39 159.81 Z" fill="#deebf7" stroke="#08519c" stroke-miterlimit="10" pointer-events="all" style="fill: light-dark(rgb(222, 235, 247), rgb(27, 38, 48)); stroke: light-dark(rgb(8, 81, 156), rgb(122, 185, 249));"/>
            <path d="M 0 131.94 C 0 129.75 3.31 127.96 7.39 127.96 L 107.84 127.96 C 111.92 127.96 115.23 129.75 115.23 131.94 L 115.23 163.8 C 96.81 159.59 76.03 159.59 57.61 163.8 C 39.2 168 18.41 168 0 163.8 Z" fill="#deebf7" stroke="#08519c" stroke-miterlimit="10" pointer-events="all" style="fill: light-dark(rgb(222, 235, 247), rgb(27, 38, 48)); stroke: light-dark(rgb(8, 81, 156), rgb(122, 185, 249));"/>
        </g>
        <g>
            <g transform="translate(-0.5 -0.5)">
                <switch>
                    <foreignObject style="overflow: visible; text-align: left;" pointer-events="none" width="100%" height="100%" requiredFeatures="http://www.w3.org/TR/SVG11/feature#Extensibility">
                        <div xmlns="http://www.w3.org/1999/xhtml" style="display: flex; align-items: unsafe center; justify-content: unsafe center; width: 1px; height: 1px; padding-top: 144px; margin-left: 65px;">
                            <div style="box-sizing: border-box; font-size: 0; text-align: center; color: #000000; ">
                                <div style="display: inline-block; font-size: 12px; font-family: &quot;Helvetica&quot;; color: light-dark(#000000, #ffffff); line-height: 1.2; pointer-events: all; white-space: nowrap; ">
                                    <div>
                                        Configuration
                                    </div>
                                </div>
                            </div>
                        </div>
                    </foreignObject>
                    <text x="65" y="148" fill="light-dark(#000000, #ffffff)" font-family="&quot;Helvetica&quot;" font-size="12px" text-anchor="middle">
                        Configuration
                    </text>
                </switch>
            </g>
        </g>
        <g>
            <path d="M 130 144 L 188 144 Q 198 144 197.95 134 L 197.54 59.24" fill="none" stroke="#000000" stroke-width="2" stroke-miterlimit="10" pointer-events="stroke" style="stroke: light-dark(rgb(0, 0, 0), rgb(255, 255, 255));"/>
            <path d="M 197.51 53.24 L 201.55 61.21 L 197.54 59.24 L 193.56 61.26 Z" fill="#000000" stroke="#000000" stroke-width="2" stroke-miterlimit="10" pointer-events="all" style="fill: light-dark(rgb(0, 0, 0), rgb(255, 255, 255)); stroke: light-dark(rgb(0, 0, 0), rgb(255, 255, 255));"/>
        </g>
        <g>
            <path d="M 280 25.5 L 306.76 25.12" fill="none" stroke="#000000" stroke-width="2" stroke-miterlimit="10" pointer-events="stroke" style="stroke: light-dark(rgb(0, 0, 0), rgb(255, 255, 255));"/>
            <path d="M 312.76 25.03 L 304.82 29.15 L 306.76 25.12 L 304.71 21.15 Z" fill="#000000" stroke="#000000" stroke-width="2" stroke-miterlimit="10" pointer-events="all" style="fill: light-dark(rgb(0, 0, 0), rgb(255, 255, 255)); stroke: light-dark(rgb(0, 0, 0), rgb(255, 255, 255));"/>
        </g>
        <g>
            <path d="M 273.07 50.24 L 273.02 77 Q 273 87 283 87 L 306.76 87" fill="none" stroke="#000000" stroke-width="2" stroke-miterlimit="10" pointer-events="stroke" style="stroke: light-dark(rgb(0, 0, 0), rgb(255, 255, 255));"/>
            <path d="M 312.76 87 L 304.76 91 L 306.76 87 L 304.76 83 Z" fill="#000000" stroke="#000000" stroke-width="2" stroke-miterlimit="10" pointer-events="all" style="fill: light-dark(rgb(0, 0, 0), rgb(255, 255, 255)); stroke: light-dark(rgb(0, 0, 0), rgb(255, 255, 255));"/>
        </g>
        <g>
            <path d="M 315 12.5 L 288.24 12.69" fill="none" stroke="#000000" stroke-width="2" stroke-miterlimit="10" pointer-events="stroke" style="stroke: light-dark(rgb(0, 0, 0), rgb(255, 255, 255));"/>
            <path d="M 282.24 12.73 L 290.21 8.68 L 288.24 12.69 L 290.26 16.68 Z" fill="#000000" stroke="#000000" stroke-width="2" stroke-miterlimit="10" pointer-events="all" style="fill: light-dark(rgb(0, 0, 0), rgb(255, 255, 255)); stroke: light-dark(rgb(0, 0, 0), rgb(255, 255, 255));"/>
        </g>
        <g>
            <path d="M 422 120 C 424.76 120 427 122.24 427 125 L 427 155 Q 399 146 371 155 Q 343 164 315 155 L 315 125 L 315 125 C 315 122.24 317.24 120 320 120 Z" fill="#deebf7" stroke="#08519c" stroke-miterlimit="10" pointer-events="all" style="fill: light-dark(rgb(222, 235, 247), rgb(27, 38, 48)); stroke: light-dark(rgb(8, 81, 156), rgb(122, 185, 249));"/>
        </g>
        <g>
            <g transform="translate(-0.5 -0.5)">
                <switch>
                    <foreignObject style="overflow: visible; text-align: left;" pointer-events="none" width="100%" height="100%" requiredFeatures="http://www.w3.org/TR/SVG11/feature#Extensibility">
                        <div xmlns="http://www.w3.org/1999/xhtml" style="display: flex; align-items: unsafe center; justify-content: unsafe center; width: 112px; height: 1px; padding-top: 139px; margin-left: 315px;">
                            <div style="box-sizing: border-box; font-size: 0; text-align: center; color: #000000; ">
                                <div style="display: inline-block; font-size: 12px; font-family: &quot;Helvetica&quot;; color: light-dark(#000000, #ffffff); line-height: 1.2; pointer-events: all; white-space: normal; word-wrap: normal; ">
                                    Build log
                                </div>
                            </div>
                        </div>
                    </foreignObject>
                    <text x="371" y="143" fill="light-dark(#000000, #ffffff)" font-family="&quot;Helvetica&quot;" font-size="12px" text-anchor="middle">
                        Build log
                    </text>
                </switch>
            </g>
        </g>
        <g>
            <path d="M 252.5 51 L 252.94 130 Q 253 140 263 140 L 306.76 140" fill="none" stroke="#000000" stroke-width="2" stroke-miterlimit="10" pointer-events="stroke" style="stroke: light-dark(rgb(0, 0, 0), rgb(255, 255, 255));"/>
            <path d="M 312.76 140 L 304.76 144 L 306.76 140 L 304.76 136 Z" fill="#000000" stroke="#000000" stroke-width="2" stroke-miterlimit="10" pointer-events="all" style="fill: light-dark(rgb(0, 0, 0), rgb(255, 255, 255)); stroke: light-dark(rgb(0, 0, 0), rgb(255, 255, 255));"/>
        </g>
    </g>
    <switch>
        <g requiredFeatures="http://www.w3.org/TR/SVG11/feature#Extensibility"/>
        <a transform="translate(0,-5)" xlink:href="https://www.drawio.com/doc/faq/svg-export-text-problems" target="_blank">
            <text text-anchor="middle" font-size="10px" x="50%" y="100%">
                Text is not SVG - cannot display
            </text>
        </a>
    </switch>
</svg>
