<svg xmlns="http://www.w3.org/2000/svg" xmlns:xlink="http://www.w3.org/1999/xlink" contentStyleType="text/css" data-diagram-type="SEQUENCE" height="1091px" preserveAspectRatio="none" style="width:858px;height:1091px;background:#FFFFFF;" version="1.1" viewBox="0 0 858 1091" width="858px" zoomAndPan="magnify"><defs/><g><rect fill="#DDDDDD" height="1079.9766" style="stroke:#181818;stroke-width:0.5;" width="377.8608" x="264.4106" y="6"/><text fill="#000000" font-family="sans-serif" font-size="13" font-weight="bold" lengthAdjust="spacing" textLength="162.7031" x="371.9895" y="18.0669">Monitored Application</text><g><title>Application Logic</title><rect fill="#FFFFFF" height="683.0547" style="stroke:#181818;stroke-width:1;" width="10" x="330.167" y="186.9609"/></g><g><title>HealthMonitor</title><rect fill="#FFFFFF" height="638.7891" style="stroke:#181818;stroke-width:1;" width="10" x="576.6768" y="231.2266"/></g><g><title>Launch Manager</title><rect fill="transparent" height="995.25" width="8" x="66.2559" y="56.4297"/><line style="stroke:#181818;stroke-width:0.5;stroke-dasharray:5.0,5.0;" x1="70" x2="70" y1="56.4297" y2="1051.6797"/></g><g><title>Application Logic</title><rect fill="transparent" height="995.25" width="8" x="331.167" y="56.4297"/><line style="stroke:#181818;stroke-width:0.5;stroke-dasharray:5.0,5.0;" x1="334.4106" x2="334.4106" y1="56.4297" y2="1051.6797"/></g><g><title>HealthMonitor</title><rect fill="transparent" height="995.25" width="8" x="577.6768" y="56.4297"/><line style="stroke:#181818;stroke-width:0.5;stroke-dasharray:5.0,5.0;" x1="581.082" x2="581.082" y1="56.4297" y2="1051.6797"/></g><rect fill="#E2E2F0" height="30.2969" rx="2.5" ry="2.5" style="stroke:#181818;stroke-width:0.5;" width="130.5117" x="5" y="25.1328"/><text fill="#000000" font-family="sans-serif" font-size="14" lengthAdjust="spacing" textLength="116.5117" x="12" y="45.1279">Launch Manager</text><rect fill="#E2E2F0" height="30.2969" rx="2.5" ry="2.5" style="stroke:#181818;stroke-width:0.5;" width="130.5117" x="5" y="1050.6797"/><text fill="#000000" font-family="sans-serif" font-size="14" lengthAdjust="spacing" textLength="116.5117" x="12" y="1070.6748">Launch Manager</text><rect fill="#E2E2F0" height="30.2969" rx="2.5" ry="2.5" style="stroke:#181818;stroke-width:0.5;" width="133.5127" x="268.4106" y="25.1328"/><text fill="#000000" font-family="sans-serif" font-size="14" lengthAdjust="spacing" textLength="119.5127" x="275.4106" y="45.1279">Application Logic</text><rect fill="#E2E2F0" height="30.2969" rx="2.5" ry="2.5" style="stroke:#181818;stroke-width:0.5;" width="133.5127" x="268.4106" y="1050.6797"/><text fill="#000000" font-family="sans-serif" font-size="14" lengthAdjust="spacing" textLength="119.5127" x="275.4106" y="1070.6748">Application Logic</text><rect fill="#E2E2F0" height="30.2969" rx="2.5" ry="2.5" style="stroke:#181818;stroke-width:0.5;" width="113.1895" x="525.082" y="25.1328"/><text fill="#000000" font-family="sans-serif" font-size="14" lengthAdjust="spacing" textLength="99.1895" x="532.082" y="45.1279">HealthMonitor</text><rect fill="#E2E2F0" height="30.2969" rx="2.5" ry="2.5" style="stroke:#181818;stroke-width:0.5;" width="113.1895" x="525.082" y="1050.6797"/><text fill="#000000" font-family="sans-serif" font-size="14" lengthAdjust="spacing" textLength="99.1895" x="532.082" y="1070.6748">HealthMonitor</text><g><title>Application Logic</title><rect fill="#FFFFFF" height="683.0547" style="stroke:#181818;stroke-width:1;" width="10" x="330.167" y="186.9609"/></g><g><title>HealthMonitor</title><rect fill="#FFFFFF" height="638.7891" style="stroke:#181818;stroke-width:1;" width="10" x="576.6768" y="231.2266"/></g><line style="stroke:#181818;stroke-width:1;" x1="70.2559" x2="112.2559" y1="102.6953" y2="102.6953"/><line style="stroke:#181818;stroke-width:1;" x1="112.2559" x2="112.2559" y1="102.6953" y2="115.6953"/><line style="stroke:#181818;stroke-width:1;" x1="71.2559" x2="112.2559" y1="115.6953" y2="115.6953"/><polygon fill="#181818" points="81.2559,111.6953,71.2559,115.6953,81.2559,119.6953,77.2559,115.6953" style="stroke:#181818;stroke-width:1;"/><text fill="#000000" font-family="sans-serif" font-size="13" font-weight="bold" lengthAdjust="spacing" textLength="39.019" x="77.2559" y="90.063">[001]</text><text fill="#000000" font-family="sans-serif" font-size="13" lengthAdjust="spacing" textLength="147.1196" x="120.2749" y="82.4966">Parse monitoring rules</text><text fill="#000000" font-family="sans-serif" font-size="13" lengthAdjust="spacing" textLength="137.8457" x="120.2749" y="97.6294">of the monitored app</text><line style="stroke:#181818;stroke-width:1;" x1="70.2559" x2="112.2559" y1="144.8281" y2="144.8281"/><line style="stroke:#181818;stroke-width:1;" x1="112.2559" x2="112.2559" y1="144.8281" y2="157.8281"/><line style="stroke:#181818;stroke-width:1;" x1="71.2559" x2="112.2559" y1="157.8281" y2="157.8281"/><polygon fill="#181818" points="81.2559,153.8281,71.2559,157.8281,81.2559,161.8281,77.2559,157.8281" style="stroke:#181818;stroke-width:1;"/><text fill="#000000" font-family="sans-serif" font-size="13" font-weight="bold" lengthAdjust="spacing" textLength="39.019" x="77.2559" y="139.7622">[002]</text><text fill="#000000" font-family="sans-serif" font-size="13" lengthAdjust="spacing" textLength="207.8921" x="120.2749" y="139.7622">Start startup grace period timer</text><polygon fill="#181818" points="318.167,182.9609,328.167,186.9609,318.167,190.9609,322.167,186.9609" style="stroke:#181818;stroke-width:1;"/><line style="stroke:#181818;stroke-width:1;" x1="70.2559" x2="324.167" y1="186.9609" y2="186.9609"/><text fill="#000000" font-family="sans-serif" font-size="13" font-weight="bold" lengthAdjust="spacing" textLength="39.019" x="77.2559" y="181.895">[003]</text><text fill="#000000" font-family="sans-serif" font-size="13" lengthAdjust="spacing" textLength="109.4336" x="120.2749" y="181.895">Start component</text><polygon fill="#181818" points="564.6768,227.2266,574.6768,231.2266,564.6768,235.2266,568.6768,231.2266" style="stroke:#181818;stroke-width:1;"/><line style="stroke:#181818;stroke-width:1;" x1="340.167" x2="570.6768" y1="231.2266" y2="231.2266"/><text fill="#000000" font-family="sans-serif" font-size="13" font-weight="bold" lengthAdjust="spacing" textLength="39.019" x="347.167" y="218.5942">[004]</text><text fill="#000000" font-family="sans-serif" font-size="13" lengthAdjust="spacing" textLength="174.4907" x="390.186" y="211.0278">Register health monitoring</text><text fill="#000000" font-family="sans-serif" font-size="13" lengthAdjust="spacing" textLength="154.1846" x="390.186" y="226.1606">(Alive/Deadline/Logical)</text><line style="stroke:#181818;stroke-width:1;" x1="586.6768" x2="628.6768" y1="260.3594" y2="260.3594"/><line style="stroke:#181818;stroke-width:1;" x1="628.6768" x2="628.6768" y1="260.3594" y2="273.3594"/><line style="stroke:#181818;stroke-width:1;" x1="587.6768" x2="628.6768" y1="273.3594" y2="273.3594"/><polygon fill="#181818" points="597.6768,269.3594,587.6768,273.3594,597.6768,277.3594,593.6768,273.3594" style="stroke:#181818;stroke-width:1;"/><text fill="#000000" font-family="sans-serif" font-size="13" font-weight="bold" lengthAdjust="spacing" textLength="39.019" x="593.6768" y="255.2935">[005]</text><text fill="#000000" font-family="sans-serif" font-size="13" lengthAdjust="spacing" textLength="214.4429" x="636.6958" y="255.2935">sleep until the next wakeup time</text><polygon fill="#181818" points="564.6768,298.4922,574.6768,302.4922,564.6768,306.4922,568.6768,302.4922" style="stroke:#181818;stroke-width:1;"/><line style="stroke:#181818;stroke-width:1;" x1="340.167" x2="570.6768" y1="302.4922" y2="302.4922"/><text fill="#000000" font-family="sans-serif" font-size="13" font-weight="bold" lengthAdjust="spacing" textLength="39.019" x="347.167" y="297.4263">[006]</text><text fill="#000000" font-family="sans-serif" font-size="13" lengthAdjust="spacing" textLength="73.144" x="390.186" y="297.4263">Checkpoint</text><line style="stroke:#181818;stroke-width:1;" x1="586.6768" x2="628.6768" y1="346.7578" y2="346.7578"/><line style="stroke:#181818;stroke-width:1;" x1="628.6768" x2="628.6768" y1="346.7578" y2="359.7578"/><line style="stroke:#181818;stroke-width:1;" x1="587.6768" x2="628.6768" y1="359.7578" y2="359.7578"/><polygon fill="#181818" points="597.6768,355.7578,587.6768,359.7578,597.6768,363.7578,593.6768,359.7578" style="stroke:#181818;stroke-width:1;"/><text fill="#000000" font-family="sans-serif" font-size="13" font-weight="bold" lengthAdjust="spacing" textLength="39.019" x="593.6768" y="334.1255">[007]</text><text fill="#000000" font-family="sans-serif" font-size="13" lengthAdjust="spacing" textLength="161.4082" x="636.6958" y="326.5591">Wakeup and check if the</text><text fill="#000000" font-family="sans-serif" font-size="13" lengthAdjust="spacing" textLength="193.356" x="636.6958" y="341.6919">checkpoints have been called</text><polygon fill="#181818" points="81.2559,384.8906,71.2559,388.8906,81.2559,392.8906,77.2559,388.8906" style="stroke:#181818;stroke-width:1;"/><line style="stroke:#181818;stroke-width:1;" x1="75.2559" x2="575.6768" y1="388.8906" y2="388.8906"/><text fill="#000000" font-family="sans-serif" font-size="13" font-weight="bold" lengthAdjust="spacing" textLength="39.019" x="87.2559" y="383.8247">[008]</text><text fill="#000000" font-family="sans-serif" font-size="13" lengthAdjust="spacing" textLength="109.0464" x="130.2749" y="383.8247">Alive notification</text><polygon fill="#FEFFDD" points="21,401.8906,629,401.8906,639,412.8906,629,424.8906,21,424.8906,11,412.8906,21,401.8906" style="stroke:#181818;stroke-width:0.5;"/><text fill="#000000" font-family="sans-serif" font-size="13" lengthAdjust="spacing" textLength="188.7158" x="230.7778" y="417.9575">Use Case: Missed checkpoint</text><line style="stroke:#181818;stroke-width:2;" x1="558.6768" x2="568.6768" y1="446.1563" y2="456.1563"/><line style="stroke:#181818;stroke-width:2;" x1="558.6768" x2="568.6768" y1="456.1563" y2="446.1563"/><line style="stroke:#181818;stroke-width:1;stroke-dasharray:2.0,2.0;" x1="340.167" x2="563.6768" y1="451.1563" y2="451.1563"/><text fill="#000000" font-family="sans-serif" font-size="13" font-weight="bold" lengthAdjust="spacing" textLength="39.019" x="347.167" y="446.0903">[009]</text><text fill="#000000" font-family="sans-serif" font-size="13" lengthAdjust="spacing" textLength="121.9004" x="390.186" y="446.0903">Missed Checkpoint</text><line style="stroke:#181818;stroke-width:1;" x1="586.6768" x2="628.6768" y1="495.4219" y2="495.4219"/><line style="stroke:#181818;stroke-width:1;" x1="628.6768" x2="628.6768" y1="495.4219" y2="508.4219"/><line style="stroke:#181818;stroke-width:1;" x1="587.6768" x2="628.6768" y1="508.4219" y2="508.4219"/><polygon fill="#181818" points="597.6768,504.4219,587.6768,508.4219,597.6768,512.4219,593.6768,508.4219" style="stroke:#181818;stroke-width:1;"/><text fill="#000000" font-family="sans-serif" font-size="13" font-weight="bold" lengthAdjust="spacing" textLength="39.019" x="593.6768" y="482.7896">[010]</text><text fill="#000000" font-family="sans-serif" font-size="13" lengthAdjust="spacing" textLength="161.4082" x="636.6958" y="475.2231">Wakeup and check if the</text><text fill="#000000" font-family="sans-serif" font-size="13" lengthAdjust="spacing" textLength="193.356" x="636.6958" y="490.356">checkpoints have been called</text><polygon fill="#181818" points="81.2559,533.5547,71.2559,537.5547,81.2559,541.5547,77.2559,537.5547" style="stroke:#181818;stroke-width:1;"/><line style="stroke:#181818;stroke-width:1;" x1="75.2559" x2="575.6768" y1="537.5547" y2="537.5547"/><text fill="#000000" font-family="sans-serif" font-size="13" font-weight="bold" lengthAdjust="spacing" textLength="39.019" x="87.2559" y="532.4888">[011]</text><text fill="#000000" font-family="sans-serif" font-size="13" lengthAdjust="spacing" textLength="198.688" x="130.2749" y="532.4888">Supervision failure notification</text><line style="stroke:#181818;stroke-width:2;" x1="77.2559" x2="87.2559" y1="561.6875" y2="571.6875"/><line style="stroke:#181818;stroke-width:2;" x1="77.2559" x2="87.2559" y1="571.6875" y2="561.6875"/><line style="stroke:#181818;stroke-width:1;" x1="82.2559" x2="575.6768" y1="566.6875" y2="566.6875"/><text fill="#000000" font-family="sans-serif" font-size="13" font-weight="bold" lengthAdjust="spacing" textLength="39.019" x="87.2559" y="561.6216">[012]</text><text fill="#000000" font-family="sans-serif" font-size="13" lengthAdjust="spacing" textLength="132.7041" x="130.2749" y="561.6216">Stop triggering alive</text><line style="stroke:#181818;stroke-width:1;" x1="70.2559" x2="112.2559" y1="610.9531" y2="610.9531"/><line style="stroke:#181818;stroke-width:1;" x1="112.2559" x2="112.2559" y1="610.9531" y2="623.9531"/><line style="stroke:#181818;stroke-width:1;" x1="71.2559" x2="112.2559" y1="623.9531" y2="623.9531"/><polygon fill="#181818" points="81.2559,619.9531,71.2559,623.9531,81.2559,627.9531,77.2559,623.9531" style="stroke:#181818;stroke-width:1;"/><text fill="#000000" font-family="sans-serif" font-size="13" font-weight="bold" lengthAdjust="spacing" textLength="39.019" x="77.2559" y="598.3208">[013]</text><text fill="#000000" font-family="sans-serif" font-size="13" lengthAdjust="spacing" textLength="89.6924" x="120.2749" y="590.7544">Error reaction</text><text fill="#000000" font-family="sans-serif" font-size="13" lengthAdjust="spacing" textLength="148.4209" x="120.2749" y="605.8872">(notify State manager)</text><polygon fill="#FEFFDD" points="21,636.9531,629,636.9531,639,647.9531,629,659.9531,21,659.9531,11,647.9531,21,636.9531" style="stroke:#181818;stroke-width:0.5;"/><text fill="#000000" font-family="sans-serif" font-size="13" lengthAdjust="spacing" textLength="310.5083" x="169.8816" y="653.02">Use Case: Direct error report by the Application</text><polygon fill="#181818" points="564.6768,682.2188,574.6768,686.2188,564.6768,690.2188,568.6768,686.2188" style="stroke:#181818;stroke-width:1;"/><line style="stroke:#181818;stroke-width:1;" x1="340.167" x2="570.6768" y1="686.2188" y2="686.2188"/><text fill="#000000" font-family="sans-serif" font-size="13" font-weight="bold" lengthAdjust="spacing" textLength="39.019" x="347.167" y="681.1528">[014]</text><text fill="#000000" font-family="sans-serif" font-size="13" lengthAdjust="spacing" textLength="79.7964" x="390.186" y="681.1528">Report error</text><polygon fill="#181818" points="81.2559,711.3516,71.2559,715.3516,81.2559,719.3516,77.2559,715.3516" style="stroke:#181818;stroke-width:1;"/><line style="stroke:#181818;stroke-width:1;" x1="75.2559" x2="575.6768" y1="715.3516" y2="715.3516"/><text fill="#000000" font-family="sans-serif" font-size="13" font-weight="bold" lengthAdjust="spacing" textLength="39.019" x="87.2559" y="710.2856">[015]</text><text fill="#000000" font-family="sans-serif" font-size="13" lengthAdjust="spacing" textLength="198.688" x="130.2749" y="710.2856">Supervision failure notification</text><line style="stroke:#181818;stroke-width:2;" x1="77.2559" x2="87.2559" y1="739.4844" y2="749.4844"/><line style="stroke:#181818;stroke-width:2;" x1="77.2559" x2="87.2559" y1="749.4844" y2="739.4844"/><line style="stroke:#181818;stroke-width:1;" x1="82.2559" x2="575.6768" y1="744.4844" y2="744.4844"/><text fill="#000000" font-family="sans-serif" font-size="13" font-weight="bold" lengthAdjust="spacing" textLength="39.019" x="87.2559" y="739.4185">[016]</text><text fill="#000000" font-family="sans-serif" font-size="13" lengthAdjust="spacing" textLength="132.7041" x="130.2749" y="739.4185">Stop triggering alive</text><line style="stroke:#181818;stroke-width:1;" x1="70.2559" x2="112.2559" y1="788.75" y2="788.75"/><line style="stroke:#181818;stroke-width:1;" x1="112.2559" x2="112.2559" y1="788.75" y2="801.75"/><line style="stroke:#181818;stroke-width:1;" x1="71.2559" x2="112.2559" y1="801.75" y2="801.75"/><polygon fill="#181818" points="81.2559,797.75,71.2559,801.75,81.2559,805.75,77.2559,801.75" style="stroke:#181818;stroke-width:1;"/><text fill="#000000" font-family="sans-serif" font-size="13" font-weight="bold" lengthAdjust="spacing" textLength="39.019" x="77.2559" y="776.1177">[017]</text><text fill="#000000" font-family="sans-serif" font-size="13" lengthAdjust="spacing" textLength="89.6924" x="120.2749" y="768.5513">Error reaction</text><text fill="#000000" font-family="sans-serif" font-size="13" lengthAdjust="spacing" textLength="148.4209" x="120.2749" y="783.6841">(notify State manager)</text><polygon fill="#FEFFDD" points="21,814.75,629,814.75,639,825.75,629,837.75,21,837.75,11,825.75,21,814.75" style="stroke:#181818;stroke-width:0.5;"/><text fill="#000000" font-family="sans-serif" font-size="13" lengthAdjust="spacing" textLength="199.1641" x="225.5537" y="830.8169">Use Case: Crashed Application</text><line style="stroke:#181818;stroke-width:1;" x1="340.167" x2="382.167" y1="864.0156" y2="864.0156"/><line style="stroke:#181818;stroke-width:1;" x1="382.167" x2="382.167" y1="864.0156" y2="877.0156"/><line style="stroke:#181818;stroke-width:1;" x1="341.167" x2="382.167" y1="877.0156" y2="877.0156"/><polygon fill="#181818" points="351.167,873.0156,341.167,877.0156,351.167,881.0156,347.167,877.0156" style="stroke:#181818;stroke-width:1;"/><text fill="#000000" font-family="sans-serif" font-size="13" font-weight="bold" lengthAdjust="spacing" textLength="39.019" x="347.167" y="858.9497">[018]</text><text fill="#000000" font-family="sans-serif" font-size="13" lengthAdjust="spacing" textLength="151.563" x="390.186" y="858.9497">application error, crash</text><line style="stroke:#A80036;stroke-width:2;" x1="326.167" x2="344.167" y1="868.0156" y2="886.0156"/><line style="stroke:#A80036;stroke-width:2;" x1="326.167" x2="344.167" y1="886.0156" y2="868.0156"/><line style="stroke:#A80036;stroke-width:2;" x1="572.6768" x2="590.6768" y1="868.0156" y2="886.0156"/><line style="stroke:#A80036;stroke-width:2;" x1="572.6768" x2="590.6768" y1="886.0156" y2="868.0156"/><line style="stroke:#181818;stroke-width:1;" x1="70.2559" x2="112.2559" y1="921.2813" y2="921.2813"/><line style="stroke:#181818;stroke-width:1;" x1="112.2559" x2="112.2559" y1="921.2813" y2="934.2813"/><line style="stroke:#181818;stroke-width:1;" x1="71.2559" x2="112.2559" y1="934.2813" y2="934.2813"/><polygon fill="#181818" points="81.2559,930.2813,71.2559,934.2813,81.2559,938.2813,77.2559,934.2813" style="stroke:#181818;stroke-width:1;"/><text fill="#000000" font-family="sans-serif" font-size="13" font-weight="bold" lengthAdjust="spacing" textLength="39.019" x="77.2559" y="908.6489">[019]</text><text fill="#000000" font-family="sans-serif" font-size="13" lengthAdjust="spacing" textLength="161.4082" x="120.2749" y="901.0825">Wakeup and check if the</text><text fill="#000000" font-family="sans-serif" font-size="13" lengthAdjust="spacing" textLength="193.356" x="120.2749" y="916.2153">checkpoints have been called</text><line style="stroke:#181818;stroke-width:1;" x1="70.2559" x2="112.2559" y1="963.4141" y2="963.4141"/><line style="stroke:#181818;stroke-width:1;" x1="112.2559" x2="112.2559" y1="963.4141" y2="976.4141"/><line style="stroke:#181818;stroke-width:1;" x1="71.2559" x2="112.2559" y1="976.4141" y2="976.4141"/><polygon fill="#181818" points="81.2559,972.4141,71.2559,976.4141,81.2559,980.4141,77.2559,976.4141" style="stroke:#181818;stroke-width:1;"/><text fill="#000000" font-family="sans-serif" font-size="13" font-weight="bold" lengthAdjust="spacing" textLength="39.019" x="77.2559" y="958.3481">[020]</text><text fill="#000000" font-family="sans-serif" font-size="13" lengthAdjust="spacing" textLength="165.0708" x="120.2749" y="958.3481">No alive notification seen</text><line style="stroke:#181818;stroke-width:1;" x1="70.2559" x2="112.2559" y1="1020.6797" y2="1020.6797"/><line style="stroke:#181818;stroke-width:1;" x1="112.2559" x2="112.2559" y1="1020.6797" y2="1033.6797"/><line style="stroke:#181818;stroke-width:1;" x1="71.2559" x2="112.2559" y1="1033.6797" y2="1033.6797"/><polygon fill="#181818" points="81.2559,1029.6797,71.2559,1033.6797,81.2559,1037.6797,77.2559,1033.6797" style="stroke:#181818;stroke-width:1;"/><text fill="#000000" font-family="sans-serif" font-size="13" font-weight="bold" lengthAdjust="spacing" textLength="39.019" x="77.2559" y="1008.0474">[021]</text><text fill="#000000" font-family="sans-serif" font-size="13" lengthAdjust="spacing" textLength="89.6924" x="120.2749" y="1000.481">Error reaction</text><text fill="#000000" font-family="sans-serif" font-size="13" lengthAdjust="spacing" textLength="148.4209" x="120.2749" y="1015.6138">(notify State manager)</text><!--SRC=[pLDDYzim4BthLmm-xKANpJcKXILRo25UIfVIGjF3M9xOmygIaUGq-VSToKxYTEbbwQ4- -4jFRzwyUS8XEZjq5NaeFbOFFnQBnSz2gHvzPCqzsWZ51WUhMoZHOaE-00omAPLIbJj0KJhBqNcguR7l3MkCx6oXGAuhajagR5p3ElF8txVGDQ69xKISOUjIaQr12YgrAU7kGGGiuJFwGD2DEBOD-C5Gs5gtWzYU5qGPIfNBjfSenI2a-z13ur4JzEJPrH2v8tyg8ThWXDQkwvqb6vL27NcFaRBsX17eMcY_KCCXYezjbZ_JjRKtZuRtTFz4M1ksT9yDG7Dx8PCEr-M9AXYY7WORsUHEB1qY_C9N4hr9uhpigYNzsZiMQHU2RoCMnJETre6p9Lkhp-W0BUu9AY8B8iLGFUrF5cMvO5tatJGpfLhv943jNGXB-2hEhp3G4aeEWQOweuvHtjqXIvcM_w7CcSwNGGQtvv12jKCsW_zJTS9-dyRkn3tFZMGuXGLJZxDOVFBUUV2KHkAip2mJ7LC0fEzk3F_jttruOayw0aqqlPFOLCSylrdsrNLaCYfl-K-xMdaCxVNXFhSWZsKwM-TpdHlv03hjKJM5wDqn7vFJkwHyfkrTuuSPmRCR-xro1uA0t-70Rm00]--></g></svg>