<svg xmlns="http://www.w3.org/2000/svg" xmlns:xlink="http://www.w3.org/1999/xlink" contentStyleType="text/css" data-diagram-type="CLASS" height="510px" preserveAspectRatio="none" style="width:530px;height:510px;background:#FFFFFF;" version="1.1" viewBox="0 0 530 510" width="530px" zoomAndPan="magnify"><defs/><g><!--cluster mod_view_sta__lifecycle__1--><a href="../features/lifecycle/index.html#mod_view_sta__lifecycle__1" target="_top" title="../features/lifecycle/index.html#mod_view_sta__lifecycle__1" xlink:actuate="onRequest" xlink:href="../features/lifecycle/index.html#mod_view_sta__lifecycle__1" xlink:show="new" xlink:title="../features/lifecycle/index.html#mod_view_sta__lifecycle__1" xlink:type="simple"><path d="M100.5,110 L170.8232,110 A3.75,3.75 0 0 1 173.3232,112.5 L180.3232,132.2969 L464.5,132.2969 A2.5,2.5 0 0 1 467,134.7969 L467,221.5 A2.5,2.5 0 0 1 464.5,224 L100.5,224 A2.5,2.5 0 0 1 98,221.5 L98,112.5 A2.5,2.5 0 0 1 100.5,110 " fill="transparent" style="stroke:#000000;stroke-width:1.5;"/><line style="stroke:#000000;stroke-width:1.5;" x1="98" x2="180.3232" y1="132.2969" y2="132.2969"/><text fill="#000000" font-family="sans-serif" font-size="14" font-weight="bold" lengthAdjust="spacing" textLength="69.3232" x="102" y="124.9951">Lifecycle</text></a><!--cluster mod_view_sta__logging__logging--><a href="../features/communication/modules/logging/index.html#mod_view_sta__logging__logging" target="_top" title="../features/communication/modules/logging/index.html#mod_view_sta__logging__logging" xlink:actuate="onRequest" xlink:href="../features/communication/modules/logging/index.html#mod_view_sta__logging__logging" xlink:show="new" xlink:title="../features/communication/modules/logging/index.html#mod_view_sta__logging__logging" xlink:type="simple"><path d="M131.5,406 L195.8691,406 A3.75,3.75 0 0 1 198.3691,408.5 L205.3691,428.2969 L254.5,428.2969 A2.5,2.5 0 0 1 257,430.7969 L257,500.5 A2.5,2.5 0 0 1 254.5,503 L131.5,503 A2.5,2.5 0 0 1 129,500.5 L129,408.5 A2.5,2.5 0 0 1 131.5,406 " fill="transparent" style="stroke:#000000;stroke-width:1.5;"/><line style="stroke:#000000;stroke-width:1.5;" x1="129" x2="205.3691" y1="428.2969" y2="428.2969"/><text fill="#000000" font-family="sans-serif" font-size="14" font-weight="bold" lengthAdjust="spacing" textLength="63.3691" x="133" y="420.9951">Logging</text></a><!--entity comp_arc_sta__lifecycle__launch_manager--><a href="../features/lifecycle/architecture/launch_manager.html#comp_arc_sta__lifecycle__launch_manager" target="_top" title="../features/lifecycle/architecture/launch_manager.html#comp_arc_sta__lifecycle__launch_manager" xlink:actuate="onRequest" xlink:href="../features/lifecycle/architecture/launch_manager.html#comp_arc_sta__lifecycle__launch_manager" xlink:show="new" xlink:title="../features/lifecycle/architecture/launch_manager.html#comp_arc_sta__lifecycle__launch_manager" xlink:type="simple"><rect fill="#F1F1F1" height="46.2969" rx="2.5" ry="2.5" style="stroke:#0000FF;stroke-width:2;" width="156.5117" x="114.5" y="153.5"/><rect fill="#F1F1F1" height="10" style="stroke:#0000FF;stroke-width:2;" width="15" x="251.0117" y="158.5"/><rect fill="#F1F1F1" height="2" style="stroke:#0000FF;stroke-width:2;" width="4" x="249.0117" y="160.5"/><rect fill="#F1F1F1" height="2" style="stroke:#0000FF;stroke-width:2;" width="4" x="249.0117" y="164.5"/><text fill="#000000" font-family="sans-serif" font-size="14" lengthAdjust="spacing" textLength="116.5117" x="129.5" y="186.4951">Launch Manager</text></a><!--entity comp_arc_sta__lifecycle__healthmonitor--><a href="../features/lifecycle/architecture/application_health_monitor.html#comp_arc_sta__lifecycle__healthmonitor" target="_top" title="../features/lifecycle/architecture/application_health_monitor.html#comp_arc_sta__lifecycle__healthmonitor" xlink:actuate="onRequest" xlink:href="../features/lifecycle/architecture/application_health_monitor.html#comp_arc_sta__lifecycle__healthmonitor" xlink:show="new" xlink:title="../features/lifecycle/architecture/application_health_monitor.html#comp_arc_sta__lifecycle__healthmonitor" xlink:type="simple"><rect fill="#F1F1F1" height="62.5938" rx="2.5" ry="2.5" style="stroke:#0000FF;stroke-width:2;" width="143.6396" x="307" y="145"/><rect fill="#F1F1F1" height="10" style="stroke:#0000FF;stroke-width:2;" width="15" x="430.6396" y="150"/><rect fill="#F1F1F1" height="2" style="stroke:#0000FF;stroke-width:2;" width="4" x="428.6396" y="152"/><rect fill="#F1F1F1" height="2" style="stroke:#0000FF;stroke-width:2;" width="4" x="428.6396" y="156"/><text fill="#000000" font-family="sans-serif" font-size="14" lengthAdjust="spacing" textLength="80.2334" x="322" y="177.9951">&lt;&lt;library&gt;</text><text fill="#000000" font-family="sans-serif" font-size="14" lengthAdjust="spacing" textLength="103.6396" x="322" y="194.292">Health Monitor</text></a><!--entity comp_arc_sta__logging__logging--><a href="../features/communication/modules/logging/index.html#comp_arc_sta__logging__logging" target="_top" title="../features/communication/modules/logging/index.html#comp_arc_sta__logging__logging" xlink:actuate="onRequest" xlink:href="../features/communication/modules/logging/index.html#comp_arc_sta__logging__logging" xlink:show="new" xlink:title="../features/communication/modules/logging/index.html#comp_arc_sta__logging__logging" xlink:type="simple"><rect fill="#F1F1F1" height="46.2969" rx="2.5" ry="2.5" style="stroke:#0000FF;stroke-width:2;" width="95.7881" x="145" y="441"/><rect fill="#F1F1F1" height="10" style="stroke:#0000FF;stroke-width:2;" width="15" x="220.7881" y="446"/><rect fill="#F1F1F1" height="2" style="stroke:#0000FF;stroke-width:2;" width="4" x="218.7881" y="448"/><rect fill="#F1F1F1" height="2" style="stroke:#0000FF;stroke-width:2;" width="4" x="218.7881" y="452"/><text fill="#000000" font-family="sans-serif" font-size="14" lengthAdjust="spacing" textLength="55.7881" x="160" y="473.9951">Logging</text></a><!--class logic_arc_int__lifecycle__alive_if--><a href="../features/lifecycle/architecture/launch_manager.html#logic_arc_int__lifecycle__alive_if" target="_top" title="../features/lifecycle/architecture/launch_manager.html#logic_arc_int__lifecycle__alive_if" xlink:actuate="onRequest" xlink:href="../features/lifecycle/architecture/launch_manager.html#logic_arc_int__lifecycle__alive_if" xlink:show="new" xlink:title="../features/lifecycle/architecture/launch_manager.html#logic_arc_int__lifecycle__alive_if" xlink:type="simple"><g id="elem_logic_arc_int__lifecycle__alive_if"><rect codeLine="13" fill="#F1F1F1" height="40" id="logic_arc_int__lifecycle__alive_if" rx="2.5" ry="2.5" style="stroke:#181818;stroke-width:0.5;" width="133.3838" x="192.5" y="7"/><ellipse cx="207.5" cy="23" fill="#B4A7E5" rx="11" ry="11" style="stroke:#181818;stroke-width:1;"/><path d="M203.4219,18.7656 L203.4219,16.6094 L210.8125,16.6094 L210.8125,18.7656 L208.3438,18.7656 L208.3438,26.8438 L210.8125,26.8438 L210.8125,29 L203.4219,29 L203.4219,26.8438 L205.8906,26.8438 L205.8906,18.7656 L203.4219,18.7656 Z " fill="#000000"/><text fill="#000000" font-family="sans-serif" font-size="14" font-style="italic" lengthAdjust="spacing" textLength="101.3838" x="221.5" y="27.8467">Alive Interface</text><line style="stroke:#181818;stroke-width:0.5;" x1="193.5" x2="324.8838" y1="39" y2="39"/></g></a><!--class logic_arc_int__lifecycle__health_monitor_if--><a href="../features/lifecycle/architecture/application_health_monitor.html#logic_arc_int__lifecycle__health_monitor_if" target="_top" title="../features/lifecycle/architecture/application_health_monitor.html#logic_arc_int__lifecycle__health_monitor_if" xlink:actuate="onRequest" xlink:href="../features/lifecycle/architecture/application_health_monitor.html#logic_arc_int__lifecycle__health_monitor_if" xlink:show="new" xlink:title="../features/lifecycle/architecture/application_health_monitor.html#logic_arc_int__lifecycle__health_monitor_if" xlink:type="simple"><g id="elem_logic_arc_int__lifecycle__health_monitor_if"><rect codeLine="18" fill="#F1F1F1" height="40" id="logic_arc_int__lifecycle__health_monitor_if" rx="2.5" ry="2.5" style="stroke:#181818;stroke-width:0.5;" width="162.2383" x="361" y="7"/><ellipse cx="376" cy="23" fill="#B4A7E5" rx="11" ry="11" style="stroke:#181818;stroke-width:1;"/><path d="M371.9219,18.7656 L371.9219,16.6094 L379.3125,16.6094 L379.3125,18.7656 L376.8438,18.7656 L376.8438,26.8438 L379.3125,26.8438 L379.3125,29 L371.9219,29 L371.9219,26.8438 L374.3906,26.8438 L374.3906,18.7656 L371.9219,18.7656 Z " fill="#000000"/><text fill="#000000" font-family="sans-serif" font-size="14" font-style="italic" lengthAdjust="spacing" textLength="130.2383" x="390" y="27.8467">Health Monitor API</text><line style="stroke:#181818;stroke-width:0.5;" x1="362" x2="522.2383" y1="39" y2="39"/></g></a><!--class logic_arc_int__lifecycle__controlif--><a href="../features/lifecycle/architecture/control_interface.html#logic_arc_int__lifecycle__controlif" target="_top" title="../features/lifecycle/architecture/control_interface.html#logic_arc_int__lifecycle__controlif" xlink:actuate="onRequest" xlink:href="../features/lifecycle/architecture/control_interface.html#logic_arc_int__lifecycle__controlif" xlink:show="new" xlink:title="../features/lifecycle/architecture/control_interface.html#logic_arc_int__lifecycle__controlif" xlink:type="simple"><g id="elem_logic_arc_int__lifecycle__controlif"><rect codeLine="23" fill="#F1F1F1" height="40" id="logic_arc_int__lifecycle__controlif" rx="2.5" ry="2.5" style="stroke:#181818;stroke-width:0.5;" width="150.043" x="7" y="7"/><ellipse cx="22" cy="23" fill="#B4A7E5" rx="11" ry="11" style="stroke:#181818;stroke-width:1;"/><path d="M17.9219,18.7656 L17.9219,16.6094 L25.3125,16.6094 L25.3125,18.7656 L22.8438,18.7656 L22.8438,26.8438 L25.3125,26.8438 L25.3125,29 L17.9219,29 L17.9219,26.8438 L20.3906,26.8438 L20.3906,18.7656 L17.9219,18.7656 Z " fill="#000000"/><text fill="#000000" font-family="sans-serif" font-size="14" font-style="italic" lengthAdjust="spacing" textLength="118.043" x="36" y="27.8467">Control Interface</text><line style="stroke:#181818;stroke-width:0.5;" x1="8" x2="156.043" y1="39" y2="39"/></g></a><!--class logic_arc_int__logging__logging--><a href="../features/communication/modules/logging/index.html#logic_arc_int__logging__logging" target="_top" title="../features/communication/modules/logging/index.html#logic_arc_int__logging__logging" xlink:actuate="onRequest" xlink:href="../features/communication/modules/logging/index.html#logic_arc_int__logging__logging" xlink:show="new" xlink:title="../features/communication/modules/logging/index.html#logic_arc_int__logging__logging" xlink:type="simple"><g id="elem_logic_arc_int__logging__logging"><rect codeLine="43" fill="#F1F1F1" height="56.2969" id="logic_arc_int__logging__logging" rx="2.5" ry="2.5" style="stroke:#181818;stroke-width:0.5;" width="87.7881" x="149" y="287"/><ellipse cx="164" cy="303" fill="#B4A7E5" rx="11" ry="11" style="stroke:#181818;stroke-width:1;"/><path d="M159.9219,298.7656 L159.9219,296.6094 L167.3125,296.6094 L167.3125,298.7656 L164.8438,298.7656 L164.8438,306.8438 L167.3125,306.8438 L167.3125,309 L159.9219,309 L159.9219,306.8438 L162.3906,306.8438 L162.3906,298.7656 L159.9219,298.7656 Z " fill="#000000"/><text fill="#000000" font-family="sans-serif" font-size="14" font-style="italic" lengthAdjust="spacing" textLength="55.7881" x="178" y="307.8467">Logging</text><line style="stroke:#181818;stroke-width:0.5;" x1="150" x2="235.7881" y1="319" y2="319"/></g><a href="../features/communication/modules/logging/index.html#logic_arc_int_op__logging__isenabled" target="_top" title="../features/communication/modules/logging/index.html#logic_arc_int_op__logging__isenabled" xlink:actuate="onRequest" xlink:href="../features/communication/modules/logging/index.html#logic_arc_int_op__logging__isenabled" xlink:show="new" xlink:title="../features/communication/modules/logging/index.html#logic_arc_int_op__logging__isenabled" xlink:type="simple"><rect fill="#F1F1F1" height="10" style="stroke:transparent;stroke-width:1;" width="20" x="155" y="327.6484"/><ellipse cx="160" cy="332.6484" fill="#84BE84" rx="3" ry="3" style="stroke:#038048;stroke-width:1;"/></a></a><a href="../features/communication/modules/logging/index.html#logic_arc_int_op__logging__isenabled" target="_top" title="../features/communication/modules/logging/index.html#logic_arc_int_op__logging__isenabled" xlink:actuate="onRequest" xlink:href="../features/communication/modules/logging/index.html#logic_arc_int_op__logging__isenabled" xlink:show="new" xlink:title="../features/communication/modules/logging/index.html#logic_arc_int_op__logging__isenabled" xlink:type="simple"><text fill="#000000" font-family="sans-serif" font-size="14" lengthAdjust="spacing" textLength="40.626" x="169" y="335.9951">Log ()</text></a><!--link comp_arc_sta__lifecycle__launch_manager to logic_arc_int__logging__logging--><g id="link_comp_arc_sta__lifecycle__launch_manager_logic_arc_int__logging__logging"><path codeLine="50" d="M193,199.73 C193,223.46 193,255.06 193,280.59 " fill="transparent" id="comp_arc_sta__lifecycle__launch_manager-to-logic_arc_int__logging__logging" style="stroke:#008000;stroke-width:1;"/><polygon fill="#008000" points="193,286.59,197,277.59,193,281.59,189,277.59,193,286.59" style="stroke:#008000;stroke-width:1;"/><text fill="#000000" font-family="sans-serif" font-size="13" lengthAdjust="spacing" textLength="29.7832" x="194" y="253.0669">uses</text></g><!--reverse link logic_arc_int__lifecycle__health_monitor_if to comp_arc_sta__lifecycle__healthmonitor--><g id="link_logic_arc_int__lifecycle__health_monitor_if_comp_arc_sta__lifecycle__healthmonitor"><path codeLine="51" d="M431.4051,52.7985 C420.8051,77.6385 404.6,115.56 392.06,144.92 " fill="transparent" id="logic_arc_int__lifecycle__health_monitor_if-backto-comp_arc_sta__lifecycle__healthmonitor" style="stroke:#181818;stroke-width:1;"/><polygon fill="#181818" points="433.76,47.28,426.5486,53.9879,431.7976,51.8788,433.9066,57.1278,433.76,47.28" style="stroke:#181818;stroke-width:1;"/><text fill="#000000" font-family="sans-serif" font-size="13" lengthAdjust="spacing" textLength="76.9082" x="420" y="90.0669">implements</text></g><!--reverse link logic_arc_int__lifecycle__controlif to comp_arc_sta__lifecycle__launch_manager--><g id="link_logic_arc_int__lifecycle__controlif_comp_arc_sta__lifecycle__launch_manager"><path codeLine="52" d="M100.1181,52.0739 C120.6881,79.4039 154.62,124.49 176.31,153.32 " fill="transparent" id="logic_arc_int__lifecycle__controlif-backto-comp_arc_sta__lifecycle__launch_manager" style="stroke:#181818;stroke-width:1;"/><polygon fill="#181818" points="96.51,47.28,98.7263,56.8763,99.5168,51.2749,105.1181,52.0654,96.51,47.28" style="stroke:#181818;stroke-width:1;"/><text fill="#000000" font-family="sans-serif" font-size="13" lengthAdjust="spacing" textLength="76.9082" x="132" y="90.0669">implements</text></g><!--link comp_arc_sta__lifecycle__healthmonitor to logic_arc_int__lifecycle__alive_if--><g id="link_comp_arc_sta__lifecycle__healthmonitor_logic_arc_int__lifecycle__alive_if"><path codeLine="53" d="M363.84,144.85 C352.93,124.44 337.02,97.69 319,77 C309.46,66.05 302.0392,59.2767 291.1592,50.8767 " fill="transparent" id="comp_arc_sta__lifecycle__healthmonitor-to-logic_arc_int__lifecycle__alive_if" style="stroke:#008000;stroke-width:1;"/><polygon fill="#008000" points="286.41,47.21,291.0894,55.8762,290.3677,50.2656,295.9783,49.5439,286.41,47.21" style="stroke:#008000;stroke-width:1;"/><text fill="#000000" font-family="sans-serif" font-size="13" lengthAdjust="spacing" textLength="29.7832" x="332" y="90.0669">uses</text></g><!--reverse link logic_arc_int__logging__logging to comp_arc_sta__logging__logging--><g id="link_logic_arc_int__logging__logging_comp_arc_sta__logging__logging"><path codeLine="54" d="M193,349.31 C193,377.37 193,414.54 193,440.65 " fill="transparent" id="logic_arc_int__logging__logging-backto-comp_arc_sta__logging__logging" style="stroke:#181818;stroke-width:1;"/><polygon fill="#181818" points="193,343.31,189,352.31,193,348.31,197,352.31,193,343.31" style="stroke:#181818;stroke-width:1;"/><text fill="#000000" font-family="sans-serif" font-size="13" lengthAdjust="spacing" textLength="76.9082" x="194" y="386.0669">implements</text></g><!--reverse link logic_arc_int__lifecycle__alive_if to comp_arc_sta__lifecycle__launch_manager--><g id="link_logic_arc_int__lifecycle__alive_if_comp_arc_sta__lifecycle__launch_manager"><path codeLine="55" d="M247.9613,52.5531 C243.8913,61.6131 241.42,67.13 237,77 C225.29,103.15 211.86,133.23 202.95,153.2 " fill="transparent" id="logic_arc_int__lifecycle__alive_if-backto-comp_arc_sta__lifecycle__launch_manager" style="stroke:#181818;stroke-width:1;"/><polygon fill="#181818" points="250.42,47.08,243.0833,53.6506,248.3711,51.6409,250.3807,56.9288,250.42,47.08" style="stroke:#181818;stroke-width:1;"/><text fill="#000000" font-family="sans-serif" font-size="13" lengthAdjust="spacing" textLength="76.9082" x="238" y="90.0669">implements</text></g><!--SRC=[jLNFRvim5BxxhtXA3zqq9MmxLYXIrSigjT8EksMHPSmBM3KsmgPjDFL_duEJp349iAcxWNdlVJ_ysJ0fzGkjnAjG1R6w1giXqzRg2dBH8BT2ArAA7C5OR53RROt-7QlQRe5PsuYijMX8QknMuf8ic14oWr_aGIYyqr8taCaMkzSVfU1F2es1hulFv8saoRw92ENcRnX7cDrAyOnmVrYO0JCWTI4uPGsdhf1IAJR8jrmYfMnNJSK6OBLQB98DCjisQ99ZIUAwIc6T5hUUIDOgNjAAALPWioXj9Q_6Xw_NJWyXRv1SGqGFhXCueVyDcRGbF6ebhDD- -_r-H47PDT3ADqoNmkfQ2ivsMnJD69FLGmprzVdt9DvfPHij9-yHz_MJbUthwH5oJD0H81JIO-brr8m_kRs7sSEXlsDVwPm-2toXnhAJsLykanOgnrVFxNAxe-GuSLtLMg6o3hUB83pw27RWkw-TiBZxDAwGfjtXMYx_FUmJeJphpiTJljx4G4wQIf4rhDakVwhJx0nByo7SP_1lbOrbVnfg8FAo2Y_OEt6O4oT95uMxGC_bo7yvFiHPSZohLksL9AwtbJlHldWWNz7OViO2Hf4NCQDBpa-cDZm_3D8UCJ0qN0akc91-VEhVoz6HkVuc-RIZ21y-Ef3tGD5r02GCAfP9pDVhzJa_oDHROPwlhee6KQtdop6xRg0rQ81CF9Rpzip8WH_93OYgbbYv40w1n0A6KOwt-yJfaOGXT_g_-Wi6nQaxIxddzNymum_FSFXl]--></g></svg>