<svg xmlns="http://www.w3.org/2000/svg" xmlns:xlink="http://www.w3.org/1999/xlink" contentStyleType="text/css" data-diagram-type="SEQUENCE" height="517px" preserveAspectRatio="none" style="width:1158px;height:517px;background:#FFFFFF;" version="1.1" viewBox="0 0 1158 517" width="1158px" zoomAndPan="magnify"><title>Control Interface - Start components</title><defs/><g><text fill="#000000" font-family="sans-serif" font-size="14" font-weight="bold" lengthAdjust="spacing" textLength="291.1973" x="440.7869" y="27.9951">Control Interface - Start components</text><g><title>Launch Manager</title><rect fill="#FFFFFF" height="297.1953" style="stroke:#181818;stroke-width:1;" width="10" x="436.2856" y="175.9922"/></g><g><title>DemoApp2</title><rect fill="#FFFFFF" height="180.6641" style="stroke:#181818;stroke-width:1;" width="10" x="919.813" y="292.5234"/></g><g><title>Tester</title><rect fill="transparent" height="408.5938" width="8" x="30.1587" y="73.5938"/><line style="stroke:#181818;stroke-width:0.5;stroke-dasharray:5.0,5.0;" x1="34" x2="34" y1="73.5938" y2="482.1875"/></g><g><title>State Manager</title><rect fill="transparent" height="408.5938" width="8" x="230.4531" y="73.5938"/><line style="stroke:#181818;stroke-width:0.5;stroke-dasharray:5.0,5.0;" x1="234.0161" x2="234.0161" y1="73.5938" y2="482.1875"/></g><g><title>Launch Manager</title><rect fill="transparent" height="408.5938" width="8" x="437.2856" y="73.5938"/><line style="stroke:#181818;stroke-width:0.5;stroke-dasharray:5.0,5.0;" x1="441.0298" x2="441.0298" y1="73.5938" y2="482.1875"/></g><g><title>OS (kernel)</title><rect fill="transparent" height="408.5938" width="8" x="716.4648" y="73.5938"/><line style="stroke:#181818;stroke-width:0.5;stroke-dasharray:5.0,5.0;" x1="719.8984" x2="719.8984" y1="73.5938" y2="482.1875"/></g><g><title>DemoApp1</title><rect fill="transparent" height="408.5938" width="8" x="818.9585" y="73.5938"/><line style="stroke:#181818;stroke-width:0.5;stroke-dasharray:5.0,5.0;" x1="822.0313" x2="822.0313" y1="73.5938" y2="482.1875"/></g><g><title>DemoApp2</title><rect fill="transparent" height="408.5938" width="8" x="920.813" y="73.5938"/><line style="stroke:#181818;stroke-width:0.5;stroke-dasharray:5.0,5.0;" x1="923.8857" x2="923.8857" y1="73.5938" y2="482.1875"/></g><rect fill="#E2E2F0" height="30.2969" rx="2.5" ry="2.5" style="stroke:#181818;stroke-width:0.5;" width="58.3174" x="5" y="42.2969"/><text fill="#000000" font-family="sans-serif" font-size="14" lengthAdjust="spacing" textLength="44.3174" x="12" y="62.292">Tester</text><rect fill="#E2E2F0" height="30.2969" rx="2.5" ry="2.5" style="stroke:#181818;stroke-width:0.5;" width="58.3174" x="5" y="481.1875"/><text fill="#000000" font-family="sans-serif" font-size="14" lengthAdjust="spacing" textLength="44.3174" x="12" y="501.1826">Tester</text><rect fill="#E2E2F0" height="30.2969" rx="2.5" ry="2.5" style="stroke:#181818;stroke-width:0.5;" width="116.874" x="176.0161" y="42.2969"/><text fill="#000000" font-family="sans-serif" font-size="14" lengthAdjust="spacing" textLength="102.874" x="183.0161" y="62.292">State Manager</text><rect fill="#E2E2F0" height="30.2969" rx="2.5" ry="2.5" style="stroke:#181818;stroke-width:0.5;" width="116.874" x="176.0161" y="481.1875"/><text fill="#000000" font-family="sans-serif" font-size="14" lengthAdjust="spacing" textLength="102.874" x="183.0161" y="501.1826">State Manager</text><rect fill="#E2E2F0" height="30.2969" rx="2.5" ry="2.5" style="stroke:#181818;stroke-width:0.5;" width="130.5117" x="376.0298" y="42.2969"/><text fill="#000000" font-family="sans-serif" font-size="14" lengthAdjust="spacing" textLength="116.5117" x="383.0298" y="62.292">Launch Manager</text><rect fill="#E2E2F0" height="30.2969" rx="2.5" ry="2.5" style="stroke:#181818;stroke-width:0.5;" width="130.5117" x="376.0298" y="481.1875"/><text fill="#000000" font-family="sans-serif" font-size="14" lengthAdjust="spacing" textLength="116.5117" x="383.0298" y="501.1826">Launch Manager</text><rect fill="#E2E2F0" height="30.2969" rx="2.5" ry="2.5" style="stroke:#181818;stroke-width:0.5;" width="93.1328" x="673.8984" y="42.2969"/><text fill="#000000" font-family="sans-serif" font-size="14" lengthAdjust="spacing" textLength="79.1328" x="680.8984" y="62.292">OS (kernel)</text><rect fill="#E2E2F0" height="30.2969" rx="2.5" ry="2.5" style="stroke:#181818;stroke-width:0.5;" width="93.1328" x="673.8984" y="481.1875"/><text fill="#000000" font-family="sans-serif" font-size="14" lengthAdjust="spacing" textLength="79.1328" x="680.8984" y="501.1826">OS (kernel)</text><rect fill="#E2E2F0" height="30.2969" rx="2.5" ry="2.5" style="stroke:#181818;stroke-width:0.5;" width="91.8545" x="777.0313" y="42.2969"/><text fill="#000000" font-family="sans-serif" font-size="14" lengthAdjust="spacing" textLength="77.8545" x="784.0313" y="62.292">DemoApp1</text><rect fill="#E2E2F0" height="30.2969" rx="2.5" ry="2.5" style="stroke:#181818;stroke-width:0.5;" width="91.8545" x="777.0313" y="481.1875"/><text fill="#000000" font-family="sans-serif" font-size="14" lengthAdjust="spacing" textLength="77.8545" x="784.0313" y="501.1826">DemoApp1</text><rect fill="#E2E2F0" height="30.2969" rx="2.5" ry="2.5" style="stroke:#181818;stroke-width:0.5;" width="91.8545" x="878.8857" y="42.2969"/><text fill="#000000" font-family="sans-serif" font-size="14" lengthAdjust="spacing" textLength="77.8545" x="885.8857" y="62.292">DemoApp2</text><rect fill="#E2E2F0" height="30.2969" rx="2.5" ry="2.5" style="stroke:#181818;stroke-width:0.5;" width="91.8545" x="878.8857" y="481.1875"/><text fill="#000000" font-family="sans-serif" font-size="14" lengthAdjust="spacing" textLength="77.8545" x="885.8857" y="501.1826">DemoApp2</text><g><title>Launch Manager</title><rect fill="#FFFFFF" height="297.1953" style="stroke:#181818;stroke-width:1;" width="10" x="436.2856" y="175.9922"/></g><g><title>DemoApp2</title><rect fill="#FFFFFF" height="180.6641" style="stroke:#181818;stroke-width:1;" width="10" x="919.813" y="292.5234"/></g><polygon fill="#181818" points="222.4531,100.7266,232.4531,104.7266,222.4531,108.7266,226.4531,104.7266" style="stroke:#181818;stroke-width:1;"/><line style="stroke:#181818;stroke-width:1;" x1="34.1587" x2="228.4531" y1="104.7266" y2="104.7266"/><text fill="#000000" font-family="sans-serif" font-size="13" font-weight="bold" lengthAdjust="spacing" textLength="29.9736" x="41.1587" y="99.6606">[01]</text><text fill="#000000" font-family="sans-serif" font-size="13" lengthAdjust="spacing" textLength="142.3208" x="75.1323" y="99.6606">Start Group (eg. UDS)</text><line style="stroke:#181818;stroke-width:1;" x1="234.4531" x2="276.4531" y1="133.8594" y2="133.8594"/><line style="stroke:#181818;stroke-width:1;" x1="276.4531" x2="276.4531" y1="133.8594" y2="146.8594"/><line style="stroke:#181818;stroke-width:1;" x1="235.4531" x2="276.4531" y1="146.8594" y2="146.8594"/><polygon fill="#181818" points="245.4531,142.8594,235.4531,146.8594,245.4531,150.8594,241.4531,146.8594" style="stroke:#181818;stroke-width:1;"/><text fill="#000000" font-family="sans-serif" font-size="13" font-weight="bold" lengthAdjust="spacing" textLength="29.9736" x="241.4531" y="128.7935">[02]</text><text fill="#000000" font-family="sans-serif" font-size="13" lengthAdjust="spacing" textLength="110.4048" x="275.4268" y="128.7935">evaluate request</text><polygon fill="#181818" points="424.2856,171.9922,434.2856,175.9922,424.2856,179.9922,428.2856,175.9922" style="stroke:#181818;stroke-width:1;"/><line style="stroke:#181818;stroke-width:1;" x1="234.4531" x2="430.2856" y1="175.9922" y2="175.9922"/><text fill="#000000" font-family="sans-serif" font-size="13" font-weight="bold" lengthAdjust="spacing" textLength="29.9736" x="241.4531" y="170.9263">[03]</text><text fill="#000000" font-family="sans-serif" font-size="13" lengthAdjust="spacing" textLength="148.8589" x="275.4268" y="170.9263">Start group DemoApps</text><polygon fill="#181818" points="708.4648,201.125,718.4648,205.125,708.4648,209.125,712.4648,205.125" style="stroke:#181818;stroke-width:1;"/><line style="stroke:#181818;stroke-width:1;" x1="446.2856" x2="714.4648" y1="205.125" y2="205.125"/><text fill="#000000" font-family="sans-serif" font-size="13" font-weight="bold" lengthAdjust="spacing" textLength="29.9736" x="453.2856" y="200.0591">[04]</text><text fill="#000000" font-family="sans-serif" font-size="13" lengthAdjust="spacing" textLength="118.2886" x="487.2593" y="200.0591">spawn DemoApp1</text><polygon fill="#181818" points="810.9585,230.2578,820.9585,234.2578,810.9585,238.2578,814.9585,234.2578" style="stroke:#181818;stroke-width:1;"/><line style="stroke:#181818;stroke-width:1;" x1="720.4648" x2="816.9585" y1="234.2578" y2="234.2578"/><text fill="#000000" font-family="sans-serif" font-size="13" font-weight="bold" lengthAdjust="spacing" textLength="29.9736" x="727.4648" y="229.1919">[05]</text><text fill="#000000" font-family="sans-serif" font-size="13" lengthAdjust="spacing" textLength="41.8628" x="761.4385" y="229.1919">spawn</text><polygon fill="#181818" points="457.2856,259.3906,447.2856,263.3906,457.2856,267.3906,453.2856,263.3906" style="stroke:#181818;stroke-width:1;"/><line style="stroke:#181818;stroke-width:1;stroke-dasharray:2.0,2.0;" x1="451.2856" x2="719.4648" y1="263.3906" y2="263.3906"/><text fill="#000000" font-family="sans-serif" font-size="13" font-weight="bold" lengthAdjust="spacing" textLength="29.9736" x="463.2856" y="258.3247">[06]</text><text fill="#000000" font-family="sans-serif" font-size="13" lengthAdjust="spacing" textLength="212.9131" x="497.2593" y="258.3247">result of spawning of DemoApp1</text><polygon fill="#181818" points="907.813,288.5234,917.813,292.5234,907.813,296.5234,911.813,292.5234" style="stroke:#181818;stroke-width:1;"/><line style="stroke:#181818;stroke-width:1;" x1="720.4648" x2="913.813" y1="292.5234" y2="292.5234"/><text fill="#000000" font-family="sans-serif" font-size="13" font-weight="bold" lengthAdjust="spacing" textLength="29.9736" x="727.4648" y="287.4575">[07]</text><text fill="#000000" font-family="sans-serif" font-size="13" lengthAdjust="spacing" textLength="41.8628" x="761.4385" y="287.4575">spawn</text><polygon fill="#181818" points="457.2856,317.6563,447.2856,321.6563,457.2856,325.6563,453.2856,321.6563" style="stroke:#181818;stroke-width:1;"/><line style="stroke:#181818;stroke-width:1;stroke-dasharray:2.0,2.0;" x1="451.2856" x2="719.4648" y1="321.6563" y2="321.6563"/><text fill="#000000" font-family="sans-serif" font-size="13" font-weight="bold" lengthAdjust="spacing" textLength="29.9736" x="463.2856" y="316.5903">[08]</text><text fill="#000000" font-family="sans-serif" font-size="13" lengthAdjust="spacing" textLength="212.9131" x="497.2593" y="316.5903">result of spawning of DemoApp2</text><line style="stroke:#181818;stroke-width:1;" x1="446.2856" x2="488.2856" y1="350.7891" y2="350.7891"/><line style="stroke:#181818;stroke-width:1;" x1="488.2856" x2="488.2856" y1="350.7891" y2="363.7891"/><line style="stroke:#181818;stroke-width:1;" x1="447.2856" x2="488.2856" y1="363.7891" y2="363.7891"/><polygon fill="#181818" points="457.2856,359.7891,447.2856,363.7891,457.2856,367.7891,453.2856,363.7891" style="stroke:#181818;stroke-width:1;"/><text fill="#000000" font-family="sans-serif" font-size="13" font-weight="bold" lengthAdjust="spacing" textLength="29.9736" x="453.2856" y="345.7231">[09]</text><text fill="#000000" font-family="sans-serif" font-size="13" lengthAdjust="spacing" textLength="211.2056" x="487.2593" y="345.7231">wait for DemoApp2 ready status</text><line style="stroke:#181818;stroke-width:1;" x1="929.813" x2="971.813" y1="392.9219" y2="392.9219"/><line style="stroke:#181818;stroke-width:1;" x1="971.813" x2="971.813" y1="392.9219" y2="405.9219"/><line style="stroke:#181818;stroke-width:1;" x1="930.813" x2="971.813" y1="405.9219" y2="405.9219"/><polygon fill="#181818" points="940.813,401.9219,930.813,405.9219,940.813,409.9219,936.813,405.9219" style="stroke:#181818;stroke-width:1;"/><text fill="#000000" font-family="sans-serif" font-size="13" font-weight="bold" lengthAdjust="spacing" textLength="29.9736" x="936.813" y="387.856">[10]</text><text fill="#000000" font-family="sans-serif" font-size="13" lengthAdjust="spacing" textLength="180.9844" x="970.7866" y="387.856">register device /dev/Demo2</text><polygon fill="#181818" points="457.2856,431.0547,447.2856,435.0547,457.2856,439.0547,453.2856,435.0547" style="stroke:#181818;stroke-width:1;"/><line style="stroke:#181818;stroke-width:1;stroke-dasharray:2.0,2.0;" x1="451.2856" x2="719.4648" y1="435.0547" y2="435.0547"/><text fill="#000000" font-family="sans-serif" font-size="13" font-weight="bold" lengthAdjust="spacing" textLength="29.9736" x="463.2856" y="429.9888">[11]</text><text fill="#000000" font-family="sans-serif" font-size="13" lengthAdjust="spacing" textLength="191.5596" x="497.2593" y="429.9888">event /dev/Demo2 registered</text><polygon fill="#181818" points="245.4531,460.1875,235.4531,464.1875,245.4531,468.1875,241.4531,464.1875" style="stroke:#181818;stroke-width:1;"/><line style="stroke:#181818;stroke-width:1;stroke-dasharray:2.0,2.0;" x1="239.4531" x2="435.2856" y1="464.1875" y2="464.1875"/><text fill="#000000" font-family="sans-serif" font-size="13" font-weight="bold" lengthAdjust="spacing" textLength="29.9736" x="251.4531" y="459.1216">[12]</text><text fill="#000000" font-family="sans-serif" font-size="13" lengthAdjust="spacing" textLength="121.4561" x="285.4268" y="459.1216">DemoApps started</text><!--SRC=[bPB1JiCm38RlUGghf-qmDdQSq2J498JKYKFXX3XadLSYkYGaJYVU7hTDmmhimAcf_y_sRoUag4QuCvgSgU514xg3B15cK91q1AKvMgDHanT21Z8w77Ve8BlPhLyMYzTC266PKwMoKXDaJ-YvH0RIGtySoroK4BPIoofInNPCv3Beycs4v3-Gnm8cx-WqrjDExyzZPeD7SsljTGSCFtyYotDaoVE8tZZCrcnk5VTmxqomCC7g2futnLGKsq77HjQXdShXH-3CAEKfjUfIOmClP4cgQNaUA-_GtlyAl9Kd_Mss3xV048f8Kc8RXpxK1ERGoqfNxVbodULG9rb9q_-dCkygJwEUf28u69T4pfNxJ_1yuS6B51svS5YfRjLxR1G_kZb_vwtyomWs_0JFz9IA-yv4l8jXoMrRHwnz0G00]--></g></svg>