<svg xmlns="http://www.w3.org/2000/svg" xmlns:xlink="http://www.w3.org/1999/xlink" contentStyleType="text/css" data-diagram-type="DESCRIPTION" height="645px" preserveAspectRatio="none" style="width:1320px;height:645px;background:#FFFFFF;" version="1.1" viewBox="0 0 1320 645" width="1320px" zoomAndPan="magnify"><title>Launch Manager Static Architecture</title><defs/><g><text fill="#000000" font-family="sans-serif" font-size="14" font-weight="bold" lengthAdjust="spacing" textLength="284.7646" x="510.8677" y="22.9951">Launch Manager Static Architecture</text><!--cluster <<executable>> Launch Manager--><g id="cluster_&lt;&lt;executable&gt;&gt; Launch Manager"><path d="M345,43.2969 L586.3584,43.2969 A3.75,3.75 0 0 1 588.8584,45.7969 L595.8584,65.5938 L1311,65.5938 A2.5,2.5 0 0 1 1313.5,68.0938 L1313.5,272.7969 A2.5,2.5 0 0 1 1311,275.2969 L345,275.2969 A2.5,2.5 0 0 1 342.5,272.7969 L342.5,45.7969 A2.5,2.5 0 0 1 345,43.2969 " fill="transparent" style="stroke:#000000;stroke-width:1.5;"/><line style="stroke:#000000;stroke-width:1.5;" x1="342.5" x2="595.8584" y1="65.5938" y2="65.5938"/><text fill="#000000" font-family="sans-serif" font-size="14" font-weight="bold" lengthAdjust="spacing" textLength="240.3584" x="346.5" y="58.292">&#171;executable&#187; Launch Manager</text></g><!--cluster <<executable>> Monitored Application (MA)--><g id="cluster_&lt;&lt;executable&gt;&gt; Monitored Application (MA)"><path d="M513,324.2969 L841.3594,324.2969 A3.75,3.75 0 0 1 843.8594,326.7969 L850.8594,346.5938 L913,346.5938 A2.5,2.5 0 0 1 915.5,349.0938 L915.5,558.2969 A2.5,2.5 0 0 1 913,560.7969 L513,560.7969 A2.5,2.5 0 0 1 510.5,558.2969 L510.5,326.7969 A2.5,2.5 0 0 1 513,324.2969 " fill="transparent" style="stroke:#000000;stroke-width:1.5;"/><line style="stroke:#000000;stroke-width:1.5;" x1="510.5" x2="850.8594" y1="346.5938" y2="346.5938"/><text fill="#000000" font-family="sans-serif" font-size="14" font-weight="bold" lengthAdjust="spacing" textLength="327.3594" x="514.5" y="339.292">&#171;executable&#187; Monitored Application (MA)</text></g><!--cluster <<executable>> State Manager--><g id="cluster_&lt;&lt;executable&gt;&gt; State Manager"><path d="M247,324.2969 L474.2012,324.2969 A3.75,3.75 0 0 1 476.7012,326.7969 L483.7012,346.5938 L484,346.5938 A2.5,2.5 0 0 1 486.5,349.0938 L486.5,418.7969 A2.5,2.5 0 0 1 484,421.2969 L247,421.2969 A2.5,2.5 0 0 1 244.5,418.7969 L244.5,326.7969 A2.5,2.5 0 0 1 247,324.2969 " fill="transparent" style="stroke:#000000;stroke-width:1.5;"/><line style="stroke:#000000;stroke-width:1.5;" x1="244.5" x2="483.7012" y1="346.5938" y2="346.5938"/><text fill="#000000" font-family="sans-serif" font-size="14" font-weight="bold" lengthAdjust="spacing" textLength="226.2012" x="248.5" y="339.292">&#171;executable&#187; State Manager</text></g><!--entity LM--><g id="elem_LM"><rect fill="#A9DCDF" height="46.2969" rx="2.5" ry="2.5" style="stroke:#181818;stroke-width:0.5;" width="156.5117" x="752" y="78.2969"/><rect fill="#A9DCDF" height="10" style="stroke:#181818;stroke-width:0.5;" width="15" x="888.5117" y="83.2969"/><rect fill="#A9DCDF" height="2" style="stroke:#181818;stroke-width:0.5;" width="4" x="886.5117" y="85.2969"/><rect fill="#A9DCDF" height="2" style="stroke:#181818;stroke-width:0.5;" width="4" x="886.5117" y="89.2969"/><text fill="#000000" font-family="sans-serif" font-size="14" lengthAdjust="spacing" textLength="116.5117" x="767" y="111.292">Launch Manager</text></g><!--entity AliveMonitoring--><g id="elem_AliveMonitoring"><ellipse cx="583.5" cy="230.2969" fill="#F1F1F1" rx="8" ry="8" style="stroke:#181818;stroke-width:0.5;"/><text fill="#000000" font-family="sans-serif" font-size="14" lengthAdjust="spacing" textLength="109.1221" x="528.939" y="260.292">AliveMonitoring</text></g><!--entity ConfigurationFiles--><g id="elem_ConfigurationFiles"><ellipse cx="751.5" cy="230.2969" fill="#F1F1F1" rx="8" ry="8" style="stroke:#181818;stroke-width:0.5;"/><text fill="#000000" font-family="sans-serif" font-size="14" lengthAdjust="spacing" textLength="126.6836" x="688.1582" y="260.292">ConfigurationFiles</text></g><!--entity HealthStatus--><g id="elem_HealthStatus"><ellipse cx="910.5" cy="230.2969" fill="#F1F1F1" rx="8" ry="8" style="stroke:#181818;stroke-width:0.5;"/><text fill="#000000" font-family="sans-serif" font-size="14" lengthAdjust="spacing" textLength="90.583" x="865.2085" y="260.292">HealthStatus</text></g><!--entity CommandLineArguments--><g id="elem_CommandLineArguments"><ellipse cx="1095.5" cy="230.2969" fill="#F1F1F1" rx="8" ry="8" style="stroke:#181818;stroke-width:0.5;"/><text fill="#000000" font-family="sans-serif" font-size="14" lengthAdjust="spacing" textLength="178.1309" x="1006.4346" y="260.292">CommandLineArguments</text></g><!--entity Logging--><g id="elem_Logging"><ellipse cx="1262.5" cy="230.2969" fill="#F1F1F1" rx="8" ry="8" style="stroke:#181818;stroke-width:0.5;"/><text fill="#000000" font-family="sans-serif" font-size="14" lengthAdjust="spacing" textLength="55.7881" x="1234.606" y="260.292">Logging</text></g><!--entity ControlInterface--><g id="elem_ControlInterface"><ellipse cx="422.5" cy="230.2969" fill="#F1F1F1" rx="8" ry="8" style="stroke:#181818;stroke-width:0.5;"/><text fill="#000000" font-family="sans-serif" font-size="14" lengthAdjust="spacing" textLength="113.5928" x="365.7036" y="260.292">ControlInterface</text></g><!--entity MA--><g id="elem_MA"><rect fill="#F1F1F1" height="46.2969" rx="2.5" ry="2.5" style="stroke:#181818;stroke-width:0.5;" width="155.6025" x="743.5" y="359.2969"/><rect fill="#F1F1F1" height="10" style="stroke:#181818;stroke-width:0.5;" width="15" x="879.1025" y="364.2969"/><rect fill="#F1F1F1" height="2" style="stroke:#181818;stroke-width:0.5;" width="4" x="877.1025" y="366.2969"/><rect fill="#F1F1F1" height="2" style="stroke:#181818;stroke-width:0.5;" width="4" x="877.1025" y="370.2969"/><text fill="#000000" font-family="sans-serif" font-size="14" lengthAdjust="spacing" textLength="115.6025" x="758.5" y="392.292">Application logic</text></g><!--entity HM--><g id="elem_HM"><rect fill="#A9DCDF" height="46.2969" rx="2.5" ry="2.5" style="stroke:#181818;stroke-width:0.5;" width="181.6201" x="526.5" y="359.2969"/><rect fill="#A9DCDF" height="10" style="stroke:#181818;stroke-width:0.5;" width="15" x="688.1201" y="364.2969"/><rect fill="#A9DCDF" height="2" style="stroke:#181818;stroke-width:0.5;" width="4" x="686.1201" y="366.2969"/><rect fill="#A9DCDF" height="2" style="stroke:#181818;stroke-width:0.5;" width="4" x="686.1201" y="370.2969"/><text fill="#000000" font-family="sans-serif" font-size="14" lengthAdjust="spacing" textLength="141.6201" x="541.5" y="392.292">Health Monitor (HM)</text></g><!--entity HealthMonitorAPI--><g id="elem_HealthMonitorAPI"><ellipse cx="697.5" cy="515.7969" fill="#F1F1F1" rx="8" ry="8" style="stroke:#181818;stroke-width:0.5;"/><text fill="#000000" font-family="sans-serif" font-size="14" lengthAdjust="spacing" textLength="121.3379" x="636.8311" y="545.792">HealthMonitorAPI</text></g><!--entity SM--><g id="elem_SM"><rect fill="#F1F1F1" height="46.2969" rx="2.5" ry="2.5" style="stroke:#181818;stroke-width:0.5;" width="142.874" x="295" y="359.2969"/><rect fill="#F1F1F1" height="10" style="stroke:#181818;stroke-width:0.5;" width="15" x="417.874" y="364.2969"/><rect fill="#F1F1F1" height="2" style="stroke:#181818;stroke-width:0.5;" width="4" x="415.874" y="366.2969"/><rect fill="#F1F1F1" height="2" style="stroke:#181818;stroke-width:0.5;" width="4" x="415.874" y="370.2969"/><text fill="#000000" font-family="sans-serif" font-size="14" lengthAdjust="spacing" textLength="102.874" x="310" y="392.292">State Manager</text></g><g id="elem_GMN28"><path d="M6,354.7969 L6,410.1953 A0,0 0 0 0 6,410.1953 L228.8301,410.1953 A0,0 0 0 0 228.8301,410.1953 L228.8301,386.2969 L294.98,382.2969 L228.8301,378.2969 L228.8301,364.7969 L218.8301,354.7969 L6,354.7969 A0,0 0 0 0 6,354.7969 " fill="#FEFFDD" style="stroke:#181818;stroke-width:0.5;"/><path d="M218.8301,354.7969 L218.8301,364.7969 L228.8301,364.7969 L218.8301,354.7969 " fill="#FEFFDD" style="stroke:#181818;stroke-width:0.5;"/><text fill="#000000" font-family="sans-serif" font-size="13" lengthAdjust="spacing" textLength="201.8301" x="12" y="371.8638">Start/Stop/Restart components</text><text fill="#000000" font-family="sans-serif" font-size="13" lengthAdjust="spacing" textLength="83.5859" x="12" y="386.9966">Query status</text><text fill="#000000" font-family="sans-serif" font-size="13" lengthAdjust="spacing" textLength="12.397" x="12" y="402.1294">...</text></g><!--link LM to AliveMonitoring--><g id="link_LM_AliveMonitoring"><path d="M782.28,124.3369 C762.95,133.3669 740.54,144.0869 720.5,154.2969 C671.7,179.1669 619.8184,208.5082 597.9084,221.0382 " fill="transparent" id="LM-to-AliveMonitoring" style="stroke:#181818;stroke-width:1;"/><polygon fill="#181818" points="592.7,224.0169,602.4984,223.0212,597.0404,221.5347,598.5269,216.0766,592.7,224.0169" style="stroke:#181818;stroke-width:1;"/><text fill="#000000" font-family="sans-serif" font-size="13" lengthAdjust="spacing" textLength="55.8784" x="721.5" y="167.3638">provides</text></g><!--link LM to ConfigurationFiles--><g id="link_LM_ConfigurationFiles"><path d="M815.75,124.4469 C809.7,133.6269 802.69,144.4269 796.5,154.2969 C781.5,178.2269 767.5699,201.7981 759.4199,215.7281 " fill="transparent" id="LM-to-ConfigurationFiles" style="stroke:#181818;stroke-width:1;"/><polygon fill="#181818" points="756.39,220.9069,764.3874,215.1587,758.9149,216.5912,757.4824,211.1188,756.39,220.9069" style="stroke:#181818;stroke-width:1;"/><text fill="#000000" font-family="sans-serif" font-size="13" lengthAdjust="spacing" textLength="53.5615" x="797.5" y="167.3638">requires</text></g><!--link LM to CommandLineArguments--><g id="link_LM_CommandLineArguments"><path d="M876.66,124.4169 C941.02,155.2569 1048.0993,206.5838 1080.8793,222.2938 " fill="transparent" id="LM-to-CommandLineArguments" style="stroke:#181818;stroke-width:1;"/><polygon fill="#181818" points="1086.29,224.8869,1079.9027,217.3901,1081.7811,222.7259,1076.4452,224.6043,1086.29,224.8869" style="stroke:#181818;stroke-width:1;"/><text fill="#000000" font-family="sans-serif" font-size="13" lengthAdjust="spacing" textLength="53.5615" x="971.5" y="167.3638">requires</text></g><!--link LM to HealthStatus--><g id="link_LM_HealthStatus"><path d="M844.43,124.4169 C862.52,153.1269 890.0018,196.7503 902.1418,216.0203 " fill="transparent" id="LM-to-HealthStatus" style="stroke:#181818;stroke-width:1;"/><polygon fill="#181818" points="905.34,221.0969,903.9271,211.3499,902.6748,216.8664,897.1583,215.6142,905.34,221.0969" style="stroke:#181818;stroke-width:1;"/><text fill="#000000" font-family="sans-serif" font-size="13" lengthAdjust="spacing" textLength="55.8784" x="873.5" y="167.3638">provides</text></g><!--link LM to ControlInterface--><g id="link_LM_ControlInterface"><path d="M751.69,120.0769 C713.08,129.3169 666.06,141.3769 624.5,154.2969 C548.77,177.8369 465.4869,211.5395 437.1869,223.2095 " fill="transparent" id="LM-to-ControlInterface" style="stroke:#181818;stroke-width:1;"/><polygon fill="#181818" points="431.64,225.4969,441.4852,225.7638,436.2624,223.5907,438.4354,218.3679,431.64,225.4969" style="stroke:#181818;stroke-width:1;"/><text fill="#000000" font-family="sans-serif" font-size="13" lengthAdjust="spacing" textLength="55.8784" x="625.5" y="167.3638">provides</text></g><!--link LM to Logging--><g id="link_LM_Logging"><path d="M909.04,116.9169 C987.14,132.7969 1109.55,161.3569 1210.5,201.2969 C1226.14,207.4869 1237.9606,214.1078 1248.1206,220.3178 " fill="transparent" id="LM-to-Logging" style="stroke:#181818;stroke-width:1;"/><polygon fill="#181818" points="1253.24,223.4469,1247.6469,215.3403,1248.9738,220.8393,1243.4748,222.1662,1253.24,223.4469" style="stroke:#181818;stroke-width:1;"/><text fill="#000000" font-family="sans-serif" font-size="13" lengthAdjust="spacing" textLength="53.5615" x="1119.5" y="167.3638">requires</text></g><!--link HM to HealthMonitorAPI--><g id="link_HM_HealthMonitorAPI"><path d="M630.89,405.3069 C649.04,435.1369 671.2034,471.5798 683.2634,491.3998 " fill="transparent" id="HM-to-HealthMonitorAPI" style="stroke:#181818;stroke-width:1;"/><polygon fill="transparent" points="692.62,506.7769,688.3891,488.2809,678.1377,494.5187,692.62,506.7769" style="stroke:#181818;stroke-width:1;"/><text fill="#000000" font-family="sans-serif" font-size="13" lengthAdjust="spacing" textLength="76.9082" x="660.5" y="452.8638">implements</text></g><!--link MA to HealthMonitorAPI--><g id="link_MA_HealthMonitorAPI"><path d="M800.75,405.3069 C772.62,435.1369 727.8764,482.5916 709.1864,502.4116 " fill="transparent" id="MA-to-HealthMonitorAPI" style="stroke:#181818;stroke-width:1;"/><polygon fill="#181818" points="705.07,506.7769,714.1547,502.9732,708.5003,503.1392,708.3344,497.4847,705.07,506.7769" style="stroke:#181818;stroke-width:1;"/><text fill="#000000" font-family="sans-serif" font-size="13" lengthAdjust="spacing" textLength="29.7832" x="767.5" y="452.8638">uses</text></g><!--reverse link AliveMonitoring to HM--><g id="link_AliveMonitoring_HM"><path d="M586.6545,245.2089 C591.7245,267.6089 604.8,325.2869 612.5,359.2469 " fill="transparent" id="AliveMonitoring-backto-HM" style="stroke:#181818;stroke-width:1;"/><polygon fill="#181818" points="585.33,239.3569,583.4155,249.0179,586.4338,244.2335,591.2181,247.2518,585.33,239.3569" style="stroke:#181818;stroke-width:1;"/><text fill="#000000" font-family="sans-serif" font-size="13" lengthAdjust="spacing" textLength="75.7783" x="601.5" y="304.3638">connects to</text></g><!--reverse link ControlInterface to SM--><g id="link_ControlInterface_SM"><path d="M417.3921,244.9781 C409.0321,267.3781 387.41,325.2869 374.73,359.2469 " fill="transparent" id="ControlInterface-backto-SM" style="stroke:#181818;stroke-width:1;"/><polygon fill="#181818" points="419.49,239.3569,412.5956,246.3902,417.7417,244.0413,420.0906,249.1874,419.49,239.3569" style="stroke:#181818;stroke-width:1;"/><text fill="#000000" font-family="sans-serif" font-size="13" lengthAdjust="spacing" textLength="29.7832" x="401.5" y="304.3638">uses</text></g><rect fill="#DDDDDD" height="46.5938" id="_legend" rx="7.5" ry="7.5" style="stroke:#000000;stroke-width:1;" width="152.5156" x="1141.9844" y="578.7969"/><text fill="#000000" font-family="sans-serif" font-size="14" lengthAdjust="spacing" textLength="36.5518" x="1146.9844" y="598.792">Color</text><text fill="#000000" font-family="sans-serif" font-size="14" lengthAdjust="spacing" textLength="34.3369" x="1187.9863" y="598.792">Type</text><rect fill="#A9DCDF" height="16.2969" style="stroke:transparent;stroke-width:1;" width="36.5518" x="1146.9844" y="602.0938"/><text fill="#000000" font-family="sans-serif" font-size="14" lengthAdjust="spacing" textLength="4.4502" x="1146.9844" y="615.0889">&#160;</text><text fill="#000000" font-family="sans-serif" font-size="14" lengthAdjust="spacing" textLength="101.5137" x="1187.9863" y="615.0889">Part of feature</text><line style="stroke:#000000;stroke-width:1;" x1="1146.9844" x2="1289.5" y1="585.7969" y2="585.7969"/><line style="stroke:#000000;stroke-width:1;" x1="1146.9844" x2="1289.5" y1="602.0938" y2="602.0938"/><line style="stroke:#000000;stroke-width:1;" x1="1146.9844" x2="1289.5" y1="618.3906" y2="618.3906"/><line style="stroke:#000000;stroke-width:1;" x1="1146.9844" x2="1146.9844" y1="585.7969" y2="618.3906"/><line style="stroke:#000000;stroke-width:1;" x1="1183.5361" x2="1183.5361" y1="585.7969" y2="618.3906"/><line style="stroke:#000000;stroke-width:1;" x1="1289.5" x2="1289.5" y1="585.7969" y2="618.3906"/><!--SRC=[TLF1Rjim3BthAuZkqXwQdbS41eGKHGf4GBVijlQWARGYJ9OqcIfMpFltIRQp9dRYcyX7yZq-cWnPX8rCJkr1I2SrHjYI9AE0HxKtX8fIHCPOaEfdJiFLSec_KIMIFonMrQJu2lumoD_tq_0ho1Os0Zxnpm-hXySUOXnXhAL2uDQyeV3Ea8_6wKbsvLrjT8gPb7UFnc8x0QnHMjeNrgcTrJQDTBkDSSYZJWqwca8sNkkpGobw-tG8v0KKG9PmUrjD2SCzXEZVp6waDgBcn3CmugzauXGuPta1UgprujGJvkTHe-gZ8NylMpmgnHtm4AnHlI2u5lpclzt72UkrKRtZWW_PWVMX3rolnKsVNtzSn5bFnmB-_0G3O5tOTzKyVG-c2HO_31RyQ5ydmDJsQakh5CwQgRnp-UvR87zvASK3d9tzIRJNk1LbjTl3jAaz1qBC-LneiIRmTUuZNdCcTujqjoKVxhvYMnwPMnEyAp9Vt9U4yHtQ_XXUt6AnOCoYHhU3QFIUUaRTobiVE_Zs7X2w8RGSbrvry5nwve4rolAVTonN3ptOFm00]--></g></svg>