<svg xmlns="http://www.w3.org/2000/svg" xmlns:xlink="http://www.w3.org/1999/xlink" contentStyleType="text/css" data-diagram-type="CLASS" height="661px" preserveAspectRatio="none" style="width:530px;height:661px;background:#FFFFFF;" version="1.1" viewBox="0 0 530 661" width="530px" zoomAndPan="magnify"><defs/><g><!--cluster mod_view_sta__lifecycle__1--><a href="../features/lifecycle/index.html#mod_view_sta__lifecycle__1" target="_top" title="../features/lifecycle/index.html#mod_view_sta__lifecycle__1" xlink:actuate="onRequest" xlink:href="../features/lifecycle/index.html#mod_view_sta__lifecycle__1" xlink:show="new" xlink:title="../features/lifecycle/index.html#mod_view_sta__lifecycle__1" xlink:type="simple"><path d="M105.5,261.5 L175.8232,261.5 A3.75,3.75 0 0 1 178.3232,264 L185.3232,283.7969 L469.5,283.7969 A2.5,2.5 0 0 1 472,286.2969 L472,373 A2.5,2.5 0 0 1 469.5,375.5 L105.5,375.5 A2.5,2.5 0 0 1 103,373 L103,264 A2.5,2.5 0 0 1 105.5,261.5 " fill="transparent" style="stroke:#000000;stroke-width:1.5;"/><line style="stroke:#000000;stroke-width:1.5;" x1="103" x2="185.3232" y1="283.7969" y2="283.7969"/><text fill="#000000" font-family="sans-serif" font-size="14" font-weight="bold" lengthAdjust="spacing" textLength="69.3232" x="107" y="276.4951">Lifecycle</text></a><!--cluster mod_view_sta__logging__logging--><a href="../features/communication/modules/logging/index.html#mod_view_sta__logging__logging" target="_top" title="../features/communication/modules/logging/index.html#mod_view_sta__logging__logging" xlink:actuate="onRequest" xlink:href="../features/communication/modules/logging/index.html#mod_view_sta__logging__logging" xlink:show="new" xlink:title="../features/communication/modules/logging/index.html#mod_view_sta__logging__logging" xlink:type="simple"><path d="M315.5,557.5 L379.8691,557.5 A3.75,3.75 0 0 1 382.3691,560 L389.3691,579.7969 L438.5,579.7969 A2.5,2.5 0 0 1 441,582.2969 L441,652 A2.5,2.5 0 0 1 438.5,654.5 L315.5,654.5 A2.5,2.5 0 0 1 313,652 L313,560 A2.5,2.5 0 0 1 315.5,557.5 " fill="transparent" style="stroke:#000000;stroke-width:1.5;"/><line style="stroke:#000000;stroke-width:1.5;" x1="313" x2="389.3691" y1="579.7969" y2="579.7969"/><text fill="#000000" font-family="sans-serif" font-size="14" font-weight="bold" lengthAdjust="spacing" textLength="63.3691" x="317" y="572.4951">Logging</text></a><!--entity comp_arc_sta__lifecycle__launch_manager--><a href="../features/lifecycle/architecture/launch_manager.html#comp_arc_sta__lifecycle__launch_manager" target="_top" title="../features/lifecycle/architecture/launch_manager.html#comp_arc_sta__lifecycle__launch_manager" xlink:actuate="onRequest" xlink:href="../features/lifecycle/architecture/launch_manager.html#comp_arc_sta__lifecycle__launch_manager" xlink:show="new" xlink:title="../features/lifecycle/architecture/launch_manager.html#comp_arc_sta__lifecycle__launch_manager" xlink:type="simple"><rect fill="#F1F1F1" height="46.2969" rx="2.5" ry="2.5" style="stroke:#0000FF;stroke-width:2;" width="156.5117" x="298.5" y="305"/><rect fill="#F1F1F1" height="10" style="stroke:#0000FF;stroke-width:2;" width="15" x="435.0117" y="310"/><rect fill="#F1F1F1" height="2" style="stroke:#0000FF;stroke-width:2;" width="4" x="433.0117" y="312"/><rect fill="#F1F1F1" height="2" style="stroke:#0000FF;stroke-width:2;" width="4" x="433.0117" y="316"/><text fill="#000000" font-family="sans-serif" font-size="14" lengthAdjust="spacing" textLength="116.5117" x="313.5" y="337.9951">Launch Manager</text></a><!--entity comp_arc_sta__lifecycle__healthmonitor--><a href="../features/lifecycle/architecture/application_health_monitor.html#comp_arc_sta__lifecycle__healthmonitor" target="_top" title="../features/lifecycle/architecture/application_health_monitor.html#comp_arc_sta__lifecycle__healthmonitor" xlink:actuate="onRequest" xlink:href="../features/lifecycle/architecture/application_health_monitor.html#comp_arc_sta__lifecycle__healthmonitor" xlink:show="new" xlink:title="../features/lifecycle/architecture/application_health_monitor.html#comp_arc_sta__lifecycle__healthmonitor" xlink:type="simple"><rect fill="#F1F1F1" height="62.5938" rx="2.5" ry="2.5" style="stroke:#0000FF;stroke-width:2;" width="143.6396" x="119" y="296.5"/><rect fill="#F1F1F1" height="10" style="stroke:#0000FF;stroke-width:2;" width="15" x="242.6396" y="301.5"/><rect fill="#F1F1F1" height="2" style="stroke:#0000FF;stroke-width:2;" width="4" x="240.6396" y="303.5"/><rect fill="#F1F1F1" height="2" style="stroke:#0000FF;stroke-width:2;" width="4" x="240.6396" y="307.5"/><text fill="#000000" font-family="sans-serif" font-size="14" lengthAdjust="spacing" textLength="80.2334" x="134" y="329.4951">&lt;&lt;library&gt;</text><text fill="#000000" font-family="sans-serif" font-size="14" lengthAdjust="spacing" textLength="103.6396" x="134" y="345.792">Health Monitor</text></a><!--entity comp_arc_sta__logging__logging--><a href="../features/communication/modules/logging/index.html#comp_arc_sta__logging__logging" target="_top" title="../features/communication/modules/logging/index.html#comp_arc_sta__logging__logging" xlink:actuate="onRequest" xlink:href="../features/communication/modules/logging/index.html#comp_arc_sta__logging__logging" xlink:show="new" xlink:title="../features/communication/modules/logging/index.html#comp_arc_sta__logging__logging" xlink:type="simple"><rect fill="#F1F1F1" height="46.2969" rx="2.5" ry="2.5" style="stroke:#0000FF;stroke-width:2;" width="95.7881" x="329" y="592.5"/><rect fill="#F1F1F1" height="10" style="stroke:#0000FF;stroke-width:2;" width="15" x="404.7881" y="597.5"/><rect fill="#F1F1F1" height="2" style="stroke:#0000FF;stroke-width:2;" width="4" x="402.7881" y="599.5"/><rect fill="#F1F1F1" height="2" style="stroke:#0000FF;stroke-width:2;" width="4" x="402.7881" y="603.5"/><text fill="#000000" font-family="sans-serif" font-size="14" lengthAdjust="spacing" textLength="55.7881" x="344" y="625.4951">Logging</text></a><!--entity Feature_User--><g id="elem_Feature_User"><ellipse cx="271.1685" cy="14" fill="#F1F1F1" rx="8" ry="8" style="stroke:#181818;stroke-width:0.5;"/><path d="M271.1685,22 L271.1685,49 M258.1685,30 L284.1685,30 M271.1685,49 L258.1685,64 M271.1685,49 L284.1685,64 " fill="transparent" style="stroke:#181818;stroke-width:0.5;"/><text fill="#000000" font-family="sans-serif" font-size="14" lengthAdjust="spacing" textLength="90.3369" x="226" y="78.4951">Feature User</text></g><!--class logic_arc_int__lifecycle__alive_if--><a href="../features/lifecycle/architecture/launch_manager.html#logic_arc_int__lifecycle__alive_if" target="_top" title="../features/lifecycle/architecture/launch_manager.html#logic_arc_int__lifecycle__alive_if" xlink:actuate="onRequest" xlink:href="../features/lifecycle/architecture/launch_manager.html#logic_arc_int__lifecycle__alive_if" xlink:show="new" xlink:title="../features/lifecycle/architecture/launch_manager.html#logic_arc_int__lifecycle__alive_if" xlink:type="simple"><g id="elem_logic_arc_int__lifecycle__alive_if"><rect codeLine="14" fill="#F1F1F1" height="40" id="logic_arc_int__lifecycle__alive_if" rx="2.5" ry="2.5" style="stroke:#181818;stroke-width:0.5;" width="133.3838" x="204.5" y="158.5"/><ellipse cx="219.5" cy="174.5" fill="#B4A7E5" rx="11" ry="11" style="stroke:#181818;stroke-width:1;"/><path d="M215.4219,170.2656 L215.4219,168.1094 L222.8125,168.1094 L222.8125,170.2656 L220.3438,170.2656 L220.3438,178.3438 L222.8125,178.3438 L222.8125,180.5 L215.4219,180.5 L215.4219,178.3438 L217.8906,178.3438 L217.8906,170.2656 L215.4219,170.2656 Z " fill="#000000"/><text fill="#000000" font-family="sans-serif" font-size="14" font-style="italic" lengthAdjust="spacing" textLength="101.3838" x="233.5" y="179.3467">Alive Interface</text><line style="stroke:#181818;stroke-width:0.5;" x1="205.5" x2="336.8838" y1="190.5" y2="190.5"/></g></a><!--class logic_arc_int__lifecycle__controlif--><a href="../features/lifecycle/architecture/control_interface.html#logic_arc_int__lifecycle__controlif" target="_top" title="../features/lifecycle/architecture/control_interface.html#logic_arc_int__lifecycle__controlif" xlink:actuate="onRequest" xlink:href="../features/lifecycle/architecture/control_interface.html#logic_arc_int__lifecycle__controlif" xlink:show="new" xlink:title="../features/lifecycle/architecture/control_interface.html#logic_arc_int__lifecycle__controlif" xlink:type="simple"><g id="elem_logic_arc_int__lifecycle__controlif"><rect codeLine="19" fill="#F1F1F1" height="40" id="logic_arc_int__lifecycle__controlif" rx="2.5" ry="2.5" style="stroke:#181818;stroke-width:0.5;" width="150.043" x="373" y="158.5"/><ellipse cx="388" cy="174.5" fill="#B4A7E5" rx="11" ry="11" style="stroke:#181818;stroke-width:1;"/><path d="M383.9219,170.2656 L383.9219,168.1094 L391.3125,168.1094 L391.3125,170.2656 L388.8438,170.2656 L388.8438,178.3438 L391.3125,178.3438 L391.3125,180.5 L383.9219,180.5 L383.9219,178.3438 L386.3906,178.3438 L386.3906,170.2656 L383.9219,170.2656 Z " fill="#000000"/><text fill="#000000" font-family="sans-serif" font-size="14" font-style="italic" lengthAdjust="spacing" textLength="118.043" x="402" y="179.3467">Control Interface</text><line style="stroke:#181818;stroke-width:0.5;" x1="374" x2="522.043" y1="190.5" y2="190.5"/></g></a><!--class logic_arc_int__lifecycle__health_monitor_if--><a href="../features/lifecycle/architecture/application_health_monitor.html#logic_arc_int__lifecycle__health_monitor_if" target="_top" title="../features/lifecycle/architecture/application_health_monitor.html#logic_arc_int__lifecycle__health_monitor_if" xlink:actuate="onRequest" xlink:href="../features/lifecycle/architecture/application_health_monitor.html#logic_arc_int__lifecycle__health_monitor_if" xlink:show="new" xlink:title="../features/lifecycle/architecture/application_health_monitor.html#logic_arc_int__lifecycle__health_monitor_if" xlink:type="simple"><g id="elem_logic_arc_int__lifecycle__health_monitor_if"><rect codeLine="24" fill="#F1F1F1" height="40" id="logic_arc_int__lifecycle__health_monitor_if" rx="2.5" ry="2.5" style="stroke:#181818;stroke-width:0.5;" width="162.2383" x="7" y="158.5"/><ellipse cx="22" cy="174.5" fill="#B4A7E5" rx="11" ry="11" style="stroke:#181818;stroke-width:1;"/><path d="M17.9219,170.2656 L17.9219,168.1094 L25.3125,168.1094 L25.3125,170.2656 L22.8438,170.2656 L22.8438,178.3438 L25.3125,178.3438 L25.3125,180.5 L17.9219,180.5 L17.9219,178.3438 L20.3906,178.3438 L20.3906,170.2656 L17.9219,170.2656 Z " fill="#000000"/><text fill="#000000" font-family="sans-serif" font-size="14" font-style="italic" lengthAdjust="spacing" textLength="130.2383" x="36" y="179.3467">Health Monitor API</text><line style="stroke:#181818;stroke-width:0.5;" x1="8" x2="168.2383" y1="190.5" y2="190.5"/></g></a><!--class logic_arc_int__logging__logging--><a href="../features/communication/modules/logging/index.html#logic_arc_int__logging__logging" target="_top" title="../features/communication/modules/logging/index.html#logic_arc_int__logging__logging" xlink:actuate="onRequest" xlink:href="../features/communication/modules/logging/index.html#logic_arc_int__logging__logging" xlink:show="new" xlink:title="../features/communication/modules/logging/index.html#logic_arc_int__logging__logging" xlink:type="simple"><g id="elem_logic_arc_int__logging__logging"><rect codeLine="44" fill="#F1F1F1" height="56.2969" id="logic_arc_int__logging__logging" rx="2.5" ry="2.5" style="stroke:#181818;stroke-width:0.5;" width="87.7881" x="333" y="438.5"/><ellipse cx="348" cy="454.5" fill="#B4A7E5" rx="11" ry="11" style="stroke:#181818;stroke-width:1;"/><path d="M343.9219,450.2656 L343.9219,448.1094 L351.3125,448.1094 L351.3125,450.2656 L348.8438,450.2656 L348.8438,458.3438 L351.3125,458.3438 L351.3125,460.5 L343.9219,460.5 L343.9219,458.3438 L346.3906,458.3438 L346.3906,450.2656 L343.9219,450.2656 Z " fill="#000000"/><text fill="#000000" font-family="sans-serif" font-size="14" font-style="italic" lengthAdjust="spacing" textLength="55.7881" x="362" y="459.3467">Logging</text><line style="stroke:#181818;stroke-width:0.5;" x1="334" x2="419.7881" y1="470.5" y2="470.5"/></g><a href="../features/communication/modules/logging/index.html#logic_arc_int_op__logging__isenabled" target="_top" title="../features/communication/modules/logging/index.html#logic_arc_int_op__logging__isenabled" xlink:actuate="onRequest" xlink:href="../features/communication/modules/logging/index.html#logic_arc_int_op__logging__isenabled" xlink:show="new" xlink:title="../features/communication/modules/logging/index.html#logic_arc_int_op__logging__isenabled" xlink:type="simple"><rect fill="#F1F1F1" height="10" style="stroke:transparent;stroke-width:1;" width="20" x="339" y="479.1484"/><ellipse cx="344" cy="484.1484" fill="#84BE84" rx="3" ry="3" style="stroke:#038048;stroke-width:1;"/></a></a><a href="../features/communication/modules/logging/index.html#logic_arc_int_op__logging__isenabled" target="_top" title="../features/communication/modules/logging/index.html#logic_arc_int_op__logging__isenabled" xlink:actuate="onRequest" xlink:href="../features/communication/modules/logging/index.html#logic_arc_int_op__logging__isenabled" xlink:show="new" xlink:title="../features/communication/modules/logging/index.html#logic_arc_int_op__logging__isenabled" xlink:type="simple"><text fill="#000000" font-family="sans-serif" font-size="14" lengthAdjust="spacing" textLength="40.626" x="353" y="487.4951">Log ()</text></a><!--reverse link logic_arc_int__lifecycle__controlif to comp_arc_sta__lifecycle__launch_manager--><g id="link_logic_arc_int__lifecycle__controlif_comp_arc_sta__lifecycle__launch_manager"><path codeLine="51" d="M436.1169,204.1859 C422.9569,231.5159 401.55,275.99 387.68,304.82 " fill="transparent" id="logic_arc_int__lifecycle__controlif-backto-comp_arc_sta__lifecycle__launch_manager" style="stroke:#181818;stroke-width:1;"/><polygon fill="#181818" points="438.72,198.78,431.2114,205.1535,436.5508,203.2849,438.4193,208.6243,438.72,198.78" style="stroke:#181818;stroke-width:1;"/><text fill="#000000" font-family="sans-serif" font-size="13" lengthAdjust="spacing" textLength="76.9082" x="424" y="241.5669">implements</text></g><!--link comp_arc_sta__lifecycle__healthmonitor to logic_arc_int__lifecycle__alive_if--><g id="link_comp_arc_sta__lifecycle__healthmonitor_logic_arc_int__lifecycle__alive_if"><path codeLine="52" d="M207.59,296.42 C223.51,267.06 244.2098,228.8944 257.6798,204.0544 " fill="transparent" id="comp_arc_sta__lifecycle__healthmonitor-to-logic_arc_int__lifecycle__alive_if" style="stroke:#008000;stroke-width:1;"/><polygon fill="#008000" points="260.54,198.78,252.7335,204.7849,258.1565,203.1753,259.766,208.5984,260.54,198.78" style="stroke:#008000;stroke-width:1;"/><text fill="#000000" font-family="sans-serif" font-size="13" lengthAdjust="spacing" textLength="29.7832" x="244" y="241.5669">uses</text></g><!--link comp_arc_sta__lifecycle__launch_manager to logic_arc_int__logging__logging--><g id="link_comp_arc_sta__lifecycle__launch_manager_logic_arc_int__logging__logging"><path codeLine="53" d="M377,351.23 C377,374.96 377,406.56 377,432.09 " fill="transparent" id="comp_arc_sta__lifecycle__launch_manager-to-logic_arc_int__logging__logging" style="stroke:#008000;stroke-width:1;"/><polygon fill="#008000" points="377,438.09,381,429.09,377,433.09,373,429.09,377,438.09" style="stroke:#008000;stroke-width:1;"/><text fill="#000000" font-family="sans-serif" font-size="13" lengthAdjust="spacing" textLength="29.7832" x="378" y="404.5669">uses</text></g><!--link Feature_User to logic_arc_int__lifecycle__alive_if--><g id="link_Feature_User_logic_arc_int__lifecycle__alive_if"><path codeLine="54" d="M271,81.55 C271,106.45 271,132.26 271,152.26 " fill="transparent" id="Feature_User-to-logic_arc_int__lifecycle__alive_if" style="stroke:#181818;stroke-width:1;"/><polygon fill="#181818" points="271,158.26,275,149.26,271,153.26,267,149.26,271,158.26" style="stroke:#181818;stroke-width:1;"/><text fill="#000000" font-family="sans-serif" font-size="13" lengthAdjust="spacing" textLength="23.0103" x="272" y="124.5669">use</text></g><!--reverse link logic_arc_int__lifecycle__alive_if to comp_arc_sta__lifecycle__launch_manager--><g id="link_logic_arc_int__lifecycle__alive_if_comp_arc_sta__lifecycle__launch_manager"><path codeLine="55" d="M288.3614,203.6524 C308.0014,230.9824 340.35,275.99 361.06,304.82 " fill="transparent" id="logic_arc_int__lifecycle__alive_if-backto-comp_arc_sta__lifecycle__launch_manager" style="stroke:#181818;stroke-width:1;"/><polygon fill="#181818" points="284.86,198.78,286.8639,208.4228,287.7778,202.8403,293.3604,203.7543,284.86,198.78" style="stroke:#181818;stroke-width:1;"/><text fill="#000000" font-family="sans-serif" font-size="13" lengthAdjust="spacing" textLength="76.9082" x="319" y="241.5669">implements</text></g><!--link Feature_User to logic_arc_int__lifecycle__controlif--><g id="link_Feature_User_logic_arc_int__lifecycle__controlif"><path codeLine="56" d="M316.12,78.41 C349.92,103.8 390.1435,134.0253 417.8735,154.8653 " fill="transparent" id="Feature_User-to-logic_arc_int__lifecycle__controlif" style="stroke:#181818;stroke-width:1;"/><polygon fill="#181818" points="422.67,158.47,417.8784,149.8653,418.6729,155.4661,413.0722,156.2606,422.67,158.47" style="stroke:#181818;stroke-width:1;"/><text fill="#000000" font-family="sans-serif" font-size="13" lengthAdjust="spacing" textLength="23.0103" x="381" y="124.5669">use</text></g><!--reverse link logic_arc_int__logging__logging to comp_arc_sta__logging__logging--><g id="link_logic_arc_int__logging__logging_comp_arc_sta__logging__logging"><path codeLine="57" d="M377,500.81 C377,528.87 377,566.04 377,592.15 " fill="transparent" id="logic_arc_int__logging__logging-backto-comp_arc_sta__logging__logging" style="stroke:#181818;stroke-width:1;"/><polygon fill="#181818" points="377,494.81,373,503.81,377,499.81,381,503.81,377,494.81" style="stroke:#181818;stroke-width:1;"/><text fill="#000000" font-family="sans-serif" font-size="13" lengthAdjust="spacing" textLength="76.9082" x="378" y="537.5669">implements</text></g><!--link Feature_User to logic_arc_int__lifecycle__health_monitor_if--><g id="link_Feature_User_logic_arc_int__lifecycle__health_monitor_if"><path codeLine="58" d="M225.76,77.38 C190.73,102.84 148.2739,133.6931 119.1939,154.8231 " fill="transparent" id="Feature_User-to-logic_arc_int__lifecycle__health_monitor_if" style="stroke:#181818;stroke-width:1;"/><polygon fill="#181818" points="114.34,158.35,123.9722,156.2955,118.3849,155.4109,119.2696,149.8236,114.34,158.35" style="stroke:#181818;stroke-width:1;"/><text fill="#000000" font-family="sans-serif" font-size="13" lengthAdjust="spacing" textLength="23.0103" x="176" y="124.5669">use</text></g><!--reverse link logic_arc_int__lifecycle__health_monitor_if to comp_arc_sta__lifecycle__healthmonitor--><g id="link_logic_arc_int__lifecycle__health_monitor_if_comp_arc_sta__lifecycle__healthmonitor"><path codeLine="59" d="M104.9044,203.6999 C122.2444,228.5399 149.14,267.06 169.65,296.42 " fill="transparent" id="logic_arc_int__lifecycle__health_monitor_if-backto-comp_arc_sta__lifecycle__healthmonitor" style="stroke:#181818;stroke-width:1;"/><polygon fill="#181818" points="101.47,198.78,103.3417,208.4494,104.332,202.8799,109.9015,203.8702,101.47,198.78" style="stroke:#181818;stroke-width:1;"/><text fill="#000000" font-family="sans-serif" font-size="13" lengthAdjust="spacing" textLength="76.9082" x="135" y="241.5669">implements</text></g><!--SRC=[hLRFQzim5BxhhtYaXswCnDkEnGHAOQpGmWxRAGj2aLzYKLaobjmsZFxlawqaLUGaTafkiVpqlX_linGcfNwXXNWLQaMiBi5gM6XhTG6Pg91ReHN9HOPWB5QexRf4_un5QTV0hAt4ehPeI6hiMkAKJ9WHSW7_o8DGUAUbhc0XQsmVV-U2Foaq1hvFlf8taYQRJOHnwmf7Fv3PkaBuOx0Q0JEmMQ3D0X2X78ibumYZMocU4Uwt2ssnr2l1AQiuTOMKIh54lkOIAMLDDHLBWDbiCacMlgj9TYM9svKBwnIxzKIoMl6S5aon5LQJt1Rogh_vVEvK4_86oJL4zE0w0HBIlzFALbeE5i1z_M05ctgwW-mJiGC8LNHOTdJyH2Pj3ezQYMQ0jx_kUuJaxGPQ-0t3HyBAKWhEca16FVgKTH13XLt-NcB9-9ERFOmUjerQNONEwBF05seismFvTbo6K1c-UfB7jpjEZXJNHQaLAkjmsmZ2euzW2zwyRHN6k_VZ2cdQVeBJwSV3FX3AiswDtEVhJGpafAaKYufLw-bVjU_vQMb-U9lPdQkiBpF3K0EHnrLumTw9RPyuINgrSiVieHpvDxiVSPOSpw9M6oM9srlBHhGlFf6lg6qtOm6Zo8kOqJ7d1rCxtJyCqWOnC3HS2SwUa7xy-L_AqPw-_YZvqb24JvyTo2LGT1a02OEABIHcy_dya1zawAamhiVJ8HVC3OYYb5YuX1WW0p_CSJQxMbM8QduIP7jJta1jy5JtcFkfzj58jhtt_ZcCi-6yu5AMldSD7Js7Lp2KGyJYa1_aqx7desGwzsYVMr54wdExXqJ_0m00]--></g></svg>