<svg xmlns="http://www.w3.org/2000/svg" xmlns:xlink="http://www.w3.org/1999/xlink" contentStyleType="text/css" data-diagram-type="CLASS" height="510px" preserveAspectRatio="none" style="width:530px;height:510px;background:#FFFFFF;" version="1.1" viewBox="0 0 530 510" width="530px" zoomAndPan="magnify"><defs/><g><!--cluster mod_view_sta__lifecycle__1--><a href="../features/lifecycle/index.html#mod_view_sta__lifecycle__1" target="_top" title="../features/lifecycle/index.html#mod_view_sta__lifecycle__1" xlink:actuate="onRequest" xlink:href="../features/lifecycle/index.html#mod_view_sta__lifecycle__1" xlink:show="new" xlink:title="../features/lifecycle/index.html#mod_view_sta__lifecycle__1" xlink:type="simple"><path d="M89.5,110 L159.8232,110 A3.75,3.75 0 0 1 162.3232,112.5 L169.3232,132.2969 L453.5,132.2969 A2.5,2.5 0 0 1 456,134.7969 L456,221.5 A2.5,2.5 0 0 1 453.5,224 L89.5,224 A2.5,2.5 0 0 1 87,221.5 L87,112.5 A2.5,2.5 0 0 1 89.5,110 " fill="transparent" style="stroke:#000000;stroke-width:1.5;"/><line style="stroke:#000000;stroke-width:1.5;" x1="87" x2="169.3232" y1="132.2969" y2="132.2969"/><text fill="#000000" font-family="sans-serif" font-size="14" font-weight="bold" lengthAdjust="spacing" textLength="69.3232" x="91" y="124.9951">Lifecycle</text></a><!--cluster mod_view_sta__logging__logging--><a href="../features/communication/modules/logging/index.html#mod_view_sta__logging__logging" target="_top" title="../features/communication/modules/logging/index.html#mod_view_sta__logging__logging" xlink:actuate="onRequest" xlink:href="../features/communication/modules/logging/index.html#mod_view_sta__logging__logging" xlink:show="new" xlink:title="../features/communication/modules/logging/index.html#mod_view_sta__logging__logging" xlink:type="simple"><path d="M299.5,406 L363.8691,406 A3.75,3.75 0 0 1 366.3691,408.5 L373.3691,428.2969 L422.5,428.2969 A2.5,2.5 0 0 1 425,430.7969 L425,500.5 A2.5,2.5 0 0 1 422.5,503 L299.5,503 A2.5,2.5 0 0 1 297,500.5 L297,408.5 A2.5,2.5 0 0 1 299.5,406 " fill="transparent" style="stroke:#000000;stroke-width:1.5;"/><line style="stroke:#000000;stroke-width:1.5;" x1="297" x2="373.3691" y1="428.2969" y2="428.2969"/><text fill="#000000" font-family="sans-serif" font-size="14" font-weight="bold" lengthAdjust="spacing" textLength="63.3691" x="301" y="420.9951">Logging</text></a><!--entity comp_arc_sta__lifecycle__launch_manager--><a href="../features/lifecycle/architecture/launch_manager.html#comp_arc_sta__lifecycle__launch_manager" target="_top" title="../features/lifecycle/architecture/launch_manager.html#comp_arc_sta__lifecycle__launch_manager" xlink:actuate="onRequest" xlink:href="../features/lifecycle/architecture/launch_manager.html#comp_arc_sta__lifecycle__launch_manager" xlink:show="new" xlink:title="../features/lifecycle/architecture/launch_manager.html#comp_arc_sta__lifecycle__launch_manager" xlink:type="simple"><rect fill="#F1F1F1" height="46.2969" rx="2.5" ry="2.5" style="stroke:#0000FF;stroke-width:2;" width="156.5117" x="282.5" y="153.5"/><rect fill="#F1F1F1" height="10" style="stroke:#0000FF;stroke-width:2;" width="15" x="419.0117" y="158.5"/><rect fill="#F1F1F1" height="2" style="stroke:#0000FF;stroke-width:2;" width="4" x="417.0117" y="160.5"/><rect fill="#F1F1F1" height="2" style="stroke:#0000FF;stroke-width:2;" width="4" x="417.0117" y="164.5"/><text fill="#000000" font-family="sans-serif" font-size="14" lengthAdjust="spacing" textLength="116.5117" x="297.5" y="186.4951">Launch Manager</text></a><!--entity comp_arc_sta__lifecycle__healthmonitor--><a href="../features/lifecycle/architecture/application_health_monitor.html#comp_arc_sta__lifecycle__healthmonitor" target="_top" title="../features/lifecycle/architecture/application_health_monitor.html#comp_arc_sta__lifecycle__healthmonitor" xlink:actuate="onRequest" xlink:href="../features/lifecycle/architecture/application_health_monitor.html#comp_arc_sta__lifecycle__healthmonitor" xlink:show="new" xlink:title="../features/lifecycle/architecture/application_health_monitor.html#comp_arc_sta__lifecycle__healthmonitor" xlink:type="simple"><rect fill="#F1F1F1" height="62.5938" rx="2.5" ry="2.5" style="stroke:#0000FF;stroke-width:2;" width="143.6396" x="103" y="145"/><rect fill="#F1F1F1" height="10" style="stroke:#0000FF;stroke-width:2;" width="15" x="226.6396" y="150"/><rect fill="#F1F1F1" height="2" style="stroke:#0000FF;stroke-width:2;" width="4" x="224.6396" y="152"/><rect fill="#F1F1F1" height="2" style="stroke:#0000FF;stroke-width:2;" width="4" x="224.6396" y="156"/><text fill="#000000" font-family="sans-serif" font-size="14" lengthAdjust="spacing" textLength="80.2334" x="118" y="177.9951">&lt;&lt;library&gt;</text><text fill="#000000" font-family="sans-serif" font-size="14" lengthAdjust="spacing" textLength="103.6396" x="118" y="194.292">Health Monitor</text></a><!--entity comp_arc_sta__logging__logging--><a href="../features/communication/modules/logging/index.html#comp_arc_sta__logging__logging" target="_top" title="../features/communication/modules/logging/index.html#comp_arc_sta__logging__logging" xlink:actuate="onRequest" xlink:href="../features/communication/modules/logging/index.html#comp_arc_sta__logging__logging" xlink:show="new" xlink:title="../features/communication/modules/logging/index.html#comp_arc_sta__logging__logging" xlink:type="simple"><rect fill="#F1F1F1" height="46.2969" rx="2.5" ry="2.5" style="stroke:#0000FF;stroke-width:2;" width="95.7881" x="313" y="441"/><rect fill="#F1F1F1" height="10" style="stroke:#0000FF;stroke-width:2;" width="15" x="388.7881" y="446"/><rect fill="#F1F1F1" height="2" style="stroke:#0000FF;stroke-width:2;" width="4" x="386.7881" y="448"/><rect fill="#F1F1F1" height="2" style="stroke:#0000FF;stroke-width:2;" width="4" x="386.7881" y="452"/><text fill="#000000" font-family="sans-serif" font-size="14" lengthAdjust="spacing" textLength="55.7881" x="328" y="473.9951">Logging</text></a><!--class logic_arc_int__lifecycle__alive_if--><a href="../features/lifecycle/architecture/launch_manager.html#logic_arc_int__lifecycle__alive_if" target="_top" title="../features/lifecycle/architecture/launch_manager.html#logic_arc_int__lifecycle__alive_if" xlink:actuate="onRequest" xlink:href="../features/lifecycle/architecture/launch_manager.html#logic_arc_int__lifecycle__alive_if" xlink:show="new" xlink:title="../features/lifecycle/architecture/launch_manager.html#logic_arc_int__lifecycle__alive_if" xlink:type="simple"><g id="elem_logic_arc_int__lifecycle__alive_if"><rect codeLine="13" fill="#F1F1F1" height="40" id="logic_arc_int__lifecycle__alive_if" rx="2.5" ry="2.5" style="stroke:#181818;stroke-width:0.5;" width="133.3838" x="204.5" y="7"/><ellipse cx="219.5" cy="23" fill="#B4A7E5" rx="11" ry="11" style="stroke:#181818;stroke-width:1;"/><path d="M215.4219,18.7656 L215.4219,16.6094 L222.8125,16.6094 L222.8125,18.7656 L220.3438,18.7656 L220.3438,26.8438 L222.8125,26.8438 L222.8125,29 L215.4219,29 L215.4219,26.8438 L217.8906,26.8438 L217.8906,18.7656 L215.4219,18.7656 Z " fill="#000000"/><text fill="#000000" font-family="sans-serif" font-size="14" font-style="italic" lengthAdjust="spacing" textLength="101.3838" x="233.5" y="27.8467">Alive Interface</text><line style="stroke:#181818;stroke-width:0.5;" x1="205.5" x2="336.8838" y1="39" y2="39"/></g></a><!--class logic_arc_int__lifecycle__controlif--><a href="../features/lifecycle/architecture/control_interface.html#logic_arc_int__lifecycle__controlif" target="_top" title="../features/lifecycle/architecture/control_interface.html#logic_arc_int__lifecycle__controlif" xlink:actuate="onRequest" xlink:href="../features/lifecycle/architecture/control_interface.html#logic_arc_int__lifecycle__controlif" xlink:show="new" xlink:title="../features/lifecycle/architecture/control_interface.html#logic_arc_int__lifecycle__controlif" xlink:type="simple"><g id="elem_logic_arc_int__lifecycle__controlif"><rect codeLine="18" fill="#F1F1F1" height="40" id="logic_arc_int__lifecycle__controlif" rx="2.5" ry="2.5" style="stroke:#181818;stroke-width:0.5;" width="150.043" x="373" y="7"/><ellipse cx="388" cy="23" fill="#B4A7E5" rx="11" ry="11" style="stroke:#181818;stroke-width:1;"/><path d="M383.9219,18.7656 L383.9219,16.6094 L391.3125,16.6094 L391.3125,18.7656 L388.8438,18.7656 L388.8438,26.8438 L391.3125,26.8438 L391.3125,29 L383.9219,29 L383.9219,26.8438 L386.3906,26.8438 L386.3906,18.7656 L383.9219,18.7656 Z " fill="#000000"/><text fill="#000000" font-family="sans-serif" font-size="14" font-style="italic" lengthAdjust="spacing" textLength="118.043" x="402" y="27.8467">Control Interface</text><line style="stroke:#181818;stroke-width:0.5;" x1="374" x2="522.043" y1="39" y2="39"/></g></a><!--class logic_arc_int__lifecycle__health_monitor_if--><a href="../features/lifecycle/architecture/application_health_monitor.html#logic_arc_int__lifecycle__health_monitor_if" target="_top" title="../features/lifecycle/architecture/application_health_monitor.html#logic_arc_int__lifecycle__health_monitor_if" xlink:actuate="onRequest" xlink:href="../features/lifecycle/architecture/application_health_monitor.html#logic_arc_int__lifecycle__health_monitor_if" xlink:show="new" xlink:title="../features/lifecycle/architecture/application_health_monitor.html#logic_arc_int__lifecycle__health_monitor_if" xlink:type="simple"><g id="elem_logic_arc_int__lifecycle__health_monitor_if"><rect codeLine="23" fill="#F1F1F1" height="40" id="logic_arc_int__lifecycle__health_monitor_if" rx="2.5" ry="2.5" style="stroke:#181818;stroke-width:0.5;" width="162.2383" x="7" y="7"/><ellipse cx="22" cy="23" fill="#B4A7E5" rx="11" ry="11" style="stroke:#181818;stroke-width:1;"/><path d="M17.9219,18.7656 L17.9219,16.6094 L25.3125,16.6094 L25.3125,18.7656 L22.8438,18.7656 L22.8438,26.8438 L25.3125,26.8438 L25.3125,29 L17.9219,29 L17.9219,26.8438 L20.3906,26.8438 L20.3906,18.7656 L17.9219,18.7656 Z " fill="#000000"/><text fill="#000000" font-family="sans-serif" font-size="14" font-style="italic" lengthAdjust="spacing" textLength="130.2383" x="36" y="27.8467">Health Monitor API</text><line style="stroke:#181818;stroke-width:0.5;" x1="8" x2="168.2383" y1="39" y2="39"/></g></a><!--class logic_arc_int__logging__logging--><a href="../features/communication/modules/logging/index.html#logic_arc_int__logging__logging" target="_top" title="../features/communication/modules/logging/index.html#logic_arc_int__logging__logging" xlink:actuate="onRequest" xlink:href="../features/communication/modules/logging/index.html#logic_arc_int__logging__logging" xlink:show="new" xlink:title="../features/communication/modules/logging/index.html#logic_arc_int__logging__logging" xlink:type="simple"><g id="elem_logic_arc_int__logging__logging"><rect codeLine="43" fill="#F1F1F1" height="56.2969" id="logic_arc_int__logging__logging" rx="2.5" ry="2.5" style="stroke:#181818;stroke-width:0.5;" width="87.7881" x="317" y="287"/><ellipse cx="332" cy="303" fill="#B4A7E5" rx="11" ry="11" style="stroke:#181818;stroke-width:1;"/><path d="M327.9219,298.7656 L327.9219,296.6094 L335.3125,296.6094 L335.3125,298.7656 L332.8438,298.7656 L332.8438,306.8438 L335.3125,306.8438 L335.3125,309 L327.9219,309 L327.9219,306.8438 L330.3906,306.8438 L330.3906,298.7656 L327.9219,298.7656 Z " fill="#000000"/><text fill="#000000" font-family="sans-serif" font-size="14" font-style="italic" lengthAdjust="spacing" textLength="55.7881" x="346" y="307.8467">Logging</text><line style="stroke:#181818;stroke-width:0.5;" x1="318" x2="403.7881" y1="319" y2="319"/></g><a href="../features/communication/modules/logging/index.html#logic_arc_int_op__logging__isenabled" target="_top" title="../features/communication/modules/logging/index.html#logic_arc_int_op__logging__isenabled" xlink:actuate="onRequest" xlink:href="../features/communication/modules/logging/index.html#logic_arc_int_op__logging__isenabled" xlink:show="new" xlink:title="../features/communication/modules/logging/index.html#logic_arc_int_op__logging__isenabled" xlink:type="simple"><rect fill="#F1F1F1" height="10" style="stroke:transparent;stroke-width:1;" width="20" x="323" y="327.6484"/><ellipse cx="328" cy="332.6484" fill="#84BE84" rx="3" ry="3" style="stroke:#038048;stroke-width:1;"/></a></a><a href="../features/communication/modules/logging/index.html#logic_arc_int_op__logging__isenabled" target="_top" title="../features/communication/modules/logging/index.html#logic_arc_int_op__logging__isenabled" xlink:actuate="onRequest" xlink:href="../features/communication/modules/logging/index.html#logic_arc_int_op__logging__isenabled" xlink:show="new" xlink:title="../features/communication/modules/logging/index.html#logic_arc_int_op__logging__isenabled" xlink:type="simple"><text fill="#000000" font-family="sans-serif" font-size="14" lengthAdjust="spacing" textLength="40.626" x="337" y="335.9951">Log ()</text></a><!--reverse link logic_arc_int__lifecycle__controlif to comp_arc_sta__lifecycle__launch_manager--><g id="link_logic_arc_int__lifecycle__controlif_comp_arc_sta__lifecycle__launch_manager"><path codeLine="50" d="M433.5818,52.448 C417.4618,79.778 391.08,124.49 374.08,153.32 " fill="transparent" id="logic_arc_int__lifecycle__controlif-backto-comp_arc_sta__lifecycle__launch_manager" style="stroke:#181818;stroke-width:1;"/><polygon fill="#181818" points="436.63,47.28,428.6123,52.9999,434.0898,51.5867,435.503,57.0642,436.63,47.28" style="stroke:#181818;stroke-width:1;"/><text fill="#000000" font-family="sans-serif" font-size="13" lengthAdjust="spacing" textLength="76.9082" x="419" y="90.0669">implements</text></g><!--link comp_arc_sta__lifecycle__healthmonitor to logic_arc_int__lifecycle__alive_if--><g id="link_comp_arc_sta__lifecycle__healthmonitor_logic_arc_int__lifecycle__alive_if"><path codeLine="51" d="M194.9,144.92 C214.01,115.56 239.0181,77.1494 255.1781,52.3094 " fill="transparent" id="comp_arc_sta__lifecycle__healthmonitor-to-logic_arc_int__lifecycle__alive_if" style="stroke:#008000;stroke-width:1;"/><polygon fill="#008000" points="258.45,47.28,250.1892,52.6428,255.7234,51.4711,256.895,57.0053,258.45,47.28" style="stroke:#008000;stroke-width:1;"/><text fill="#000000" font-family="sans-serif" font-size="13" lengthAdjust="spacing" textLength="29.7832" x="239" y="90.0669">uses</text></g><!--link comp_arc_sta__lifecycle__launch_manager to logic_arc_int__logging__logging--><g id="link_comp_arc_sta__lifecycle__launch_manager_logic_arc_int__logging__logging"><path codeLine="52" d="M361,199.73 C361,223.46 361,255.06 361,280.59 " fill="transparent" id="comp_arc_sta__lifecycle__launch_manager-to-logic_arc_int__logging__logging" style="stroke:#008000;stroke-width:1;"/><polygon fill="#008000" points="361,286.59,365,277.59,361,281.59,357,277.59,361,286.59" style="stroke:#008000;stroke-width:1;"/><text fill="#000000" font-family="sans-serif" font-size="13" lengthAdjust="spacing" textLength="29.7832" x="362" y="253.0669">uses</text></g><!--reverse link logic_arc_int__lifecycle__alive_if to comp_arc_sta__lifecycle__launch_manager--><g id="link_logic_arc_int__lifecycle__alive_if_comp_arc_sta__lifecycle__launch_manager"><path codeLine="53" d="M285.8944,52.4023 C302.5644,79.7323 329.88,124.49 347.47,153.32 " fill="transparent" id="logic_arc_int__lifecycle__alive_if-backto-comp_arc_sta__lifecycle__launch_manager" style="stroke:#181818;stroke-width:1;"/><polygon fill="#181818" points="282.77,47.28,284.0417,57.0464,285.3736,51.5486,290.8715,52.8806,282.77,47.28" style="stroke:#181818;stroke-width:1;"/><text fill="#000000" font-family="sans-serif" font-size="13" lengthAdjust="spacing" textLength="76.9082" x="312" y="90.0669">implements</text></g><!--reverse link logic_arc_int__logging__logging to comp_arc_sta__logging__logging--><g id="link_logic_arc_int__logging__logging_comp_arc_sta__logging__logging"><path codeLine="54" d="M361,349.31 C361,377.37 361,414.54 361,440.65 " fill="transparent" id="logic_arc_int__logging__logging-backto-comp_arc_sta__logging__logging" style="stroke:#181818;stroke-width:1;"/><polygon fill="#181818" points="361,343.31,357,352.31,361,348.31,365,352.31,361,343.31" style="stroke:#181818;stroke-width:1;"/><text fill="#000000" font-family="sans-serif" font-size="13" lengthAdjust="spacing" textLength="76.9082" x="362" y="386.0669">implements</text></g><!--reverse link logic_arc_int__lifecycle__health_monitor_if to comp_arc_sta__lifecycle__healthmonitor--><g id="link_logic_arc_int__lifecycle__health_monitor_if_comp_arc_sta__lifecycle__healthmonitor"><path codeLine="55" d="M88.6652,53.0876 C89.5452,66.7676 91.76,79.31 99,94 C108.41,113.09 123.76,130.82 138.22,144.84 " fill="transparent" id="logic_arc_int__lifecycle__health_monitor_if-backto-comp_arc_sta__lifecycle__healthmonitor" style="stroke:#181818;stroke-width:1;"/><polygon fill="#181818" points="88.28,47.1,84.866,56.3382,88.601,52.0897,92.8495,55.8247,88.28,47.1" style="stroke:#181818;stroke-width:1;"/><text fill="#000000" font-family="sans-serif" font-size="13" lengthAdjust="spacing" textLength="76.9082" x="100" y="90.0669">implements</text></g><!--SRC=[hLNDQzim5B_hhtYaXswCnDkEnGHABokqiCDkcH6o_6ABofAnvBPXz7-VOYN1bXFRBRtvuxtVnzDF4fDIlz1Il0gL4wihi1fIRQqk8HCrSYkq8eN848p56hNTLUZViQpi3fYrjKWRYuR4nkuahicA6I5J-4SUXC8xBNKDgMomVVrJ2Fwaq1ZukVfEtaWS7Pg8K0v_opZ2ubQAPuJxuuS5C0DIvu9JLdFg2YcLOejynoLIolRLL6m1DflLAjeYiqsD9ZgLHAwh4DPvSTyZoHh52reonNAiLuKjvTKqU98uFuIyGNGDWJouZg0d_quhMsivsm3tzRCT7EhfYNBAn8cWwsAWSk3Z5p9f2tZKIbYtXhU_xoUC56q3BNt3_2LXLIK5P_ke1HXJpWQCNOT3_TvYnVYJMtjOF1o1Mb-bpkYpm1TgBEkH_BXiGwWCNxt8o-rEanF5TLbfXSewtZQ2yEWZs9Bl_xOEm-v-N26EsysrNdyyx3EflEfsa7szVeWTEt4iHLgpUhV-g_ep7xVc5- -mTkzrDfMPUQmTavTTUCD-4aUSC4awpzq1UYv7_i_f8SoIqraswk0aShsDt9lsnIFv2c276Uie2cOHAheq-TdInl6xGJemTWRQ_T8vUxhom-t_MHETmFL7oRUzHFZorP5y1ekkEaJ2e6Afn2n9adFp87DFXMMpNC-vO6v0b9N4qYN409cvCPVPvYgl4LKoIdAyAM-WCJY67ceVWm-MvDtOpKp98sC9qtOMSw3p8tCU5pkuwlea_m40]--></g></svg>