<svg xmlns="http://www.w3.org/2000/svg" xmlns:xlink="http://www.w3.org/1999/xlink" contentStyleType="text/css" data-diagram-type="SEQUENCE" height="487px" preserveAspectRatio="none" style="width:1234px;height:487px;background:#FFFFFF;" version="1.1" viewBox="0 0 1234 487" width="1234px" zoomAndPan="magnify"><title>Control Interface - Stop components</title><defs/><g><text fill="#000000" font-family="sans-serif" font-size="14" font-weight="bold" lengthAdjust="spacing" textLength="287.793" x="480.2993" y="27.9951">Control Interface - Stop components</text><g><title>Launch Manager</title><rect fill="#FFFFFF" height="267.0625" style="stroke:#181818;stroke-width:1;" width="10" x="437.4199" y="175.9922"/></g><g><title>DemoApp1</title><rect fill="#FFFFFF" height="106.3984" style="stroke:#181818;stroke-width:1;" width="10" x="839.0752" y="205.125"/></g><g><title>DemoApp2</title><rect fill="#FFFFFF" height="170.6641" style="stroke:#181818;stroke-width:1;" width="10" x="1041.7334" y="234.2578"/></g><g><title>Tester</title><rect fill="transparent" height="378.4609" width="8" x="30.1587" y="73.5938"/><line style="stroke:#181818;stroke-width:0.5;stroke-dasharray:5.0,5.0;" x1="34" x2="34" y1="73.5938" y2="452.0547"/></g><g><title>State Manager</title><rect fill="transparent" height="378.4609" width="8" x="228.2505" y="73.5938"/><line style="stroke:#181818;stroke-width:0.5;stroke-dasharray:5.0,5.0;" x1="231.8135" x2="231.8135" y1="73.5938" y2="452.0547"/></g><g><title>Launch Manager</title><rect fill="transparent" height="378.4609" width="8" x="438.4199" y="73.5938"/><line style="stroke:#181818;stroke-width:0.5;stroke-dasharray:5.0,5.0;" x1="442.1641" x2="442.1641" y1="73.5938" y2="452.0547"/></g><g><title>OS (kernel)</title><rect fill="transparent" height="378.4609" width="8" x="737.5815" y="73.5938"/><line style="stroke:#181818;stroke-width:0.5;stroke-dasharray:5.0,5.0;" x1="741.0151" x2="741.0151" y1="73.5938" y2="452.0547"/></g><g><title>DemoApp1</title><rect fill="transparent" height="378.4609" width="8" x="840.0752" y="73.5938"/><line style="stroke:#181818;stroke-width:0.5;stroke-dasharray:5.0,5.0;" x1="843.1479" x2="843.1479" y1="73.5938" y2="452.0547"/></g><g><title>DemoApp2</title><rect fill="transparent" height="378.4609" width="8" x="1042.7334" y="73.5938"/><line style="stroke:#181818;stroke-width:0.5;stroke-dasharray:5.0,5.0;" x1="1045.8062" x2="1045.8062" y1="73.5938" y2="452.0547"/></g><rect fill="#E2E2F0" height="30.2969" rx="2.5" ry="2.5" style="stroke:#181818;stroke-width:0.5;" width="58.3174" x="5" y="42.2969"/><text fill="#000000" font-family="sans-serif" font-size="14" lengthAdjust="spacing" textLength="44.3174" x="12" y="62.292">Tester</text><rect fill="#E2E2F0" height="30.2969" rx="2.5" ry="2.5" style="stroke:#181818;stroke-width:0.5;" width="58.3174" x="5" y="451.0547"/><text fill="#000000" font-family="sans-serif" font-size="14" lengthAdjust="spacing" textLength="44.3174" x="12" y="471.0498">Tester</text><rect fill="#E2E2F0" height="30.2969" rx="2.5" ry="2.5" style="stroke:#181818;stroke-width:0.5;" width="116.874" x="173.8135" y="42.2969"/><text fill="#000000" font-family="sans-serif" font-size="14" lengthAdjust="spacing" textLength="102.874" x="180.8135" y="62.292">State Manager</text><rect fill="#E2E2F0" height="30.2969" rx="2.5" ry="2.5" style="stroke:#181818;stroke-width:0.5;" width="116.874" x="173.8135" y="451.0547"/><text fill="#000000" font-family="sans-serif" font-size="14" lengthAdjust="spacing" textLength="102.874" x="180.8135" y="471.0498">State Manager</text><rect fill="#E2E2F0" height="30.2969" rx="2.5" ry="2.5" style="stroke:#181818;stroke-width:0.5;" width="130.5117" x="377.1641" y="42.2969"/><text fill="#000000" font-family="sans-serif" font-size="14" lengthAdjust="spacing" textLength="116.5117" x="384.1641" y="62.292">Launch Manager</text><rect fill="#E2E2F0" height="30.2969" rx="2.5" ry="2.5" style="stroke:#181818;stroke-width:0.5;" width="130.5117" x="377.1641" y="451.0547"/><text fill="#000000" font-family="sans-serif" font-size="14" lengthAdjust="spacing" textLength="116.5117" x="384.1641" y="471.0498">Launch Manager</text><rect fill="#E2E2F0" height="30.2969" rx="2.5" ry="2.5" style="stroke:#181818;stroke-width:0.5;" width="93.1328" x="695.0151" y="42.2969"/><text fill="#000000" font-family="sans-serif" font-size="14" lengthAdjust="spacing" textLength="79.1328" x="702.0151" y="62.292">OS (kernel)</text><rect fill="#E2E2F0" height="30.2969" rx="2.5" ry="2.5" style="stroke:#181818;stroke-width:0.5;" width="93.1328" x="695.0151" y="451.0547"/><text fill="#000000" font-family="sans-serif" font-size="14" lengthAdjust="spacing" textLength="79.1328" x="702.0151" y="471.0498">OS (kernel)</text><rect fill="#E2E2F0" height="30.2969" rx="2.5" ry="2.5" style="stroke:#181818;stroke-width:0.5;" width="91.8545" x="798.1479" y="42.2969"/><text fill="#000000" font-family="sans-serif" font-size="14" lengthAdjust="spacing" textLength="77.8545" x="805.1479" y="62.292">DemoApp1</text><rect fill="#E2E2F0" height="30.2969" rx="2.5" ry="2.5" style="stroke:#181818;stroke-width:0.5;" width="91.8545" x="798.1479" y="451.0547"/><text fill="#000000" font-family="sans-serif" font-size="14" lengthAdjust="spacing" textLength="77.8545" x="805.1479" y="471.0498">DemoApp1</text><rect fill="#E2E2F0" height="30.2969" rx="2.5" ry="2.5" style="stroke:#181818;stroke-width:0.5;" width="91.8545" x="1000.8062" y="42.2969"/><text fill="#000000" font-family="sans-serif" font-size="14" lengthAdjust="spacing" textLength="77.8545" x="1007.8062" y="62.292">DemoApp2</text><rect fill="#E2E2F0" height="30.2969" rx="2.5" ry="2.5" style="stroke:#181818;stroke-width:0.5;" width="91.8545" x="1000.8062" y="451.0547"/><text fill="#000000" font-family="sans-serif" font-size="14" lengthAdjust="spacing" textLength="77.8545" x="1007.8062" y="471.0498">DemoApp2</text><g><title>Launch Manager</title><rect fill="#FFFFFF" height="267.0625" style="stroke:#181818;stroke-width:1;" width="10" x="437.4199" y="175.9922"/></g><g><title>DemoApp1</title><rect fill="#FFFFFF" height="106.3984" style="stroke:#181818;stroke-width:1;" width="10" x="839.0752" y="205.125"/></g><g><title>DemoApp2</title><rect fill="#FFFFFF" height="170.6641" style="stroke:#181818;stroke-width:1;" width="10" x="1041.7334" y="234.2578"/></g><polygon fill="#181818" points="220.2505,100.7266,230.2505,104.7266,220.2505,108.7266,224.2505,104.7266" style="stroke:#181818;stroke-width:1;"/><line style="stroke:#181818;stroke-width:1;" x1="34.1587" x2="226.2505" y1="104.7266" y2="104.7266"/><text fill="#000000" font-family="sans-serif" font-size="13" font-weight="bold" lengthAdjust="spacing" textLength="29.9736" x="41.1587" y="99.6606">[01]</text><text fill="#000000" font-family="sans-serif" font-size="13" lengthAdjust="spacing" textLength="140.1182" x="75.1323" y="99.6606">Stop Group (eg. UDS)</text><line style="stroke:#181818;stroke-width:1;" x1="232.2505" x2="274.2505" y1="133.8594" y2="133.8594"/><line style="stroke:#181818;stroke-width:1;" x1="274.2505" x2="274.2505" y1="133.8594" y2="146.8594"/><line style="stroke:#181818;stroke-width:1;" x1="233.2505" x2="274.2505" y1="146.8594" y2="146.8594"/><polygon fill="#181818" points="243.2505,142.8594,233.2505,146.8594,243.2505,150.8594,239.2505,146.8594" style="stroke:#181818;stroke-width:1;"/><text fill="#000000" font-family="sans-serif" font-size="13" font-weight="bold" lengthAdjust="spacing" textLength="29.9736" x="239.2505" y="128.7935">[02]</text><text fill="#000000" font-family="sans-serif" font-size="13" lengthAdjust="spacing" textLength="110.4048" x="273.2241" y="128.7935">evaluate request</text><polygon fill="#181818" points="425.4199,171.9922,435.4199,175.9922,425.4199,179.9922,429.4199,175.9922" style="stroke:#181818;stroke-width:1;"/><line style="stroke:#181818;stroke-width:1;" x1="232.2505" x2="431.4199" y1="175.9922" y2="175.9922"/><text fill="#000000" font-family="sans-serif" font-size="13" font-weight="bold" lengthAdjust="spacing" textLength="29.9736" x="239.2505" y="170.9263">[03]</text><text fill="#000000" font-family="sans-serif" font-size="13" lengthAdjust="spacing" textLength="146.6563" x="273.2241" y="170.9263">Stop group DemoApps</text><polygon fill="#181818" points="827.0752,201.125,837.0752,205.125,827.0752,209.125,831.0752,205.125" style="stroke:#181818;stroke-width:1;"/><line style="stroke:#181818;stroke-width:1;" x1="447.4199" x2="833.0752" y1="205.125" y2="205.125"/><text fill="#000000" font-family="sans-serif" font-size="13" font-weight="bold" lengthAdjust="spacing" textLength="29.9736" x="454.4199" y="200.0591">[04]</text><text fill="#000000" font-family="sans-serif" font-size="13" lengthAdjust="spacing" textLength="58.5635" x="488.3936" y="200.0591">SIGTERM</text><polygon fill="#181818" points="1029.7334,230.2578,1039.7334,234.2578,1029.7334,238.2578,1033.7334,234.2578" style="stroke:#181818;stroke-width:1;"/><line style="stroke:#181818;stroke-width:1;" x1="447.4199" x2="1035.7334" y1="234.2578" y2="234.2578"/><text fill="#000000" font-family="sans-serif" font-size="13" font-weight="bold" lengthAdjust="spacing" textLength="29.9736" x="454.4199" y="229.1919">[05]</text><text fill="#000000" font-family="sans-serif" font-size="13" lengthAdjust="spacing" textLength="58.5635" x="488.3936" y="229.1919">SIGTERM</text><line style="stroke:#181818;stroke-width:1;" x1="849.0752" x2="891.0752" y1="263.3906" y2="263.3906"/><line style="stroke:#181818;stroke-width:1;" x1="891.0752" x2="891.0752" y1="263.3906" y2="276.3906"/><line style="stroke:#181818;stroke-width:1;" x1="850.0752" x2="891.0752" y1="276.3906" y2="276.3906"/><polygon fill="#181818" points="860.0752,272.3906,850.0752,276.3906,860.0752,280.3906,856.0752,276.3906" style="stroke:#181818;stroke-width:1;"/><text fill="#000000" font-family="sans-serif" font-size="13" font-weight="bold" lengthAdjust="spacing" textLength="29.9736" x="856.0752" y="258.3247">[06]</text><text fill="#000000" font-family="sans-serif" font-size="13" lengthAdjust="spacing" textLength="134.6846" x="890.0488" y="258.3247">do shutdown actions</text><line style="stroke:#181818;stroke-width:1;" x1="1051.7334" x2="1093.7334" y1="305.5234" y2="305.5234"/><line style="stroke:#181818;stroke-width:1;" x1="1093.7334" x2="1093.7334" y1="305.5234" y2="318.5234"/><line style="stroke:#181818;stroke-width:1;" x1="1052.7334" x2="1093.7334" y1="318.5234" y2="318.5234"/><polygon fill="#181818" points="1062.7334,314.5234,1052.7334,318.5234,1062.7334,322.5234,1058.7334,318.5234" style="stroke:#181818;stroke-width:1;"/><text fill="#000000" font-family="sans-serif" font-size="13" font-weight="bold" lengthAdjust="spacing" textLength="29.9736" x="1058.7334" y="300.4575">[07]</text><text fill="#000000" font-family="sans-serif" font-size="13" lengthAdjust="spacing" textLength="134.6846" x="1092.707" y="300.4575">do shutdown actions</text><line style="stroke:#A80036;stroke-width:2;" x1="835.0752" x2="853.0752" y1="309.5234" y2="327.5234"/><line style="stroke:#A80036;stroke-width:2;" x1="835.0752" x2="853.0752" y1="327.5234" y2="309.5234"/><line style="stroke:#181818;stroke-width:1;" x1="447.4199" x2="489.4199" y1="362.7891" y2="362.7891"/><line style="stroke:#181818;stroke-width:1;" x1="489.4199" x2="489.4199" y1="362.7891" y2="375.7891"/><line style="stroke:#181818;stroke-width:1;" x1="448.4199" x2="489.4199" y1="375.7891" y2="375.7891"/><polygon fill="#181818" points="458.4199,371.7891,448.4199,375.7891,458.4199,379.7891,454.4199,375.7891" style="stroke:#181818;stroke-width:1;"/><text fill="#000000" font-family="sans-serif" font-size="13" font-weight="bold" lengthAdjust="spacing" textLength="29.9736" x="454.4199" y="350.1567">[08]</text><text fill="#000000" font-family="sans-serif" font-size="13" lengthAdjust="spacing" textLength="231.188" x="488.3936" y="342.5903">check if the apps terminated within</text><text fill="#000000" font-family="sans-serif" font-size="13" lengthAdjust="spacing" textLength="162.9824" x="488.3936" y="357.7231">the termination timeout?</text><polygon fill="#181818" points="1034.7334,400.9219,1044.7334,404.9219,1034.7334,408.9219,1038.7334,404.9219" style="stroke:#181818;stroke-width:1;"/><line style="stroke:#181818;stroke-width:1;" x1="447.4199" x2="1040.7334" y1="404.9219" y2="404.9219"/><text fill="#000000" font-family="sans-serif" font-size="13" font-weight="bold" lengthAdjust="spacing" textLength="29.9736" x="454.4199" y="399.856">[09]</text><text fill="#000000" font-family="sans-serif" font-size="13" lengthAdjust="spacing" textLength="49.0039" x="488.3936" y="399.856">SIGKILL</text><line style="stroke:#A80036;stroke-width:2;" x1="1037.7334" x2="1055.7334" y1="395.9219" y2="413.9219"/><line style="stroke:#A80036;stroke-width:2;" x1="1037.7334" x2="1055.7334" y1="413.9219" y2="395.9219"/><polygon fill="#181818" points="243.2505,430.0547,233.2505,434.0547,243.2505,438.0547,239.2505,434.0547" style="stroke:#181818;stroke-width:1;"/><line style="stroke:#181818;stroke-width:1;stroke-dasharray:2.0,2.0;" x1="237.2505" x2="436.4199" y1="434.0547" y2="434.0547"/><text fill="#000000" font-family="sans-serif" font-size="13" font-weight="bold" lengthAdjust="spacing" textLength="29.9736" x="249.2505" y="428.9888">[10]</text><text fill="#000000" font-family="sans-serif" font-size="13" lengthAdjust="spacing" textLength="147.1958" x="283.2241" y="428.9888">DemoApps terminated</text><!--SRC=[TP7DJiCm48JlVefLJksXgEI8K16YgAf8X4JA2JYuoJQncjZ6MRVYxN5-JEkgtEpCD-kP3Gcg4PwK9ADgM4j2i-CvmWmoKXforMWbKLBB6BUaf6ssQ22wtou-vlElY36ckI6H2yqbGRJ1ras8WBSm74Cv8qu8APUy7Aai3Oc4MvbN0P9S8AyPJFPe9DRJNX_E8RF4HZrgVTi3_d8LYS-HsFLXGt2OBLouks4DAwEiXWcMD_2-pAOiIxsC1rxRhfJ1R-kCevHuPzaxn_4jupc9GuUxKabF-d2ENwysps_fYVdB7P3n_wIBxptXw491Mragr552PrAozMGSZhv6ii8LC-hd56XCrBNCAypt87P05G9t7S4jhn7InIhWAAWIybDscl_iHWA91fMbXslDNjP9SlbYzrywT5owN-VPK-mN]--></g></svg>