<svg xmlns="http://www.w3.org/2000/svg" xmlns:xlink="http://www.w3.org/1999/xlink" contentStyleType="text/css" data-diagram-type="SEQUENCE" height="356px" preserveAspectRatio="none" style="width:461px;height:356px;background:#FFFFFF;" version="1.1" viewBox="0 0 461 356" width="461px" zoomAndPan="magnify"><defs/><g><g><title>Network</title><rect fill="transparent" height="194.125" width="8" x="33.2271" y="81.2969"/><line style="stroke:#181818;stroke-width:0.5;stroke-dasharray:5.0,5.0;" x1="37" x2="37" y1="81.2969" y2="275.4219"/></g><g><title>SOME/IP Gateway</title><rect fill="transparent" height="194.125" width="8" x="144.6611" y="81.2969"/><line style="stroke:#181818;stroke-width:0.5;stroke-dasharray:5.0,5.0;" x1="148.4541" x2="148.4541" y1="81.2969" y2="275.4219"/></g><g><title>Service</title><rect fill="transparent" height="116.1953" width="8" x="259.5786" y="159.2266"/><line style="stroke:#181818;stroke-width:0.5;stroke-dasharray:5.0,5.0;" x1="262.708" x2="262.708" y1="159.2266" y2="275.4219"/></g><g><title>Consumer</title><rect fill="transparent" height="194.125" width="8" x="409.2559" y="81.2969"/><line style="stroke:#181818;stroke-width:0.5;stroke-dasharray:5.0,5.0;" x1="412.562" x2="412.562" y1="81.2969" y2="275.4219"/></g><text fill="#000000" font-family="sans-serif" font-size="14" lengthAdjust="spacing" textLength="58.4541" x="5" y="77.9951">Network</text><ellipse cx="37.2271" cy="13.5" fill="#E2E2F0" rx="8" ry="8" style="stroke:#181818;stroke-width:0.5;"/><path d="M37.2271,21.5 L37.2271,48.5 M24.2271,29.5 L50.2271,29.5 M37.2271,48.5 L24.2271,63.5 M37.2271,48.5 L50.2271,63.5 " fill="transparent" style="stroke:#181818;stroke-width:0.5;"/><text fill="#000000" font-family="sans-serif" font-size="14" lengthAdjust="spacing" textLength="58.4541" x="5" y="287.417">Network</text><ellipse cx="37.2271" cy="299.2188" fill="#E2E2F0" rx="8" ry="8" style="stroke:#181818;stroke-width:0.5;"/><path d="M37.2271,307.2188 L37.2271,334.2188 M24.2271,315.2188 L50.2271,315.2188 M37.2271,334.2188 L24.2271,349.2188 M37.2271,334.2188 L50.2271,349.2188 " fill="transparent" style="stroke:#181818;stroke-width:0.5;"/><rect fill="#E2E2F0" height="30.2969" rx="2.5" ry="2.5" style="stroke:#181818;stroke-width:0.5;" width="138.4141" x="79.4541" y="50"/><text fill="#000000" font-family="sans-serif" font-size="14" lengthAdjust="spacing" textLength="124.4141" x="86.4541" y="69.9951">SOME/IP Gateway</text><rect fill="#E2E2F0" height="30.2969" rx="2.5" ry="2.5" style="stroke:#181818;stroke-width:0.5;" width="138.4141" x="79.4541" y="274.4219"/><text fill="#000000" font-family="sans-serif" font-size="14" lengthAdjust="spacing" textLength="124.4141" x="86.4541" y="294.417">SOME/IP Gateway</text><rect fill="#E2E2F0" height="46.5938" rx="2.5" ry="2.5" style="stroke:#181818;stroke-width:0.5;" width="65.7412" x="230.708" y="274.4219"/><text fill="#000000" font-family="sans-serif" font-size="14" lengthAdjust="spacing" textLength="51.7412" x="237.708" y="294.417">Service</text><text fill="#000000" font-family="sans-serif" font-size="14" lengthAdjust="spacing" textLength="47.5508" x="239.8032" y="310.7139">via IPC</text><rect fill="#E2E2F0" height="30.2969" rx="2.5" ry="2.5" style="stroke:#181818;stroke-width:0.5;" width="85.3877" x="370.562" y="50"/><text fill="#000000" font-family="sans-serif" font-size="14" lengthAdjust="spacing" textLength="71.3877" x="377.562" y="69.9951">Consumer</text><rect fill="#E2E2F0" height="30.2969" rx="2.5" ry="2.5" style="stroke:#181818;stroke-width:0.5;" width="85.3877" x="370.562" y="274.4219"/><text fill="#000000" font-family="sans-serif" font-size="14" lengthAdjust="spacing" textLength="71.3877" x="377.562" y="294.417">Consumer</text><polygon fill="#181818" points="136.6611,108.4297,146.6611,112.4297,136.6611,116.4297,140.6611,112.4297" style="stroke:#181818;stroke-width:1;"/><line style="stroke:#181818;stroke-width:1;" x1="37.2271" x2="142.6611" y1="112.4297" y2="112.4297"/><text fill="#000000" font-family="sans-serif" font-size="13" lengthAdjust="spacing" textLength="80.7739" x="44.2271" y="107.3638">OfferService</text><polygon fill="#181818" points="218.708,137.5625,228.708,141.5625,218.708,145.5625,222.708,141.5625" style="stroke:#181818;stroke-width:1;"/><line style="stroke:#181818;stroke-width:1;" x1="148.6611" x2="224.708" y1="141.5625" y2="141.5625"/><text fill="#000000" font-family="sans-serif" font-size="13" lengthAdjust="spacing" textLength="51.6953" x="155.6611" y="136.4966">create()</text><rect fill="#E2E2F0" height="46.5938" rx="2.5" ry="2.5" style="stroke:#181818;stroke-width:0.5;" width="65.7412" x="230.708" y="120.4297"/><text fill="#000000" font-family="sans-serif" font-size="14" lengthAdjust="spacing" textLength="51.7412" x="237.708" y="140.4248">Service</text><text fill="#000000" font-family="sans-serif" font-size="14" lengthAdjust="spacing" textLength="47.5508" x="239.8032" y="156.7217">via IPC</text><polygon fill="#181818" points="251.5786,195.1563,261.5786,199.1563,251.5786,203.1563,255.5786,199.1563" style="stroke:#181818;stroke-width:1;"/><line style="stroke:#181818;stroke-width:1;" x1="148.6611" x2="257.5786" y1="199.1563" y2="199.1563"/><text fill="#000000" font-family="sans-serif" font-size="13" lengthAdjust="spacing" textLength="90.9175" x="155.6611" y="194.0903">OfferService()</text><polygon fill="#181818" points="274.5786,224.2891,264.5786,228.2891,274.5786,232.2891,270.5786,228.2891" style="stroke:#181818;stroke-width:1;"/><line style="stroke:#181818;stroke-width:1;" x1="268.5786" x2="412.2559" y1="228.2891" y2="228.2891"/><text fill="#000000" font-family="sans-serif" font-size="13" lengthAdjust="spacing" textLength="125.6772" x="280.5786" y="223.2231">service_discovery()</text><polygon fill="#181818" points="274.5786,253.4219,264.5786,257.4219,274.5786,261.4219,270.5786,257.4219" style="stroke:#181818;stroke-width:1;"/><line style="stroke:#181818;stroke-width:1;" x1="268.5786" x2="412.2559" y1="257.4219" y2="257.4219"/><text fill="#000000" font-family="sans-serif" font-size="13" lengthAdjust="spacing" textLength="61.9658" x="280.5786" y="252.356">connect()</text><!--SRC=[TSx12e9040RWkqynU58Xkdle8X4UIi5h8CCqnbBjokoc-FQ9QyG6teRvF_uP96S4uWkxqSWZ1hImpb6FuXIf7hM3kAdEntrPmmaTZpWji34lLltTR_uuow28htfG26LTUE-NeIoCjkyNoo9csT9JiNPHjBu1kqDuA8UgwrY-PK6sO1z0ba4E93mdIRh9mhOP_bu8bFL3UrEMpC0oRLCoMZEv9Fq0]--></g></svg>