<svg xmlns="http://www.w3.org/2000/svg" xmlns:xlink="http://www.w3.org/1999/xlink" contentStyleType="text/css" data-diagram-type="CLASS" height="210px" preserveAspectRatio="none" style="width:783px;height:210px;background:#FFFFFF;" version="1.1" viewBox="0 0 783 210" width="783px" zoomAndPan="magnify"><defs/><g><!--entity C1--><a href="../process/process_areas/architecture_design/architecture_getstrt.html#comp_arc_sta__component_getstrt" target="_top" title="../process/process_areas/architecture_design/architecture_getstrt.html#comp_arc_sta__component_getstrt" xlink:actuate="onRequest" xlink:href="../process/process_areas/architecture_design/architecture_getstrt.html#comp_arc_sta__component_getstrt" xlink:show="new" xlink:title="../process/process_areas/architecture_design/architecture_getstrt.html#comp_arc_sta__component_getstrt" xlink:type="simple"><rect fill="#F1F1F1" height="46.2969" rx="2.5" ry="2.5" style="stroke:#0000FF;stroke-width:2;" width="134.6367" x="7" y="112.5"/><rect fill="#F1F1F1" height="10" style="stroke:#0000FF;stroke-width:2;" width="15" x="121.6367" y="117.5"/><rect fill="#F1F1F1" height="2" style="stroke:#0000FF;stroke-width:2;" width="4" x="119.6367" y="119.5"/><rect fill="#F1F1F1" height="2" style="stroke:#0000FF;stroke-width:2;" width="4" x="119.6367" y="123.5"/><text fill="#000000" font-family="sans-serif" font-size="14" lengthAdjust="spacing" textLength="94.6367" x="22" y="145.4951">Component 1</text></a><!--class CI1--><a href="../process/process_areas/architecture_design/architecture_concept.html#comp_arc_int__archdes_component_interface_1" target="_top" title="../process/process_areas/architecture_design/architecture_concept.html#comp_arc_int__archdes_component_interface_1" xlink:actuate="onRequest" xlink:href="../process/process_areas/architecture_design/architecture_concept.html#comp_arc_int__archdes_component_interface_1" xlink:show="new" xlink:title="../process/process_areas/architecture_design/architecture_concept.html#comp_arc_int__archdes_component_interface_1" xlink:type="simple"><g id="elem_CI1"><rect codeLine="15" fill="#F1F1F1" height="80.5938" id="CI1" rx="2.5" ry="2.5" style="stroke:#181818;stroke-width:0.5;" width="193.7656" x="280" y="7"/><ellipse cx="295" cy="23" fill="#B4A7E5" rx="11" ry="11" style="stroke:#181818;stroke-width:1;"/><path d="M290.9219,18.7656 L290.9219,16.6094 L298.3125,16.6094 L298.3125,18.7656 L295.8438,18.7656 L295.8438,26.8438 L298.3125,26.8438 L298.3125,29 L290.9219,29 L290.9219,26.8438 L293.3906,26.8438 L293.3906,18.7656 L290.9219,18.7656 Z " fill="#000000"/><text fill="#000000" font-family="sans-serif" font-size="14" font-style="italic" lengthAdjust="spacing" textLength="161.7656" x="309" y="27.8467">Component Interface 1</text><line style="stroke:#181818;stroke-width:0.5;" x1="281" x2="472.7656" y1="39" y2="39"/><line style="stroke:#181818;stroke-width:0.5;" x1="281" x2="472.7656" y1="47" y2="47"/><text fill="#000000" font-family="sans-serif" font-size="14" lengthAdjust="spacing" textLength="127.2373" x="286" y="63.9951">real operation 1 ()</text><text fill="#000000" font-family="sans-serif" font-size="14" lengthAdjust="spacing" textLength="127.2373" x="286" y="80.292">real operation 2 ()</text></g></a><!--class CI3--><a href="../process/process_areas/architecture_design/_assets/architecture_modeling_example.html#comp_arc_int__archdes_component_interface_3" target="_top" title="../process/process_areas/architecture_design/_assets/architecture_modeling_example.html#comp_arc_int__archdes_component_interface_3" xlink:actuate="onRequest" xlink:href="../process/process_areas/architecture_design/_assets/architecture_modeling_example.html#comp_arc_int__archdes_component_interface_3" xlink:show="new" xlink:title="../process/process_areas/architecture_design/_assets/architecture_modeling_example.html#comp_arc_int__archdes_component_interface_3" xlink:type="simple"><g id="elem_CI3"><rect codeLine="21" fill="#F1F1F1" height="80.5938" id="CI3" rx="2.5" ry="2.5" style="stroke:#181818;stroke-width:0.5;" width="193.7656" x="280" y="123"/><ellipse cx="295" cy="139" fill="#B4A7E5" rx="11" ry="11" style="stroke:#181818;stroke-width:1;"/><path d="M290.9219,134.7656 L290.9219,132.6094 L298.3125,132.6094 L298.3125,134.7656 L295.8438,134.7656 L295.8438,142.8438 L298.3125,142.8438 L298.3125,145 L290.9219,145 L290.9219,142.8438 L293.3906,142.8438 L293.3906,134.7656 L290.9219,134.7656 Z " fill="#000000"/><text fill="#000000" font-family="sans-serif" font-size="14" font-style="italic" lengthAdjust="spacing" textLength="161.7656" x="309" y="143.8467">Component Interface 3</text><line style="stroke:#181818;stroke-width:0.5;" x1="281" x2="472.7656" y1="155" y2="155"/><line style="stroke:#181818;stroke-width:0.5;" x1="281" x2="472.7656" y1="163" y2="163"/><text fill="#000000" font-family="sans-serif" font-size="14" lengthAdjust="spacing" textLength="127.2373" x="286" y="179.9951">real operation 5 ()</text><text fill="#000000" font-family="sans-serif" font-size="14" lengthAdjust="spacing" textLength="127.2373" x="286" y="196.292">real operation 6 ()</text></g></a><!--class LI1--><a href="../process/process_areas/architecture_design/architecture_concept.html#feat_arc_int__archdes_logical_interface_1" target="_top" title="../process/process_areas/architecture_design/architecture_concept.html#feat_arc_int__archdes_logical_interface_1" xlink:actuate="onRequest" xlink:href="../process/process_areas/architecture_design/architecture_concept.html#feat_arc_int__archdes_logical_interface_1" xlink:show="new" xlink:title="../process/process_areas/architecture_design/architecture_concept.html#feat_arc_int__archdes_logical_interface_1" xlink:type="simple"><g id="elem_LI1"><rect codeLine="27" fill="#F1F1F1" height="80.5938" id="LI1" rx="2.5" ry="2.5" style="stroke:#181818;stroke-width:0.5;" width="164.1611" x="612" y="7"/><ellipse cx="628.0652" cy="23" fill="#B4A7E5" rx="11" ry="11" style="stroke:#181818;stroke-width:1;"/><path d="M623.9871,18.7656 L623.9871,16.6094 L631.3777,16.6094 L631.3777,18.7656 L628.909,18.7656 L628.909,26.8438 L631.3777,26.8438 L631.3777,29 L623.9871,29 L623.9871,26.8438 L626.4559,26.8438 L626.4559,18.7656 L623.9871,18.7656 Z " fill="#000000"/><text fill="#000000" font-family="sans-serif" font-size="14" font-style="italic" lengthAdjust="spacing" textLength="129.7939" x="642.302" y="27.8467">Logical Interface 1</text><line style="stroke:#181818;stroke-width:0.5;" x1="613" x2="775.1611" y1="39" y2="39"/><line style="stroke:#181818;stroke-width:0.5;" x1="613" x2="775.1611" y1="47" y2="47"/><text fill="#000000" font-family="sans-serif" font-size="14" lengthAdjust="spacing" textLength="152.1611" x="618" y="63.9951">Logical Operation 1 ()</text><text fill="#000000" font-family="sans-serif" font-size="14" lengthAdjust="spacing" textLength="152.1611" x="618" y="80.292">Logical Operation 2 ()</text></g></a><!--link C1 to CI1--><g id="link_C1_CI1"><path codeLine="34" d="M142.19,115.97 C182.65,104.12 229.2117,90.4859 274.0917,77.3459 " fill="transparent" id="C1-to-CI1" style="stroke:#181818;stroke-width:1;"/><polygon fill="#181818" points="279.85,75.66,270.0887,74.35,275.0514,77.0649,272.3365,82.0277,279.85,75.66" style="stroke:#181818;stroke-width:1;"/><text fill="#000000" font-family="sans-serif" font-size="13" lengthAdjust="spacing" textLength="76.9082" x="173" y="81.5669">implements</text></g><!--link C1 to CI3--><g id="link_C1_CI3"><path codeLine="35" d="M142.19,141.71 C182.65,145.48 228.9959,149.8036 273.8759,153.9836 " fill="transparent" id="C1-to-CI3" style="stroke:#181818;stroke-width:1;"/><polygon fill="#181818" points="279.85,154.54,271.2597,149.7226,274.8715,154.0763,270.5178,157.6881,279.85,154.54" style="stroke:#181818;stroke-width:1;"/><text fill="#000000" font-family="sans-serif" font-size="13" lengthAdjust="spacing" textLength="29.7832" x="196.5" y="140.5669">uses</text></g><!--link CI1 to LI1--><g id="link_CI1_LI1"><path codeLine="36" d="M474.22,47.5 C518.28,47.5 563.91,47.5 605.95,47.5 " fill="transparent" id="CI1-to-LI1" style="stroke:#181818;stroke-width:1;"/><polygon fill="#181818" points="611.95,47.5,602.95,43.5,606.95,47.5,602.95,51.5,611.95,47.5" style="stroke:#181818;stroke-width:1;"/><text fill="#000000" font-family="sans-serif" font-size="13" lengthAdjust="spacing" textLength="76.9082" x="505" y="43.5669">implements</text></g><!--SRC=[hPEnRi8m48PtFyMf7MW7aeQe7L2KXGafKfTk25d678bLnuvieu8GxrwdX3Gag2fgi_Zqsxxxlpk7IQa_Q2bsGkL4uiQ1qs14NZXO2uFS2Qr88TO8rg51xVOLaiIwlSIKGFC5p0gvWaChP4BXJ4jjO2MtU26_5OA_AxGM9i5JktDieoHiaXEkoqehL0xkPcqOtG6pC8iWIRwAfYai5a4GLaPpd_IyKcQGsP0PNWZdARO6wHgjoDMbbgEpphYWSAMyhmlwYvnQnoXjovyFBPVW4OyGZg3Z1qOX42AKxyw6SUnwdRTYuteUmP_SSgquLdstlZQjWy9VwRXkBT78EpyGNqA2hj2mUgRU-CDZNvlKMf-mG_4hrhXXZMzcfSnQt-hBlLAlKVh7IN77oahYhV3nDVZdA_0lFyF70_XCvuBx5FqnP_ywvWqoDoILfzg38PyzlLxEUIXtHds5uyHA_6ys7gVrkvs2g9jV-fvO-DRZAMmjrihy96Nzevy0]--></g></svg>