<svg xmlns="http://www.w3.org/2000/svg" xmlns:xlink="http://www.w3.org/1999/xlink" contentStyleType="text/css" data-diagram-type="CLASS" height="252px" preserveAspectRatio="none" style="width:207px;height:252px;background:#FFFFFF;" version="1.1" viewBox="0 0 207 252" width="207px" zoomAndPan="magnify"><defs/><g><!--class CI1--><g id="elem_CI1"><rect codeLine="2" fill="#F1F1F1" height="80.5938" id="CI1" rx="2.5" ry="2.5" style="stroke:#181818;stroke-width:0.5;" width="193.7656" x="7" y="7"/><ellipse cx="22" cy="23" fill="#B4A7E5" rx="11" ry="11" style="stroke:#181818;stroke-width:1;"/><path d="M17.9219,18.7656 L17.9219,16.6094 L25.3125,16.6094 L25.3125,18.7656 L22.8438,18.7656 L22.8438,26.8438 L25.3125,26.8438 L25.3125,29 L17.9219,29 L17.9219,26.8438 L20.3906,26.8438 L20.3906,18.7656 L17.9219,18.7656 Z " fill="#000000"/><text fill="#000000" font-family="sans-serif" font-size="14" font-style="italic" lengthAdjust="spacing" textLength="161.7656" x="36" y="27.8467">Component Interface 1</text><line style="stroke:#181818;stroke-width:0.5;" x1="8" x2="199.7656" y1="39" y2="39"/><text fill="#000000" font-family="sans-serif" font-size="14" lengthAdjust="spacing" textLength="111.8633" x="13" y="55.9951">real operation 1</text><text fill="#000000" font-family="sans-serif" font-size="14" lengthAdjust="spacing" textLength="111.8633" x="13" y="72.292">real operation 2</text><line style="stroke:#181818;stroke-width:0.5;" x1="8" x2="199.7656" y1="79.5938" y2="79.5938"/></g><!--class LI1--><g id="elem_LI1"><rect codeLine="7" fill="#F1F1F1" height="80.5938" id="LI1" rx="2.5" ry="2.5" style="stroke:#181818;stroke-width:0.5;" width="161.7939" x="23" y="165"/><ellipse cx="38" cy="181" fill="#B4A7E5" rx="11" ry="11" style="stroke:#181818;stroke-width:1;"/><path d="M33.9219,176.7656 L33.9219,174.6094 L41.3125,174.6094 L41.3125,176.7656 L38.8438,176.7656 L38.8438,184.8438 L41.3125,184.8438 L41.3125,187 L33.9219,187 L33.9219,184.8438 L36.3906,184.8438 L36.3906,176.7656 L33.9219,176.7656 Z " fill="#000000"/><text fill="#000000" font-family="sans-serif" font-size="14" font-style="italic" lengthAdjust="spacing" textLength="129.7939" x="52" y="185.8467">Logical Interface 1</text><line style="stroke:#181818;stroke-width:0.5;" x1="24" x2="183.7939" y1="197" y2="197"/><text fill="#000000" font-family="sans-serif" font-size="14" lengthAdjust="spacing" textLength="136.7871" x="29" y="213.9951">Logical Operation 1</text><text fill="#000000" font-family="sans-serif" font-size="14" lengthAdjust="spacing" textLength="136.7871" x="29" y="230.292">Logical Operation 2</text><line style="stroke:#181818;stroke-width:0.5;" x1="24" x2="183.7939" y1="237.5938" y2="237.5938"/></g><!--link CI1 to LI1--><g id="link_CI1_LI1"><path codeLine="13" d="M104,88.27 C104,111.74 104,135.35 104,158.8 " fill="transparent" id="CI1-to-LI1" style="stroke:#181818;stroke-width:1;"/><polygon fill="#181818" points="104,164.8,108,155.8,104,159.8,100,155.8,104,164.8" style="stroke:#181818;stroke-width:1;"/><text fill="#000000" font-family="sans-serif" font-size="13" lengthAdjust="spacing" textLength="76.9082" x="105" y="131.0669">implements</text></g><!--SRC=[oymhIIrAIqnELL1opiyjoCzBpIjHy8GB6Yef91OhE7iQAbHp5QKcvYZa5wGM9PPavkSf6A8B677LSd5b8ippoK_FJ0QgG3VD1smQJDOVoK1CCR2PN23xTNNjG3gj539p2t9ISu7EBEO20000]--></g></svg>