<svg xmlns="http://www.w3.org/2000/svg" xmlns:xlink="http://www.w3.org/1999/xlink" contentStyleType="text/css" data-diagram-type="CLASS" height="464px" preserveAspectRatio="none" style="width:1366px;height:464px;background:#FFFFFF;" version="1.1" viewBox="0 0 1366 464" width="1366px" zoomAndPan="magnify"><defs/><g><!--cluster feat_feo--><g id="cluster_feat_feo"><path d="M423.5,166 L455.5283,166 A3.75,3.75 0 0 1 458.0283,168.5 L465.0283,188.2969 L1356.5,188.2969 A2.5,2.5 0 0 1 1359,190.7969 L1359,454.5 A2.5,2.5 0 0 1 1356.5,457 L423.5,457 A2.5,2.5 0 0 1 421,454.5 L421,168.5 A2.5,2.5 0 0 1 423.5,166 " fill="transparent" style="stroke:#000000;stroke-width:1.5;"/><line style="stroke:#000000;stroke-width:1.5;" x1="421" x2="465.0283" y1="188.2969" y2="188.2969"/><text fill="#000000" font-family="sans-serif" font-size="14" font-weight="bold" lengthAdjust="spacing" textLength="31.0283" x="425" y="180.9951">FEO</text><text fill="#000000" font-family="sans-serif" font-size="14" font-style="italic" lengthAdjust="spacing" textLength="68.1338" x="859.9331" y="203.292">&#171;feature&#187;</text></g><!--cluster user_application--><g id="cluster_user_application"><path d="M8.5,6 L139.7725,6 A3.75,3.75 0 0 1 142.2725,8.5 L149.2725,28.2969 L394.5,28.2969 A2.5,2.5 0 0 1 397,30.7969 L397,278.5 A2.5,2.5 0 0 1 394.5,281 L8.5,281 A2.5,2.5 0 0 1 6,278.5 L6,8.5 A2.5,2.5 0 0 1 8.5,6 " fill="transparent" style="stroke:#000000;stroke-width:1.5;"/><line style="stroke:#000000;stroke-width:1.5;" x1="6" x2="149.2725" y1="28.2969" y2="28.2969"/><text fill="#000000" font-family="sans-serif" font-size="14" font-weight="bold" lengthAdjust="spacing" textLength="130.2725" x="10" y="20.9951">User Application</text><text fill="#000000" font-family="sans-serif" font-size="14" font-style="italic" lengthAdjust="spacing" textLength="94.5068" x="158.2466" y="43.292">&#171;application&#187;</text></g><!--class feo_primary--><g id="elem_feo_primary"><rect codeLine="19" fill="#F1F1F1" height="48" id="feo_primary" rx="2.5" ry="2.5" style="stroke:#181818;stroke-width:0.5;" width="167.7617" x="437" y="217"/><ellipse cx="452" cy="233" fill="#F1F1F1" rx="11" ry="11" style="stroke:#181818;stroke-width:1;"/><path d="M451.4844,233.5625 Q449.625,232.8594 448.9688,232.0938 Q448.3281,231.3125 448.3281,230 Q448.3281,228.3125 449.4063,227.3438 Q450.4844,226.375 452.3594,226.375 Q453.2188,226.375 454.0625,226.5781 Q454.9219,226.7656 455.7656,227.1563 L455.7656,229.5469 Q454.9844,228.9844 454.1563,228.7031 Q453.3438,228.4063 452.5469,228.4063 Q451.6719,228.4063 451.1875,228.7656 Q450.7188,229.125 450.7188,229.7813 Q450.7188,230.2969 451.0625,230.6406 Q451.4063,230.9688 452.5,231.375 L453.5625,231.7813 Q455.0469,232.3281 455.75,233.2344 Q456.4688,234.1406 456.4688,235.5156 Q456.4688,237.3906 455.3594,238.3125 Q454.25,239.2344 452,239.2344 Q451.0781,239.2344 450.1563,239.0156 Q449.2344,238.7969 448.375,238.375 L448.375,235.8438 Q449.3438,236.5313 450.2656,236.875 Q451.1875,237.2188 452.0781,237.2188 Q452.9844,237.2188 453.4844,236.8125 Q453.9844,236.3906 453.9844,235.6563 Q453.9844,235.0938 453.6406,234.6875 Q453.3125,234.2656 452.6875,234.0156 L451.4844,233.5625 Z " fill="#000000"/><text fill="#000000" font-family="sans-serif" font-size="14" lengthAdjust="spacing" textLength="135.7617" x="466" y="237.8467">feo::agent::Primary</text><line style="stroke:#181818;stroke-width:0.5;" x1="438" x2="603.7617" y1="249" y2="249"/><line style="stroke:#181818;stroke-width:0.5;" x1="438" x2="603.7617" y1="257" y2="257"/></g><!--class feo_primary_config--><g id="elem_feo_primary_config"><rect codeLine="20" fill="#F1F1F1" height="48" id="feo_primary_config" rx="2.5" ry="2.5" style="stroke:#181818;stroke-width:0.5;" width="212.6807" x="639.5" y="217"/><ellipse cx="654.5" cy="233" fill="#F1F1F1" rx="11" ry="11" style="stroke:#181818;stroke-width:1;"/><path d="M653.9844,233.5625 Q652.125,232.8594 651.4688,232.0938 Q650.8281,231.3125 650.8281,230 Q650.8281,228.3125 651.9063,227.3438 Q652.9844,226.375 654.8594,226.375 Q655.7188,226.375 656.5625,226.5781 Q657.4219,226.7656 658.2656,227.1563 L658.2656,229.5469 Q657.4844,228.9844 656.6563,228.7031 Q655.8438,228.4063 655.0469,228.4063 Q654.1719,228.4063 653.6875,228.7656 Q653.2188,229.125 653.2188,229.7813 Q653.2188,230.2969 653.5625,230.6406 Q653.9063,230.9688 655,231.375 L656.0625,231.7813 Q657.5469,232.3281 658.25,233.2344 Q658.9688,234.1406 658.9688,235.5156 Q658.9688,237.3906 657.8594,238.3125 Q656.75,239.2344 654.5,239.2344 Q653.5781,239.2344 652.6563,239.0156 Q651.7344,238.7969 650.875,238.375 L650.875,235.8438 Q651.8438,236.5313 652.7656,236.875 Q653.6875,237.2188 654.5781,237.2188 Q655.4844,237.2188 655.9844,236.8125 Q656.4844,236.3906 656.4844,235.6563 Q656.4844,235.0938 656.1406,234.6875 Q655.8125,234.2656 655.1875,234.0156 L653.9844,233.5625 Z " fill="#000000"/><text fill="#000000" font-family="sans-serif" font-size="14" lengthAdjust="spacing" textLength="180.6807" x="668.5" y="237.8467">feo::agent::PrimaryConfig</text><line style="stroke:#181818;stroke-width:0.5;" x1="640.5" x2="851.1807" y1="249" y2="249"/><line style="stroke:#181818;stroke-width:0.5;" x1="640.5" x2="851.1807" y1="257" y2="257"/></g><!--class feo_secondary--><g id="elem_feo_secondary"><rect codeLine="21" fill="#F1F1F1" height="48" id="feo_secondary" rx="2.5" ry="2.5" style="stroke:#181818;stroke-width:0.5;" width="187.5586" x="888" y="217"/><ellipse cx="903" cy="233" fill="#F1F1F1" rx="11" ry="11" style="stroke:#181818;stroke-width:1;"/><path d="M902.4844,233.5625 Q900.625,232.8594 899.9688,232.0938 Q899.3281,231.3125 899.3281,230 Q899.3281,228.3125 900.4063,227.3438 Q901.4844,226.375 903.3594,226.375 Q904.2188,226.375 905.0625,226.5781 Q905.9219,226.7656 906.7656,227.1563 L906.7656,229.5469 Q905.9844,228.9844 905.1563,228.7031 Q904.3438,228.4063 903.5469,228.4063 Q902.6719,228.4063 902.1875,228.7656 Q901.7188,229.125 901.7188,229.7813 Q901.7188,230.2969 902.0625,230.6406 Q902.4063,230.9688 903.5,231.375 L904.5625,231.7813 Q906.0469,232.3281 906.75,233.2344 Q907.4688,234.1406 907.4688,235.5156 Q907.4688,237.3906 906.3594,238.3125 Q905.25,239.2344 903,239.2344 Q902.0781,239.2344 901.1563,239.0156 Q900.2344,238.7969 899.375,238.375 L899.375,235.8438 Q900.3438,236.5313 901.2656,236.875 Q902.1875,237.2188 903.0781,237.2188 Q903.9844,237.2188 904.4844,236.8125 Q904.9844,236.3906 904.9844,235.6563 Q904.9844,235.0938 904.6406,234.6875 Q904.3125,234.2656 903.6875,234.0156 L902.4844,233.5625 Z " fill="#000000"/><text fill="#000000" font-family="sans-serif" font-size="14" lengthAdjust="spacing" textLength="155.5586" x="917" y="237.8467">feo::agent::Secondary</text><line style="stroke:#181818;stroke-width:0.5;" x1="889" x2="1074.5586" y1="249" y2="249"/><line style="stroke:#181818;stroke-width:0.5;" x1="889" x2="1074.5586" y1="257" y2="257"/></g><!--class feo_secondary_config--><g id="elem_feo_secondary_config"><rect codeLine="22" fill="#F1F1F1" height="48" id="feo_secondary_config" rx="2.5" ry="2.5" style="stroke:#181818;stroke-width:0.5;" width="232.4775" x="1111" y="217"/><ellipse cx="1126" cy="233" fill="#F1F1F1" rx="11" ry="11" style="stroke:#181818;stroke-width:1;"/><path d="M1125.4844,233.5625 Q1123.625,232.8594 1122.9688,232.0938 Q1122.3281,231.3125 1122.3281,230 Q1122.3281,228.3125 1123.4063,227.3438 Q1124.4844,226.375 1126.3594,226.375 Q1127.2188,226.375 1128.0625,226.5781 Q1128.9219,226.7656 1129.7656,227.1563 L1129.7656,229.5469 Q1128.9844,228.9844 1128.1563,228.7031 Q1127.3438,228.4063 1126.5469,228.4063 Q1125.6719,228.4063 1125.1875,228.7656 Q1124.7188,229.125 1124.7188,229.7813 Q1124.7188,230.2969 1125.0625,230.6406 Q1125.4063,230.9688 1126.5,231.375 L1127.5625,231.7813 Q1129.0469,232.3281 1129.75,233.2344 Q1130.4688,234.1406 1130.4688,235.5156 Q1130.4688,237.3906 1129.3594,238.3125 Q1128.25,239.2344 1126,239.2344 Q1125.0781,239.2344 1124.1563,239.0156 Q1123.2344,238.7969 1122.375,238.375 L1122.375,235.8438 Q1123.3438,236.5313 1124.2656,236.875 Q1125.1875,237.2188 1126.0781,237.2188 Q1126.9844,237.2188 1127.4844,236.8125 Q1127.9844,236.3906 1127.9844,235.6563 Q1127.9844,235.0938 1127.6406,234.6875 Q1127.3125,234.2656 1126.6875,234.0156 L1125.4844,233.5625 Z " fill="#000000"/><text fill="#000000" font-family="sans-serif" font-size="14" lengthAdjust="spacing" textLength="200.4775" x="1140" y="237.8467">feo::agent::SecondaryConfig</text><line style="stroke:#181818;stroke-width:0.5;" x1="1112" x2="1342.4775" y1="249" y2="249"/><line style="stroke:#181818;stroke-width:0.5;" x1="1112" x2="1342.4775" y1="257" y2="257"/></g><!--class feo_scheduler--><g id="elem_feo_scheduler"><rect codeLine="23" fill="#F1F1F1" height="80.5938" id="feo_scheduler" rx="2.5" ry="2.5" style="stroke:#181818;stroke-width:0.5;" width="211.5596" x="648" y="352"/><ellipse cx="663" cy="368" fill="#F1F1F1" rx="11" ry="11" style="stroke:#181818;stroke-width:1;"/><path d="M662.4844,368.5625 Q660.625,367.8594 659.9688,367.0938 Q659.3281,366.3125 659.3281,365 Q659.3281,363.3125 660.4063,362.3438 Q661.4844,361.375 663.3594,361.375 Q664.2188,361.375 665.0625,361.5781 Q665.9219,361.7656 666.7656,362.1563 L666.7656,364.5469 Q665.9844,363.9844 665.1563,363.7031 Q664.3438,363.4063 663.5469,363.4063 Q662.6719,363.4063 662.1875,363.7656 Q661.7188,364.125 661.7188,364.7813 Q661.7188,365.2969 662.0625,365.6406 Q662.4063,365.9688 663.5,366.375 L664.5625,366.7813 Q666.0469,367.3281 666.75,368.2344 Q667.4688,369.1406 667.4688,370.5156 Q667.4688,372.3906 666.3594,373.3125 Q665.25,374.2344 663,374.2344 Q662.0781,374.2344 661.1563,374.0156 Q660.2344,373.7969 659.375,373.375 L659.375,370.8438 Q660.3438,371.5313 661.2656,371.875 Q662.1875,372.2188 663.0781,372.2188 Q663.9844,372.2188 664.4844,371.8125 Q664.9844,371.3906 664.9844,370.6563 Q664.9844,370.0938 664.6406,369.6875 Q664.3125,369.2656 663.6875,369.0156 L662.4844,368.5625 Z " fill="#000000"/><text fill="#000000" font-family="sans-serif" font-size="14" lengthAdjust="spacing" textLength="179.5596" x="677" y="372.8467">feo::scheduler::Scheduler</text><line style="stroke:#181818;stroke-width:0.5;" x1="649" x2="858.5596" y1="384" y2="384"/><line style="stroke:#181818;stroke-width:0.5;" x1="649" x2="858.5596" y1="392" y2="392"/><text fill="#000000" font-family="sans-serif" font-size="14" lengthAdjust="spacing" textLength="34.4258" x="654" y="408.9951">run()</text><text fill="#000000" font-family="sans-serif" font-size="14" lengthAdjust="spacing" textLength="108.042" x="654" y="425.292">sync_remotes()</text></g><!--class activity--><g id="elem_activity"><rect codeLine="28" fill="#F1F1F1" height="96.8906" id="activity" rx="2.5" ry="2.5" style="stroke:#181818;stroke-width:0.5;" width="177.1816" x="436.5" y="344"/><ellipse cx="451.5" cy="360" fill="#B4A7E5" rx="11" ry="11" style="stroke:#181818;stroke-width:1;"/><path d="M447.4219,355.7656 L447.4219,353.6094 L454.8125,353.6094 L454.8125,355.7656 L452.3438,355.7656 L452.3438,363.8438 L454.8125,363.8438 L454.8125,366 L447.4219,366 L447.4219,363.8438 L449.8906,363.8438 L449.8906,355.7656 L447.4219,355.7656 Z " fill="#000000"/><text fill="#000000" font-family="sans-serif" font-size="14" font-style="italic" lengthAdjust="spacing" textLength="145.1816" x="465.5" y="364.8467">feo::activity::Activity</text><line style="stroke:#181818;stroke-width:0.5;" x1="437.5" x2="612.6816" y1="376" y2="376"/><line style="stroke:#181818;stroke-width:0.5;" x1="437.5" x2="612.6816" y1="384" y2="384"/><text fill="#000000" font-family="sans-serif" font-size="14" lengthAdjust="spacing" textLength="61.291" x="442.5" y="400.9951">startup()</text><text fill="#000000" font-family="sans-serif" font-size="14" lengthAdjust="spacing" textLength="41.207" x="442.5" y="417.292">step()</text><text fill="#000000" font-family="sans-serif" font-size="14" lengthAdjust="spacing" textLength="79.2285" x="442.5" y="433.5889">shutdown()</text></g><!--entity PP--><g id="elem_PP"><rect fill="#F1F1F1" height="46.2969" rx="2.5" ry="2.5" style="stroke:#181818;stroke-width:0.5;" width="152.458" x="22" y="57"/><rect fill="#F1F1F1" height="10" style="stroke:#181818;stroke-width:0.5;" width="15" x="154.458" y="62"/><rect fill="#F1F1F1" height="2" style="stroke:#181818;stroke-width:0.5;" width="4" x="152.458" y="64"/><rect fill="#F1F1F1" height="2" style="stroke:#181818;stroke-width:0.5;" width="4" x="152.458" y="68"/><text fill="#000000" font-family="sans-serif" font-size="14" lengthAdjust="spacing" textLength="112.458" x="37" y="89.9951">Primary Process</text></g><!--entity SP--><g id="elem_SP"><rect fill="#F1F1F1" height="46.2969" rx="2.5" ry="2.5" style="stroke:#181818;stroke-width:0.5;" width="172.2549" x="209" y="57"/><rect fill="#F1F1F1" height="10" style="stroke:#181818;stroke-width:0.5;" width="15" x="361.2549" y="62"/><rect fill="#F1F1F1" height="2" style="stroke:#181818;stroke-width:0.5;" width="4" x="359.2549" y="64"/><rect fill="#F1F1F1" height="2" style="stroke:#181818;stroke-width:0.5;" width="4" x="359.2549" y="68"/><text fill="#000000" font-family="sans-serif" font-size="14" lengthAdjust="spacing" textLength="132.2549" x="224" y="89.9951">Secondary Process</text></g><!--class user_activity_1--><g id="elem_user_activity_1"><rect codeLine="46" fill="#F1F1F1" height="48" id="user_activity_1" rx="2.5" ry="2.5" style="stroke:#181818;stroke-width:0.5;" width="132.4199" x="57" y="217"/><ellipse cx="72" cy="233" fill="#F1F1F1" rx="11" ry="11" style="stroke:#181818;stroke-width:1;"/><path d="M71.4844,233.5625 Q69.625,232.8594 68.9688,232.0938 Q68.3281,231.3125 68.3281,230 Q68.3281,228.3125 69.4063,227.3438 Q70.4844,226.375 72.3594,226.375 Q73.2188,226.375 74.0625,226.5781 Q74.9219,226.7656 75.7656,227.1563 L75.7656,229.5469 Q74.9844,228.9844 74.1563,228.7031 Q73.3438,228.4063 72.5469,228.4063 Q71.6719,228.4063 71.1875,228.7656 Q70.7188,229.125 70.7188,229.7813 Q70.7188,230.2969 71.0625,230.6406 Q71.4063,230.9688 72.5,231.375 L73.5625,231.7813 Q75.0469,232.3281 75.75,233.2344 Q76.4688,234.1406 76.4688,235.5156 Q76.4688,237.3906 75.3594,238.3125 Q74.25,239.2344 72,239.2344 Q71.0781,239.2344 70.1563,239.0156 Q69.2344,238.7969 68.375,238.375 L68.375,235.8438 Q69.3438,236.5313 70.2656,236.875 Q71.1875,237.2188 72.0781,237.2188 Q72.9844,237.2188 73.4844,236.8125 Q73.9844,236.3906 73.9844,235.6563 Q73.9844,235.0938 73.6406,234.6875 Q73.3125,234.2656 72.6875,234.0156 L71.4844,233.5625 Z " fill="#000000"/><text fill="#000000" font-family="sans-serif" font-size="14" lengthAdjust="spacing" textLength="100.4199" x="86" y="237.8467">UserActivity_1</text><line style="stroke:#181818;stroke-width:0.5;" x1="58" x2="188.4199" y1="249" y2="249"/><line style="stroke:#181818;stroke-width:0.5;" x1="58" x2="188.4199" y1="257" y2="257"/></g><!--class user_activity_2--><g id="elem_user_activity_2"><rect codeLine="47" fill="#F1F1F1" height="48" id="user_activity_2" rx="2.5" ry="2.5" style="stroke:#181818;stroke-width:0.5;" width="132.4199" x="244" y="217"/><ellipse cx="259" cy="233" fill="#F1F1F1" rx="11" ry="11" style="stroke:#181818;stroke-width:1;"/><path d="M258.4844,233.5625 Q256.625,232.8594 255.9688,232.0938 Q255.3281,231.3125 255.3281,230 Q255.3281,228.3125 256.4063,227.3438 Q257.4844,226.375 259.3594,226.375 Q260.2188,226.375 261.0625,226.5781 Q261.9219,226.7656 262.7656,227.1563 L262.7656,229.5469 Q261.9844,228.9844 261.1563,228.7031 Q260.3438,228.4063 259.5469,228.4063 Q258.6719,228.4063 258.1875,228.7656 Q257.7188,229.125 257.7188,229.7813 Q257.7188,230.2969 258.0625,230.6406 Q258.4063,230.9688 259.5,231.375 L260.5625,231.7813 Q262.0469,232.3281 262.75,233.2344 Q263.4688,234.1406 263.4688,235.5156 Q263.4688,237.3906 262.3594,238.3125 Q261.25,239.2344 259,239.2344 Q258.0781,239.2344 257.1563,239.0156 Q256.2344,238.7969 255.375,238.375 L255.375,235.8438 Q256.3438,236.5313 257.2656,236.875 Q258.1875,237.2188 259.0781,237.2188 Q259.9844,237.2188 260.4844,236.8125 Q260.9844,236.3906 260.9844,235.6563 Q260.9844,235.0938 260.6406,234.6875 Q260.3125,234.2656 259.6875,234.0156 L258.4844,233.5625 Z " fill="#000000"/><text fill="#000000" font-family="sans-serif" font-size="14" lengthAdjust="spacing" textLength="100.4199" x="273" y="237.8467">UserActivity_2</text><line style="stroke:#181818;stroke-width:0.5;" x1="245" x2="375.4199" y1="249" y2="249"/><line style="stroke:#181818;stroke-width:0.5;" x1="245" x2="375.4199" y1="257" y2="257"/></g><!--link feo_primary to activity--><g id="link_feo_primary_activity"><path codeLine="34" d="M521.62,265.03 C522.18,286 522.8585,311.6222 523.5685,337.9922 " fill="transparent" id="feo_primary-to-activity" style="stroke:#181818;stroke-width:1;"/><polygon fill="#181818" points="523.73,343.99,527.4863,334.8856,523.5954,338.9918,519.4892,335.1009,523.73,343.99" style="stroke:#181818;stroke-width:1;"/><text fill="#000000" font-family="sans-serif" font-size="13" lengthAdjust="spacing" textLength="23.0103" x="523" y="310.0669">use</text></g><!--link feo_primary to feo_scheduler--><g id="link_feo_primary_feo_scheduler"><path codeLine="35" d="M556.9,265.03 C592.89,288.13 643.9802,320.9098 687.1502,348.6098 " fill="transparent" id="feo_primary-to-feo_scheduler" style="stroke:#181818;stroke-width:1;"/><polygon fill="#181818" points="692.2,351.85,686.7854,343.6231,687.9918,349.1498,682.4651,350.3562,692.2,351.85" style="stroke:#181818;stroke-width:1;"/><text fill="#000000" font-family="sans-serif" font-size="13" lengthAdjust="spacing" textLength="23.0103" x="631" y="310.0669">use</text></g><!--link feo_secondary to activity--><g id="link_feo_secondary_activity"><path codeLine="37" d="M932.23,265.04 C913.06,273.34 890.77,282.31 870,289 C766.26,322.43 734.34,309.33 631,344 C625.26,345.92 625.0213,345.8993 619.1613,348.1493 " fill="transparent" id="feo_secondary-to-activity" style="stroke:#181818;stroke-width:1;"/><polygon fill="#181818" points="613.56,350.3,623.3957,350.8082,618.2278,348.5078,620.5282,343.3398,613.56,350.3" style="stroke:#181818;stroke-width:1;"/><text fill="#000000" font-family="sans-serif" font-size="13" lengthAdjust="spacing" textLength="23.0103" x="841" y="310.0669">use</text></g><!--link PP to user_activity_1--><g id="link_PP_user_activity_1"><path codeLine="49" d="M101.48,103.11 C106.19,133.06 113.6175,180.3529 118.4175,210.8629 " fill="transparent" id="PP-to-user_activity_1" style="stroke:#181818;stroke-width:1;"/><polygon fill="#181818" points="119.35,216.79,121.9027,207.2777,118.5729,211.8508,113.9999,208.521,119.35,216.79" style="stroke:#181818;stroke-width:1;"/><text fill="#000000" font-family="sans-serif" font-size="13" lengthAdjust="spacing" textLength="23.0103" x="110" y="146.0669">use</text></g><!--link SP to user_activity_2--><g id="link_SP_user_activity_2"><path codeLine="50" d="M297.09,103.11 C299.91,133.06 304.3661,180.3066 307.2461,210.8166 " fill="transparent" id="SP-to-user_activity_2" style="stroke:#181818;stroke-width:1;"/><polygon fill="#181818" points="307.81,216.79,310.9465,207.4539,307.3401,211.8121,302.9819,208.2057,307.81,216.79" style="stroke:#181818;stroke-width:1;"/><text fill="#000000" font-family="sans-serif" font-size="13" lengthAdjust="spacing" textLength="23.0103" x="303" y="146.0669">use</text></g><!--link user_activity_1 to activity--><g id="link_user_activity_1_activity"><path codeLine="52" d="M171.05,265.1 C188.23,273.05 207.83,281.76 226,289 C295.71,316.78 359.1494,338.5727 419.0694,358.0227 " fill="transparent" id="user_activity_1-to-activity" style="stroke:#181818;stroke-width:1;stroke-dasharray:7.0,7.0;"/><polygon fill="transparent" points="436.19,363.58,420.9218,352.3158,417.2169,363.7295,436.19,363.58" style="stroke:#181818;stroke-width:1;"/><text fill="#000000" font-family="sans-serif" font-size="13" lengthAdjust="spacing" textLength="28.1392" x="292" y="310.0669">impl</text></g><!--link user_activity_2 to activity--><g id="link_user_activity_2_activity"><path codeLine="53" d="M343.12,265.03 C373.28,286 403.9708,307.3451 441.9008,333.7151 " fill="transparent" id="user_activity_2-to-activity" style="stroke:#181818;stroke-width:1;stroke-dasharray:7.0,7.0;"/><polygon fill="transparent" points="456.68,343.99,445.3257,328.7887,438.4758,338.6415,456.68,343.99" style="stroke:#181818;stroke-width:1;"/><text fill="#000000" font-family="sans-serif" font-size="13" lengthAdjust="spacing" textLength="28.1392" x="412" y="310.0669">impl</text></g><!--link PP to feo_primary--><g id="link_PP_feo_primary"><path codeLine="56" d="M174.09,99.18 C179.81,100.49 185.49,101.78 191,103 C283.5,123.57 313.11,113.92 397,158 C430.13,175.41 460.6347,195.9026 485.0847,213.4426 " fill="transparent" id="PP-to-feo_primary" style="stroke:#181818;stroke-width:1;"/><polygon fill="#181818" points="489.96,216.94,484.9787,208.4437,485.8973,214.0255,480.3155,214.944,489.96,216.94" style="stroke:#181818;stroke-width:1;"/><text fill="#000000" font-family="sans-serif" font-size="13" lengthAdjust="spacing" textLength="23.0103" x="379" y="146.0669">use</text></g><!--link PP to feo_primary_config--><g id="link_PP_feo_primary_config"><path codeLine="57" d="M174.25,99.72 C179.9,100.9 185.53,102.01 191,103 C381.44,137.55 441.68,90.3 623,158 C659.31,171.55 690.9149,193.8769 714.5549,212.9969 " fill="transparent" id="PP-to-feo_primary_config" style="stroke:#181818;stroke-width:1;"/><polygon fill="#181818" points="719.22,216.77,714.7377,208.0002,715.3324,213.6257,709.7069,214.2204,719.22,216.77" style="stroke:#181818;stroke-width:1;"/><text fill="#000000" font-family="sans-serif" font-size="13" lengthAdjust="spacing" textLength="23.0103" x="592" y="146.0669">use</text></g><!--link SP to feo_secondary--><g id="link_SP_feo_secondary"><path codeLine="58" d="M381.25,87.3 C519.29,98.26 783.16,123.06 870,158 C903.76,171.58 932.1941,193.663 953.5041,212.783 " fill="transparent" id="SP-to-feo_secondary" style="stroke:#181818;stroke-width:1;"/><polygon fill="#181818" points="957.97,216.79,953.9424,207.8023,954.2484,213.4509,948.5998,213.7568,957.97,216.79" style="stroke:#181818;stroke-width:1;"/><text fill="#000000" font-family="sans-serif" font-size="13" lengthAdjust="spacing" textLength="23.0103" x="846" y="146.0669">use</text></g><!--link SP to feo_secondary_config--><g id="link_SP_feo_secondary_config"><path codeLine="59" d="M381.07,84.17 C559.54,91.59 964.06,112.93 1094,158 C1132.83,171.47 1167.4697,194.1238 1193.2097,213.3138 " fill="transparent" id="SP-to-feo_secondary_config" style="stroke:#181818;stroke-width:1;"/><polygon fill="#181818" points="1198.02,216.9,1193.1954,208.3138,1194.0114,213.9115,1188.4137,214.7275,1198.02,216.9" style="stroke:#181818;stroke-width:1;"/><text fill="#000000" font-family="sans-serif" font-size="13" lengthAdjust="spacing" textLength="23.0103" x="1059" y="146.0669">use</text></g><!--SRC=[hLDDQzj04BtxLmpk8Kx1TYheHGH3I5q8X4IWjFHcDhihQOYqAtPNKKsR_zwHLbysTdE9BjACthmt-sPsVJ43W4_m-MCVJtghoxt1D7Emu9SGN0LVAQMSmUVAQMF1QN2PX2tFiRGIlkjA2UPGgxRSSyHIjg27nwUxsoqacCk5lGI1rlD80JMwZ31eeTRc1H9jW0c13H7BFGigoXOjDnYPCYDGfS27_dIjfB4Pbgk9z5D3MHgT6bO0KwBjWt6kYvAfVKD0ZD8Wooqm8oaIzF-LOSwUSmbq66cQ6iz6oCA2JbgMcv9nUjqZbufE_fF4czQ2rHNK6V8CI7baOivJPCwLDbolwxfUiPPXfKswpZsBNT-JGm_nTaaqKmUZRx-MdTBoJaZbC45fmgw90VtXEt2ndh4yrtM1lycisOpaNbXASzu-mlLr8fchZDniW5beWbqYDVoPDRq03RVY3kQK2aEgKIuC8uC5C_kvn-jTwUFtyBHn2QR7LJlUfiyMnv80OYfd-ypxDKUIG-LPKKjp45LEGmdZ_dCixpDa3dIFgTJYSeZiNl6TaOLsqdRfD-yZAbgxX77PTyeTlgBRX-5DzzNAzEc9WdNCkAgSgZXv46QL4tHl3WKd5iDIB3S3TGYLbQSX1uVqk04uU7UARVOsBjNyXoM7RigIRaDxp-UqOsmC_PvHbTbDils-DNTQAveYpBkrWSXeBgrj_OcYOzGmwmDS71skRzDJR_JkotpiOCYTXmSdu86dZoBlnX4NZ1x79n41JDmzBbw9rT_HO49YKUOdaC4P9CsYxsiwOQzuuazt6Jf0F06CC__FlyFoVm00]--></g></svg>