<svg xmlns="http://www.w3.org/2000/svg" xmlns:xlink="http://www.w3.org/1999/xlink" contentStyleType="text/css" data-diagram-type="SEQUENCE" height="245px" preserveAspectRatio="none" style="width:296px;height:245px;background:#FFFFFF;" version="1.1" viewBox="0 0 296 245" width="296px" zoomAndPan="magnify"><title>Sequence Diagram - unit1 &amp; unit2</title><defs/><g><text fill="#000000" font-family="sans-serif" font-size="14" font-weight="bold" lengthAdjust="spacing" textLength="268.3721" x="10" y="27.9951">Sequence Diagram - unit1 &amp; unit2</text><g><title>unit1</title><rect fill="transparent" height="136.5313" width="8" x="110.6699" y="73.5938"/><line style="stroke:#181818;stroke-width:0.5;stroke-dasharray:5.0,5.0;" x1="114.6538" x2="114.6538" y1="73.5938" y2="210.125"/></g><g><title>unit2</title><rect fill="transparent" height="136.5313" width="8" x="170.7021" y="73.5938"/><line style="stroke:#181818;stroke-width:0.5;stroke-dasharray:5.0,5.0;" x1="174.686" x2="174.686" y1="73.5938" y2="210.125"/></g><rect fill="#E2E2F0" height="30.2969" rx="2.5" ry="2.5" style="stroke:#181818;stroke-width:0.5;" width="50.0322" x="89.6538" y="42.2969"/><text fill="#000000" font-family="sans-serif" font-size="14" lengthAdjust="spacing" textLength="36.0322" x="96.6538" y="62.292">unit1</text><rect fill="#E2E2F0" height="30.2969" rx="2.5" ry="2.5" style="stroke:#181818;stroke-width:0.5;" width="50.0322" x="89.6538" y="209.125"/><text fill="#000000" font-family="sans-serif" font-size="14" lengthAdjust="spacing" textLength="36.0322" x="96.6538" y="229.1201">unit1</text><rect fill="#E2E2F0" height="30.2969" rx="2.5" ry="2.5" style="stroke:#181818;stroke-width:0.5;" width="50.0322" x="149.686" y="42.2969"/><text fill="#000000" font-family="sans-serif" font-size="14" lengthAdjust="spacing" textLength="36.0322" x="156.686" y="62.292">unit2</text><rect fill="#E2E2F0" height="30.2969" rx="2.5" ry="2.5" style="stroke:#181818;stroke-width:0.5;" width="50.0322" x="149.686" y="209.125"/><text fill="#000000" font-family="sans-serif" font-size="14" lengthAdjust="spacing" textLength="36.0322" x="156.686" y="229.1201">unit2</text><polygon fill="#181818" points="162.7021,100.7266,172.7021,104.7266,162.7021,108.7266,166.7021,104.7266" style="stroke:#181818;stroke-width:1;"/><line style="stroke:#181818;stroke-width:1;" x1="114.6699" x2="168.7021" y1="104.7266" y2="104.7266"/><text fill="#000000" font-family="sans-serif" font-size="13" lengthAdjust="spacing" textLength="28.1011" x="121.6699" y="99.6606">api1</text><polygon fill="#181818" points="125.6699,129.8594,115.6699,133.8594,125.6699,137.8594,121.6699,133.8594" style="stroke:#181818;stroke-width:1;"/><line style="stroke:#181818;stroke-width:1;stroke-dasharray:2.0,2.0;" x1="119.6699" x2="173.7021" y1="133.8594" y2="133.8594"/><text fill="#000000" font-family="sans-serif" font-size="13" lengthAdjust="spacing" textLength="16.9482" x="131.6699" y="128.7935">int</text><polygon fill="#181818" points="162.7021,158.9922,172.7021,162.9922,162.7021,166.9922,166.7021,162.9922" style="stroke:#181818;stroke-width:1;"/><line style="stroke:#181818;stroke-width:1;" x1="114.6699" x2="168.7021" y1="162.9922" y2="162.9922"/><text fill="#000000" font-family="sans-serif" font-size="13" lengthAdjust="spacing" textLength="28.1011" x="121.6699" y="157.9263">api3</text><polygon fill="#181818" points="125.6699,188.125,115.6699,192.125,125.6699,196.125,121.6699,192.125" style="stroke:#181818;stroke-width:1;"/><line style="stroke:#181818;stroke-width:1;stroke-dasharray:2.0,2.0;" x1="119.6699" x2="173.7021" y1="192.125" y2="192.125"/><text fill="#000000" font-family="sans-serif" font-size="13" lengthAdjust="spacing" textLength="16.9482" x="131.6699" y="187.0591">int</text><!--SRC=[AyaioKbL24ujB4tDIqvLSCbCJ2zAp5NGLIZDoomnL503qqPSN0M9HIMPoPa5YNab2afWEIM5n6A8Aan98xWaK2l495qx25_1IY6n8DEG2yBHXGeR0eKpyqgmApR6eHW0]--></g></svg>