<?xml version="1.0" encoding="UTF-8" standalone="no"?>
<!DOCTYPE svg PUBLIC "-//W3C//DTD SVG 1.1//EN" "http://www.w3.org/Graphics/SVG/1.1/DTD/svg11.dtd">
<svg width="100%" height="100%" viewBox="0 0 3849 1285" version="1.1" xmlns="http://www.w3.org/2000/svg" xmlns:xlink="http://www.w3.org/1999/xlink" xml:space="preserve" xmlns:serif="http://www.serif.com/" style="fill-rule:evenodd;clip-rule:evenodd;stroke-linejoin:round;stroke-miterlimit:2;">
    <g transform="matrix(1,0,0,1,-6528,-13474)">
        <g id="Final" transform="matrix(1.00957,0,0,0.836039,-62.6274,2225.74)">
            <rect x="6528.18" y="13454.2" width="3811.59" height="1536.66" style="fill:none;"/>
            <clipPath id="_clip1">
                <rect x="6528.18" y="13454.2" width="3811.59" height="1536.66"/>
            </clipPath>
            <g clip-path="url(#_clip1)">
                <g transform="matrix(10.7913,0,0,13.0311,-7799.51,3941.09)">
                    <path d="M1334.6,842.493C1333.65,842.493 1332.8,842.352 1332.02,842.068C1331.24,841.785 1330.57,841.389 1330.01,840.879C1329.45,840.37 1329.02,839.771 1328.73,839.085L1331.42,837.885C1331.71,838.401 1332.12,838.835 1332.67,839.187C1333.21,839.539 1333.83,839.715 1334.51,839.715C1335.23,839.715 1335.81,839.594 1336.24,839.351C1336.68,839.108 1336.89,838.761 1336.89,838.31C1336.89,837.88 1336.73,837.547 1336.39,837.312C1336.06,837.078 1335.58,836.883 1334.97,836.729L1333.66,836.386C1332.34,836.038 1331.31,835.495 1330.57,834.759C1329.82,834.023 1329.45,833.182 1329.45,832.234C1329.45,830.842 1329.9,829.764 1330.8,829C1331.7,828.237 1333,827.855 1334.7,827.855C1335.55,827.855 1336.34,827.981 1337.06,828.234C1337.79,828.487 1338.41,828.841 1338.92,829.296C1339.44,829.751 1339.8,830.283 1340.01,830.892L1337.4,832.075C1337.23,831.603 1336.87,831.241 1336.35,830.99C1335.83,830.738 1335.25,830.613 1334.63,830.613C1333.99,830.613 1333.49,830.749 1333.14,831.021C1332.78,831.293 1332.61,831.671 1332.61,832.154C1332.61,832.444 1332.76,832.702 1333.08,832.929C1333.39,833.156 1333.86,833.344 1334.46,833.492L1336.1,833.9C1337.02,834.123 1337.76,834.471 1338.34,834.944C1338.91,835.416 1339.34,835.945 1339.62,836.532C1339.89,837.119 1340.03,837.712 1340.03,838.31C1340.03,839.148 1339.8,839.883 1339.32,840.515C1338.85,841.148 1338.2,841.635 1337.38,841.978C1336.57,842.322 1335.64,842.493 1334.6,842.493ZM1350.95,840.423C1350.87,840.576 1350.77,840.722 1350.67,840.861C1349.91,841.949 1348.68,842.493 1347.01,842.493C1345.35,842.493 1344.05,842.119 1343.13,841.372C1342.21,840.624 1341.75,839.573 1341.75,838.219C1341.75,836.761 1342.23,835.653 1343.21,834.896C1344.18,834.14 1345.55,833.761 1347.31,833.761L1350.85,833.761C1350.8,833.33 1350.72,832.942 1350.61,832.595C1350.4,831.949 1350.09,831.454 1349.65,831.109C1349.22,830.765 1348.64,830.593 1347.91,830.593C1347.25,830.593 1346.66,830.733 1346.15,831.015C1345.64,831.297 1345.22,831.732 1344.87,832.319L1342.12,831.328C1342.42,830.712 1342.82,830.139 1343.32,829.61C1343.82,829.082 1344.44,828.657 1345.2,828.336C1345.95,828.015 1346.86,827.855 1347.91,827.855C1349.28,827.855 1350.41,828.12 1351.32,828.649C1352.23,829.179 1352.9,829.936 1353.35,830.922C1353.79,831.908 1354,833.097 1353.99,834.491L1353.93,842.158L1351.03,842.158L1350.95,840.423ZM1350.91,836.158L1348.3,836.158C1347.05,836.158 1346.17,836.332 1345.67,836.678C1345.17,837.025 1344.92,837.512 1344.92,838.139C1344.92,838.675 1345.14,839.096 1345.58,839.4C1346.02,839.704 1346.63,839.855 1347.42,839.855C1348.11,839.855 1348.72,839.701 1349.24,839.391C1349.77,839.081 1350.17,838.662 1350.47,838.135C1350.77,837.608 1350.91,837.023 1350.91,836.38L1350.91,836.158ZM1358.56,830.748L1356.14,830.748L1356.14,828.19L1358.56,828.19L1358.56,826.718C1358.56,825.236 1358.92,824.1 1359.65,823.309C1360.39,822.519 1361.5,822.124 1363,822.124C1363.48,822.124 1363.99,822.206 1364.54,822.369C1365.09,822.533 1365.62,822.743 1366.12,822.998L1364.97,825.312C1364.62,825.142 1364.31,825.018 1364.04,824.941C1363.77,824.864 1363.54,824.825 1363.34,824.825C1362.78,824.825 1362.36,825.011 1362.09,825.381C1361.81,825.752 1361.67,826.342 1361.67,827.151L1361.67,828.19L1365.35,828.19L1365.35,830.748L1361.67,830.748L1361.67,842.158L1358.56,842.158L1358.56,830.748ZM1370.32,835.93C1370.37,836.625 1370.55,837.236 1370.86,837.765C1371.23,838.39 1371.72,838.868 1372.34,839.199C1372.96,839.53 1373.64,839.695 1374.39,839.695C1375.25,839.695 1375.95,839.503 1376.51,839.119C1377.08,838.735 1377.51,838.238 1377.82,837.627L1380.58,838.793C1380.19,839.549 1379.7,840.206 1379.09,840.763C1378.49,841.321 1377.77,841.748 1376.93,842.046C1376.11,842.344 1375.16,842.493 1374.11,842.493C1372.75,842.493 1371.53,842.181 1370.48,841.557C1369.43,840.933 1368.6,840.072 1368,838.973C1367.4,837.875 1367.1,836.608 1367.1,835.174C1367.1,833.74 1367.41,832.474 1368.02,831.375C1368.63,830.276 1369.47,829.415 1370.54,828.791C1371.6,828.167 1372.83,827.855 1374.21,827.855C1375.47,827.855 1376.6,828.176 1377.6,828.819C1378.6,829.461 1379.39,830.386 1379.98,831.593C1380.56,832.799 1380.86,834.245 1380.86,835.93L1370.32,835.93ZM1370.51,833.533L1377.49,833.533C1377.44,832.945 1377.28,832.446 1377.01,832.036C1376.68,831.538 1376.26,831.163 1375.75,830.911C1375.24,830.658 1374.7,830.532 1374.13,830.532C1373.57,830.532 1373.01,830.658 1372.45,830.911C1371.89,831.163 1371.42,831.537 1371.05,832.032C1370.74,832.442 1370.56,832.942 1370.51,833.533ZM1396.43,842.493C1395.03,842.493 1393.78,842.181 1392.7,841.557C1391.62,840.933 1390.77,840.072 1390.15,838.973C1389.54,837.875 1389.23,836.608 1389.23,835.174C1389.23,833.74 1389.54,832.474 1390.14,831.375C1390.75,830.276 1391.59,829.415 1392.67,828.791C1393.75,828.167 1394.99,827.855 1396.37,827.855C1397.78,827.855 1399.02,828.167 1400.1,828.791C1401.18,829.415 1402.03,830.276 1402.63,831.375C1403.24,832.474 1403.54,833.74 1403.54,835.174C1403.54,836.608 1403.24,837.875 1402.64,838.973C1402.03,840.072 1401.19,840.933 1400.12,841.557C1399.05,842.181 1397.82,842.493 1396.43,842.493ZM1396.43,839.623C1397.2,839.623 1397.88,839.433 1398.47,839.054C1399.06,838.674 1399.52,838.151 1399.86,837.485C1400.2,836.818 1400.37,836.048 1400.37,835.174C1400.37,834.3 1400.2,833.53 1399.86,832.863C1399.52,832.197 1399.05,831.674 1398.45,831.294C1397.84,830.915 1397.15,830.725 1396.38,830.725C1395.6,830.725 1394.92,830.915 1394.32,831.294C1393.72,831.673 1393.26,832.196 1392.92,832.862C1392.58,833.528 1392.41,834.298 1392.41,835.171C1392.41,836.045 1392.58,836.815 1392.92,837.481C1393.27,838.146 1393.74,838.67 1394.35,839.051C1394.96,839.433 1395.65,839.623 1396.43,839.623ZM1409.49,840.09L1409.49,847.745L1406.37,847.745L1406.37,828.19L1409.31,828.19L1409.46,830.304C1409.85,829.679 1410.32,829.165 1410.89,828.761C1411.73,828.157 1412.74,827.855 1413.9,827.855C1415.17,827.855 1416.28,828.157 1417.23,828.761C1418.17,829.364 1418.91,830.214 1419.43,831.309C1419.95,832.404 1420.22,833.692 1420.22,835.174C1420.22,836.638 1419.95,837.921 1419.43,839.025C1418.91,840.13 1418.17,840.984 1417.23,841.588C1416.28,842.191 1415.17,842.493 1413.9,842.493C1412.74,842.493 1411.73,842.191 1410.89,841.588C1410.34,841.194 1409.87,840.695 1409.49,840.09ZM1409.49,835.175C1409.49,836.046 1409.65,836.818 1409.96,837.491C1410.27,838.164 1410.7,838.691 1411.25,839.07C1411.8,839.45 1412.42,839.639 1413.14,839.639C1413.89,839.639 1414.55,839.449 1415.13,839.067C1415.71,838.686 1416.16,838.159 1416.5,837.488C1416.84,836.817 1417,836.045 1417,835.174C1417,834.302 1416.84,833.531 1416.52,832.861C1416.19,832.19 1415.74,831.666 1415.16,831.288C1414.58,830.91 1413.92,830.721 1413.16,830.721C1412.45,830.721 1411.82,830.91 1411.26,831.288C1410.7,831.667 1410.27,832.191 1409.96,832.862C1409.65,833.533 1409.49,834.304 1409.49,835.175ZM1425.35,835.93C1425.4,836.625 1425.58,837.236 1425.89,837.765C1426.26,838.39 1426.76,838.868 1427.37,839.199C1427.99,839.53 1428.67,839.695 1429.42,839.695C1430.28,839.695 1430.98,839.503 1431.55,839.119C1432.11,838.735 1432.54,838.238 1432.85,837.627L1435.61,838.793C1435.23,839.549 1434.73,840.206 1434.12,840.763C1433.52,841.321 1432.8,841.748 1431.97,842.046C1431.14,842.344 1430.19,842.493 1429.14,842.493C1427.78,842.493 1426.57,842.181 1425.51,841.557C1424.46,840.933 1423.63,840.072 1423.03,838.973C1422.43,837.875 1422.13,836.608 1422.13,835.174C1422.13,833.74 1422.44,832.474 1423.05,831.375C1423.66,830.276 1424.5,829.415 1425.57,828.791C1426.63,828.167 1427.86,827.855 1429.24,827.855C1430.5,827.855 1431.63,828.176 1432.63,828.819C1433.63,829.461 1434.43,830.386 1435.01,831.593C1435.59,832.799 1435.89,834.245 1435.89,835.93L1425.35,835.93ZM1425.54,833.533L1432.52,833.533C1432.47,832.945 1432.31,832.446 1432.04,832.036C1431.71,831.538 1431.29,831.163 1430.78,830.911C1430.27,830.658 1429.73,830.532 1429.16,830.532C1428.6,830.532 1428.04,830.658 1427.48,830.911C1426.92,831.163 1426.45,831.537 1426.08,832.032C1425.77,832.442 1425.59,832.942 1425.54,833.533ZM1441.42,834.87L1441.42,842.158L1438.3,842.158L1438.3,828.19L1441.23,828.19L1441.37,830.144C1441.75,829.544 1442.21,829.057 1442.75,828.683C1443.55,828.131 1444.5,827.855 1445.59,827.855C1446.7,827.855 1447.65,828.078 1448.44,828.523C1449.23,828.969 1449.84,829.663 1450.27,830.605C1450.69,831.546 1450.9,832.771 1450.89,834.28L1450.89,842.158L1447.78,842.158L1447.78,835.006C1447.78,833.893 1447.65,833.034 1447.39,832.43C1447.13,831.825 1446.77,831.4 1446.31,831.156C1445.86,830.911 1445.33,830.785 1444.73,830.777C1443.68,830.761 1442.86,831.107 1442.28,831.817C1441.7,832.526 1441.42,833.544 1441.42,834.87ZM1468.22,842.158L1465.07,842.158L1459.29,828.19L1462.51,828.19L1466.64,838.743L1470.76,828.19L1474,828.19L1468.22,842.158ZM1478.12,835.93C1478.17,836.625 1478.35,837.236 1478.66,837.765C1479.03,838.39 1479.52,838.868 1480.14,839.199C1480.75,839.53 1481.44,839.695 1482.19,839.695C1483.04,839.695 1483.75,839.503 1484.31,839.119C1484.87,838.735 1485.3,838.238 1485.61,837.627L1488.37,838.793C1487.99,839.549 1487.5,840.206 1486.89,840.763C1486.28,841.321 1485.56,841.748 1484.73,842.046C1483.9,842.344 1482.96,842.493 1481.91,842.493C1480.54,842.493 1479.33,842.181 1478.28,841.557C1477.22,840.933 1476.39,840.072 1475.79,838.973C1475.19,837.875 1474.89,836.608 1474.89,835.174C1474.89,833.74 1475.2,832.474 1475.81,831.375C1476.42,830.276 1477.26,829.415 1478.33,828.791C1479.4,828.167 1480.62,827.855 1482.01,827.855C1483.26,827.855 1484.39,828.176 1485.39,828.819C1486.4,829.461 1487.19,830.386 1487.77,831.593C1488.36,832.799 1488.65,834.245 1488.65,835.93L1478.12,835.93ZM1478.3,833.533L1485.28,833.533C1485.24,832.945 1485.08,832.446 1484.81,832.036C1484.48,831.538 1484.05,831.163 1483.54,830.911C1483.03,830.658 1482.49,830.532 1481.93,830.532C1481.37,830.532 1480.81,830.658 1480.25,830.911C1479.68,831.163 1479.22,831.537 1478.84,832.032C1478.54,832.442 1478.35,832.942 1478.3,833.533ZM1494.2,834.87L1494.2,842.158L1491.09,842.158L1491.09,822.603L1494.2,822.603L1494.2,830.075C1494.57,829.506 1495.01,829.042 1495.54,828.683C1496.34,828.131 1497.29,827.855 1498.38,827.855C1499.49,827.855 1500.43,828.078 1501.23,828.523C1502.02,828.969 1502.63,829.663 1503.06,830.605C1503.48,831.546 1503.69,832.771 1503.68,834.28L1503.68,842.158L1500.56,842.158L1500.56,835.006C1500.56,833.893 1500.43,833.034 1500.17,832.43C1499.91,831.825 1499.56,831.4 1499.1,831.156C1498.65,830.911 1498.12,830.785 1497.52,830.777C1496.46,830.761 1495.64,831.107 1495.07,831.817C1494.49,832.526 1494.2,833.544 1494.2,834.87ZM1507.04,842.158L1507.04,828.19L1510.14,828.19L1510.14,842.158L1507.04,842.158ZM1508.61,825.536C1508.11,825.536 1507.67,825.355 1507.31,824.991C1506.94,824.628 1506.76,824.195 1506.76,823.692C1506.76,823.19 1506.94,822.761 1507.31,822.407C1507.67,822.053 1508.11,821.877 1508.61,821.877C1509.11,821.877 1509.54,822.053 1509.91,822.407C1510.27,822.761 1510.45,823.19 1510.45,823.692C1510.45,824.195 1510.27,824.628 1509.91,824.991C1509.54,825.355 1509.11,825.536 1508.61,825.536ZM1520.36,842.493C1518.94,842.493 1517.68,842.181 1516.58,841.557C1515.48,840.933 1514.62,840.07 1513.99,838.967C1513.37,837.864 1513.06,836.6 1513.06,835.174C1513.06,833.74 1513.37,832.474 1513.99,831.375C1514.6,830.276 1515.46,829.415 1516.55,828.791C1517.65,828.167 1518.9,827.855 1520.31,827.855C1521.69,827.855 1522.94,828.186 1524.06,828.849C1525.17,829.512 1526,830.453 1526.54,831.672L1523.64,832.79C1523.34,832.174 1522.88,831.683 1522.26,831.319C1521.65,830.955 1520.96,830.773 1520.19,830.773C1519.41,830.773 1518.73,830.96 1518.14,831.333C1517.55,831.706 1517.08,832.224 1516.74,832.886C1516.41,833.548 1516.24,834.31 1516.24,835.174C1516.24,836.038 1516.41,836.798 1516.75,837.456C1517.09,838.114 1517.57,838.632 1518.17,839.009C1518.78,839.387 1519.47,839.575 1520.24,839.575C1521.02,839.575 1521.71,839.377 1522.33,838.981C1522.94,838.585 1523.4,838.047 1523.7,837.367L1526.62,838.473C1526.07,839.745 1525.24,840.733 1524.13,841.437C1523.02,842.141 1521.76,842.493 1520.36,842.493ZM1529.03,842.158L1529.03,822.603L1532.14,822.603L1532.14,842.158L1529.03,842.158ZM1538.06,835.93C1538.11,836.625 1538.29,837.236 1538.6,837.765C1538.97,838.39 1539.46,838.868 1540.08,839.199C1540.7,839.53 1541.38,839.695 1542.13,839.695C1542.98,839.695 1543.69,839.503 1544.25,839.119C1544.81,838.735 1545.25,838.238 1545.55,837.627L1548.31,838.793C1547.93,839.549 1547.44,840.206 1546.83,840.763C1546.22,841.321 1545.5,841.748 1544.67,842.046C1543.84,842.344 1542.9,842.493 1541.85,842.493C1540.48,842.493 1539.27,842.181 1538.22,841.557C1537.16,840.933 1536.34,840.072 1535.74,838.973C1535.14,837.875 1534.84,836.608 1534.84,835.174C1534.84,833.74 1535.14,832.474 1535.75,831.375C1536.36,830.276 1537.2,829.415 1538.27,828.791C1539.34,828.167 1540.57,827.855 1541.95,827.855C1543.2,827.855 1544.33,828.176 1545.34,828.819C1546.34,829.461 1547.13,830.386 1547.72,831.593C1548.3,832.799 1548.59,834.245 1548.59,835.93L1538.06,835.93ZM1538.24,833.533L1545.23,833.533C1545.18,832.945 1545.02,832.446 1544.75,832.036C1544.42,831.538 1544,831.163 1543.49,830.911C1542.97,830.658 1542.43,830.532 1541.87,830.532C1541.31,830.532 1540.75,830.658 1540.19,830.911C1539.63,831.163 1539.16,831.537 1538.79,832.032C1538.48,832.442 1538.3,832.942 1538.24,833.533ZM1564.27,842.493C1562.85,842.493 1561.59,842.181 1560.49,841.557C1559.39,840.933 1558.53,840.07 1557.9,838.967C1557.28,837.864 1556.97,836.6 1556.97,835.174C1556.97,833.74 1557.28,832.474 1557.89,831.375C1558.51,830.276 1559.37,829.415 1560.46,828.791C1561.56,828.167 1562.81,827.855 1564.22,827.855C1565.6,827.855 1566.85,828.186 1567.97,828.849C1569.08,829.512 1569.91,830.453 1570.45,831.672L1567.56,832.79C1567.25,832.174 1566.79,831.683 1566.17,831.319C1565.56,830.955 1564.87,830.773 1564.1,830.773C1563.33,830.773 1562.64,830.96 1562.05,831.333C1561.46,831.706 1560.99,832.224 1560.65,832.886C1560.32,833.548 1560.15,834.31 1560.15,835.174C1560.15,836.038 1560.32,836.798 1560.66,837.456C1561,838.114 1561.48,838.632 1562.09,839.009C1562.69,839.387 1563.38,839.575 1564.15,839.575C1564.93,839.575 1565.62,839.377 1566.24,838.981C1566.85,838.585 1567.31,838.047 1567.62,837.367L1570.53,838.473C1569.98,839.745 1569.15,840.733 1568.04,841.437C1566.93,842.141 1565.67,842.493 1564.27,842.493ZM1579.36,842.493C1577.95,842.493 1576.71,842.181 1575.63,841.557C1574.54,840.933 1573.69,840.072 1573.08,838.973C1572.47,837.875 1572.16,836.608 1572.16,835.174C1572.16,833.74 1572.46,832.474 1573.07,831.375C1573.67,830.276 1574.51,829.415 1575.6,828.791C1576.68,828.167 1577.91,827.855 1579.3,827.855C1580.7,827.855 1581.95,828.167 1583.03,828.791C1584.11,829.415 1584.95,830.276 1585.56,831.375C1586.16,832.474 1586.47,833.74 1586.47,835.174C1586.47,836.608 1586.17,837.875 1585.56,838.973C1584.96,840.072 1584.12,840.933 1583.04,841.557C1581.97,842.181 1580.74,842.493 1579.36,842.493ZM1579.36,839.623C1580.13,839.623 1580.81,839.433 1581.4,839.054C1581.99,838.674 1582.45,838.151 1582.79,837.485C1583.12,836.818 1583.29,836.048 1583.29,835.174C1583.29,834.3 1583.12,833.53 1582.78,832.863C1582.45,832.197 1581.98,831.674 1581.37,831.294C1580.77,830.915 1580.08,830.725 1579.3,830.725C1578.53,830.725 1577.84,830.915 1577.24,831.294C1576.65,831.673 1576.18,832.196 1575.84,832.862C1575.51,833.528 1575.34,834.298 1575.34,835.171C1575.34,836.045 1575.51,836.815 1575.85,837.481C1576.19,838.146 1576.67,838.67 1577.28,839.051C1577.88,839.433 1578.58,839.623 1579.36,839.623ZM1592.28,834.684L1592.28,842.158L1589.16,842.158L1589.16,828.19L1592.28,828.19L1592.28,830.72C1592.83,829.895 1593.52,829.27 1594.34,828.845C1595.26,828.371 1596.22,828.134 1597.22,828.134L1597.22,831.124C1596.38,831.124 1595.58,831.241 1594.83,831.473C1594.07,831.706 1593.46,832.084 1592.99,832.607C1592.51,833.131 1592.28,833.823 1592.28,834.684ZM1601.74,835.93C1601.79,836.625 1601.97,837.236 1602.28,837.765C1602.65,838.39 1603.14,838.868 1603.76,839.199C1604.38,839.53 1605.06,839.695 1605.81,839.695C1606.66,839.695 1607.37,839.503 1607.93,839.119C1608.49,838.735 1608.93,838.238 1609.24,837.627L1611.99,838.793C1611.61,839.549 1611.12,840.206 1610.51,840.763C1609.9,841.321 1609.18,841.748 1608.35,842.046C1607.52,842.344 1606.58,842.493 1605.53,842.493C1604.16,842.493 1602.95,842.181 1601.9,841.557C1600.85,840.933 1600.02,840.072 1599.42,838.973C1598.82,837.875 1598.52,836.608 1598.52,835.174C1598.52,833.74 1598.82,832.474 1599.43,831.375C1600.05,830.276 1600.88,829.415 1601.95,828.791C1603.02,828.167 1604.25,827.855 1605.63,827.855C1606.89,827.855 1608.02,828.176 1609.02,828.819C1610.02,829.461 1610.81,830.386 1611.4,831.593C1611.98,832.799 1612.27,834.245 1612.27,835.93L1601.74,835.93ZM1601.92,833.533L1608.91,833.533C1608.86,832.945 1608.7,832.446 1608.43,832.036C1608.1,831.538 1607.68,831.163 1607.17,830.911C1606.65,830.658 1606.12,830.532 1605.55,830.532C1604.99,830.532 1604.43,830.658 1603.87,830.911C1603.31,831.163 1602.84,831.537 1602.47,832.032C1602.16,832.442 1601.98,832.942 1601.92,833.533Z"/>
                </g>
                <g transform="matrix(-1.27485,0,0,1.53946,12581.5,13121.7)">
                    <path d="M3557.57,392.661C3587.72,370.551 3624.89,357.479 3665.07,357.479C3765.5,357.479 3847.22,439.197 3847.22,539.631C3847.22,640.075 3765.5,721.783 3665.07,721.783C3564.62,721.783 3482.92,640.075 3482.92,539.631C3482.92,496.259 3474.4,454.141 3457.62,414.448C3446.21,387.469 3431.34,362.442 3413.21,339.682C3405.63,330.129 3397.46,320.984 3388.74,312.257C3359.23,282.751 3324.84,259.582 3286.54,243.374C3246.86,226.59 3204.74,218.077 3161.36,218.077C3117.98,218.077 3075.86,226.59 3036.18,243.374C2997.88,259.582 2963.49,282.751 2933.99,312.257C2904.48,341.773 2881.3,376.15 2865.1,414.448C2848.32,454.141 2839.81,496.259 2839.81,539.631C2839.81,583.013 2848.32,625.131 2865.1,664.814C2881.3,703.122 2904.48,737.499 2933.99,767.005C2963.49,796.512 2997.88,819.69 3036.18,835.888C3075.86,852.672 3117.98,861.185 3161.36,861.185C3204.74,861.185 3246.86,852.672 3286.54,835.888C3321.52,821.098 3353.24,800.479 3380.95,774.538C3332.71,725.512 3316.19,661.018 3312.16,641.718C3279.36,690.004 3224,721.783 3161.36,721.783C3060.92,721.783 2979.21,640.075 2979.21,539.631C2979.21,439.197 3060.92,357.479 3161.36,357.479C3261.8,357.479 3343.51,439.197 3343.51,539.631C3343.51,583.013 3352.03,625.131 3368.81,664.814C3380.22,691.803 3395.09,716.839 3413.21,739.59C3420.81,749.134 3428.97,758.279 3437.69,767.005C3467.2,796.512 3501.59,819.69 3539.88,835.888C3579.57,852.672 3621.69,861.185 3665.07,861.185C3708.45,861.185 3750.57,852.672 3790.25,835.888C3828.55,819.69 3862.93,796.512 3892.44,767.005C3921.95,737.499 3945.13,703.122 3961.32,664.814C3978.11,625.131 3986.62,583.013 3986.62,539.631C3986.62,496.259 3978.11,454.141 3961.32,414.448C3945.13,376.15 3921.95,341.773 3892.44,312.257C3862.93,282.751 3828.55,259.582 3790.25,243.374C3750.57,226.59 3708.45,218.077 3665.07,218.077C3621.69,218.077 3579.57,226.59 3539.88,243.374C3523.14,250.457 3507.15,258.872 3491.98,268.566C3538.79,309.297 3553.44,358.789 3557.57,392.661Z" style="fill:url(#_Linear2);"/>
                </g>
                <g transform="matrix(8.19376,0,0,9.89444,-1376.92,6094.37)">
                    <path d="M1356.35,802.358C1356.95,804.859 1357.83,807.192 1358.97,809.358C1361.37,813.891 1364.77,817.391 1369.17,819.858C1373.57,822.325 1378.64,823.558 1384.37,823.558C1389.31,823.558 1393.87,822.691 1398.07,820.958C1402.27,819.225 1405.84,816.691 1408.77,813.358L1422.77,827.558C1418.11,833.025 1412.44,837.158 1405.77,839.958C1399.11,842.758 1392.04,844.158 1384.57,844.158C1374.97,844.158 1366.34,841.991 1358.67,837.658C1351.01,833.325 1344.94,827.358 1340.47,819.758C1336.01,812.158 1333.77,803.625 1333.77,794.158C1333.77,784.691 1335.97,776.191 1340.37,768.658C1344.77,761.125 1350.74,755.158 1358.27,750.758C1365.81,746.358 1374.17,744.158 1383.37,744.158C1392.31,744.158 1400.2,746.225 1407.07,750.358C1413.94,754.491 1419.34,760.158 1423.27,767.358C1427.2,774.558 1429.17,782.758 1429.17,791.958C1429.17,793.558 1429.07,795.191 1428.87,796.858C1428.67,798.525 1428.37,800.358 1427.97,802.358L1356.35,802.358ZM1356.41,784.358L1407.52,784.358C1406.94,781.532 1406.09,778.999 1404.97,776.758C1402.97,772.758 1400.14,769.691 1396.47,767.558C1392.81,765.425 1388.31,764.358 1382.97,764.358C1377.37,764.358 1372.51,765.558 1368.37,767.958C1364.24,770.358 1361.04,773.725 1358.77,778.058C1357.76,779.992 1356.97,782.092 1356.41,784.358Z"/>
                </g>
                <g transform="matrix(8.23902,0,0,9.94909,-2001.88,6050.5)">
                    <path d="M1396.28,769.863C1394.57,768.046 1392.67,766.744 1390.57,765.958C1388.44,765.158 1385.97,764.758 1383.17,764.758C1377.04,764.758 1371.97,766.691 1367.97,770.558C1363.97,774.425 1361.97,780.491 1361.97,788.758L1361.97,842.158L1339.97,842.158L1339.97,746.158L1361.97,746.158L1361.97,756.173C1362.13,755.933 1362.3,755.694 1362.47,755.458C1367.87,747.925 1376.04,744.158 1386.97,744.158C1391.77,744.158 1396.11,745.025 1399.97,746.758C1402.73,747.993 1405.35,749.769 1407.83,752.086C1404.73,755.13 1402.04,758.592 1399.78,762.473C1398.39,764.84 1397.23,767.304 1396.28,769.863Z"/>
                </g>
                <g transform="matrix(8.19522,0,0,9.8962,-4384.34,6093.04)">
                    <path d="M1371.37,844.158C1366.04,844.158 1360.9,843.458 1355.97,842.058C1351.04,840.658 1346.51,838.658 1342.37,836.058C1338.24,833.458 1334.64,830.291 1331.57,826.558L1345.57,812.558C1348.9,816.425 1352.74,819.325 1357.07,821.258C1361.4,823.191 1366.31,824.158 1371.77,824.158C1376.7,824.158 1380.44,823.425 1382.97,821.958C1385.51,820.491 1386.77,818.358 1386.77,815.558C1386.77,812.625 1385.57,810.358 1383.17,808.758C1380.77,807.158 1377.67,805.791 1373.87,804.658C1370.07,803.525 1366.07,802.358 1361.87,801.158C1357.67,799.958 1353.67,798.325 1349.87,796.258C1346.07,794.191 1342.97,791.358 1340.57,787.758C1338.17,784.158 1336.97,779.491 1336.97,773.758C1336.97,767.625 1338.4,762.358 1341.27,757.958C1344.14,753.558 1348.2,750.158 1353.47,747.758C1358.74,745.358 1365.04,744.158 1372.37,744.158C1380.11,744.158 1386.94,745.525 1392.87,748.258C1398.81,750.991 1403.77,755.091 1407.77,760.558L1393.77,774.558C1390.97,771.091 1387.77,768.491 1384.17,766.758C1380.57,765.025 1376.44,764.158 1371.77,764.158C1367.37,764.158 1363.97,764.825 1361.57,766.158C1359.17,767.491 1357.97,769.425 1357.97,771.958C1357.97,774.625 1359.17,776.691 1361.57,778.158C1363.97,779.625 1367.07,780.891 1370.87,781.958C1374.67,783.025 1378.67,784.191 1382.87,785.458C1387.07,786.725 1391.07,788.458 1394.87,790.658C1398.67,792.858 1401.77,795.791 1404.17,799.458C1406.57,803.125 1407.77,807.891 1407.77,813.758C1407.77,823.091 1404.51,830.491 1397.97,835.958C1391.44,841.425 1382.57,844.158 1371.37,844.158Z" style="fill-rule:nonzero;"/>
                </g>
                <g transform="matrix(2.16352,0,0,2.61258,1729.5,-15519.4)">
                    <circle cx="2578.68" cy="11280.7" r="51.69"/>
                </g>
            </g>
        </g>
    </g>
    <defs>
        <linearGradient id="_Linear2" x1="0" y1="0" x2="1" y2="0" gradientUnits="userSpaceOnUse" gradientTransform="matrix(-1146.81,0,0,1147.51,3986.62,539.631)"><stop offset="0" style="stop-color:rgb(157,224,173);stop-opacity:1"/><stop offset="0.42" style="stop-color:rgb(129,208,171);stop-opacity:1"/><stop offset="1" style="stop-color:rgb(69,173,168);stop-opacity:1"/></linearGradient>
    </defs>
</svg>
