<svg xmlns="http://www.w3.org/2000/svg" xmlns:xlink="http://www.w3.org/1999/xlink" contentStyleType="text/css" data-diagram-type="SEQUENCE" height="999px" preserveAspectRatio="none" style="width:1013px;height:999px;background:#FFFFFF;" version="1.1" viewBox="0 0 1013 999" width="1013px" zoomAndPan="magnify"><title>Sequence Diagram: Flush Local Representation to Data File</title><defs/><g><text fill="#000000" font-family="sans-serif" font-size="14" font-weight="bold" lengthAdjust="spacing" textLength="470.9619" x="272.4023" y="27.9951">Sequence Diagram: Flush Local Representation to Data File</text><rect fill="transparent" height="119.3359" style="stroke:#000000;stroke-width:1.5;" width="671.0088" x="10" y="148.8594"/><rect fill="transparent" height="119.3359" style="stroke:#000000;stroke-width:1.5;" width="477.4023" x="10" y="311.3281"/><rect fill="transparent" height="119.3359" style="stroke:#000000;stroke-width:1.5;" width="996.7666" x="10" y="473.7969"/><rect fill="transparent" height="119.3359" style="stroke:#000000;stroke-width:1.5;" width="812.7305" x="10" y="636.2656"/><rect fill="transparent" height="148.4688" style="stroke:#000000;stroke-width:1.5;" width="812.7305" x="10" y="798.7344"/><g><title>User</title><rect fill="transparent" height="890.6094" width="8" x="38.9551" y="73.5938"/><line style="stroke:#181818;stroke-width:0.5;stroke-dasharray:5.0,5.0;" x1="42" x2="42" y1="73.5938" y2="964.2031"/></g><g><title>&#171;component&#187; :kvs</title><rect fill="transparent" height="890.6094" width="8" x="208.4561" y="73.5938"/><line style="stroke:#181818;stroke-width:0.5;stroke-dasharray:5.0,5.0;" x1="211.8633" x2="211.8633" y1="73.5938" y2="964.2031"/></g><g><title>&#171;component&#187; :snapshot</title><rect fill="transparent" height="890.6094" width="8" x="381.7256" y="73.5938"/><line style="stroke:#181818;stroke-width:0.5;stroke-dasharray:5.0,5.0;" x1="385.0488" x2="385.0488" y1="73.5938" y2="964.2031"/></g><g><title>&#171;component&#187; :TinyJSON</title><rect fill="transparent" height="890.6094" width="8" x="575.2056" y="73.5938"/><line style="stroke:#181818;stroke-width:0.5;stroke-dasharray:5.0,5.0;" x1="578.4023" x2="578.4023" y1="73.5938" y2="964.2031"/></g><g><title>&#171;component&#187; :fs</title><rect fill="transparent" height="890.6094" width="8" x="742.8696" y="73.5938"/><line style="stroke:#181818;stroke-width:0.5;stroke-dasharray:5.0,5.0;" x1="746.0088" x2="746.0088" y1="73.5938" y2="964.2031"/></g><g><title>&#171;component&#187; :Adler32</title><rect fill="transparent" height="890.6094" width="8" x="905.7485" y="73.5938"/><line style="stroke:#181818;stroke-width:0.5;stroke-dasharray:5.0,5.0;" x1="909.7305" x2="909.7305" y1="73.5938" y2="964.2031"/></g><rect fill="#E2E2F0" height="30.2969" rx="2.5" ry="2.5" style="stroke:#181818;stroke-width:0.5;" width="45.9102" x="20" y="42.2969"/><text fill="#000000" font-family="sans-serif" font-size="14" lengthAdjust="spacing" textLength="31.9102" x="27" y="62.292">User</text><rect fill="#E2E2F0" height="30.2969" rx="2.5" ry="2.5" style="stroke:#181818;stroke-width:0.5;" width="45.9102" x="20" y="963.2031"/><text fill="#000000" font-family="sans-serif" font-size="14" lengthAdjust="spacing" textLength="31.9102" x="27" y="983.1982">User</text><rect fill="#E2E2F0" height="30.2969" rx="2.5" ry="2.5" style="stroke:#181818;stroke-width:0.5;" width="143.1855" x="140.8633" y="42.2969"/><text fill="#000000" font-family="sans-serif" font-size="14" lengthAdjust="spacing" textLength="129.1855" x="147.8633" y="62.292">&#171;component&#187; :kvs</text><rect fill="#E2E2F0" height="30.2969" rx="2.5" ry="2.5" style="stroke:#181818;stroke-width:0.5;" width="143.1855" x="140.8633" y="963.2031"/><text fill="#000000" font-family="sans-serif" font-size="14" lengthAdjust="spacing" textLength="129.1855" x="147.8633" y="983.1982">&#171;component&#187; :kvs</text><rect fill="#E2E2F0" height="30.2969" rx="2.5" ry="2.5" style="stroke:#181818;stroke-width:0.5;" width="183.3535" x="294.0488" y="42.2969"/><text fill="#000000" font-family="sans-serif" font-size="14" lengthAdjust="spacing" textLength="169.3535" x="301.0488" y="62.292">&#171;component&#187; :snapshot</text><rect fill="#E2E2F0" height="30.2969" rx="2.5" ry="2.5" style="stroke:#181818;stroke-width:0.5;" width="183.3535" x="294.0488" y="963.2031"/><text fill="#000000" font-family="sans-serif" font-size="14" lengthAdjust="spacing" textLength="169.3535" x="301.0488" y="983.1982">&#171;component&#187; :snapshot</text><rect fill="#E2E2F0" height="30.2969" rx="2.5" ry="2.5" style="stroke:#181818;stroke-width:0.5;" width="183.6064" x="487.4023" y="42.2969"/><text fill="#000000" font-family="sans-serif" font-size="14" lengthAdjust="spacing" textLength="169.6064" x="494.4023" y="62.292">&#171;component&#187; :TinyJSON</text><rect fill="#E2E2F0" height="30.2969" rx="2.5" ry="2.5" style="stroke:#181818;stroke-width:0.5;" width="183.6064" x="487.4023" y="963.2031"/><text fill="#000000" font-family="sans-serif" font-size="14" lengthAdjust="spacing" textLength="169.6064" x="494.4023" y="983.1982">&#171;component&#187; :TinyJSON</text><rect fill="#E2E2F0" height="30.2969" rx="2.5" ry="2.5" style="stroke:#181818;stroke-width:0.5;" width="131.7217" x="681.0088" y="42.2969"/><text fill="#000000" font-family="sans-serif" font-size="14" lengthAdjust="spacing" textLength="117.7217" x="688.0088" y="62.292">&#171;component&#187; :fs</text><rect fill="#E2E2F0" height="30.2969" rx="2.5" ry="2.5" style="stroke:#181818;stroke-width:0.5;" width="131.7217" x="681.0088" y="963.2031"/><text fill="#000000" font-family="sans-serif" font-size="14" lengthAdjust="spacing" textLength="117.7217" x="688.0088" y="983.1982">&#171;component&#187; :fs</text><rect fill="#E2E2F0" height="30.2969" rx="2.5" ry="2.5" style="stroke:#181818;stroke-width:0.5;" width="174.0361" x="822.7305" y="42.2969"/><text fill="#000000" font-family="sans-serif" font-size="14" lengthAdjust="spacing" textLength="160.0361" x="829.7305" y="62.292">&#171;component&#187; :Adler32</text><rect fill="#E2E2F0" height="30.2969" rx="2.5" ry="2.5" style="stroke:#181818;stroke-width:0.5;" width="174.0361" x="822.7305" y="963.2031"/><text fill="#000000" font-family="sans-serif" font-size="14" lengthAdjust="spacing" textLength="160.0361" x="829.7305" y="983.1982">&#171;component&#187; :Adler32</text><polygon fill="#181818" points="200.4561,100.7266,210.4561,104.7266,200.4561,108.7266,204.4561,104.7266" style="stroke:#181818;stroke-width:1;"/><line style="stroke:#181818;stroke-width:1;" x1="42.9551" x2="206.4561" y1="104.7266" y2="104.7266"/><text fill="#000000" font-family="sans-serif" font-size="13" lengthAdjust="spacing" textLength="64.1431" x="49.9551" y="99.6606">Flush KVS</text><polygon fill="#181818" points="567.2056,129.8594,577.2056,133.8594,567.2056,137.8594,571.2056,133.8594" style="stroke:#181818;stroke-width:1;"/><line style="stroke:#181818;stroke-width:1;" x1="212.4561" x2="573.2056" y1="133.8594" y2="133.8594"/><text fill="#000000" font-family="sans-serif" font-size="13" lengthAdjust="spacing" textLength="271.3052" x="219.4561" y="128.7935">Generate string from local representation</text><path d="M10,148.8594 L74.4429,148.8594 L74.4429,155.9922 L64.4429,165.9922 L10,165.9922 L10,148.8594 " fill="#EEEEEE" style="stroke:#000000;stroke-width:1.5;"/><rect fill="transparent" height="119.3359" style="stroke:#000000;stroke-width:1.5;" width="671.0088" x="10" y="148.8594"/><text fill="#000000" font-family="sans-serif" font-size="13" font-weight="bold" lengthAdjust="spacing" textLength="19.4429" x="25" y="161.9263">alt</text><text fill="#000000" font-family="sans-serif" font-size="11" font-weight="bold" lengthAdjust="spacing" textLength="77.0322" x="89.4429" y="161.0698">[json-string]</text><polygon fill="#181818" points="223.4561,183.125,213.4561,187.125,223.4561,191.125,219.4561,187.125" style="stroke:#181818;stroke-width:1;"/><line style="stroke:#181818;stroke-width:1;stroke-dasharray:2.0,2.0;" x1="217.4561" x2="578.2056" y1="187.125" y2="187.125"/><text fill="#000000" font-family="sans-serif" font-size="13" lengthAdjust="spacing" textLength="106.9072" x="229.4561" y="182.0591">JSON data string</text><line style="stroke:#000000;stroke-width:1;stroke-dasharray:2.0,2.0;" x1="10" x2="681.0088" y1="196.125" y2="196.125"/><text fill="#000000" font-family="sans-serif" font-size="11" font-weight="bold" lengthAdjust="spacing" textLength="112.8896" x="15" y="206.3354">[json-string-error]</text><polygon fill="#181818" points="223.4561,227.0625,213.4561,231.0625,223.4561,235.0625,219.4561,231.0625" style="stroke:#181818;stroke-width:1;"/><line style="stroke:#181818;stroke-width:1;stroke-dasharray:2.0,2.0;" x1="217.4561" x2="578.2056" y1="231.0625" y2="231.0625"/><text fill="#000000" font-family="sans-serif" font-size="13" lengthAdjust="spacing" textLength="136.4873" x="229.4561" y="225.9966">JSON generator error</text><polygon fill="#181818" points="53.9551,256.1953,43.9551,260.1953,53.9551,264.1953,49.9551,260.1953" style="stroke:#181818;stroke-width:1;"/><line style="stroke:#181818;stroke-width:1;stroke-dasharray:2.0,2.0;" x1="47.9551" x2="211.4561" y1="260.1953" y2="260.1953"/><text fill="#000000" font-family="sans-serif" font-size="13" lengthAdjust="spacing" textLength="136.4873" x="59.9551" y="255.1294">JSON generator error</text><polygon fill="#181818" points="373.7256,292.3281,383.7256,296.3281,373.7256,300.3281,377.7256,296.3281" style="stroke:#181818;stroke-width:1;"/><line style="stroke:#181818;stroke-width:1;" x1="212.4561" x2="379.7256" y1="296.3281" y2="296.3281"/><text fill="#000000" font-family="sans-serif" font-size="13" lengthAdjust="spacing" textLength="113.3438" x="219.4561" y="291.2622">Rotate snapshots</text><path d="M10,311.3281 L74.4429,311.3281 L74.4429,318.4609 L64.4429,328.4609 L10,328.4609 L10,311.3281 " fill="#EEEEEE" style="stroke:#000000;stroke-width:1.5;"/><rect fill="transparent" height="119.3359" style="stroke:#000000;stroke-width:1.5;" width="477.4023" x="10" y="311.3281"/><text fill="#000000" font-family="sans-serif" font-size="13" font-weight="bold" lengthAdjust="spacing" textLength="19.4429" x="25" y="324.395">alt</text><text fill="#000000" font-family="sans-serif" font-size="11" font-weight="bold" lengthAdjust="spacing" textLength="109.8711" x="89.4429" y="323.5386">[snapshot-rotate]</text><polygon fill="#181818" points="223.4561,345.5938,213.4561,349.5938,223.4561,353.5938,219.4561,349.5938" style="stroke:#181818;stroke-width:1;"/><line style="stroke:#181818;stroke-width:1;" x1="217.4561" x2="384.7256" y1="349.5938" y2="349.5938"/><text fill="#000000" font-family="sans-serif" font-size="13" lengthAdjust="spacing" textLength="119.3867" x="229.4561" y="344.5278">Snapshots rotated</text><line style="stroke:#000000;stroke-width:1;stroke-dasharray:2.0,2.0;" x1="10" x2="487.4023" y1="358.5938" y2="358.5938"/><text fill="#000000" font-family="sans-serif" font-size="11" font-weight="bold" lengthAdjust="spacing" textLength="145.7285" x="15" y="368.8042">[snapshot-rotate-error]</text><polygon fill="#181818" points="223.4561,389.5313,213.4561,393.5313,223.4561,397.5313,219.4561,393.5313" style="stroke:#181818;stroke-width:1;"/><line style="stroke:#181818;stroke-width:1;stroke-dasharray:2.0,2.0;" x1="217.4561" x2="384.7256" y1="393.5313" y2="393.5313"/><text fill="#000000" font-family="sans-serif" font-size="13" lengthAdjust="spacing" textLength="145.501" x="229.4561" y="388.4653">Snapshot-Rotate-Error</text><polygon fill="#181818" points="53.9551,418.6641,43.9551,422.6641,53.9551,426.6641,49.9551,422.6641" style="stroke:#181818;stroke-width:1;"/><line style="stroke:#181818;stroke-width:1;stroke-dasharray:2.0,2.0;" x1="47.9551" x2="211.4561" y1="422.6641" y2="422.6641"/><text fill="#000000" font-family="sans-serif" font-size="13" lengthAdjust="spacing" textLength="145.501" x="59.9551" y="417.5981">Snapshot-Rotate-Error</text><polygon fill="#181818" points="897.7485,454.7969,907.7485,458.7969,897.7485,462.7969,901.7485,458.7969" style="stroke:#181818;stroke-width:1;"/><line style="stroke:#181818;stroke-width:1;" x1="212.4561" x2="903.7485" y1="458.7969" y2="458.7969"/><text fill="#000000" font-family="sans-serif" font-size="13" lengthAdjust="spacing" textLength="189.8711" x="219.4561" y="453.731">Create JSON data string hash</text><path d="M10,473.7969 L74.4429,473.7969 L74.4429,480.9297 L64.4429,490.9297 L10,490.9297 L10,473.7969 " fill="#EEEEEE" style="stroke:#000000;stroke-width:1.5;"/><rect fill="transparent" height="119.3359" style="stroke:#000000;stroke-width:1.5;" width="996.7666" x="10" y="473.7969"/><text fill="#000000" font-family="sans-serif" font-size="13" font-weight="bold" lengthAdjust="spacing" textLength="19.4429" x="25" y="486.8638">alt</text><text fill="#000000" font-family="sans-serif" font-size="11" font-weight="bold" lengthAdjust="spacing" textLength="91.6738" x="89.4429" y="486.0073">[hash-created]</text><polygon fill="#181818" points="223.4561,508.0625,213.4561,512.0625,223.4561,516.0625,219.4561,512.0625" style="stroke:#181818;stroke-width:1;"/><line style="stroke:#181818;stroke-width:1;stroke-dasharray:2.0,2.0;" x1="217.4561" x2="908.7485" y1="512.0625" y2="512.0625"/><text fill="#000000" font-family="sans-serif" font-size="13" lengthAdjust="spacing" textLength="66.3901" x="229.4561" y="506.9966">Data hash</text><line style="stroke:#000000;stroke-width:1;stroke-dasharray:2.0,2.0;" x1="10" x2="1006.7666" y1="521.0625" y2="521.0625"/><text fill="#000000" font-family="sans-serif" font-size="11" font-weight="bold" lengthAdjust="spacing" textLength="119.6572" x="15" y="531.2729">[hash-create-error]</text><polygon fill="#181818" points="223.4561,552,213.4561,556,223.4561,560,219.4561,556" style="stroke:#181818;stroke-width:1;"/><line style="stroke:#181818;stroke-width:1;stroke-dasharray:2.0,2.0;" x1="217.4561" x2="908.7485" y1="556" y2="556"/><text fill="#000000" font-family="sans-serif" font-size="13" lengthAdjust="spacing" textLength="102.1401" x="229.4561" y="550.9341">Hash-Calc-Error</text><polygon fill="#181818" points="53.9551,581.1328,43.9551,585.1328,53.9551,589.1328,49.9551,585.1328" style="stroke:#181818;stroke-width:1;"/><line style="stroke:#181818;stroke-width:1;stroke-dasharray:2.0,2.0;" x1="47.9551" x2="211.4561" y1="585.1328" y2="585.1328"/><text fill="#000000" font-family="sans-serif" font-size="13" lengthAdjust="spacing" textLength="102.1401" x="59.9551" y="580.0669">Hash-Calc-Error</text><polygon fill="#181818" points="734.8696,617.2656,744.8696,621.2656,734.8696,625.2656,738.8696,621.2656" style="stroke:#181818;stroke-width:1;"/><line style="stroke:#181818;stroke-width:1;" x1="212.4561" x2="740.8696" y1="621.2656" y2="621.2656"/><text fill="#000000" font-family="sans-serif" font-size="13" lengthAdjust="spacing" textLength="187.0591" x="219.4561" y="616.1997">Write JSON data string to file</text><path d="M10,636.2656 L74.4429,636.2656 L74.4429,643.3984 L64.4429,653.3984 L10,653.3984 L10,636.2656 " fill="#EEEEEE" style="stroke:#000000;stroke-width:1.5;"/><rect fill="transparent" height="119.3359" style="stroke:#000000;stroke-width:1.5;" width="812.7305" x="10" y="636.2656"/><text fill="#000000" font-family="sans-serif" font-size="13" font-weight="bold" lengthAdjust="spacing" textLength="19.4429" x="25" y="649.3325">alt</text><text fill="#000000" font-family="sans-serif" font-size="11" font-weight="bold" lengthAdjust="spacing" textLength="66.4834" x="89.4429" y="648.4761">[file-write]</text><polygon fill="#181818" points="223.4561,670.5313,213.4561,674.5313,223.4561,678.5313,219.4561,674.5313" style="stroke:#181818;stroke-width:1;"/><line style="stroke:#181818;stroke-width:1;stroke-dasharray:2.0,2.0;" x1="217.4561" x2="745.8696" y1="674.5313" y2="674.5313"/><text fill="#000000" font-family="sans-serif" font-size="13" lengthAdjust="spacing" textLength="155.5684" x="229.4561" y="669.4653">File successfully written</text><line style="stroke:#000000;stroke-width:1;stroke-dasharray:2.0,2.0;" x1="10" x2="822.7305" y1="683.5313" y2="683.5313"/><text fill="#000000" font-family="sans-serif" font-size="11" font-weight="bold" lengthAdjust="spacing" textLength="102.3408" x="15" y="693.7417">[file-write-error]</text><polygon fill="#181818" points="223.4561,714.4688,213.4561,718.4688,223.4561,722.4688,219.4561,718.4688" style="stroke:#181818;stroke-width:1;"/><line style="stroke:#181818;stroke-width:1;stroke-dasharray:2.0,2.0;" x1="217.4561" x2="745.8696" y1="718.4688" y2="718.4688"/><text fill="#000000" font-family="sans-serif" font-size="13" lengthAdjust="spacing" textLength="99.1885" x="229.4561" y="713.4028">File-Write-Error</text><polygon fill="#181818" points="53.9551,743.6016,43.9551,747.6016,53.9551,751.6016,49.9551,747.6016" style="stroke:#181818;stroke-width:1;"/><line style="stroke:#181818;stroke-width:1;stroke-dasharray:2.0,2.0;" x1="47.9551" x2="211.4561" y1="747.6016" y2="747.6016"/><text fill="#000000" font-family="sans-serif" font-size="13" lengthAdjust="spacing" textLength="99.1885" x="59.9551" y="742.5356">File-Write-Error</text><polygon fill="#181818" points="734.8696,779.7344,744.8696,783.7344,734.8696,787.7344,738.8696,783.7344" style="stroke:#181818;stroke-width:1;"/><line style="stroke:#181818;stroke-width:1;" x1="212.4561" x2="740.8696" y1="783.7344" y2="783.7344"/><text fill="#000000" font-family="sans-serif" font-size="13" lengthAdjust="spacing" textLength="180.959" x="219.4561" y="778.6685">Write JSON data hash to file</text><path d="M10,798.7344 L74.4429,798.7344 L74.4429,805.8672 L64.4429,815.8672 L10,815.8672 L10,798.7344 " fill="#EEEEEE" style="stroke:#000000;stroke-width:1.5;"/><rect fill="transparent" height="148.4688" style="stroke:#000000;stroke-width:1.5;" width="812.7305" x="10" y="798.7344"/><text fill="#000000" font-family="sans-serif" font-size="13" font-weight="bold" lengthAdjust="spacing" textLength="19.4429" x="25" y="811.8013">alt</text><text fill="#000000" font-family="sans-serif" font-size="11" font-weight="bold" lengthAdjust="spacing" textLength="100.6812" x="89.4429" y="810.9448">[file-hash-write]</text><polygon fill="#181818" points="223.4561,833,213.4561,837,223.4561,841,219.4561,837" style="stroke:#181818;stroke-width:1;"/><line style="stroke:#181818;stroke-width:1;stroke-dasharray:2.0,2.0;" x1="217.4561" x2="745.8696" y1="837" y2="837"/><text fill="#000000" font-family="sans-serif" font-size="13" lengthAdjust="spacing" textLength="189.5537" x="229.4561" y="831.9341">Hash file successfully written</text><polygon fill="#181818" points="53.9551,862.1328,43.9551,866.1328,53.9551,870.1328,49.9551,866.1328" style="stroke:#181818;stroke-width:1;"/><line style="stroke:#181818;stroke-width:1;stroke-dasharray:2.0,2.0;" x1="47.9551" x2="211.4561" y1="866.1328" y2="866.1328"/><text fill="#000000" font-family="sans-serif" font-size="13" lengthAdjust="spacing" textLength="105.752" x="59.9551" y="861.0669">Flush successful</text><line style="stroke:#000000;stroke-width:1;stroke-dasharray:2.0,2.0;" x1="10" x2="822.7305" y1="875.1328" y2="875.1328"/><text fill="#000000" font-family="sans-serif" font-size="11" font-weight="bold" lengthAdjust="spacing" textLength="136.5386" x="15" y="885.3433">[file-hash-write-error]</text><polygon fill="#181818" points="223.4561,906.0703,213.4561,910.0703,223.4561,914.0703,219.4561,910.0703" style="stroke:#181818;stroke-width:1;"/><line style="stroke:#181818;stroke-width:1;stroke-dasharray:2.0,2.0;" x1="217.4561" x2="745.8696" y1="910.0703" y2="910.0703"/><text fill="#000000" font-family="sans-serif" font-size="13" lengthAdjust="spacing" textLength="136.6333" x="229.4561" y="905.0044">File-Hash-Write-Error</text><polygon fill="#181818" points="53.9551,935.2031,43.9551,939.2031,53.9551,943.2031,49.9551,939.2031" style="stroke:#181818;stroke-width:1;"/><line style="stroke:#181818;stroke-width:1;stroke-dasharray:2.0,2.0;" x1="47.9551" x2="211.4561" y1="939.2031" y2="939.2031"/><text fill="#000000" font-family="sans-serif" font-size="13" lengthAdjust="spacing" textLength="136.6333" x="59.9551" y="934.1372">File-Hash-Write-Error</text><!--SRC=[ZPDBJiCm48RtESMeUszWbmKIQda844WjZoMod4bhSErWkw2UYIEmusJOuuQOa0QwQPnyC_w_iUobLmWBVDcW5WWpoPUMhqiuLHktWYiZk88vDXOTQi-zD1gyWHdt74wbmg9ekFLIo8Ph3vCxXtO2t04NtjYVtpxVXLatHeS-dnzGFhyw8iF_AESqRzpAU8BRnMZ5hTJRYyNDDLKyEQCV0ns2ZHRLAKqz7kQuKcWF3mXTSRSAJGjI1NOKJTgvNTulYYAiu-iiGGbdgD5oZ-2ybNe9jJLhK3Hb-sFAeQ_oLCiIMa3uPRs0jLj6LwZYYUn8L0xpKeRMXjCORx1CoO9AHvD1e4Xn3uUw-bPjZwU4kV5akNlXaawxP9O-qnxjk-y9BjeQI5ILV7grcLFNeT-2fHZiP9_HC9WhfLCkOMen2lLdJT-JN7nYWh2AzagbNIgwDCIJKCPdClsYyqXDkHBx9Vf87hyEBHwi74eUhd5DDpY6Zq_iBOAqG-sw1F6QWzi8WSxL6wMs43cFEcbqbPb5lvvHXlqAlvY_7EAO1WnefiCQSKe43RiCXQAhtD6PRxVFc3GTp7_CVu5H_mi0]--></g></svg>