<svg xmlns="http://www.w3.org/2000/svg" xmlns:xlink="http://www.w3.org/1999/xlink" contentStyleType="text/css" data-diagram-type="SEQUENCE" height="791px" preserveAspectRatio="none" style="width:606px;height:791px;background:#FFFFFF;" version="1.1" viewBox="0 0 606 791" width="606px" zoomAndPan="magnify"><title>Sequence Diagram: Read Data into Local Representation (KvsValue)</title><defs/><g><text fill="#000000" font-family="sans-serif" font-size="14" font-weight="bold" lengthAdjust="spacing" textLength="539.834" x="34.2195" y="27.9951">Sequence Diagram: Read Data into Local Representation (KvsValue)</text><rect fill="transparent" height="119.3359" style="stroke:#000000;stroke-width:1.5;" width="589.2729" x="10" y="148.8594"/><rect fill="transparent" height="119.3359" style="stroke:#000000;stroke-width:1.5;" width="589.2729" x="10" y="311.3281"/><rect fill="transparent" height="90.2031" style="stroke:#000000;stroke-width:1.5;" width="447.5513" x="10" y="486.7969"/><rect fill="transparent" height="119.3359" style="stroke:#000000;stroke-width:1.5;" width="447.5513" x="10" y="591"/><g><title>Builder</title><rect fill="transparent" height="682.875" width="8" x="47.7563" y="73.5938"/><line style="stroke:#181818;stroke-width:0.5;stroke-dasharray:5.0,5.0;" x1="51" x2="51" y1="73.5938" y2="756.4688"/></g><g><title>&#171;component&#187; :kvs</title><rect fill="transparent" height="682.875" width="8" x="161.1055" y="73.5938"/><line style="stroke:#181818;stroke-width:0.5;stroke-dasharray:5.0,5.0;" x1="164.5127" x2="164.5127" y1="73.5938" y2="756.4688"/></g><g><title>&#171;component&#187; :TinyJSON</title><rect fill="transparent" height="682.875" width="8" x="351.748" y="73.5938"/><line style="stroke:#181818;stroke-width:0.5;stroke-dasharray:5.0,5.0;" x1="354.9448" x2="354.9448" y1="73.5938" y2="756.4688"/></g><g><title>&#171;component&#187; :fs</title><rect fill="transparent" height="682.875" width="8" x="519.4121" y="73.5938"/><line style="stroke:#181818;stroke-width:0.5;stroke-dasharray:5.0,5.0;" x1="522.5513" x2="522.5513" y1="73.5938" y2="756.4688"/></g><rect fill="#E2E2F0" height="30.2969" rx="2.5" ry="2.5" style="stroke:#181818;stroke-width:0.5;" width="63.5127" x="20" y="42.2969"/><text fill="#000000" font-family="sans-serif" font-size="14" lengthAdjust="spacing" textLength="49.5127" x="27" y="62.292">Builder</text><rect fill="#E2E2F0" height="30.2969" rx="2.5" ry="2.5" style="stroke:#181818;stroke-width:0.5;" width="63.5127" x="20" y="755.4688"/><text fill="#000000" font-family="sans-serif" font-size="14" lengthAdjust="spacing" textLength="49.5127" x="27" y="775.4639">Builder</text><rect fill="#E2E2F0" height="30.2969" rx="2.5" ry="2.5" style="stroke:#181818;stroke-width:0.5;" width="143.1855" x="93.5127" y="42.2969"/><text fill="#000000" font-family="sans-serif" font-size="14" lengthAdjust="spacing" textLength="129.1855" x="100.5127" y="62.292">&#171;component&#187; :kvs</text><rect fill="#E2E2F0" height="30.2969" rx="2.5" ry="2.5" style="stroke:#181818;stroke-width:0.5;" width="143.1855" x="93.5127" y="755.4688"/><text fill="#000000" font-family="sans-serif" font-size="14" lengthAdjust="spacing" textLength="129.1855" x="100.5127" y="775.4639">&#171;component&#187; :kvs</text><rect fill="#E2E2F0" height="30.2969" rx="2.5" ry="2.5" style="stroke:#181818;stroke-width:0.5;" width="183.6064" x="263.9448" y="42.2969"/><text fill="#000000" font-family="sans-serif" font-size="14" lengthAdjust="spacing" textLength="169.6064" x="270.9448" y="62.292">&#171;component&#187; :TinyJSON</text><rect fill="#E2E2F0" height="30.2969" rx="2.5" ry="2.5" style="stroke:#181818;stroke-width:0.5;" width="183.6064" x="263.9448" y="755.4688"/><text fill="#000000" font-family="sans-serif" font-size="14" lengthAdjust="spacing" textLength="169.6064" x="270.9448" y="775.4639">&#171;component&#187; :TinyJSON</text><rect fill="#E2E2F0" height="30.2969" rx="2.5" ry="2.5" style="stroke:#181818;stroke-width:0.5;" width="131.7217" x="457.5513" y="42.2969"/><text fill="#000000" font-family="sans-serif" font-size="14" lengthAdjust="spacing" textLength="117.7217" x="464.5513" y="62.292">&#171;component&#187; :fs</text><rect fill="#E2E2F0" height="30.2969" rx="2.5" ry="2.5" style="stroke:#181818;stroke-width:0.5;" width="131.7217" x="457.5513" y="755.4688"/><text fill="#000000" font-family="sans-serif" font-size="14" lengthAdjust="spacing" textLength="117.7217" x="464.5513" y="775.4639">&#171;component&#187; :fs</text><polygon fill="#181818" points="153.1055,100.7266,163.1055,104.7266,153.1055,108.7266,157.1055,104.7266" style="stroke:#181818;stroke-width:1;"/><line style="stroke:#181818;stroke-width:1;" x1="51.7563" x2="159.1055" y1="104.7266" y2="104.7266"/><text fill="#000000" font-family="sans-serif" font-size="13" lengthAdjust="spacing" textLength="64.5239" x="58.7563" y="99.6606">Open KVS</text><polygon fill="#181818" points="511.4121,129.8594,521.4121,133.8594,511.4121,137.8594,515.4121,133.8594" style="stroke:#181818;stroke-width:1;"/><line style="stroke:#181818;stroke-width:1;" x1="165.1055" x2="517.4121" y1="133.8594" y2="133.8594"/><text fill="#000000" font-family="sans-serif" font-size="13" lengthAdjust="spacing" textLength="113.8262" x="172.1055" y="128.7935">Read defaults file</text><path d="M10,148.8594 L74.4429,148.8594 L74.4429,155.9922 L64.4429,165.9922 L10,165.9922 L10,148.8594 " fill="#EEEEEE" style="stroke:#000000;stroke-width:1.5;"/><rect fill="transparent" height="119.3359" style="stroke:#000000;stroke-width:1.5;" width="589.2729" x="10" y="148.8594"/><text fill="#000000" font-family="sans-serif" font-size="13" font-weight="bold" lengthAdjust="spacing" textLength="19.4429" x="25" y="161.9263">alt</text><text fill="#000000" font-family="sans-serif" font-size="11" font-weight="bold" lengthAdjust="spacing" textLength="71.0864" x="89.4429" y="161.0698">[file-exists]</text><polygon fill="#181818" points="176.1055,183.125,166.1055,187.125,176.1055,191.125,172.1055,187.125" style="stroke:#181818;stroke-width:1;"/><line style="stroke:#181818;stroke-width:1;stroke-dasharray:2.0,2.0;" x1="170.1055" x2="522.4121" y1="187.125" y2="187.125"/><text fill="#000000" font-family="sans-serif" font-size="13" lengthAdjust="spacing" textLength="178.4263" x="182.1055" y="182.0591">Defaults file content (JSON)</text><line style="stroke:#000000;stroke-width:1;stroke-dasharray:2.0,2.0;" x1="10" x2="599.2729" y1="196.125" y2="196.125"/><text fill="#000000" font-family="sans-serif" font-size="11" font-weight="bold" lengthAdjust="spacing" textLength="107.4434" x="15" y="206.3354">[file-based-error]</text><polygon fill="#181818" points="176.1055,227.0625,166.1055,231.0625,176.1055,235.0625,172.1055,231.0625" style="stroke:#181818;stroke-width:1;"/><line style="stroke:#181818;stroke-width:1;stroke-dasharray:2.0,2.0;" x1="170.1055" x2="522.4121" y1="231.0625" y2="231.0625"/><text fill="#000000" font-family="sans-serif" font-size="13" lengthAdjust="spacing" textLength="59.5918" x="182.1055" y="225.9966">File-Error</text><polygon fill="#181818" points="62.7563,256.1953,52.7563,260.1953,62.7563,264.1953,58.7563,260.1953" style="stroke:#181818;stroke-width:1;"/><line style="stroke:#181818;stroke-width:1;" x1="56.7563" x2="164.1055" y1="260.1953" y2="260.1953"/><text fill="#000000" font-family="sans-serif" font-size="13" lengthAdjust="spacing" textLength="59.5918" x="68.7563" y="255.1294">File-Error</text><polygon fill="#181818" points="511.4121,292.3281,521.4121,296.3281,511.4121,300.3281,515.4121,296.3281" style="stroke:#181818;stroke-width:1;"/><line style="stroke:#181818;stroke-width:1;" x1="165.1055" x2="517.4121" y1="296.3281" y2="296.3281"/><text fill="#000000" font-family="sans-serif" font-size="13" lengthAdjust="spacing" textLength="149.1763" x="172.1055" y="291.2622">Read defaults file hash</text><path d="M10,311.3281 L74.4429,311.3281 L74.4429,318.4609 L64.4429,328.4609 L10,328.4609 L10,311.3281 " fill="#EEEEEE" style="stroke:#000000;stroke-width:1.5;"/><rect fill="transparent" height="119.3359" style="stroke:#000000;stroke-width:1.5;" width="589.2729" x="10" y="311.3281"/><text fill="#000000" font-family="sans-serif" font-size="13" font-weight="bold" lengthAdjust="spacing" textLength="19.4429" x="25" y="324.395">alt</text><text fill="#000000" font-family="sans-serif" font-size="11" font-weight="bold" lengthAdjust="spacing" textLength="71.0864" x="89.4429" y="323.5386">[file-exists]</text><polygon fill="#181818" points="176.1055,345.5938,166.1055,349.5938,176.1055,353.5938,172.1055,349.5938" style="stroke:#181818;stroke-width:1;"/><line style="stroke:#181818;stroke-width:1;stroke-dasharray:2.0,2.0;" x1="170.1055" x2="522.4121" y1="349.5938" y2="349.5938"/><text fill="#000000" font-family="sans-serif" font-size="13" lengthAdjust="spacing" textLength="113.5532" x="182.1055" y="344.5278">Defaults file hash</text><line style="stroke:#000000;stroke-width:1;stroke-dasharray:2.0,2.0;" x1="10" x2="599.2729" y1="358.5938" y2="358.5938"/><text fill="#000000" font-family="sans-serif" font-size="11" font-weight="bold" lengthAdjust="spacing" textLength="107.4434" x="15" y="368.8042">[file-based-error]</text><polygon fill="#181818" points="176.1055,389.5313,166.1055,393.5313,176.1055,397.5313,172.1055,393.5313" style="stroke:#181818;stroke-width:1;"/><line style="stroke:#181818;stroke-width:1;stroke-dasharray:2.0,2.0;" x1="170.1055" x2="522.4121" y1="393.5313" y2="393.5313"/><text fill="#000000" font-family="sans-serif" font-size="13" lengthAdjust="spacing" textLength="59.5918" x="182.1055" y="388.4653">File-Error</text><polygon fill="#181818" points="62.7563,418.6641,52.7563,422.6641,62.7563,426.6641,58.7563,422.6641" style="stroke:#181818;stroke-width:1;"/><line style="stroke:#181818;stroke-width:1;" x1="56.7563" x2="164.1055" y1="422.6641" y2="422.6641"/><text fill="#000000" font-family="sans-serif" font-size="13" lengthAdjust="spacing" textLength="59.5918" x="68.7563" y="417.5981">File-Error</text><line style="stroke:#181818;stroke-width:1;" x1="165.1055" x2="207.1055" y1="458.7969" y2="458.7969"/><line style="stroke:#181818;stroke-width:1;" x1="207.1055" x2="207.1055" y1="458.7969" y2="471.7969"/><line style="stroke:#181818;stroke-width:1;" x1="166.1055" x2="207.1055" y1="471.7969" y2="471.7969"/><polygon fill="#181818" points="176.1055,467.7969,166.1055,471.7969,176.1055,475.7969,172.1055,471.7969" style="stroke:#181818;stroke-width:1;"/><text fill="#000000" font-family="sans-serif" font-size="13" lengthAdjust="spacing" textLength="176.6426" x="172.1055" y="453.731">Generate defaults file hash</text><path d="M10,486.7969 L74.4429,486.7969 L74.4429,493.9297 L64.4429,503.9297 L10,503.9297 L10,486.7969 " fill="#EEEEEE" style="stroke:#000000;stroke-width:1.5;"/><rect fill="transparent" height="90.2031" style="stroke:#000000;stroke-width:1.5;" width="447.5513" x="10" y="486.7969"/><text fill="#000000" font-family="sans-serif" font-size="13" font-weight="bold" lengthAdjust="spacing" textLength="19.4429" x="25" y="499.8638">alt</text><text fill="#000000" font-family="sans-serif" font-size="11" font-weight="bold" lengthAdjust="spacing" textLength="135.2871" x="89.4429" y="499.0073">[hash-match-success]</text><polygon fill="#181818" points="343.748,521.0625,353.748,525.0625,343.748,529.0625,347.748,525.0625" style="stroke:#181818;stroke-width:1;"/><line style="stroke:#181818;stroke-width:1;" x1="165.1055" x2="349.748" y1="525.0625" y2="525.0625"/><text fill="#000000" font-family="sans-serif" font-size="13" lengthAdjust="spacing" textLength="105.5107" x="172.1055" y="519.9966">Parse JSON data</text><line style="stroke:#000000;stroke-width:1;stroke-dasharray:2.0,2.0;" x1="10" x2="457.5513" y1="534.0625" y2="534.0625"/><text fill="#000000" font-family="sans-serif" font-size="11" font-weight="bold" lengthAdjust="spacing" textLength="118.6045" x="15" y="544.2729">[hash-match-error]</text><polygon fill="#181818" points="62.7563,565,52.7563,569,62.7563,573,58.7563,569" style="stroke:#181818;stroke-width:1;"/><line style="stroke:#181818;stroke-width:1;" x1="56.7563" x2="164.1055" y1="569" y2="569"/><text fill="#000000" font-family="sans-serif" font-size="13" lengthAdjust="spacing" textLength="69.6465" x="68.7563" y="563.9341">Hash-Error</text><path d="M10,591 L74.4429,591 L74.4429,598.1328 L64.4429,608.1328 L10,608.1328 L10,591 " fill="#EEEEEE" style="stroke:#000000;stroke-width:1.5;"/><rect fill="transparent" height="119.3359" style="stroke:#000000;stroke-width:1.5;" width="447.5513" x="10" y="591"/><text fill="#000000" font-family="sans-serif" font-size="13" font-weight="bold" lengthAdjust="spacing" textLength="19.4429" x="25" y="604.0669">alt</text><text fill="#000000" font-family="sans-serif" font-size="11" font-weight="bold" lengthAdjust="spacing" textLength="109.3394" x="89.4429" y="603.2104">[parsing-success]</text><polygon fill="#181818" points="176.1055,625.2656,166.1055,629.2656,176.1055,633.2656,172.1055,629.2656" style="stroke:#181818;stroke-width:1;"/><line style="stroke:#181818;stroke-width:1;stroke-dasharray:2.0,2.0;" x1="170.1055" x2="354.748" y1="629.2656" y2="629.2656"/><text fill="#000000" font-family="sans-serif" font-size="13" lengthAdjust="spacing" textLength="124.541" x="182.1055" y="624.1997">Parsed JSON object</text><line style="stroke:#000000;stroke-width:1;stroke-dasharray:2.0,2.0;" x1="10" x2="457.5513" y1="638.2656" y2="638.2656"/><text fill="#000000" font-family="sans-serif" font-size="11" font-weight="bold" lengthAdjust="spacing" textLength="134.4009" x="15" y="648.4761">[parsing-based-error]</text><polygon fill="#181818" points="176.1055,669.2031,166.1055,673.2031,176.1055,677.2031,172.1055,673.2031" style="stroke:#181818;stroke-width:1;"/><line style="stroke:#181818;stroke-width:1;" x1="170.1055" x2="354.748" y1="673.2031" y2="673.2031"/><text fill="#000000" font-family="sans-serif" font-size="13" lengthAdjust="spacing" textLength="78.1587" x="182.1055" y="668.1372">Parser-Error</text><polygon fill="#181818" points="62.7563,698.3359,52.7563,702.3359,62.7563,706.3359,58.7563,702.3359" style="stroke:#181818;stroke-width:1;"/><line style="stroke:#181818;stroke-width:1;" x1="56.7563" x2="164.1055" y1="702.3359" y2="702.3359"/><text fill="#000000" font-family="sans-serif" font-size="13" lengthAdjust="spacing" textLength="78.1587" x="68.7563" y="697.27">Parser-Error</text><polygon fill="#181818" points="62.7563,734.4688,52.7563,738.4688,62.7563,742.4688,58.7563,738.4688" style="stroke:#181818;stroke-width:1;"/><line style="stroke:#181818;stroke-width:1;stroke-dasharray:2.0,2.0;" x1="56.7563" x2="164.1055" y1="738.4688" y2="738.4688"/><text fill="#000000" font-family="sans-serif" font-size="13" lengthAdjust="spacing" textLength="84.8745" x="68.7563" y="733.4028">KVS instance</text><!--SRC=[jLFDJW8n4BxtAIQSuB0lmC63mP-84IE6gncwir0ixTgP9VfCFe8tdins5sIN18m7zzAV-VuwsueHIp2bjugS9XWPN0HS3-69C8SH2e9nuk7UQxHnimp4v0J5U0VzyOPdQ2iQA5LY4ADDYKwWTraPcrFe0JAW5X-wvUsdzklIkoYq_OBXwuPhP1pFufwD-xYRJXvgy8gzUubeflFYHQDTi59r4iWkaj4G9YKv6C-cIiLbsYruT-gS2goiH9An56bMwbb6xuQ55SIlY8ozqAWD1-sTH6lefwG3HPQfOS-HASyeXDYDOudh1BZwAUq2rNaxHNBvBt5XYRpyQ-QQytz9Q-8DEGeeT39kccLh5BtCkDAQcDiEhTyzXCSqGcemvF66Dj5RV3gHxpP1MlcIRT8qRj7nR9aTJbwRveshdwz8I-Ex5pZkMaUahH5EzgzJFdJm08ZNDJv75enFLNq3]--></g></svg>