<svg xmlns="http://www.w3.org/2000/svg" xmlns:xlink="http://www.w3.org/1999/xlink" contentStyleType="text/css" data-diagram-type="CLASS" height="693px" preserveAspectRatio="none" style="width:356px;height:693px;background:#FFFFFF;" version="1.1" viewBox="0 0 356 693" width="356px" zoomAndPan="magnify"><title>Static View - key_value_storage</title><defs/><g><text fill="#000000" font-family="sans-serif" font-size="14" font-weight="bold" lengthAdjust="spacing" textLength="249.7852" x="46.1074" y="22.9951">Static View - key_value_storage</text><!--cluster key_value_storage--><g id="cluster_key_value_storage"><path d="M8.5,416.2969 L154.7773,416.2969 A3.75,3.75 0 0 1 157.2773,418.7969 L164.2773,438.5938 L346.5,438.5938 A2.5,2.5 0 0 1 349,441.0938 L349,683.7969 A2.5,2.5 0 0 1 346.5,686.2969 L8.5,686.2969 A2.5,2.5 0 0 1 6,683.7969 L6,418.7969 A2.5,2.5 0 0 1 8.5,416.2969 " fill="#FFFF00" style="stroke:#000000;stroke-width:1.5;"/><line style="stroke:#000000;stroke-width:1.5;" x1="6" x2="164.2773" y1="438.5938" y2="438.5938"/><text fill="#000000" font-family="sans-serif" font-size="14" font-weight="bold" lengthAdjust="spacing" textLength="145.2773" x="10" y="431.292">key_value_storage</text><text fill="#000000" font-family="sans-serif" font-size="14" font-style="italic" lengthAdjust="spacing" textLength="68.1338" x="147.4331" y="453.5889">&#171;feature&#187;</text></g><!--entity kvs--><g id="elem_kvs"><rect fill="#FFFFFF" height="62.5938" rx="2.5" ry="2.5" style="stroke:#181818;stroke-width:0.5;" width="138.4824" x="54" y="467.2969"/><rect fill="#FFFFFF" height="10" style="stroke:#181818;stroke-width:0.5;" width="15" x="172.4824" y="472.2969"/><rect fill="#FFFFFF" height="2" style="stroke:#181818;stroke-width:0.5;" width="4" x="170.4824" y="474.2969"/><rect fill="#FFFFFF" height="2" style="stroke:#181818;stroke-width:0.5;" width="4" x="170.4824" y="478.2969"/><text fill="#000000" font-family="sans-serif" font-size="14" font-style="italic" lengthAdjust="spacing" textLength="96.4824" x="70" y="500.292">&#171;component&#187;</text><text fill="#000000" font-family="sans-serif" font-size="14" lengthAdjust="spacing" textLength="23.6865" x="106.3979" y="516.5889">kvs</text></g><!--entity fs--><g id="elem_fs"><rect fill="#FFFFFF" height="62.5938" rx="2.5" ry="2.5" style="stroke:#181818;stroke-width:0.5;" width="138.4824" x="22" y="607.2969"/><rect fill="#FFFFFF" height="10" style="stroke:#181818;stroke-width:0.5;" width="15" x="140.4824" y="612.2969"/><rect fill="#FFFFFF" height="2" style="stroke:#181818;stroke-width:0.5;" width="4" x="138.4824" y="614.2969"/><rect fill="#FFFFFF" height="2" style="stroke:#181818;stroke-width:0.5;" width="4" x="138.4824" y="618.2969"/><text fill="#000000" font-family="sans-serif" font-size="14" font-style="italic" lengthAdjust="spacing" textLength="96.4824" x="38" y="640.292">&#171;component&#187;</text><text fill="#000000" font-family="sans-serif" font-size="14" lengthAdjust="spacing" textLength="12.2227" x="80.1299" y="656.5889">fs</text></g><!--entity tiny_json--><g id="elem_tiny_json"><rect fill="#FFFFFF" height="62.5938" rx="2.5" ry="2.5" style="stroke:#181818;stroke-width:0.5;" width="138.4824" x="195" y="607.2969"/><rect fill="#FFFFFF" height="10" style="stroke:#181818;stroke-width:0.5;" width="15" x="313.4824" y="612.2969"/><rect fill="#FFFFFF" height="2" style="stroke:#181818;stroke-width:0.5;" width="4" x="311.4824" y="614.2969"/><rect fill="#FFFFFF" height="2" style="stroke:#181818;stroke-width:0.5;" width="4" x="311.4824" y="618.2969"/><text fill="#000000" font-family="sans-serif" font-size="14" font-style="italic" lengthAdjust="spacing" textLength="96.4824" x="211" y="640.292">&#171;component&#187;</text><text fill="#000000" font-family="sans-serif" font-size="14" lengthAdjust="spacing" textLength="62.1592" x="228.1616" y="656.5889">tiny_json</text></g><!--class Kvs--><g id="elem_Kvs"><rect codeLine="2" fill="#F1F1F1" height="325.0469" id="Kvs" rx="2.5" ry="2.5" style="stroke:#181818;stroke-width:0.5;" width="159.8545" x="43" y="44.2969"/><ellipse cx="106.2974" cy="60.2969" fill="#B4A7E5" rx="11" ry="11" style="stroke:#181818;stroke-width:1;"/><path d="M102.2192,56.0625 L102.2192,53.9063 L109.6099,53.9063 L109.6099,56.0625 L107.1411,56.0625 L107.1411,64.1406 L109.6099,64.1406 L109.6099,66.2969 L102.2192,66.2969 L102.2192,64.1406 L104.688,64.1406 L104.688,56.0625 L102.2192,56.0625 Z " fill="#000000"/><text fill="#000000" font-family="sans-serif" font-size="14" font-style="italic" lengthAdjust="spacing" textLength="24.7598" x="126.7974" y="65.1436">Kvs</text><line style="stroke:#181818;stroke-width:0.5;" x1="44" x2="201.8545" y1="76.2969" y2="76.2969"/><text fill="#000000" font-family="sans-serif" font-size="14" lengthAdjust="spacing" textLength="34.9385" x="49" y="93.292">open</text><text fill="#000000" font-family="sans-serif" font-size="14" lengthAdjust="spacing" textLength="91.5742" x="49" y="109.5889">flush_on_exit</text><text fill="#000000" font-family="sans-serif" font-size="14" lengthAdjust="spacing" textLength="35.7656" x="49" y="125.8857">reset</text><text fill="#000000" font-family="sans-serif" font-size="14" lengthAdjust="spacing" textLength="85.6475" x="49" y="142.1826">get_all_keys</text><text fill="#000000" font-family="sans-serif" font-size="14" lengthAdjust="spacing" textLength="72.8711" x="49" y="158.4795">key_exists</text><text fill="#000000" font-family="sans-serif" font-size="14" lengthAdjust="spacing" textLength="68.2295" x="49" y="174.7764">get_value</text><text fill="#000000" font-family="sans-serif" font-size="14" lengthAdjust="spacing" textLength="124.4893" x="49" y="191.0732">get_default_value</text><text fill="#000000" font-family="sans-serif" font-size="14" lengthAdjust="spacing" textLength="126.2461" x="49" y="207.3701">has_default_value</text><text fill="#000000" font-family="sans-serif" font-size="14" lengthAdjust="spacing" textLength="122.8965" x="49" y="223.667">set_default_value</text><text fill="#000000" font-family="sans-serif" font-size="14" lengthAdjust="spacing" textLength="66.6367" x="49" y="239.9639">set_value</text><text fill="#000000" font-family="sans-serif" font-size="14" lengthAdjust="spacing" textLength="85.4766" x="49" y="256.2607">remove_key</text><text fill="#000000" font-family="sans-serif" font-size="14" lengthAdjust="spacing" textLength="33.8584" x="49" y="272.5576">flush</text><text fill="#000000" font-family="sans-serif" font-size="14" lengthAdjust="spacing" textLength="110.3525" x="49" y="288.8545">snapshot_count</text><text fill="#000000" font-family="sans-serif" font-size="14" lengthAdjust="spacing" textLength="147.8545" x="49" y="305.1514">snapshot_max_count</text><text fill="#000000" font-family="sans-serif" font-size="14" lengthAdjust="spacing" textLength="120.9414" x="49" y="321.4482">snapshot_restore</text><text fill="#000000" font-family="sans-serif" font-size="14" lengthAdjust="spacing" textLength="121.7002" x="49" y="337.7451">get_kvs_filename</text><text fill="#000000" font-family="sans-serif" font-size="14" lengthAdjust="spacing" textLength="131.6328" x="49" y="354.042">get_hash_filename</text><line style="stroke:#181818;stroke-width:0.5;" x1="44" x2="201.8545" y1="361.3438" y2="361.3438"/></g><!--link Kvs to kvs--><g id="link_Kvs_kvs"><path codeLine="25" d="M123,369.3369 C123,406.7869 123,442.7569 123,467.0569 " fill="transparent" id="Kvs-kvs" style="stroke:#181818;stroke-width:1;"/></g><!--link kvs to tiny_json--><g id="link_kvs_tiny_json"><path codeLine="27" d="M154.29,530.4269 C177.66,553.2969 205.1617,580.2104 228.5117,603.0604 " fill="transparent" id="kvs-to-tiny_json" style="stroke:#181818;stroke-width:1;stroke-dasharray:7.0,7.0;"/><polygon fill="#181818" points="232.8,607.2569,229.1652,598.1033,229.2264,603.7598,223.5699,603.821,232.8,607.2569" style="stroke:#181818;stroke-width:1;"/><text fill="#000000" font-family="sans-serif" font-size="13" lengthAdjust="spacing" textLength="23.0103" x="202" y="573.3638">use</text></g><!--link kvs to fs--><g id="link_kvs_fs"><path codeLine="28" d="M115.9,530.4269 C110.6,553.2969 104.7357,578.562 99.4357,601.412 " fill="transparent" id="kvs-to-fs" style="stroke:#181818;stroke-width:1;stroke-dasharray:7.0,7.0;"/><polygon fill="#181818" points="98.08,607.2569,104.0101,599.3934,99.2097,602.3862,96.217,597.5858,98.08,607.2569" style="stroke:#181818;stroke-width:1;"/><text fill="#000000" font-family="sans-serif" font-size="13" lengthAdjust="spacing" textLength="23.0103" x="109" y="573.3638">use</text></g><!--SRC=[VL0xJyCm4DxlLnnbO4gKkQeob9Q54OarCiub777io8-a4UA_us0UQIlXxUvxdeLIPkhvnBe5yEmLuPCNdYK-CqsOOKTpDGeLg7BUMD4Im0rhgK9Ds8skOkt9Da9IFeHU0O3hM0_2YXu78Riem7V0-FPnQgq9khutobYyFHR7ub0apDYQRDhlLIH-RL_E5RjTGy87IsM9CoszuMCT9qq_64tQVmTUoNy9qM1wPK-B_WuFrB0cV4Zc3dvgRwvEt-2wGqhvIus_WMSX5tZpF-nPpzMRC_g25Jikpbd8y75qQS0yBt6bs69mj49YL5h19m00]--></g></svg>