<svg xmlns="http://www.w3.org/2000/svg" xmlns:xlink="http://www.w3.org/1999/xlink" contentStyleType="text/css" data-diagram-type="CLASS" height="145px" preserveAspectRatio="none" style="width:404px;height:145px;background:#FFFFFF;" version="1.1" viewBox="0 0 404 145" width="404px" zoomAndPan="magnify"><defs/><g><!--cluster F1--><g id="cluster_F1"><rect fill="transparent" height="132" rx="2.5" ry="2.5" style="stroke:#181818;stroke-width:1;" width="391" x="7" y="7"/><rect fill="transparent" height="10" style="stroke:#181818;stroke-width:1;" width="15" x="378" y="12"/><rect fill="transparent" height="2" style="stroke:#181818;stroke-width:1;" width="4" x="376" y="14"/><rect fill="transparent" height="2" style="stroke:#181818;stroke-width:1;" width="4" x="376" y="18"/><text fill="#000000" font-family="sans-serif" font-size="14" font-weight="bold" lengthAdjust="spacing" textLength="76.1797" x="164.4102" y="32.9951">Feature 1</text></g><!--class LI1--><g id="elem_LI1"><rect codeLine="3" fill="#F1F1F1" height="80.5938" id="LI1" rx="2.5" ry="2.5" style="stroke:#181818;stroke-width:0.5;" width="161.7939" x="220" y="42"/><ellipse cx="235" cy="58" fill="#B4A7E5" rx="11" ry="11" style="stroke:#181818;stroke-width:1;"/><path d="M230.9219,53.7656 L230.9219,51.6094 L238.3125,51.6094 L238.3125,53.7656 L235.8438,53.7656 L235.8438,61.8438 L238.3125,61.8438 L238.3125,64 L230.9219,64 L230.9219,61.8438 L233.3906,61.8438 L233.3906,53.7656 L230.9219,53.7656 Z " fill="#000000"/><text fill="#000000" font-family="sans-serif" font-size="14" font-style="italic" lengthAdjust="spacing" textLength="129.7939" x="249" y="62.8467">Logical Interface 1</text><line style="stroke:#181818;stroke-width:0.5;" x1="221" x2="380.7939" y1="74" y2="74"/><text fill="#000000" font-family="sans-serif" font-size="14" lengthAdjust="spacing" textLength="136.7871" x="226" y="90.9951">Logical Operation 1</text><text fill="#000000" font-family="sans-serif" font-size="14" lengthAdjust="spacing" textLength="136.7871" x="226" y="107.292">Logical Operation 2</text><line style="stroke:#181818;stroke-width:0.5;" x1="221" x2="380.7939" y1="114.5938" y2="114.5938"/></g><!--class LI2--><g id="elem_LI2"><rect codeLine="8" fill="#F1F1F1" height="80.5938" id="LI2" rx="2.5" ry="2.5" style="stroke:#181818;stroke-width:0.5;" width="161.7939" x="23" y="42"/><ellipse cx="38" cy="58" fill="#B4A7E5" rx="11" ry="11" style="stroke:#181818;stroke-width:1;"/><path d="M33.9219,53.7656 L33.9219,51.6094 L41.3125,51.6094 L41.3125,53.7656 L38.8438,53.7656 L38.8438,61.8438 L41.3125,61.8438 L41.3125,64 L33.9219,64 L33.9219,61.8438 L36.3906,61.8438 L36.3906,53.7656 L33.9219,53.7656 Z " fill="#000000"/><text fill="#000000" font-family="sans-serif" font-size="14" font-style="italic" lengthAdjust="spacing" textLength="129.7939" x="52" y="62.8467">Logical Interface 2</text><line style="stroke:#181818;stroke-width:0.5;" x1="24" x2="183.7939" y1="74" y2="74"/><text fill="#000000" font-family="sans-serif" font-size="14" lengthAdjust="spacing" textLength="136.7871" x="29" y="90.9951">Logical Operation 3</text><text fill="#000000" font-family="sans-serif" font-size="14" lengthAdjust="spacing" textLength="136.7871" x="29" y="107.292">Logical Operation 4</text><line style="stroke:#181818;stroke-width:0.5;" x1="24" x2="183.7939" y1="114.5938" y2="114.5938"/></g><!--SRC=[IyxFBSZFIyqhKL1oIqqiAIrALJ1KKaWiLd0pLAZcoimhIIrAIqnELL3ooK_FJ4xCKV242q7K-NY25C9a_GjIYn9BClFp50onY1bnrNBXDzC8QgOHLZEDiOYPWCoivG80]--></g></svg>