<svg xmlns="http://www.w3.org/2000/svg" xmlns:xlink="http://www.w3.org/1999/xlink" contentStyleType="text/css" data-diagram-type="CLASS" height="693px" preserveAspectRatio="none" style="width:1023px;height:693px;background:#FFFFFF;" version="1.1" viewBox="0 0 1023 693" width="1023px" zoomAndPan="magnify"><defs/><g><!--cluster application--><g id="cluster_application"><rect fill="transparent" height="120" rx="2.5" ry="2.5" style="stroke:#181818;stroke-width:1;" width="402" x="182" y="7"/><path d="M322.2725,7 L322.2725,16.2969 L312.2725,26.2969 L182,26.2969 " fill="transparent" style="stroke:#181818;stroke-width:1;"/><text fill="#000000" font-family="sans-serif" font-size="14" font-weight="bold" lengthAdjust="spacing" textLength="130.2725" x="185" y="20.9951">User Application</text></g><!--cluster feo--><g id="cluster_feo"><rect fill="transparent" height="237" rx="2.5" ry="2.5" style="stroke:#181818;stroke-width:1;" width="389" x="7" y="317"/><path d="M42.2041,317 L42.2041,326.2969 L32.2041,336.2969 L7,336.2969 " fill="transparent" style="stroke:#181818;stroke-width:1;"/><text fill="#000000" font-family="sans-serif" font-size="14" font-weight="bold" lengthAdjust="spacing" textLength="25.2041" x="10" y="330.9951">feo</text></g><!--entity PP--><g id="elem_PP"><rect fill="#F1F1F1" height="36.2969" rx="2.5" ry="2.5" style="stroke:#181818;stroke-width:0.5;" width="132.458" x="428" y="58.5"/><text fill="#000000" font-family="sans-serif" font-size="14" lengthAdjust="spacing" textLength="112.458" x="438" y="81.4951">Primary Process</text></g><!--entity SP--><g id="elem_SP"><rect fill="#F1F1F1" height="52.5938" rx="2.5" ry="2.5" style="stroke:#181818;stroke-width:0.5;" width="168.1621" x="225" y="50"/><text fill="#000000" font-family="sans-serif" font-size="14" lengthAdjust="spacing" textLength="148.1621" x="235" y="72.9951">Secondary Processes</text><text fill="#000000" font-family="sans-serif" font-size="14" lengthAdjust="spacing" textLength="67.6621" x="235" y="89.292">(optional)</text></g><!--entity feo--><g id="elem_feo"><rect fill="#F1F1F1" height="46.2969" rx="2.5" ry="2.5" style="stroke:#181818;stroke-width:0.5;" width="62.1074" x="31" y="360"/><rect fill="#F1F1F1" height="10" style="stroke:#181818;stroke-width:0.5;" width="15" x="73.1074" y="365"/><rect fill="#F1F1F1" height="2" style="stroke:#181818;stroke-width:0.5;" width="4" x="71.1074" y="367"/><rect fill="#F1F1F1" height="2" style="stroke:#181818;stroke-width:0.5;" width="4" x="71.1074" y="371"/><text fill="#000000" font-family="sans-serif" font-size="14" lengthAdjust="spacing" textLength="22.1074" x="46" y="392.9951">feo</text></g><!--entity feo_com--><g id="elem_feo_com"><rect fill="#F1F1F1" height="46.2969" rx="2.5" ry="2.5" style="stroke:#181818;stroke-width:0.5;" width="99.0078" x="128.5" y="360"/><rect fill="#F1F1F1" height="10" style="stroke:#181818;stroke-width:0.5;" width="15" x="207.5078" y="365"/><rect fill="#F1F1F1" height="2" style="stroke:#181818;stroke-width:0.5;" width="4" x="205.5078" y="367"/><rect fill="#F1F1F1" height="2" style="stroke:#181818;stroke-width:0.5;" width="4" x="205.5078" y="371"/><text fill="#000000" font-family="sans-serif" font-size="14" lengthAdjust="spacing" textLength="59.0078" x="143.5" y="392.9951">feo_com</text></g><!--entity feo_log--><g id="elem_feo_log"><rect fill="#F1F1F1" height="46.2969" rx="2.5" ry="2.5" style="stroke:#181818;stroke-width:0.5;" width="90.4492" x="263" y="360"/><rect fill="#F1F1F1" height="10" style="stroke:#181818;stroke-width:0.5;" width="15" x="333.4492" y="365"/><rect fill="#F1F1F1" height="2" style="stroke:#181818;stroke-width:0.5;" width="4" x="331.4492" y="367"/><rect fill="#F1F1F1" height="2" style="stroke:#181818;stroke-width:0.5;" width="4" x="331.4492" y="371"/><text fill="#000000" font-family="sans-serif" font-size="14" lengthAdjust="spacing" textLength="50.4492" x="278" y="392.9951">feo_log</text></g><!--entity feo_time--><g id="elem_feo_time"><rect fill="#F1F1F1" height="46.2969" rx="2.5" ry="2.5" style="stroke:#181818;stroke-width:0.5;" width="100.7373" x="31.5" y="484"/><rect fill="#F1F1F1" height="10" style="stroke:#181818;stroke-width:0.5;" width="15" x="112.2373" y="489"/><rect fill="#F1F1F1" height="2" style="stroke:#181818;stroke-width:0.5;" width="4" x="110.2373" y="491"/><rect fill="#F1F1F1" height="2" style="stroke:#181818;stroke-width:0.5;" width="4" x="110.2373" y="495"/><text fill="#000000" font-family="sans-serif" font-size="14" lengthAdjust="spacing" textLength="60.7373" x="46.5" y="516.9951">feo_time</text></g><!--entity feo_tracing--><g id="elem_feo_tracing"><rect fill="#F1F1F1" height="46.2969" rx="2.5" ry="2.5" style="stroke:#181818;stroke-width:0.5;" width="118.2783" x="168" y="484"/><rect fill="#F1F1F1" height="10" style="stroke:#181818;stroke-width:0.5;" width="15" x="266.2783" y="489"/><rect fill="#F1F1F1" height="2" style="stroke:#181818;stroke-width:0.5;" width="4" x="264.2783" y="491"/><rect fill="#F1F1F1" height="2" style="stroke:#181818;stroke-width:0.5;" width="4" x="264.2783" y="495"/><text fill="#000000" font-family="sans-serif" font-size="14" lengthAdjust="spacing" textLength="78.2783" x="183" y="516.9951">feo_tracing</text></g><!--entity life_mgr--><g id="elem_life_mgr"><rect fill="#F1F1F1" height="46.2969" rx="2.5" ry="2.5" style="stroke:#181818;stroke-width:0.5;" width="167.2305" x="607.5" y="53.5"/><rect fill="#F1F1F1" height="10" style="stroke:#181818;stroke-width:0.5;" width="15" x="754.7305" y="58.5"/><rect fill="#F1F1F1" height="2" style="stroke:#181818;stroke-width:0.5;" width="4" x="752.7305" y="60.5"/><rect fill="#F1F1F1" height="2" style="stroke:#181818;stroke-width:0.5;" width="4" x="752.7305" y="64.5"/><text fill="#000000" font-family="sans-serif" font-size="14" lengthAdjust="spacing" textLength="127.2305" x="622.5" y="86.4951">Lifecycle Manager</text></g><!--entity health_mgr--><g id="elem_health_mgr"><rect fill="#F1F1F1" height="46.2969" rx="2.5" ry="2.5" style="stroke:#181818;stroke-width:0.5;" width="151.7881" x="866" y="633.5"/><rect fill="#F1F1F1" height="10" style="stroke:#181818;stroke-width:0.5;" width="15" x="997.7881" y="638.5"/><rect fill="#F1F1F1" height="2" style="stroke:#181818;stroke-width:0.5;" width="4" x="995.7881" y="640.5"/><rect fill="#F1F1F1" height="2" style="stroke:#181818;stroke-width:0.5;" width="4" x="995.7881" y="644.5"/><text fill="#000000" font-family="sans-serif" font-size="14" lengthAdjust="spacing" textLength="111.7881" x="881" y="666.4951">Health Manager</text></g><!--entity com_mgr--><g id="elem_com_mgr"><rect fill="#F1F1F1" height="46.2969" rx="2.5" ry="2.5" style="stroke:#181818;stroke-width:0.5;" width="148.2676" x="683" y="633.5"/><rect fill="#F1F1F1" height="10" style="stroke:#181818;stroke-width:0.5;" width="15" x="811.2676" y="638.5"/><rect fill="#F1F1F1" height="2" style="stroke:#181818;stroke-width:0.5;" width="4" x="809.2676" y="640.5"/><rect fill="#F1F1F1" height="2" style="stroke:#181818;stroke-width:0.5;" width="4" x="809.2676" y="644.5"/><text fill="#000000" font-family="sans-serif" font-size="14" lengthAdjust="spacing" textLength="108.2676" x="698" y="666.4951">communication</text></g><!--entity log_trace_mgr--><g id="elem_log_trace_mgr"><rect fill="#F1F1F1" height="62.5938" rx="2.5" ry="2.5" style="stroke:#181818;stroke-width:0.5;" width="96.5947" x="543.5" y="625"/><rect fill="#F1F1F1" height="10" style="stroke:#181818;stroke-width:0.5;" width="15" x="620.0947" y="630"/><rect fill="#F1F1F1" height="2" style="stroke:#181818;stroke-width:0.5;" width="4" x="618.0947" y="632"/><rect fill="#F1F1F1" height="2" style="stroke:#181818;stroke-width:0.5;" width="4" x="618.0947" y="636"/><text fill="#000000" font-family="sans-serif" font-size="14" lengthAdjust="spacing" textLength="56.5947" x="558.5" y="657.9951">logging/</text><text fill="#000000" font-family="sans-serif" font-size="14" lengthAdjust="spacing" textLength="49.1709" x="558.5" y="674.292">tracing</text></g><!--entity time_mgr--><g id="elem_time_mgr"><rect fill="#F1F1F1" height="46.2969" rx="2.5" ry="2.5" style="stroke:#181818;stroke-width:0.5;" width="71.6299" x="416" y="633.5"/><rect fill="#F1F1F1" height="10" style="stroke:#181818;stroke-width:0.5;" width="15" x="467.6299" y="638.5"/><rect fill="#F1F1F1" height="2" style="stroke:#181818;stroke-width:0.5;" width="4" x="465.6299" y="640.5"/><rect fill="#F1F1F1" height="2" style="stroke:#181818;stroke-width:0.5;" width="4" x="465.6299" y="644.5"/><text fill="#000000" font-family="sans-serif" font-size="14" lengthAdjust="spacing" textLength="31.6299" x="431" y="666.4951">time</text></g><!--class activity--><g id="elem_activity"><rect codeLine="38" fill="#F1F1F1" height="48" id="activity" rx="2.5" ry="2.5" style="stroke:#181818;stroke-width:0.5;" width="84.6025" x="102.5" y="198"/><ellipse cx="117.5" cy="214" fill="#B4A7E5" rx="11" ry="11" style="stroke:#181818;stroke-width:1;"/><path d="M113.4219,209.7656 L113.4219,207.6094 L120.8125,207.6094 L120.8125,209.7656 L118.3438,209.7656 L118.3438,217.8438 L120.8125,217.8438 L120.8125,220 L113.4219,220 L113.4219,217.8438 L115.8906,217.8438 L115.8906,209.7656 L113.4219,209.7656 Z " fill="#000000"/><text fill="#000000" font-family="sans-serif" font-size="14" font-style="italic" lengthAdjust="spacing" textLength="52.6025" x="131.5" y="218.8467">Activity</text><line style="stroke:#181818;stroke-width:0.5;" x1="103.5" x2="186.1025" y1="230" y2="230"/><line style="stroke:#181818;stroke-width:0.5;" x1="103.5" x2="186.1025" y1="238" y2="238"/></g><!--class primary--><g id="elem_primary"><rect codeLine="40" fill="#F1F1F1" height="48" id="primary" rx="2.5" ry="2.5" style="stroke:#181818;stroke-width:0.5;" width="132.2354" x="410" y="198"/><ellipse cx="425" cy="214" fill="#B4A7E5" rx="11" ry="11" style="stroke:#181818;stroke-width:1;"/><path d="M420.9219,209.7656 L420.9219,207.6094 L428.3125,207.6094 L428.3125,209.7656 L425.8438,209.7656 L425.8438,217.8438 L428.3125,217.8438 L428.3125,220 L420.9219,220 L420.9219,217.8438 L423.3906,217.8438 L423.3906,209.7656 L420.9219,209.7656 Z " fill="#000000"/><text fill="#000000" font-family="sans-serif" font-size="14" font-style="italic" lengthAdjust="spacing" textLength="100.2354" x="439" y="218.8467">Primary Agent</text><line style="stroke:#181818;stroke-width:0.5;" x1="411" x2="541.2354" y1="230" y2="230"/><line style="stroke:#181818;stroke-width:0.5;" x1="411" x2="541.2354" y1="238" y2="238"/></g><!--class secondary--><g id="elem_secondary"><rect codeLine="41" fill="#F1F1F1" height="48" id="secondary" rx="2.5" ry="2.5" style="stroke:#181818;stroke-width:0.5;" width="152.0322" x="223" y="198"/><ellipse cx="238" cy="214" fill="#B4A7E5" rx="11" ry="11" style="stroke:#181818;stroke-width:1;"/><path d="M233.9219,209.7656 L233.9219,207.6094 L241.3125,207.6094 L241.3125,209.7656 L238.8438,209.7656 L238.8438,217.8438 L241.3125,217.8438 L241.3125,220 L233.9219,220 L233.9219,217.8438 L236.3906,217.8438 L236.3906,209.7656 L233.9219,209.7656 Z " fill="#000000"/><text fill="#000000" font-family="sans-serif" font-size="14" font-style="italic" lengthAdjust="spacing" textLength="120.0322" x="252" y="218.8467">Secondary Agent</text><line style="stroke:#181818;stroke-width:0.5;" x1="224" x2="374.0322" y1="230" y2="230"/><line style="stroke:#181818;stroke-width:0.5;" x1="224" x2="374.0322" y1="238" y2="238"/></g><!--class health--><g id="elem_health"><rect codeLine="43" fill="#F1F1F1" height="48" id="health" rx="2.5" ry="2.5" style="stroke:#181818;stroke-width:0.5;" width="77.9717" x="890" y="483"/><ellipse cx="905" cy="499" fill="#B4A7E5" rx="11" ry="11" style="stroke:#181818;stroke-width:1;"/><path d="M900.9219,494.7656 L900.9219,492.6094 L908.3125,492.6094 L908.3125,494.7656 L905.8438,494.7656 L905.8438,502.8438 L908.3125,502.8438 L908.3125,505 L900.9219,505 L900.9219,502.8438 L903.3906,502.8438 L903.3906,494.7656 L900.9219,494.7656 Z " fill="#000000"/><text fill="#000000" font-family="sans-serif" font-size="14" font-style="italic" lengthAdjust="spacing" textLength="45.9717" x="919" y="503.8467">Health</text><line style="stroke:#181818;stroke-width:0.5;" x1="891" x2="966.9717" y1="515" y2="515"/><line style="stroke:#181818;stroke-width:0.5;" x1="891" x2="966.9717" y1="523" y2="523"/></g><!--class lifecycle--><g id="elem_lifecycle"><rect codeLine="44" fill="#F1F1F1" height="48" id="lifecycle" rx="2.5" ry="2.5" style="stroke:#181818;stroke-width:0.5;" width="154.1924" x="597" y="198"/><ellipse cx="612" cy="214" fill="#B4A7E5" rx="11" ry="11" style="stroke:#181818;stroke-width:1;"/><path d="M607.9219,209.7656 L607.9219,207.6094 L615.3125,207.6094 L615.3125,209.7656 L612.8438,209.7656 L612.8438,217.8438 L615.3125,217.8438 L615.3125,220 L607.9219,220 L607.9219,217.8438 L610.3906,217.8438 L610.3906,209.7656 L607.9219,209.7656 Z " fill="#000000"/><text fill="#000000" font-family="sans-serif" font-size="14" font-style="italic" lengthAdjust="spacing" textLength="122.1924" x="626" y="218.8467">Lifecycle Listener</text><line style="stroke:#181818;stroke-width:0.5;" x1="598" x2="750.1924" y1="230" y2="230"/><line style="stroke:#181818;stroke-width:0.5;" x1="598" x2="750.1924" y1="238" y2="238"/></g><!--class mw_com--><g id="elem_mw_com"><rect codeLine="46" fill="#F1F1F1" height="48" id="mw_com" rx="2.5" ry="2.5" style="stroke:#181818;stroke-width:0.5;" width="96.4219" x="755" y="483"/><ellipse cx="770" cy="499" fill="#B4A7E5" rx="11" ry="11" style="stroke:#181818;stroke-width:1;"/><path d="M765.9219,494.7656 L765.9219,492.6094 L773.3125,492.6094 L773.3125,494.7656 L770.8438,494.7656 L770.8438,502.8438 L773.3125,502.8438 L773.3125,505 L765.9219,505 L765.9219,502.8438 L768.3906,502.8438 L768.3906,494.7656 L765.9219,494.7656 Z " fill="#000000"/><text fill="#000000" font-family="sans-serif" font-size="14" font-style="italic" lengthAdjust="spacing" textLength="64.4219" x="784" y="503.8467">mw::com</text><line style="stroke:#181818;stroke-width:0.5;" x1="756" x2="850.4219" y1="515" y2="515"/><line style="stroke:#181818;stroke-width:0.5;" x1="756" x2="850.4219" y1="523" y2="523"/></g><!--class logging--><g id="elem_logging"><rect codeLine="47" fill="#F1F1F1" height="48" id="logging" rx="2.5" ry="2.5" style="stroke:#181818;stroke-width:0.5;" width="83.8779" x="636" y="483"/><ellipse cx="651" cy="499" fill="#B4A7E5" rx="11" ry="11" style="stroke:#181818;stroke-width:1;"/><path d="M646.9219,494.7656 L646.9219,492.6094 L654.3125,492.6094 L654.3125,494.7656 L651.8438,494.7656 L651.8438,502.8438 L654.3125,502.8438 L654.3125,505 L646.9219,505 L646.9219,502.8438 L649.3906,502.8438 L649.3906,494.7656 L646.9219,494.7656 Z " fill="#000000"/><text fill="#000000" font-family="sans-serif" font-size="14" font-style="italic" lengthAdjust="spacing" textLength="51.8779" x="665" y="503.8467">logging</text><line style="stroke:#181818;stroke-width:0.5;" x1="637" x2="718.8779" y1="515" y2="515"/><line style="stroke:#181818;stroke-width:0.5;" x1="637" x2="718.8779" y1="523" y2="523"/></g><!--class tracing--><g id="elem_tracing"><rect codeLine="48" fill="#F1F1F1" height="48" id="tracing" rx="2.5" ry="2.5" style="stroke:#181818;stroke-width:0.5;" width="81.1709" x="519.5" y="483"/><ellipse cx="534.5" cy="499" fill="#B4A7E5" rx="11" ry="11" style="stroke:#181818;stroke-width:1;"/><path d="M530.4219,494.7656 L530.4219,492.6094 L537.8125,492.6094 L537.8125,494.7656 L535.3438,494.7656 L535.3438,502.8438 L537.8125,502.8438 L537.8125,505 L530.4219,505 L530.4219,502.8438 L532.8906,502.8438 L532.8906,494.7656 L530.4219,494.7656 Z " fill="#000000"/><text fill="#000000" font-family="sans-serif" font-size="14" font-style="italic" lengthAdjust="spacing" textLength="49.1709" x="548.5" y="503.8467">tracing</text><line style="stroke:#181818;stroke-width:0.5;" x1="520.5" x2="599.6709" y1="515" y2="515"/><line style="stroke:#181818;stroke-width:0.5;" x1="520.5" x2="599.6709" y1="523" y2="523"/></g><!--class time--><g id="elem_time"><rect codeLine="49" fill="#F1F1F1" height="48" id="time" rx="2.5" ry="2.5" style="stroke:#181818;stroke-width:0.5;" width="63.6299" x="420" y="483"/><ellipse cx="435" cy="499" fill="#B4A7E5" rx="11" ry="11" style="stroke:#181818;stroke-width:1;"/><path d="M430.9219,494.7656 L430.9219,492.6094 L438.3125,492.6094 L438.3125,494.7656 L435.8438,494.7656 L435.8438,502.8438 L438.3125,502.8438 L438.3125,505 L430.9219,505 L430.9219,502.8438 L433.3906,502.8438 L433.3906,494.7656 L430.9219,494.7656 Z " fill="#000000"/><text fill="#000000" font-family="sans-serif" font-size="14" font-style="italic" lengthAdjust="spacing" textLength="31.6299" x="449" y="503.8467">time</text><line style="stroke:#181818;stroke-width:0.5;" x1="421" x2="482.6299" y1="515" y2="515"/><line style="stroke:#181818;stroke-width:0.5;" x1="421" x2="482.6299" y1="523" y2="523"/></g><!--reverse link health to health_mgr--><g id="link_health_health_mgr"><path codeLine="51" d="M932.6127,548.9803 C935.0727,576.8503 937.59,605.52 940.03,633.1 " fill="transparent" id="health-backto-health_mgr" style="stroke:#181818;stroke-width:1;"/><polygon fill="transparent" points="931.03,531.05,926.6359,549.5078,938.5894,548.4527,931.03,531.05" style="stroke:#181818;stroke-width:1;"/><text fill="#000000" font-family="sans-serif" font-size="13" lengthAdjust="spacing" textLength="28.1392" x="937" y="591.0669">impl</text></g><!--reverse link mw_com to com_mgr--><g id="link_mw_com_com_mgr"><path codeLine="53" d="M790.4519,548.234 C781.7619,576.104 772.59,605.52 763.99,633.1 " fill="transparent" id="mw_com-backto-com_mgr" style="stroke:#181818;stroke-width:1;"/><polygon fill="transparent" points="795.81,531.05,784.7239,546.448,796.1799,550.0201,795.81,531.05" style="stroke:#181818;stroke-width:1;"/><text fill="#000000" font-family="sans-serif" font-size="13" lengthAdjust="spacing" textLength="28.1392" x="781" y="591.0669">impl</text></g><!--reverse link logging to log_trace_mgr--><g id="link_logging_log_trace_mgr"><path codeLine="54" d="M655.4934,546.5998 C640.7534,571.8798 626.1,597.01 609.82,624.94 " fill="transparent" id="logging-backto-log_trace_mgr" style="stroke:#181818;stroke-width:1;"/><polygon fill="transparent" points="664.56,531.05,650.3101,543.5776,660.6766,549.622,664.56,531.05" style="stroke:#181818;stroke-width:1;"/><text fill="#000000" font-family="sans-serif" font-size="13" lengthAdjust="spacing" textLength="28.1392" x="636" y="591.0669">impl</text></g><!--reverse link tracing to log_trace_mgr--><g id="link_tracing_log_trace_mgr"><path codeLine="55" d="M568.8133,548.6414 C574.2933,573.9214 579.31,597.01 585.37,624.94 " fill="transparent" id="tracing-backto-log_trace_mgr" style="stroke:#181818;stroke-width:1;"/><polygon fill="transparent" points="565,531.05,562.9495,549.9125,574.6771,547.3703,565,531.05" style="stroke:#181818;stroke-width:1;"/><text fill="#000000" font-family="sans-serif" font-size="13" lengthAdjust="spacing" textLength="28.1392" x="579" y="591.0669">impl</text></g><!--reverse link time to time_mgr--><g id="link_time_time_mgr"><path codeLine="56" d="M452,549.05 C452,576.92 452,605.52 452,633.1 " fill="transparent" id="time-backto-time_mgr" style="stroke:#181818;stroke-width:1;"/><polygon fill="transparent" points="452,531.05,446,549.05,458,549.05,452,531.05" style="stroke:#181818;stroke-width:1;"/><text fill="#000000" font-family="sans-serif" font-size="13" lengthAdjust="spacing" textLength="28.1392" x="453" y="591.0669">impl</text></g><!--reverse link primary to feo--><g id="link_primary_feo"><path codeLine="58" d="M454.4852,261.8697 C442.4752,283.5747 432.785,301.08 417.19,329.2575 C409.3925,343.3462 402.2975,356.1656 397.0556,365.6372 C396.728,366.2292 396.4076,366.8081 396.0948,367.3734 " fill="transparent" id="primary-backto-feo" style="stroke:#181818;stroke-width:1;"/><polygon fill="transparent" points="463.2,246.12,449.2353,258.9648,459.7351,264.7746,463.2,246.12" style="stroke:#181818;stroke-width:1;"/><text fill="#000000" font-family="sans-serif" font-size="13" lengthAdjust="spacing" textLength="28.1392" x="446" y="289.0669">impl</text></g><!--reverse link secondary to feo--><g id="link_secondary_feo"><path codeLine="59" d="M338.5179,258.6841 C353.3979,273.0541 358.14,280.19 369,301 C371.0712,304.97 372.9195,309.1663 374.5685,313.4757 C374.9807,314.5531 375.3805,315.6376 375.7681,316.7273 " fill="transparent" id="secondary-backto-feo" style="stroke:#181818;stroke-width:1;"/><polygon fill="transparent" points="325.57,246.18,334.3498,263.0001,342.6859,254.3681,325.57,246.18" style="stroke:#181818;stroke-width:1;"/><text fill="#000000" font-family="sans-serif" font-size="13" lengthAdjust="spacing" textLength="28.1392" x="365" y="289.0669">impl</text></g><!--reverse link activity to feo--><g id="link_activity_feo"><path codeLine="60" d="M203.9109,251.3398 C237.9109,267.0998 270.85,280.54 316,293 C338.96,299.34 351.49,284.85 369,301 C372.2913,304.0363 375.0641,307.5248 377.3957,311.3117 C377.9786,312.2584 378.534,313.2238 379.063,314.2054 C379.3274,314.6962 379.5853,315.1911 379.8368,315.6897 C379.9625,315.939 380.0867,316.1892 380.2092,316.4404 C380.2704,316.5659 380.3313,316.6917 380.3918,316.8178 " fill="transparent" id="activity-backto-feo" style="stroke:#181818;stroke-width:1;"/><polygon fill="transparent" points="187.58,243.77,201.3876,256.7835,206.4342,245.8962,187.58,243.77" style="stroke:#181818;stroke-width:1;"/><text fill="#000000" font-family="sans-serif" font-size="13" lengthAdjust="spacing" textLength="28.1392" x="317" y="289.0669">impl</text></g><!--reverse link lifecycle to feo--><g id="link_lifecycle_feo"><path codeLine="61" d="M616.6779,254.8665 C577.6379,276.5715 533.5525,301.08 482.8675,329.2575 C457.525,343.3462 434.4656,356.1656 417.4281,365.6372 C408.9094,370.373 401.8961,374.2718 396.8556,377.0739 C396.6981,377.1614 396.5425,377.2479 396.3889,377.3333 " fill="transparent" id="lifecycle-backto-feo" style="stroke:#181818;stroke-width:1;"/><polygon fill="transparent" points="632.41,246.12,613.7624,249.6225,619.5934,260.1106,632.41,246.12" style="stroke:#181818;stroke-width:1;"/><text fill="#000000" font-family="sans-serif" font-size="13" lengthAdjust="spacing" textLength="28.1392" x="574" y="289.0669">impl</text></g><!--link feo to health--><g id="link_feo_health"><path codeLine="63" d="M396.5846,385.1068 C396.7917,385.134 397.0023,385.1617 397.2165,385.1899 C397.6448,385.2463 398.0873,385.3047 398.5439,385.3651 C399.457,385.486 400.4262,385.6148 401.4503,385.7517 C409.6431,386.8466 421.3475,388.4548 435.92,390.5728 C465.065,394.8088 505.6825,401.0838 552.625,409.37 C646.51,425.9425 765.695,450.56 869,483 C875.81,485.14 877.342,485.5701 884.242,488.1201 " fill="transparent" id="feo-to-health" style="stroke:#181818;stroke-width:1;"/><polygon fill="#181818" points="889.87,490.2,882.8147,483.3282,885.18,488.4667,880.0414,490.8321,889.87,490.2" style="stroke:#181818;stroke-width:1;"/><text fill="#000000" font-family="sans-serif" font-size="13" lengthAdjust="spacing" textLength="23.0103" x="753" y="449.0669">use</text></g><!--link feo to mw_com--><g id="link_feo_mw_com"><path codeLine="64" d="M396.2365,385.9674 C396.4886,386.0279 396.746,386.0897 397.0086,386.1528 C398.0593,386.4052 399.1944,386.6782 400.41,386.9711 C402.8413,387.557 405.5947,388.2224 408.6386,388.9609 C420.8141,391.915 437.6369,396.0387 457.0813,400.92 C495.97,410.6825 545.345,423.475 589,436 C655.75,455.15 672.15,460.97 738,483 C743.45,484.82 743.4714,484.8035 749.1214,486.7635 " fill="transparent" id="feo-to-mw_com" style="stroke:#181818;stroke-width:1;"/><polygon fill="#181818" points="754.79,488.73,747.5981,482.0013,750.0662,487.0913,744.9761,489.5594,754.79,488.73" style="stroke:#181818;stroke-width:1;"/><text fill="#000000" font-family="sans-serif" font-size="13" lengthAdjust="spacing" textLength="23.0103" x="647" y="449.0669">use</text></g><!--link feo to logging--><g id="link_feo_logging"><path codeLine="65" d="M396.2519,387.2376 C396.3509,387.2765 396.4507,387.3158 396.5514,387.3554 C396.7527,387.4345 396.9571,387.5149 397.1647,387.5966 C397.58,387.76 398.0078,387.9283 398.4479,388.1015 C399.3281,388.448 400.2574,388.814 401.2333,389.1986 C409.0403,392.2753 419.8281,396.5419 432.3013,401.5163 C457.2475,411.465 488.935,424.245 517,436 C557.48,452.96 597.8696,470.5602 630.2696,484.8402 " fill="transparent" id="feo-to-logging" style="stroke:#181818;stroke-width:1;"/><polygon fill="#181818" points="635.76,487.26,629.1376,479.97,631.1847,485.2435,625.9112,487.2905,635.76,487.26" style="stroke:#181818;stroke-width:1;"/><text fill="#000000" font-family="sans-serif" font-size="13" lengthAdjust="spacing" textLength="23.0103" x="557" y="449.0669">use</text></g><!--link feo to tracing--><g id="link_feo_tracing"><path codeLine="66" d="M396.1253,389.7671 C396.3418,389.9206 396.5621,390.0768 396.7862,390.2358 C397.2344,390.5536 397.6977,390.8823 398.1758,391.2214 C400.0882,392.5777 402.2361,394.1011 404.59,395.7706 C414.0056,402.4488 426.7175,411.465 440.8375,421.48 C469.0775,441.51 498.0559,462.064 522.4559,479.369 " fill="transparent" id="feo-to-tracing" style="stroke:#181818;stroke-width:1;"/><polygon fill="#181818" points="527.35,482.84,522.3229,474.3708,523.2716,479.9475,517.6949,480.8962,527.35,482.84" style="stroke:#181818;stroke-width:1;"/><text fill="#000000" font-family="sans-serif" font-size="13" lengthAdjust="spacing" textLength="23.0103" x="485" y="449.0669">use</text></g><!--link feo to time--><g id="link_feo_time"><path codeLine="67" d="M396.0876,399.4144 C396.1486,399.5307 396.2098,399.6475 396.2714,399.7648 C396.5175,400.2341 396.7679,400.7115 397.0224,401.1967 C398.0404,403.1376 399.124,405.2036 400.2624,407.374 C402.5391,411.7147 405.0347,416.4725 407.6613,421.48 C418.1675,441.51 427.9822,460.222 437.0622,477.527 " fill="transparent" id="feo-to-time" style="stroke:#181818;stroke-width:1;"/><polygon fill="#181818" points="439.85,482.84,439.2104,473.0119,437.5269,478.4125,432.1263,476.729,439.85,482.84" style="stroke:#181818;stroke-width:1;"/><text fill="#000000" font-family="sans-serif" font-size="13" lengthAdjust="spacing" textLength="23.0103" x="424" y="449.0669">use</text></g><!--link application to activity--><g id="link_application_activity"><path codeLine="69" d="M181.9535,103.1701 C181.9029,103.3314 181.8522,103.4932 181.8012,103.6556 C181.6994,103.9803 181.5969,104.3072 181.4938,104.6362 C181.2874,105.2941 181.0785,105.9603 180.8672,106.6343 C179.1762,112.0268 177.3272,117.9228 175.3888,124.1037 C167.635,148.8275 160.2467,172.3853 154.0167,192.2353 " fill="transparent" id="application-to-activity" style="stroke:#181818;stroke-width:1;"/><polygon fill="#181818" points="152.22,197.96,158.7315,190.5708,153.7173,193.1894,151.0986,188.1752,152.22,197.96" style="stroke:#181818;stroke-width:1;"/><text fill="#000000" font-family="sans-serif" font-size="13" lengthAdjust="spacing" textLength="23.0103" x="168" y="164.0669">use</text></g><!--link application to secondary--><g id="link_application_secondary"><path codeLine="70" d="M201.1194,127.3267 C201.2068,127.5465 201.295,127.7661 201.3838,127.9854 C202.0942,129.7401 202.8475,131.4781 203.6461,133.1873 C205.2431,136.6056 207.0213,139.9088 209,143 C222.94,164.77 239.9042,180.2911 258.5542,194.1511 " fill="transparent" id="application-to-secondary" style="stroke:#181818;stroke-width:1;"/><polygon fill="#181818" points="263.37,197.73,258.5323,189.1512,259.3569,194.7476,253.7604,195.5722,263.37,197.73" style="stroke:#181818;stroke-width:1;"/><text fill="#000000" font-family="sans-serif" font-size="13" lengthAdjust="spacing" textLength="23.0103" x="229" y="164.0669">use</text></g><!--link application to primary--><g id="link_application_primary"><path codeLine="71" d="M197.6612,127.2135 C197.7093,127.3184 197.7578,127.423 197.8066,127.5275 C198.1967,128.3636 198.6052,129.1901 199.0331,130.005 C199.8888,131.6349 200.8217,133.2185 201.8385,134.7402 C203.872,137.7834 206.2413,140.5788 209,143 C226.57,158.43 238.25,145.58 261,151 C313.51,163.5 365.9874,180.7579 408.5474,195.9079 " fill="transparent" id="application-to-primary" style="stroke:#181818;stroke-width:1;"/><polygon fill="#181818" points="414.2,197.92,407.0626,191.1334,409.4895,196.2432,404.3798,198.6702,414.2,197.92" style="stroke:#181818;stroke-width:1;"/><text fill="#000000" font-family="sans-serif" font-size="13" lengthAdjust="spacing" textLength="23.0103" x="322" y="164.0669">use</text></g><!--link life_mgr to lifecycle--><g id="link_life_mgr_lifecycle"><path codeLine="73" d="M688.38,99.61 C685.23,126.18 680.6755,164.6116 677.4655,191.7216 " fill="transparent" id="life_mgr-to-lifecycle" style="stroke:#181818;stroke-width:1;"/><polygon fill="#181818" points="676.76,197.68,681.7905,189.2128,677.3479,192.7147,673.846,188.2721,676.76,197.68" style="stroke:#181818;stroke-width:1;"/><text fill="#000000" font-family="sans-serif" font-size="13" lengthAdjust="spacing" textLength="23.0103" x="682" y="164.0669">use</text></g><!--SRC=[hLHTQzim57tthxXa3sq7ZajXBtaOXAvZXQmBf2jxA1HLbcqnMJAIKYzi_U-x-h0jBs5FxKkaSuxE_QoBimm0ti7xj_qBfjUgEsXUDnREwGLSNLvzG4XQpP_tLca3Le5j6DnGmJl3uBFQov9OhgH_7ZnsZ7dHtRVxs-iRgBXWv-O2Icw23okXvxP13JVGA_qJAgM1b2LtHaG45ouHRRqtQ5OJNN9P0ntpKxrasZIyMoQXxvrbfrMjIGj4bZuFGgbgEo8FpW0TcUP4622QuQr4_eLmGPu50oo6QVSckA6oDQ0gxxBk2CMV3QTCOkKF6DobThMyXBxXj06CF3aH6omQQpkpAeg-xvV4EooLhWiHN4onmGxTxMvoj4axkFtq8u-HyjkIISihplGg9Z6gttm7pegC2A7wbl_2PcLPLc4Z6Io-6-pBkkimRp-H1H2iThh3RvSFa1fJXSLMyvRe0soreimOBzvkKyMEKOMBCscOUPJdgWiBSE5VxBRPQvQvqIdf7srunUY1OdU_4eb6sii4eazjhLFb5qO4BbWgQppaXQaIZ-rUfbKXyg-TK7MDxIWUyH-1K3o5mAf-SlUZw9Qtp2lS8KICRQoOyWJ-neubpnnv0dl2wqaSuv_4VVYJH4pUjPLBNEuAauV5cbh-mkqXp3HUCBtNL3ICTEtcvvLTG5BHDDL9PWPi5ZCCA1bCIavptk0dWybaq1wUERNzQkKwv1HjxvgLid5omxpSEQNJSSRpZ4u7cMNJ2a6-p_zyZAclWBUTy5kLS26NoCrM9GfYElzHn8oYObYcWSJh4DcjKq3ZK28nuUCKZfXXu4V4sEvPb3AVojuRDe53lJDmh766ZdNDKL-GWxBqm-AvAKd77z59TIVviIlUVVXWG9xFgaJoBm00]--></g></svg>