<svg xmlns="http://www.w3.org/2000/svg" xmlns:xlink="http://www.w3.org/1999/xlink" contentStyleType="text/css" data-diagram-type="SEQUENCE" height="398px" preserveAspectRatio="none" style="width:504px;height:398px;background:#FFFFFF;" version="1.1" viewBox="0 0 504 398" width="504px" zoomAndPan="magnify"><defs/><g><g><title>Producer</title><rect fill="transparent" height="236.2578" width="8" x="39.2949" y="81.2969"/><line style="stroke:#181818;stroke-width:0.5;stroke-dasharray:5.0,5.0;" x1="43" x2="43" y1="81.2969" y2="317.5547"/></g><g><title>Service</title><rect fill="transparent" height="187.4609" width="8" x="154.2124" y="130.0938"/><line style="stroke:#181818;stroke-width:0.5;stroke-dasharray:5.0,5.0;" x1="157.3418" x2="157.3418" y1="130.0938" y2="317.5547"/></g><g><title>SOME/IP Gateway</title><rect fill="transparent" height="236.2578" width="8" x="303.8896" y="81.2969"/><line style="stroke:#181818;stroke-width:0.5;stroke-dasharray:5.0,5.0;" x1="307.6826" x2="307.6826" y1="81.2969" y2="317.5547"/></g><g><title>Network</title><rect fill="transparent" height="236.2578" width="8" x="467.043" y="81.2969"/><line style="stroke:#181818;stroke-width:0.5;stroke-dasharray:5.0,5.0;" x1="470.8159" x2="470.8159" y1="81.2969" y2="317.5547"/></g><rect fill="#E2E2F0" height="30.2969" rx="2.5" ry="2.5" style="stroke:#181818;stroke-width:0.5;" width="76.5898" x="5" y="50"/><text fill="#000000" font-family="sans-serif" font-size="14" lengthAdjust="spacing" textLength="62.5898" x="12" y="69.9951">Producer</text><rect fill="#E2E2F0" height="30.2969" rx="2.5" ry="2.5" style="stroke:#181818;stroke-width:0.5;" width="76.5898" x="5" y="316.5547"/><text fill="#000000" font-family="sans-serif" font-size="14" lengthAdjust="spacing" textLength="62.5898" x="12" y="336.5498">Producer</text><rect fill="#E2E2F0" height="46.5938" rx="2.5" ry="2.5" style="stroke:#181818;stroke-width:0.5;" width="65.7412" x="125.3418" y="316.5547"/><text fill="#000000" font-family="sans-serif" font-size="14" lengthAdjust="spacing" textLength="51.7412" x="132.3418" y="336.5498">Service</text><text fill="#000000" font-family="sans-serif" font-size="14" lengthAdjust="spacing" textLength="47.5508" x="134.437" y="352.8467">via IPC</text><rect fill="#E2E2F0" height="30.2969" rx="2.5" ry="2.5" style="stroke:#181818;stroke-width:0.5;" width="138.4141" x="238.6826" y="50"/><text fill="#000000" font-family="sans-serif" font-size="14" lengthAdjust="spacing" textLength="124.4141" x="245.6826" y="69.9951">SOME/IP Gateway</text><rect fill="#E2E2F0" height="30.2969" rx="2.5" ry="2.5" style="stroke:#181818;stroke-width:0.5;" width="138.4141" x="238.6826" y="316.5547"/><text fill="#000000" font-family="sans-serif" font-size="14" lengthAdjust="spacing" textLength="124.4141" x="245.6826" y="336.5498">SOME/IP Gateway</text><text fill="#000000" font-family="sans-serif" font-size="14" lengthAdjust="spacing" textLength="58.4541" x="438.8159" y="77.9951">Network</text><ellipse cx="471.043" cy="13.5" fill="#E2E2F0" rx="8" ry="8" style="stroke:#181818;stroke-width:0.5;"/><path d="M471.043,21.5 L471.043,48.5 M458.043,29.5 L484.043,29.5 M471.043,48.5 L458.043,63.5 M471.043,48.5 L484.043,63.5 " fill="transparent" style="stroke:#181818;stroke-width:0.5;"/><text fill="#000000" font-family="sans-serif" font-size="14" lengthAdjust="spacing" textLength="58.4541" x="438.8159" y="329.5498">Network</text><ellipse cx="471.043" cy="341.3516" fill="#E2E2F0" rx="8" ry="8" style="stroke:#181818;stroke-width:0.5;"/><path d="M471.043,349.3516 L471.043,376.3516 M458.043,357.3516 L484.043,357.3516 M471.043,376.3516 L458.043,391.3516 M471.043,376.3516 L484.043,391.3516 " fill="transparent" style="stroke:#181818;stroke-width:0.5;"/><polygon fill="#181818" points="113.3418,108.4297,123.3418,112.4297,113.3418,116.4297,117.3418,112.4297" style="stroke:#181818;stroke-width:1;"/><line style="stroke:#181818;stroke-width:1;" x1="43.2949" x2="119.3418" y1="112.4297" y2="112.4297"/><text fill="#000000" font-family="sans-serif" font-size="13" lengthAdjust="spacing" textLength="51.6953" x="50.2949" y="107.3638">create()</text><rect fill="#E2E2F0" height="46.5938" rx="2.5" ry="2.5" style="stroke:#181818;stroke-width:0.5;" width="65.7412" x="125.3418" y="91.2969"/><text fill="#000000" font-family="sans-serif" font-size="14" lengthAdjust="spacing" textLength="51.7412" x="132.3418" y="111.292">Service</text><text fill="#000000" font-family="sans-serif" font-size="14" lengthAdjust="spacing" textLength="47.5508" x="134.437" y="127.5889">via IPC</text><polygon fill="#181818" points="146.2124,166.0234,156.2124,170.0234,146.2124,174.0234,150.2124,170.0234" style="stroke:#181818;stroke-width:1;"/><line style="stroke:#181818;stroke-width:1;" x1="43.2949" x2="152.2124" y1="170.0234" y2="170.0234"/><text fill="#000000" font-family="sans-serif" font-size="13" lengthAdjust="spacing" textLength="90.9175" x="50.2949" y="164.9575">OfferService()</text><polygon fill="#181818" points="169.2124,195.1563,159.2124,199.1563,169.2124,203.1563,165.2124,199.1563" style="stroke:#181818;stroke-width:1;"/><line style="stroke:#181818;stroke-width:1;" x1="163.2124" x2="306.8896" y1="199.1563" y2="199.1563"/><text fill="#000000" font-family="sans-serif" font-size="13" lengthAdjust="spacing" textLength="125.6772" x="175.2124" y="194.0903">service_discovery()</text><polygon fill="#181818" points="459.043,224.2891,469.043,228.2891,459.043,232.2891,463.043,228.2891" style="stroke:#181818;stroke-width:1;"/><line style="stroke:#181818;stroke-width:1;" x1="307.8896" x2="465.043" y1="228.2891" y2="228.2891"/><text fill="#000000" font-family="sans-serif" font-size="13" lengthAdjust="spacing" textLength="80.7739" x="314.8896" y="223.2231">OfferService</text><polygon fill="#181818" points="318.8896,253.4219,308.8896,257.4219,318.8896,261.4219,314.8896,257.4219" style="stroke:#181818;stroke-width:1;"/><line style="stroke:#181818;stroke-width:1;" x1="312.8896" x2="470.043" y1="257.4219" y2="257.4219"/><text fill="#000000" font-family="sans-serif" font-size="13" lengthAdjust="spacing" textLength="139.1533" x="324.8896" y="252.356">SubscribeEventgroup</text><line style="stroke:#181818;stroke-width:1;" x1="307.8896" x2="349.8896" y1="286.5547" y2="286.5547"/><line style="stroke:#181818;stroke-width:1;" x1="349.8896" x2="349.8896" y1="286.5547" y2="299.5547"/><line style="stroke:#181818;stroke-width:1;" x1="308.8896" x2="349.8896" y1="299.5547" y2="299.5547"/><polygon fill="#181818" points="318.8896,295.5547,308.8896,299.5547,318.8896,303.5547,314.8896,299.5547" style="stroke:#181818;stroke-width:1;"/><text fill="#000000" font-family="sans-serif" font-size="13" lengthAdjust="spacing" textLength="95.1323" x="314.8896" y="281.4888">create_proxy()</text><!--SRC=[TOz12u9048Nl-oi6JoL4TmzTGi93ANWDP5r7MIftcLqr_tsc6sdORURnpNjlD2ShXTIyjk0bf8f687d03KJ9CHDtYRLbUWwbIAqKUArRoT_G23lnXupFuJvAuCGjThoVGFL0gQj9OLnOHU1Tq7QARYFWPiQ- -R0xV0B0zo40GJWORBP_c03YiaHowu0jGcTa06OQia8QeLgaVersbPQspAcZtVmYWBJ9ZI2POzWEpIfIZLwfiBoPNieqgUVGuGK0]--></g></svg>