<svg xmlns="http://www.w3.org/2000/svg" xmlns:xlink="http://www.w3.org/1999/xlink" contentStyleType="text/css" data-diagram-type="CLASS" height="241px" preserveAspectRatio="none" style="width:391px;height:241px;background:#FFFFFF;" version="1.1" viewBox="0 0 391 241" width="391px" zoomAndPan="magnify"><defs/><g><g id="elem_static"><rect fill="#F1F1F1" height="36.2969" rx="2.5" ry="2.5" style="stroke:#181818;stroke-width:0.5;" width="156.4541" x="126.5" y="7"/><text fill="#000000" font-family="sans-serif" font-size="14" lengthAdjust="spacing" textLength="142.4541" x="133.5" y="21.9951">Static Code Analysis</text><line style="stroke:#181818;stroke-width:0.5;" x1="127.5" x2="281.9541" y1="27.2969" y2="27.2969"/></g><g id="elem_ct"><rect fill="#F1F1F1" height="36.2969" rx="2.5" ry="2.5" style="stroke:#181818;stroke-width:0.5;" width="88.6689" x="7" y="103"/><text fill="#000000" font-family="sans-serif" font-size="14" lengthAdjust="spacing" textLength="74.6689" x="14" y="117.9951">Clang-Tidy</text><line style="stroke:#181818;stroke-width:0.5;" x1="8" x2="94.6689" y1="123.2969" y2="123.2969"/></g><g id="elem_cw"><rect fill="#F1F1F1" height="36.2969" rx="2.5" ry="2.5" style="stroke:#181818;stroke-width:0.5;" width="147.458" x="131" y="103"/><text fill="#000000" font-family="sans-serif" font-size="14" lengthAdjust="spacing" textLength="133.458" x="138" y="117.9951">Compiler Warnings</text><line style="stroke:#181818;stroke-width:0.5;" x1="132" x2="277.458" y1="123.2969" y2="123.2969"/></g><g id="elem_gcc"><rect fill="#F1F1F1" height="36.2969" rx="2.5" ry="2.5" style="stroke:#181818;stroke-width:0.5;" width="38.2813" x="145.5" y="199"/><text fill="#000000" font-family="sans-serif" font-size="14" lengthAdjust="spacing" textLength="24.2813" x="152.5" y="213.9951">gcc</text><line style="stroke:#181818;stroke-width:0.5;" x1="146.5" x2="182.7813" y1="219.2969" y2="219.2969"/></g><g id="elem_clang"><rect fill="#F1F1F1" height="36.2969" rx="2.5" ry="2.5" style="stroke:#181818;stroke-width:0.5;" width="51.9258" x="218.5" y="199"/><text fill="#000000" font-family="sans-serif" font-size="14" lengthAdjust="spacing" textLength="37.9258" x="225.5" y="213.9951">clang</text><line style="stroke:#181818;stroke-width:0.5;" x1="219.5" x2="269.4258" y1="219.2969" y2="219.2969"/></g><g id="elem_cov"><rect fill="#F1F1F1" height="36.2969" rx="2.5" ry="2.5" style="stroke:#181818;stroke-width:0.5;" width="72.6592" x="313" y="103"/><text fill="#000000" font-family="sans-serif" font-size="14" lengthAdjust="spacing" textLength="58.6592" x="320" y="117.9951">Coverity</text><line style="stroke:#181818;stroke-width:0.5;" x1="314" x2="384.6592" y1="123.2969" y2="123.2969"/></g><!--link static to ct--><g id="link_static_ct"><path codeLine="9" d="M176.79,43.02 C149.15,60.01 112.0317,82.8083 84.3717,99.8083 " fill="transparent" id="static-to-ct" style="stroke:#181818;stroke-width:1;"/><polygon fill="#181818" points="79.26,102.95,89.0221,101.6453,83.5198,100.3319,84.8331,94.8296,79.26,102.95" style="stroke:#181818;stroke-width:1;"/></g><!--link static to cw--><g id="link_static_cw"><path codeLine="10" d="M204.5,43.24 C204.5,60.2 204.5,79.95 204.5,96.87 " fill="transparent" id="static-to-cw" style="stroke:#181818;stroke-width:1;"/><polygon fill="#181818" points="204.5,102.87,208.5,93.87,204.5,97.87,200.5,93.87,204.5,102.87" style="stroke:#181818;stroke-width:1;"/></g><!--link cw to gcc--><g id="link_cw_gcc"><path codeLine="11" d="M197.16,139.24 C189.95,156.2 181.3393,176.4291 174.1393,193.3491 " fill="transparent" id="cw-to-gcc" style="stroke:#181818;stroke-width:1;"/><polygon fill="#181818" points="171.79,198.87,178.9946,192.1548,173.7478,194.2692,171.6334,189.0224,171.79,198.87" style="stroke:#181818;stroke-width:1;"/></g><!--link cw to clang--><g id="link_cw_clang"><path codeLine="12" d="M211.84,139.24 C219.05,156.2 227.6607,176.4291 234.8607,193.3491 " fill="transparent" id="cw-to-clang" style="stroke:#181818;stroke-width:1;"/><polygon fill="#181818" points="237.21,198.87,237.3666,189.0224,235.2522,194.2692,230.0054,192.1548,237.21,198.87" style="stroke:#181818;stroke-width:1;"/></g><!--link static to cov--><g id="link_static_cov"><path codeLine="13" d="M230.76,43.02 C256.87,59.95 291.6956,82.5259 317.9156,99.5259 " fill="transparent" id="static-to-cov" style="stroke:#181818;stroke-width:1;"/><polygon fill="#181818" points="322.95,102.79,317.5744,94.5375,318.7546,100.0699,313.2223,101.2501,322.95,102.79" style="stroke:#181818;stroke-width:1;"/></g><!--SRC=[JOtD2iCW48JlFiMIkwzGA7c41dhURaGsMBUeA7dxuazQRpFCp3VoEWmbM1u94nEiiXkuUtHdvBW0HeWjK39wgqDlzSRxsL9A_qJU7tOcm1E3Ps_xdCfLiFIZK8LCmsm2fm6Kh5J_1ArlzM1sHL5fgjA6xBIv9VaB]--></g></svg>