<svg xmlns="http://www.w3.org/2000/svg" xmlns:xlink="http://www.w3.org/1999/xlink" contentStyleType="text/css" data-diagram-type="SEQUENCE" height="2645px" preserveAspectRatio="none" style="width:1059px;height:2645px;background:#FFFFFF;" version="1.1" viewBox="0 0 1059 2645" width="1059px" zoomAndPan="magnify"><defs/><g><rect fill="#E0E0E0" height="2633.4844" style="stroke:#181818;stroke-width:0.5;" width="353.3569" x="1" y="6"/><text fill="#000000" font-family="sans-serif" font-size="13" font-weight="bold" lengthAdjust="spacing" textLength="118.9932" x="118.1819" y="18.0669">Primary Process</text><rect fill="#F0F0F0" height="2633.4844" style="stroke:#181818;stroke-width:0.5;" width="399.1299" x="356.3569" y="6"/><text fill="#000000" font-family="sans-serif" font-size="13" font-weight="bold" lengthAdjust="spacing" textLength="152.001" x="479.9214" y="18.0669">Secondary Process 1</text><rect fill="#F0F0F0" height="2633.4844" style="stroke:#181818;stroke-width:0.5;" width="277.2598" x="757.4868" y="6"/><text fill="#000000" font-family="sans-serif" font-size="13" font-weight="bold" lengthAdjust="spacing" textLength="152.001" x="820.1162" y="18.0669">Secondary Process 2</text><g><title>Scheduler</title><rect fill="#FFFFFF" height="229.9297" style="stroke:#181818;stroke-width:1;" width="10" x="181.4424" y="360.7578"/></g><g><title>Scheduler</title><rect fill="#FFFFFF" height="1889.1016" style="stroke:#181818;stroke-width:1;" width="10" x="181.4424" y="698.0859"/></g><rect fill="transparent" height="571.7891" style="stroke:#000000;stroke-width:1.5;" width="1006.7466" x="34" y="1332.6094"/><g><title>Primary Agent</title><rect fill="transparent" height="2548.7578" width="8" x="58.1177" y="56.4297"/><line style="stroke:#181818;stroke-width:0.5;stroke-dasharray:5.0,5.0;" x1="62" x2="62" y1="56.4297" y2="2605.1875"/></g><g><title>Scheduler</title><rect fill="transparent" height="2548.7578" width="8" x="182.4424" y="56.4297"/><line style="stroke:#181818;stroke-width:0.5;stroke-dasharray:5.0,5.0;" x1="186.3979" x2="186.3979" y1="56.4297" y2="2605.1875"/></g><g><title>UserActivity 1</title><rect fill="transparent" height="2548.7578" width="8" x="290.4219" y="56.4297"/><line style="stroke:#181818;stroke-width:0.5;stroke-dasharray:5.0,5.0;" x1="293.4868" x2="293.4868" y1="56.4297" y2="2605.1875"/></g><g><title>Secondary Agent 1</title><rect fill="transparent" height="2548.7578" width="8" x="430.0518" y="56.4297"/><line style="stroke:#181818;stroke-width:0.5;stroke-dasharray:5.0,5.0;" x1="433.3569" x2="433.3569" y1="56.4297" y2="2605.1875"/></g><g><title>UserActivity 2</title><rect fill="transparent" height="2548.7578" width="8" x="569.6816" y="56.4297"/><line style="stroke:#181818;stroke-width:0.5;stroke-dasharray:5.0,5.0;" x1="572.7466" x2="572.7466" y1="56.4297" y2="2605.1875"/></g><g><title>UserActivity 3</title><rect fill="transparent" height="2548.7578" width="8" x="691.5518" y="56.4297"/><line style="stroke:#181818;stroke-width:0.5;stroke-dasharray:5.0,5.0;" x1="694.6167" x2="694.6167" y1="56.4297" y2="2605.1875"/></g><g><title>Secondary Agent 2</title><rect fill="transparent" height="2548.7578" width="8" x="831.1816" y="56.4297"/><line style="stroke:#181818;stroke-width:0.5;stroke-dasharray:5.0,5.0;" x1="834.4868" x2="834.4868" y1="56.4297" y2="2605.1875"/></g><g><title>UserActivity 4</title><rect fill="transparent" height="2548.7578" width="8" x="970.8115" y="56.4297"/><line style="stroke:#181818;stroke-width:0.5;stroke-dasharray:5.0,5.0;" x1="973.8765" x2="973.8765" y1="56.4297" y2="2605.1875"/></g><rect fill="#E2E2F0" height="30.2969" rx="2.5" ry="2.5" style="stroke:#181818;stroke-width:0.5;" width="114.2354" x="5" y="25.1328"/><text fill="#000000" font-family="sans-serif" font-size="14" lengthAdjust="spacing" textLength="100.2354" x="12" y="45.1279">Primary Agent</text><rect fill="#E2E2F0" height="30.2969" rx="2.5" ry="2.5" style="stroke:#181818;stroke-width:0.5;" width="114.2354" x="5" y="2604.1875"/><text fill="#000000" font-family="sans-serif" font-size="14" lengthAdjust="spacing" textLength="100.2354" x="12" y="2624.1826">Primary Agent</text><rect fill="#E2E2F0" height="30.2969" rx="2.5" ry="2.5" style="stroke:#181818;stroke-width:0.5;" width="84.0889" x="144.3979" y="25.1328"/><text fill="#000000" font-family="sans-serif" font-size="14" lengthAdjust="spacing" textLength="70.0889" x="151.3979" y="45.1279">Scheduler</text><rect fill="#E2E2F0" height="30.2969" rx="2.5" ry="2.5" style="stroke:#181818;stroke-width:0.5;" width="84.0889" x="144.3979" y="2604.1875"/><text fill="#000000" font-family="sans-serif" font-size="14" lengthAdjust="spacing" textLength="70.0889" x="151.3979" y="2624.1826">Scheduler</text><rect fill="#E2E2F0" height="30.2969" rx="2.5" ry="2.5" style="stroke:#181818;stroke-width:0.5;" width="111.8701" x="238.4868" y="25.1328"/><text fill="#000000" font-family="sans-serif" font-size="14" lengthAdjust="spacing" textLength="97.8701" x="245.4868" y="45.1279">UserActivity 1</text><rect fill="#E2E2F0" height="30.2969" rx="2.5" ry="2.5" style="stroke:#181818;stroke-width:0.5;" width="111.8701" x="238.4868" y="2604.1875"/><text fill="#000000" font-family="sans-serif" font-size="14" lengthAdjust="spacing" textLength="97.8701" x="245.4868" y="2624.1826">UserActivity 1</text><rect fill="#E2E2F0" height="30.2969" rx="2.5" ry="2.5" style="stroke:#181818;stroke-width:0.5;" width="147.3896" x="360.3569" y="25.1328"/><text fill="#000000" font-family="sans-serif" font-size="14" lengthAdjust="spacing" textLength="133.3896" x="367.3569" y="45.1279">Secondary Agent 1</text><rect fill="#E2E2F0" height="30.2969" rx="2.5" ry="2.5" style="stroke:#181818;stroke-width:0.5;" width="147.3896" x="360.3569" y="2604.1875"/><text fill="#000000" font-family="sans-serif" font-size="14" lengthAdjust="spacing" textLength="133.3896" x="367.3569" y="2624.1826">Secondary Agent 1</text><rect fill="#E2E2F0" height="30.2969" rx="2.5" ry="2.5" style="stroke:#181818;stroke-width:0.5;" width="111.8701" x="517.7466" y="25.1328"/><text fill="#000000" font-family="sans-serif" font-size="14" lengthAdjust="spacing" textLength="97.8701" x="524.7466" y="45.1279">UserActivity 2</text><rect fill="#E2E2F0" height="30.2969" rx="2.5" ry="2.5" style="stroke:#181818;stroke-width:0.5;" width="111.8701" x="517.7466" y="2604.1875"/><text fill="#000000" font-family="sans-serif" font-size="14" lengthAdjust="spacing" textLength="97.8701" x="524.7466" y="2624.1826">UserActivity 2</text><rect fill="#E2E2F0" height="30.2969" rx="2.5" ry="2.5" style="stroke:#181818;stroke-width:0.5;" width="111.8701" x="639.6167" y="25.1328"/><text fill="#000000" font-family="sans-serif" font-size="14" lengthAdjust="spacing" textLength="97.8701" x="646.6167" y="45.1279">UserActivity 3</text><rect fill="#E2E2F0" height="30.2969" rx="2.5" ry="2.5" style="stroke:#181818;stroke-width:0.5;" width="111.8701" x="639.6167" y="2604.1875"/><text fill="#000000" font-family="sans-serif" font-size="14" lengthAdjust="spacing" textLength="97.8701" x="646.6167" y="2624.1826">UserActivity 3</text><rect fill="#E2E2F0" height="30.2969" rx="2.5" ry="2.5" style="stroke:#181818;stroke-width:0.5;" width="147.3896" x="761.4868" y="25.1328"/><text fill="#000000" font-family="sans-serif" font-size="14" lengthAdjust="spacing" textLength="133.3896" x="768.4868" y="45.1279">Secondary Agent 2</text><rect fill="#E2E2F0" height="30.2969" rx="2.5" ry="2.5" style="stroke:#181818;stroke-width:0.5;" width="147.3896" x="761.4868" y="2604.1875"/><text fill="#000000" font-family="sans-serif" font-size="14" lengthAdjust="spacing" textLength="133.3896" x="768.4868" y="2624.1826">Secondary Agent 2</text><rect fill="#E2E2F0" height="30.2969" rx="2.5" ry="2.5" style="stroke:#181818;stroke-width:0.5;" width="111.8701" x="918.8765" y="25.1328"/><text fill="#000000" font-family="sans-serif" font-size="14" lengthAdjust="spacing" textLength="97.8701" x="925.8765" y="45.1279">UserActivity 4</text><rect fill="#E2E2F0" height="30.2969" rx="2.5" ry="2.5" style="stroke:#181818;stroke-width:0.5;" width="111.8701" x="918.8765" y="2604.1875"/><text fill="#000000" font-family="sans-serif" font-size="14" lengthAdjust="spacing" textLength="97.8701" x="925.8765" y="2624.1826">UserActivity 4</text><g><title>Scheduler</title><rect fill="#FFFFFF" height="229.9297" style="stroke:#181818;stroke-width:1;" width="10" x="181.4424" y="360.7578"/></g><g><title>Scheduler</title><rect fill="#FFFFFF" height="1889.1016" style="stroke:#181818;stroke-width:1;" width="10" x="181.4424" y="698.0859"/></g><rect fill="#EEEEEE" height="3" style="stroke:#EEEEEE;stroke-width:1;" width="1052.2373" x="0" y="86.9961"/><line style="stroke:#000000;stroke-width:1;" x1="0" x2="1052.2373" y1="86.9961" y2="86.9961"/><line style="stroke:#000000;stroke-width:1;" x1="0" x2="1052.2373" y1="89.9961" y2="89.9961"/><rect fill="#EEEEEE" height="23.1328" style="stroke:#000000;stroke-width:2;" width="135.4561" x="458.3906" y="76.4297"/><text fill="#000000" font-family="sans-serif" font-size="13" font-weight="bold" lengthAdjust="spacing" textLength="116.9302" x="464.3906" y="92.4966">Process Startup</text><line style="stroke:#181818;stroke-width:1;" x1="62.1177" x2="104.1177" y1="145.8281" y2="145.8281"/><line style="stroke:#181818;stroke-width:1;" x1="104.1177" x2="104.1177" y1="145.8281" y2="158.8281"/><line style="stroke:#181818;stroke-width:1;" x1="63.1177" x2="104.1177" y1="158.8281" y2="158.8281"/><polygon fill="#181818" points="73.1177,154.8281,63.1177,158.8281,73.1177,162.8281,69.1177,158.8281" style="stroke:#181818;stroke-width:1;"/><text fill="#000000" font-family="sans-serif" font-size="13" lengthAdjust="spacing" textLength="41.5518" x="69.1177" y="125.6294">create</text><text fill="#000000" font-family="sans-serif" font-size="13" lengthAdjust="spacing" textLength="98.6045" x="69.1177" y="140.7622">worker threads</text><line style="stroke:#181818;stroke-width:1;" x1="434.0518" x2="476.0518" y1="203.0938" y2="203.0938"/><line style="stroke:#181818;stroke-width:1;" x1="476.0518" x2="476.0518" y1="203.0938" y2="216.0938"/><line style="stroke:#181818;stroke-width:1;" x1="435.0518" x2="476.0518" y1="216.0938" y2="216.0938"/><polygon fill="#181818" points="445.0518,212.0938,435.0518,216.0938,445.0518,220.0938,441.0518,216.0938" style="stroke:#181818;stroke-width:1;"/><text fill="#000000" font-family="sans-serif" font-size="13" lengthAdjust="spacing" textLength="41.5518" x="441.0518" y="182.895">create</text><text fill="#000000" font-family="sans-serif" font-size="13" lengthAdjust="spacing" textLength="98.6045" x="441.0518" y="198.0278">worker threads</text><line style="stroke:#181818;stroke-width:1;" x1="835.1816" x2="877.1816" y1="260.3594" y2="260.3594"/><line style="stroke:#181818;stroke-width:1;" x1="877.1816" x2="877.1816" y1="260.3594" y2="273.3594"/><line style="stroke:#181818;stroke-width:1;" x1="836.1816" x2="877.1816" y1="273.3594" y2="273.3594"/><polygon fill="#181818" points="846.1816,269.3594,836.1816,273.3594,846.1816,277.3594,842.1816,273.3594" style="stroke:#181818;stroke-width:1;"/><text fill="#000000" font-family="sans-serif" font-size="13" lengthAdjust="spacing" textLength="41.5518" x="842.1816" y="240.1606">create</text><text fill="#000000" font-family="sans-serif" font-size="13" lengthAdjust="spacing" textLength="98.6045" x="842.1816" y="255.2935">worker threads</text><polygon fill="#181818" points="73.1177,298.4922,63.1177,302.4922,73.1177,306.4922,69.1177,302.4922" style="stroke:#181818;stroke-width:1;"/><line style="stroke:#181818;stroke-width:1;" x1="67.1177" x2="433.0518" y1="302.4922" y2="302.4922"/><text fill="#000000" font-family="sans-serif" font-size="13" lengthAdjust="spacing" textLength="51.8223" x="79.1177" y="297.4263">connect</text><polygon fill="#181818" points="73.1177,327.625,63.1177,331.625,73.1177,335.625,69.1177,331.625" style="stroke:#181818;stroke-width:1;"/><line style="stroke:#181818;stroke-width:1;" x1="67.1177" x2="834.1816" y1="331.625" y2="331.625"/><text fill="#000000" font-family="sans-serif" font-size="13" lengthAdjust="spacing" textLength="51.8223" x="79.1177" y="326.5591">connect</text><polygon fill="#181818" points="169.4424,356.7578,179.4424,360.7578,169.4424,364.7578,173.4424,360.7578" style="stroke:#181818;stroke-width:1;"/><line style="stroke:#181818;stroke-width:1;" x1="62.1177" x2="175.4424" y1="360.7578" y2="360.7578"/><text fill="#000000" font-family="sans-serif" font-size="13" lengthAdjust="spacing" textLength="100.3247" x="69.1177" y="355.6919">sync_remotes()</text><polygon fill="#181818" points="422.0518,385.8906,432.0518,389.8906,422.0518,393.8906,426.0518,389.8906" style="stroke:#181818;stroke-width:1;"/><line style="stroke:#181818;stroke-width:1;" x1="191.4424" x2="428.0518" y1="389.8906" y2="389.8906"/><text fill="#000000" font-family="sans-serif" font-size="13" lengthAdjust="spacing" textLength="29.853" x="198.4424" y="384.8247">sync</text><polygon fill="#181818" points="823.1816,415.0234,833.1816,419.0234,823.1816,423.0234,827.1816,419.0234" style="stroke:#181818;stroke-width:1;"/><line style="stroke:#181818;stroke-width:1;" x1="191.4424" x2="829.1816" y1="419.0234" y2="419.0234"/><text fill="#000000" font-family="sans-serif" font-size="13" lengthAdjust="spacing" textLength="29.853" x="198.4424" y="413.9575">sync</text><line style="stroke:#181818;stroke-width:1;" x1="434.0518" x2="476.0518" y1="448.1563" y2="448.1563"/><line style="stroke:#181818;stroke-width:1;" x1="476.0518" x2="476.0518" y1="448.1563" y2="461.1563"/><line style="stroke:#181818;stroke-width:1;" x1="435.0518" x2="476.0518" y1="461.1563" y2="461.1563"/><polygon fill="#181818" points="445.0518,457.1563,435.0518,461.1563,445.0518,465.1563,441.0518,461.1563" style="stroke:#181818;stroke-width:1;"/><text fill="#000000" font-family="sans-serif" font-size="13" lengthAdjust="spacing" textLength="29.853" x="441.0518" y="443.0903">sync</text><line style="stroke:#181818;stroke-width:1;" x1="835.1816" x2="877.1816" y1="490.2891" y2="490.2891"/><line style="stroke:#181818;stroke-width:1;" x1="877.1816" x2="877.1816" y1="490.2891" y2="503.2891"/><line style="stroke:#181818;stroke-width:1;" x1="836.1816" x2="877.1816" y1="503.2891" y2="503.2891"/><polygon fill="#181818" points="846.1816,499.2891,836.1816,503.2891,846.1816,507.2891,842.1816,503.2891" style="stroke:#181818;stroke-width:1;"/><text fill="#000000" font-family="sans-serif" font-size="13" lengthAdjust="spacing" textLength="29.853" x="842.1816" y="485.2231">sync</text><polygon fill="#181818" points="202.4424,528.4219,192.4424,532.4219,202.4424,536.4219,198.4424,532.4219" style="stroke:#181818;stroke-width:1;"/><line style="stroke:#181818;stroke-width:1;stroke-dasharray:2.0,2.0;" x1="196.4424" x2="433.0518" y1="532.4219" y2="532.4219"/><text fill="#000000" font-family="sans-serif" font-size="13" lengthAdjust="spacing" textLength="37.2544" x="208.4424" y="527.356">ready</text><polygon fill="#181818" points="202.4424,557.5547,192.4424,561.5547,202.4424,565.5547,198.4424,561.5547" style="stroke:#181818;stroke-width:1;"/><line style="stroke:#181818;stroke-width:1;stroke-dasharray:2.0,2.0;" x1="196.4424" x2="834.1816" y1="561.5547" y2="561.5547"/><text fill="#000000" font-family="sans-serif" font-size="13" lengthAdjust="spacing" textLength="37.2544" x="208.4424" y="556.4888">ready</text><polygon fill="#181818" points="73.1177,586.6875,63.1177,590.6875,73.1177,594.6875,69.1177,590.6875" style="stroke:#181818;stroke-width:1;"/><line style="stroke:#181818;stroke-width:1;stroke-dasharray:2.0,2.0;" x1="67.1177" x2="185.4424" y1="590.6875" y2="590.6875"/><text fill="#000000" font-family="sans-serif" font-size="13" lengthAdjust="spacing" textLength="15.4819" x="79.1177" y="585.6216">ok</text><rect fill="#EEEEEE" height="3" style="stroke:#EEEEEE;stroke-width:1;" width="1052.2373" x="0" y="619.2539"/><line style="stroke:#000000;stroke-width:1;" x1="0" x2="1052.2373" y1="619.2539" y2="619.2539"/><line style="stroke:#000000;stroke-width:1;" x1="0" x2="1052.2373" y1="622.2539" y2="622.2539"/><rect fill="#EEEEEE" height="23.1328" style="stroke:#000000;stroke-width:2;" width="103.8701" x="474.1836" y="608.6875"/><text fill="#000000" font-family="sans-serif" font-size="13" font-weight="bold" lengthAdjust="spacing" textLength="85.3442" x="480.1836" y="624.7544">Activity Init</text><path d="M139,646.8203 L139,671.8203 L1020,671.8203 L1020,656.8203 L1010,646.8203 L139,646.8203 " fill="#FEFFDD" style="stroke:#181818;stroke-width:0.5;"/><path d="M1010,646.8203 L1010,656.8203 L1020,656.8203 L1010,646.8203 " fill="#FEFFDD" style="stroke:#181818;stroke-width:0.5;"/><text fill="#000000" font-family="sans-serif" font-size="13" lengthAdjust="spacing" textLength="438.3628" x="355.9929" y="663.8872">Call each activity's init() method exactly once in an arbitrary order.</text><polygon fill="#181818" points="169.4424,694.0859,179.4424,698.0859,169.4424,702.0859,173.4424,698.0859" style="stroke:#181818;stroke-width:1;"/><line style="stroke:#181818;stroke-width:1;" x1="62.1177" x2="175.4424" y1="698.0859" y2="698.0859"/><text fill="#000000" font-family="sans-serif" font-size="13" lengthAdjust="spacing" textLength="31.9668" x="69.1177" y="693.02">run()</text><polygon fill="#181818" points="282.4219,723.2188,292.4219,727.2188,282.4219,731.2188,286.4219,727.2188" style="stroke:#181818;stroke-width:1;"/><line style="stroke:#181818;stroke-width:1;" x1="191.4424" x2="288.4219" y1="727.2188" y2="727.2188"/><text fill="#000000" font-family="sans-serif" font-size="13" lengthAdjust="spacing" textLength="30.7036" x="198.4424" y="722.1528">init()</text><line style="stroke:#181818;stroke-width:1;" x1="294.4219" x2="336.4219" y1="756.3516" y2="756.3516"/><line style="stroke:#181818;stroke-width:1;" x1="336.4219" x2="336.4219" y1="756.3516" y2="769.3516"/><line style="stroke:#181818;stroke-width:1;" x1="295.4219" x2="336.4219" y1="769.3516" y2="769.3516"/><polygon fill="#181818" points="305.4219,765.3516,295.4219,769.3516,305.4219,773.3516,301.4219,769.3516" style="stroke:#181818;stroke-width:1;"/><text fill="#000000" font-family="sans-serif" font-size="13" lengthAdjust="spacing" textLength="20.5601" x="301.4219" y="751.2856">init</text><polygon fill="#181818" points="202.4424,794.4844,192.4424,798.4844,202.4424,802.4844,198.4424,798.4844" style="stroke:#181818;stroke-width:1;"/><line style="stroke:#181818;stroke-width:1;stroke-dasharray:2.0,2.0;" x1="196.4424" x2="293.4219" y1="798.4844" y2="798.4844"/><text fill="#000000" font-family="sans-serif" font-size="13" lengthAdjust="spacing" textLength="37.2544" x="208.4424" y="793.4185">ready</text><polygon fill="#181818" points="422.0518,823.6172,432.0518,827.6172,422.0518,831.6172,426.0518,827.6172" style="stroke:#181818;stroke-width:1;"/><line style="stroke:#181818;stroke-width:1;" x1="191.4424" x2="428.0518" y1="827.6172" y2="827.6172"/><text fill="#000000" font-family="sans-serif" font-size="13" lengthAdjust="spacing" textLength="46.9409" x="198.4424" y="822.5513">init(a2)</text><polygon fill="#181818" points="561.6816,852.75,571.6816,856.75,561.6816,860.75,565.6816,856.75" style="stroke:#181818;stroke-width:1;"/><line style="stroke:#181818;stroke-width:1;" x1="434.0518" x2="567.6816" y1="856.75" y2="856.75"/><text fill="#000000" font-family="sans-serif" font-size="13" lengthAdjust="spacing" textLength="30.7036" x="441.0518" y="851.6841">init()</text><line style="stroke:#181818;stroke-width:1;" x1="573.6816" x2="615.6816" y1="885.8828" y2="885.8828"/><line style="stroke:#181818;stroke-width:1;" x1="615.6816" x2="615.6816" y1="885.8828" y2="898.8828"/><line style="stroke:#181818;stroke-width:1;" x1="574.6816" x2="615.6816" y1="898.8828" y2="898.8828"/><polygon fill="#181818" points="584.6816,894.8828,574.6816,898.8828,584.6816,902.8828,580.6816,898.8828" style="stroke:#181818;stroke-width:1;"/><text fill="#000000" font-family="sans-serif" font-size="13" lengthAdjust="spacing" textLength="20.5601" x="580.6816" y="880.8169">init</text><polygon fill="#181818" points="445.0518,924.0156,435.0518,928.0156,445.0518,932.0156,441.0518,928.0156" style="stroke:#181818;stroke-width:1;"/><line style="stroke:#181818;stroke-width:1;stroke-dasharray:2.0,2.0;" x1="439.0518" x2="572.6816" y1="928.0156" y2="928.0156"/><text fill="#000000" font-family="sans-serif" font-size="13" lengthAdjust="spacing" textLength="37.2544" x="451.0518" y="922.9497">ready</text><polygon fill="#181818" points="202.4424,953.1484,192.4424,957.1484,202.4424,961.1484,198.4424,957.1484" style="stroke:#181818;stroke-width:1;"/><line style="stroke:#181818;stroke-width:1;stroke-dasharray:2.0,2.0;" x1="196.4424" x2="433.0518" y1="957.1484" y2="957.1484"/><text fill="#000000" font-family="sans-serif" font-size="13" lengthAdjust="spacing" textLength="63.6353" x="208.4424" y="952.0825">ready(a2)</text><polygon fill="#181818" points="422.0518,982.2813,432.0518,986.2813,422.0518,990.2813,426.0518,986.2813" style="stroke:#181818;stroke-width:1;"/><line style="stroke:#181818;stroke-width:1;" x1="191.4424" x2="428.0518" y1="986.2813" y2="986.2813"/><text fill="#000000" font-family="sans-serif" font-size="13" lengthAdjust="spacing" textLength="46.9409" x="198.4424" y="981.2153">init(a3)</text><polygon fill="#181818" points="683.5518,1011.4141,693.5518,1015.4141,683.5518,1019.4141,687.5518,1015.4141" style="stroke:#181818;stroke-width:1;"/><line style="stroke:#181818;stroke-width:1;" x1="434.0518" x2="689.5518" y1="1015.4141" y2="1015.4141"/><text fill="#000000" font-family="sans-serif" font-size="13" lengthAdjust="spacing" textLength="30.7036" x="441.0518" y="1010.3481">init()</text><line style="stroke:#181818;stroke-width:1;" x1="695.5518" x2="737.5518" y1="1044.5469" y2="1044.5469"/><line style="stroke:#181818;stroke-width:1;" x1="737.5518" x2="737.5518" y1="1044.5469" y2="1057.5469"/><line style="stroke:#181818;stroke-width:1;" x1="696.5518" x2="737.5518" y1="1057.5469" y2="1057.5469"/><polygon fill="#181818" points="706.5518,1053.5469,696.5518,1057.5469,706.5518,1061.5469,702.5518,1057.5469" style="stroke:#181818;stroke-width:1;"/><text fill="#000000" font-family="sans-serif" font-size="13" lengthAdjust="spacing" textLength="20.5601" x="702.5518" y="1039.481">init</text><polygon fill="#181818" points="445.0518,1082.6797,435.0518,1086.6797,445.0518,1090.6797,441.0518,1086.6797" style="stroke:#181818;stroke-width:1;"/><line style="stroke:#181818;stroke-width:1;stroke-dasharray:2.0,2.0;" x1="439.0518" x2="694.5518" y1="1086.6797" y2="1086.6797"/><text fill="#000000" font-family="sans-serif" font-size="13" lengthAdjust="spacing" textLength="37.2544" x="451.0518" y="1081.6138">ready</text><polygon fill="#181818" points="202.4424,1111.8125,192.4424,1115.8125,202.4424,1119.8125,198.4424,1115.8125" style="stroke:#181818;stroke-width:1;"/><line style="stroke:#181818;stroke-width:1;stroke-dasharray:2.0,2.0;" x1="196.4424" x2="433.0518" y1="1115.8125" y2="1115.8125"/><text fill="#000000" font-family="sans-serif" font-size="13" lengthAdjust="spacing" textLength="63.6353" x="208.4424" y="1110.7466">ready(a3)</text><polygon fill="#181818" points="823.1816,1140.9453,833.1816,1144.9453,823.1816,1148.9453,827.1816,1144.9453" style="stroke:#181818;stroke-width:1;"/><line style="stroke:#181818;stroke-width:1;" x1="191.4424" x2="829.1816" y1="1144.9453" y2="1144.9453"/><text fill="#000000" font-family="sans-serif" font-size="13" lengthAdjust="spacing" textLength="46.9409" x="198.4424" y="1139.8794">init(a4)</text><polygon fill="#181818" points="962.8115,1170.0781,972.8115,1174.0781,962.8115,1178.0781,966.8115,1174.0781" style="stroke:#181818;stroke-width:1;"/><line style="stroke:#181818;stroke-width:1;" x1="835.1816" x2="968.8115" y1="1174.0781" y2="1174.0781"/><text fill="#000000" font-family="sans-serif" font-size="13" lengthAdjust="spacing" textLength="30.7036" x="842.1816" y="1169.0122">init()</text><line style="stroke:#181818;stroke-width:1;" x1="974.8115" x2="1016.8115" y1="1203.2109" y2="1203.2109"/><line style="stroke:#181818;stroke-width:1;" x1="1016.8115" x2="1016.8115" y1="1203.2109" y2="1216.2109"/><line style="stroke:#181818;stroke-width:1;" x1="975.8115" x2="1016.8115" y1="1216.2109" y2="1216.2109"/><polygon fill="#181818" points="985.8115,1212.2109,975.8115,1216.2109,985.8115,1220.2109,981.8115,1216.2109" style="stroke:#181818;stroke-width:1;"/><text fill="#000000" font-family="sans-serif" font-size="13" lengthAdjust="spacing" textLength="20.5601" x="981.8115" y="1198.145">init</text><polygon fill="#181818" points="846.1816,1241.3438,836.1816,1245.3438,846.1816,1249.3438,842.1816,1245.3438" style="stroke:#181818;stroke-width:1;"/><line style="stroke:#181818;stroke-width:1;stroke-dasharray:2.0,2.0;" x1="840.1816" x2="973.8115" y1="1245.3438" y2="1245.3438"/><text fill="#000000" font-family="sans-serif" font-size="13" lengthAdjust="spacing" textLength="37.2544" x="852.1816" y="1240.2778">ready</text><polygon fill="#181818" points="202.4424,1270.4766,192.4424,1274.4766,202.4424,1278.4766,198.4424,1274.4766" style="stroke:#181818;stroke-width:1;"/><line style="stroke:#181818;stroke-width:1;stroke-dasharray:2.0,2.0;" x1="196.4424" x2="834.1816" y1="1274.4766" y2="1274.4766"/><text fill="#000000" font-family="sans-serif" font-size="13" lengthAdjust="spacing" textLength="63.6353" x="208.4424" y="1269.4106">ready(a4)</text><rect fill="#EEEEEE" height="3" style="stroke:#EEEEEE;stroke-width:1;" width="1052.2373" x="0" y="1303.043"/><line style="stroke:#000000;stroke-width:1;" x1="0" x2="1052.2373" y1="1303.043" y2="1303.043"/><line style="stroke:#000000;stroke-width:1;" x1="0" x2="1052.2373" y1="1306.043" y2="1306.043"/><rect fill="#EEEEEE" height="23.1328" style="stroke:#000000;stroke-width:2;" width="93.9233" x="479.157" y="1292.4766"/><text fill="#000000" font-family="sans-serif" font-size="13" font-weight="bold" lengthAdjust="spacing" textLength="75.3975" x="485.157" y="1308.5435">Main Loop</text><path d="M34,1332.6094 L110.624,1332.6094 L110.624,1339.7422 L100.624,1349.7422 L34,1349.7422 L34,1332.6094 " fill="#EEEEEE" style="stroke:#000000;stroke-width:1.5;"/><rect fill="transparent" height="571.7891" style="stroke:#000000;stroke-width:1.5;" width="1006.7466" x="34" y="1332.6094"/><text fill="#000000" font-family="sans-serif" font-size="13" font-weight="bold" lengthAdjust="spacing" textLength="31.624" x="49" y="1345.6763">loop</text><text fill="#000000" font-family="sans-serif" font-size="11" font-weight="bold" lengthAdjust="spacing" textLength="303.8535" x="125.624" y="1344.8198">[break on termination signal to Primary Process]</text><path d="M139,1354.7422 L139,1379.7422 L1020,1379.7422 L1020,1364.7422 L1010,1354.7422 L139,1354.7422 " fill="#FEFFDD" style="stroke:#181818;stroke-width:0.5;"/><path d="M1010,1354.7422 L1010,1364.7422 L1020,1364.7422 L1010,1354.7422 " fill="#FEFFDD" style="stroke:#181818;stroke-width:0.5;"/><text fill="#000000" font-family="sans-serif" font-size="13" lengthAdjust="spacing" textLength="496.3296" x="327.0095" y="1371.8091">Call each activity's step() method in the order defined by the activity graph.</text><polygon fill="#181818" points="422.0518,1405.0078,432.0518,1409.0078,422.0518,1413.0078,426.0518,1409.0078" style="stroke:#181818;stroke-width:1;"/><line style="stroke:#181818;stroke-width:1;" x1="191.4424" x2="428.0518" y1="1409.0078" y2="1409.0078"/><text fill="#000000" font-family="sans-serif" font-size="13" lengthAdjust="spacing" textLength="54.501" x="198.4424" y="1403.9419">step(a3)</text><path d="M75,1389.875 L75,1414.875 L175,1414.875 L175,1399.875 L165,1389.875 L75,1389.875 " fill="#FEFFDD" style="stroke:#181818;stroke-width:0.5;"/><path d="M165,1389.875 L165,1399.875 L175,1399.875 L165,1389.875 " fill="#FEFFDD" style="stroke:#181818;stroke-width:0.5;"/><text fill="#000000" font-family="sans-serif" font-size="13" lengthAdjust="spacing" textLength="79.5044" x="81" y="1406.9419">Step a3 first</text><polygon fill="#181818" points="683.5518,1437.1406,693.5518,1441.1406,683.5518,1445.1406,687.5518,1441.1406" style="stroke:#181818;stroke-width:1;"/><line style="stroke:#181818;stroke-width:1;" x1="434.0518" x2="689.5518" y1="1441.1406" y2="1441.1406"/><text fill="#000000" font-family="sans-serif" font-size="13" lengthAdjust="spacing" textLength="38.2637" x="441.0518" y="1436.0747">step()</text><polygon fill="#181818" points="445.0518,1466.2734,435.0518,1470.2734,445.0518,1474.2734,441.0518,1470.2734" style="stroke:#181818;stroke-width:1;"/><line style="stroke:#181818;stroke-width:1;stroke-dasharray:2.0,2.0;" x1="439.0518" x2="694.5518" y1="1470.2734" y2="1470.2734"/><text fill="#000000" font-family="sans-serif" font-size="13" lengthAdjust="spacing" textLength="37.2544" x="451.0518" y="1465.2075">ready</text><polygon fill="#181818" points="202.4424,1495.4063,192.4424,1499.4063,202.4424,1503.4063,198.4424,1499.4063" style="stroke:#181818;stroke-width:1;"/><line style="stroke:#181818;stroke-width:1;stroke-dasharray:2.0,2.0;" x1="196.4424" x2="433.0518" y1="1499.4063" y2="1499.4063"/><text fill="#000000" font-family="sans-serif" font-size="13" lengthAdjust="spacing" textLength="63.6353" x="208.4424" y="1494.3403">ready(a3)</text><polygon fill="#181818" points="823.1816,1542.6719,833.1816,1546.6719,823.1816,1550.6719,827.1816,1546.6719" style="stroke:#181818;stroke-width:1;"/><line style="stroke:#181818;stroke-width:1;" x1="191.4424" x2="829.1816" y1="1546.6719" y2="1546.6719"/><text fill="#000000" font-family="sans-serif" font-size="13" lengthAdjust="spacing" textLength="54.501" x="198.4424" y="1541.606">step(a4)</text><path d="M56,1512.4063 L56,1567.4063 L175,1567.4063 L175,1522.4063 L165,1512.4063 L56,1512.4063 " fill="#FEFFDD" style="stroke:#181818;stroke-width:0.5;"/><path d="M165,1512.4063 L165,1522.4063 L175,1522.4063 L165,1512.4063 " fill="#FEFFDD" style="stroke:#181818;stroke-width:0.5;"/><text fill="#000000" font-family="sans-serif" font-size="13" lengthAdjust="spacing" textLength="98.9282" x="62" y="1529.4731">Step a1 and a4</text><text fill="#000000" font-family="sans-serif" font-size="13" lengthAdjust="spacing" textLength="94.1992" x="62" y="1544.606">in parallel, but</text><text fill="#000000" font-family="sans-serif" font-size="13" lengthAdjust="spacing" textLength="96.6367" x="62" y="1559.7388">after end of a3</text><polygon fill="#181818" points="962.8115,1589.9375,972.8115,1593.9375,962.8115,1597.9375,966.8115,1593.9375" style="stroke:#181818;stroke-width:1;"/><line style="stroke:#181818;stroke-width:1;" x1="835.1816" x2="968.8115" y1="1593.9375" y2="1593.9375"/><text fill="#000000" font-family="sans-serif" font-size="13" lengthAdjust="spacing" textLength="38.2637" x="842.1816" y="1588.8716">step()</text><polygon fill="#181818" points="282.4219,1619.0703,292.4219,1623.0703,282.4219,1627.0703,286.4219,1623.0703" style="stroke:#181818;stroke-width:1;"/><line style="stroke:#181818;stroke-width:1;" x1="191.4424" x2="288.4219" y1="1623.0703" y2="1623.0703"/><text fill="#000000" font-family="sans-serif" font-size="13" lengthAdjust="spacing" textLength="38.2637" x="198.4424" y="1618.0044">step()</text><polygon fill="#181818" points="202.4424,1648.2031,192.4424,1652.2031,202.4424,1656.2031,198.4424,1652.2031" style="stroke:#181818;stroke-width:1;"/><line style="stroke:#181818;stroke-width:1;stroke-dasharray:2.0,2.0;" x1="196.4424" x2="293.4219" y1="1652.2031" y2="1652.2031"/><text fill="#000000" font-family="sans-serif" font-size="13" lengthAdjust="spacing" textLength="37.2544" x="208.4424" y="1647.1372">ready</text><polygon fill="#181818" points="846.1816,1677.3359,836.1816,1681.3359,846.1816,1685.3359,842.1816,1681.3359" style="stroke:#181818;stroke-width:1;"/><line style="stroke:#181818;stroke-width:1;stroke-dasharray:2.0,2.0;" x1="840.1816" x2="973.8115" y1="1681.3359" y2="1681.3359"/><text fill="#000000" font-family="sans-serif" font-size="13" lengthAdjust="spacing" textLength="37.2544" x="852.1816" y="1676.27">ready</text><polygon fill="#181818" points="202.4424,1706.4688,192.4424,1710.4688,202.4424,1714.4688,198.4424,1710.4688" style="stroke:#181818;stroke-width:1;"/><line style="stroke:#181818;stroke-width:1;stroke-dasharray:2.0,2.0;" x1="196.4424" x2="834.1816" y1="1710.4688" y2="1710.4688"/><text fill="#000000" font-family="sans-serif" font-size="13" lengthAdjust="spacing" textLength="63.6353" x="208.4424" y="1705.4028">ready(a4)</text><polygon fill="#181818" points="422.0518,1746.168,432.0518,1750.168,422.0518,1754.168,426.0518,1750.168" style="stroke:#181818;stroke-width:1;"/><line style="stroke:#181818;stroke-width:1;" x1="191.4424" x2="428.0518" y1="1750.168" y2="1750.168"/><text fill="#000000" font-family="sans-serif" font-size="13" lengthAdjust="spacing" textLength="54.501" x="198.4424" y="1745.1021">step(a2)</text><path d="M44,1723.4688 L44,1763.4688 L175,1763.4688 L175,1733.4688 L165,1723.4688 L44,1723.4688 " fill="#FEFFDD" style="stroke:#181818;stroke-width:0.5;"/><path d="M165,1723.4688 L165,1733.4688 L175,1733.4688 L165,1723.4688 " fill="#FEFFDD" style="stroke:#181818;stroke-width:0.5;"/><text fill="#000000" font-family="sans-serif" font-size="13" lengthAdjust="spacing" textLength="85.084" x="50" y="1740.5356">Step a2 after</text><text fill="#000000" font-family="sans-serif" font-size="13" lengthAdjust="spacing" textLength="110.481" x="50" y="1755.6685">end of a1 and a4</text><polygon fill="#181818" points="561.6816,1785.8672,571.6816,1789.8672,561.6816,1793.8672,565.6816,1789.8672" style="stroke:#181818;stroke-width:1;"/><line style="stroke:#181818;stroke-width:1;" x1="434.0518" x2="567.6816" y1="1789.8672" y2="1789.8672"/><text fill="#000000" font-family="sans-serif" font-size="13" lengthAdjust="spacing" textLength="38.2637" x="441.0518" y="1784.8013">step()</text><polygon fill="#181818" points="445.0518,1815,435.0518,1819,445.0518,1823,441.0518,1819" style="stroke:#181818;stroke-width:1;"/><line style="stroke:#181818;stroke-width:1;stroke-dasharray:2.0,2.0;" x1="439.0518" x2="572.6816" y1="1819" y2="1819"/><text fill="#000000" font-family="sans-serif" font-size="13" lengthAdjust="spacing" textLength="37.2544" x="451.0518" y="1813.9341">ready</text><polygon fill="#181818" points="202.4424,1844.1328,192.4424,1848.1328,202.4424,1852.1328,198.4424,1848.1328" style="stroke:#181818;stroke-width:1;"/><line style="stroke:#181818;stroke-width:1;stroke-dasharray:2.0,2.0;" x1="196.4424" x2="433.0518" y1="1848.1328" y2="1848.1328"/><text fill="#000000" font-family="sans-serif" font-size="13" lengthAdjust="spacing" textLength="63.6353" x="208.4424" y="1843.0669">ready(a2)</text><polygon fill="#FEFFDD" points="136,1861.1328,236,1861.1328,246,1880.1328,236,1899.1328,136,1899.1328,126,1880.1328,136,1861.1328" style="stroke:#181818;stroke-width:0.5;"/><text fill="#000000" font-family="sans-serif" font-size="13" lengthAdjust="spacing" textLength="96.186" x="138" y="1877.1997">sleep until end</text><text fill="#000000" font-family="sans-serif" font-size="13" lengthAdjust="spacing" textLength="83.7637" x="138" y="1892.3325">of cycle time</text><rect fill="#EEEEEE" height="3" style="stroke:#EEEEEE;stroke-width:1;" width="1052.2373" x="0" y="1931.9648"/><line style="stroke:#000000;stroke-width:1;" x1="0" x2="1052.2373" y1="1931.9648" y2="1931.9648"/><line style="stroke:#000000;stroke-width:1;" x1="0" x2="1052.2373" y1="1934.9648" y2="1934.9648"/><rect fill="#EEEEEE" height="23.1328" style="stroke:#000000;stroke-width:2;" width="152.6963" x="449.7705" y="1921.3984"/><text fill="#000000" font-family="sans-serif" font-size="13" font-weight="bold" lengthAdjust="spacing" textLength="134.1704" x="455.7705" y="1937.4653">Activity Shutdown</text><path d="M139,1959.5313 L139,1984.5313 L1020,1984.5313 L1020,1969.5313 L1010,1959.5313 L139,1959.5313 " fill="#FEFFDD" style="stroke:#181818;stroke-width:0.5;"/><path d="M1010,1959.5313 L1010,1969.5313 L1020,1969.5313 L1010,1959.5313 " fill="#FEFFDD" style="stroke:#181818;stroke-width:0.5;"/><text fill="#000000" font-family="sans-serif" font-size="13" lengthAdjust="spacing" textLength="481.2285" x="334.5601" y="1976.5981">Call each activity's shutdown() method exactly once in an arbitrary order.</text><polygon fill="#181818" points="282.4219,2006.7969,292.4219,2010.7969,282.4219,2014.7969,286.4219,2010.7969" style="stroke:#181818;stroke-width:1;"/><line style="stroke:#181818;stroke-width:1;" x1="191.4424" x2="288.4219" y1="2010.7969" y2="2010.7969"/><text fill="#000000" font-family="sans-serif" font-size="13" lengthAdjust="spacing" textLength="73.5693" x="198.4424" y="2005.731">shutdown()</text><line style="stroke:#181818;stroke-width:1;" x1="294.4219" x2="336.4219" y1="2039.9297" y2="2039.9297"/><line style="stroke:#181818;stroke-width:1;" x1="336.4219" x2="336.4219" y1="2039.9297" y2="2052.9297"/><line style="stroke:#181818;stroke-width:1;" x1="295.4219" x2="336.4219" y1="2052.9297" y2="2052.9297"/><polygon fill="#181818" points="305.4219,2048.9297,295.4219,2052.9297,305.4219,2056.9297,301.4219,2052.9297" style="stroke:#181818;stroke-width:1;"/><text fill="#000000" font-family="sans-serif" font-size="13" lengthAdjust="spacing" textLength="63.4258" x="301.4219" y="2034.8638">shutdown</text><polygon fill="#181818" points="202.4424,2078.0625,192.4424,2082.0625,202.4424,2086.0625,198.4424,2082.0625" style="stroke:#181818;stroke-width:1;"/><line style="stroke:#181818;stroke-width:1;stroke-dasharray:2.0,2.0;" x1="196.4424" x2="293.4219" y1="2082.0625" y2="2082.0625"/><text fill="#000000" font-family="sans-serif" font-size="13" lengthAdjust="spacing" textLength="37.2544" x="208.4424" y="2076.9966">ready</text><polygon fill="#181818" points="422.0518,2107.1953,432.0518,2111.1953,422.0518,2115.1953,426.0518,2111.1953" style="stroke:#181818;stroke-width:1;"/><line style="stroke:#181818;stroke-width:1;" x1="191.4424" x2="428.0518" y1="2111.1953" y2="2111.1953"/><text fill="#000000" font-family="sans-serif" font-size="13" lengthAdjust="spacing" textLength="89.8066" x="198.4424" y="2106.1294">shutdown(a2)</text><polygon fill="#181818" points="561.6816,2136.3281,571.6816,2140.3281,561.6816,2144.3281,565.6816,2140.3281" style="stroke:#181818;stroke-width:1;"/><line style="stroke:#181818;stroke-width:1;" x1="434.0518" x2="567.6816" y1="2140.3281" y2="2140.3281"/><text fill="#000000" font-family="sans-serif" font-size="13" lengthAdjust="spacing" textLength="73.5693" x="441.0518" y="2135.2622">shutdown()</text><line style="stroke:#181818;stroke-width:1;" x1="573.6816" x2="615.6816" y1="2169.4609" y2="2169.4609"/><line style="stroke:#181818;stroke-width:1;" x1="615.6816" x2="615.6816" y1="2169.4609" y2="2182.4609"/><line style="stroke:#181818;stroke-width:1;" x1="574.6816" x2="615.6816" y1="2182.4609" y2="2182.4609"/><polygon fill="#181818" points="584.6816,2178.4609,574.6816,2182.4609,584.6816,2186.4609,580.6816,2182.4609" style="stroke:#181818;stroke-width:1;"/><text fill="#000000" font-family="sans-serif" font-size="13" lengthAdjust="spacing" textLength="63.4258" x="580.6816" y="2164.395">shutdown</text><polygon fill="#181818" points="445.0518,2207.5938,435.0518,2211.5938,445.0518,2215.5938,441.0518,2211.5938" style="stroke:#181818;stroke-width:1;"/><line style="stroke:#181818;stroke-width:1;stroke-dasharray:2.0,2.0;" x1="439.0518" x2="572.6816" y1="2211.5938" y2="2211.5938"/><text fill="#000000" font-family="sans-serif" font-size="13" lengthAdjust="spacing" textLength="37.2544" x="451.0518" y="2206.5278">ready</text><polygon fill="#181818" points="202.4424,2236.7266,192.4424,2240.7266,202.4424,2244.7266,198.4424,2240.7266" style="stroke:#181818;stroke-width:1;"/><line style="stroke:#181818;stroke-width:1;stroke-dasharray:2.0,2.0;" x1="196.4424" x2="433.0518" y1="2240.7266" y2="2240.7266"/><text fill="#000000" font-family="sans-serif" font-size="13" lengthAdjust="spacing" textLength="63.6353" x="208.4424" y="2235.6606">ready(a2)</text><polygon fill="#181818" points="422.0518,2265.8594,432.0518,2269.8594,422.0518,2273.8594,426.0518,2269.8594" style="stroke:#181818;stroke-width:1;"/><line style="stroke:#181818;stroke-width:1;" x1="191.4424" x2="428.0518" y1="2269.8594" y2="2269.8594"/><text fill="#000000" font-family="sans-serif" font-size="13" lengthAdjust="spacing" textLength="89.8066" x="198.4424" y="2264.7935">shutdown(a3)</text><polygon fill="#181818" points="683.5518,2294.9922,693.5518,2298.9922,683.5518,2302.9922,687.5518,2298.9922" style="stroke:#181818;stroke-width:1;"/><line style="stroke:#181818;stroke-width:1;" x1="434.0518" x2="689.5518" y1="2298.9922" y2="2298.9922"/><text fill="#000000" font-family="sans-serif" font-size="13" lengthAdjust="spacing" textLength="73.5693" x="441.0518" y="2293.9263">shutdown()</text><line style="stroke:#181818;stroke-width:1;" x1="695.5518" x2="737.5518" y1="2328.125" y2="2328.125"/><line style="stroke:#181818;stroke-width:1;" x1="737.5518" x2="737.5518" y1="2328.125" y2="2341.125"/><line style="stroke:#181818;stroke-width:1;" x1="696.5518" x2="737.5518" y1="2341.125" y2="2341.125"/><polygon fill="#181818" points="706.5518,2337.125,696.5518,2341.125,706.5518,2345.125,702.5518,2341.125" style="stroke:#181818;stroke-width:1;"/><text fill="#000000" font-family="sans-serif" font-size="13" lengthAdjust="spacing" textLength="63.4258" x="702.5518" y="2323.0591">shutdown</text><polygon fill="#181818" points="445.0518,2366.2578,435.0518,2370.2578,445.0518,2374.2578,441.0518,2370.2578" style="stroke:#181818;stroke-width:1;"/><line style="stroke:#181818;stroke-width:1;stroke-dasharray:2.0,2.0;" x1="439.0518" x2="694.5518" y1="2370.2578" y2="2370.2578"/><text fill="#000000" font-family="sans-serif" font-size="13" lengthAdjust="spacing" textLength="37.2544" x="451.0518" y="2365.1919">ready</text><polygon fill="#181818" points="202.4424,2395.3906,192.4424,2399.3906,202.4424,2403.3906,198.4424,2399.3906" style="stroke:#181818;stroke-width:1;"/><line style="stroke:#181818;stroke-width:1;stroke-dasharray:2.0,2.0;" x1="196.4424" x2="433.0518" y1="2399.3906" y2="2399.3906"/><text fill="#000000" font-family="sans-serif" font-size="13" lengthAdjust="spacing" textLength="63.6353" x="208.4424" y="2394.3247">ready(a3)</text><polygon fill="#181818" points="823.1816,2424.5234,833.1816,2428.5234,823.1816,2432.5234,827.1816,2428.5234" style="stroke:#181818;stroke-width:1;"/><line style="stroke:#181818;stroke-width:1;" x1="191.4424" x2="829.1816" y1="2428.5234" y2="2428.5234"/><text fill="#000000" font-family="sans-serif" font-size="13" lengthAdjust="spacing" textLength="89.8066" x="198.4424" y="2423.4575">shutdown(a4)</text><polygon fill="#181818" points="962.8115,2453.6563,972.8115,2457.6563,962.8115,2461.6563,966.8115,2457.6563" style="stroke:#181818;stroke-width:1;"/><line style="stroke:#181818;stroke-width:1;" x1="835.1816" x2="968.8115" y1="2457.6563" y2="2457.6563"/><text fill="#000000" font-family="sans-serif" font-size="13" lengthAdjust="spacing" textLength="73.5693" x="842.1816" y="2452.5903">shutdown()</text><line style="stroke:#181818;stroke-width:1;" x1="974.8115" x2="1016.8115" y1="2486.7891" y2="2486.7891"/><line style="stroke:#181818;stroke-width:1;" x1="1016.8115" x2="1016.8115" y1="2486.7891" y2="2499.7891"/><line style="stroke:#181818;stroke-width:1;" x1="975.8115" x2="1016.8115" y1="2499.7891" y2="2499.7891"/><polygon fill="#181818" points="985.8115,2495.7891,975.8115,2499.7891,985.8115,2503.7891,981.8115,2499.7891" style="stroke:#181818;stroke-width:1;"/><text fill="#000000" font-family="sans-serif" font-size="13" lengthAdjust="spacing" textLength="63.4258" x="981.8115" y="2481.7231">shutdown</text><polygon fill="#181818" points="846.1816,2524.9219,836.1816,2528.9219,846.1816,2532.9219,842.1816,2528.9219" style="stroke:#181818;stroke-width:1;"/><line style="stroke:#181818;stroke-width:1;stroke-dasharray:2.0,2.0;" x1="840.1816" x2="973.8115" y1="2528.9219" y2="2528.9219"/><text fill="#000000" font-family="sans-serif" font-size="13" lengthAdjust="spacing" textLength="37.2544" x="852.1816" y="2523.856">ready</text><polygon fill="#181818" points="202.4424,2554.0547,192.4424,2558.0547,202.4424,2562.0547,198.4424,2558.0547" style="stroke:#181818;stroke-width:1;"/><line style="stroke:#181818;stroke-width:1;stroke-dasharray:2.0,2.0;" x1="196.4424" x2="834.1816" y1="2558.0547" y2="2558.0547"/><text fill="#000000" font-family="sans-serif" font-size="13" lengthAdjust="spacing" textLength="63.6353" x="208.4424" y="2552.9888">ready(a4)</text><polygon fill="#181818" points="73.1177,2583.1875,63.1177,2587.1875,73.1177,2591.1875,69.1177,2587.1875" style="stroke:#181818;stroke-width:1;"/><line style="stroke:#181818;stroke-width:1;stroke-dasharray:2.0,2.0;" x1="67.1177" x2="185.4424" y1="2587.1875" y2="2587.1875"/><text fill="#000000" font-family="sans-serif" font-size="13" lengthAdjust="spacing" textLength="15.4819" x="79.1177" y="2582.1216">ok</text><!--SRC=[hLPDR-Cs4BthLmoIG-9YOoUIzs8W1O8q2mH8jm6yBNe8iA2fiKL49WMIZjV_laDA5Ys7SdPTnuT8vEERDnySpUWY0O1p-EsqVpNflQesMYmA2vTy0Ebr-fcMfDLYjh9A6x0AR87mm4jH6OGlQYLpPeMI_dZDCKNqeAz_VNkyVu2vAF7I320NfkR17DR25eGH1jPAly9SQM1vBXmHAsiM8MbrwRb1uuBfNCW5y5QVMalKfX3LSCVqDqTPQRNGR0bCvbu7urmjAoOtZe0OKGjM6c0QwIsd_JScIZOh4SWPrEvCpKR8fG4rzont5UFqxqbmbEJvFsJSIKk7rx0k12-0B0ScPckAmjhAJ4QZzNezP9vXgFHYLDOiPlH44VewVRWYcjq8Fl_nxrLZwUenHsd5NA2UD29QzCbhu6AK93Fr0ywUjLWolO5dhJWQSmRd3zVkbrHCMy45XTC6rDs299u1Sx4NoovcIeBpLOdQxvljMnVqjq5znwru4tO3Dnx9cjVlDmbI8abL8ssAN57H1N7kmFcNQ_VRCzqYlS26s20dpdxpQTTyUW2QTQ7PXqhJdrIQjaeFcHztpO-3-TlRrkJKqlbL1RUtIUAo0rU_-onDW6kaom0lqjr1N_Uqa9l41yZ1_CDXNBh5fVsuGDZOLL8Yj-5yTpd8R8jb0cOZ-NUDIsNHN0uIxxCp5kefQHztfBjZxpVIxSQUe-rYseFiQdBURRRusDQkvTPDzPha6DFlajQczb4AwrCcoMDGRqJHGZ_jfloUbIKGNz4kNXZgdS9U3c29jb0vu0_QAZUW94VQehv8lMych7RrfZIrlA6l76Sg6dozaZyJyt1Z9us292p509tjZmBOPibJitGGqXVkwdl3QGpGsGxC8Q5nFTxg0KrPJ5FsNbCM0tIsVqLJ5jEqZGGR3q95Xx9vhsaS0tIs0_D7XU-jkdB-ar6vFIbLTv_IFSm8yKgbw3-kGjRVToCMzDrtmyNUT-V8-ZSMgr3_fC5zm7sbGuvp8Ma2cMsQsQ2vS3GnLCNkFOYs4yVh0kvLbJYt4-glM07BQCpHniRpNyivUO9hDUE8cXi_-x3nYoJVwVj1CSBo4z3izIBPd28FpayQR5WMhuv6SU_rtlUev_x-d_BfZtyQyJW5xzUBt3gs3K6yI-phFw8D94MaD1DJ8ibPqS1MkXWd98LlE0s4LYnnfxhSaxiFtQu_BLOsfy7s-Cvl6ePZktz_nblY0qrz2pgkiRScUfjxJ4JQ1pfvam_w-XfzJ5_M1pfzFsZrzJNzcBvn7-XKjtTtyecFFly1]--></g></svg>