<svg xmlns="http://www.w3.org/2000/svg" xmlns:xlink="http://www.w3.org/1999/xlink" contentStyleType="text/css" data-diagram-type="CLASS" height="426px" preserveAspectRatio="none" style="width:613px;height:426px;background:#FFFFFF;" version="1.1" viewBox="0 0 613 426" width="613px" zoomAndPan="magnify"><defs/><g><!--cluster C2--><g id="cluster_C2"><rect fill="transparent" height="413" rx="2.5" ry="2.5" style="stroke:#181818;stroke-width:1;" width="600" x="7" y="7"/><rect fill="transparent" height="10" style="stroke:#181818;stroke-width:1;" width="15" x="587" y="12"/><rect fill="transparent" height="2" style="stroke:#181818;stroke-width:1;" width="4" x="585" y="14"/><rect fill="transparent" height="2" style="stroke:#181818;stroke-width:1;" width="4" x="585" y="18"/><text fill="#000000" font-family="sans-serif" font-size="14" font-weight="bold" lengthAdjust="spacing" textLength="104.8564" x="254.5718" y="32.9951">Component 2</text></g><!--class CI2--><g id="elem_CI2"><rect codeLine="27" fill="#F1F1F1" height="80.5938" id="CI2" rx="2.5" ry="2.5" style="stroke:#181818;stroke-width:0.5;" width="193.7656" x="388" y="165"/><ellipse cx="403" cy="181" fill="#B4A7E5" rx="11" ry="11" style="stroke:#181818;stroke-width:1;"/><path d="M398.9219,176.7656 L398.9219,174.6094 L406.3125,174.6094 L406.3125,176.7656 L403.8438,176.7656 L403.8438,184.8438 L406.3125,184.8438 L406.3125,187 L398.9219,187 L398.9219,184.8438 L401.3906,184.8438 L401.3906,176.7656 L398.9219,176.7656 Z " fill="#000000"/><text fill="#000000" font-family="sans-serif" font-size="14" font-style="italic" lengthAdjust="spacing" textLength="161.7656" x="417" y="185.8467">Component Interface 2</text><line style="stroke:#181818;stroke-width:0.5;" x1="389" x2="580.7656" y1="197" y2="197"/><text fill="#000000" font-family="sans-serif" font-size="14" lengthAdjust="spacing" textLength="111.8633" x="394" y="213.9951">real operation 3</text><text fill="#000000" font-family="sans-serif" font-size="14" lengthAdjust="spacing" textLength="111.8633" x="394" y="230.292">real operation 4</text><line style="stroke:#181818;stroke-width:0.5;" x1="389" x2="580.7656" y1="237.5938" y2="237.5938"/></g><!--class LI2--><g id="elem_LI2"><rect codeLine="10" fill="#F1F1F1" height="80.5938" id="LI2" rx="2.5" ry="2.5" style="stroke:#181818;stroke-width:0.5;" width="161.7939" x="404" y="323"/><ellipse cx="419" cy="339" fill="#B4A7E5" rx="11" ry="11" style="stroke:#181818;stroke-width:1;"/><path d="M414.9219,334.7656 L414.9219,332.6094 L422.3125,332.6094 L422.3125,334.7656 L419.8438,334.7656 L419.8438,342.8438 L422.3125,342.8438 L422.3125,345 L414.9219,345 L414.9219,342.8438 L417.3906,342.8438 L417.3906,334.7656 L414.9219,334.7656 Z " fill="#000000"/><text fill="#000000" font-family="sans-serif" font-size="14" font-style="italic" lengthAdjust="spacing" textLength="129.7939" x="433" y="343.8467">Logical Interface 2</text><line style="stroke:#181818;stroke-width:0.5;" x1="405" x2="564.7939" y1="355" y2="355"/><text fill="#000000" font-family="sans-serif" font-size="14" lengthAdjust="spacing" textLength="136.7871" x="410" y="371.9951">Logical Operation 3</text><text fill="#000000" font-family="sans-serif" font-size="14" lengthAdjust="spacing" textLength="136.7871" x="410" y="388.292">Logical Operation 4</text><line style="stroke:#181818;stroke-width:0.5;" x1="405" x2="564.7939" y1="395.5938" y2="395.5938"/></g><!--class CI4--><g id="elem_CI4"><rect codeLine="37" fill="#F1F1F1" height="80.5938" id="CI4" rx="2.5" ry="2.5" style="stroke:#181818;stroke-width:0.5;" width="193.7656" x="151" y="165"/><ellipse cx="166" cy="181" fill="#B4A7E5" rx="11" ry="11" style="stroke:#181818;stroke-width:1;"/><path d="M161.9219,176.7656 L161.9219,174.6094 L169.3125,174.6094 L169.3125,176.7656 L166.8438,176.7656 L166.8438,184.8438 L169.3125,184.8438 L169.3125,187 L161.9219,187 L161.9219,184.8438 L164.3906,184.8438 L164.3906,176.7656 L161.9219,176.7656 Z " fill="#000000"/><text fill="#000000" font-family="sans-serif" font-size="14" font-style="italic" lengthAdjust="spacing" textLength="161.7656" x="180" y="185.8467">Component Interface 4</text><line style="stroke:#181818;stroke-width:0.5;" x1="152" x2="343.7656" y1="197" y2="197"/><text fill="#000000" font-family="sans-serif" font-size="14" lengthAdjust="spacing" textLength="111.8633" x="157" y="213.9951">real operation 7</text><text fill="#000000" font-family="sans-serif" font-size="14" lengthAdjust="spacing" textLength="111.8633" x="157" y="230.292">real operation 8</text><line style="stroke:#181818;stroke-width:0.5;" x1="152" x2="343.7656" y1="237.5938" y2="237.5938"/></g><!--class LI3--><g id="elem_LI3"><rect codeLine="20" fill="#F1F1F1" height="80.5938" id="LI3" rx="2.5" ry="2.5" style="stroke:#181818;stroke-width:0.5;" width="161.7939" x="167" y="323"/><ellipse cx="182" cy="339" fill="#B4A7E5" rx="11" ry="11" style="stroke:#181818;stroke-width:1;"/><path d="M177.9219,334.7656 L177.9219,332.6094 L185.3125,332.6094 L185.3125,334.7656 L182.8438,334.7656 L182.8438,342.8438 L185.3125,342.8438 L185.3125,345 L177.9219,345 L177.9219,342.8438 L180.3906,342.8438 L180.3906,334.7656 L177.9219,334.7656 Z " fill="#000000"/><text fill="#000000" font-family="sans-serif" font-size="14" font-style="italic" lengthAdjust="spacing" textLength="129.7939" x="196" y="343.8467">Logical Interface 3</text><line style="stroke:#181818;stroke-width:0.5;" x1="168" x2="327.7939" y1="355" y2="355"/><text fill="#000000" font-family="sans-serif" font-size="14" lengthAdjust="spacing" textLength="136.7871" x="173" y="371.9951">Logical Operation 7</text><text fill="#000000" font-family="sans-serif" font-size="14" lengthAdjust="spacing" textLength="136.7871" x="173" y="388.292">Logical Operation 8</text><line style="stroke:#181818;stroke-width:0.5;" x1="168" x2="327.7939" y1="395.5938" y2="395.5938"/></g><!--entity SC1--><g id="elem_SC1"><rect fill="#F1F1F1" height="46.2969" rx="2.5" ry="2.5" style="stroke:#181818;stroke-width:0.5;" width="165.7334" x="425" y="42"/><rect fill="#F1F1F1" height="10" style="stroke:#181818;stroke-width:0.5;" width="15" x="570.7334" y="47"/><rect fill="#F1F1F1" height="2" style="stroke:#181818;stroke-width:0.5;" width="4" x="568.7334" y="49"/><rect fill="#F1F1F1" height="2" style="stroke:#181818;stroke-width:0.5;" width="4" x="568.7334" y="53"/><text fill="#000000" font-family="sans-serif" font-size="14" lengthAdjust="spacing" textLength="125.7334" x="440" y="74.9951">Sub Component 1</text></g><!--entity SC2--><g id="elem_SC2"><rect fill="#F1F1F1" height="46.2969" rx="2.5" ry="2.5" style="stroke:#181818;stroke-width:0.5;" width="165.7334" x="224" y="42"/><rect fill="#F1F1F1" height="10" style="stroke:#181818;stroke-width:0.5;" width="15" x="369.7334" y="47"/><rect fill="#F1F1F1" height="2" style="stroke:#181818;stroke-width:0.5;" width="4" x="367.7334" y="49"/><rect fill="#F1F1F1" height="2" style="stroke:#181818;stroke-width:0.5;" width="4" x="367.7334" y="53"/><text fill="#000000" font-family="sans-serif" font-size="14" lengthAdjust="spacing" textLength="125.7334" x="239" y="74.9951">Sub Component 2</text></g><!--entity SC3--><g id="elem_SC3"><rect fill="#F1F1F1" height="46.2969" rx="2.5" ry="2.5" style="stroke:#181818;stroke-width:0.5;" width="165.7334" x="23" y="42"/><rect fill="#F1F1F1" height="10" style="stroke:#181818;stroke-width:0.5;" width="15" x="168.7334" y="47"/><rect fill="#F1F1F1" height="2" style="stroke:#181818;stroke-width:0.5;" width="4" x="166.7334" y="49"/><rect fill="#F1F1F1" height="2" style="stroke:#181818;stroke-width:0.5;" width="4" x="166.7334" y="53"/><text fill="#000000" font-family="sans-serif" font-size="14" lengthAdjust="spacing" textLength="125.7334" x="38" y="74.9951">Sub Component 3</text></g><!--link SC1 to CI2--><g id="link_SC1_CI2"><path codeLine="44" d="M504.3,88.25 C500.88,108.9 496.6849,134.1814 492.5449,159.0614 " fill="transparent" id="SC1-to-CI2" style="stroke:#181818;stroke-width:1;"/><polygon fill="#181818" points="491.56,164.98,496.983,156.7586,492.3807,160.0478,489.0915,155.4455,491.56,164.98" style="stroke:#181818;stroke-width:1;"/><text fill="#000000" font-family="sans-serif" font-size="13" lengthAdjust="spacing" textLength="76.9082" x="500" y="131.0669">implements</text></g><!--link SC3 to CI4--><g id="link_SC3_CI4"><path codeLine="45" d="M118.83,88.2 C127.67,102.45 140.27,120.87 154,135 C164.18,145.48 171.3089,151.9087 183.1489,160.9887 " fill="transparent" id="SC3-to-CI4" style="stroke:#181818;stroke-width:1;"/><polygon fill="#181818" points="187.91,164.64,183.2025,155.989,183.9424,161.5973,178.3341,162.3372,187.91,164.64" style="stroke:#181818;stroke-width:1;"/><text fill="#000000" font-family="sans-serif" font-size="13" lengthAdjust="spacing" textLength="76.9082" x="155" y="131.0669">implements</text></g><!--link SC1 to CI4--><g id="link_SC1_CI4"><path codeLine="46" d="M474.96,88.26 C453.45,102.37 424.55,120.6 398,135 C378.95,145.33 363.5214,153.0705 343.5814,162.4305 " fill="transparent" id="SC1-to-CI4" style="stroke:#181818;stroke-width:1;"/><polygon fill="#181818" points="338.15,164.98,347.9968,164.7766,342.6761,162.8554,344.5974,157.5348,338.15,164.98" style="stroke:#181818;stroke-width:1;"/><text fill="#000000" font-family="sans-serif" font-size="13" lengthAdjust="spacing" textLength="29.7832" x="426" y="131.0669">uses</text></g><!--link SC2 to CI2--><g id="link_SC2_CI2"><path codeLine="47" d="M304.5,88.04 C304.02,102.76 305.84,121.78 316,135 C326.05,148.08 350.2121,159.8931 382.0221,171.8231 " fill="transparent" id="SC2-to-CI2" style="stroke:#181818;stroke-width:1;"/><polygon fill="#181818" points="387.64,173.93,380.6178,167.0243,382.9584,172.1742,377.8085,174.5149,387.64,173.93" style="stroke:#181818;stroke-width:1;"/><text fill="#000000" font-family="sans-serif" font-size="13" lengthAdjust="spacing" textLength="76.9082" x="317" y="131.0669">implements</text></g><!--link CI2 to LI2--><g id="link_CI2_LI2"><path codeLine="48" d="M485,246.27 C485,269.74 485,293.35 485,316.8 " fill="transparent" id="CI2-to-LI2" style="stroke:#181818;stroke-width:1;"/><polygon fill="#181818" points="485,322.8,489,313.8,485,317.8,481,313.8,485,322.8" style="stroke:#181818;stroke-width:1;"/><text fill="#000000" font-family="sans-serif" font-size="13" lengthAdjust="spacing" textLength="76.9082" x="486" y="289.0669">implements</text></g><!--link SC2 to CI4--><g id="link_SC2_CI4"><path codeLine="49" d="M269.99,88.26 C260.01,96.28 250.46,106.29 245,118 C238.33,132.3 237.0515,143.4489 238.5515,158.6689 " fill="transparent" id="SC2-to-CI4" style="stroke:#181818;stroke-width:1;"/><polygon fill="#181818" points="239.14,164.64,242.238,155.2911,238.6496,159.6641,234.2766,156.0757,239.14,164.64" style="stroke:#181818;stroke-width:1;"/><text fill="#000000" font-family="sans-serif" font-size="13" lengthAdjust="spacing" textLength="29.7832" x="246" y="131.0669">uses</text></g><!--link CI4 to LI3--><g id="link_CI4_LI3"><path codeLine="50" d="M248,246.27 C248,269.74 248,293.35 248,316.8 " fill="transparent" id="CI4-to-LI3" style="stroke:#181818;stroke-width:1;"/><polygon fill="#181818" points="248,322.8,252,313.8,248,317.8,244,313.8,248,322.8" style="stroke:#181818;stroke-width:1;"/><text fill="#000000" font-family="sans-serif" font-size="13" lengthAdjust="spacing" textLength="76.9082" x="249" y="289.0669">implements</text></g><!--SRC=[bPAz3eCW64LtdeAuEmWaDXswE9cOTF09AA4DYOBnPshwxkLJgXRfZma3kLnE3byGfcwCbhh7KJPlIOHvXpE2xqWiv-LmmKid6JjbbjZI0odTo_RAXLnZyZbqm1o8hUGLDeriUQ-CnjGFcCMjUOMvAM4RFgqOQQ_JymgupNnco94vHxPrJFtWyDEHEaSQT4m3sSZyE6xYnatsZdldoxzAK2T1_v7mgNOX-2vnV0Ar8rPrKydQNkeG8AUSUNcov4Cd8I510ZmMyc939Xu1ZAOcVMi-0G00]--></g></svg>