<?xml version="1.0" encoding="utf-8" standalone="no"?>
<!DOCTYPE svg PUBLIC "-//W3C//DTD SVG 1.1//EN"
  "http://www.w3.org/Graphics/SVG/1.1/DTD/svg11.dtd">
<svg xmlns:xlink="http://www.w3.org/1999/xlink" width="576pt" height="288pt" viewBox="0 0 576 288" xmlns="http://www.w3.org/2000/svg" version="1.1">
 <metadata>
  <rdf:RDF xmlns:dc="http://purl.org/dc/elements/1.1/" xmlns:cc="http://creativecommons.org/ns#" xmlns:rdf="http://www.w3.org/1999/02/22-rdf-syntax-ns#">
   <cc:Work>
    <dc:type rdf:resource="http://purl.org/dc/dcmitype/StillImage"/>
    <dc:date>2025-03-12T10:35:24.435852</dc:date>
    <dc:format>image/svg+xml</dc:format>
    <dc:creator>
     <cc:Agent>
      <dc:title>Matplotlib v3.10.0, https://matplotlib.org/</dc:title>
     </cc:Agent>
    </dc:creator>
   </cc:Work>
  </rdf:RDF>
 </metadata>
 <defs>
  <style type="text/css">*{stroke-linejoin: round; stroke-linecap: butt}</style>
 </defs>
 <g id="figure_1">
  <g id="patch_1">
   <path d="M 0 288 
L 576 288 
L 576 0 
L 0 0 
z
" style="fill: #ffffff"/>
  </g>
  <g id="axes_1">
   <g id="patch_2">
    <path d="M 295.199991 44.64 
C 279.88766 44.64 264.774736 48.129094 251.012104 54.841579 
C 237.249473 61.554064 225.195586 71.315111 215.768375 83.381394 
C 206.341165 95.447677 199.786165 109.504925 196.602555 124.482645 
C 193.418946 139.460365 193.689644 154.968459 197.394036 169.825947 
L 295.199991 145.440156 
z
" style="fill: #008000"/>
   </g>
   <g id="patch_3">
    <path d="M 197.394036 169.825934 
C 201.963191 188.151805 211.592225 204.829784 225.178321 217.949725 
C 238.764418 231.069667 255.768315 240.11079 274.242484 244.03759 
C 292.716655 247.964389 311.927791 246.621013 329.675666 240.161319 
C 347.423544 233.701624 363.00364 222.382027 374.631576 207.498956 
C 386.259511 192.615884 393.473729 174.760091 395.447949 155.976661 
C 397.422169 137.193232 394.078041 118.227703 385.798572 101.252276 
C 377.519102 84.276848 364.63295 69.965327 348.615959 59.956794 
C 332.598969 49.948261 314.086898 44.64 295.200005 44.64 
L 295.199991 145.440156 
z
" style="fill: #ff0000"/>
   </g>
   <g id="matplotlib.axis_1"/>
   <g id="matplotlib.axis_2"/>
   <g id="text_1">
    <!-- Connected Workproducts -->
    <g transform="translate(81.809579 79.934904) scale(0.1 -0.1)">
     <defs>
      <path id="DejaVuSans-43" d="M 4122 4306 
L 4122 3641 
Q 3803 3938 3442 4084 
Q 3081 4231 2675 4231 
Q 1875 4231 1450 3742 
Q 1025 3253 1025 2328 
Q 1025 1406 1450 917 
Q 1875 428 2675 428 
Q 3081 428 3442 575 
Q 3803 722 4122 1019 
L 4122 359 
Q 3791 134 3420 21 
Q 3050 -91 2638 -91 
Q 1578 -91 968 557 
Q 359 1206 359 2328 
Q 359 3453 968 4101 
Q 1578 4750 2638 4750 
Q 3056 4750 3426 4639 
Q 3797 4528 4122 4306 
z
" transform="scale(0.015625)"/>
      <path id="DejaVuSans-6f" d="M 1959 3097 
Q 1497 3097 1228 2736 
Q 959 2375 959 1747 
Q 959 1119 1226 758 
Q 1494 397 1959 397 
Q 2419 397 2687 759 
Q 2956 1122 2956 1747 
Q 2956 2369 2687 2733 
Q 2419 3097 1959 3097 
z
M 1959 3584 
Q 2709 3584 3137 3096 
Q 3566 2609 3566 1747 
Q 3566 888 3137 398 
Q 2709 -91 1959 -91 
Q 1206 -91 779 398 
Q 353 888 353 1747 
Q 353 2609 779 3096 
Q 1206 3584 1959 3584 
z
" transform="scale(0.015625)"/>
      <path id="DejaVuSans-6e" d="M 3513 2113 
L 3513 0 
L 2938 0 
L 2938 2094 
Q 2938 2591 2744 2837 
Q 2550 3084 2163 3084 
Q 1697 3084 1428 2787 
Q 1159 2491 1159 1978 
L 1159 0 
L 581 0 
L 581 3500 
L 1159 3500 
L 1159 2956 
Q 1366 3272 1645 3428 
Q 1925 3584 2291 3584 
Q 2894 3584 3203 3211 
Q 3513 2838 3513 2113 
z
" transform="scale(0.015625)"/>
      <path id="DejaVuSans-65" d="M 3597 1894 
L 3597 1613 
L 953 1613 
Q 991 1019 1311 708 
Q 1631 397 2203 397 
Q 2534 397 2845 478 
Q 3156 559 3463 722 
L 3463 178 
Q 3153 47 2828 -22 
Q 2503 -91 2169 -91 
Q 1331 -91 842 396 
Q 353 884 353 1716 
Q 353 2575 817 3079 
Q 1281 3584 2069 3584 
Q 2775 3584 3186 3129 
Q 3597 2675 3597 1894 
z
M 3022 2063 
Q 3016 2534 2758 2815 
Q 2500 3097 2075 3097 
Q 1594 3097 1305 2825 
Q 1016 2553 972 2059 
L 3022 2063 
z
" transform="scale(0.015625)"/>
      <path id="DejaVuSans-63" d="M 3122 3366 
L 3122 2828 
Q 2878 2963 2633 3030 
Q 2388 3097 2138 3097 
Q 1578 3097 1268 2742 
Q 959 2388 959 1747 
Q 959 1106 1268 751 
Q 1578 397 2138 397 
Q 2388 397 2633 464 
Q 2878 531 3122 666 
L 3122 134 
Q 2881 22 2623 -34 
Q 2366 -91 2075 -91 
Q 1284 -91 818 406 
Q 353 903 353 1747 
Q 353 2603 823 3093 
Q 1294 3584 2113 3584 
Q 2378 3584 2631 3529 
Q 2884 3475 3122 3366 
z
" transform="scale(0.015625)"/>
      <path id="DejaVuSans-74" d="M 1172 4494 
L 1172 3500 
L 2356 3500 
L 2356 3053 
L 1172 3053 
L 1172 1153 
Q 1172 725 1289 603 
Q 1406 481 1766 481 
L 2356 481 
L 2356 0 
L 1766 0 
Q 1100 0 847 248 
Q 594 497 594 1153 
L 594 3053 
L 172 3053 
L 172 3500 
L 594 3500 
L 594 4494 
L 1172 4494 
z
" transform="scale(0.015625)"/>
      <path id="DejaVuSans-64" d="M 2906 2969 
L 2906 4863 
L 3481 4863 
L 3481 0 
L 2906 0 
L 2906 525 
Q 2725 213 2448 61 
Q 2172 -91 1784 -91 
Q 1150 -91 751 415 
Q 353 922 353 1747 
Q 353 2572 751 3078 
Q 1150 3584 1784 3584 
Q 2172 3584 2448 3432 
Q 2725 3281 2906 2969 
z
M 947 1747 
Q 947 1113 1208 752 
Q 1469 391 1925 391 
Q 2381 391 2643 752 
Q 2906 1113 2906 1747 
Q 2906 2381 2643 2742 
Q 2381 3103 1925 3103 
Q 1469 3103 1208 2742 
Q 947 2381 947 1747 
z
" transform="scale(0.015625)"/>
      <path id="DejaVuSans-20" transform="scale(0.015625)"/>
      <path id="DejaVuSans-57" d="M 213 4666 
L 850 4666 
L 1831 722 
L 2809 4666 
L 3519 4666 
L 4500 722 
L 5478 4666 
L 6119 4666 
L 4947 0 
L 4153 0 
L 3169 4050 
L 2175 0 
L 1381 0 
L 213 4666 
z
" transform="scale(0.015625)"/>
      <path id="DejaVuSans-72" d="M 2631 2963 
Q 2534 3019 2420 3045 
Q 2306 3072 2169 3072 
Q 1681 3072 1420 2755 
Q 1159 2438 1159 1844 
L 1159 0 
L 581 0 
L 581 3500 
L 1159 3500 
L 1159 2956 
Q 1341 3275 1631 3429 
Q 1922 3584 2338 3584 
Q 2397 3584 2469 3576 
Q 2541 3569 2628 3553 
L 2631 2963 
z
" transform="scale(0.015625)"/>
      <path id="DejaVuSans-6b" d="M 581 4863 
L 1159 4863 
L 1159 1991 
L 2875 3500 
L 3609 3500 
L 1753 1863 
L 3688 0 
L 2938 0 
L 1159 1709 
L 1159 0 
L 581 0 
L 581 4863 
z
" transform="scale(0.015625)"/>
      <path id="DejaVuSans-70" d="M 1159 525 
L 1159 -1331 
L 581 -1331 
L 581 3500 
L 1159 3500 
L 1159 2969 
Q 1341 3281 1617 3432 
Q 1894 3584 2278 3584 
Q 2916 3584 3314 3078 
Q 3713 2572 3713 1747 
Q 3713 922 3314 415 
Q 2916 -91 2278 -91 
Q 1894 -91 1617 61 
Q 1341 213 1159 525 
z
M 3116 1747 
Q 3116 2381 2855 2742 
Q 2594 3103 2138 3103 
Q 1681 3103 1420 2742 
Q 1159 2381 1159 1747 
Q 1159 1113 1420 752 
Q 1681 391 2138 391 
Q 2594 391 2855 752 
Q 3116 1113 3116 1747 
z
" transform="scale(0.015625)"/>
      <path id="DejaVuSans-75" d="M 544 1381 
L 544 3500 
L 1119 3500 
L 1119 1403 
Q 1119 906 1312 657 
Q 1506 409 1894 409 
Q 2359 409 2629 706 
Q 2900 1003 2900 1516 
L 2900 3500 
L 3475 3500 
L 3475 0 
L 2900 0 
L 2900 538 
Q 2691 219 2414 64 
Q 2138 -91 1772 -91 
Q 1169 -91 856 284 
Q 544 659 544 1381 
z
M 1991 3584 
L 1991 3584 
z
" transform="scale(0.015625)"/>
      <path id="DejaVuSans-73" d="M 2834 3397 
L 2834 2853 
Q 2591 2978 2328 3040 
Q 2066 3103 1784 3103 
Q 1356 3103 1142 2972 
Q 928 2841 928 2578 
Q 928 2378 1081 2264 
Q 1234 2150 1697 2047 
L 1894 2003 
Q 2506 1872 2764 1633 
Q 3022 1394 3022 966 
Q 3022 478 2636 193 
Q 2250 -91 1575 -91 
Q 1294 -91 989 -36 
Q 684 19 347 128 
L 347 722 
Q 666 556 975 473 
Q 1284 391 1588 391 
Q 1994 391 2212 530 
Q 2431 669 2431 922 
Q 2431 1156 2273 1281 
Q 2116 1406 1581 1522 
L 1381 1569 
Q 847 1681 609 1914 
Q 372 2147 372 2553 
Q 372 3047 722 3315 
Q 1072 3584 1716 3584 
Q 2034 3584 2315 3537 
Q 2597 3491 2834 3397 
z
" transform="scale(0.015625)"/>
     </defs>
     <use xlink:href="#DejaVuSans-43"/>
     <use xlink:href="#DejaVuSans-6f" transform="translate(69.824219 0)"/>
     <use xlink:href="#DejaVuSans-6e" transform="translate(131.005859 0)"/>
     <use xlink:href="#DejaVuSans-6e" transform="translate(194.384766 0)"/>
     <use xlink:href="#DejaVuSans-65" transform="translate(257.763672 0)"/>
     <use xlink:href="#DejaVuSans-63" transform="translate(319.287109 0)"/>
     <use xlink:href="#DejaVuSans-74" transform="translate(374.267578 0)"/>
     <use xlink:href="#DejaVuSans-65" transform="translate(413.476562 0)"/>
     <use xlink:href="#DejaVuSans-64" transform="translate(475 0)"/>
     <use xlink:href="#DejaVuSans-20" transform="translate(538.476562 0)"/>
     <use xlink:href="#DejaVuSans-57" transform="translate(570.263672 0)"/>
     <use xlink:href="#DejaVuSans-6f" transform="translate(663.265625 0)"/>
     <use xlink:href="#DejaVuSans-72" transform="translate(724.447266 0)"/>
     <use xlink:href="#DejaVuSans-6b" transform="translate(765.560547 0)"/>
     <use xlink:href="#DejaVuSans-70" transform="translate(823.470703 0)"/>
     <use xlink:href="#DejaVuSans-72" transform="translate(886.947266 0)"/>
     <use xlink:href="#DejaVuSans-6f" transform="translate(925.810547 0)"/>
     <use xlink:href="#DejaVuSans-64" transform="translate(986.992188 0)"/>
     <use xlink:href="#DejaVuSans-75" transform="translate(1050.46875 0)"/>
     <use xlink:href="#DejaVuSans-63" transform="translate(1113.847656 0)"/>
     <use xlink:href="#DejaVuSans-74" transform="translate(1168.828125 0)"/>
     <use xlink:href="#DejaVuSans-73" transform="translate(1208.037109 0)"/>
    </g>
   </g>
   <g id="text_2">
    <!-- 28.9% -->
    <g transform="translate(233.664141 105.93328) scale(0.08 -0.08)">
     <defs>
      <path id="DejaVuSans-Bold-32" d="M 1844 884 
L 3897 884 
L 3897 0 
L 506 0 
L 506 884 
L 2209 2388 
Q 2438 2594 2547 2791 
Q 2656 2988 2656 3200 
Q 2656 3528 2436 3728 
Q 2216 3928 1850 3928 
Q 1569 3928 1234 3808 
Q 900 3688 519 3450 
L 519 4475 
Q 925 4609 1322 4679 
Q 1719 4750 2100 4750 
Q 2938 4750 3402 4381 
Q 3866 4013 3866 3353 
Q 3866 2972 3669 2642 
Q 3472 2313 2841 1759 
L 1844 884 
z
" transform="scale(0.015625)"/>
      <path id="DejaVuSans-Bold-38" d="M 2228 2088 
Q 1891 2088 1709 1903 
Q 1528 1719 1528 1375 
Q 1528 1031 1709 848 
Q 1891 666 2228 666 
Q 2563 666 2741 848 
Q 2919 1031 2919 1375 
Q 2919 1722 2741 1905 
Q 2563 2088 2228 2088 
z
M 1350 2484 
Q 925 2613 709 2878 
Q 494 3144 494 3541 
Q 494 4131 934 4440 
Q 1375 4750 2228 4750 
Q 3075 4750 3515 4442 
Q 3956 4134 3956 3541 
Q 3956 3144 3739 2878 
Q 3522 2613 3097 2484 
Q 3572 2353 3814 2058 
Q 4056 1763 4056 1313 
Q 4056 619 3595 264 
Q 3134 -91 2228 -91 
Q 1319 -91 855 264 
Q 391 619 391 1313 
Q 391 1763 633 2058 
Q 875 2353 1350 2484 
z
M 1631 3419 
Q 1631 3141 1786 2991 
Q 1941 2841 2228 2841 
Q 2509 2841 2662 2991 
Q 2816 3141 2816 3419 
Q 2816 3697 2662 3845 
Q 2509 3994 2228 3994 
Q 1941 3994 1786 3844 
Q 1631 3694 1631 3419 
z
" transform="scale(0.015625)"/>
      <path id="DejaVuSans-Bold-2e" d="M 653 1209 
L 1778 1209 
L 1778 0 
L 653 0 
L 653 1209 
z
" transform="scale(0.015625)"/>
      <path id="DejaVuSans-Bold-39" d="M 641 103 
L 641 966 
Q 928 831 1190 764 
Q 1453 697 1709 697 
Q 2247 697 2547 995 
Q 2847 1294 2900 1881 
Q 2688 1725 2447 1647 
Q 2206 1569 1925 1569 
Q 1209 1569 770 1986 
Q 331 2403 331 3084 
Q 331 3838 820 4291 
Q 1309 4744 2131 4744 
Q 3044 4744 3544 4128 
Q 4044 3513 4044 2388 
Q 4044 1231 3459 570 
Q 2875 -91 1856 -91 
Q 1528 -91 1228 -42 
Q 928 6 641 103 
z
M 2125 2350 
Q 2441 2350 2600 2554 
Q 2759 2759 2759 3169 
Q 2759 3575 2600 3781 
Q 2441 3988 2125 3988 
Q 1809 3988 1650 3781 
Q 1491 3575 1491 3169 
Q 1491 2759 1650 2554 
Q 1809 2350 2125 2350 
z
" transform="scale(0.015625)"/>
      <path id="DejaVuSans-Bold-25" d="M 4959 1925 
Q 4738 1925 4616 1733 
Q 4494 1541 4494 1184 
Q 4494 825 4614 633 
Q 4734 441 4959 441 
Q 5184 441 5303 633 
Q 5422 825 5422 1184 
Q 5422 1541 5301 1733 
Q 5181 1925 4959 1925 
z
M 4959 2450 
Q 5541 2450 5875 2112 
Q 6209 1775 6209 1184 
Q 6209 594 5875 251 
Q 5541 -91 4959 -91 
Q 4378 -91 4042 251 
Q 3706 594 3706 1184 
Q 3706 1772 4042 2111 
Q 4378 2450 4959 2450 
z
M 2094 -91 
L 1403 -91 
L 4319 4750 
L 5013 4750 
L 2094 -91 
z
M 1453 4750 
Q 2034 4750 2367 4411 
Q 2700 4072 2700 3481 
Q 2700 2891 2367 2550 
Q 2034 2209 1453 2209 
Q 872 2209 539 2550 
Q 206 2891 206 3481 
Q 206 4072 539 4411 
Q 872 4750 1453 4750 
z
M 1453 4225 
Q 1228 4225 1106 4031 
Q 984 3838 984 3481 
Q 984 3122 1106 2926 
Q 1228 2731 1453 2731 
Q 1678 2731 1798 2926 
Q 1919 3122 1919 3481 
Q 1919 3838 1797 4031 
Q 1675 4225 1453 4225 
z
" transform="scale(0.015625)"/>
     </defs>
     <use xlink:href="#DejaVuSans-Bold-32"/>
     <use xlink:href="#DejaVuSans-Bold-38" transform="translate(69.580078 0)"/>
     <use xlink:href="#DejaVuSans-Bold-2e" transform="translate(139.160156 0)"/>
     <use xlink:href="#DejaVuSans-Bold-39" transform="translate(177.148438 0)"/>
     <use xlink:href="#DejaVuSans-Bold-25" transform="translate(246.728516 0)"/>
    </g>
    <!-- (26) -->
    <g transform="translate(238.318516 114.89153) scale(0.08 -0.08)">
     <defs>
      <path id="DejaVuSans-Bold-28" d="M 2413 -844 
L 1484 -844 
Q 1006 -72 778 623 
Q 550 1319 550 2003 
Q 550 2688 779 3389 
Q 1009 4091 1484 4856 
L 2413 4856 
Q 2013 4116 1813 3408 
Q 1613 2700 1613 2009 
Q 1613 1319 1811 609 
Q 2009 -100 2413 -844 
z
" transform="scale(0.015625)"/>
      <path id="DejaVuSans-Bold-36" d="M 2316 2303 
Q 2000 2303 1842 2098 
Q 1684 1894 1684 1484 
Q 1684 1075 1842 870 
Q 2000 666 2316 666 
Q 2634 666 2792 870 
Q 2950 1075 2950 1484 
Q 2950 1894 2792 2098 
Q 2634 2303 2316 2303 
z
M 3803 4544 
L 3803 3681 
Q 3506 3822 3243 3889 
Q 2981 3956 2731 3956 
Q 2194 3956 1894 3657 
Q 1594 3359 1544 2772 
Q 1750 2925 1990 3001 
Q 2231 3078 2516 3078 
Q 3231 3078 3670 2659 
Q 4109 2241 4109 1563 
Q 4109 813 3618 361 
Q 3128 -91 2303 -91 
Q 1394 -91 895 523 
Q 397 1138 397 2266 
Q 397 3422 980 4083 
Q 1563 4744 2578 4744 
Q 2900 4744 3203 4694 
Q 3506 4644 3803 4544 
z
" transform="scale(0.015625)"/>
      <path id="DejaVuSans-Bold-29" d="M 513 -844 
Q 913 -100 1113 609 
Q 1313 1319 1313 2009 
Q 1313 2700 1113 3408 
Q 913 4116 513 4856 
L 1441 4856 
Q 1916 4091 2145 3389 
Q 2375 2688 2375 2003 
Q 2375 1319 2147 623 
Q 1919 -72 1441 -844 
L 513 -844 
z
" transform="scale(0.015625)"/>
     </defs>
     <use xlink:href="#DejaVuSans-Bold-28"/>
     <use xlink:href="#DejaVuSans-Bold-32" transform="translate(45.703125 0)"/>
     <use xlink:href="#DejaVuSans-Bold-36" transform="translate(115.283203 0)"/>
     <use xlink:href="#DejaVuSans-Bold-29" transform="translate(184.863281 0)"/>
    </g>
   </g>
   <g id="text_3">
    <!--  Not Connected Workproducts -->
    <g transform="translate(382.574766 216.464171) scale(0.1 -0.1)">
     <defs>
      <path id="DejaVuSans-4e" d="M 628 4666 
L 1478 4666 
L 3547 763 
L 3547 4666 
L 4159 4666 
L 4159 0 
L 3309 0 
L 1241 3903 
L 1241 0 
L 628 0 
L 628 4666 
z
" transform="scale(0.015625)"/>
     </defs>
     <use xlink:href="#DejaVuSans-20"/>
     <use xlink:href="#DejaVuSans-4e" transform="translate(31.787109 0)"/>
     <use xlink:href="#DejaVuSans-6f" transform="translate(106.591797 0)"/>
     <use xlink:href="#DejaVuSans-74" transform="translate(167.773438 0)"/>
     <use xlink:href="#DejaVuSans-20" transform="translate(206.982422 0)"/>
     <use xlink:href="#DejaVuSans-43" transform="translate(238.769531 0)"/>
     <use xlink:href="#DejaVuSans-6f" transform="translate(308.59375 0)"/>
     <use xlink:href="#DejaVuSans-6e" transform="translate(369.775391 0)"/>
     <use xlink:href="#DejaVuSans-6e" transform="translate(433.154297 0)"/>
     <use xlink:href="#DejaVuSans-65" transform="translate(496.533203 0)"/>
     <use xlink:href="#DejaVuSans-63" transform="translate(558.056641 0)"/>
     <use xlink:href="#DejaVuSans-74" transform="translate(613.037109 0)"/>
     <use xlink:href="#DejaVuSans-65" transform="translate(652.246094 0)"/>
     <use xlink:href="#DejaVuSans-64" transform="translate(713.769531 0)"/>
     <use xlink:href="#DejaVuSans-20" transform="translate(777.246094 0)"/>
     <use xlink:href="#DejaVuSans-57" transform="translate(809.033203 0)"/>
     <use xlink:href="#DejaVuSans-6f" transform="translate(902.035156 0)"/>
     <use xlink:href="#DejaVuSans-72" transform="translate(963.216797 0)"/>
     <use xlink:href="#DejaVuSans-6b" transform="translate(1004.330078 0)"/>
     <use xlink:href="#DejaVuSans-70" transform="translate(1062.240234 0)"/>
     <use xlink:href="#DejaVuSans-72" transform="translate(1125.716797 0)"/>
     <use xlink:href="#DejaVuSans-6f" transform="translate(1164.580078 0)"/>
     <use xlink:href="#DejaVuSans-64" transform="translate(1225.761719 0)"/>
     <use xlink:href="#DejaVuSans-75" transform="translate(1289.238281 0)"/>
     <use xlink:href="#DejaVuSans-63" transform="translate(1352.617188 0)"/>
     <use xlink:href="#DejaVuSans-74" transform="translate(1407.597656 0)"/>
     <use xlink:href="#DejaVuSans-73" transform="translate(1446.806641 0)"/>
    </g>
   </g>
   <g id="text_4">
    <!-- 71.1% -->
    <g transform="translate(328.982084 180.403789) scale(0.08 -0.08)">
     <defs>
      <path id="DejaVuSans-Bold-37" d="M 428 4666 
L 3944 4666 
L 3944 3988 
L 2125 0 
L 953 0 
L 2675 3781 
L 428 3781 
L 428 4666 
z
" transform="scale(0.015625)"/>
      <path id="DejaVuSans-Bold-31" d="M 750 831 
L 1813 831 
L 1813 3847 
L 722 3622 
L 722 4441 
L 1806 4666 
L 2950 4666 
L 2950 831 
L 4013 831 
L 4013 0 
L 750 0 
L 750 831 
z
" transform="scale(0.015625)"/>
     </defs>
     <use xlink:href="#DejaVuSans-Bold-37"/>
     <use xlink:href="#DejaVuSans-Bold-31" transform="translate(69.580078 0)"/>
     <use xlink:href="#DejaVuSans-Bold-2e" transform="translate(139.160156 0)"/>
     <use xlink:href="#DejaVuSans-Bold-31" transform="translate(177.148438 0)"/>
     <use xlink:href="#DejaVuSans-Bold-25" transform="translate(246.728516 0)"/>
    </g>
    <!-- (64) -->
    <g transform="translate(333.636459 189.362039) scale(0.08 -0.08)">
     <defs>
      <path id="DejaVuSans-Bold-34" d="M 2356 3675 
L 1038 1722 
L 2356 1722 
L 2356 3675 
z
M 2156 4666 
L 3494 4666 
L 3494 1722 
L 4159 1722 
L 4159 850 
L 3494 850 
L 3494 0 
L 2356 0 
L 2356 850 
L 288 850 
L 288 1881 
L 2156 4666 
z
" transform="scale(0.015625)"/>
     </defs>
     <use xlink:href="#DejaVuSans-Bold-28"/>
     <use xlink:href="#DejaVuSans-Bold-36" transform="translate(45.703125 0)"/>
     <use xlink:href="#DejaVuSans-Bold-34" transform="translate(115.283203 0)"/>
     <use xlink:href="#DejaVuSans-Bold-29" transform="translate(184.863281 0)"/>
    </g>
   </g>
   <g id="text_5">
    <!-- Percentage of standard workproducts which are linked to at least one item -->
    <g transform="translate(71.001563 28.56) scale(0.12 -0.12)">
     <defs>
      <path id="DejaVuSans-50" d="M 1259 4147 
L 1259 2394 
L 2053 2394 
Q 2494 2394 2734 2622 
Q 2975 2850 2975 3272 
Q 2975 3691 2734 3919 
Q 2494 4147 2053 4147 
L 1259 4147 
z
M 628 4666 
L 2053 4666 
Q 2838 4666 3239 4311 
Q 3641 3956 3641 3272 
Q 3641 2581 3239 2228 
Q 2838 1875 2053 1875 
L 1259 1875 
L 1259 0 
L 628 0 
L 628 4666 
z
" transform="scale(0.015625)"/>
      <path id="DejaVuSans-61" d="M 2194 1759 
Q 1497 1759 1228 1600 
Q 959 1441 959 1056 
Q 959 750 1161 570 
Q 1363 391 1709 391 
Q 2188 391 2477 730 
Q 2766 1069 2766 1631 
L 2766 1759 
L 2194 1759 
z
M 3341 1997 
L 3341 0 
L 2766 0 
L 2766 531 
Q 2569 213 2275 61 
Q 1981 -91 1556 -91 
Q 1019 -91 701 211 
Q 384 513 384 1019 
Q 384 1609 779 1909 
Q 1175 2209 1959 2209 
L 2766 2209 
L 2766 2266 
Q 2766 2663 2505 2880 
Q 2244 3097 1772 3097 
Q 1472 3097 1187 3025 
Q 903 2953 641 2809 
L 641 3341 
Q 956 3463 1253 3523 
Q 1550 3584 1831 3584 
Q 2591 3584 2966 3190 
Q 3341 2797 3341 1997 
z
" transform="scale(0.015625)"/>
      <path id="DejaVuSans-67" d="M 2906 1791 
Q 2906 2416 2648 2759 
Q 2391 3103 1925 3103 
Q 1463 3103 1205 2759 
Q 947 2416 947 1791 
Q 947 1169 1205 825 
Q 1463 481 1925 481 
Q 2391 481 2648 825 
Q 2906 1169 2906 1791 
z
M 3481 434 
Q 3481 -459 3084 -895 
Q 2688 -1331 1869 -1331 
Q 1566 -1331 1297 -1286 
Q 1028 -1241 775 -1147 
L 775 -588 
Q 1028 -725 1275 -790 
Q 1522 -856 1778 -856 
Q 2344 -856 2625 -561 
Q 2906 -266 2906 331 
L 2906 616 
Q 2728 306 2450 153 
Q 2172 0 1784 0 
Q 1141 0 747 490 
Q 353 981 353 1791 
Q 353 2603 747 3093 
Q 1141 3584 1784 3584 
Q 2172 3584 2450 3431 
Q 2728 3278 2906 2969 
L 2906 3500 
L 3481 3500 
L 3481 434 
z
" transform="scale(0.015625)"/>
      <path id="DejaVuSans-66" d="M 2375 4863 
L 2375 4384 
L 1825 4384 
Q 1516 4384 1395 4259 
Q 1275 4134 1275 3809 
L 1275 3500 
L 2222 3500 
L 2222 3053 
L 1275 3053 
L 1275 0 
L 697 0 
L 697 3053 
L 147 3053 
L 147 3500 
L 697 3500 
L 697 3744 
Q 697 4328 969 4595 
Q 1241 4863 1831 4863 
L 2375 4863 
z
" transform="scale(0.015625)"/>
      <path id="DejaVuSans-77" d="M 269 3500 
L 844 3500 
L 1563 769 
L 2278 3500 
L 2956 3500 
L 3675 769 
L 4391 3500 
L 4966 3500 
L 4050 0 
L 3372 0 
L 2619 2869 
L 1863 0 
L 1184 0 
L 269 3500 
z
" transform="scale(0.015625)"/>
      <path id="DejaVuSans-68" d="M 3513 2113 
L 3513 0 
L 2938 0 
L 2938 2094 
Q 2938 2591 2744 2837 
Q 2550 3084 2163 3084 
Q 1697 3084 1428 2787 
Q 1159 2491 1159 1978 
L 1159 0 
L 581 0 
L 581 4863 
L 1159 4863 
L 1159 2956 
Q 1366 3272 1645 3428 
Q 1925 3584 2291 3584 
Q 2894 3584 3203 3211 
Q 3513 2838 3513 2113 
z
" transform="scale(0.015625)"/>
      <path id="DejaVuSans-69" d="M 603 3500 
L 1178 3500 
L 1178 0 
L 603 0 
L 603 3500 
z
M 603 4863 
L 1178 4863 
L 1178 4134 
L 603 4134 
L 603 4863 
z
" transform="scale(0.015625)"/>
      <path id="DejaVuSans-6c" d="M 603 4863 
L 1178 4863 
L 1178 0 
L 603 0 
L 603 4863 
z
" transform="scale(0.015625)"/>
      <path id="DejaVuSans-6d" d="M 3328 2828 
Q 3544 3216 3844 3400 
Q 4144 3584 4550 3584 
Q 5097 3584 5394 3201 
Q 5691 2819 5691 2113 
L 5691 0 
L 5113 0 
L 5113 2094 
Q 5113 2597 4934 2840 
Q 4756 3084 4391 3084 
Q 3944 3084 3684 2787 
Q 3425 2491 3425 1978 
L 3425 0 
L 2847 0 
L 2847 2094 
Q 2847 2600 2669 2842 
Q 2491 3084 2119 3084 
Q 1678 3084 1418 2786 
Q 1159 2488 1159 1978 
L 1159 0 
L 581 0 
L 581 3500 
L 1159 3500 
L 1159 2956 
Q 1356 3278 1631 3431 
Q 1906 3584 2284 3584 
Q 2666 3584 2933 3390 
Q 3200 3197 3328 2828 
z
" transform="scale(0.015625)"/>
     </defs>
     <use xlink:href="#DejaVuSans-50"/>
     <use xlink:href="#DejaVuSans-65" transform="translate(56.677734 0)"/>
     <use xlink:href="#DejaVuSans-72" transform="translate(118.201172 0)"/>
     <use xlink:href="#DejaVuSans-63" transform="translate(157.064453 0)"/>
     <use xlink:href="#DejaVuSans-65" transform="translate(212.044922 0)"/>
     <use xlink:href="#DejaVuSans-6e" transform="translate(273.568359 0)"/>
     <use xlink:href="#DejaVuSans-74" transform="translate(336.947266 0)"/>
     <use xlink:href="#DejaVuSans-61" transform="translate(376.15625 0)"/>
     <use xlink:href="#DejaVuSans-67" transform="translate(437.435547 0)"/>
     <use xlink:href="#DejaVuSans-65" transform="translate(500.912109 0)"/>
     <use xlink:href="#DejaVuSans-20" transform="translate(562.435547 0)"/>
     <use xlink:href="#DejaVuSans-6f" transform="translate(594.222656 0)"/>
     <use xlink:href="#DejaVuSans-66" transform="translate(655.404297 0)"/>
     <use xlink:href="#DejaVuSans-20" transform="translate(690.609375 0)"/>
     <use xlink:href="#DejaVuSans-73" transform="translate(722.396484 0)"/>
     <use xlink:href="#DejaVuSans-74" transform="translate(774.496094 0)"/>
     <use xlink:href="#DejaVuSans-61" transform="translate(813.705078 0)"/>
     <use xlink:href="#DejaVuSans-6e" transform="translate(874.984375 0)"/>
     <use xlink:href="#DejaVuSans-64" transform="translate(938.363281 0)"/>
     <use xlink:href="#DejaVuSans-61" transform="translate(1001.839844 0)"/>
     <use xlink:href="#DejaVuSans-72" transform="translate(1063.119141 0)"/>
     <use xlink:href="#DejaVuSans-64" transform="translate(1102.482422 0)"/>
     <use xlink:href="#DejaVuSans-20" transform="translate(1165.958984 0)"/>
     <use xlink:href="#DejaVuSans-77" transform="translate(1197.746094 0)"/>
     <use xlink:href="#DejaVuSans-6f" transform="translate(1279.533203 0)"/>
     <use xlink:href="#DejaVuSans-72" transform="translate(1340.714844 0)"/>
     <use xlink:href="#DejaVuSans-6b" transform="translate(1381.828125 0)"/>
     <use xlink:href="#DejaVuSans-70" transform="translate(1439.738281 0)"/>
     <use xlink:href="#DejaVuSans-72" transform="translate(1503.214844 0)"/>
     <use xlink:href="#DejaVuSans-6f" transform="translate(1542.078125 0)"/>
     <use xlink:href="#DejaVuSans-64" transform="translate(1603.259766 0)"/>
     <use xlink:href="#DejaVuSans-75" transform="translate(1666.736328 0)"/>
     <use xlink:href="#DejaVuSans-63" transform="translate(1730.115234 0)"/>
     <use xlink:href="#DejaVuSans-74" transform="translate(1785.095703 0)"/>
     <use xlink:href="#DejaVuSans-73" transform="translate(1824.304688 0)"/>
     <use xlink:href="#DejaVuSans-20" transform="translate(1876.404297 0)"/>
     <use xlink:href="#DejaVuSans-77" transform="translate(1908.191406 0)"/>
     <use xlink:href="#DejaVuSans-68" transform="translate(1989.978516 0)"/>
     <use xlink:href="#DejaVuSans-69" transform="translate(2053.357422 0)"/>
     <use xlink:href="#DejaVuSans-63" transform="translate(2081.140625 0)"/>
     <use xlink:href="#DejaVuSans-68" transform="translate(2136.121094 0)"/>
     <use xlink:href="#DejaVuSans-20" transform="translate(2199.5 0)"/>
     <use xlink:href="#DejaVuSans-61" transform="translate(2231.287109 0)"/>
     <use xlink:href="#DejaVuSans-72" transform="translate(2292.566406 0)"/>
     <use xlink:href="#DejaVuSans-65" transform="translate(2331.429688 0)"/>
     <use xlink:href="#DejaVuSans-20" transform="translate(2392.953125 0)"/>
     <use xlink:href="#DejaVuSans-6c" transform="translate(2424.740234 0)"/>
     <use xlink:href="#DejaVuSans-69" transform="translate(2452.523438 0)"/>
     <use xlink:href="#DejaVuSans-6e" transform="translate(2480.306641 0)"/>
     <use xlink:href="#DejaVuSans-6b" transform="translate(2543.685547 0)"/>
     <use xlink:href="#DejaVuSans-65" transform="translate(2597.970703 0)"/>
     <use xlink:href="#DejaVuSans-64" transform="translate(2659.494141 0)"/>
     <use xlink:href="#DejaVuSans-20" transform="translate(2722.970703 0)"/>
     <use xlink:href="#DejaVuSans-74" transform="translate(2754.757812 0)"/>
     <use xlink:href="#DejaVuSans-6f" transform="translate(2793.966797 0)"/>
     <use xlink:href="#DejaVuSans-20" transform="translate(2855.148438 0)"/>
     <use xlink:href="#DejaVuSans-61" transform="translate(2886.935547 0)"/>
     <use xlink:href="#DejaVuSans-74" transform="translate(2948.214844 0)"/>
     <use xlink:href="#DejaVuSans-20" transform="translate(2987.423828 0)"/>
     <use xlink:href="#DejaVuSans-6c" transform="translate(3019.210938 0)"/>
     <use xlink:href="#DejaVuSans-65" transform="translate(3046.994141 0)"/>
     <use xlink:href="#DejaVuSans-61" transform="translate(3108.517578 0)"/>
     <use xlink:href="#DejaVuSans-73" transform="translate(3169.796875 0)"/>
     <use xlink:href="#DejaVuSans-74" transform="translate(3221.896484 0)"/>
     <use xlink:href="#DejaVuSans-20" transform="translate(3261.105469 0)"/>
     <use xlink:href="#DejaVuSans-6f" transform="translate(3292.892578 0)"/>
     <use xlink:href="#DejaVuSans-6e" transform="translate(3354.074219 0)"/>
     <use xlink:href="#DejaVuSans-65" transform="translate(3417.453125 0)"/>
     <use xlink:href="#DejaVuSans-20" transform="translate(3478.976562 0)"/>
     <use xlink:href="#DejaVuSans-69" transform="translate(3510.763672 0)"/>
     <use xlink:href="#DejaVuSans-74" transform="translate(3538.546875 0)"/>
     <use xlink:href="#DejaVuSans-65" transform="translate(3577.755859 0)"/>
     <use xlink:href="#DejaVuSans-6d" transform="translate(3639.279297 0)"/>
    </g>
   </g>
   <g id="legend_1">
    <g id="patch_4">
     <path d="M 436.12 168.957188 
L 614.834063 168.957188 
Q 616.834063 168.957188 616.834063 166.957188 
L 616.834063 123.922813 
Q 616.834063 121.922813 614.834063 121.922813 
L 436.12 121.922813 
Q 434.12 121.922813 434.12 123.922813 
L 434.12 166.957188 
Q 434.12 168.957188 436.12 168.957188 
z
" style="fill: #ffffff; opacity: 0.8; stroke: #cccccc; stroke-linejoin: miter"/>
    </g>
    <g id="text_6">
     <!-- legend -->
     <g transform="translate(508.417656 133.52125) scale(0.1 -0.1)">
      <use xlink:href="#DejaVuSans-6c"/>
      <use xlink:href="#DejaVuSans-65" transform="translate(27.783203 0)"/>
      <use xlink:href="#DejaVuSans-67" transform="translate(89.306641 0)"/>
      <use xlink:href="#DejaVuSans-65" transform="translate(152.783203 0)"/>
      <use xlink:href="#DejaVuSans-6e" transform="translate(214.306641 0)"/>
      <use xlink:href="#DejaVuSans-64" transform="translate(277.685547 0)"/>
     </g>
    </g>
    <g id="patch_5">
     <path d="M 438.12 148.199375 
L 458.12 148.199375 
L 458.12 141.199375 
L 438.12 141.199375 
z
" style="fill: #008000"/>
    </g>
    <g id="text_7">
     <!-- Connected Workproducts -->
     <g transform="translate(466.12 148.199375) scale(0.1 -0.1)">
      <use xlink:href="#DejaVuSans-43"/>
      <use xlink:href="#DejaVuSans-6f" transform="translate(69.824219 0)"/>
      <use xlink:href="#DejaVuSans-6e" transform="translate(131.005859 0)"/>
      <use xlink:href="#DejaVuSans-6e" transform="translate(194.384766 0)"/>
      <use xlink:href="#DejaVuSans-65" transform="translate(257.763672 0)"/>
      <use xlink:href="#DejaVuSans-63" transform="translate(319.287109 0)"/>
      <use xlink:href="#DejaVuSans-74" transform="translate(374.267578 0)"/>
      <use xlink:href="#DejaVuSans-65" transform="translate(413.476562 0)"/>
      <use xlink:href="#DejaVuSans-64" transform="translate(475 0)"/>
      <use xlink:href="#DejaVuSans-20" transform="translate(538.476562 0)"/>
      <use xlink:href="#DejaVuSans-57" transform="translate(570.263672 0)"/>
      <use xlink:href="#DejaVuSans-6f" transform="translate(663.265625 0)"/>
      <use xlink:href="#DejaVuSans-72" transform="translate(724.447266 0)"/>
      <use xlink:href="#DejaVuSans-6b" transform="translate(765.560547 0)"/>
      <use xlink:href="#DejaVuSans-70" transform="translate(823.470703 0)"/>
      <use xlink:href="#DejaVuSans-72" transform="translate(886.947266 0)"/>
      <use xlink:href="#DejaVuSans-6f" transform="translate(925.810547 0)"/>
      <use xlink:href="#DejaVuSans-64" transform="translate(986.992188 0)"/>
      <use xlink:href="#DejaVuSans-75" transform="translate(1050.46875 0)"/>
      <use xlink:href="#DejaVuSans-63" transform="translate(1113.847656 0)"/>
      <use xlink:href="#DejaVuSans-74" transform="translate(1168.828125 0)"/>
      <use xlink:href="#DejaVuSans-73" transform="translate(1208.037109 0)"/>
     </g>
    </g>
    <g id="patch_6">
     <path d="M 438.12 162.8775 
L 458.12 162.8775 
L 458.12 155.8775 
L 438.12 155.8775 
z
" style="fill: #ff0000"/>
    </g>
    <g id="text_8">
     <!-- Not Connected Workproducts -->
     <g transform="translate(466.12 162.8775) scale(0.1 -0.1)">
      <use xlink:href="#DejaVuSans-4e"/>
      <use xlink:href="#DejaVuSans-6f" transform="translate(74.804688 0)"/>
      <use xlink:href="#DejaVuSans-74" transform="translate(135.986328 0)"/>
      <use xlink:href="#DejaVuSans-20" transform="translate(175.195312 0)"/>
      <use xlink:href="#DejaVuSans-43" transform="translate(206.982422 0)"/>
      <use xlink:href="#DejaVuSans-6f" transform="translate(276.806641 0)"/>
      <use xlink:href="#DejaVuSans-6e" transform="translate(337.988281 0)"/>
      <use xlink:href="#DejaVuSans-6e" transform="translate(401.367188 0)"/>
      <use xlink:href="#DejaVuSans-65" transform="translate(464.746094 0)"/>
      <use xlink:href="#DejaVuSans-63" transform="translate(526.269531 0)"/>
      <use xlink:href="#DejaVuSans-74" transform="translate(581.25 0)"/>
      <use xlink:href="#DejaVuSans-65" transform="translate(620.458984 0)"/>
      <use xlink:href="#DejaVuSans-64" transform="translate(681.982422 0)"/>
      <use xlink:href="#DejaVuSans-20" transform="translate(745.458984 0)"/>
      <use xlink:href="#DejaVuSans-57" transform="translate(777.246094 0)"/>
      <use xlink:href="#DejaVuSans-6f" transform="translate(870.248047 0)"/>
      <use xlink:href="#DejaVuSans-72" transform="translate(931.429688 0)"/>
      <use xlink:href="#DejaVuSans-6b" transform="translate(972.542969 0)"/>
      <use xlink:href="#DejaVuSans-70" transform="translate(1030.453125 0)"/>
      <use xlink:href="#DejaVuSans-72" transform="translate(1093.929688 0)"/>
      <use xlink:href="#DejaVuSans-6f" transform="translate(1132.792969 0)"/>
      <use xlink:href="#DejaVuSans-64" transform="translate(1193.974609 0)"/>
      <use xlink:href="#DejaVuSans-75" transform="translate(1257.451172 0)"/>
      <use xlink:href="#DejaVuSans-63" transform="translate(1320.830078 0)"/>
      <use xlink:href="#DejaVuSans-74" transform="translate(1375.810547 0)"/>
      <use xlink:href="#DejaVuSans-73" transform="translate(1415.019531 0)"/>
     </g>
    </g>
   </g>
  </g>
 </g>
</svg>
