<svg xmlns="http://www.w3.org/2000/svg" xmlns:xlink="http://www.w3.org/1999/xlink" contentStyleType="text/css" data-diagram-type="SEQUENCE" height="779px" preserveAspectRatio="none" style="width:1396px;height:779px;background:#FFFFFF;" version="1.1" viewBox="0 0 1396 779" width="1396px" zoomAndPan="magnify"><title>Control Interface - Activate Run Target (Legacy)</title><defs/><g><text fill="#000000" font-family="sans-serif" font-size="14" font-weight="bold" lengthAdjust="spacing" textLength="380.8438" x="514.6575" y="27.9951">Control Interface - Activate Run Target (Legacy)</text><g><title>Launch Manager</title><rect fill="#FFFFFF" height="523.9922" style="stroke:#181818;stroke-width:1;" width="10" x="605.29" y="211.125"/></g><g><title>DemoApp1</title><rect fill="#FFFFFF" height="339.3281" style="stroke:#181818;stroke-width:1;" width="10" x="1055.3462" y="395.7891"/></g><g><title>DemoApp2</title><rect fill="#FFFFFF" height="251.9297" style="stroke:#181818;stroke-width:1;" width="10" x="1157.2007" y="483.1875"/></g><g><title>Tester</title><rect fill="transparent" height="670.5234" width="8" x="30.1587" y="73.5938"/><line style="stroke:#181818;stroke-width:0.5;stroke-dasharray:5.0,5.0;" x1="34" x2="34" y1="73.5938" y2="744.1172"/></g><g><title>State Manager</title><rect fill="transparent" height="670.5234" width="8" x="315.3276" y="73.5938"/><line style="stroke:#181818;stroke-width:0.5;stroke-dasharray:5.0,5.0;" x1="318.8906" x2="318.8906" y1="73.5938" y2="744.1172"/></g><g><title>Launch Manager</title><rect fill="transparent" height="670.5234" width="8" x="606.29" y="73.5938"/><line style="stroke:#181818;stroke-width:0.5;stroke-dasharray:5.0,5.0;" x1="610.0342" x2="610.0342" y1="73.5938" y2="744.1172"/></g><g><title>OS (kernel)</title><rect fill="transparent" height="670.5234" width="8" x="953.8525" y="73.5938"/><line style="stroke:#181818;stroke-width:0.5;stroke-dasharray:5.0,5.0;" x1="957.2861" x2="957.2861" y1="73.5938" y2="744.1172"/></g><g><title>DemoApp1</title><rect fill="transparent" height="670.5234" width="8" x="1056.3462" y="73.5938"/><line style="stroke:#181818;stroke-width:0.5;stroke-dasharray:5.0,5.0;" x1="1059.4189" x2="1059.4189" y1="73.5938" y2="744.1172"/></g><g><title>DemoApp2</title><rect fill="transparent" height="670.5234" width="8" x="1158.2007" y="73.5938"/><line style="stroke:#181818;stroke-width:0.5;stroke-dasharray:5.0,5.0;" x1="1161.2734" x2="1161.2734" y1="73.5938" y2="744.1172"/></g><rect fill="#E2E2F0" height="30.2969" rx="2.5" ry="2.5" style="stroke:#181818;stroke-width:0.5;" width="58.3174" x="5" y="42.2969"/><text fill="#000000" font-family="sans-serif" font-size="14" lengthAdjust="spacing" textLength="44.3174" x="12" y="62.292">Tester</text><rect fill="#E2E2F0" height="30.2969" rx="2.5" ry="2.5" style="stroke:#181818;stroke-width:0.5;" width="58.3174" x="5" y="743.1172"/><text fill="#000000" font-family="sans-serif" font-size="14" lengthAdjust="spacing" textLength="44.3174" x="12" y="763.1123">Tester</text><rect fill="#E2E2F0" height="30.2969" rx="2.5" ry="2.5" style="stroke:#181818;stroke-width:0.5;" width="116.874" x="260.8906" y="42.2969"/><text fill="#000000" font-family="sans-serif" font-size="14" lengthAdjust="spacing" textLength="102.874" x="267.8906" y="62.292">State Manager</text><rect fill="#E2E2F0" height="30.2969" rx="2.5" ry="2.5" style="stroke:#181818;stroke-width:0.5;" width="116.874" x="260.8906" y="743.1172"/><text fill="#000000" font-family="sans-serif" font-size="14" lengthAdjust="spacing" textLength="102.874" x="267.8906" y="763.1123">State Manager</text><rect fill="#E2E2F0" height="30.2969" rx="2.5" ry="2.5" style="stroke:#181818;stroke-width:0.5;" width="130.5117" x="545.0342" y="42.2969"/><text fill="#000000" font-family="sans-serif" font-size="14" lengthAdjust="spacing" textLength="116.5117" x="552.0342" y="62.292">Launch Manager</text><rect fill="#E2E2F0" height="30.2969" rx="2.5" ry="2.5" style="stroke:#181818;stroke-width:0.5;" width="130.5117" x="545.0342" y="743.1172"/><text fill="#000000" font-family="sans-serif" font-size="14" lengthAdjust="spacing" textLength="116.5117" x="552.0342" y="763.1123">Launch Manager</text><rect fill="#E2E2F0" height="30.2969" rx="2.5" ry="2.5" style="stroke:#181818;stroke-width:0.5;" width="93.1328" x="911.2861" y="42.2969"/><text fill="#000000" font-family="sans-serif" font-size="14" lengthAdjust="spacing" textLength="79.1328" x="918.2861" y="62.292">OS (kernel)</text><rect fill="#E2E2F0" height="30.2969" rx="2.5" ry="2.5" style="stroke:#181818;stroke-width:0.5;" width="93.1328" x="911.2861" y="743.1172"/><text fill="#000000" font-family="sans-serif" font-size="14" lengthAdjust="spacing" textLength="79.1328" x="918.2861" y="763.1123">OS (kernel)</text><rect fill="#E2E2F0" height="30.2969" rx="2.5" ry="2.5" style="stroke:#181818;stroke-width:0.5;" width="91.8545" x="1014.4189" y="42.2969"/><text fill="#000000" font-family="sans-serif" font-size="14" lengthAdjust="spacing" textLength="77.8545" x="1021.4189" y="62.292">DemoApp1</text><rect fill="#E2E2F0" height="30.2969" rx="2.5" ry="2.5" style="stroke:#181818;stroke-width:0.5;" width="91.8545" x="1014.4189" y="743.1172"/><text fill="#000000" font-family="sans-serif" font-size="14" lengthAdjust="spacing" textLength="77.8545" x="1021.4189" y="763.1123">DemoApp1</text><rect fill="#E2E2F0" height="30.2969" rx="2.5" ry="2.5" style="stroke:#181818;stroke-width:0.5;" width="91.8545" x="1116.2734" y="42.2969"/><text fill="#000000" font-family="sans-serif" font-size="14" lengthAdjust="spacing" textLength="77.8545" x="1123.2734" y="62.292">DemoApp2</text><rect fill="#E2E2F0" height="30.2969" rx="2.5" ry="2.5" style="stroke:#181818;stroke-width:0.5;" width="91.8545" x="1116.2734" y="743.1172"/><text fill="#000000" font-family="sans-serif" font-size="14" lengthAdjust="spacing" textLength="77.8545" x="1123.2734" y="763.1123">DemoApp2</text><g><title>Launch Manager</title><rect fill="#FFFFFF" height="523.9922" style="stroke:#181818;stroke-width:1;" width="10" x="605.29" y="211.125"/></g><g><title>DemoApp1</title><rect fill="#FFFFFF" height="339.3281" style="stroke:#181818;stroke-width:1;" width="10" x="1055.3462" y="395.7891"/></g><g><title>DemoApp2</title><rect fill="#FFFFFF" height="251.9297" style="stroke:#181818;stroke-width:1;" width="10" x="1157.2007" y="483.1875"/></g><path d="M259,88.5938 L259,113.5938 L668,113.5938 L668,98.5938 L658,88.5938 L259,88.5938 " fill="#FEFFDD" style="stroke:#181818;stroke-width:0.5;"/><path d="M658,88.5938 L658,98.5938 L668,98.5938 L658,88.5938 " fill="#FEFFDD" style="stroke:#181818;stroke-width:0.5;"/><text fill="#000000" font-family="sans-serif" font-size="13" lengthAdjust="spacing" textLength="239.3003" x="339.6775" y="105.6606">Activating Run Target "DemoTarget"</text><polygon fill="#181818" points="307.3276,135.8594,317.3276,139.8594,307.3276,143.8594,311.3276,139.8594" style="stroke:#181818;stroke-width:1;"/><line style="stroke:#181818;stroke-width:1;" x1="34.1587" x2="313.3276" y1="139.8594" y2="139.8594"/><text fill="#000000" font-family="sans-serif" font-size="13" font-weight="bold" lengthAdjust="spacing" textLength="29.9736" x="41.1587" y="134.7935">[01]</text><text fill="#000000" font-family="sans-serif" font-size="13" lengthAdjust="spacing" textLength="227.1953" x="75.1323" y="134.7935">Activate Run Target "DemoTarget"</text><line style="stroke:#181818;stroke-width:1;" x1="319.3276" x2="361.3276" y1="168.9922" y2="168.9922"/><line style="stroke:#181818;stroke-width:1;" x1="361.3276" x2="361.3276" y1="168.9922" y2="181.9922"/><line style="stroke:#181818;stroke-width:1;" x1="320.3276" x2="361.3276" y1="181.9922" y2="181.9922"/><polygon fill="#181818" points="330.3276,177.9922,320.3276,181.9922,330.3276,185.9922,326.3276,181.9922" style="stroke:#181818;stroke-width:1;"/><text fill="#000000" font-family="sans-serif" font-size="13" font-weight="bold" lengthAdjust="spacing" textLength="29.9736" x="326.3276" y="163.9263">[02]</text><text fill="#000000" font-family="sans-serif" font-size="13" lengthAdjust="spacing" textLength="110.4048" x="360.3013" y="163.9263">evaluate request</text><polygon fill="#181818" points="593.29,207.125,603.29,211.125,593.29,215.125,597.29,211.125" style="stroke:#181818;stroke-width:1;"/><line style="stroke:#181818;stroke-width:1;" x1="319.3276" x2="599.29" y1="211.125" y2="211.125"/><text fill="#000000" font-family="sans-serif" font-size="13" font-weight="bold" lengthAdjust="spacing" textLength="29.9736" x="326.3276" y="206.0591">[03]</text><text fill="#000000" font-family="sans-serif" font-size="13" lengthAdjust="spacing" textLength="230.4834" x="360.3013" y="206.0591">activate_run_target("DemoTarget")</text><line style="stroke:#181818;stroke-width:1;" x1="615.29" x2="657.29" y1="240.2578" y2="240.2578"/><line style="stroke:#181818;stroke-width:1;" x1="657.29" x2="657.29" y1="240.2578" y2="253.2578"/><line style="stroke:#181818;stroke-width:1;" x1="616.29" x2="657.29" y1="253.2578" y2="253.2578"/><polygon fill="#181818" points="626.29,249.2578,616.29,253.2578,626.29,257.2578,622.29,253.2578" style="stroke:#181818;stroke-width:1;"/><text fill="#000000" font-family="sans-serif" font-size="13" font-weight="bold" lengthAdjust="spacing" textLength="29.9736" x="622.29" y="235.1919">[04]</text><text fill="#000000" font-family="sans-serif" font-size="13" lengthAdjust="spacing" textLength="164.1187" x="656.2637" y="235.1919">validate run target exists</text><line style="stroke:#181818;stroke-width:1;" x1="615.29" x2="657.29" y1="282.3906" y2="282.3906"/><line style="stroke:#181818;stroke-width:1;" x1="657.29" x2="657.29" y1="282.3906" y2="295.3906"/><line style="stroke:#181818;stroke-width:1;" x1="616.29" x2="657.29" y1="295.3906" y2="295.3906"/><polygon fill="#181818" points="626.29,291.3906,616.29,295.3906,626.29,299.3906,622.29,295.3906" style="stroke:#181818;stroke-width:1;"/><text fill="#000000" font-family="sans-serif" font-size="13" font-weight="bold" lengthAdjust="spacing" textLength="29.9736" x="622.29" y="277.3247">[05]</text><text fill="#000000" font-family="sans-serif" font-size="13" lengthAdjust="spacing" textLength="201.3921" x="656.2637" y="277.3247">analyze current vs target state</text><line style="stroke:#181818;stroke-width:1;" x1="615.29" x2="657.29" y1="324.5234" y2="324.5234"/><line style="stroke:#181818;stroke-width:1;" x1="657.29" x2="657.29" y1="324.5234" y2="337.5234"/><line style="stroke:#181818;stroke-width:1;" x1="616.29" x2="657.29" y1="337.5234" y2="337.5234"/><polygon fill="#181818" points="626.29,333.5234,616.29,337.5234,626.29,341.5234,622.29,337.5234" style="stroke:#181818;stroke-width:1;"/><text fill="#000000" font-family="sans-serif" font-size="13" font-weight="bold" lengthAdjust="spacing" textLength="29.9736" x="622.29" y="319.4575">[06]</text><text fill="#000000" font-family="sans-serif" font-size="13" lengthAdjust="spacing" textLength="203.2456" x="656.2637" y="319.4575">determine components to start</text><polygon fill="#181818" points="945.8525,362.6563,955.8525,366.6563,945.8525,370.6563,949.8525,366.6563" style="stroke:#181818;stroke-width:1;"/><line style="stroke:#181818;stroke-width:1;" x1="615.29" x2="951.8525" y1="366.6563" y2="366.6563"/><text fill="#000000" font-family="sans-serif" font-size="13" font-weight="bold" lengthAdjust="spacing" textLength="29.9736" x="622.29" y="361.5903">[07]</text><text fill="#000000" font-family="sans-serif" font-size="13" lengthAdjust="spacing" textLength="118.2886" x="656.2637" y="361.5903">spawn DemoApp1</text><polygon fill="#181818" points="1043.3462,391.7891,1053.3462,395.7891,1043.3462,399.7891,1047.3462,395.7891" style="stroke:#181818;stroke-width:1;"/><line style="stroke:#181818;stroke-width:1;" x1="957.8525" x2="1049.3462" y1="395.7891" y2="395.7891"/><text fill="#000000" font-family="sans-serif" font-size="13" font-weight="bold" lengthAdjust="spacing" textLength="29.9736" x="964.8525" y="390.7231">[08]</text><text fill="#000000" font-family="sans-serif" font-size="13" lengthAdjust="spacing" textLength="41.8628" x="998.8262" y="390.7231">spawn</text><polygon fill="#181818" points="626.29,420.9219,616.29,424.9219,626.29,428.9219,622.29,424.9219" style="stroke:#181818;stroke-width:1;"/><line style="stroke:#181818;stroke-width:1;stroke-dasharray:2.0,2.0;" x1="620.29" x2="956.8525" y1="424.9219" y2="424.9219"/><text fill="#000000" font-family="sans-serif" font-size="13" font-weight="bold" lengthAdjust="spacing" textLength="29.9736" x="632.29" y="419.856">[09]</text><text fill="#000000" font-family="sans-serif" font-size="13" lengthAdjust="spacing" textLength="196.2505" x="666.2637" y="419.856">result of spawning DemoApp1</text><polygon fill="#181818" points="945.8525,450.0547,955.8525,454.0547,945.8525,458.0547,949.8525,454.0547" style="stroke:#181818;stroke-width:1;"/><line style="stroke:#181818;stroke-width:1;" x1="615.29" x2="951.8525" y1="454.0547" y2="454.0547"/><text fill="#000000" font-family="sans-serif" font-size="13" font-weight="bold" lengthAdjust="spacing" textLength="29.9736" x="622.29" y="448.9888">[10]</text><text fill="#000000" font-family="sans-serif" font-size="13" lengthAdjust="spacing" textLength="118.2886" x="656.2637" y="448.9888">spawn DemoApp2</text><polygon fill="#181818" points="1145.2007,479.1875,1155.2007,483.1875,1145.2007,487.1875,1149.2007,483.1875" style="stroke:#181818;stroke-width:1;"/><line style="stroke:#181818;stroke-width:1;" x1="957.8525" x2="1151.2007" y1="483.1875" y2="483.1875"/><text fill="#000000" font-family="sans-serif" font-size="13" font-weight="bold" lengthAdjust="spacing" textLength="29.9736" x="964.8525" y="478.1216">[11]</text><text fill="#000000" font-family="sans-serif" font-size="13" lengthAdjust="spacing" textLength="41.8628" x="998.8262" y="478.1216">spawn</text><polygon fill="#181818" points="626.29,508.3203,616.29,512.3203,626.29,516.3203,622.29,512.3203" style="stroke:#181818;stroke-width:1;"/><line style="stroke:#181818;stroke-width:1;stroke-dasharray:2.0,2.0;" x1="620.29" x2="956.8525" y1="512.3203" y2="512.3203"/><text fill="#000000" font-family="sans-serif" font-size="13" font-weight="bold" lengthAdjust="spacing" textLength="29.9736" x="632.29" y="507.2544">[12]</text><text fill="#000000" font-family="sans-serif" font-size="13" lengthAdjust="spacing" textLength="196.2505" x="666.2637" y="507.2544">result of spawning DemoApp2</text><line style="stroke:#181818;stroke-width:1;" x1="615.29" x2="657.29" y1="541.4531" y2="541.4531"/><line style="stroke:#181818;stroke-width:1;" x1="657.29" x2="657.29" y1="541.4531" y2="554.4531"/><line style="stroke:#181818;stroke-width:1;" x1="616.29" x2="657.29" y1="554.4531" y2="554.4531"/><polygon fill="#181818" points="626.29,550.4531,616.29,554.4531,626.29,558.4531,622.29,554.4531" style="stroke:#181818;stroke-width:1;"/><text fill="#000000" font-family="sans-serif" font-size="13" font-weight="bold" lengthAdjust="spacing" textLength="29.9736" x="622.29" y="536.3872">[13]</text><text fill="#000000" font-family="sans-serif" font-size="13" lengthAdjust="spacing" textLength="231.5562" x="656.2637" y="536.3872">wait for run target ready conditions</text><line style="stroke:#181818;stroke-width:1;" x1="1167.2007" x2="1209.2007" y1="583.5859" y2="583.5859"/><line style="stroke:#181818;stroke-width:1;" x1="1209.2007" x2="1209.2007" y1="583.5859" y2="596.5859"/><line style="stroke:#181818;stroke-width:1;" x1="1168.2007" x2="1209.2007" y1="596.5859" y2="596.5859"/><polygon fill="#181818" points="1178.2007,592.5859,1168.2007,596.5859,1178.2007,600.5859,1174.2007,596.5859" style="stroke:#181818;stroke-width:1;"/><text fill="#000000" font-family="sans-serif" font-size="13" font-weight="bold" lengthAdjust="spacing" textLength="29.9736" x="1174.2007" y="578.52">[14]</text><text fill="#000000" font-family="sans-serif" font-size="13" lengthAdjust="spacing" textLength="180.9844" x="1208.1743" y="578.52">register device /dev/Demo2</text><polygon fill="#181818" points="626.29,621.7188,616.29,625.7188,626.29,629.7188,622.29,625.7188" style="stroke:#181818;stroke-width:1;"/><line style="stroke:#181818;stroke-width:1;" x1="620.29" x2="1156.2007" y1="625.7188" y2="625.7188"/><text fill="#000000" font-family="sans-serif" font-size="13" font-weight="bold" lengthAdjust="spacing" textLength="29.9736" x="632.29" y="620.6528">[15]</text><text fill="#000000" font-family="sans-serif" font-size="13" lengthAdjust="spacing" textLength="189.103" x="666.2637" y="620.6528">signal ready via Lifecycle API</text><polygon fill="#181818" points="626.29,650.8516,616.29,654.8516,626.29,658.8516,622.29,654.8516" style="stroke:#181818;stroke-width:1;"/><line style="stroke:#181818;stroke-width:1;stroke-dasharray:2.0,2.0;" x1="620.29" x2="956.8525" y1="654.8516" y2="654.8516"/><text fill="#000000" font-family="sans-serif" font-size="13" font-weight="bold" lengthAdjust="spacing" textLength="29.9736" x="632.29" y="649.7856">[16]</text><text fill="#000000" font-family="sans-serif" font-size="13" lengthAdjust="spacing" textLength="191.5596" x="666.2637" y="649.7856">event /dev/Demo2 registered</text><line style="stroke:#181818;stroke-width:1;" x1="615.29" x2="657.29" y1="683.9844" y2="683.9844"/><line style="stroke:#181818;stroke-width:1;" x1="657.29" x2="657.29" y1="683.9844" y2="696.9844"/><line style="stroke:#181818;stroke-width:1;" x1="616.29" x2="657.29" y1="696.9844" y2="696.9844"/><polygon fill="#181818" points="626.29,692.9844,616.29,696.9844,626.29,700.9844,622.29,696.9844" style="stroke:#181818;stroke-width:1;"/><text fill="#000000" font-family="sans-serif" font-size="13" font-weight="bold" lengthAdjust="spacing" textLength="29.9736" x="622.29" y="678.9185">[17]</text><text fill="#000000" font-family="sans-serif" font-size="13" lengthAdjust="spacing" textLength="279.5889" x="656.2637" y="678.9185">verify run target "DemoTarget" fully active</text><polygon fill="#181818" points="330.3276,722.1172,320.3276,726.1172,330.3276,730.1172,326.3276,726.1172" style="stroke:#181818;stroke-width:1;"/><line style="stroke:#181818;stroke-width:1;stroke-dasharray:2.0,2.0;" x1="324.3276" x2="604.29" y1="726.1172" y2="726.1172"/><text fill="#000000" font-family="sans-serif" font-size="13" font-weight="bold" lengthAdjust="spacing" textLength="29.9736" x="336.3276" y="721.0513">[18]</text><text fill="#000000" font-family="sans-serif" font-size="13" lengthAdjust="spacing" textLength="227.9888" x="370.3013" y="721.0513">run target "DemoTarget" activated</text><!--SRC=[ZPDFQzmm4CNl-XJ3ddQX8QcFImaixINWfQNEhPIWs6DNr2kvqiYf- -axignTENzAJvQjtxmtUXgJeXxXez5aJGztcj2siaQuWaDDQfI4yDLhk9UsGu9jYPsifvqGqfFH_lI85ZOV7c-_tTnytmWnI4kgLeFK19jxTAos0UaWBjVR5GNnezIoMwZgk2PAwNNzOuMKpv3F5Mn_ejNOx-Rzk5upd_1a3iFmVWRIowj8aIE54DfmXsRaCrR7T-ozJw4etUMnpFLnpI74myBLBLVjNurnnLV7XE8eUnzGYxyyYonRmLSkAW_MwmUQAxUvoaua8aGaodCXIwfcrcJxM0ZuMpbo6SG1zzCVXDfRYvp7w1BgmYLbP8Dyj9FIp9hJO3JJp9h0MKg-yHBsu0Rvf2-9nyy1I9yMvDBx2tQnjUXyJs3QM13YFwF_CYrUcXPlcHR_Rrha2Jz9HT0QcoTiKJOJHwGRHSfe9rBXkX6BdPfdfS5HyKztpS_hi5si2eABKnrVqY8yAWcbQh6UQlvv3r_kdhUEOxZ6YzpP2PlLSA1LxPGtdiyKjBxlfpXwSGQMENsBJuasuYy0]--></g></svg>