<svg xmlns="http://www.w3.org/2000/svg" xmlns:xlink="http://www.w3.org/1999/xlink" contentStyleType="text/css" data-diagram-type="STATE" height="933px" preserveAspectRatio="none" style="width:397px;height:933px;background:#FFFFFF;" version="1.1" viewBox="0 0 397 933" width="397px" zoomAndPan="magnify"><title>Dependency based lifecycle management</title><defs/><g><text fill="#000000" font-family="sans-serif" font-size="14" font-weight="bold" lengthAdjust="spacing" textLength="328.3574" x="28.1152" y="22.9951">Dependency based lifecycle management</text><g id="debug"><rect fill="#ADD8E6" height="50" rx="12.5" ry="12.5" style="stroke:#181818;stroke-width:0.5;" width="64.1465" x="20.9565" y="123.2969"/><line style="stroke:#181818;stroke-width:0.5;" x1="20.9565" x2="85.103" y1="149.5938" y2="149.5938"/><text fill="#000000" font-family="sans-serif" font-size="14" lengthAdjust="spacing" textLength="44.1465" x="30.9565" y="141.292">debug</text></g><g id="running"><rect fill="#ADD8E6" height="50" rx="12.5" ry="12.5" style="stroke:#181818;stroke-width:0.5;" width="74.0244" x="119.9565" y="123.2969"/><line style="stroke:#181818;stroke-width:0.5;" x1="119.9565" x2="193.981" y1="149.5938" y2="149.5938"/><text fill="#000000" font-family="sans-serif" font-size="14" lengthAdjust="spacing" textLength="54.0244" x="129.9565" y="141.292">running</text></g><g id="ready_for_shutdown"><rect fill="#ADD8E6" height="50" rx="12.5" ry="12.5" style="stroke:#181818;stroke-width:0.5;" width="161.6748" x="228.9565" y="123.2969"/><line style="stroke:#181818;stroke-width:0.5;" x1="228.9565" x2="390.6313" y1="149.5938" y2="149.5938"/><text fill="#000000" font-family="sans-serif" font-size="14" lengthAdjust="spacing" textLength="141.6748" x="238.9565" y="141.292">ready_for_shutdown</text></g><g id="app1"><rect fill="#F1F1F1" height="50.2656" rx="12.5" ry="12.5" style="stroke:#181818;stroke-width:0.5;" width="100.5723" x="106.4565" y="233.2969"/><line style="stroke:#181818;stroke-width:0.5;" x1="106.4565" x2="207.0288" y1="259.5938" y2="259.5938"/><text fill="#000000" font-family="sans-serif" font-size="14" lengthAdjust="spacing" textLength="35.2598" x="139.1128" y="251.292">app1</text><text fill="#000000" font-family="sans-serif" font-size="12" lengthAdjust="spacing" textLength="80.5723" x="111.4565" y="275.7324">/opt/bin/app1</text></g><g id="app2"><rect fill="#F1F1F1" height="50.2656" rx="12.5" ry="12.5" style="stroke:#181818;stroke-width:0.5;" width="100.5723" x="133.4565" y="343.2969"/><line style="stroke:#181818;stroke-width:0.5;" x1="133.4565" x2="234.0288" y1="369.5938" y2="369.5938"/><text fill="#000000" font-family="sans-serif" font-size="14" lengthAdjust="spacing" textLength="35.2598" x="166.1128" y="361.292">app2</text><text fill="#000000" font-family="sans-serif" font-size="12" lengthAdjust="spacing" textLength="80.5723" x="138.4565" y="385.7324">/opt/bin/app2</text></g><g id="app3"><rect fill="#F1F1F1" height="50.2656" rx="12.5" ry="12.5" style="stroke:#181818;stroke-width:0.5;" width="100.5723" x="242.4565" y="233.2969"/><line style="stroke:#181818;stroke-width:0.5;" x1="242.4565" x2="343.0288" y1="259.5938" y2="259.5938"/><text fill="#000000" font-family="sans-serif" font-size="14" lengthAdjust="spacing" textLength="35.2598" x="275.1128" y="251.292">app3</text><text fill="#000000" font-family="sans-serif" font-size="12" lengthAdjust="spacing" textLength="80.5723" x="247.4565" y="275.7324">/opt/bin/app3</text></g><g id="ssh"><rect fill="#F1F1F1" height="50.2656" rx="12.5" ry="12.5" style="stroke:#181818;stroke-width:0.5;" width="89.5859" x="7.9565" y="343.2969"/><line style="stroke:#181818;stroke-width:0.5;" x1="7.9565" x2="97.5425" y1="369.5938" y2="369.5938"/><text fill="#000000" font-family="sans-serif" font-size="14" lengthAdjust="spacing" textLength="23.4609" x="41.019" y="361.292">ssh</text><text fill="#000000" font-family="sans-serif" font-size="12" lengthAdjust="spacing" textLength="69.5859" x="12.9565" y="385.7324">/usr/bin/ssh</text></g><g id="setup_filesystems"><rect fill="#F1F1F1" height="50.2656" rx="12.5" ry="12.5" style="stroke:#181818;stroke-width:0.5;" width="171.916" x="7.9565" y="563.2969"/><line style="stroke:#181818;stroke-width:0.5;" x1="7.9565" x2="179.8726" y1="589.5938" y2="589.5938"/><text fill="#000000" font-family="sans-serif" font-size="14" lengthAdjust="spacing" textLength="125.3848" x="31.2222" y="581.292">setup_filesystems</text><text fill="#000000" font-family="sans-serif" font-size="12" lengthAdjust="spacing" textLength="151.916" x="12.9565" y="605.7324">/etc/setup_filesystems.sh</text></g><g id="eth_driver"><rect fill="#F1F1F1" height="50.2656" rx="12.5" ry="12.5" style="stroke:#181818;stroke-width:0.5;" width="116.791" x="215.4565" y="563.2969"/><line style="stroke:#181818;stroke-width:0.5;" x1="215.4565" x2="332.2476" y1="589.5938" y2="589.5938"/><text fill="#000000" font-family="sans-serif" font-size="14" lengthAdjust="spacing" textLength="71.1621" x="238.271" y="581.292">eth_driver</text><text fill="#000000" font-family="sans-serif" font-size="12" lengthAdjust="spacing" textLength="96.791" x="220.4565" y="605.7324">/bin/net-dev-eth</text></g><g id="filesystem"><rect fill="#F1F1F1" height="50.2656" rx="12.5" ry="12.5" style="stroke:#181818;stroke-width:0.5;" width="115.1797" x="36.4565" y="673.2969"/><line style="stroke:#181818;stroke-width:0.5;" x1="36.4565" x2="151.6362" y1="699.5938" y2="699.5938"/><text fill="#000000" font-family="sans-serif" font-size="14" lengthAdjust="spacing" textLength="71.9346" x="58.0791" y="691.292">filesystem</text><text fill="#000000" font-family="sans-serif" font-size="12" lengthAdjust="spacing" textLength="95.1797" x="41.4565" y="715.7324">/bin/net-dev-ufs</text></g><g id="flash_driver"><rect fill="#F1F1F1" height="50.2656" rx="12.5" ry="12.5" style="stroke:#181818;stroke-width:0.5;" width="110.4336" x="38.9565" y="783.2969"/><line style="stroke:#181818;stroke-width:0.5;" x1="38.9565" x2="149.3901" y1="809.5938" y2="809.5938"/><text fill="#000000" font-family="sans-serif" font-size="14" lengthAdjust="spacing" textLength="81.751" x="53.2979" y="801.292">flash_driver</text><text fill="#000000" font-family="sans-serif" font-size="12" lengthAdjust="spacing" textLength="90.4336" x="43.9565" y="825.7324">/bin/dev-emmc</text></g><ellipse cx="156.9565" cy="53.2969" fill="#222222" rx="10" ry="10" style="stroke:#222222;stroke-width:1;"/><g id="networking"><rect fill="#F1F1F1" height="50" rx="12.5" ry="12.5" style="stroke:#181818;stroke-width:0.5;" width="98.5039" x="134.4565" y="453.2969"/><line style="stroke:#181818;stroke-width:0.5;" x1="134.4565" x2="232.9604" y1="479.5938" y2="479.5938"/><text fill="#000000" font-family="sans-serif" font-size="14" lengthAdjust="spacing" textLength="78.5039" x="144.4565" y="471.292">networking</text></g><!--link *start* to debug--><g id="link_*start*_debug"><path d="M149.8065,60.6869 C135.6765,73.3269 107.9696,98.1079 84.5696,119.0279 " fill="transparent" id="*start*-to-debug" style="stroke:#181818;stroke-width:1;"/><polygon fill="#181818" points="80.0965,123.0269,89.4721,120.0104,83.8241,119.6944,84.1401,114.0464,80.0965,123.0269" style="stroke:#181818;stroke-width:1;"/></g><!--link *start* to running--><!--link *start* to ready_for_shutdown--><!--link running to app1--><g id="link_running_app1"><path d="M156.9565,173.5369 C156.9565,191.3169 156.9565,209.3769 156.9565,227.1369 " fill="transparent" id="running-to-app1" style="stroke:#181818;stroke-width:1;"/><polygon fill="#181818" points="156.9565,233.1369,160.9565,224.1369,156.9565,228.1369,152.9565,224.1369,156.9565,233.1369" style="stroke:#181818;stroke-width:1;"/></g><!--link app1 to app2--><g id="link_app1_app2"><path d="M163.0165,283.5369 C167.4665,301.3169 172.0213,319.556 176.4613,337.316 " fill="transparent" id="app1-to-app2" style="stroke:#181818;stroke-width:1;"/><polygon fill="#181818" points="177.9165,343.1369,179.6143,333.4354,176.7039,338.2862,171.8532,335.3757,177.9165,343.1369" style="stroke:#181818;stroke-width:1;"/></g><!--link app2 to networking--><g id="link_app2_networking"><path d="M183.9565,393.5369 C183.9565,411.3169 183.9565,429.3769 183.9565,447.1369 " fill="transparent" id="app2-to-networking" style="stroke:#181818;stroke-width:1;"/><polygon fill="#181818" points="183.9565,453.1369,187.9565,444.1369,183.9565,448.1369,179.9565,444.1369,183.9565,453.1369" style="stroke:#181818;stroke-width:1;"/></g><!--link running to app3--><g id="link_running_app3"><path d="M187.4765,173.5369 C209.8765,191.3169 235.4674,211.6462 257.8374,229.4062 " fill="transparent" id="running-to-app3" style="stroke:#181818;stroke-width:1;"/><polygon fill="#181818" points="262.5365,233.1369,257.975,224.408,258.6206,230.0279,253.0007,230.6735,262.5365,233.1369" style="stroke:#181818;stroke-width:1;"/></g><!--link app3 to networking--><g id="link_app3_networking"><path d="M288.4565,283.6169 C282.6665,311.3269 271.0365,357.4269 251.9565,393.2969 C240.2365,415.3269 226.3937,432.7174 211.8937,448.5874 " fill="transparent" id="app3-to-networking" style="stroke:#181818;stroke-width:1;"/><polygon fill="#181818" points="207.8465,453.0169,216.8703,449.0707,211.2192,449.3256,210.9642,443.6745,207.8465,453.0169" style="stroke:#181818;stroke-width:1;"/></g><!--link debug to ssh--><g id="link_debug_ssh"><path d="M52.9565,173.4569 C52.9565,215.3669 52.9565,295.0469 52.9565,337.0269 " fill="transparent" id="debug-to-ssh" style="stroke:#181818;stroke-width:1;"/><polygon fill="#181818" points="52.9565,343.0269,56.9565,334.0269,52.9565,338.0269,48.9565,334.0269,52.9565,343.0269" style="stroke:#181818;stroke-width:1;"/></g><!--link ssh to networking--><g id="link_ssh_networking"><path d="M82.3565,393.5369 C103.9265,411.3169 128.4763,431.561 150.0263,449.321 " fill="transparent" id="ssh-to-networking" style="stroke:#181818;stroke-width:1;"/><polygon fill="#181818" points="154.6565,453.1369,150.2552,444.3262,150.798,449.957,145.1673,450.4998,154.6565,453.1369" style="stroke:#181818;stroke-width:1;"/></g><!--link networking to setup_filesystems--><g id="link_networking_setup_filesystems"><path d="M163.7565,503.5369 C148.9365,521.3169 132.7392,540.7688 117.9292,558.5288 " fill="transparent" id="networking-to-setup_filesystems" style="stroke:#181818;stroke-width:1;"/><polygon fill="#181818" points="114.0865,563.1369,122.9225,558.7866,117.2887,559.2968,116.7785,553.663,114.0865,563.1369" style="stroke:#181818;stroke-width:1;"/></g><!--link setup_filesystems to filesystem--><g id="link_setup_filesystems_filesystem"><path d="M93.9565,613.5369 C93.9565,631.3169 93.9565,649.3769 93.9565,667.1369 " fill="transparent" id="setup_filesystems-to-filesystem" style="stroke:#181818;stroke-width:1;"/><polygon fill="#181818" points="93.9565,673.1369,97.9565,664.1369,93.9565,668.1369,89.9565,664.1369,93.9565,673.1369" style="stroke:#181818;stroke-width:1;"/></g><!--link networking to eth_driver--><g id="link_networking_eth_driver"><path d="M204.1565,503.5369 C218.9765,521.3169 235.1739,540.7688 249.9839,558.5288 " fill="transparent" id="networking-to-eth_driver" style="stroke:#181818;stroke-width:1;"/><polygon fill="#181818" points="253.8265,563.1369,251.1346,553.663,250.6243,559.2968,244.9906,558.7866,253.8265,563.1369" style="stroke:#181818;stroke-width:1;"/></g><!--link filesystem to flash_driver--><g id="link_filesystem_flash_driver"><path d="M93.9565,723.5369 C93.9565,741.3169 93.9565,759.3769 93.9565,777.1369 " fill="transparent" id="filesystem-to-flash_driver" style="stroke:#181818;stroke-width:1;"/><polygon fill="#181818" points="93.9565,783.1369,97.9565,774.1369,93.9565,778.1369,89.9565,774.1369,93.9565,783.1369" style="stroke:#181818;stroke-width:1;"/></g><rect fill="#DDDDDD" height="62.8906" id="_legend" rx="7.5" ry="7.5" style="stroke:#000000;stroke-width:1;" width="360.5879" x="12" y="850.5625"/><text fill="#000000" font-family="sans-serif" font-size="14" lengthAdjust="spacing" textLength="36.5518" x="17" y="870.5576">Color</text><text fill="#000000" font-family="sans-serif" font-size="14" lengthAdjust="spacing" textLength="34.3369" x="58.002" y="870.5576">Type</text><rect fill="#ADD8E6" height="16.2969" style="stroke:transparent;stroke-width:1;" width="36.5518" x="17" y="873.8594"/><text fill="#000000" font-family="sans-serif" font-size="14" lengthAdjust="spacing" textLength="4.4502" x="17" y="886.8545">&#160;</text><text fill="#000000" font-family="sans-serif" font-size="14" lengthAdjust="spacing" textLength="309.5859" x="58.002" y="886.8545">Run States provided by the ControlInterface</text><rect fill="#F5F5F5" height="16.2969" style="stroke:transparent;stroke-width:1;" width="36.5518" x="17" y="890.1563"/><text fill="#000000" font-family="sans-serif" font-size="14" lengthAdjust="spacing" textLength="4.4502" x="17" y="903.1514">&#160;</text><text fill="#000000" font-family="sans-serif" font-size="14" lengthAdjust="spacing" textLength="88.5732" x="58.002" y="903.1514">Components</text><line style="stroke:#000000;stroke-width:1;" x1="17" x2="367.5879" y1="857.5625" y2="857.5625"/><line style="stroke:#000000;stroke-width:1;" x1="17" x2="367.5879" y1="873.8594" y2="873.8594"/><line style="stroke:#000000;stroke-width:1;" x1="17" x2="367.5879" y1="890.1563" y2="890.1563"/><line style="stroke:#000000;stroke-width:1;" x1="17" x2="367.5879" y1="906.4531" y2="906.4531"/><line style="stroke:#000000;stroke-width:1;" x1="17" x2="17" y1="857.5625" y2="906.4531"/><line style="stroke:#000000;stroke-width:1;" x1="53.5518" x2="53.5518" y1="857.5625" y2="906.4531"/><line style="stroke:#000000;stroke-width:1;" x1="367.5879" x2="367.5879" y1="857.5625" y2="906.4531"/><!--SRC=[RLEnReCm4Dtp5ITrgqIZmbPLMTAbQrEfGnGXm0TOCRPb7ucG-FZQ4682OK7lthl7wTq1G9m4mXTgb0nbqK6UMMGWU8b5LpYgoMHMOOEIDXi0InaXCCpR2bu4hshAHOjtmhHISlcSmenrQQbCQkkMcBhAkUekoxH-_u2jqhJDkTnwEEVYHowUSyaZbmHJQsl7jTOCd4E1GMfrMdA1jhE4ZNKwf6Axgh_Dcf3gb1b-GUFKtb4YHGmlaIFkej2x4BMb3IAHsONNuDCqXP_- -7g2ADgDUK_uM7FcLdLozLlSpvXLsXjlEEt7czwYzQy9noEE1-pclIfp7lqNZSaeJ9P2LnvlmzTlETjwRHV0g5ocxVkMjK4PyDebhCLnGJZspOBsKmgitC63yGVee7_wlHBAzF3RQOH-Adw68ztryDDAEFZDMT16NJXplqhU0TK8UoN9AF4j2KsP5JXp-AivuQ5HPs-nLurMqlrETlY8csASvHy0]--></g></svg>