<svg xmlns="http://www.w3.org/2000/svg" xmlns:xlink="http://www.w3.org/1999/xlink" contentStyleType="text/css" data-diagram-type="CLASS" height="235px" preserveAspectRatio="none" style="width:681px;height:235px;background:#FFFFFF;" version="1.1" viewBox="0 0 681 235" width="681px" zoomAndPan="magnify"><defs/><g><!--class AdapterInterface--><g id="elem_AdapterInterface"><rect codeLine="1" fill="#F1F1F1" height="80.5938" id="AdapterInterface" rx="2.5" ry="2.5" style="stroke:#181818;stroke-width:0.5;" width="199.1475" x="241" y="7"/><ellipse cx="277.9063" cy="23" fill="#A9DCDF" rx="11" ry="11" style="stroke:#181818;stroke-width:1;"/><path d="M278.0157,18.3438 L276.8594,23.4219 L279.1875,23.4219 L278.0157,18.3438 Z M276.5313,16.1094 L279.5157,16.1094 L282.875,28.5 L280.4219,28.5 L279.6563,25.4375 L276.375,25.4375 L275.625,28.5 L273.1875,28.5 L276.5313,16.1094 Z " fill="#000000"/><text fill="#000000" font-family="sans-serif" font-size="14" font-style="italic" lengthAdjust="spacing" textLength="118.4668" x="296.7744" y="27.8467">AdapterInterface</text><line style="stroke:#181818;stroke-width:0.5;" x1="242" x2="439.1475" y1="39" y2="39"/><line style="stroke:#181818;stroke-width:0.5;" x1="242" x2="439.1475" y1="47" y2="47"/><ellipse cx="252" cy="60.6484" fill="#84BE84" rx="3" ry="3" style="stroke:#038048;stroke-width:1;"/><text fill="#000000" font-family="sans-serif" font-size="14" lengthAdjust="spacing" textLength="153.7813" x="261" y="63.9951">loadModel(path): bool</text><ellipse cx="252" cy="76.9453" fill="#84BE84" rx="3" ry="3" style="stroke:#038048;stroke-width:1;"/><text fill="#000000" font-family="sans-serif" font-size="14" lengthAdjust="spacing" textLength="173.1475" x="261" y="80.292">infer(input, output): bool</text></g><!--class ONNXAdapter--><g id="elem_ONNXAdapter"><rect codeLine="6" fill="#F1F1F1" height="80.5938" id="ONNXAdapter" rx="2.5" ry="2.5" style="stroke:#181818;stroke-width:0.5;" width="199.1475" x="7" y="148"/><ellipse cx="53.6519" cy="164" fill="#ADD1B2" rx="11" ry="11" style="stroke:#181818;stroke-width:1;"/><path d="M56.6206,169.6406 Q56.0425,169.9375 55.4019,170.0781 Q54.7612,170.2344 54.0581,170.2344 Q51.5581,170.2344 50.23,168.5938 Q48.9175,166.9375 48.9175,163.8125 Q48.9175,160.6875 50.23,159.0313 Q51.5581,157.375 54.0581,157.375 Q54.7612,157.375 55.4019,157.5313 Q56.0581,157.6875 56.6206,157.9844 L56.6206,160.7031 Q55.9956,160.125 55.4019,159.8594 Q54.8081,159.5781 54.1831,159.5781 Q52.8394,159.5781 52.1519,160.6563 Q51.4644,161.7188 51.4644,163.8125 Q51.4644,165.9063 52.1519,166.9844 Q52.8394,168.0469 54.1831,168.0469 Q54.8081,168.0469 55.4019,167.7813 Q55.9956,167.5 56.6206,166.9219 L56.6206,169.6406 Z " fill="#000000"/><text fill="#000000" font-family="sans-serif" font-size="14" lengthAdjust="spacing" textLength="97.3438" x="74.1519" y="168.8467">ONNXAdapter</text><line style="stroke:#181818;stroke-width:0.5;" x1="8" x2="205.1475" y1="180" y2="180"/><line style="stroke:#181818;stroke-width:0.5;" x1="8" x2="205.1475" y1="188" y2="188"/><ellipse cx="18" cy="201.6484" fill="#84BE84" rx="3" ry="3" style="stroke:#038048;stroke-width:1;"/><text fill="#000000" font-family="sans-serif" font-size="14" lengthAdjust="spacing" textLength="153.7813" x="27" y="204.9951">loadModel(path): bool</text><ellipse cx="18" cy="217.9453" fill="#84BE84" rx="3" ry="3" style="stroke:#038048;stroke-width:1;"/><text fill="#000000" font-family="sans-serif" font-size="14" lengthAdjust="spacing" textLength="173.1475" x="27" y="221.292">infer(input, output): bool</text></g><!--class TRTAdapter--><g id="elem_TRTAdapter"><rect codeLine="11" fill="#F1F1F1" height="80.5938" id="TRTAdapter" rx="2.5" ry="2.5" style="stroke:#181818;stroke-width:0.5;" width="199.1475" x="241" y="148"/><ellipse cx="295.0142" cy="164" fill="#ADD1B2" rx="11" ry="11" style="stroke:#181818;stroke-width:1;"/><path d="M297.9829,169.6406 Q297.4048,169.9375 296.7642,170.0781 Q296.1235,170.2344 295.4204,170.2344 Q292.9204,170.2344 291.5923,168.5938 Q290.2798,166.9375 290.2798,163.8125 Q290.2798,160.6875 291.5923,159.0313 Q292.9204,157.375 295.4204,157.375 Q296.1235,157.375 296.7642,157.5313 Q297.4204,157.6875 297.9829,157.9844 L297.9829,160.7031 Q297.3579,160.125 296.7642,159.8594 Q296.1704,159.5781 295.5454,159.5781 Q294.2017,159.5781 293.5142,160.6563 Q292.8267,161.7188 292.8267,163.8125 Q292.8267,165.9063 293.5142,166.9844 Q294.2017,168.0469 295.5454,168.0469 Q296.1704,168.0469 296.7642,167.7813 Q297.3579,167.5 297.9829,166.9219 L297.9829,169.6406 Z " fill="#000000"/><text fill="#000000" font-family="sans-serif" font-size="14" lengthAdjust="spacing" textLength="82.6191" x="315.5142" y="168.8467">TRTAdapter</text><line style="stroke:#181818;stroke-width:0.5;" x1="242" x2="439.1475" y1="180" y2="180"/><line style="stroke:#181818;stroke-width:0.5;" x1="242" x2="439.1475" y1="188" y2="188"/><ellipse cx="252" cy="201.6484" fill="#84BE84" rx="3" ry="3" style="stroke:#038048;stroke-width:1;"/><text fill="#000000" font-family="sans-serif" font-size="14" lengthAdjust="spacing" textLength="153.7813" x="261" y="204.9951">loadModel(path): bool</text><ellipse cx="252" cy="217.9453" fill="#84BE84" rx="3" ry="3" style="stroke:#038048;stroke-width:1;"/><text fill="#000000" font-family="sans-serif" font-size="14" lengthAdjust="spacing" textLength="173.1475" x="261" y="221.292">infer(input, output): bool</text></g><!--class MockAdapter--><g id="elem_MockAdapter"><rect codeLine="16" fill="#F1F1F1" height="80.5938" id="MockAdapter" rx="2.5" ry="2.5" style="stroke:#181818;stroke-width:0.5;" width="199.1475" x="475" y="148"/><ellipse cx="524.2051" cy="164" fill="#ADD1B2" rx="11" ry="11" style="stroke:#181818;stroke-width:1;"/><path d="M527.1738,169.6406 Q526.5957,169.9375 525.9551,170.0781 Q525.3145,170.2344 524.6113,170.2344 Q522.1113,170.2344 520.7832,168.5938 Q519.4707,166.9375 519.4707,163.8125 Q519.4707,160.6875 520.7832,159.0313 Q522.1113,157.375 524.6113,157.375 Q525.3145,157.375 525.9551,157.5313 Q526.6113,157.6875 527.1738,157.9844 L527.1738,160.7031 Q526.5488,160.125 525.9551,159.8594 Q525.3613,159.5781 524.7363,159.5781 Q523.3926,159.5781 522.7051,160.6563 Q522.0176,161.7188 522.0176,163.8125 Q522.0176,165.9063 522.7051,166.9844 Q523.3926,168.0469 524.7363,168.0469 Q525.3613,168.0469 525.9551,167.7813 Q526.5488,167.5 527.1738,166.9219 L527.1738,169.6406 Z " fill="#000000"/><text fill="#000000" font-family="sans-serif" font-size="14" lengthAdjust="spacing" textLength="92.2373" x="544.7051" y="168.8467">MockAdapter</text><line style="stroke:#181818;stroke-width:0.5;" x1="476" x2="673.1475" y1="180" y2="180"/><line style="stroke:#181818;stroke-width:0.5;" x1="476" x2="673.1475" y1="188" y2="188"/><ellipse cx="486" cy="201.6484" fill="#84BE84" rx="3" ry="3" style="stroke:#038048;stroke-width:1;"/><text fill="#000000" font-family="sans-serif" font-size="14" lengthAdjust="spacing" textLength="153.7813" x="495" y="204.9951">loadModel(path): bool</text><ellipse cx="486" cy="217.9453" fill="#84BE84" rx="3" ry="3" style="stroke:#038048;stroke-width:1;"/><text fill="#000000" font-family="sans-serif" font-size="14" lengthAdjust="spacing" textLength="173.1475" x="495" y="221.292">infer(input, output): bool</text></g><!--reverse link AdapterInterface to ONNXAdapter--><g id="link_AdapterInterface_ONNXAdapter"><path codeLine="21" d="M258.2823,97.3392 C226.8023,116.0292 204.82,129.1 173.33,147.8 " fill="transparent" id="AdapterInterface-backto-ONNXAdapter" style="stroke:#181818;stroke-width:1;"/><polygon fill="transparent" points="273.76,88.15,255.2193,92.18,261.3454,102.4985,273.76,88.15" style="stroke:#181818;stroke-width:1;"/></g><!--reverse link AdapterInterface to TRTAdapter--><g id="link_AdapterInterface_TRTAdapter"><path codeLine="22" d="M340.5,106.33 C340.5,124.94 340.5,129.05 340.5,147.66 " fill="transparent" id="AdapterInterface-backto-TRTAdapter" style="stroke:#181818;stroke-width:1;"/><polygon fill="transparent" points="340.5,88.33,334.5,106.33,346.5,106.33,340.5,88.33" style="stroke:#181818;stroke-width:1;"/></g><!--reverse link AdapterInterface to MockAdapter--><g id="link_AdapterInterface_MockAdapter"><path codeLine="23" d="M422.7177,97.3392 C454.1977,116.0292 476.18,129.1 507.67,147.8 " fill="transparent" id="AdapterInterface-backto-MockAdapter" style="stroke:#181818;stroke-width:1;"/><polygon fill="transparent" points="407.24,88.15,419.6546,102.4985,425.7807,92.18,407.24,88.15" style="stroke:#181818;stroke-width:1;"/></g><!--SRC=[IqmgBYbAJ2vHICv9B2vMS4n9B2X9BVBC0n9fYScf2jLS2WeAsZdvYIc- -IcfEHe5YIKPcbOAIVdvEM2PpBoqr2ADpBo2qX8TXVpI4Y0Dawxbue8Owk_d5m4rc2hcXGI5KDCut_paREgOXn5wDZMwkiZUnw42uI4S2f2S2000]--></g></svg>