<svg xmlns="http://www.w3.org/2000/svg" xmlns:xlink="http://www.w3.org/1999/xlink" contentStyleType="text/css" data-diagram-type="CLASS" height="259px" preserveAspectRatio="none" style="width:579px;height:259px;background:#FFFFFF;" version="1.1" viewBox="0 0 579 259" width="579px" zoomAndPan="magnify"><defs/><g><g id="elem_A"><rect fill="#F1F1F1" height="36.2969" rx="2.5" ry="2.5" style="stroke:#181818;stroke-width:0.5;" width="160.5488" x="217.5" y="7"/><text fill="#000000" font-family="sans-serif" font-size="14" lengthAdjust="spacing" textLength="146.5488" x="224.5" y="21.9951">CMake Configuration</text><line style="stroke:#181818;stroke-width:0.5;" x1="218.5" x2="377.0488" y1="27.2969" y2="27.2969"/></g><g id="elem_B"><rect fill="#F1F1F1" height="36.2969" rx="2.5" ry="2.5" style="stroke:#181818;stroke-width:0.5;" width="290.4453" x="153" y="104"/><text fill="#000000" font-family="sans-serif" font-size="14" lengthAdjust="spacing" textLength="276.4453" x="160" y="118.9951">USE_ONNX / USE_MOCK_TRT / USE_TRT</text><line style="stroke:#181818;stroke-width:0.5;" x1="154" x2="442.4453" y1="124.2969" y2="124.2969"/></g><g id="elem_C"><rect fill="#F1F1F1" height="36.2969" rx="2.5" ry="2.5" style="stroke:#181818;stroke-width:0.5;" width="172.1357" x="7" y="217"/><text fill="#000000" font-family="sans-serif" font-size="14" lengthAdjust="spacing" textLength="158.1357" x="14" y="231.9951">ONNXAdapter enabled</text><line style="stroke:#181818;stroke-width:0.5;" x1="8" x2="178.1357" y1="237.2969" y2="237.2969"/></g><g id="elem_D"><rect fill="#F1F1F1" height="36.2969" rx="2.5" ry="2.5" style="stroke:#181818;stroke-width:0.5;" width="167.0293" x="214.5" y="217"/><text fill="#000000" font-family="sans-serif" font-size="14" lengthAdjust="spacing" textLength="153.0293" x="221.5" y="231.9951">MockAdapter enabled</text><line style="stroke:#181818;stroke-width:0.5;" x1="215.5" x2="380.5293" y1="237.2969" y2="237.2969"/></g><g id="elem_E"><rect fill="#F1F1F1" height="36.2969" rx="2.5" ry="2.5" style="stroke:#181818;stroke-width:0.5;" width="157.4111" x="416.5" y="217"/><text fill="#000000" font-family="sans-serif" font-size="14" lengthAdjust="spacing" textLength="143.4111" x="423.5" y="231.9951">TRTAdapter enabled</text><line style="stroke:#181818;stroke-width:0.5;" x1="417.5" x2="572.9111" y1="237.2969" y2="237.2969"/></g><!--link A to B--><g id="link_A_B"><path codeLine="7" d="M298,43.42 C298,60.57 298,80.58 298,97.69 " fill="transparent" id="A-to-B" style="stroke:#181818;stroke-width:1;"/><polygon fill="#181818" points="298,103.69,302,94.69,298,98.69,294,94.69,298,103.69" style="stroke:#181818;stroke-width:1;"/></g><!--link B to C--><g id="link_B_C"><path codeLine="8" d="M266.42,140.1 C227.89,160.96 168.4361,193.1529 129.8961,214.0229 " fill="transparent" id="B-to-C" style="stroke:#181818;stroke-width:1;"/><polygon fill="#181818" points="124.62,216.88,134.4389,216.1118,129.0167,214.4991,130.6294,209.077,124.62,216.88" style="stroke:#181818;stroke-width:1;"/><text fill="#000000" font-family="sans-serif" font-size="13" lengthAdjust="spacing" textLength="71.0684" x="209" y="183.0669">USE_ONNX</text></g><!--link B to D--><g id="link_B_D"><path codeLine="9" d="M298,140.34 C298,161.2 298,189.98 298,210.78 " fill="transparent" id="B-to-D" style="stroke:#181818;stroke-width:1;"/><polygon fill="#181818" points="298,216.78,302,207.78,298,211.78,294,207.78,298,216.78" style="stroke:#181818;stroke-width:1;"/><text fill="#000000" font-family="sans-serif" font-size="13" lengthAdjust="spacing" textLength="102.9463" x="299" y="183.0669">USE_MOCK_TRT</text></g><!--link B to E--><g id="link_B_E"><path codeLine="10" d="M345.83,140.04 C366.16,148.05 389.79,158.39 410,170 C433.87,183.71 454.1407,199.2989 470.7607,213.1489 " fill="transparent" id="B-to-E" style="stroke:#181818;stroke-width:1;"/><polygon fill="#181818" points="475.37,216.99,471.0167,208.1555,471.5289,213.7891,465.8953,214.3012,475.37,216.99" style="stroke:#181818;stroke-width:1;"/><text fill="#000000" font-family="sans-serif" font-size="13" lengthAdjust="spacing" textLength="57.3955" x="435" y="183.0669">USE_TRT</text></g><!--SRC=[oq_AIaqkKL1ozatCJbLmpizBoqmlBKeioSpFKr98B5PmvCg7gWWDTettz_EBKD1N035z_PszuqE2Gg1S80kitWck7gJMCIMne2IrI24rBp4f9pK5hC8Phi8tFpaRcmeNk0gWgTWKk79nEIhewje1RNC2qyuALWemzq65NA12C7T2XLsXma0H0000]--></g></svg>