<?xml version="1.0" encoding="UTF-8" standalone="no"?>
<!DOCTYPE svg PUBLIC "-//W3C//DTD SVG 1.1//EN"
 "http://www.w3.org/Graphics/SVG/1.1/DTD/svg11.dtd">
<!-- Generated by graphviz version 2.43.0 (0)
 -->
<!-- Title: mygraph Pages: 1 -->
<svg width="1036pt" height="116pt"
 viewBox="0.00 0.00 1035.50 116.00" xmlns="http://www.w3.org/2000/svg" xmlns:xlink="http://www.w3.org/1999/xlink">
<g id="graph0" class="graph" transform="scale(1 1) rotate(0) translate(4 112)">
<title>mygraph</title>
<polygon fill="white" stroke="transparent" points="-4,4 -4,-112 1031.5,-112 1031.5,4 -4,4"/>
<!-- &lt;root&gt; -->
<g id="node1" class="node">
<title>&lt;root&gt;</title>
<polygon fill="none" stroke="black" points="632,-108 390,-108 390,-72 632,-72 632,-108"/>
<text text-anchor="middle" x="511" y="-86.3" font-family="Times,serif" font-size="14.00">&lt;root&gt; (score_platform@0.4.0)</text>
</g>
<!-- score_docs_as_code@1.4.0 -->
<g id="node2" class="node">
<title>score_docs_as_code@1.4.0</title>
<polygon fill="none" stroke="black" points="206,-36 0,-36 0,0 206,0 206,-36"/>
<text text-anchor="middle" x="103" y="-14.3" font-family="Times,serif" font-size="14.00">score_docs_as_code@1.4.0</text>
</g>
<!-- &lt;root&gt;&#45;&gt;score_docs_as_code@1.4.0 -->
<g id="edge1" class="edge">
<title>&lt;root&gt;&#45;&gt;score_docs_as_code@1.4.0</title>
<path fill="none" stroke="black" d="M411.71,-71.97C351.5,-61.63 274.58,-48.44 212.59,-37.8"/>
<polygon fill="black" stroke="black" points="212.83,-34.29 202.38,-36.05 211.64,-41.19 212.83,-34.29"/>
</g>
<!-- score_process@1.2.1 -->
<g id="node3" class="node">
<title>score_process@1.2.1</title>
<polygon fill="none" stroke="black" points="391.5,-36 224.5,-36 224.5,0 391.5,0 391.5,-36"/>
<text text-anchor="middle" x="308" y="-14.3" font-family="Times,serif" font-size="14.00">score_process@1.2.1</text>
</g>
<!-- &lt;root&gt;&#45;&gt;score_process@1.2.1 -->
<g id="edge2" class="edge">
<title>&lt;root&gt;&#45;&gt;score_process@1.2.1</title>
<path fill="none" stroke="black" d="M461.6,-71.97C433.11,-62.14 397.11,-49.73 367.13,-39.39"/>
<polygon fill="black" stroke="black" points="368.22,-36.06 357.62,-36.11 365.93,-42.68 368.22,-36.06"/>
</g>
<!-- score_toolchains_gcc@0.4 -->
<g id="node4" class="node">
<title>score_toolchains_gcc@0.4</title>
<polygon fill="none" stroke="black" points="612,-36 410,-36 410,0 612,0 612,-36"/>
<text text-anchor="middle" x="511" y="-14.3" font-family="Times,serif" font-size="14.00">score_toolchains_gcc@0.4</text>
</g>
<!-- &lt;root&gt;&#45;&gt;score_toolchains_gcc@0.4 -->
<g id="edge3" class="edge">
<title>&lt;root&gt;&#45;&gt;score_toolchains_gcc@0.4</title>
<path fill="none" stroke="black" d="M511,-71.7C511,-63.98 511,-54.71 511,-46.11"/>
<polygon fill="black" stroke="black" points="514.5,-46.1 511,-36.1 507.5,-46.1 514.5,-46.1"/>
</g>
<!-- score_toolchains_qnx@0.0.2 -->
<g id="node5" class="node">
<title>score_toolchains_qnx@0.0.2</title>
<polygon fill="none" stroke="black" points="848,-36 630,-36 630,0 848,0 848,-36"/>
<text text-anchor="middle" x="739" y="-14.3" font-family="Times,serif" font-size="14.00">score_toolchains_qnx@0.0.2</text>
</g>
<!-- &lt;root&gt;&#45;&gt;score_toolchains_qnx@0.0.2 -->
<g id="edge4" class="edge">
<title>&lt;root&gt;&#45;&gt;score_toolchains_qnx@0.0.2</title>
<path fill="none" stroke="black" d="M566.48,-71.97C598.76,-62.06 639.61,-49.51 673.46,-39.12"/>
<polygon fill="black" stroke="black" points="674.74,-42.39 683.27,-36.11 672.68,-35.7 674.74,-42.39"/>
</g>
<!-- score_tooling@1.0.2 -->
<g id="node6" class="node">
<title>score_tooling@1.0.2</title>
<polygon fill="none" stroke="black" points="1027.5,-36 866.5,-36 866.5,0 1027.5,0 1027.5,-36"/>
<text text-anchor="middle" x="947" y="-14.3" font-family="Times,serif" font-size="14.00">score_tooling@1.0.2</text>
</g>
<!-- &lt;root&gt;&#45;&gt;score_tooling@1.0.2 -->
<g id="edge5" class="edge">
<title>&lt;root&gt;&#45;&gt;score_tooling@1.0.2</title>
<path fill="none" stroke="black" d="M628.87,-71.98C693.24,-62.44 774.58,-49.97 856.13,-36.12"/>
<polygon fill="black" stroke="black" points="856.8,-39.56 866.07,-34.42 855.62,-32.66 856.8,-39.56"/>
</g>
</g>
</svg>
