<svg xmlns="http://www.w3.org/2000/svg" xmlns:xlink="http://www.w3.org/1999/xlink" contentStyleType="text/css" data-diagram-type="SEQUENCE" height="478px" preserveAspectRatio="none" style="width:487px;height:478px;background:#FFFFFF;" version="1.1" viewBox="0 0 487 478" width="487px" zoomAndPan="magnify"><title>Alive Monitoring</title><defs/><g><text fill="#000000" font-family="sans-serif" font-size="14" font-weight="bold" lengthAdjust="spacing" textLength="130.2451" x="179.8943" y="27.9951">Alive Monitoring</text><g><title>Launch Manager</title><rect fill="#FFFFFF" height="341.4609" style="stroke:#181818;stroke-width:1;" width="10" x="80.2559" y="83.5938"/></g><g><title>Application</title><rect fill="#FFFFFF" height="278.1953" style="stroke:#181818;stroke-width:1;" width="10" x="419.9219" y="146.8594"/></g><rect fill="transparent" height="46.2656" style="stroke:#000000;stroke-width:1.5;" width="471.0337" x="10" y="255.2578"/><rect fill="transparent" height="46.2656" style="stroke:#000000;stroke-width:1.5;" width="471.0337" x="10" y="350.6563"/><g><title>Launch Manager</title><rect fill="transparent" height="369.4609" width="8" x="81.2559" y="73.5938"/><line style="stroke:#181818;stroke-width:0.5;stroke-dasharray:5.0,5.0;" x1="85" x2="85" y1="73.5938" y2="443.0547"/></g><g><title>Application</title><rect fill="transparent" height="369.4609" width="8" x="420.9219" y="73.5938"/><line style="stroke:#181818;stroke-width:0.5;stroke-dasharray:5.0,5.0;" x1="424.8101" x2="424.8101" y1="73.5938" y2="443.0547"/></g><rect fill="#E2E2F0" height="30.2969" rx="2.5" ry="2.5" style="stroke:#181818;stroke-width:0.5;" width="130.5117" x="20" y="42.2969"/><text fill="#000000" font-family="sans-serif" font-size="14" lengthAdjust="spacing" textLength="116.5117" x="27" y="62.292">Launch Manager</text><rect fill="#E2E2F0" height="30.2969" rx="2.5" ry="2.5" style="stroke:#181818;stroke-width:0.5;" width="130.5117" x="20" y="442.0547"/><text fill="#000000" font-family="sans-serif" font-size="14" lengthAdjust="spacing" textLength="116.5117" x="27" y="462.0498">Launch Manager</text><rect fill="#E2E2F0" height="30.2969" rx="2.5" ry="2.5" style="stroke:#181818;stroke-width:0.5;" width="92.2236" x="378.8101" y="42.2969"/><text fill="#000000" font-family="sans-serif" font-size="14" lengthAdjust="spacing" textLength="78.2236" x="385.8101" y="62.292">Application</text><rect fill="#E2E2F0" height="30.2969" rx="2.5" ry="2.5" style="stroke:#181818;stroke-width:0.5;" width="92.2236" x="378.8101" y="442.0547"/><text fill="#000000" font-family="sans-serif" font-size="14" lengthAdjust="spacing" textLength="78.2236" x="385.8101" y="462.0498">Application</text><g><title>Launch Manager</title><rect fill="#FFFFFF" height="341.4609" style="stroke:#181818;stroke-width:1;" width="10" x="80.2559" y="83.5938"/></g><g><title>Application</title><rect fill="#FFFFFF" height="278.1953" style="stroke:#181818;stroke-width:1;" width="10" x="419.9219" y="146.8594"/></g><line style="stroke:#181818;stroke-width:1;stroke-dasharray:2.0,2.0;" x1="90.2559" x2="132.2559" y1="104.7266" y2="104.7266"/><line style="stroke:#181818;stroke-width:1;stroke-dasharray:2.0,2.0;" x1="132.2559" x2="132.2559" y1="104.7266" y2="117.7266"/><line style="stroke:#181818;stroke-width:1;stroke-dasharray:2.0,2.0;" x1="91.2559" x2="132.2559" y1="117.7266" y2="117.7266"/><polygon fill="#181818" points="101.2559,113.7266,91.2559,117.7266,101.2559,121.7266,97.2559,117.7266" style="stroke:#181818;stroke-width:1;"/><text fill="#000000" font-family="sans-serif" font-size="13" font-weight="bold" lengthAdjust="spacing" textLength="39.019" x="97.2559" y="99.6606">[001]</text><text fill="#000000" font-family="sans-serif" font-size="13" lengthAdjust="spacing" textLength="126.6992" x="140.2749" y="99.6606">parse configuration</text><polygon fill="#181818" points="407.9219,142.8594,417.9219,146.8594,407.9219,150.8594,411.9219,146.8594" style="stroke:#181818;stroke-width:1;"/><line style="stroke:#181818;stroke-width:1;stroke-dasharray:2.0,2.0;" x1="90.2559" x2="413.9219" y1="146.8594" y2="146.8594"/><text fill="#000000" font-family="sans-serif" font-size="13" font-weight="bold" lengthAdjust="spacing" textLength="39.019" x="97.2559" y="141.7935">[002]</text><text fill="#000000" font-family="sans-serif" font-size="13" lengthAdjust="spacing" textLength="25.4033" x="140.2749" y="141.7935">fork</text><polygon fill="#181818" points="101.2559,171.9922,91.2559,175.9922,101.2559,179.9922,97.2559,175.9922" style="stroke:#181818;stroke-width:1;"/><line style="stroke:#181818;stroke-width:1;" x1="95.2559" x2="418.9219" y1="175.9922" y2="175.9922"/><text fill="#000000" font-family="sans-serif" font-size="13" font-weight="bold" lengthAdjust="spacing" textLength="39.019" x="107.2559" y="170.9263">[003]</text><text fill="#000000" font-family="sans-serif" font-size="13" lengthAdjust="spacing" textLength="262.647" x="150.2749" y="170.9263">Register for alive notifications (callback)</text><polygon fill="#181818" points="407.9219,201.125,417.9219,205.125,407.9219,209.125,411.9219,205.125" style="stroke:#181818;stroke-width:1;"/><line style="stroke:#181818;stroke-width:1;stroke-dasharray:2.0,2.0;" x1="90.2559" x2="413.9219" y1="205.125" y2="205.125"/><text fill="#000000" font-family="sans-serif" font-size="13" font-weight="bold" lengthAdjust="spacing" textLength="39.019" x="97.2559" y="200.0591">[004]</text><text fill="#000000" font-family="sans-serif" font-size="13" lengthAdjust="spacing" textLength="83.5923" x="140.2749" y="200.0591">Return value</text><path d="M32,218.125 L32,243.125 L478,243.125 L478,228.125 L468,218.125 L32,218.125 " fill="#FEFFDD" style="stroke:#181818;stroke-width:0.5;"/><path d="M468,218.125 L468,228.125 L478,228.125 L468,218.125 " fill="#FEFFDD" style="stroke:#181818;stroke-width:0.5;"/><text fill="#000000" font-family="sans-serif" font-size="13" lengthAdjust="spacing" textLength="176.0649" x="162.4844" y="235.1919">Cyclicly report health state</text><path d="M10,255.2578 L86.624,255.2578 L86.624,262.3906 L76.624,272.3906 L10,272.3906 L10,255.2578 " fill="#EEEEEE" style="stroke:#000000;stroke-width:1.5;"/><rect fill="transparent" height="46.2656" style="stroke:#000000;stroke-width:1.5;" width="471.0337" x="10" y="255.2578"/><text fill="#000000" font-family="sans-serif" font-size="13" font-weight="bold" lengthAdjust="spacing" textLength="31.624" x="25" y="268.3247">loop</text><text fill="#000000" font-family="sans-serif" font-size="11" font-weight="bold" lengthAdjust="spacing" textLength="134.9595" x="101.624" y="267.4683">[health_status == ok]</text><polygon fill="#181818" points="101.2559,289.5234,91.2559,293.5234,101.2559,297.5234,97.2559,293.5234" style="stroke:#181818;stroke-width:1;"/><line style="stroke:#181818;stroke-width:1;stroke-dasharray:2.0,2.0;" x1="95.2559" x2="418.9219" y1="293.5234" y2="293.5234"/><text fill="#000000" font-family="sans-serif" font-size="13" font-weight="bold" lengthAdjust="spacing" textLength="39.019" x="107.2559" y="288.4575">[005]</text><text fill="#000000" font-family="sans-serif" font-size="13" lengthAdjust="spacing" textLength="135.9922" x="150.2749" y="288.4575">report_healt_status()</text><path d="M32,313.5234 L32,338.5234 L478,338.5234 L478,323.5234 L468,313.5234 L32,313.5234 " fill="#FEFFDD" style="stroke:#181818;stroke-width:0.5;"/><path d="M468,313.5234 L468,323.5234 L478,323.5234 L468,313.5234 " fill="#FEFFDD" style="stroke:#181818;stroke-width:0.5;"/><text fill="#000000" font-family="sans-serif" font-size="13" lengthAdjust="spacing" textLength="144.2568" x="178.3884" y="330.5903">Trigger Error Reaction</text><path d="M10,350.6563 L74.4429,350.6563 L74.4429,357.7891 L64.4429,367.7891 L10,367.7891 L10,350.6563 " fill="#EEEEEE" style="stroke:#000000;stroke-width:1.5;"/><rect fill="transparent" height="46.2656" style="stroke:#000000;stroke-width:1.5;" width="471.0337" x="10" y="350.6563"/><text fill="#000000" font-family="sans-serif" font-size="13" font-weight="bold" lengthAdjust="spacing" textLength="19.4429" x="25" y="363.7231">alt</text><text fill="#000000" font-family="sans-serif" font-size="11" font-weight="bold" lengthAdjust="spacing" textLength="130.7593" x="89.4429" y="362.8667">[health_status != ok]</text><polygon fill="#181818" points="407.9219,384.9219,417.9219,388.9219,407.9219,392.9219,411.9219,388.9219" style="stroke:#181818;stroke-width:1;"/><line style="stroke:#181818;stroke-width:1;stroke-dasharray:2.0,2.0;" x1="90.2559" x2="413.9219" y1="388.9219" y2="388.9219"/><text fill="#000000" font-family="sans-serif" font-size="13" font-weight="bold" lengthAdjust="spacing" textLength="39.019" x="97.2559" y="383.856">[006]</text><text fill="#000000" font-family="sans-serif" font-size="13" lengthAdjust="spacing" textLength="142.7461" x="140.2749" y="383.856">initiate Error Reaction</text><polygon fill="#181818" points="96.2559,421.0547,86.2559,425.0547,96.2559,429.0547,92.2559,425.0547" style="stroke:#181818;stroke-width:1;"/><line style="stroke:#181818;stroke-width:1;" x1="90.2559" x2="423.9219" y1="425.0547" y2="425.0547"/><text fill="#000000" font-family="sans-serif" font-size="13" font-weight="bold" lengthAdjust="spacing" textLength="39.019" x="102.2559" y="419.9888">[007]</text><text fill="#000000" font-family="sans-serif" font-size="13" lengthAdjust="spacing" textLength="83.5923" x="145.2749" y="419.9888">Return value</text><!--SRC=[RL71QiCm3BtxAxISMbWXvx0MokWjkPJTnYYggwQYdXqSET2_d-9bMrFcWx7iz_JqdeN54MmT3mHDy2mXic-DmIJ1fyyZHIXUZfltiYm_2cCwZCAME_G2HOt9smiqwB6bM03sK3TpoBRh75iK3Zw_QwszhV20GYFQr0siLXizLg3Cdi06V-OsnKpwULPU1USGht_at4etcDXxQhaNdLTXWDcG3yBdIRw7XKNdZcYlordNFKcA7WPqYOnH2a4Oj4tTF7y3NczMFRWRHEf25BWGEhb0Bpg5SI5qqyrXl4azhDSGhWPqvUdoU51Dx4F6Jj35qf0__Ilw5hdLK64NezhPqsXRur3kWzhJhzgzATQVv36b1twMcuLsP_v4yt3lwhhv0W00]--></g></svg>