<svg xmlns="http://www.w3.org/2000/svg" xmlns:xlink="http://www.w3.org/1999/xlink" contentStyleType="text/css" data-diagram-type="CLASS" height="337px" preserveAspectRatio="none" style="width:311px;height:337px;background:#FFFFFF;" version="1.1" viewBox="0 0 311 337" width="311px" zoomAndPan="magnify"><defs/><g><g id="elem_dynamic"><rect fill="#F1F1F1" height="36.2969" rx="2.5" ry="2.5" style="stroke:#181818;stroke-width:0.5;" width="178.165" x="122" y="7"/><text fill="#000000" font-family="sans-serif" font-size="14" lengthAdjust="spacing" textLength="164.165" x="129" y="21.9951">Dynamic Code Analysis</text><line style="stroke:#181818;stroke-width:0.5;" x1="123" x2="299.165" y1="27.2969" y2="27.2969"/></g><g id="elem_sanitizers"><rect fill="#F1F1F1" height="36.2969" rx="2.5" ry="2.5" style="stroke:#181818;stroke-width:0.5;" width="82.6191" x="169.5" y="103"/><text fill="#000000" font-family="sans-serif" font-size="14" lengthAdjust="spacing" textLength="68.6191" x="176.5" y="117.9951">Sanitizers</text><line style="stroke:#181818;stroke-width:0.5;" x1="170.5" x2="251.1191" y1="123.2969" y2="123.2969"/></g><g id="elem_gcc"><rect fill="#F1F1F1" height="36.2969" rx="2.5" ry="2.5" style="stroke:#181818;stroke-width:0.5;" width="38.2813" x="143" y="199"/><text fill="#000000" font-family="sans-serif" font-size="14" lengthAdjust="spacing" textLength="24.2813" x="150" y="213.9951">gcc</text><line style="stroke:#181818;stroke-width:0.5;" x1="144" x2="180.2813" y1="219.2969" y2="219.2969"/></g><g id="elem_asan"><rect fill="#F1F1F1" height="36.2969" rx="2.5" ry="2.5" style="stroke:#181818;stroke-width:0.5;" width="93.9668" x="7" y="295"/><text fill="#000000" font-family="sans-serif" font-size="14" lengthAdjust="spacing" textLength="79.9668" x="14" y="309.9951">ASAN/LSAN</text><line style="stroke:#181818;stroke-width:0.5;" x1="8" x2="99.9668" y1="315.2969" y2="315.2969"/></g><g id="elem_tsan"><rect fill="#F1F1F1" height="36.2969" rx="2.5" ry="2.5" style="stroke:#181818;stroke-width:0.5;" width="51.4883" x="136.5" y="295"/><text fill="#000000" font-family="sans-serif" font-size="14" lengthAdjust="spacing" textLength="37.4883" x="143.5" y="309.9951">TSAN</text><line style="stroke:#181818;stroke-width:0.5;" x1="137.5" x2="186.9883" y1="315.2969" y2="315.2969"/></g><g id="elem_ubsan"><rect fill="#F1F1F1" height="36.2969" rx="2.5" ry="2.5" style="stroke:#181818;stroke-width:0.5;" width="62.7881" x="222.5" y="295"/><text fill="#000000" font-family="sans-serif" font-size="14" lengthAdjust="spacing" textLength="48.7881" x="229.5" y="309.9951">UBSAN</text><line style="stroke:#181818;stroke-width:0.5;" x1="223.5" x2="284.2881" y1="315.2969" y2="315.2969"/></g><g id="elem_memcheck"><rect fill="#F1F1F1" height="36.2969" rx="2.5" ry="2.5" style="stroke:#181818;stroke-width:0.5;" width="89.3184" x="216.5" y="199"/><text fill="#000000" font-family="sans-serif" font-size="14" lengthAdjust="spacing" textLength="75.3184" x="223.5" y="213.9951">Memcheck</text><line style="stroke:#181818;stroke-width:0.5;" x1="217.5" x2="304.8184" y1="219.2969" y2="219.2969"/></g><!--link dynamic to sanitizers--><g id="link_dynamic_sanitizers"><path codeLine="10" d="M211,43.24 C211,60.2 211,79.95 211,96.87 " fill="transparent" id="dynamic-to-sanitizers" style="stroke:#181818;stroke-width:1;"/><polygon fill="#181818" points="211,102.87,215,93.87,211,97.87,207,93.87,211,102.87" style="stroke:#181818;stroke-width:1;"/></g><!--link sanitizers to gcc--><g id="link_sanitizers_gcc"><path codeLine="11" d="M202.01,139.24 C193.17,156.2 182.5235,176.6295 173.7035,193.5495 " fill="transparent" id="sanitizers-to-gcc" style="stroke:#181818;stroke-width:1;"/><polygon fill="#181818" points="170.93,198.87,178.6372,192.7382,173.2412,194.4362,171.5432,189.0402,170.93,198.87" style="stroke:#181818;stroke-width:1;"/></g><!--link gcc to asan--><g id="link_gcc_asan"><path codeLine="12" d="M142.94,234.59 C123.44,251.56 97.8156,273.8605 78.1256,291.0005 " fill="transparent" id="gcc-to-asan" style="stroke:#181818;stroke-width:1;"/><polygon fill="#181818" points="73.6,294.94,83.0146,292.0478,77.3713,291.6571,77.762,286.0138,73.6,294.94" style="stroke:#181818;stroke-width:1;"/></g><!--link gcc to tsan--><g id="link_gcc_tsan"><path codeLine="13" d="M162,235.24 C162,252.2 162,271.95 162,288.87 " fill="transparent" id="gcc-to-tsan" style="stroke:#181818;stroke-width:1;"/><polygon fill="#181818" points="162,294.87,166,285.87,162,289.87,158,285.87,162,294.87" style="stroke:#181818;stroke-width:1;"/></g><!--link gcc to ubsan--><g id="link_gcc_ubsan"><path codeLine="14" d="M178.87,235.24 C195.47,252.2 216.4732,273.662 233.0332,290.582 " fill="transparent" id="gcc-to-ubsan" style="stroke:#181818;stroke-width:1;"/><polygon fill="#181818" points="237.23,294.87,233.7935,285.6401,233.7327,291.2967,228.0762,291.2358,237.23,294.87" style="stroke:#181818;stroke-width:1;"/></g><!--link sanitizers to memcheck--><g id="link_sanitizers_memcheck"><path codeLine="15" d="M220.17,139.24 C229.19,156.2 240.0723,176.6528 249.0723,193.5728 " fill="transparent" id="sanitizers-to-memcheck" style="stroke:#181818;stroke-width:1;"/><polygon fill="#181818" points="251.89,198.87,251.195,189.0457,249.5419,194.4556,244.132,192.8026,251.89,198.87" style="stroke:#181818;stroke-width:1;"/></g><!--SRC=[oq_AIaqkKL1ogSnBpCrCLd3EJqbLSCnBpAaipYnMKaWiLaY1o73bGrK69-PbbcHMfHP1f8lXNBYAzEHai1IGXeiv1ZlwwVi02R1C8b0NN2e49bg2B1hg11CkJK8MzqtDJSv8JSu6I-L2ELnSK5SgwEhQ8Ji9mGJBW5m4n60ss0qmJWao1s8XcbQOLG00]--></g></svg>