<svg xmlns="http://www.w3.org/2000/svg" xmlns:xlink="http://www.w3.org/1999/xlink" contentStyleType="text/css" data-diagram-type="CLASS" height="661px" preserveAspectRatio="none" style="width:530px;height:661px;background:#FFFFFF;" version="1.1" viewBox="0 0 530 661" width="530px" zoomAndPan="magnify"><defs/><g><!--cluster mod_view_sta__lifecycle__1--><a href="../features/lifecycle/index.html#mod_view_sta__lifecycle__1" target="_top" title="../features/lifecycle/index.html#mod_view_sta__lifecycle__1" xlink:actuate="onRequest" xlink:href="../features/lifecycle/index.html#mod_view_sta__lifecycle__1" xlink:show="new" xlink:title="../features/lifecycle/index.html#mod_view_sta__lifecycle__1" xlink:type="simple"><path d="M115.5,261.5 L185.8232,261.5 A3.75,3.75 0 0 1 188.3232,264 L195.3232,283.7969 L479.5,283.7969 A2.5,2.5 0 0 1 482,286.2969 L482,373 A2.5,2.5 0 0 1 479.5,375.5 L115.5,375.5 A2.5,2.5 0 0 1 113,373 L113,264 A2.5,2.5 0 0 1 115.5,261.5 " fill="transparent" style="stroke:#000000;stroke-width:1.5;"/><line style="stroke:#000000;stroke-width:1.5;" x1="113" x2="195.3232" y1="283.7969" y2="283.7969"/><text fill="#000000" font-family="sans-serif" font-size="14" font-weight="bold" lengthAdjust="spacing" textLength="69.3232" x="117" y="276.4951">Lifecycle</text></a><!--cluster mod_view_sta__logging__logging--><a href="../features/communication/modules/logging/index.html#mod_view_sta__logging__logging" target="_top" title="../features/communication/modules/logging/index.html#mod_view_sta__logging__logging" xlink:actuate="onRequest" xlink:href="../features/communication/modules/logging/index.html#mod_view_sta__logging__logging" xlink:show="new" xlink:title="../features/communication/modules/logging/index.html#mod_view_sta__logging__logging" xlink:type="simple"><path d="M146.5,557.5 L210.8691,557.5 A3.75,3.75 0 0 1 213.3691,560 L220.3691,579.7969 L269.5,579.7969 A2.5,2.5 0 0 1 272,582.2969 L272,652 A2.5,2.5 0 0 1 269.5,654.5 L146.5,654.5 A2.5,2.5 0 0 1 144,652 L144,560 A2.5,2.5 0 0 1 146.5,557.5 " fill="transparent" style="stroke:#000000;stroke-width:1.5;"/><line style="stroke:#000000;stroke-width:1.5;" x1="144" x2="220.3691" y1="579.7969" y2="579.7969"/><text fill="#000000" font-family="sans-serif" font-size="14" font-weight="bold" lengthAdjust="spacing" textLength="63.3691" x="148" y="572.4951">Logging</text></a><!--entity comp_arc_sta__lifecycle__launch_manager--><a href="../features/lifecycle/architecture/launch_manager.html#comp_arc_sta__lifecycle__launch_manager" target="_top" title="../features/lifecycle/architecture/launch_manager.html#comp_arc_sta__lifecycle__launch_manager" xlink:actuate="onRequest" xlink:href="../features/lifecycle/architecture/launch_manager.html#comp_arc_sta__lifecycle__launch_manager" xlink:show="new" xlink:title="../features/lifecycle/architecture/launch_manager.html#comp_arc_sta__lifecycle__launch_manager" xlink:type="simple"><rect fill="#F1F1F1" height="46.2969" rx="2.5" ry="2.5" style="stroke:#0000FF;stroke-width:2;" width="156.5117" x="129.5" y="305"/><rect fill="#F1F1F1" height="10" style="stroke:#0000FF;stroke-width:2;" width="15" x="266.0117" y="310"/><rect fill="#F1F1F1" height="2" style="stroke:#0000FF;stroke-width:2;" width="4" x="264.0117" y="312"/><rect fill="#F1F1F1" height="2" style="stroke:#0000FF;stroke-width:2;" width="4" x="264.0117" y="316"/><text fill="#000000" font-family="sans-serif" font-size="14" lengthAdjust="spacing" textLength="116.5117" x="144.5" y="337.9951">Launch Manager</text></a><!--entity comp_arc_sta__lifecycle__healthmonitor--><a href="../features/lifecycle/architecture/application_health_monitor.html#comp_arc_sta__lifecycle__healthmonitor" target="_top" title="../features/lifecycle/architecture/application_health_monitor.html#comp_arc_sta__lifecycle__healthmonitor" xlink:actuate="onRequest" xlink:href="../features/lifecycle/architecture/application_health_monitor.html#comp_arc_sta__lifecycle__healthmonitor" xlink:show="new" xlink:title="../features/lifecycle/architecture/application_health_monitor.html#comp_arc_sta__lifecycle__healthmonitor" xlink:type="simple"><rect fill="#F1F1F1" height="62.5938" rx="2.5" ry="2.5" style="stroke:#0000FF;stroke-width:2;" width="143.6396" x="322" y="296.5"/><rect fill="#F1F1F1" height="10" style="stroke:#0000FF;stroke-width:2;" width="15" x="445.6396" y="301.5"/><rect fill="#F1F1F1" height="2" style="stroke:#0000FF;stroke-width:2;" width="4" x="443.6396" y="303.5"/><rect fill="#F1F1F1" height="2" style="stroke:#0000FF;stroke-width:2;" width="4" x="443.6396" y="307.5"/><text fill="#000000" font-family="sans-serif" font-size="14" lengthAdjust="spacing" textLength="80.2334" x="337" y="329.4951">&lt;&lt;library&gt;</text><text fill="#000000" font-family="sans-serif" font-size="14" lengthAdjust="spacing" textLength="103.6396" x="337" y="345.792">Health Monitor</text></a><!--entity comp_arc_sta__logging__logging--><a href="../features/communication/modules/logging/index.html#comp_arc_sta__logging__logging" target="_top" title="../features/communication/modules/logging/index.html#comp_arc_sta__logging__logging" xlink:actuate="onRequest" xlink:href="../features/communication/modules/logging/index.html#comp_arc_sta__logging__logging" xlink:show="new" xlink:title="../features/communication/modules/logging/index.html#comp_arc_sta__logging__logging" xlink:type="simple"><rect fill="#F1F1F1" height="46.2969" rx="2.5" ry="2.5" style="stroke:#0000FF;stroke-width:2;" width="95.7881" x="160" y="592.5"/><rect fill="#F1F1F1" height="10" style="stroke:#0000FF;stroke-width:2;" width="15" x="235.7881" y="597.5"/><rect fill="#F1F1F1" height="2" style="stroke:#0000FF;stroke-width:2;" width="4" x="233.7881" y="599.5"/><rect fill="#F1F1F1" height="2" style="stroke:#0000FF;stroke-width:2;" width="4" x="233.7881" y="603.5"/><text fill="#000000" font-family="sans-serif" font-size="14" lengthAdjust="spacing" textLength="55.7881" x="175" y="625.4951">Logging</text></a><!--entity Feature_User--><g id="elem_Feature_User"><ellipse cx="259.1685" cy="14" fill="#F1F1F1" rx="8" ry="8" style="stroke:#181818;stroke-width:0.5;"/><path d="M259.1685,22 L259.1685,49 M246.1685,30 L272.1685,30 M259.1685,49 L246.1685,64 M259.1685,49 L272.1685,64 " fill="transparent" style="stroke:#181818;stroke-width:0.5;"/><text fill="#000000" font-family="sans-serif" font-size="14" lengthAdjust="spacing" textLength="90.3369" x="214" y="78.4951">Feature User</text></g><!--class logic_arc_int__lifecycle__health_monitor_if--><a href="../features/lifecycle/architecture/application_health_monitor.html#logic_arc_int__lifecycle__health_monitor_if" target="_top" title="../features/lifecycle/architecture/application_health_monitor.html#logic_arc_int__lifecycle__health_monitor_if" xlink:actuate="onRequest" xlink:href="../features/lifecycle/architecture/application_health_monitor.html#logic_arc_int__lifecycle__health_monitor_if" xlink:show="new" xlink:title="../features/lifecycle/architecture/application_health_monitor.html#logic_arc_int__lifecycle__health_monitor_if" xlink:type="simple"><g id="elem_logic_arc_int__lifecycle__health_monitor_if"><rect codeLine="14" fill="#F1F1F1" height="40" id="logic_arc_int__lifecycle__health_monitor_if" rx="2.5" ry="2.5" style="stroke:#181818;stroke-width:0.5;" width="162.2383" x="361" y="158.5"/><ellipse cx="376" cy="174.5" fill="#B4A7E5" rx="11" ry="11" style="stroke:#181818;stroke-width:1;"/><path d="M371.9219,170.2656 L371.9219,168.1094 L379.3125,168.1094 L379.3125,170.2656 L376.8438,170.2656 L376.8438,178.3438 L379.3125,178.3438 L379.3125,180.5 L371.9219,180.5 L371.9219,178.3438 L374.3906,178.3438 L374.3906,170.2656 L371.9219,170.2656 Z " fill="#000000"/><text fill="#000000" font-family="sans-serif" font-size="14" font-style="italic" lengthAdjust="spacing" textLength="130.2383" x="390" y="179.3467">Health Monitor API</text><line style="stroke:#181818;stroke-width:0.5;" x1="362" x2="522.2383" y1="190.5" y2="190.5"/></g></a><!--class logic_arc_int__lifecycle__controlif--><a href="../features/lifecycle/architecture/control_interface.html#logic_arc_int__lifecycle__controlif" target="_top" title="../features/lifecycle/architecture/control_interface.html#logic_arc_int__lifecycle__controlif" xlink:actuate="onRequest" xlink:href="../features/lifecycle/architecture/control_interface.html#logic_arc_int__lifecycle__controlif" xlink:show="new" xlink:title="../features/lifecycle/architecture/control_interface.html#logic_arc_int__lifecycle__controlif" xlink:type="simple"><g id="elem_logic_arc_int__lifecycle__controlif"><rect codeLine="19" fill="#F1F1F1" height="40" id="logic_arc_int__lifecycle__controlif" rx="2.5" ry="2.5" style="stroke:#181818;stroke-width:0.5;" width="150.043" x="7" y="158.5"/><ellipse cx="22" cy="174.5" fill="#B4A7E5" rx="11" ry="11" style="stroke:#181818;stroke-width:1;"/><path d="M17.9219,170.2656 L17.9219,168.1094 L25.3125,168.1094 L25.3125,170.2656 L22.8438,170.2656 L22.8438,178.3438 L25.3125,178.3438 L25.3125,180.5 L17.9219,180.5 L17.9219,178.3438 L20.3906,178.3438 L20.3906,170.2656 L17.9219,170.2656 Z " fill="#000000"/><text fill="#000000" font-family="sans-serif" font-size="14" font-style="italic" lengthAdjust="spacing" textLength="118.043" x="36" y="179.3467">Control Interface</text><line style="stroke:#181818;stroke-width:0.5;" x1="8" x2="156.043" y1="190.5" y2="190.5"/></g></a><!--class logic_arc_int__lifecycle__alive_if--><a href="../features/lifecycle/architecture/launch_manager.html#logic_arc_int__lifecycle__alive_if" target="_top" title="../features/lifecycle/architecture/launch_manager.html#logic_arc_int__lifecycle__alive_if" xlink:actuate="onRequest" xlink:href="../features/lifecycle/architecture/launch_manager.html#logic_arc_int__lifecycle__alive_if" xlink:show="new" xlink:title="../features/lifecycle/architecture/launch_manager.html#logic_arc_int__lifecycle__alive_if" xlink:type="simple"><g id="elem_logic_arc_int__lifecycle__alive_if"><rect codeLine="24" fill="#F1F1F1" height="40" id="logic_arc_int__lifecycle__alive_if" rx="2.5" ry="2.5" style="stroke:#181818;stroke-width:0.5;" width="133.3838" x="192.5" y="158.5"/><ellipse cx="207.5" cy="174.5" fill="#B4A7E5" rx="11" ry="11" style="stroke:#181818;stroke-width:1;"/><path d="M203.4219,170.2656 L203.4219,168.1094 L210.8125,168.1094 L210.8125,170.2656 L208.3438,170.2656 L208.3438,178.3438 L210.8125,178.3438 L210.8125,180.5 L203.4219,180.5 L203.4219,178.3438 L205.8906,178.3438 L205.8906,170.2656 L203.4219,170.2656 Z " fill="#000000"/><text fill="#000000" font-family="sans-serif" font-size="14" font-style="italic" lengthAdjust="spacing" textLength="101.3838" x="221.5" y="179.3467">Alive Interface</text><line style="stroke:#181818;stroke-width:0.5;" x1="193.5" x2="324.8838" y1="190.5" y2="190.5"/></g></a><!--class logic_arc_int__logging__logging--><a href="../features/communication/modules/logging/index.html#logic_arc_int__logging__logging" target="_top" title="../features/communication/modules/logging/index.html#logic_arc_int__logging__logging" xlink:actuate="onRequest" xlink:href="../features/communication/modules/logging/index.html#logic_arc_int__logging__logging" xlink:show="new" xlink:title="../features/communication/modules/logging/index.html#logic_arc_int__logging__logging" xlink:type="simple"><g id="elem_logic_arc_int__logging__logging"><rect codeLine="44" fill="#F1F1F1" height="56.2969" id="logic_arc_int__logging__logging" rx="2.5" ry="2.5" style="stroke:#181818;stroke-width:0.5;" width="87.7881" x="164" y="438.5"/><ellipse cx="179" cy="454.5" fill="#B4A7E5" rx="11" ry="11" style="stroke:#181818;stroke-width:1;"/><path d="M174.9219,450.2656 L174.9219,448.1094 L182.3125,448.1094 L182.3125,450.2656 L179.8438,450.2656 L179.8438,458.3438 L182.3125,458.3438 L182.3125,460.5 L174.9219,460.5 L174.9219,458.3438 L177.3906,458.3438 L177.3906,450.2656 L174.9219,450.2656 Z " fill="#000000"/><text fill="#000000" font-family="sans-serif" font-size="14" font-style="italic" lengthAdjust="spacing" textLength="55.7881" x="193" y="459.3467">Logging</text><line style="stroke:#181818;stroke-width:0.5;" x1="165" x2="250.7881" y1="470.5" y2="470.5"/></g><a href="../features/communication/modules/logging/index.html#logic_arc_int_op__logging__isenabled" target="_top" title="../features/communication/modules/logging/index.html#logic_arc_int_op__logging__isenabled" xlink:actuate="onRequest" xlink:href="../features/communication/modules/logging/index.html#logic_arc_int_op__logging__isenabled" xlink:show="new" xlink:title="../features/communication/modules/logging/index.html#logic_arc_int_op__logging__isenabled" xlink:type="simple"><rect fill="#F1F1F1" height="10" style="stroke:transparent;stroke-width:1;" width="20" x="170" y="479.1484"/><ellipse cx="175" cy="484.1484" fill="#84BE84" rx="3" ry="3" style="stroke:#038048;stroke-width:1;"/></a></a><a href="../features/communication/modules/logging/index.html#logic_arc_int_op__logging__isenabled" target="_top" title="../features/communication/modules/logging/index.html#logic_arc_int_op__logging__isenabled" xlink:actuate="onRequest" xlink:href="../features/communication/modules/logging/index.html#logic_arc_int_op__logging__isenabled" xlink:show="new" xlink:title="../features/communication/modules/logging/index.html#logic_arc_int_op__logging__isenabled" xlink:type="simple"><text fill="#000000" font-family="sans-serif" font-size="14" lengthAdjust="spacing" textLength="40.626" x="184" y="487.4951">Log ()</text></a><!--reverse link logic_arc_int__lifecycle__health_monitor_if to comp_arc_sta__lifecycle__healthmonitor--><g id="link_logic_arc_int__lifecycle__health_monitor_if_comp_arc_sta__lifecycle__healthmonitor"><path codeLine="51" d="M433.864,204.4857 C425.784,229.3257 413.51,267.06 403.95,296.42 " fill="transparent" id="logic_arc_int__lifecycle__health_monitor_if-backto-comp_arc_sta__lifecycle__healthmonitor" style="stroke:#181818;stroke-width:1;"/><polygon fill="#181818" points="435.72,198.78,429.1322,206.1013,434.1734,203.5348,436.7399,208.5759,435.72,198.78" style="stroke:#181818;stroke-width:1;"/><text fill="#000000" font-family="sans-serif" font-size="13" lengthAdjust="spacing" textLength="76.9082" x="426" y="241.5669">implements</text></g><!--link Feature_User to logic_arc_int__lifecycle__controlif--><g id="link_Feature_User_logic_arc_int__lifecycle__controlif"><path codeLine="52" d="M213.88,78.41 C180.08,103.8 139.8565,134.0253 112.1265,154.8653 " fill="transparent" id="Feature_User-to-logic_arc_int__lifecycle__controlif" style="stroke:#181818;stroke-width:1;"/><polygon fill="#181818" points="107.33,158.47,116.9278,156.2606,111.3271,155.4661,112.1216,149.8653,107.33,158.47" style="stroke:#181818;stroke-width:1;"/><text fill="#000000" font-family="sans-serif" font-size="13" lengthAdjust="spacing" textLength="23.0103" x="167" y="124.5669">use</text></g><!--link comp_arc_sta__lifecycle__healthmonitor to logic_arc_int__lifecycle__alive_if--><g id="link_comp_arc_sta__lifecycle__healthmonitor_logic_arc_int__lifecycle__alive_if"><path codeLine="53" d="M376.06,296.23 C363.3,275.77 344.95,249 325,228.5 C314.25,217.45 305.7378,210.4615 293.8078,202.0715 " fill="transparent" id="comp_arc_sta__lifecycle__healthmonitor-to-logic_arc_int__lifecycle__alive_if" style="stroke:#008000;stroke-width:1;"/><polygon fill="#008000" points="288.9,198.62,293.9607,207.0692,292.9899,201.4963,298.5628,200.5254,288.9,198.62" style="stroke:#008000;stroke-width:1;"/><text fill="#000000" font-family="sans-serif" font-size="13" lengthAdjust="spacing" textLength="29.7832" x="340" y="241.5669">uses</text></g><!--reverse link logic_arc_int__lifecycle__alive_if to comp_arc_sta__lifecycle__launch_manager--><g id="link_logic_arc_int__lifecycle__alive_if_comp_arc_sta__lifecycle__launch_manager"><path codeLine="54" d="M250.3693,204.4506 C240.9193,231.7806 225.64,275.99 215.67,304.82 " fill="transparent" id="logic_arc_int__lifecycle__alive_if-backto-comp_arc_sta__lifecycle__launch_manager" style="stroke:#181818;stroke-width:1;"/><polygon fill="#181818" points="252.33,198.78,245.6085,205.9787,250.6961,203.5055,253.1693,208.593,252.33,198.78" style="stroke:#181818;stroke-width:1;"/><text fill="#000000" font-family="sans-serif" font-size="13" lengthAdjust="spacing" textLength="76.9082" x="243" y="241.5669">implements</text></g><!--link Feature_User to logic_arc_int__lifecycle__health_monitor_if--><g id="link_Feature_User_logic_arc_int__lifecycle__health_monitor_if"><path codeLine="55" d="M304.24,77.38 C339.27,102.84 381.7261,133.6931 410.8061,154.8231 " fill="transparent" id="Feature_User-to-logic_arc_int__lifecycle__health_monitor_if" style="stroke:#181818;stroke-width:1;"/><polygon fill="#181818" points="415.66,158.35,410.7304,149.8236,411.6151,155.4109,406.0278,156.2955,415.66,158.35" style="stroke:#181818;stroke-width:1;"/><text fill="#000000" font-family="sans-serif" font-size="13" lengthAdjust="spacing" textLength="23.0103" x="374" y="124.5669">use</text></g><!--link Feature_User to logic_arc_int__lifecycle__alive_if--><g id="link_Feature_User_logic_arc_int__lifecycle__alive_if"><path codeLine="56" d="M259,81.55 C259,106.45 259,132.26 259,152.26 " fill="transparent" id="Feature_User-to-logic_arc_int__lifecycle__alive_if" style="stroke:#181818;stroke-width:1;"/><polygon fill="#181818" points="259,158.26,263,149.26,259,153.26,255,149.26,259,158.26" style="stroke:#181818;stroke-width:1;"/><text fill="#000000" font-family="sans-serif" font-size="13" lengthAdjust="spacing" textLength="23.0103" x="260" y="124.5669">use</text></g><!--reverse link logic_arc_int__lifecycle__controlif to comp_arc_sta__lifecycle__launch_manager--><g id="link_logic_arc_int__lifecycle__controlif_comp_arc_sta__lifecycle__launch_manager"><path codeLine="57" d="M102.3675,203.3418 C125.7175,230.6718 164.43,275.99 189.06,304.82 " fill="transparent" id="logic_arc_int__lifecycle__controlif-backto-comp_arc_sta__lifecycle__launch_manager" style="stroke:#181818;stroke-width:1;"/><polygon fill="#181818" points="98.47,198.78,101.275,208.221,101.7179,202.5815,107.3574,203.0244,98.47,198.78" style="stroke:#181818;stroke-width:1;"/><text fill="#000000" font-family="sans-serif" font-size="13" lengthAdjust="spacing" textLength="76.9082" x="139" y="241.5669">implements</text></g><!--reverse link logic_arc_int__logging__logging to comp_arc_sta__logging__logging--><g id="link_logic_arc_int__logging__logging_comp_arc_sta__logging__logging"><path codeLine="58" d="M208,500.81 C208,528.87 208,566.04 208,592.15 " fill="transparent" id="logic_arc_int__logging__logging-backto-comp_arc_sta__logging__logging" style="stroke:#181818;stroke-width:1;"/><polygon fill="#181818" points="208,494.81,204,503.81,208,499.81,212,503.81,208,494.81" style="stroke:#181818;stroke-width:1;"/><text fill="#000000" font-family="sans-serif" font-size="13" lengthAdjust="spacing" textLength="76.9082" x="209" y="537.5669">implements</text></g><!--link comp_arc_sta__lifecycle__launch_manager to logic_arc_int__logging__logging--><g id="link_comp_arc_sta__lifecycle__launch_manager_logic_arc_int__logging__logging"><path codeLine="59" d="M208,351.23 C208,374.96 208,406.56 208,432.09 " fill="transparent" id="comp_arc_sta__lifecycle__launch_manager-to-logic_arc_int__logging__logging" style="stroke:#008000;stroke-width:1;"/><polygon fill="#008000" points="208,438.09,212,429.09,208,433.09,204,429.09,208,438.09" style="stroke:#008000;stroke-width:1;"/><text fill="#000000" font-family="sans-serif" font-size="13" lengthAdjust="spacing" textLength="29.7832" x="209" y="404.5669">uses</text></g><!--SRC=[hLLFQzim5B_hKppIGpT6uct74WAbC5PeOOVjb1cXo2-ng2mPIsuRHh_xPCj9PIUndPARBR_t-wSdcKcfNsWcNeNQ4Ajpi1fMsbgTGI8Av5PeHLAH81YB1MgxpT6_OvRRBJ1h2x4gBHeoDtOhSK5cp0YvWd_aGIYyqr8Ni98brg-_Ky6V51e3tsTVoHkPHqqJOTowmiaFPBOi4FuOB2R033GBj5e08fHJiMOSOV8JcRGfF6ebgixRN_TrlTGRmIahE7Mrb4gnHhxb4YbDwmQQ-GOgrW3BvMmMhJs3YVQraMjFXNNktNh4ybmApgeaEXYpr6RowWp6E7Qn4F86qJKSweVh24XeyKuhMsW9zxkb0OVSruzsrjJJFUMGeJr1QEH0vO6FMocUSRGBLbMFtnx9IiLTo4on3GvkoGuyDD2Hv-NdZ3yvG9Wyx9fhsPbEwBF05seiQm5_EorNg0HVlR3JxKwGKyHrbck5oZhUsXSyUbyrUVMrTjNjRcS0ytbz11UBZoSuaighhbDiw_KX1dRcSobM1IksYx-gFVhzrlmPQexGkSw6Zkuuri3aQHVUi4zYXzET9BtPk6lss1pvB_k7xYmvdLcf6YUHworbPTeNzynN1_PmnW95dIowYaubFrfQFtuuI0rZ46Yu4jmheVpkaRzKeWEu_XxvKac4JvyToILOT1uG2OEAhIGcSHmVouECF3hJSheuv-zu0oBB9MPkK0oGrczuclH2xVyIDr0QXD42a-NLfa1KSI_wxWQlmKqFUkTI7F3_3ljHsqSIhEsVWz4oTp5lmOQ4vWPE_57GJb4lu6cvVJjzmE2t-Jy0]--></g></svg>