<svg xmlns="http://www.w3.org/2000/svg" xmlns:xlink="http://www.w3.org/1999/xlink" contentStyleType="text/css" data-diagram-type="SEQUENCE" height="283px" preserveAspectRatio="none" style="width:483px;height:283px;background:#FFFFFF;" version="1.1" viewBox="0 0 483 283" width="483px" zoomAndPan="magnify"><defs/><g><rect fill="transparent" height="90.2031" style="stroke:#000000;stroke-width:1.5;" width="310.0654" x="10" y="140.6953"/><g><title>Feature User</title><rect fill="transparent" height="211.6016" width="8" x="68.1685" y="36.2969"/><line style="stroke:#181818;stroke-width:0.5;stroke-dasharray:5.0,5.0;" x1="72" x2="72" y1="36.2969" y2="247.8984"/></g><g><title>&#171;module&#187; :Module 2</title><rect fill="transparent" height="211.6016" width="8" x="227.5513" y="36.2969"/><line style="stroke:#181818;stroke-width:0.5;stroke-dasharray:5.0,5.0;" x1="231.0371" x2="231.0371" y1="36.2969" y2="247.8984"/></g><g><title>&#171;module&#187; :Module 1</title><rect fill="transparent" height="211.6016" width="8" x="394.5796" y="36.2969"/><line style="stroke:#181818;stroke-width:0.5;stroke-dasharray:5.0,5.0;" x1="398.0654" x2="398.0654" y1="36.2969" y2="247.8984"/></g><rect fill="#E2E2F0" height="30.2969" rx="2.5" ry="2.5" style="stroke:#181818;stroke-width:0.5;" width="104.3369" x="20" y="5"/><text fill="#000000" font-family="sans-serif" font-size="14" lengthAdjust="spacing" textLength="90.3369" x="27" y="24.9951">Feature User</text><rect fill="#E2E2F0" height="30.2969" rx="2.5" ry="2.5" style="stroke:#181818;stroke-width:0.5;" width="104.3369" x="20" y="246.8984"/><text fill="#000000" font-family="sans-serif" font-size="14" lengthAdjust="spacing" textLength="90.3369" x="27" y="266.8936">Feature User</text><rect fill="#E2E2F0" height="30.2969" rx="2.5" ry="2.5" style="stroke:#181818;stroke-width:0.5;" width="157.0283" x="153.0371" y="5"/><text fill="#000000" font-family="sans-serif" font-size="14" lengthAdjust="spacing" textLength="143.0283" x="160.0371" y="24.9951">&#171;module&#187; :Module 2</text><rect fill="#E2E2F0" height="30.2969" rx="2.5" ry="2.5" style="stroke:#181818;stroke-width:0.5;" width="157.0283" x="153.0371" y="246.8984"/><text fill="#000000" font-family="sans-serif" font-size="14" lengthAdjust="spacing" textLength="143.0283" x="160.0371" y="266.8936">&#171;module&#187; :Module 2</text><rect fill="#E2E2F0" height="30.2969" rx="2.5" ry="2.5" style="stroke:#181818;stroke-width:0.5;" width="157.0283" x="320.0654" y="5"/><text fill="#000000" font-family="sans-serif" font-size="14" lengthAdjust="spacing" textLength="143.0283" x="327.0654" y="24.9951">&#171;module&#187; :Module 1</text><rect fill="#E2E2F0" height="30.2969" rx="2.5" ry="2.5" style="stroke:#181818;stroke-width:0.5;" width="157.0283" x="320.0654" y="246.8984"/><text fill="#000000" font-family="sans-serif" font-size="14" lengthAdjust="spacing" textLength="143.0283" x="327.0654" y="266.8936">&#171;module&#187; :Module 1</text><polygon fill="#181818" points="219.5513,63.4297,229.5513,67.4297,219.5513,71.4297,223.5513,67.4297" style="stroke:#181818;stroke-width:1;"/><line style="stroke:#181818;stroke-width:1;" x1="72.1685" x2="225.5513" y1="67.4297" y2="67.4297"/><text fill="#000000" font-family="sans-serif" font-size="13" lengthAdjust="spacing" textLength="135.3828" x="79.1685" y="62.3638">logical operation 3 ()</text><polygon fill="#181818" points="386.5796,92.5625,396.5796,96.5625,386.5796,100.5625,390.5796,96.5625" style="stroke:#181818;stroke-width:1;"/><line style="stroke:#181818;stroke-width:1;" x1="231.5513" x2="392.5796" y1="96.5625" y2="96.5625"/><text fill="#000000" font-family="sans-serif" font-size="13" lengthAdjust="spacing" textLength="135.3828" x="238.5513" y="91.4966">logical operation 1 ()</text><polygon fill="#181818" points="242.5513,121.6953,232.5513,125.6953,242.5513,129.6953,238.5513,125.6953" style="stroke:#181818;stroke-width:1;"/><line style="stroke:#181818;stroke-width:1;stroke-dasharray:2.0,2.0;" x1="236.5513" x2="397.5796" y1="125.6953" y2="125.6953"/><text fill="#000000" font-family="sans-serif" font-size="13" lengthAdjust="spacing" textLength="37.064" x="248.5513" y="120.6294">result</text><path d="M10,140.6953 L74.4429,140.6953 L74.4429,147.8281 L64.4429,157.8281 L10,157.8281 L10,140.6953 " fill="#EEEEEE" style="stroke:#000000;stroke-width:1.5;"/><rect fill="transparent" height="90.2031" style="stroke:#000000;stroke-width:1.5;" width="310.0654" x="10" y="140.6953"/><text fill="#000000" font-family="sans-serif" font-size="13" font-weight="bold" lengthAdjust="spacing" textLength="19.4429" x="25" y="153.7622">alt</text><text fill="#000000" font-family="sans-serif" font-size="11" font-weight="bold" lengthAdjust="spacing" textLength="58.0293" x="89.4429" y="152.9058">[success]</text><polygon fill="#181818" points="83.1685,174.9609,73.1685,178.9609,83.1685,182.9609,79.1685,178.9609" style="stroke:#181818;stroke-width:1;"/><line style="stroke:#181818;stroke-width:1;stroke-dasharray:2.0,2.0;" x1="77.1685" x2="230.5513" y1="178.9609" y2="178.9609"/><text fill="#000000" font-family="sans-serif" font-size="13" lengthAdjust="spacing" textLength="50.8511" x="89.1685" y="173.895">success</text><line style="stroke:#000000;stroke-width:1;stroke-dasharray:2.0,2.0;" x1="10" x2="320.0654" y1="187.9609" y2="187.9609"/><text fill="#000000" font-family="sans-serif" font-size="11" font-weight="bold" lengthAdjust="spacing" textLength="41.3467" x="15" y="198.1714">[error]</text><polygon fill="#181818" points="83.1685,218.8984,73.1685,222.8984,83.1685,226.8984,79.1685,222.8984" style="stroke:#181818;stroke-width:1;"/><line style="stroke:#181818;stroke-width:1;" x1="77.1685" x2="230.5513" y1="222.8984" y2="222.8984"/><text fill="#000000" font-family="sans-serif" font-size="13" lengthAdjust="spacing" textLength="65.1587" x="89.1685" y="217.8325">error type</text><!--SRC=[XSyn3i8m30NGFQVuOeAXGyhMWP6DaGDOgOKYfKtaE0DduWXiFHaXGCM0H2RBVlvM4ebwvnFDYisHIOimpfbb0yeWfr5C-ZRBROfZ2RpSCPnQXRxPgVyBxGjQOremkaFT6X3YnJiAY8c5rCSPUsntPkeRiB-0RS2YUqS8vnAqvWP5BivnpWRrFJCgQUU6TS8XCrYa_ks3LjFQq6jYm_De7W00]--></g></svg>