<svg xmlns="http://www.w3.org/2000/svg" xmlns:xlink="http://www.w3.org/1999/xlink" contentStyleType="text/css" data-diagram-type="SEQUENCE" height="337px" preserveAspectRatio="none" style="width:412px;height:337px;background:#FFFFFF;" version="1.1" viewBox="0 0 412 337" width="412px" zoomAndPan="magnify"><title>Sequence Diagram: Read Key from KVS Instance</title><defs/><g><text fill="#000000" font-family="sans-serif" font-size="14" font-weight="bold" lengthAdjust="spacing" textLength="384.084" x="10" y="27.9951">Sequence Diagram: Read Key from KVS Instance</text><rect fill="transparent" height="165.2734" style="stroke:#000000;stroke-width:1.5;" width="341.373" x="31.8555" y="119.7266"/><rect fill="transparent" height="90.2031" style="stroke:#000000;stroke-width:1.5;" width="321.373" x="41.8555" y="187.7969"/><g><title>User</title><rect fill="transparent" height="228.4063" width="8" x="70.8105" y="73.5938"/><line style="stroke:#181818;stroke-width:0.5;stroke-dasharray:5.0,5.0;" x1="73.8555" x2="73.8555" y1="73.5938" y2="302"/></g><g><title>&#171;component&#187; :kvs</title><rect fill="transparent" height="228.4063" width="8" x="277.6357" y="73.5938"/><line style="stroke:#181818;stroke-width:0.5;stroke-dasharray:5.0,5.0;" x1="281.043" x2="281.043" y1="73.5938" y2="302"/></g><rect fill="#E2E2F0" height="30.2969" rx="2.5" ry="2.5" style="stroke:#181818;stroke-width:0.5;" width="45.9102" x="51.8555" y="42.2969"/><text fill="#000000" font-family="sans-serif" font-size="14" lengthAdjust="spacing" textLength="31.9102" x="58.8555" y="62.292">User</text><rect fill="#E2E2F0" height="30.2969" rx="2.5" ry="2.5" style="stroke:#181818;stroke-width:0.5;" width="45.9102" x="51.8555" y="301"/><text fill="#000000" font-family="sans-serif" font-size="14" lengthAdjust="spacing" textLength="31.9102" x="58.8555" y="320.9951">User</text><rect fill="#E2E2F0" height="30.2969" rx="2.5" ry="2.5" style="stroke:#181818;stroke-width:0.5;" width="143.1855" x="210.043" y="42.2969"/><text fill="#000000" font-family="sans-serif" font-size="14" lengthAdjust="spacing" textLength="129.1855" x="217.043" y="62.292">&#171;component&#187; :kvs</text><rect fill="#E2E2F0" height="30.2969" rx="2.5" ry="2.5" style="stroke:#181818;stroke-width:0.5;" width="143.1855" x="210.043" y="301"/><text fill="#000000" font-family="sans-serif" font-size="14" lengthAdjust="spacing" textLength="129.1855" x="217.043" y="320.9951">&#171;component&#187; :kvs</text><polygon fill="#181818" points="269.6357,100.7266,279.6357,104.7266,269.6357,108.7266,273.6357,104.7266" style="stroke:#181818;stroke-width:1;"/><line style="stroke:#181818;stroke-width:1;" x1="74.8105" x2="275.6357" y1="104.7266" y2="104.7266"/><text fill="#000000" font-family="sans-serif" font-size="13" lengthAdjust="spacing" textLength="112.1694" x="81.8105" y="99.6606">Get value for key</text><path d="M31.8555,119.7266 L96.2983,119.7266 L96.2983,126.8594 L86.2983,136.8594 L31.8555,136.8594 L31.8555,119.7266 " fill="#EEEEEE" style="stroke:#000000;stroke-width:1.5;"/><rect fill="transparent" height="165.2734" style="stroke:#000000;stroke-width:1.5;" width="341.373" x="31.8555" y="119.7266"/><text fill="#000000" font-family="sans-serif" font-size="13" font-weight="bold" lengthAdjust="spacing" textLength="19.4429" x="46.8555" y="132.7935">alt</text><text fill="#000000" font-family="sans-serif" font-size="11" font-weight="bold" lengthAdjust="spacing" textLength="73.2456" x="111.2983" y="131.937">[key-exists]</text><polygon fill="#181818" points="85.8105,153.9922,75.8105,157.9922,85.8105,161.9922,81.8105,157.9922" style="stroke:#181818;stroke-width:1;"/><line style="stroke:#181818;stroke-width:1;stroke-dasharray:2.0,2.0;" x1="79.8105" x2="280.6357" y1="157.9922" y2="157.9922"/><text fill="#000000" font-family="sans-serif" font-size="13" lengthAdjust="spacing" textLength="132.9517" x="91.8105" y="152.9263">Return value for key</text><line style="stroke:#000000;stroke-width:1;stroke-dasharray:2.0,2.0;" x1="31.8555" x2="373.2285" y1="166.9922" y2="166.9922"/><text fill="#000000" font-family="sans-serif" font-size="11" font-weight="bold" lengthAdjust="spacing" textLength="113.792" x="36.8555" y="177.2026">[key-doesnt-exist]</text><path d="M41.8555,187.7969 L106.2983,187.7969 L106.2983,194.9297 L96.2983,204.9297 L41.8555,204.9297 L41.8555,187.7969 " fill="#EEEEEE" style="stroke:#000000;stroke-width:1.5;"/><rect fill="transparent" height="90.2031" style="stroke:#000000;stroke-width:1.5;" width="321.373" x="41.8555" y="187.7969"/><text fill="#000000" font-family="sans-serif" font-size="13" font-weight="bold" lengthAdjust="spacing" textLength="19.4429" x="56.8555" y="200.8638">alt</text><text fill="#000000" font-family="sans-serif" font-size="11" font-weight="bold" lengthAdjust="spacing" textLength="95.7021" x="121.2983" y="200.0073">[default-exists]</text><polygon fill="#181818" points="85.8105,222.0625,75.8105,226.0625,85.8105,230.0625,81.8105,226.0625" style="stroke:#181818;stroke-width:1;"/><line style="stroke:#181818;stroke-width:1;stroke-dasharray:2.0,2.0;" x1="79.8105" x2="280.6357" y1="226.0625" y2="226.0625"/><text fill="#000000" font-family="sans-serif" font-size="13" lengthAdjust="spacing" textLength="182.8252" x="91.8105" y="220.9966">Return default value for key</text><line style="stroke:#000000;stroke-width:1;stroke-dasharray:2.0,2.0;" x1="41.8555" x2="363.2285" y1="235.0625" y2="235.0625"/><text fill="#000000" font-family="sans-serif" font-size="11" font-weight="bold" lengthAdjust="spacing" textLength="136.2485" x="46.8555" y="245.2729">[default-doesnt-exist]</text><polygon fill="#181818" points="85.8105,266,75.8105,270,85.8105,274,81.8105,270" style="stroke:#181818;stroke-width:1;"/><line style="stroke:#181818;stroke-width:1;stroke-dasharray:2.0,2.0;" x1="79.8105" x2="280.6357" y1="270" y2="270"/><text fill="#000000" font-family="sans-serif" font-size="13" lengthAdjust="spacing" textLength="132.6533" x="91.8105" y="264.9341">Key-Not-Found error</text><!--SRC=[TP0zJWCn44Pxd-9JUbzW2oeKX29H495-j9v5LhpZnHv7oPau0brEXcs8509OilptlZVMgDV0sF9ROHaPzvvU4yq3dfaSDdp2bEACpMwBHybAbJ5ceQH-z0k9OlMIEQr06JHgJ3_VpkzZd9SeB7h-mB0_v4xMrPYEmzwrqu07LXme5CPKR_Tyga3Gjh5yz5cpGHqLXQsHdcr_r9Ba9iSXSy-vo5dqAzxJJUXueXBqMlg_-1k-AT3uNkJY-bNe3sFjf7sAQjUnY0EdL5lLHU9Ccvy0]--></g></svg>