<svg xmlns="http://www.w3.org/2000/svg" xmlns:xlink="http://www.w3.org/1999/xlink" contentStyleType="text/css" data-diagram-type="CLASS" height="442px" preserveAspectRatio="none" style="width:939px;height:442px;background:#FFFFFF;" version="1.1" viewBox="0 0 939 442" width="939px" zoomAndPan="magnify"><defs/><g><!--cluster C1--><g id="cluster_C1"><rect fill="transparent" height="429" rx="2.5" ry="2.5" style="stroke:#181818;stroke-width:1;" width="479" x="7" y="7"/><rect fill="transparent" height="10" style="stroke:#181818;stroke-width:1;" width="15" x="466" y="12"/><rect fill="transparent" height="2" style="stroke:#181818;stroke-width:1;" width="4" x="464" y="14"/><rect fill="transparent" height="2" style="stroke:#181818;stroke-width:1;" width="4" x="464" y="18"/><text fill="#000000" font-family="sans-serif" font-size="14" font-weight="bold" lengthAdjust="spacing" textLength="104.8564" x="194.0718" y="32.9951">Component 1</text></g><!--class CI2--><g id="elem_CI2"><rect codeLine="27" fill="#F1F1F1" height="80.5938" id="CI2" rx="2.5" ry="2.5" style="stroke:#181818;stroke-width:0.5;" width="193.7656" x="31" y="173"/><ellipse cx="46" cy="189" fill="#B4A7E5" rx="11" ry="11" style="stroke:#181818;stroke-width:1;"/><path d="M41.9219,184.7656 L41.9219,182.6094 L49.3125,182.6094 L49.3125,184.7656 L46.8438,184.7656 L46.8438,192.8438 L49.3125,192.8438 L49.3125,195 L41.9219,195 L41.9219,192.8438 L44.3906,192.8438 L44.3906,184.7656 L41.9219,184.7656 Z " fill="#000000"/><text fill="#000000" font-family="sans-serif" font-size="14" font-style="italic" lengthAdjust="spacing" textLength="161.7656" x="60" y="193.8467">Component Interface 2</text><line style="stroke:#181818;stroke-width:0.5;" x1="32" x2="223.7656" y1="205" y2="205"/><text fill="#000000" font-family="sans-serif" font-size="14" lengthAdjust="spacing" textLength="111.8633" x="37" y="221.9951">real operation 3</text><text fill="#000000" font-family="sans-serif" font-size="14" lengthAdjust="spacing" textLength="111.8633" x="37" y="238.292">real operation 4</text><line style="stroke:#181818;stroke-width:0.5;" x1="32" x2="223.7656" y1="245.5938" y2="245.5938"/></g><!--class LI2--><g id="elem_LI2"><rect codeLine="10" fill="#F1F1F1" height="80.5938" id="LI2" rx="2.5" ry="2.5" style="stroke:#181818;stroke-width:0.5;" width="161.7939" x="47" y="331"/><ellipse cx="62" cy="347" fill="#B4A7E5" rx="11" ry="11" style="stroke:#181818;stroke-width:1;"/><path d="M57.9219,342.7656 L57.9219,340.6094 L65.3125,340.6094 L65.3125,342.7656 L62.8438,342.7656 L62.8438,350.8438 L65.3125,350.8438 L65.3125,353 L57.9219,353 L57.9219,350.8438 L60.3906,350.8438 L60.3906,342.7656 L57.9219,342.7656 Z " fill="#000000"/><text fill="#000000" font-family="sans-serif" font-size="14" font-style="italic" lengthAdjust="spacing" textLength="129.7939" x="76" y="351.8467">Logical Interface 2</text><line style="stroke:#181818;stroke-width:0.5;" x1="48" x2="207.7939" y1="363" y2="363"/><text fill="#000000" font-family="sans-serif" font-size="14" lengthAdjust="spacing" textLength="136.7871" x="53" y="379.9951">Logical Operation 3</text><text fill="#000000" font-family="sans-serif" font-size="14" lengthAdjust="spacing" textLength="136.7871" x="53" y="396.292">Logical Operation 4</text><line style="stroke:#181818;stroke-width:0.5;" x1="48" x2="207.7939" y1="403.5938" y2="403.5938"/></g><!--class CI4--><g id="elem_CI4"><rect codeLine="31" fill="#F1F1F1" height="80.5938" id="CI4" rx="2.5" ry="2.5" style="stroke:#181818;stroke-width:0.5;" width="193.7656" x="260" y="173"/><ellipse cx="275" cy="189" fill="#B4A7E5" rx="11" ry="11" style="stroke:#181818;stroke-width:1;"/><path d="M270.9219,184.7656 L270.9219,182.6094 L278.3125,182.6094 L278.3125,184.7656 L275.8438,184.7656 L275.8438,192.8438 L278.3125,192.8438 L278.3125,195 L270.9219,195 L270.9219,192.8438 L273.3906,192.8438 L273.3906,184.7656 L270.9219,184.7656 Z " fill="#000000"/><text fill="#000000" font-family="sans-serif" font-size="14" font-style="italic" lengthAdjust="spacing" textLength="161.7656" x="289" y="193.8467">Component Interface 4</text><line style="stroke:#181818;stroke-width:0.5;" x1="261" x2="452.7656" y1="205" y2="205"/><text fill="#000000" font-family="sans-serif" font-size="14" lengthAdjust="spacing" textLength="111.8633" x="266" y="221.9951">real operation 7</text><text fill="#000000" font-family="sans-serif" font-size="14" lengthAdjust="spacing" textLength="111.8633" x="266" y="238.292">real operation 8</text><line style="stroke:#181818;stroke-width:0.5;" x1="261" x2="452.7656" y1="245.5938" y2="245.5938"/></g><!--class LI3--><g id="elem_LI3"><rect codeLine="20" fill="#F1F1F1" height="80.5938" id="LI3" rx="2.5" ry="2.5" style="stroke:#181818;stroke-width:0.5;" width="161.7939" x="276" y="331"/><ellipse cx="291" cy="347" fill="#B4A7E5" rx="11" ry="11" style="stroke:#181818;stroke-width:1;"/><path d="M286.9219,342.7656 L286.9219,340.6094 L294.3125,340.6094 L294.3125,342.7656 L291.8438,342.7656 L291.8438,350.8438 L294.3125,350.8438 L294.3125,353 L286.9219,353 L286.9219,350.8438 L289.3906,350.8438 L289.3906,342.7656 L286.9219,342.7656 Z " fill="#000000"/><text fill="#000000" font-family="sans-serif" font-size="14" font-style="italic" lengthAdjust="spacing" textLength="129.7939" x="305" y="351.8467">Logical Interface 3</text><line style="stroke:#181818;stroke-width:0.5;" x1="277" x2="436.7939" y1="363" y2="363"/><text fill="#000000" font-family="sans-serif" font-size="14" lengthAdjust="spacing" textLength="136.7871" x="282" y="379.9951">Logical Operation 7</text><text fill="#000000" font-family="sans-serif" font-size="14" lengthAdjust="spacing" textLength="136.7871" x="282" y="396.292">Logical Operation 8</text><line style="stroke:#181818;stroke-width:0.5;" x1="277" x2="436.7939" y1="403.5938" y2="403.5938"/></g><!--entity SC1--><g id="elem_SC1"><rect fill="#F1F1F1" height="46.2969" rx="2.5" ry="2.5" style="stroke:#181818;stroke-width:0.5;" width="165.7334" x="265" y="50"/><rect fill="#F1F1F1" height="10" style="stroke:#181818;stroke-width:0.5;" width="15" x="410.7334" y="55"/><rect fill="#F1F1F1" height="2" style="stroke:#181818;stroke-width:0.5;" width="4" x="408.7334" y="57"/><rect fill="#F1F1F1" height="2" style="stroke:#181818;stroke-width:0.5;" width="4" x="408.7334" y="61"/><text fill="#000000" font-family="sans-serif" font-size="14" lengthAdjust="spacing" textLength="125.7334" x="280" y="82.9951">Sub Component 1</text></g><!--entity SC2--><g id="elem_SC2"><rect fill="#F1F1F1" height="46.2969" rx="2.5" ry="2.5" style="stroke:#181818;stroke-width:0.5;" width="165.7334" x="53" y="50"/><rect fill="#F1F1F1" height="10" style="stroke:#181818;stroke-width:0.5;" width="15" x="198.7334" y="55"/><rect fill="#F1F1F1" height="2" style="stroke:#181818;stroke-width:0.5;" width="4" x="196.7334" y="57"/><rect fill="#F1F1F1" height="2" style="stroke:#181818;stroke-width:0.5;" width="4" x="196.7334" y="61"/><text fill="#000000" font-family="sans-serif" font-size="14" lengthAdjust="spacing" textLength="125.7334" x="68" y="82.9951">Sub Component 2</text></g><!--class CI1--><g id="elem_CI1"><rect codeLine="36" fill="#F1F1F1" height="80.5938" id="CI1" rx="2.5" ry="2.5" style="stroke:#181818;stroke-width:0.5;" width="193.7656" x="510" y="173"/><ellipse cx="525" cy="189" fill="#B4A7E5" rx="11" ry="11" style="stroke:#181818;stroke-width:1;"/><path d="M520.9219,184.7656 L520.9219,182.6094 L528.3125,182.6094 L528.3125,184.7656 L525.8438,184.7656 L525.8438,192.8438 L528.3125,192.8438 L528.3125,195 L520.9219,195 L520.9219,192.8438 L523.3906,192.8438 L523.3906,184.7656 L520.9219,184.7656 Z " fill="#000000"/><text fill="#000000" font-family="sans-serif" font-size="14" font-style="italic" lengthAdjust="spacing" textLength="161.7656" x="539" y="193.8467">Component Interface 1</text><line style="stroke:#181818;stroke-width:0.5;" x1="511" x2="702.7656" y1="205" y2="205"/><text fill="#000000" font-family="sans-serif" font-size="14" lengthAdjust="spacing" textLength="111.8633" x="516" y="221.9951">real operation 1</text><text fill="#000000" font-family="sans-serif" font-size="14" lengthAdjust="spacing" textLength="111.8633" x="516" y="238.292">real operation 2</text><line style="stroke:#181818;stroke-width:0.5;" x1="511" x2="702.7656" y1="245.5938" y2="245.5938"/></g><!--class LI1--><g id="elem_LI1"><rect codeLine="41" fill="#F1F1F1" height="80.5938" id="LI1" rx="2.5" ry="2.5" style="stroke:#181818;stroke-width:0.5;" width="161.7939" x="526" y="331"/><ellipse cx="541" cy="347" fill="#B4A7E5" rx="11" ry="11" style="stroke:#181818;stroke-width:1;"/><path d="M536.9219,342.7656 L536.9219,340.6094 L544.3125,340.6094 L544.3125,342.7656 L541.8438,342.7656 L541.8438,350.8438 L544.3125,350.8438 L544.3125,353 L536.9219,353 L536.9219,350.8438 L539.3906,350.8438 L539.3906,342.7656 L536.9219,342.7656 Z " fill="#000000"/><text fill="#000000" font-family="sans-serif" font-size="14" font-style="italic" lengthAdjust="spacing" textLength="129.7939" x="555" y="351.8467">Logical Interface 1</text><line style="stroke:#181818;stroke-width:0.5;" x1="527" x2="686.7939" y1="363" y2="363"/><text fill="#000000" font-family="sans-serif" font-size="14" lengthAdjust="spacing" textLength="136.7871" x="532" y="379.9951">Logical Operation 1</text><text fill="#000000" font-family="sans-serif" font-size="14" lengthAdjust="spacing" textLength="136.7871" x="532" y="396.292">Logical Operation 2</text><line style="stroke:#181818;stroke-width:0.5;" x1="527" x2="686.7939" y1="403.5938" y2="403.5938"/></g><!--class CI3--><g id="elem_CI3"><rect codeLine="46" fill="#F1F1F1" height="80.5938" id="CI3" rx="2.5" ry="2.5" style="stroke:#181818;stroke-width:0.5;" width="193.7656" x="739" y="173"/><ellipse cx="754" cy="189" fill="#B4A7E5" rx="11" ry="11" style="stroke:#181818;stroke-width:1;"/><path d="M749.9219,184.7656 L749.9219,182.6094 L757.3125,182.6094 L757.3125,184.7656 L754.8438,184.7656 L754.8438,192.8438 L757.3125,192.8438 L757.3125,195 L749.9219,195 L749.9219,192.8438 L752.3906,192.8438 L752.3906,184.7656 L749.9219,184.7656 Z " fill="#000000"/><text fill="#000000" font-family="sans-serif" font-size="14" font-style="italic" lengthAdjust="spacing" textLength="161.7656" x="768" y="193.8467">Component Interface 3</text><line style="stroke:#181818;stroke-width:0.5;" x1="740" x2="931.7656" y1="205" y2="205"/><text fill="#000000" font-family="sans-serif" font-size="14" lengthAdjust="spacing" textLength="111.8633" x="745" y="221.9951">real operation 5</text><text fill="#000000" font-family="sans-serif" font-size="14" lengthAdjust="spacing" textLength="111.8633" x="745" y="238.292">real operation 6</text><line style="stroke:#181818;stroke-width:0.5;" x1="740" x2="931.7656" y1="245.5938" y2="245.5938"/></g><!--link C1 to CI1--><g id="link_C1_CI1"><path codeLine="53" d="M486.1932,82.797 C486.8542,83.5066 487.55,84.2535 488.2784,85.0355 C494.1063,91.2916 502.0288,99.7969 511.035,109.4663 C529.0475,128.805 547.3062,148.4089 565.9012,168.3789 " fill="transparent" id="C1-to-CI1" style="stroke:#181818;stroke-width:1;"/><polygon fill="#181818" points="569.99,172.77,566.7842,163.4575,566.5827,169.1107,560.9294,168.9092,569.99,172.77" style="stroke:#181818;stroke-width:1;"/><text fill="#000000" font-family="sans-serif" font-size="13" lengthAdjust="spacing" textLength="76.9082" x="540" y="139.0669">implements</text></g><!--link SC2 to CI2--><g id="link_SC2_CI2"><path codeLine="54" d="M108.73,96.16 C100.45,104.54 92.38,114.79 88,126 C81.91,141.56 83.9145,153.0828 92.1245,167.6528 " fill="transparent" id="SC2-to-CI2" style="stroke:#181818;stroke-width:1;"/><polygon fill="#181818" points="95.07,172.88,94.1366,163.0755,92.6154,168.524,87.1669,167.0028,95.07,172.88" style="stroke:#181818;stroke-width:1;"/><text fill="#000000" font-family="sans-serif" font-size="13" lengthAdjust="spacing" textLength="76.9082" x="89" y="139.0669">implements</text></g><!--link CI4 to LI3--><g id="link_CI4_LI3"><path codeLine="55" d="M357,254.27 C357,277.74 357,301.35 357,324.8 " fill="transparent" id="CI4-to-LI3" style="stroke:#181818;stroke-width:1;"/><polygon fill="#181818" points="357,330.8,361,321.8,357,325.8,353,321.8,357,330.8" style="stroke:#181818;stroke-width:1;"/><text fill="#000000" font-family="sans-serif" font-size="13" lengthAdjust="spacing" textLength="76.9082" x="358" y="297.0669">implements</text></g><!--link CI1 to LI1--><g id="link_CI1_LI1"><path codeLine="56" d="M607,254.27 C607,277.74 607,301.35 607,324.8 " fill="transparent" id="CI1-to-LI1" style="stroke:#181818;stroke-width:1;"/><polygon fill="#181818" points="607,330.8,611,321.8,607,325.8,603,321.8,607,330.8" style="stroke:#181818;stroke-width:1;"/><text fill="#000000" font-family="sans-serif" font-size="13" lengthAdjust="spacing" textLength="76.9082" x="608" y="297.0669">implements</text></g><!--link SC2 to CI4--><g id="link_SC2_CI4"><path codeLine="57" d="M153.23,96.06 C165.59,110.79 183.31,129.81 202,143 C219.71,155.5 234.6013,163.9947 254.5713,173.3947 " fill="transparent" id="SC2-to-CI4" style="stroke:#181818;stroke-width:1;"/><polygon fill="#181818" points="260,175.95,253.5605,168.4979,255.4761,173.8206,250.1535,175.7362,260,175.95" style="stroke:#181818;stroke-width:1;"/><text fill="#000000" font-family="sans-serif" font-size="13" lengthAdjust="spacing" textLength="29.7832" x="203" y="139.0669">uses</text></g><!--link SC1 to CI4--><g id="link_SC1_CI4"><path codeLine="58" d="M353.74,96.11 C355.84,105.28 357.96,116.09 359,126 C360.59,141.24 360.832,152.0745 360.262,166.8045 " fill="transparent" id="SC1-to-CI4" style="stroke:#181818;stroke-width:1;"/><polygon fill="#181818" points="360.03,172.8,364.375,163.9614,360.2233,167.8037,356.381,163.6521,360.03,172.8" style="stroke:#181818;stroke-width:1;"/><text fill="#000000" font-family="sans-serif" font-size="13" lengthAdjust="spacing" textLength="29.7832" x="362" y="139.0669">uses</text></g><!--link SC1 to CI2--><g id="link_SC1_CI2"><path codeLine="59" d="M313.91,96.25 C292.95,109.86 265.5,127.57 241,143 C225.51,152.76 213.8497,160.0151 198.0897,169.7151 " fill="transparent" id="SC1-to-CI2" style="stroke:#181818;stroke-width:1;"/><polygon fill="#181818" points="192.98,172.86,202.7412,171.5491,197.2381,170.2392,198.548,164.7361,192.98,172.86" style="stroke:#181818;stroke-width:1;"/><text fill="#000000" font-family="sans-serif" font-size="13" lengthAdjust="spacing" textLength="76.9082" x="269" y="139.0669">implements</text></g><!--link C1 to CI3--><g id="link_C1_CI3"><path codeLine="60" d="M486.114,76.713 C486.2197,76.7485 486.3263,76.7843 486.4339,76.8204 C486.649,76.8927 486.8678,76.9663 487.0903,77.0411 C488.8705,77.6397 490.8864,78.319 493.1148,79.072 C502.0284,82.0841 514.3419,86.2756 528.5688,91.2013 C557.0225,101.0525 593.13,113.84 625,126 C663.65,140.75 700.3662,155.5753 736.8462,170.6753 " fill="transparent" id="C1-to-CI3" style="stroke:#181818;stroke-width:1;"/><polygon fill="#181818" points="742.39,172.97,735.6041,165.832,737.7701,171.0577,732.5444,173.2238,742.39,172.97" style="stroke:#181818;stroke-width:1;"/><text fill="#000000" font-family="sans-serif" font-size="13" lengthAdjust="spacing" textLength="29.7832" x="666" y="139.0669">uses</text></g><!--link CI2 to LI2--><g id="link_CI2_LI2"><path codeLine="61" d="M128,254.27 C128,277.74 128,301.35 128,324.8 " fill="transparent" id="CI2-to-LI2" style="stroke:#181818;stroke-width:1;"/><polygon fill="#181818" points="128,330.8,132,321.8,128,325.8,124,321.8,128,330.8" style="stroke:#181818;stroke-width:1;"/><text fill="#000000" font-family="sans-serif" font-size="13" lengthAdjust="spacing" textLength="76.9082" x="129" y="297.0669">implements</text></g><!--SRC=[bPAn3e8m54NtViMBEyDhKOo32nE9YGDVWAGQ4g04S3B-koqKX4S9kZMdBwUtjqrLKQbIbYtimd69EqWQ215UBFtknyyRq9cu6tgph6nbVKzIETL48-IzCE9wk9P93ggITT9cgWH1WQzrKzz5FR9KJr3RfRCDkzU9SCceqvNHjndzPSQ0WkDcHc4p2cV6mC4wvshTtDRD_wtxpvkRyKs__HyHBgj22lXcLMYhGcTLw63yXqi9cr4iC-ufE1WVO_elUzxPtEi4ML7bij3AXfdIUyvdt1Hck7vamj7oDOz_WcSZ3S5LGiuQiB23vd7xG-Q37m00]--></g></svg>