<svg xmlns="http://www.w3.org/2000/svg" xmlns:xlink="http://www.w3.org/1999/xlink" contentStyleType="text/css" data-diagram-type="CLASS" height="353px" preserveAspectRatio="none" style="width:482px;height:353px;background:#FFFFFF;" version="1.1" viewBox="0 0 482 353" width="482px" zoomAndPan="magnify"><defs/><g><!--cluster FGS--><a href="../process/process_areas/architecture_design/architecture_getstrt.html#feat_arc_sta__archdes_getstrt" target="_top" title="../process/process_areas/architecture_design/architecture_getstrt.html#feat_arc_sta__archdes_getstrt" xlink:actuate="onRequest" xlink:href="../process/process_areas/architecture_design/architecture_getstrt.html#feat_arc_sta__archdes_getstrt" xlink:show="new" xlink:title="../process/process_areas/architecture_design/architecture_getstrt.html#feat_arc_sta__archdes_getstrt" xlink:type="simple"><path d="M8.5,97.5 L199.3066,97.5 A3.75,3.75 0 0 1 201.8066,100 L208.8066,119.7969 L472.5,119.7969 A2.5,2.5 0 0 1 475,122.2969 L475,344 A2.5,2.5 0 0 1 472.5,346.5 L8.5,346.5 A2.5,2.5 0 0 1 6,344 L6,100 A2.5,2.5 0 0 1 8.5,97.5 " fill="transparent" style="stroke:#000000;stroke-width:1.5;"/><line style="stroke:#000000;stroke-width:1.5;" x1="6" x2="208.8066" y1="119.7969" y2="119.7969"/><text fill="#000000" font-family="sans-serif" font-size="14" font-weight="bold" lengthAdjust="spacing" textLength="189.8066" x="10" y="112.4951">Feature Getting Started</text></a><!--class LI1--><a href="../process/process_areas/architecture_design/architecture_concept.html#feat_arc_int__archdes_logical_interface_1" target="_top" title="../process/process_areas/architecture_design/architecture_concept.html#feat_arc_int__archdes_logical_interface_1" xlink:actuate="onRequest" xlink:href="../process/process_areas/architecture_design/architecture_concept.html#feat_arc_int__archdes_logical_interface_1" xlink:show="new" xlink:title="../process/process_areas/architecture_design/architecture_concept.html#feat_arc_int__archdes_logical_interface_1" xlink:type="simple"><g id="elem_LI1"><rect codeLine="15" fill="#F1F1F1" height="80.5938" id="LI1" rx="2.5" ry="2.5" style="stroke:#181818;stroke-width:0.5;" width="164.1611" x="295" y="133"/><ellipse cx="311.0652" cy="149" fill="#B4A7E5" rx="11" ry="11" style="stroke:#181818;stroke-width:1;"/><path d="M306.9871,144.7656 L306.9871,142.6094 L314.3777,142.6094 L314.3777,144.7656 L311.909,144.7656 L311.909,152.8438 L314.3777,152.8438 L314.3777,155 L306.9871,155 L306.9871,152.8438 L309.4559,152.8438 L309.4559,144.7656 L306.9871,144.7656 Z " fill="#000000"/><text fill="#000000" font-family="sans-serif" font-size="14" font-style="italic" lengthAdjust="spacing" textLength="129.7939" x="325.302" y="153.8467">Logical Interface 1</text><line style="stroke:#181818;stroke-width:0.5;" x1="296" x2="458.1611" y1="165" y2="165"/><line style="stroke:#181818;stroke-width:0.5;" x1="296" x2="458.1611" y1="173" y2="173"/><text fill="#000000" font-family="sans-serif" font-size="14" lengthAdjust="spacing" textLength="152.1611" x="301" y="189.9951">Logical Operation 1 ()</text><text fill="#000000" font-family="sans-serif" font-size="14" lengthAdjust="spacing" textLength="152.1611" x="301" y="206.292">Logical Operation 2 ()</text></g></a><!--entity C1--><a href="../process/process_areas/architecture_design/_assets/architecture_modeling_example.html#comp_arc_sta__archdes_component_1" target="_top" title="../process/process_areas/architecture_design/_assets/architecture_modeling_example.html#comp_arc_sta__archdes_component_1" xlink:actuate="onRequest" xlink:href="../process/process_areas/architecture_design/_assets/architecture_modeling_example.html#comp_arc_sta__archdes_component_1" xlink:show="new" xlink:title="../process/process_areas/architecture_design/_assets/architecture_modeling_example.html#comp_arc_sta__archdes_component_1" xlink:type="simple"><rect fill="#F1F1F1" height="46.2969" rx="2.5" ry="2.5" style="stroke:#0000FF;stroke-width:2;" width="134.6367" x="22" y="217.5"/><rect fill="#F1F1F1" height="10" style="stroke:#0000FF;stroke-width:2;" width="15" x="136.6367" y="222.5"/><rect fill="#F1F1F1" height="2" style="stroke:#0000FF;stroke-width:2;" width="4" x="134.6367" y="224.5"/><rect fill="#F1F1F1" height="2" style="stroke:#0000FF;stroke-width:2;" width="4" x="134.6367" y="228.5"/><text fill="#000000" font-family="sans-serif" font-size="14" lengthAdjust="spacing" textLength="94.6367" x="37" y="250.4951">Component 1</text></a><!--class LI2--><a href="../process/process_areas/architecture_design/_assets/architecture_modeling_example.html#feat_arc_int__archdes_logical_interface_2" target="_top" title="../process/process_areas/architecture_design/_assets/architecture_modeling_example.html#feat_arc_int__archdes_logical_interface_2" xlink:actuate="onRequest" xlink:href="../process/process_areas/architecture_design/_assets/architecture_modeling_example.html#feat_arc_int__archdes_logical_interface_2" xlink:show="new" xlink:title="../process/process_areas/architecture_design/_assets/architecture_modeling_example.html#feat_arc_int__archdes_logical_interface_2" xlink:type="simple"><g id="elem_LI2"><rect codeLine="22" fill="#F1F1F1" height="80.5938" id="LI2" rx="2.5" ry="2.5" style="stroke:#181818;stroke-width:0.5;" width="164.1611" x="295" y="249"/><ellipse cx="311.0652" cy="265" fill="#B4A7E5" rx="11" ry="11" style="stroke:#181818;stroke-width:1;"/><path d="M306.9871,260.7656 L306.9871,258.6094 L314.3777,258.6094 L314.3777,260.7656 L311.909,260.7656 L311.909,268.8438 L314.3777,268.8438 L314.3777,271 L306.9871,271 L306.9871,268.8438 L309.4559,268.8438 L309.4559,260.7656 L306.9871,260.7656 Z " fill="#000000"/><text fill="#000000" font-family="sans-serif" font-size="14" font-style="italic" lengthAdjust="spacing" textLength="129.7939" x="325.302" y="269.8467">Logical Interface 2</text><line style="stroke:#181818;stroke-width:0.5;" x1="296" x2="458.1611" y1="281" y2="281"/><line style="stroke:#181818;stroke-width:0.5;" x1="296" x2="458.1611" y1="289" y2="289"/><text fill="#000000" font-family="sans-serif" font-size="14" lengthAdjust="spacing" textLength="152.1611" x="301" y="305.9951">Logical Operation 3 ()</text><text fill="#000000" font-family="sans-serif" font-size="14" lengthAdjust="spacing" textLength="152.1611" x="301" y="322.292">Logical Operation 4 ()</text></g></a><!--entity FU--><g id="elem_FU"><ellipse cx="89.6685" cy="14" fill="#F1F1F1" rx="8" ry="8" style="stroke:#181818;stroke-width:0.5;"/><path d="M89.6685,22 L89.6685,49 M76.6685,30 L102.6685,30 M89.6685,49 L76.6685,64 M89.6685,49 L102.6685,64 " fill="transparent" style="stroke:#181818;stroke-width:0.5;"/><text fill="#000000" font-family="sans-serif" font-size="14" lengthAdjust="spacing" textLength="90.3369" x="44.5" y="78.4951">Feature User</text></g><!--link FU to LI1--><g id="link_FU_LI1"><path codeLine="31" d="M134.73,51.37 C170.98,58.87 222.97,72.09 265,92.5 C287.21,103.29 304.848,114.9399 323.648,129.3499 " fill="transparent" id="FU-to-LI1" style="stroke:#181818;stroke-width:1;"/><polygon fill="#181818" points="328.41,133,323.7003,124.3502,324.4416,129.9583,318.8336,130.6996,328.41,133" style="stroke:#181818;stroke-width:1;"/><text fill="#000000" font-family="sans-serif" font-size="13" lengthAdjust="spacing" textLength="23.0103" x="214.5" y="61.5669">use</text></g><!--link C1 to LI1--><g id="link_C1_LI1"><path codeLine="32" d="M157.08,224.88 C198.19,215.23 245.3785,204.1502 288.9485,193.9302 " fill="transparent" id="C1-to-LI1" style="stroke:#181818;stroke-width:1;"/><polygon fill="#181818" points="294.79,192.56,285.1144,190.721,289.9221,193.7018,286.9413,198.5096,294.79,192.56" style="stroke:#181818;stroke-width:1;"/><text fill="#000000" font-family="sans-serif" font-size="13" lengthAdjust="spacing" textLength="76.9082" x="188" y="197.5669">implements</text></g><!--link FU to LI2--><g id="link_FU_LI2"><path codeLine="33" d="M134.65,77.45 C151.07,90.05 169.87,104.45 187,117.5 C221.58,143.84 236.62,143.57 265,176.5 C283.18,197.59 276.55,210.65 295,231.5 C300.39,237.59 301.9424,239.533 308.3724,244.953 " fill="transparent" id="FU-to-LI2" style="stroke:#181818;stroke-width:1;"/><polygon fill="#181818" points="312.96,248.82,308.6566,239.9611,309.137,245.5975,303.5006,246.0779,312.96,248.82" style="stroke:#181818;stroke-width:1;"/><text fill="#000000" font-family="sans-serif" font-size="13" lengthAdjust="spacing" textLength="23.0103" x="214.5" y="113.5669">use</text></g><!--link C1 to LI2--><g id="link_C1_LI2"><path codeLine="34" d="M157.2,252.31 C167.18,254.06 177.36,255.84 187,257.5 C222.25,263.59 255.3137,269.2112 288.6637,274.8412 " fill="transparent" id="C1-to-LI2" style="stroke:#181818;stroke-width:1;"/><polygon fill="#181818" points="294.58,275.84,286.3714,270.3977,289.6498,275.0077,285.0397,278.286,294.58,275.84" style="stroke:#181818;stroke-width:1;"/><text fill="#000000" font-family="sans-serif" font-size="13" lengthAdjust="spacing" textLength="76.9082" x="188" y="253.5669">implements</text></g><!--SRC=[rPD1J-Cm48Nl_XMZxe7TGvDDTa-ewgKI2AdI7e0JGjRWJ1CBnuxigHQquhypQTf0eI1MQ0_RIwpdySpt_6fqBlpMhRsplbQELWmS8DgwOQXi9CCsUDNOYY0nHGfytv6Q9RvtD5Um_MMOhBk1FwEmj9uMmOK8DsvDU_95OysjfvIWpBwFEm_ZQfPlcoliqRPaQ5YQJKu8UHq9BXF52M22aqjG7PfRhEbfzvIOvH2SCqQcQYWyFGUukigol8l1oFZTLsCaJ3b6qrWMlz90LvHixVUrcZXnvApXrdrPoIGvQ7HYrFsYaIExakjhkGdhvRfMQ0Hh6MfhqC7PA1KRfELPyJaa4xoXxYMIJ7v2SiDiFUBeOeEtO_hLKSG-OoZWwxS3SjdBwW7o8pZW0uvoKCg4jWkUFCDaCIu7Zui2PhFDlsC-_rkl6bEI6ztVQqD5JiBLT8TjvsWmtnEypcFawas_dqYvJQI4VqZvqOZADoBwSJYYd-z5LFvF4MqylF6AOJ0Y3tvQJUVzupc6TI9GmZ_T2RQVrqgx1CygovULvNxb8m00]--></g></svg>