<svg xmlns="http://www.w3.org/2000/svg" xmlns:xlink="http://www.w3.org/1999/xlink" contentStyleType="text/css" data-diagram-type="CLASS" height="344px" preserveAspectRatio="none" style="width:889px;height:344px;background:#FFFFFF;" version="1.1" viewBox="0 0 889 344" width="889px" zoomAndPan="magnify"><defs/><g><!--cluster C2--><a href="../process/process_areas/architecture_design/architecture_concept.html#comp_arc_sta__archdes_component_2" target="_top" title="../process/process_areas/architecture_design/architecture_concept.html#comp_arc_sta__archdes_component_2" xlink:actuate="onRequest" xlink:href="../process/process_areas/architecture_design/architecture_concept.html#comp_arc_sta__archdes_component_2" xlink:show="new" xlink:title="../process/process_areas/architecture_design/architecture_concept.html#comp_arc_sta__archdes_component_2" xlink:type="simple"><rect fill="transparent" height="331" rx="2.5" ry="2.5" style="stroke:#0000FF;stroke-width:2;" width="587" x="7" y="7"/><rect fill="transparent" height="10" style="stroke:#0000FF;stroke-width:2;" width="15" x="574" y="12"/><rect fill="transparent" height="2" style="stroke:#0000FF;stroke-width:2;" width="4" x="572" y="14"/><rect fill="transparent" height="2" style="stroke:#0000FF;stroke-width:2;" width="4" x="572" y="18"/><text fill="#000000" font-family="sans-serif" font-size="14" font-weight="bold" lengthAdjust="spacing" textLength="104.8564" x="248.0718" y="32.9951">Component 2</text></a><!--class CI2--><a href="../process/process_areas/architecture_design/_assets/architecture_modeling_example.html#comp_arc_int__archdes_component_interface_2" target="_top" title="../process/process_areas/architecture_design/_assets/architecture_modeling_example.html#comp_arc_int__archdes_component_interface_2" xlink:actuate="onRequest" xlink:href="../process/process_areas/architecture_design/_assets/architecture_modeling_example.html#comp_arc_int__archdes_component_interface_2" xlink:show="new" xlink:title="../process/process_areas/architecture_design/_assets/architecture_modeling_example.html#comp_arc_int__archdes_component_interface_2" xlink:type="simple"><g id="elem_CI2"><rect codeLine="16" fill="#F1F1F1" height="80.5938" id="CI2" rx="2.5" ry="2.5" style="stroke:#181818;stroke-width:0.5;" width="193.7656" x="384" y="58.5"/><ellipse cx="399" cy="74.5" fill="#B4A7E5" rx="11" ry="11" style="stroke:#181818;stroke-width:1;"/><path d="M394.9219,70.2656 L394.9219,68.1094 L402.3125,68.1094 L402.3125,70.2656 L399.8438,70.2656 L399.8438,78.3438 L402.3125,78.3438 L402.3125,80.5 L394.9219,80.5 L394.9219,78.3438 L397.3906,78.3438 L397.3906,70.2656 L394.9219,70.2656 Z " fill="#000000"/><text fill="#000000" font-family="sans-serif" font-size="14" font-style="italic" lengthAdjust="spacing" textLength="161.7656" x="413" y="79.3467">Component Interface 2</text><line style="stroke:#181818;stroke-width:0.5;" x1="385" x2="576.7656" y1="90.5" y2="90.5"/><line style="stroke:#181818;stroke-width:0.5;" x1="385" x2="576.7656" y1="98.5" y2="98.5"/><text fill="#000000" font-family="sans-serif" font-size="14" lengthAdjust="spacing" textLength="127.2373" x="390" y="115.4951">real operation 3 ()</text><text fill="#000000" font-family="sans-serif" font-size="14" lengthAdjust="spacing" textLength="127.2373" x="390" y="131.792">real operation 4 ()</text></g></a><!--class CI4--><a href="../process/process_areas/architecture_design/_assets/architecture_modeling_example.html#comp_arc_int__archdes_component_interface_4" target="_top" title="../process/process_areas/architecture_design/_assets/architecture_modeling_example.html#comp_arc_int__archdes_component_interface_4" xlink:actuate="onRequest" xlink:href="../process/process_areas/architecture_design/_assets/architecture_modeling_example.html#comp_arc_int__archdes_component_interface_4" xlink:show="new" xlink:title="../process/process_areas/architecture_design/_assets/architecture_modeling_example.html#comp_arc_int__archdes_component_interface_4" xlink:type="simple"><g id="elem_CI4"><rect codeLine="22" fill="#F1F1F1" height="80.5938" id="CI4" rx="2.5" ry="2.5" style="stroke:#181818;stroke-width:0.5;" width="193.7656" x="384" y="189.5"/><ellipse cx="399" cy="205.5" fill="#B4A7E5" rx="11" ry="11" style="stroke:#181818;stroke-width:1;"/><path d="M394.9219,201.2656 L394.9219,199.1094 L402.3125,199.1094 L402.3125,201.2656 L399.8438,201.2656 L399.8438,209.3438 L402.3125,209.3438 L402.3125,211.5 L394.9219,211.5 L394.9219,209.3438 L397.3906,209.3438 L397.3906,201.2656 L394.9219,201.2656 Z " fill="#000000"/><text fill="#000000" font-family="sans-serif" font-size="14" font-style="italic" lengthAdjust="spacing" textLength="161.7656" x="413" y="210.3467">Component Interface 4</text><line style="stroke:#181818;stroke-width:0.5;" x1="385" x2="576.7656" y1="221.5" y2="221.5"/><line style="stroke:#181818;stroke-width:0.5;" x1="385" x2="576.7656" y1="229.5" y2="229.5"/><text fill="#000000" font-family="sans-serif" font-size="14" lengthAdjust="spacing" textLength="127.2373" x="390" y="246.4951">real operation 7 ()</text><text fill="#000000" font-family="sans-serif" font-size="14" lengthAdjust="spacing" textLength="127.2373" x="390" y="262.792">real operation 8 ()</text></g></a><!--entity LLC1--><a href="../process/process_areas/architecture_design/_assets/architecture_modeling_example.html#comp_arc_sta__archdes_sub_component_1" target="_top" title="../process/process_areas/architecture_design/_assets/architecture_modeling_example.html#comp_arc_sta__archdes_sub_component_1" xlink:actuate="onRequest" xlink:href="../process/process_areas/architecture_design/_assets/architecture_modeling_example.html#comp_arc_sta__archdes_sub_component_1" xlink:show="new" xlink:title="../process/process_areas/architecture_design/_assets/architecture_modeling_example.html#comp_arc_sta__archdes_sub_component_1" xlink:type="simple"><rect fill="#F1F1F1" height="46.2969" rx="2.5" ry="2.5" style="stroke:#0000FF;stroke-width:2;" width="222.9229" x="23" y="79"/><rect fill="#F1F1F1" height="10" style="stroke:#0000FF;stroke-width:2;" width="15" x="225.9229" y="84"/><rect fill="#F1F1F1" height="2" style="stroke:#0000FF;stroke-width:2;" width="4" x="223.9229" y="86"/><rect fill="#F1F1F1" height="2" style="stroke:#0000FF;stroke-width:2;" width="4" x="223.9229" y="90"/><text fill="#000000" font-family="sans-serif" font-size="14" lengthAdjust="spacing" textLength="182.9229" x="38" y="111.9951">Lower Level Component 1</text></a><!--entity LLC2--><a href="../process/process_areas/architecture_design/_assets/architecture_modeling_example.html#comp_arc_sta__archdes_sub_component_2" target="_top" title="../process/process_areas/architecture_design/_assets/architecture_modeling_example.html#comp_arc_sta__archdes_sub_component_2" xlink:actuate="onRequest" xlink:href="../process/process_areas/architecture_design/_assets/architecture_modeling_example.html#comp_arc_sta__archdes_sub_component_2" xlink:show="new" xlink:title="../process/process_areas/architecture_design/_assets/architecture_modeling_example.html#comp_arc_sta__archdes_sub_component_2" xlink:type="simple"><rect fill="#F1F1F1" height="46.2969" rx="2.5" ry="2.5" style="stroke:#0000FF;stroke-width:2;" width="222.9229" x="23" y="164"/><rect fill="#F1F1F1" height="10" style="stroke:#0000FF;stroke-width:2;" width="15" x="225.9229" y="169"/><rect fill="#F1F1F1" height="2" style="stroke:#0000FF;stroke-width:2;" width="4" x="223.9229" y="171"/><rect fill="#F1F1F1" height="2" style="stroke:#0000FF;stroke-width:2;" width="4" x="223.9229" y="175"/><text fill="#000000" font-family="sans-serif" font-size="14" lengthAdjust="spacing" textLength="182.9229" x="38" y="196.9951">Lower Level Component 2</text></a><!--entity LLC3--><a href="../process/process_areas/architecture_design/_assets/architecture_modeling_example.html#comp_arc_sta__archdes_sub_component_3" target="_top" title="../process/process_areas/architecture_design/_assets/architecture_modeling_example.html#comp_arc_sta__archdes_sub_component_3" xlink:actuate="onRequest" xlink:href="../process/process_areas/architecture_design/_assets/architecture_modeling_example.html#comp_arc_sta__archdes_sub_component_3" xlink:show="new" xlink:title="../process/process_areas/architecture_design/_assets/architecture_modeling_example.html#comp_arc_sta__archdes_sub_component_3" xlink:type="simple"><rect fill="#F1F1F1" height="46.2969" rx="2.5" ry="2.5" style="stroke:#181818;stroke-width:0.5;" width="222.9229" x="23" y="264"/><rect fill="#F1F1F1" height="10" style="stroke:#181818;stroke-width:0.5;" width="15" x="225.9229" y="269"/><rect fill="#F1F1F1" height="2" style="stroke:#181818;stroke-width:0.5;" width="4" x="223.9229" y="271"/><rect fill="#F1F1F1" height="2" style="stroke:#181818;stroke-width:0.5;" width="4" x="223.9229" y="275"/><text fill="#000000" font-family="sans-serif" font-size="14" lengthAdjust="spacing" textLength="182.9229" x="38" y="296.9951">Lower Level Component 3</text></a><!--class LI2--><a href="../process/process_areas/architecture_design/_assets/architecture_modeling_example.html#feat_arc_int__archdes_logical_interface_2" target="_top" title="../process/process_areas/architecture_design/_assets/architecture_modeling_example.html#feat_arc_int__archdes_logical_interface_2" xlink:actuate="onRequest" xlink:href="../process/process_areas/architecture_design/_assets/architecture_modeling_example.html#feat_arc_int__archdes_logical_interface_2" xlink:show="new" xlink:title="../process/process_areas/architecture_design/_assets/architecture_modeling_example.html#feat_arc_int__archdes_logical_interface_2" xlink:type="simple"><g id="elem_LI2"><rect codeLine="36" fill="#F1F1F1" height="80.5938" id="LI2" rx="2.5" ry="2.5" style="stroke:#181818;stroke-width:0.5;" width="164.1611" x="718" y="58.5"/><ellipse cx="734.0652" cy="74.5" fill="#B4A7E5" rx="11" ry="11" style="stroke:#181818;stroke-width:1;"/><path d="M729.9871,70.2656 L729.9871,68.1094 L737.3777,68.1094 L737.3777,70.2656 L734.909,70.2656 L734.909,78.3438 L737.3777,78.3438 L737.3777,80.5 L729.9871,80.5 L729.9871,78.3438 L732.4559,78.3438 L732.4559,70.2656 L729.9871,70.2656 Z " fill="#000000"/><text fill="#000000" font-family="sans-serif" font-size="14" font-style="italic" lengthAdjust="spacing" textLength="129.7939" x="748.302" y="79.3467">Logical Interface 2</text><line style="stroke:#181818;stroke-width:0.5;" x1="719" x2="881.1611" y1="90.5" y2="90.5"/><line style="stroke:#181818;stroke-width:0.5;" x1="719" x2="881.1611" y1="98.5" y2="98.5"/><text fill="#000000" font-family="sans-serif" font-size="14" lengthAdjust="spacing" textLength="152.1611" x="724" y="115.4951">Logical Operation 3 ()</text><text fill="#000000" font-family="sans-serif" font-size="14" lengthAdjust="spacing" textLength="152.1611" x="724" y="131.792">Logical Operation 4 ()</text></g></a><!--class LI3--><a href="../process/process_areas/architecture_design/_assets/architecture_modeling_example.html#feat_arc_int__archdes_logical_interface_3" target="_top" title="../process/process_areas/architecture_design/_assets/architecture_modeling_example.html#feat_arc_int__archdes_logical_interface_3" xlink:actuate="onRequest" xlink:href="../process/process_areas/architecture_design/_assets/architecture_modeling_example.html#feat_arc_int__archdes_logical_interface_3" xlink:show="new" xlink:title="../process/process_areas/architecture_design/_assets/architecture_modeling_example.html#feat_arc_int__archdes_logical_interface_3" xlink:type="simple"><g id="elem_LI3"><rect codeLine="42" fill="#F1F1F1" height="80.5938" id="LI3" rx="2.5" ry="2.5" style="stroke:#181818;stroke-width:0.5;" width="164.1611" x="718" y="189.5"/><ellipse cx="734.0652" cy="205.5" fill="#B4A7E5" rx="11" ry="11" style="stroke:#181818;stroke-width:1;"/><path d="M729.9871,201.2656 L729.9871,199.1094 L737.3777,199.1094 L737.3777,201.2656 L734.909,201.2656 L734.909,209.3438 L737.3777,209.3438 L737.3777,211.5 L729.9871,211.5 L729.9871,209.3438 L732.4559,209.3438 L732.4559,201.2656 L729.9871,201.2656 Z " fill="#000000"/><text fill="#000000" font-family="sans-serif" font-size="14" font-style="italic" lengthAdjust="spacing" textLength="129.7939" x="748.302" y="210.3467">Logical Interface 3</text><line style="stroke:#181818;stroke-width:0.5;" x1="719" x2="881.1611" y1="221.5" y2="221.5"/><line style="stroke:#181818;stroke-width:0.5;" x1="719" x2="881.1611" y1="229.5" y2="229.5"/><text fill="#000000" font-family="sans-serif" font-size="14" lengthAdjust="spacing" textLength="152.1611" x="724" y="246.4951">Logical Operation 7 ()</text><text fill="#000000" font-family="sans-serif" font-size="14" lengthAdjust="spacing" textLength="152.1611" x="724" y="262.792">Logical Operation 8 ()</text></g></a><!--link LLC1 to CI2--><g id="link_LLC1_CI2"><path codeLine="49" d="M246.32,98.55 C256.35,98.33 266.36,98.14 276,98 C310.66,97.51 319.33,97.86 354,98 C363.63,98.04 367.6601,98.0481 377.6901,98.1181 " fill="transparent" id="LLC1-to-CI2" style="stroke:#181818;stroke-width:1;"/><polygon fill="#181818" points="383.69,98.16,374.7181,94.0973,378.6901,98.1251,374.6623,102.0971,383.69,98.16" style="stroke:#181818;stroke-width:1;"/><text fill="#000000" font-family="sans-serif" font-size="13" lengthAdjust="spacing" textLength="76.9082" x="277" y="94.0669">implements</text></g><!--link LLC1 to CI4--><g id="link_LLC1_CI4"><path codeLine="50" d="M246.16,122.09 C281.34,130.25 319.94,141.1 354,155 C376.51,164.19 394.6408,173.8205 414.9408,186.2305 " fill="transparent" id="LLC1-to-CI4" style="stroke:#181818;stroke-width:1;"/><polygon fill="#181818" points="420.06,189.36,414.4676,181.2529,415.794,186.7521,410.2949,188.0785,420.06,189.36" style="stroke:#181818;stroke-width:1;"/><text fill="#000000" font-family="sans-serif" font-size="13" lengthAdjust="spacing" textLength="29.7832" x="300.5" y="126.0669">uses</text></g><!--link LLC2 to CI2--><g id="link_LLC2_CI2"><path codeLine="51" d="M246.27,192.01 C281.36,190.81 319.89,186.53 354,176 C379.6,168.1 400.2805,157.1223 421.7305,142.9823 " fill="transparent" id="LLC2-to-CI2" style="stroke:#181818;stroke-width:1;"/><polygon fill="#181818" points="426.74,139.68,417.0243,141.2938,422.5654,142.4319,421.4273,147.9731,426.74,139.68" style="stroke:#181818;stroke-width:1;"/><text fill="#000000" font-family="sans-serif" font-size="13" lengthAdjust="spacing" textLength="76.9082" x="277" y="172.0669">implements</text></g><!--link LLC3 to CI4--><g id="link_LLC3_CI4"><path codeLine="52" d="M246.03,278.8 C280.75,275.31 319.13,270.5 354,264 C363.69,262.19 367.8807,261.3994 377.8707,259.0394 " fill="transparent" id="LLC3-to-CI4" style="stroke:#181818;stroke-width:1;"/><polygon fill="#181818" points="383.71,257.66,374.0315,255.8363,378.8439,258.8095,375.8707,263.622,383.71,257.66" style="stroke:#181818;stroke-width:1;"/><text fill="#000000" font-family="sans-serif" font-size="13" lengthAdjust="spacing" textLength="76.9082" x="277" y="260.0669">implements</text></g><!--link CI4 to LI3--><g id="link_CI4_LI3"><path codeLine="53" d="M578.4,230 C622.94,230 669.25,230 711.74,230 " fill="transparent" id="CI4-to-LI3" style="stroke:#181818;stroke-width:1;"/><polygon fill="#181818" points="717.74,230,708.74,226,712.74,230,708.74,234,717.74,230" style="stroke:#181818;stroke-width:1;"/><text fill="#000000" font-family="sans-serif" font-size="13" lengthAdjust="spacing" textLength="76.9082" x="611" y="226.0669">implements</text></g><!--link CI2 to LI2--><g id="link_CI2_LI2"><path codeLine="54" d="M578.4,99 C622.94,99 669.25,99 711.74,99 " fill="transparent" id="CI2-to-LI2" style="stroke:#181818;stroke-width:1;"/><polygon fill="#181818" points="717.74,99,708.74,95,712.74,99,708.74,103,717.74,99" style="stroke:#181818;stroke-width:1;"/><text fill="#000000" font-family="sans-serif" font-size="13" lengthAdjust="spacing" textLength="76.9082" x="611" y="95.0669">implements</text></g><!--link LLC2 to CI4--><g id="link_LLC2_CI4"><path codeLine="55" d="M192.25,210.11 C217.44,219.18 247.74,228.49 276,233 C310.89,238.57 343.5633,239.5381 377.7733,238.4081 " fill="transparent" id="LLC2-to-CI4" style="stroke:#181818;stroke-width:1;"/><polygon fill="#181818" points="383.77,238.21,374.6429,234.5093,378.7727,238.3751,374.907,242.5049,383.77,238.21" style="stroke:#181818;stroke-width:1;"/><text fill="#000000" font-family="sans-serif" font-size="13" lengthAdjust="spacing" textLength="29.7832" x="300.5" y="229.0669">uses</text></g><!--SRC=[pPLDRwCm48Rl_8fHUsXxA3G6gLKLvP9J9AIzxAsgBCUP16kDZMndswhgVryJ22L0FbIftN31cZ7s-tZUCKnA_K9pyIhKAf2uTE0q6B7A72o4GUw4La4c5WZMeK7jtWeCnjQzIPm4K3yXiqBEuRq9f4BXL4jjO2xNk1F-dGd-Hw6rGCAx9lFHZCPHlNZ0TLveXSh1nRGPaWjW5gO4nkFDffC9F3s5OLGOpVsYspTb1fcDcE6PS9vYRP0kq8gLsernhJWMBinSBY_B3Vs7d5h7Q3d8_2UqaK79ypDuo9QkLB-WWHJ_eeHFZQEDnZITZhwkaZ9hqNLokLwWz8MY-ChoGk8XsNOzRqaVLT8_8Bg2FQBXAe8W4CgNUSaujWzzrWJhuvyH-0aWBsQe3et6JKNU0x-d15sWOQLR8ORhcsuiAMCL_Y3MIV193P-S1tmo17y_0Fzm63wfu8_QccnjJSx6rkIehSc9SF4MBeR_p1GVPOehfav1-nvEzKfmxuHk-wRVsxvBPAxlO5c9wJNlLkIltVxjXrijF01s0dnTubby3l3n7lZxOVY7G_2r7uBD7-VsTbBUpuyWIb6vTuQ5TYPvXBN5AaRspeu_PxSpvTrN9lmXTXEaJlJN8jsT_m40]--></g></svg>