<svg xmlns="http://www.w3.org/2000/svg" xmlns:xlink="http://www.w3.org/1999/xlink" contentStyleType="text/css" data-diagram-type="DESCRIPTION" height="312px" preserveAspectRatio="none" style="width:861px;height:312px;background:#FFFFFF;" version="1.1" viewBox="0 0 861 312" width="861px" zoomAndPan="magnify"><defs/><g><!--cluster module_template--><g id="cluster_module_template"><path d="M647,16 C647,6 745.5,6 745.5,6 C745.5,6 844,6 844,16 L844,285 C844,295 745.5,295 745.5,295 C745.5,295 647,295 647,285 L647,16 " fill="transparent" style="stroke:#181818;stroke-width:1;"/><path d="M647,16 C647,26 745.5,26 745.5,26 C745.5,26 844,26 844,16 " fill="transparent" style="stroke:#181818;stroke-width:1;"/><text fill="#000000" font-family="sans-serif" font-size="14" font-weight="bold" lengthAdjust="spacing" textLength="136.7188" x="677.1406" y="40.9951">module_template</text></g><!--entity process_description--><g id="elem_process_description"><path d="M6,63.5 C6,53.5 85.4736,53.5 85.4736,53.5 C85.4736,53.5 164.9473,53.5 164.9473,63.5 L164.9473,88.7969 C164.9473,98.7969 85.4736,98.7969 85.4736,98.7969 C85.4736,98.7969 6,98.7969 6,88.7969 L6,63.5 " fill="#F1F1F1" style="stroke:#181818;stroke-width:0.5;"/><path d="M6,63.5 C6,73.5 85.4736,73.5 85.4736,73.5 C85.4736,73.5 164.9473,73.5 164.9473,63.5 " fill="transparent" style="stroke:#181818;stroke-width:0.5;"/><text fill="#000000" font-family="sans-serif" font-size="14" lengthAdjust="spacing" textLength="138.9473" x="16" y="90.4951">process_description</text></g><!--entity docs_as_code--><g id="elem_docs_as_code"><path d="M352,63.5 C352,53.5 410.0396,53.5 410.0396,53.5 C410.0396,53.5 468.0791,53.5 468.0791,63.5 L468.0791,88.7969 C468.0791,98.7969 410.0396,98.7969 410.0396,98.7969 C410.0396,98.7969 352,98.7969 352,88.7969 L352,63.5 " fill="#F1F1F1" style="stroke:#181818;stroke-width:0.5;"/><path d="M352,63.5 C352,73.5 410.0396,73.5 410.0396,73.5 C410.0396,73.5 468.0791,73.5 468.0791,63.5 " fill="transparent" style="stroke:#181818;stroke-width:0.5;"/><text fill="#000000" font-family="sans-serif" font-size="14" lengthAdjust="spacing" textLength="96.0791" x="362" y="90.4951">docs_as_code</text></g><!--entity yaml--><g id="elem_yaml"><rect fill="#F1F1F1" height="39.2969" rx="2.5" ry="2.5" style="stroke:#181818;stroke-width:0.5;" width="148.7539" x="671" y="83.5"/><polygon fill="#F1F1F1" points="802.7539,88.5,802.7539,102.5,814.7539,102.5,814.7539,94.5,808.7539,88.5,802.7539,88.5" style="stroke:#181818;stroke-width:0.5;"/><line style="stroke:#181818;stroke-width:0.5;" x1="808.7539" x2="808.7539" y1="88.5" y2="94.5"/><line style="stroke:#181818;stroke-width:0.5;" x1="814.7539" x2="808.7539" y1="94.5" y2="94.5"/><text fill="#000000" font-family="sans-serif" font-size="14" lengthAdjust="spacing" textLength="118.7539" x="681" y="109.4951">metamodel.yaml</text></g><!--entity examples--><g id="elem_examples"><rect fill="#F1F1F1" height="39.2969" rx="2.5" ry="2.5" style="stroke:#181818;stroke-width:0.5;" width="97.7988" x="696.5" y="157.5"/><polygon fill="#F1F1F1" points="777.2988,162.5,777.2988,176.5,789.2988,176.5,789.2988,168.5,783.2988,162.5,777.2988,162.5" style="stroke:#181818;stroke-width:0.5;"/><line style="stroke:#181818;stroke-width:0.5;" x1="783.2988" x2="783.2988" y1="162.5" y2="168.5"/><line style="stroke:#181818;stroke-width:0.5;" x1="789.2988" x2="783.2988" y1="168.5" y2="168.5"/><text fill="#000000" font-family="sans-serif" font-size="14" lengthAdjust="spacing" textLength="67.7988" x="706.5" y="183.4951">examples</text></g><!--entity templates--><g id="elem_templates"><rect fill="#F1F1F1" height="39.2969" rx="2.5" ry="2.5" style="stroke:#181818;stroke-width:0.5;" width="100.4922" x="695.5" y="231.5"/><polygon fill="#F1F1F1" points="778.9922,236.5,778.9922,250.5,790.9922,250.5,790.9922,242.5,784.9922,236.5,778.9922,236.5" style="stroke:#181818;stroke-width:0.5;"/><line style="stroke:#181818;stroke-width:0.5;" x1="784.9922" x2="784.9922" y1="236.5" y2="242.5"/><line style="stroke:#181818;stroke-width:0.5;" x1="790.9922" x2="784.9922" y1="242.5" y2="242.5"/><text fill="#000000" font-family="sans-serif" font-size="14" lengthAdjust="spacing" textLength="70.4922" x="705.5" y="257.4951">templates</text></g><!--link process_description to docs_as_code--><g id="link_process_description_docs_as_code"><path d="M165.39,76 C223.11,76 294.06,76 345.91,76 " fill="transparent" id="process_description-to-docs_as_code" style="stroke:#181818;stroke-width:1;"/><polygon fill="#181818" points="351.91,76,342.91,72,346.91,76,342.91,80,351.91,76" style="stroke:#181818;stroke-width:1;"/><text fill="#000000" font-family="sans-serif" font-size="13" lengthAdjust="spacing" textLength="125.7852" x="196" y="72.0669">defines metamodel</text></g><!--link docs_as_code to module_template--><g id="link_docs_as_code_module_template"><path d="M468.33,71.19 C515.26,67.25 582.895,61.57 639.485,56.8175 C641.2534,56.669 643.0111,56.5214 644.757,56.3748 C645.1935,56.3381 639.6502,56.8036 640.0852,56.7671 " fill="transparent" id="docs_as_code-to-module_template" style="stroke:#181818;stroke-width:1;"/><polygon fill="#181818" points="646.0642,56.265,636.761,53.0322,641.0817,56.6834,637.4305,61.0041,646.0642,56.265" style="stroke:#181818;stroke-width:1;"/><text fill="#000000" font-family="sans-serif" font-size="13" lengthAdjust="spacing" textLength="123.1699" x="499" y="55.0669">checks metamodel</text></g><!--link yaml to docs_as_code--><g id="link_yaml_docs_as_code"><path d="M670.87,111.33 C621.59,115.16 555.46,116.93 498,107 C487.26,105.14 481.7801,103.9632 471.1601,100.4732 " fill="transparent" id="yaml-to-docs_as_code" style="stroke:#181818;stroke-width:1;"/><polygon fill="#181818" points="465.46,98.6,472.7614,105.2099,470.2101,100.161,475.2589,97.6097,465.46,98.6" style="stroke:#181818;stroke-width:1;"/><text fill="#000000" font-family="sans-serif" font-size="13" lengthAdjust="spacing" textLength="52.311" x="534.5" y="103.0669">as input</text></g><!--SRC=[ROvB2W8n38RtFKKkC1vW5bwbn3JZ5FkYoO0YtjrMaB4ogq3-rnTuKT0CrLzN1USha_gSZ4F52mf3gPbOn3eMghvq4PxcjHjS9h4ebhBZKOdPRO6jSYm1jOi0W5NzWgGGMR4vE9mU60EWGB-3XU_OeYp3yridRSeSqKtJUOIQmV7Y4yk-QGP3J_p3pa0hq-qty-4yQ6_eFfLDtm00]--></g></svg>