<svg xmlns="http://www.w3.org/2000/svg" xmlns:xlink="http://www.w3.org/1999/xlink" contentStyleType="text/css" data-diagram-type="DESCRIPTION" height="520px" preserveAspectRatio="none" style="width:815px;height:520px;background:#FFFFFF;" version="1.1" viewBox="0 0 815 520" width="815px" zoomAndPan="magnify"><defs/><g><!--entity A--><g id="elem_A"><rect fill="#F1F1F1" height="46.2969" rx="2.5" ry="2.5" style="stroke:#181818;stroke-width:0.5;" width="156.0947" x="372" y="7"/><rect fill="#F1F1F1" height="10" style="stroke:#181818;stroke-width:0.5;" width="15" x="508.0947" y="12"/><rect fill="#F1F1F1" height="2" style="stroke:#181818;stroke-width:0.5;" width="4" x="506.0947" y="14"/><rect fill="#F1F1F1" height="2" style="stroke:#181818;stroke-width:0.5;" width="4" x="506.0947" y="18"/><text fill="#000000" font-family="sans-serif" font-size="14" lengthAdjust="spacing" textLength="116.0947" x="387" y="39.9951">Main Application</text></g><!--entity B--><g id="elem_B"><rect fill="#F1F1F1" height="46.2969" rx="2.5" ry="2.5" style="stroke:#181818;stroke-width:0.5;" width="104.1826" x="398" y="114"/><rect fill="#F1F1F1" height="10" style="stroke:#181818;stroke-width:0.5;" width="15" x="482.1826" y="119"/><rect fill="#F1F1F1" height="2" style="stroke:#181818;stroke-width:0.5;" width="4" x="480.1826" y="121"/><rect fill="#F1F1F1" height="2" style="stroke:#181818;stroke-width:0.5;" width="4" x="480.1826" y="125"/><text fill="#000000" font-family="sans-serif" font-size="14" lengthAdjust="spacing" textLength="64.1826" x="413" y="146.9951">ModelAPI</text></g><!--entity C--><g id="elem_C"><rect fill="#F1F1F1" height="46.2969" rx="2.5" ry="2.5" style="stroke:#181818;stroke-width:0.5;" width="162.917" x="263.5" y="221"/><rect fill="#F1F1F1" height="10" style="stroke:#181818;stroke-width:0.5;" width="15" x="406.417" y="226"/><rect fill="#F1F1F1" height="2" style="stroke:#181818;stroke-width:0.5;" width="4" x="404.417" y="228"/><rect fill="#F1F1F1" height="2" style="stroke:#181818;stroke-width:0.5;" width="4" x="404.417" y="232"/><text fill="#000000" font-family="sans-serif" font-size="14" lengthAdjust="spacing" textLength="122.917" x="278.5" y="253.9951">Adapter Interface</text></g><!--entity D1--><g id="elem_D1"><rect fill="#F1F1F1" height="62.5938" rx="2.5" ry="2.5" style="stroke:#181818;stroke-width:0.5;" width="145.1094" x="34.5" y="328"/><rect fill="#F1F1F1" height="10" style="stroke:#181818;stroke-width:0.5;" width="15" x="159.6094" y="333"/><rect fill="#F1F1F1" height="2" style="stroke:#181818;stroke-width:0.5;" width="4" x="157.6094" y="335"/><rect fill="#F1F1F1" height="2" style="stroke:#181818;stroke-width:0.5;" width="4" x="157.6094" y="339"/><text fill="#000000" font-family="sans-serif" font-size="14" lengthAdjust="spacing" textLength="97.3438" x="49.5" y="360.9951">ONNXAdapter</text><text fill="#000000" font-family="sans-serif" font-size="14" lengthAdjust="spacing" textLength="105.1094" x="49.5" y="377.292">ONNX Runtime</text></g><!--entity D2--><g id="elem_D2"><rect fill="#F1F1F1" height="62.5938" rx="2.5" ry="2.5" style="stroke:#181818;stroke-width:0.5;" width="122.6191" x="229.5" y="328"/><rect fill="#F1F1F1" height="10" style="stroke:#181818;stroke-width:0.5;" width="15" x="332.1191" y="333"/><rect fill="#F1F1F1" height="2" style="stroke:#181818;stroke-width:0.5;" width="4" x="330.1191" y="335"/><rect fill="#F1F1F1" height="2" style="stroke:#181818;stroke-width:0.5;" width="4" x="330.1191" y="339"/><text fill="#000000" font-family="sans-serif" font-size="14" lengthAdjust="spacing" textLength="82.6191" x="244.5" y="360.9951">TRTAdapter</text><text fill="#000000" font-family="sans-serif" font-size="14" lengthAdjust="spacing" textLength="65.9326" x="244.5" y="377.292">TensorRT</text></g><!--entity D3--><g id="elem_D3"><rect fill="#F1F1F1" height="62.5938" rx="2.5" ry="2.5" style="stroke:#181818;stroke-width:0.5;" width="132.2373" x="388" y="328"/><rect fill="#F1F1F1" height="10" style="stroke:#181818;stroke-width:0.5;" width="15" x="500.2373" y="333"/><rect fill="#F1F1F1" height="2" style="stroke:#181818;stroke-width:0.5;" width="4" x="498.2373" y="335"/><rect fill="#F1F1F1" height="2" style="stroke:#181818;stroke-width:0.5;" width="4" x="498.2373" y="339"/><text fill="#000000" font-family="sans-serif" font-size="14" lengthAdjust="spacing" textLength="92.2373" x="403" y="360.9951">MockAdapter</text><text fill="#000000" font-family="sans-serif" font-size="14" lengthAdjust="spacing" textLength="72.2354" x="403" y="377.292">for testing</text></g><!--entity E--><g id="elem_E"><rect fill="#F1F1F1" height="46.2969" rx="2.5" ry="2.5" style="stroke:#181818;stroke-width:0.5;" width="190.8145" x="515.5" y="221"/><rect fill="#F1F1F1" height="10" style="stroke:#181818;stroke-width:0.5;" width="15" x="686.3145" y="226"/><rect fill="#F1F1F1" height="2" style="stroke:#181818;stroke-width:0.5;" width="4" x="684.3145" y="228"/><rect fill="#F1F1F1" height="2" style="stroke:#181818;stroke-width:0.5;" width="4" x="684.3145" y="232"/><text fill="#000000" font-family="sans-serif" font-size="14" lengthAdjust="spacing" textLength="150.8145" x="530.5" y="253.9951">IOUtils / Preprocessor</text></g><!--entity F1--><g id="elem_F1"><rect fill="#F1F1F1" height="46.2969" rx="2.5" ry="2.5" style="stroke:#181818;stroke-width:0.5;" width="110.752" x="555.5" y="336.5"/><rect fill="#F1F1F1" height="10" style="stroke:#181818;stroke-width:0.5;" width="15" x="646.252" y="341.5"/><rect fill="#F1F1F1" height="2" style="stroke:#181818;stroke-width:0.5;" width="4" x="644.252" y="343.5"/><rect fill="#F1F1F1" height="2" style="stroke:#181818;stroke-width:0.5;" width="4" x="644.252" y="347.5"/><text fill="#000000" font-family="sans-serif" font-size="14" lengthAdjust="spacing" textLength="70.752" x="570.5" y="369.4951">Normalize</text></g><!--entity F2--><g id="elem_F2"><rect fill="#F1F1F1" height="62.5938" rx="2.5" ry="2.5" style="stroke:#181818;stroke-width:0.5;" width="107.8262" x="702" y="328"/><rect fill="#F1F1F1" height="10" style="stroke:#181818;stroke-width:0.5;" width="15" x="789.8262" y="333"/><rect fill="#F1F1F1" height="2" style="stroke:#181818;stroke-width:0.5;" width="4" x="787.8262" y="335"/><rect fill="#F1F1F1" height="2" style="stroke:#181818;stroke-width:0.5;" width="4" x="787.8262" y="339"/><text fill="#000000" font-family="sans-serif" font-size="14" lengthAdjust="spacing" textLength="60.5049" x="717" y="360.9951">Load .pb</text><text fill="#000000" font-family="sans-serif" font-size="14" lengthAdjust="spacing" textLength="67.8262" x="717" y="377.292">Test Data</text></g><!--entity G1--><g id="elem_G1"><rect fill="#F1F1F1" height="46.2969" rx="2.5" ry="2.5" style="stroke:#181818;stroke-width:0.5;" width="170.1357" x="7" y="468"/><rect fill="#F1F1F1" height="10" style="stroke:#181818;stroke-width:0.5;" width="15" x="157.1357" y="473"/><rect fill="#F1F1F1" height="2" style="stroke:#181818;stroke-width:0.5;" width="4" x="155.1357" y="475"/><rect fill="#F1F1F1" height="2" style="stroke:#181818;stroke-width:0.5;" width="4" x="155.1357" y="479"/><text fill="#000000" font-family="sans-serif" font-size="14" lengthAdjust="spacing" textLength="130.1357" x="22" y="500.9951">ONNX Runtime Lib</text></g><!--entity G2--><g id="elem_G2"><rect fill="#F1F1F1" height="46.2969" rx="2.5" ry="2.5" style="stroke:#181818;stroke-width:0.5;" width="158.3643" x="212" y="468"/><rect fill="#F1F1F1" height="10" style="stroke:#181818;stroke-width:0.5;" width="15" x="350.3643" y="473"/><rect fill="#F1F1F1" height="2" style="stroke:#181818;stroke-width:0.5;" width="4" x="348.3643" y="475"/><rect fill="#F1F1F1" height="2" style="stroke:#181818;stroke-width:0.5;" width="4" x="348.3643" y="479"/><text fill="#000000" font-family="sans-serif" font-size="14" lengthAdjust="spacing" textLength="118.3643" x="227" y="500.9951">TensorRT Engine</text></g><!--entity G3--><g id="elem_G3"><rect fill="#F1F1F1" height="46.2969" rx="2.5" ry="2.5" style="stroke:#181818;stroke-width:0.5;" width="160.0254" x="405" y="468"/><rect fill="#F1F1F1" height="10" style="stroke:#181818;stroke-width:0.5;" width="15" x="545.0254" y="473"/><rect fill="#F1F1F1" height="2" style="stroke:#181818;stroke-width:0.5;" width="4" x="543.0254" y="475"/><rect fill="#F1F1F1" height="2" style="stroke:#181818;stroke-width:0.5;" width="4" x="543.0254" y="479"/><text fill="#000000" font-family="sans-serif" font-size="14" lengthAdjust="spacing" textLength="120.0254" x="420" y="500.9951">Dummy Backend</text></g><!--link A to B--><g id="link_A_B"><path d="M450,53.01 C450,70.81 450,89.77 450,107.66 " fill="transparent" id="A-to-B" style="stroke:#181818;stroke-width:1;"/><polygon fill="#181818" points="450,113.66,454,104.66,450,108.66,446,104.66,450,113.66" style="stroke:#181818;stroke-width:1;"/></g><!--link B to C--><g id="link_B_C"><path d="M427.99,160.01 C410.19,177.81 389.4726,198.5274 371.5826,216.4174 " fill="transparent" id="B-to-C" style="stroke:#181818;stroke-width:1;"/><polygon fill="#181818" points="367.34,220.66,376.5324,217.1245,370.8755,217.1245,370.8755,211.4676,367.34,220.66" style="stroke:#181818;stroke-width:1;"/></g><!--link C to D1--><g id="link_C_D1"><path d="M298.83,267.02 C262.47,284.36 216.7756,306.1471 176.4556,325.3771 " fill="transparent" id="C-to-D1" style="stroke:#181818;stroke-width:1;"/><polygon fill="#181818" points="171.04,327.96,180.8853,327.6961,175.553,325.8076,177.4415,320.4753,171.04,327.96" style="stroke:#181818;stroke-width:1;"/></g><!--link C to D2--><g id="link_C_D2"><path d="M334.46,267.15 C326.23,284.44 317.2864,303.2413 308.1764,322.4013 " fill="transparent" id="C-to-D2" style="stroke:#181818;stroke-width:1;"/><polygon fill="#181818" points="305.6,327.82,313.0771,321.4096,307.747,323.3044,305.8522,317.9744,305.6,327.82" style="stroke:#181818;stroke-width:1;"/></g><!--link C to D3--><g id="link_C_D3"><path d="M366.28,267.15 C382.88,284.44 401.9852,304.3313 420.3752,323.4913 " fill="transparent" id="C-to-D3" style="stroke:#181818;stroke-width:1;"/><polygon fill="#181818" points="424.53,327.82,421.1837,318.5571,421.0677,324.2127,415.412,324.0967,424.53,327.82" style="stroke:#181818;stroke-width:1;"/></g><!--link B to E--><g id="link_B_E"><path d="M483.75,160.01 C511.14,177.87 544.5442,199.6627 571.9942,217.5627 " fill="transparent" id="B-to-E" style="stroke:#181818;stroke-width:1;"/><polygon fill="#181818" points="577.02,220.84,571.6661,212.5734,572.8318,218.1089,567.2963,219.2746,577.02,220.84" style="stroke:#181818;stroke-width:1;"/></g><!--link E to F1--><g id="link_E_F1"><path d="M611,267.15 C611,287.15 611,310.42 611,330.4 " fill="transparent" id="E-to-F1" style="stroke:#181818;stroke-width:1;"/><polygon fill="#181818" points="611,336.4,615,327.4,611,331.4,607,327.4,611,336.4" style="stroke:#181818;stroke-width:1;"/></g><!--link E to F2--><g id="link_E_F2"><path d="M639.3,267.15 C661.39,284.44 687.6059,304.961 712.0759,324.121 " fill="transparent" id="E-to-F2" style="stroke:#181818;stroke-width:1;"/><polygon fill="#181818" points="716.8,327.82,712.1798,319.1221,712.8632,324.7375,707.2478,325.4209,716.8,327.82" style="stroke:#181818;stroke-width:1;"/></g><!--link D1 to G1--><g id="link_D1_G1"><path d="M103.45,391.19 C100.72,414.68 97.7317,440.56 95.2817,461.67 " fill="transparent" id="D1-to-G1" style="stroke:#181818;stroke-width:1;"/><polygon fill="#181818" points="94.59,467.63,99.6009,459.1511,95.1664,462.6633,91.6542,458.2289,94.59,467.63" style="stroke:#181818;stroke-width:1;"/></g><!--link D2 to G2--><g id="link_D2_G2"><path d="M291,391.19 C291,414.68 291,440.52 291,461.63 " fill="transparent" id="D2-to-G2" style="stroke:#181818;stroke-width:1;"/><polygon fill="#181818" points="291,467.63,295,458.63,291,462.63,287,458.63,291,467.63" style="stroke:#181818;stroke-width:1;"/></g><!--link D3 to G3--><g id="link_D3_G3"><path d="M461.35,391.19 C466.97,414.68 473.1914,440.6853 478.2514,461.7953 " fill="transparent" id="D3-to-G3" style="stroke:#181818;stroke-width:1;stroke-dasharray:7.0,7.0;"/><polygon fill="#181818" points="479.65,467.63,481.442,457.9455,478.4845,462.7677,473.6623,459.8103,479.65,467.63" style="stroke:#181818;stroke-width:1;"/><text fill="#000000" font-family="sans-serif" font-size="13" lengthAdjust="spacing" textLength="49.5117" x="474" y="434.0669">dummy</text></g><!--SRC=[NP4nRuCm48Lt_ufJbaoX2cmTAW6c5L9A8aIb3bqSOr8hO5ksCxI_liO615suPzsdqtkyFM3MSS60oa59mOGrQ96mUoTSGAfKpocnN8eT40FfXf0jwzDBwJVPUfEsH5cceHJksn7AF9AlaNDLVKxObnWVK3-4vKD0yN7DDdMpe0qJHkgw2LYyzKFl2zT93POPoyKjeCaQBSyVblS6dk2YcTAICkEkUh1OSvNK0-dvRt3rkd5ragI5I5r7JyO29fO4AlwVSuu69txroDistXG92d5pVGHYSmG_Xk47CaBlJBHXdo2qdmlKhFSLcM-k34hXS7XnVMH-vYZtq_tHISIpS2S2Kw32JvTl4Z52-EYbiuhZe6A44uWYfn9uXdRqz0S0]--></g></svg>