<svg xmlns="http://www.w3.org/2000/svg" xmlns:xlink="http://www.w3.org/1999/xlink" contentStyleType="text/css" data-diagram-type="SEQUENCE" height="283px" preserveAspectRatio="none" style="width:578px;height:283px;background:#FFFFFF;" version="1.1" viewBox="0 0 578 283" width="578px" zoomAndPan="magnify"><defs/><g><rect fill="transparent" height="90.2031" style="stroke:#000000;stroke-width:1.5;" width="348.4727" x="10" y="140.6953"/><g><title>Feature User</title><rect fill="transparent" height="211.6016" width="8" x="68.1685" y="36.2969"/><line style="stroke:#181818;stroke-width:0.5;stroke-dasharray:5.0,5.0;" x1="72" x2="72" y1="36.2969" y2="247.8984"/></g><g><title>&#171;component&#187; :Component 2</title><rect fill="transparent" height="211.6016" width="8" x="237.4048" y="36.2969"/><line style="stroke:#181818;stroke-width:0.5;stroke-dasharray:5.0,5.0;" x1="241.3369" x2="241.3369" y1="36.2969" y2="247.8984"/></g><g><title>&#171;component&#187; :Component 1</title><rect fill="transparent" height="211.6016" width="8" x="461.5405" y="36.2969"/><line style="stroke:#181818;stroke-width:0.5;stroke-dasharray:5.0,5.0;" x1="465.4727" x2="465.4727" y1="36.2969" y2="247.8984"/></g><rect fill="#E2E2F0" height="30.2969" rx="2.5" ry="2.5" style="stroke:#181818;stroke-width:0.5;" width="104.3369" x="20" y="5"/><text fill="#000000" font-family="sans-serif" font-size="14" lengthAdjust="spacing" textLength="90.3369" x="27" y="24.9951">Feature User</text><rect fill="#E2E2F0" height="30.2969" rx="2.5" ry="2.5" style="stroke:#181818;stroke-width:0.5;" width="104.3369" x="20" y="246.8984"/><text fill="#000000" font-family="sans-serif" font-size="14" lengthAdjust="spacing" textLength="90.3369" x="27" y="266.8936">Feature User</text><rect fill="#E2E2F0" height="30.2969" rx="2.5" ry="2.5" style="stroke:#181818;stroke-width:0.5;" width="214.1357" x="134.3369" y="5"/><text fill="#000000" font-family="sans-serif" font-size="14" lengthAdjust="spacing" textLength="200.1357" x="141.3369" y="24.9951">&#171;component&#187; :Component 2</text><rect fill="#E2E2F0" height="30.2969" rx="2.5" ry="2.5" style="stroke:#181818;stroke-width:0.5;" width="214.1357" x="134.3369" y="246.8984"/><text fill="#000000" font-family="sans-serif" font-size="14" lengthAdjust="spacing" textLength="200.1357" x="141.3369" y="266.8936">&#171;component&#187; :Component 2</text><rect fill="#E2E2F0" height="30.2969" rx="2.5" ry="2.5" style="stroke:#181818;stroke-width:0.5;" width="214.1357" x="358.4727" y="5"/><text fill="#000000" font-family="sans-serif" font-size="14" lengthAdjust="spacing" textLength="200.1357" x="365.4727" y="24.9951">&#171;component&#187; :Component 1</text><rect fill="#E2E2F0" height="30.2969" rx="2.5" ry="2.5" style="stroke:#181818;stroke-width:0.5;" width="214.1357" x="358.4727" y="246.8984"/><text fill="#000000" font-family="sans-serif" font-size="14" lengthAdjust="spacing" textLength="200.1357" x="365.4727" y="266.8936">&#171;component&#187; :Component 1</text><polygon fill="#181818" points="229.4048,63.4297,239.4048,67.4297,229.4048,71.4297,233.4048,67.4297" style="stroke:#181818;stroke-width:1;"/><line style="stroke:#181818;stroke-width:1;" x1="72.1685" x2="235.4048" y1="67.4297" y2="67.4297"/><text fill="#000000" font-family="sans-serif" font-size="13" lengthAdjust="spacing" textLength="135.3828" x="79.1685" y="62.3638">logical operation 3 ()</text><polygon fill="#181818" points="453.5405,92.5625,463.5405,96.5625,453.5405,100.5625,457.5405,96.5625" style="stroke:#181818;stroke-width:1;"/><line style="stroke:#181818;stroke-width:1;" x1="241.4048" x2="459.5405" y1="96.5625" y2="96.5625"/><text fill="#000000" font-family="sans-serif" font-size="13" lengthAdjust="spacing" textLength="135.3828" x="248.4048" y="91.4966">logical operation 1 ()</text><polygon fill="#181818" points="252.4048,121.6953,242.4048,125.6953,252.4048,129.6953,248.4048,125.6953" style="stroke:#181818;stroke-width:1;"/><line style="stroke:#181818;stroke-width:1;stroke-dasharray:2.0,2.0;" x1="246.4048" x2="464.5405" y1="125.6953" y2="125.6953"/><text fill="#000000" font-family="sans-serif" font-size="13" lengthAdjust="spacing" textLength="37.064" x="258.4048" y="120.6294">result</text><path d="M10,140.6953 L74.4429,140.6953 L74.4429,147.8281 L64.4429,157.8281 L10,157.8281 L10,140.6953 " fill="#EEEEEE" style="stroke:#000000;stroke-width:1.5;"/><rect fill="transparent" height="90.2031" style="stroke:#000000;stroke-width:1.5;" width="348.4727" x="10" y="140.6953"/><text fill="#000000" font-family="sans-serif" font-size="13" font-weight="bold" lengthAdjust="spacing" textLength="19.4429" x="25" y="153.7622">alt</text><text fill="#000000" font-family="sans-serif" font-size="11" font-weight="bold" lengthAdjust="spacing" textLength="58.0293" x="89.4429" y="152.9058">[success]</text><polygon fill="#181818" points="83.1685,174.9609,73.1685,178.9609,83.1685,182.9609,79.1685,178.9609" style="stroke:#181818;stroke-width:1;"/><line style="stroke:#181818;stroke-width:1;stroke-dasharray:2.0,2.0;" x1="77.1685" x2="240.4048" y1="178.9609" y2="178.9609"/><text fill="#000000" font-family="sans-serif" font-size="13" lengthAdjust="spacing" textLength="50.8511" x="89.1685" y="173.895">success</text><line style="stroke:#000000;stroke-width:1;stroke-dasharray:2.0,2.0;" x1="10" x2="358.4727" y1="187.9609" y2="187.9609"/><text fill="#000000" font-family="sans-serif" font-size="11" font-weight="bold" lengthAdjust="spacing" textLength="41.3467" x="15" y="198.1714">[error]</text><polygon fill="#181818" points="83.1685,218.8984,73.1685,222.8984,83.1685,226.8984,79.1685,222.8984" style="stroke:#181818;stroke-width:1;"/><line style="stroke:#181818;stroke-width:1;" x1="77.1685" x2="240.4048" y1="222.8984" y2="222.8984"/><text fill="#000000" font-family="sans-serif" font-size="13" lengthAdjust="spacing" textLength="65.1587" x="89.1685" y="217.8325">error type</text><!--SRC=[ZSyn3i8m30NGtQVuOeAXGyhMWGM96t20A5WeKff4ZZjm9ex0rfCH0gqO6CXc-_bRoLRKEvzjL6nER7KInhcmR60BhDCabB_DV7Tfp2borFc1uRWKwDl6sF_9pPiRedO4tQ7k3WZfwfqDI9d5gayHUsntDFODc5_0D63GVIA4onIqvWP5cPpZKWZrlJ8gQUU6TSAXC5Ya_dD1gsbjw2qpSRpG4m00]--></g></svg>