<svg xmlns="http://www.w3.org/2000/svg" xmlns:xlink="http://www.w3.org/1999/xlink" contentStyleType="text/css" data-diagram-type="SEQUENCE" height="2117px" preserveAspectRatio="none" style="width:1059px;height:2117px;background:#FFFFFF;" version="1.1" viewBox="0 0 1059 2117" width="1059px" zoomAndPan="magnify"><defs/><g><rect fill="#E0E0E0" height="2105.9609" style="stroke:#181818;stroke-width:0.5;" width="353.3569" x="1" y="6"/><text fill="#000000" font-family="sans-serif" font-size="13" font-weight="bold" lengthAdjust="spacing" textLength="118.9932" x="118.1819" y="18.0669">Primary Process</text><rect fill="#F0F0F0" height="2105.9609" style="stroke:#181818;stroke-width:0.5;" width="399.1299" x="356.3569" y="6"/><text fill="#000000" font-family="sans-serif" font-size="13" font-weight="bold" lengthAdjust="spacing" textLength="152.001" x="479.9214" y="18.0669">Secondary Process 1</text><rect fill="#F0F0F0" height="2105.9609" style="stroke:#181818;stroke-width:0.5;" width="277.2598" x="757.4868" y="6"/><text fill="#000000" font-family="sans-serif" font-size="13" font-weight="bold" lengthAdjust="spacing" textLength="152.001" x="820.1162" y="18.0669">Secondary Process 2</text><g><title>Scheduler</title><rect fill="#FFFFFF" height="229.9297" style="stroke:#181818;stroke-width:1;" width="10" x="181.4424" y="360.7578"/></g><g><title>Scheduler</title><rect fill="#FFFFFF" height="1361.5781" style="stroke:#181818;stroke-width:1;" width="10" x="181.4424" y="698.0859"/></g><rect fill="transparent" height="328.4609" style="stroke:#000000;stroke-width:1.5;" width="914.3486" x="116" y="1332.6094"/><g><title>Primary Agent</title><rect fill="transparent" height="2021.2344" width="8" x="58.1177" y="56.4297"/><line style="stroke:#181818;stroke-width:0.5;stroke-dasharray:5.0,5.0;" x1="62" x2="62" y1="56.4297" y2="2077.6641"/></g><g><title>Scheduler</title><rect fill="transparent" height="2021.2344" width="8" x="182.4424" y="56.4297"/><line style="stroke:#181818;stroke-width:0.5;stroke-dasharray:5.0,5.0;" x1="186.3979" x2="186.3979" y1="56.4297" y2="2077.6641"/></g><g><title>UserActivity 1</title><rect fill="transparent" height="2021.2344" width="8" x="290.4219" y="56.4297"/><line style="stroke:#181818;stroke-width:0.5;stroke-dasharray:5.0,5.0;" x1="293.4868" x2="293.4868" y1="56.4297" y2="2077.6641"/></g><g><title>Secondary Agent 1</title><rect fill="transparent" height="2021.2344" width="8" x="430.0518" y="56.4297"/><line style="stroke:#181818;stroke-width:0.5;stroke-dasharray:5.0,5.0;" x1="433.3569" x2="433.3569" y1="56.4297" y2="2077.6641"/></g><g><title>UserActivity 2</title><rect fill="transparent" height="2021.2344" width="8" x="569.6816" y="56.4297"/><line style="stroke:#181818;stroke-width:0.5;stroke-dasharray:5.0,5.0;" x1="572.7466" x2="572.7466" y1="56.4297" y2="2077.6641"/></g><g><title>UserActivity 3</title><rect fill="transparent" height="2021.2344" width="8" x="691.5518" y="56.4297"/><line style="stroke:#181818;stroke-width:0.5;stroke-dasharray:5.0,5.0;" x1="694.6167" x2="694.6167" y1="56.4297" y2="2077.6641"/></g><g><title>Secondary Agent 2</title><rect fill="transparent" height="2021.2344" width="8" x="831.1816" y="56.4297"/><line style="stroke:#181818;stroke-width:0.5;stroke-dasharray:5.0,5.0;" x1="834.4868" x2="834.4868" y1="56.4297" y2="2077.6641"/></g><g><title>UserActivity 4</title><rect fill="transparent" height="2021.2344" width="8" x="970.8115" y="56.4297"/><line style="stroke:#181818;stroke-width:0.5;stroke-dasharray:5.0,5.0;" x1="973.8765" x2="973.8765" y1="56.4297" y2="2077.6641"/></g><rect fill="#E2E2F0" height="30.2969" rx="2.5" ry="2.5" style="stroke:#181818;stroke-width:0.5;" width="114.2354" x="5" y="25.1328"/><text fill="#000000" font-family="sans-serif" font-size="14" lengthAdjust="spacing" textLength="100.2354" x="12" y="45.1279">Primary Agent</text><rect fill="#E2E2F0" height="30.2969" rx="2.5" ry="2.5" style="stroke:#181818;stroke-width:0.5;" width="114.2354" x="5" y="2076.6641"/><text fill="#000000" font-family="sans-serif" font-size="14" lengthAdjust="spacing" textLength="100.2354" x="12" y="2096.6592">Primary Agent</text><rect fill="#E2E2F0" height="30.2969" rx="2.5" ry="2.5" style="stroke:#181818;stroke-width:0.5;" width="84.0889" x="144.3979" y="25.1328"/><text fill="#000000" font-family="sans-serif" font-size="14" lengthAdjust="spacing" textLength="70.0889" x="151.3979" y="45.1279">Scheduler</text><rect fill="#E2E2F0" height="30.2969" rx="2.5" ry="2.5" style="stroke:#181818;stroke-width:0.5;" width="84.0889" x="144.3979" y="2076.6641"/><text fill="#000000" font-family="sans-serif" font-size="14" lengthAdjust="spacing" textLength="70.0889" x="151.3979" y="2096.6592">Scheduler</text><rect fill="#E2E2F0" height="30.2969" rx="2.5" ry="2.5" style="stroke:#181818;stroke-width:0.5;" width="111.8701" x="238.4868" y="25.1328"/><text fill="#000000" font-family="sans-serif" font-size="14" lengthAdjust="spacing" textLength="97.8701" x="245.4868" y="45.1279">UserActivity 1</text><rect fill="#E2E2F0" height="30.2969" rx="2.5" ry="2.5" style="stroke:#181818;stroke-width:0.5;" width="111.8701" x="238.4868" y="2076.6641"/><text fill="#000000" font-family="sans-serif" font-size="14" lengthAdjust="spacing" textLength="97.8701" x="245.4868" y="2096.6592">UserActivity 1</text><rect fill="#E2E2F0" height="30.2969" rx="2.5" ry="2.5" style="stroke:#181818;stroke-width:0.5;" width="147.3896" x="360.3569" y="25.1328"/><text fill="#000000" font-family="sans-serif" font-size="14" lengthAdjust="spacing" textLength="133.3896" x="367.3569" y="45.1279">Secondary Agent 1</text><rect fill="#E2E2F0" height="30.2969" rx="2.5" ry="2.5" style="stroke:#181818;stroke-width:0.5;" width="147.3896" x="360.3569" y="2076.6641"/><text fill="#000000" font-family="sans-serif" font-size="14" lengthAdjust="spacing" textLength="133.3896" x="367.3569" y="2096.6592">Secondary Agent 1</text><rect fill="#E2E2F0" height="30.2969" rx="2.5" ry="2.5" style="stroke:#181818;stroke-width:0.5;" width="111.8701" x="517.7466" y="25.1328"/><text fill="#000000" font-family="sans-serif" font-size="14" lengthAdjust="spacing" textLength="97.8701" x="524.7466" y="45.1279">UserActivity 2</text><rect fill="#E2E2F0" height="30.2969" rx="2.5" ry="2.5" style="stroke:#181818;stroke-width:0.5;" width="111.8701" x="517.7466" y="2076.6641"/><text fill="#000000" font-family="sans-serif" font-size="14" lengthAdjust="spacing" textLength="97.8701" x="524.7466" y="2096.6592">UserActivity 2</text><rect fill="#E2E2F0" height="30.2969" rx="2.5" ry="2.5" style="stroke:#181818;stroke-width:0.5;" width="111.8701" x="639.6167" y="25.1328"/><text fill="#000000" font-family="sans-serif" font-size="14" lengthAdjust="spacing" textLength="97.8701" x="646.6167" y="45.1279">UserActivity 3</text><rect fill="#E2E2F0" height="30.2969" rx="2.5" ry="2.5" style="stroke:#181818;stroke-width:0.5;" width="111.8701" x="639.6167" y="2076.6641"/><text fill="#000000" font-family="sans-serif" font-size="14" lengthAdjust="spacing" textLength="97.8701" x="646.6167" y="2096.6592">UserActivity 3</text><rect fill="#E2E2F0" height="30.2969" rx="2.5" ry="2.5" style="stroke:#181818;stroke-width:0.5;" width="147.3896" x="761.4868" y="25.1328"/><text fill="#000000" font-family="sans-serif" font-size="14" lengthAdjust="spacing" textLength="133.3896" x="768.4868" y="45.1279">Secondary Agent 2</text><rect fill="#E2E2F0" height="30.2969" rx="2.5" ry="2.5" style="stroke:#181818;stroke-width:0.5;" width="147.3896" x="761.4868" y="2076.6641"/><text fill="#000000" font-family="sans-serif" font-size="14" lengthAdjust="spacing" textLength="133.3896" x="768.4868" y="2096.6592">Secondary Agent 2</text><rect fill="#E2E2F0" height="30.2969" rx="2.5" ry="2.5" style="stroke:#181818;stroke-width:0.5;" width="111.8701" x="918.8765" y="25.1328"/><text fill="#000000" font-family="sans-serif" font-size="14" lengthAdjust="spacing" textLength="97.8701" x="925.8765" y="45.1279">UserActivity 4</text><rect fill="#E2E2F0" height="30.2969" rx="2.5" ry="2.5" style="stroke:#181818;stroke-width:0.5;" width="111.8701" x="918.8765" y="2076.6641"/><text fill="#000000" font-family="sans-serif" font-size="14" lengthAdjust="spacing" textLength="97.8701" x="925.8765" y="2096.6592">UserActivity 4</text><g><title>Scheduler</title><rect fill="#FFFFFF" height="229.9297" style="stroke:#181818;stroke-width:1;" width="10" x="181.4424" y="360.7578"/></g><g><title>Scheduler</title><rect fill="#FFFFFF" height="1361.5781" style="stroke:#181818;stroke-width:1;" width="10" x="181.4424" y="698.0859"/></g><rect fill="#EEEEEE" height="3" style="stroke:#EEEEEE;stroke-width:1;" width="1052.2373" x="0" y="86.9961"/><line style="stroke:#000000;stroke-width:1;" x1="0" x2="1052.2373" y1="86.9961" y2="86.9961"/><line style="stroke:#000000;stroke-width:1;" x1="0" x2="1052.2373" y1="89.9961" y2="89.9961"/><rect fill="#EEEEEE" height="23.1328" style="stroke:#000000;stroke-width:2;" width="135.4561" x="458.3906" y="76.4297"/><text fill="#000000" font-family="sans-serif" font-size="13" font-weight="bold" lengthAdjust="spacing" textLength="116.9302" x="464.3906" y="92.4966">Process Startup</text><line style="stroke:#181818;stroke-width:1;" x1="62.1177" x2="104.1177" y1="145.8281" y2="145.8281"/><line style="stroke:#181818;stroke-width:1;" x1="104.1177" x2="104.1177" y1="145.8281" y2="158.8281"/><line style="stroke:#181818;stroke-width:1;" x1="63.1177" x2="104.1177" y1="158.8281" y2="158.8281"/><polygon fill="#181818" points="73.1177,154.8281,63.1177,158.8281,73.1177,162.8281,69.1177,158.8281" style="stroke:#181818;stroke-width:1;"/><text fill="#000000" font-family="sans-serif" font-size="13" lengthAdjust="spacing" textLength="41.5518" x="69.1177" y="125.6294">create</text><text fill="#000000" font-family="sans-serif" font-size="13" lengthAdjust="spacing" textLength="98.6045" x="69.1177" y="140.7622">worker threads</text><line style="stroke:#181818;stroke-width:1;" x1="434.0518" x2="476.0518" y1="203.0938" y2="203.0938"/><line style="stroke:#181818;stroke-width:1;" x1="476.0518" x2="476.0518" y1="203.0938" y2="216.0938"/><line style="stroke:#181818;stroke-width:1;" x1="435.0518" x2="476.0518" y1="216.0938" y2="216.0938"/><polygon fill="#181818" points="445.0518,212.0938,435.0518,216.0938,445.0518,220.0938,441.0518,216.0938" style="stroke:#181818;stroke-width:1;"/><text fill="#000000" font-family="sans-serif" font-size="13" lengthAdjust="spacing" textLength="41.5518" x="441.0518" y="182.895">create</text><text fill="#000000" font-family="sans-serif" font-size="13" lengthAdjust="spacing" textLength="98.6045" x="441.0518" y="198.0278">worker threads</text><line style="stroke:#181818;stroke-width:1;" x1="835.1816" x2="877.1816" y1="260.3594" y2="260.3594"/><line style="stroke:#181818;stroke-width:1;" x1="877.1816" x2="877.1816" y1="260.3594" y2="273.3594"/><line style="stroke:#181818;stroke-width:1;" x1="836.1816" x2="877.1816" y1="273.3594" y2="273.3594"/><polygon fill="#181818" points="846.1816,269.3594,836.1816,273.3594,846.1816,277.3594,842.1816,273.3594" style="stroke:#181818;stroke-width:1;"/><text fill="#000000" font-family="sans-serif" font-size="13" lengthAdjust="spacing" textLength="41.5518" x="842.1816" y="240.1606">create</text><text fill="#000000" font-family="sans-serif" font-size="13" lengthAdjust="spacing" textLength="98.6045" x="842.1816" y="255.2935">worker threads</text><polygon fill="#181818" points="73.1177,298.4922,63.1177,302.4922,73.1177,306.4922,69.1177,302.4922" style="stroke:#181818;stroke-width:1;"/><line style="stroke:#181818;stroke-width:1;" x1="67.1177" x2="433.0518" y1="302.4922" y2="302.4922"/><text fill="#000000" font-family="sans-serif" font-size="13" lengthAdjust="spacing" textLength="51.8223" x="79.1177" y="297.4263">connect</text><polygon fill="#181818" points="73.1177,327.625,63.1177,331.625,73.1177,335.625,69.1177,331.625" style="stroke:#181818;stroke-width:1;"/><line style="stroke:#181818;stroke-width:1;" x1="67.1177" x2="834.1816" y1="331.625" y2="331.625"/><text fill="#000000" font-family="sans-serif" font-size="13" lengthAdjust="spacing" textLength="51.8223" x="79.1177" y="326.5591">connect</text><polygon fill="#181818" points="169.4424,356.7578,179.4424,360.7578,169.4424,364.7578,173.4424,360.7578" style="stroke:#181818;stroke-width:1;"/><line style="stroke:#181818;stroke-width:1;" x1="62.1177" x2="175.4424" y1="360.7578" y2="360.7578"/><text fill="#000000" font-family="sans-serif" font-size="13" lengthAdjust="spacing" textLength="100.3247" x="69.1177" y="355.6919">sync_remotes()</text><polygon fill="#181818" points="422.0518,385.8906,432.0518,389.8906,422.0518,393.8906,426.0518,389.8906" style="stroke:#181818;stroke-width:1;"/><line style="stroke:#181818;stroke-width:1;" x1="191.4424" x2="428.0518" y1="389.8906" y2="389.8906"/><text fill="#000000" font-family="sans-serif" font-size="13" lengthAdjust="spacing" textLength="29.853" x="198.4424" y="384.8247">sync</text><polygon fill="#181818" points="823.1816,415.0234,833.1816,419.0234,823.1816,423.0234,827.1816,419.0234" style="stroke:#181818;stroke-width:1;"/><line style="stroke:#181818;stroke-width:1;" x1="191.4424" x2="829.1816" y1="419.0234" y2="419.0234"/><text fill="#000000" font-family="sans-serif" font-size="13" lengthAdjust="spacing" textLength="29.853" x="198.4424" y="413.9575">sync</text><line style="stroke:#181818;stroke-width:1;" x1="434.0518" x2="476.0518" y1="448.1563" y2="448.1563"/><line style="stroke:#181818;stroke-width:1;" x1="476.0518" x2="476.0518" y1="448.1563" y2="461.1563"/><line style="stroke:#181818;stroke-width:1;" x1="435.0518" x2="476.0518" y1="461.1563" y2="461.1563"/><polygon fill="#181818" points="445.0518,457.1563,435.0518,461.1563,445.0518,465.1563,441.0518,461.1563" style="stroke:#181818;stroke-width:1;"/><text fill="#000000" font-family="sans-serif" font-size="13" lengthAdjust="spacing" textLength="29.853" x="441.0518" y="443.0903">sync</text><line style="stroke:#181818;stroke-width:1;" x1="835.1816" x2="877.1816" y1="490.2891" y2="490.2891"/><line style="stroke:#181818;stroke-width:1;" x1="877.1816" x2="877.1816" y1="490.2891" y2="503.2891"/><line style="stroke:#181818;stroke-width:1;" x1="836.1816" x2="877.1816" y1="503.2891" y2="503.2891"/><polygon fill="#181818" points="846.1816,499.2891,836.1816,503.2891,846.1816,507.2891,842.1816,503.2891" style="stroke:#181818;stroke-width:1;"/><text fill="#000000" font-family="sans-serif" font-size="13" lengthAdjust="spacing" textLength="29.853" x="842.1816" y="485.2231">sync</text><polygon fill="#181818" points="202.4424,528.4219,192.4424,532.4219,202.4424,536.4219,198.4424,532.4219" style="stroke:#181818;stroke-width:1;"/><line style="stroke:#181818;stroke-width:1;stroke-dasharray:2.0,2.0;" x1="196.4424" x2="433.0518" y1="532.4219" y2="532.4219"/><text fill="#000000" font-family="sans-serif" font-size="13" lengthAdjust="spacing" textLength="37.2544" x="208.4424" y="527.356">ready</text><polygon fill="#181818" points="202.4424,557.5547,192.4424,561.5547,202.4424,565.5547,198.4424,561.5547" style="stroke:#181818;stroke-width:1;"/><line style="stroke:#181818;stroke-width:1;stroke-dasharray:2.0,2.0;" x1="196.4424" x2="834.1816" y1="561.5547" y2="561.5547"/><text fill="#000000" font-family="sans-serif" font-size="13" lengthAdjust="spacing" textLength="37.2544" x="208.4424" y="556.4888">ready</text><polygon fill="#181818" points="73.1177,586.6875,63.1177,590.6875,73.1177,594.6875,69.1177,590.6875" style="stroke:#181818;stroke-width:1;"/><line style="stroke:#181818;stroke-width:1;stroke-dasharray:2.0,2.0;" x1="67.1177" x2="185.4424" y1="590.6875" y2="590.6875"/><text fill="#000000" font-family="sans-serif" font-size="13" lengthAdjust="spacing" textLength="15.4819" x="79.1177" y="585.6216">ok</text><rect fill="#EEEEEE" height="3" style="stroke:#EEEEEE;stroke-width:1;" width="1052.2373" x="0" y="619.2539"/><line style="stroke:#000000;stroke-width:1;" x1="0" x2="1052.2373" y1="619.2539" y2="619.2539"/><line style="stroke:#000000;stroke-width:1;" x1="0" x2="1052.2373" y1="622.2539" y2="622.2539"/><rect fill="#EEEEEE" height="23.1328" style="stroke:#000000;stroke-width:2;" width="134.6436" x="458.7969" y="608.6875"/><text fill="#000000" font-family="sans-serif" font-size="13" font-weight="bold" lengthAdjust="spacing" textLength="116.1177" x="464.7969" y="624.7544">Activity Startup</text><path d="M139,646.8203 L139,671.8203 L1020,671.8203 L1020,656.8203 L1010,646.8203 L139,646.8203 " fill="#FEFFDD" style="stroke:#181818;stroke-width:0.5;"/><path d="M1010,646.8203 L1010,656.8203 L1020,656.8203 L1010,646.8203 " fill="#FEFFDD" style="stroke:#181818;stroke-width:0.5;"/><text fill="#000000" font-family="sans-serif" font-size="13" lengthAdjust="spacing" textLength="464.5723" x="342.8882" y="663.8872">Call each activity's startup() method exactly once in an arbitrary order.</text><polygon fill="#181818" points="169.4424,694.0859,179.4424,698.0859,169.4424,702.0859,173.4424,698.0859" style="stroke:#181818;stroke-width:1;"/><line style="stroke:#181818;stroke-width:1;" x1="62.1177" x2="175.4424" y1="698.0859" y2="698.0859"/><text fill="#000000" font-family="sans-serif" font-size="13" lengthAdjust="spacing" textLength="31.9668" x="69.1177" y="693.02">run()</text><polygon fill="#181818" points="282.4219,723.2188,292.4219,727.2188,282.4219,731.2188,286.4219,727.2188" style="stroke:#181818;stroke-width:1;"/><line style="stroke:#181818;stroke-width:1;" x1="191.4424" x2="288.4219" y1="727.2188" y2="727.2188"/><text fill="#000000" font-family="sans-serif" font-size="13" lengthAdjust="spacing" textLength="56.9131" x="198.4424" y="722.1528">startup()</text><line style="stroke:#181818;stroke-width:1;" x1="294.4219" x2="336.4219" y1="756.3516" y2="756.3516"/><line style="stroke:#181818;stroke-width:1;" x1="336.4219" x2="336.4219" y1="756.3516" y2="769.3516"/><line style="stroke:#181818;stroke-width:1;" x1="295.4219" x2="336.4219" y1="769.3516" y2="769.3516"/><polygon fill="#181818" points="305.4219,765.3516,295.4219,769.3516,305.4219,773.3516,301.4219,769.3516" style="stroke:#181818;stroke-width:1;"/><text fill="#000000" font-family="sans-serif" font-size="13" lengthAdjust="spacing" textLength="46.7695" x="301.4219" y="751.2856">startup</text><polygon fill="#181818" points="202.4424,794.4844,192.4424,798.4844,202.4424,802.4844,198.4424,798.4844" style="stroke:#181818;stroke-width:1;"/><line style="stroke:#181818;stroke-width:1;stroke-dasharray:2.0,2.0;" x1="196.4424" x2="293.4219" y1="798.4844" y2="798.4844"/><text fill="#000000" font-family="sans-serif" font-size="13" lengthAdjust="spacing" textLength="37.2544" x="208.4424" y="793.4185">ready</text><polygon fill="#181818" points="422.0518,823.6172,432.0518,827.6172,422.0518,831.6172,426.0518,827.6172" style="stroke:#181818;stroke-width:1;"/><line style="stroke:#181818;stroke-width:1;" x1="191.4424" x2="428.0518" y1="827.6172" y2="827.6172"/><text fill="#000000" font-family="sans-serif" font-size="13" lengthAdjust="spacing" textLength="73.1504" x="198.4424" y="822.5513">startup(a2)</text><polygon fill="#181818" points="561.6816,852.75,571.6816,856.75,561.6816,860.75,565.6816,856.75" style="stroke:#181818;stroke-width:1;"/><line style="stroke:#181818;stroke-width:1;" x1="434.0518" x2="567.6816" y1="856.75" y2="856.75"/><text fill="#000000" font-family="sans-serif" font-size="13" lengthAdjust="spacing" textLength="56.9131" x="441.0518" y="851.6841">startup()</text><line style="stroke:#181818;stroke-width:1;" x1="573.6816" x2="615.6816" y1="885.8828" y2="885.8828"/><line style="stroke:#181818;stroke-width:1;" x1="615.6816" x2="615.6816" y1="885.8828" y2="898.8828"/><line style="stroke:#181818;stroke-width:1;" x1="574.6816" x2="615.6816" y1="898.8828" y2="898.8828"/><polygon fill="#181818" points="584.6816,894.8828,574.6816,898.8828,584.6816,902.8828,580.6816,898.8828" style="stroke:#181818;stroke-width:1;"/><text fill="#000000" font-family="sans-serif" font-size="13" lengthAdjust="spacing" textLength="46.7695" x="580.6816" y="880.8169">startup</text><polygon fill="#181818" points="445.0518,924.0156,435.0518,928.0156,445.0518,932.0156,441.0518,928.0156" style="stroke:#181818;stroke-width:1;"/><line style="stroke:#181818;stroke-width:1;stroke-dasharray:2.0,2.0;" x1="439.0518" x2="572.6816" y1="928.0156" y2="928.0156"/><text fill="#000000" font-family="sans-serif" font-size="13" lengthAdjust="spacing" textLength="37.2544" x="451.0518" y="922.9497">ready</text><polygon fill="#181818" points="202.4424,953.1484,192.4424,957.1484,202.4424,961.1484,198.4424,957.1484" style="stroke:#181818;stroke-width:1;"/><line style="stroke:#181818;stroke-width:1;stroke-dasharray:2.0,2.0;" x1="196.4424" x2="433.0518" y1="957.1484" y2="957.1484"/><text fill="#000000" font-family="sans-serif" font-size="13" lengthAdjust="spacing" textLength="63.6353" x="208.4424" y="952.0825">ready(a2)</text><polygon fill="#181818" points="422.0518,982.2813,432.0518,986.2813,422.0518,990.2813,426.0518,986.2813" style="stroke:#181818;stroke-width:1;"/><line style="stroke:#181818;stroke-width:1;" x1="191.4424" x2="428.0518" y1="986.2813" y2="986.2813"/><text fill="#000000" font-family="sans-serif" font-size="13" lengthAdjust="spacing" textLength="73.1504" x="198.4424" y="981.2153">startup(a3)</text><polygon fill="#181818" points="683.5518,1011.4141,693.5518,1015.4141,683.5518,1019.4141,687.5518,1015.4141" style="stroke:#181818;stroke-width:1;"/><line style="stroke:#181818;stroke-width:1;" x1="434.0518" x2="689.5518" y1="1015.4141" y2="1015.4141"/><text fill="#000000" font-family="sans-serif" font-size="13" lengthAdjust="spacing" textLength="56.9131" x="441.0518" y="1010.3481">startup()</text><line style="stroke:#181818;stroke-width:1;" x1="695.5518" x2="737.5518" y1="1044.5469" y2="1044.5469"/><line style="stroke:#181818;stroke-width:1;" x1="737.5518" x2="737.5518" y1="1044.5469" y2="1057.5469"/><line style="stroke:#181818;stroke-width:1;" x1="696.5518" x2="737.5518" y1="1057.5469" y2="1057.5469"/><polygon fill="#181818" points="706.5518,1053.5469,696.5518,1057.5469,706.5518,1061.5469,702.5518,1057.5469" style="stroke:#181818;stroke-width:1;"/><text fill="#000000" font-family="sans-serif" font-size="13" lengthAdjust="spacing" textLength="46.7695" x="702.5518" y="1039.481">startup</text><polygon fill="#181818" points="445.0518,1082.6797,435.0518,1086.6797,445.0518,1090.6797,441.0518,1086.6797" style="stroke:#181818;stroke-width:1;"/><line style="stroke:#181818;stroke-width:1;stroke-dasharray:2.0,2.0;" x1="439.0518" x2="694.5518" y1="1086.6797" y2="1086.6797"/><text fill="#000000" font-family="sans-serif" font-size="13" lengthAdjust="spacing" textLength="37.2544" x="451.0518" y="1081.6138">ready</text><polygon fill="#181818" points="202.4424,1111.8125,192.4424,1115.8125,202.4424,1119.8125,198.4424,1115.8125" style="stroke:#181818;stroke-width:1;"/><line style="stroke:#181818;stroke-width:1;stroke-dasharray:2.0,2.0;" x1="196.4424" x2="433.0518" y1="1115.8125" y2="1115.8125"/><text fill="#000000" font-family="sans-serif" font-size="13" lengthAdjust="spacing" textLength="63.6353" x="208.4424" y="1110.7466">ready(a3)</text><polygon fill="#181818" points="823.1816,1140.9453,833.1816,1144.9453,823.1816,1148.9453,827.1816,1144.9453" style="stroke:#181818;stroke-width:1;"/><line style="stroke:#181818;stroke-width:1;" x1="191.4424" x2="829.1816" y1="1144.9453" y2="1144.9453"/><text fill="#000000" font-family="sans-serif" font-size="13" lengthAdjust="spacing" textLength="73.1504" x="198.4424" y="1139.8794">startup(a4)</text><polygon fill="#181818" points="962.8115,1170.0781,972.8115,1174.0781,962.8115,1178.0781,966.8115,1174.0781" style="stroke:#181818;stroke-width:1;"/><line style="stroke:#181818;stroke-width:1;" x1="835.1816" x2="968.8115" y1="1174.0781" y2="1174.0781"/><text fill="#000000" font-family="sans-serif" font-size="13" lengthAdjust="spacing" textLength="56.9131" x="842.1816" y="1169.0122">startup()</text><line style="stroke:#181818;stroke-width:1;" x1="974.8115" x2="1016.8115" y1="1203.2109" y2="1203.2109"/><line style="stroke:#181818;stroke-width:1;" x1="1016.8115" x2="1016.8115" y1="1203.2109" y2="1216.2109"/><line style="stroke:#181818;stroke-width:1;" x1="975.8115" x2="1016.8115" y1="1216.2109" y2="1216.2109"/><polygon fill="#181818" points="985.8115,1212.2109,975.8115,1216.2109,985.8115,1220.2109,981.8115,1216.2109" style="stroke:#181818;stroke-width:1;"/><text fill="#000000" font-family="sans-serif" font-size="13" lengthAdjust="spacing" textLength="46.7695" x="981.8115" y="1198.145">startup</text><polygon fill="#181818" points="846.1816,1241.3438,836.1816,1245.3438,846.1816,1249.3438,842.1816,1245.3438" style="stroke:#181818;stroke-width:1;"/><line style="stroke:#181818;stroke-width:1;stroke-dasharray:2.0,2.0;" x1="840.1816" x2="973.8115" y1="1245.3438" y2="1245.3438"/><text fill="#000000" font-family="sans-serif" font-size="13" lengthAdjust="spacing" textLength="37.2544" x="852.1816" y="1240.2778">ready</text><polygon fill="#181818" points="202.4424,1270.4766,192.4424,1274.4766,202.4424,1278.4766,198.4424,1274.4766" style="stroke:#181818;stroke-width:1;"/><line style="stroke:#181818;stroke-width:1;stroke-dasharray:2.0,2.0;" x1="196.4424" x2="834.1816" y1="1274.4766" y2="1274.4766"/><text fill="#000000" font-family="sans-serif" font-size="13" lengthAdjust="spacing" textLength="63.6353" x="208.4424" y="1269.4106">ready(a4)</text><rect fill="#EEEEEE" height="3" style="stroke:#EEEEEE;stroke-width:1;" width="1052.2373" x="0" y="1303.043"/><line style="stroke:#000000;stroke-width:1;" x1="0" x2="1052.2373" y1="1303.043" y2="1303.043"/><line style="stroke:#000000;stroke-width:1;" x1="0" x2="1052.2373" y1="1306.043" y2="1306.043"/><rect fill="#EEEEEE" height="23.1328" style="stroke:#000000;stroke-width:2;" width="93.9233" x="479.157" y="1292.4766"/><text fill="#000000" font-family="sans-serif" font-size="13" font-weight="bold" lengthAdjust="spacing" textLength="75.3975" x="485.157" y="1308.5435">Main Loop</text><path d="M116,1332.6094 L192.624,1332.6094 L192.624,1339.7422 L182.624,1349.7422 L116,1349.7422 L116,1332.6094 " fill="#EEEEEE" style="stroke:#000000;stroke-width:1.5;"/><rect fill="transparent" height="328.4609" style="stroke:#000000;stroke-width:1.5;" width="914.3486" x="116" y="1332.6094"/><text fill="#000000" font-family="sans-serif" font-size="13" font-weight="bold" lengthAdjust="spacing" textLength="31.624" x="131" y="1345.6763">loop</text><path d="M139,1354.7422 L139,1379.7422 L1020,1379.7422 L1020,1364.7422 L1010,1354.7422 L139,1354.7422 " fill="#FEFFDD" style="stroke:#181818;stroke-width:0.5;"/><path d="M1010,1354.7422 L1010,1364.7422 L1020,1364.7422 L1010,1354.7422 " fill="#FEFFDD" style="stroke:#181818;stroke-width:0.5;"/><text fill="#000000" font-family="sans-serif" font-size="13" lengthAdjust="spacing" textLength="496.3296" x="327.0095" y="1371.8091">Call each activity's step() method in the order defined by the activity graph.</text><path d="M139,1389.875 L139,1414.875 L1020,1414.875 L1020,1399.875 L1010,1389.875 L139,1389.875 " fill="#FFAAAA" style="stroke:#181818;stroke-width:0.5;"/><path d="M1010,1389.875 L1010,1399.875 L1020,1399.875 L1010,1389.875 " fill="#FFAAAA" style="stroke:#181818;stroke-width:0.5;"/><text fill="#000000" font-family="sans-serif" font-size="13" lengthAdjust="spacing" textLength="598.7617" x="275.7935" y="1406.9419">TODO: The loop end-conditions are not yet defined in the feature request. =&gt; Endless loop.</text><polygon fill="#181818" points="422.0518,1437.1406,432.0518,1441.1406,422.0518,1445.1406,426.0518,1441.1406" style="stroke:#181818;stroke-width:1;"/><line style="stroke:#181818;stroke-width:1;" x1="191.4424" x2="428.0518" y1="1441.1406" y2="1441.1406"/><text fill="#000000" font-family="sans-serif" font-size="13" lengthAdjust="spacing" textLength="54.501" x="198.4424" y="1436.0747">step(a3)</text><polygon fill="#181818" points="683.5518,1466.2734,693.5518,1470.2734,683.5518,1474.2734,687.5518,1470.2734" style="stroke:#181818;stroke-width:1;"/><line style="stroke:#181818;stroke-width:1;" x1="434.0518" x2="689.5518" y1="1470.2734" y2="1470.2734"/><text fill="#000000" font-family="sans-serif" font-size="13" lengthAdjust="spacing" textLength="38.2637" x="441.0518" y="1465.2075">step()</text><polygon fill="#181818" points="445.0518,1495.4063,435.0518,1499.4063,445.0518,1503.4063,441.0518,1499.4063" style="stroke:#181818;stroke-width:1;"/><line style="stroke:#181818;stroke-width:1;stroke-dasharray:2.0,2.0;" x1="439.0518" x2="694.5518" y1="1499.4063" y2="1499.4063"/><text fill="#000000" font-family="sans-serif" font-size="13" lengthAdjust="spacing" textLength="37.2544" x="451.0518" y="1494.3403">ready</text><polygon fill="#181818" points="202.4424,1509.4063,192.4424,1513.4063,202.4424,1517.4063,198.4424,1513.4063" style="stroke:#181818;stroke-width:1;"/><line style="stroke:#181818;stroke-width:1;stroke-dasharray:2.0,2.0;" x1="196.4424" x2="433.0518" y1="1513.4063" y2="1513.4063"/><polygon fill="#181818" points="245.8384,1538.5391,255.8384,1542.5391,245.8384,1546.5391,249.8384,1542.5391" style="stroke:#181818;stroke-width:1;"/><line style="stroke:#181818;stroke-width:1;" x1="191.4424" x2="251.8384" y1="1542.5391" y2="1542.5391"/><text fill="#000000" font-family="sans-serif" font-size="13" lengthAdjust="spacing" textLength="42.396" x="198.4424" y="1537.4731">step(.)</text><polygon fill="#181818" points="202.4424,1567.6719,192.4424,1571.6719,202.4424,1575.6719,198.4424,1571.6719" style="stroke:#181818;stroke-width:1;"/><line style="stroke:#181818;stroke-width:1;stroke-dasharray:2.0,2.0;" x1="196.4424" x2="265.9727" y1="1571.6719" y2="1571.6719"/><text fill="#000000" font-family="sans-serif" font-size="13" lengthAdjust="spacing" textLength="51.5303" x="208.4424" y="1566.606">ready(.)</text><rect fill="#FEFFDD" height="23" style="stroke:#181818;stroke-width:0.5;" width="20" x="176" y="1584.6719"/><text fill="#000000" font-family="sans-serif" font-size="13" lengthAdjust="spacing" textLength="12.397" x="180" y="1600.7388">...</text><polygon fill="#FEFFDD" points="136,1617.8047,236,1617.8047,246,1636.8047,236,1655.8047,136,1655.8047,126,1636.8047,136,1617.8047" style="stroke:#181818;stroke-width:0.5;"/><text fill="#000000" font-family="sans-serif" font-size="13" lengthAdjust="spacing" textLength="96.186" x="138" y="1633.8716">sleep until end</text><text fill="#000000" font-family="sans-serif" font-size="13" lengthAdjust="spacing" textLength="83.7637" x="138" y="1649.0044">of cycle time</text><rect fill="#EEEEEE" height="3" style="stroke:#EEEEEE;stroke-width:1;" width="1052.2373" x="0" y="1688.6367"/><line style="stroke:#000000;stroke-width:1;" x1="0" x2="1052.2373" y1="1688.6367" y2="1688.6367"/><line style="stroke:#000000;stroke-width:1;" x1="0" x2="1052.2373" y1="1691.6367" y2="1691.6367"/><rect fill="#EEEEEE" height="23.1328" style="stroke:#000000;stroke-width:2;" width="152.6963" x="449.7705" y="1678.0703"/><text fill="#000000" font-family="sans-serif" font-size="13" font-weight="bold" lengthAdjust="spacing" textLength="134.1704" x="455.7705" y="1694.1372">Activity Shutdown</text><path d="M139,1716.2031 L139,1741.2031 L1020,1741.2031 L1020,1726.2031 L1010,1716.2031 L139,1716.2031 " fill="#FEFFDD" style="stroke:#181818;stroke-width:0.5;"/><path d="M1010,1716.2031 L1010,1726.2031 L1020,1726.2031 L1010,1716.2031 " fill="#FEFFDD" style="stroke:#181818;stroke-width:0.5;"/><text fill="#000000" font-family="sans-serif" font-size="13" lengthAdjust="spacing" textLength="481.2285" x="334.5601" y="1733.27">Call each activity's shutdown() method exactly once in an arbitrary order.</text><polygon fill="#181818" points="282.4219,1763.4688,292.4219,1767.4688,282.4219,1771.4688,286.4219,1767.4688" style="stroke:#181818;stroke-width:1;"/><line style="stroke:#181818;stroke-width:1;" x1="191.4424" x2="288.4219" y1="1767.4688" y2="1767.4688"/><text fill="#000000" font-family="sans-serif" font-size="13" lengthAdjust="spacing" textLength="73.5693" x="198.4424" y="1762.4028">shutdown()</text><line style="stroke:#181818;stroke-width:1;" x1="294.4219" x2="336.4219" y1="1796.6016" y2="1796.6016"/><line style="stroke:#181818;stroke-width:1;" x1="336.4219" x2="336.4219" y1="1796.6016" y2="1809.6016"/><line style="stroke:#181818;stroke-width:1;" x1="295.4219" x2="336.4219" y1="1809.6016" y2="1809.6016"/><polygon fill="#181818" points="305.4219,1805.6016,295.4219,1809.6016,305.4219,1813.6016,301.4219,1809.6016" style="stroke:#181818;stroke-width:1;"/><text fill="#000000" font-family="sans-serif" font-size="13" lengthAdjust="spacing" textLength="63.4258" x="301.4219" y="1791.5356">shutdown</text><polygon fill="#181818" points="202.4424,1834.7344,192.4424,1838.7344,202.4424,1842.7344,198.4424,1838.7344" style="stroke:#181818;stroke-width:1;"/><line style="stroke:#181818;stroke-width:1;stroke-dasharray:2.0,2.0;" x1="196.4424" x2="293.4219" y1="1838.7344" y2="1838.7344"/><text fill="#000000" font-family="sans-serif" font-size="13" lengthAdjust="spacing" textLength="37.2544" x="208.4424" y="1833.6685">ready</text><rect fill="#FEFFDD" height="23" style="stroke:#181818;stroke-width:0.5;" width="20" x="176" y="1851.7344"/><text fill="#000000" font-family="sans-serif" font-size="13" lengthAdjust="spacing" textLength="12.397" x="180" y="1867.8013">...</text><polygon fill="#181818" points="823.1816,1897,833.1816,1901,823.1816,1905,827.1816,1901" style="stroke:#181818;stroke-width:1;"/><line style="stroke:#181818;stroke-width:1;" x1="191.4424" x2="829.1816" y1="1901" y2="1901"/><text fill="#000000" font-family="sans-serif" font-size="13" lengthAdjust="spacing" textLength="89.8066" x="198.4424" y="1895.9341">shutdown(a4)</text><polygon fill="#181818" points="962.8115,1926.1328,972.8115,1930.1328,962.8115,1934.1328,966.8115,1930.1328" style="stroke:#181818;stroke-width:1;"/><line style="stroke:#181818;stroke-width:1;" x1="835.1816" x2="968.8115" y1="1930.1328" y2="1930.1328"/><text fill="#000000" font-family="sans-serif" font-size="13" lengthAdjust="spacing" textLength="73.5693" x="842.1816" y="1925.0669">shutdown()</text><line style="stroke:#181818;stroke-width:1;" x1="974.8115" x2="1016.8115" y1="1959.2656" y2="1959.2656"/><line style="stroke:#181818;stroke-width:1;" x1="1016.8115" x2="1016.8115" y1="1959.2656" y2="1972.2656"/><line style="stroke:#181818;stroke-width:1;" x1="975.8115" x2="1016.8115" y1="1972.2656" y2="1972.2656"/><polygon fill="#181818" points="985.8115,1968.2656,975.8115,1972.2656,985.8115,1976.2656,981.8115,1972.2656" style="stroke:#181818;stroke-width:1;"/><text fill="#000000" font-family="sans-serif" font-size="13" lengthAdjust="spacing" textLength="63.4258" x="981.8115" y="1954.1997">shutdown</text><polygon fill="#181818" points="846.1816,1997.3984,836.1816,2001.3984,846.1816,2005.3984,842.1816,2001.3984" style="stroke:#181818;stroke-width:1;"/><line style="stroke:#181818;stroke-width:1;stroke-dasharray:2.0,2.0;" x1="840.1816" x2="973.8115" y1="2001.3984" y2="2001.3984"/><text fill="#000000" font-family="sans-serif" font-size="13" lengthAdjust="spacing" textLength="63.4258" x="852.1816" y="1996.3325">shutdown</text><polygon fill="#181818" points="202.4424,2026.5313,192.4424,2030.5313,202.4424,2034.5313,198.4424,2030.5313" style="stroke:#181818;stroke-width:1;"/><line style="stroke:#181818;stroke-width:1;stroke-dasharray:2.0,2.0;" x1="196.4424" x2="834.1816" y1="2030.5313" y2="2030.5313"/><text fill="#000000" font-family="sans-serif" font-size="13" lengthAdjust="spacing" textLength="89.8066" x="208.4424" y="2025.4653">shutdown(a4)</text><polygon fill="#181818" points="73.1177,2055.6641,63.1177,2059.6641,73.1177,2063.6641,69.1177,2059.6641" style="stroke:#181818;stroke-width:1;"/><line style="stroke:#181818;stroke-width:1;stroke-dasharray:2.0,2.0;" x1="67.1177" x2="185.4424" y1="2059.6641" y2="2059.6641"/><text fill="#000000" font-family="sans-serif" font-size="13" lengthAdjust="spacing" textLength="15.4819" x="79.1177" y="2054.5981">ok</text><!--SRC=[hLR1RkCs4BthAmR98N5HordPlHZrBeAi0ooGRW8uBNeeiA2fiKMiJAea7Q_-laDA5gLKijFjsWVBvEDxZpF34ITN4G1Smay_zbEHtgcYr6ARMRZc8qXkabzeI5ejrdkhj06hm6O8IvwBmY3SgxrCcHLA-kKLnmhHWpu_Fd-wMy96v7XjHf0AK_5W2WTXCy880mUbly96QM1fAXmHooiM8Mbqvxb1uvRfLCWjyCQVEaZK9XD5t99-TfI5LblDTi1awdqmpjMkOB9q1CI8Mh3S0DD8_rAQVs4YP-iSWJQ3sgsfs0YvCw0sdkMsO9n-7WH7IJl_WyITjII-WKCcU0Qa79YOhIWoQmipdqmEXqFCF4Eiz7QILoncya0H-hnQZecc7S6dZt-EQwNnfnIb5Hk1UbwRQD0_l0Qk9b6qLj_WuacB7TCbF6d5qPWBk5pUk6zKC6q55nHE6r2tMx9u0Sp5Nkowc1KPJlSvQZzlZl-weDyDwbjknOkm9RppI5R__V8kGaeakQgjhP0hAhfWpYsulBzntrVI3T8Rh8aDSk8Sba-wyia9wBGBdPvrchpHQT8uFIK_wyhFWdoqM3IQAqi4-m8MYoXowO7nUv-cEN2DT1hWB-aEeIzy6aXDv2FaOFxXD2uvuf9XN22iTPMKo6rOtnqEDfjgcOCf9V-YSQSickjHv3Vjn491HSrZoxfRzk-9v3ZnQgFDO3A0x7fokokF-BwfjdApJVKrIh7FlqjQazjsrYHj6jGBiJJedzjflsDv3aIPDODNL3mLmVK8TcWpbG9-ezcy12KvKdUbzaWjS2siTcMdD7M-s1UGK-jDWTxBjqG-7DnvC165qG5C1t4kc25ZjG1BHY6RuUpsEaW6C1r4a0XPxZVcjK-Rc_QPc_QQcmvWEeZ_OcxQPwuL63ORXP8FHTLhRZQ0wI22nBdpuRLTrV_6g1uVbAhAFQU7xovwR5KyaRetjwzjI74Z95qzrcLzAQWF6bqLYgnT-MU4gO7Vtz8dUdxy-3Yd6mU2Cmn4C7PDt5zYgji5CK69jf6k_MoeI-vfMkFVUpGsXiLxMCeqTytQKRNDz9SLdgmfV5rGRoYNhjA7cYOUjOP_7Oy_71D74v7k2LGKnsttMH_4v8W5NRMio5tG8hfVyPBJdScA7ROMkwUg53fzCTlRbEv-_wCnrWpVsnc7crr3VAhRrQ3pxUuDyUqzrqSNmmUxn-Ti23Hmj9lftjFTyJ3q4kn_2_u3]--></g></svg>