<svg xmlns="http://www.w3.org/2000/svg" xmlns:xlink="http://www.w3.org/1999/xlink" contentStyleType="text/css" data-diagram-type="STATE" height="917px" preserveAspectRatio="none" style="width:437px;height:917px;background:#FFFFFF;" version="1.1" viewBox="0 0 437 917" width="437px" zoomAndPan="magnify"><title>Dependency based lifecycle management</title><defs/><g><text fill="#000000" font-family="sans-serif" font-size="14" font-weight="bold" lengthAdjust="spacing" textLength="328.3574" x="50.6978" y="22.9951">Dependency based lifecycle management</text><g id="debug"><rect fill="#ADD8E6" height="50" rx="12.5" ry="12.5" style="stroke:#181818;stroke-width:0.5;" width="64.1465" x="43.5391" y="123.2969"/><line style="stroke:#181818;stroke-width:0.5;" x1="43.5391" x2="107.6855" y1="149.5938" y2="149.5938"/><text fill="#000000" font-family="sans-serif" font-size="14" lengthAdjust="spacing" textLength="44.1465" x="53.5391" y="141.292">debug</text></g><g id="running"><rect fill="#ADD8E6" height="50" rx="12.5" ry="12.5" style="stroke:#181818;stroke-width:0.5;" width="74.0244" x="142.5391" y="123.2969"/><line style="stroke:#181818;stroke-width:0.5;" x1="142.5391" x2="216.5635" y1="149.5938" y2="149.5938"/><text fill="#000000" font-family="sans-serif" font-size="14" lengthAdjust="spacing" textLength="54.0244" x="152.5391" y="141.292">running</text></g><g id="ready_for_shutdown"><rect fill="#ADD8E6" height="50" rx="12.5" ry="12.5" style="stroke:#181818;stroke-width:0.5;" width="161.6748" x="251.5391" y="123.2969"/><line style="stroke:#181818;stroke-width:0.5;" x1="251.5391" x2="413.2139" y1="149.5938" y2="149.5938"/><text fill="#000000" font-family="sans-serif" font-size="14" lengthAdjust="spacing" textLength="141.6748" x="261.5391" y="141.292">ready_for_shutdown</text></g><g id="app1"><rect fill="#F1F1F1" height="50.2656" rx="12.5" ry="12.5" style="stroke:#181818;stroke-width:0.5;" width="100.5723" x="129.0391" y="233.2969"/><line style="stroke:#181818;stroke-width:0.5;" x1="129.0391" x2="229.6113" y1="259.5938" y2="259.5938"/><text fill="#000000" font-family="sans-serif" font-size="14" lengthAdjust="spacing" textLength="35.2598" x="161.6953" y="251.292">app1</text><text fill="#000000" font-family="sans-serif" font-size="12" lengthAdjust="spacing" textLength="80.5723" x="134.0391" y="275.7324">/opt/bin/app1</text></g><g id="app2"><rect fill="#F1F1F1" height="50.2656" rx="12.5" ry="12.5" style="stroke:#181818;stroke-width:0.5;" width="100.5723" x="156.0391" y="343.2969"/><line style="stroke:#181818;stroke-width:0.5;" x1="156.0391" x2="256.6113" y1="369.5938" y2="369.5938"/><text fill="#000000" font-family="sans-serif" font-size="14" lengthAdjust="spacing" textLength="35.2598" x="188.6953" y="361.292">app2</text><text fill="#000000" font-family="sans-serif" font-size="12" lengthAdjust="spacing" textLength="80.5723" x="161.0391" y="385.7324">/opt/bin/app2</text></g><g id="app3"><rect fill="#F1F1F1" height="50.2656" rx="12.5" ry="12.5" style="stroke:#181818;stroke-width:0.5;" width="100.5723" x="265.0391" y="233.2969"/><line style="stroke:#181818;stroke-width:0.5;" x1="265.0391" x2="365.6113" y1="259.5938" y2="259.5938"/><text fill="#000000" font-family="sans-serif" font-size="14" lengthAdjust="spacing" textLength="35.2598" x="297.6953" y="251.292">app3</text><text fill="#000000" font-family="sans-serif" font-size="12" lengthAdjust="spacing" textLength="80.5723" x="270.0391" y="275.7324">/opt/bin/app3</text></g><g id="ssh"><rect fill="#F1F1F1" height="50.2656" rx="12.5" ry="12.5" style="stroke:#181818;stroke-width:0.5;" width="89.5859" x="30.5391" y="343.2969"/><line style="stroke:#181818;stroke-width:0.5;" x1="30.5391" x2="120.125" y1="369.5938" y2="369.5938"/><text fill="#000000" font-family="sans-serif" font-size="14" lengthAdjust="spacing" textLength="23.4609" x="63.6016" y="361.292">ssh</text><text fill="#000000" font-family="sans-serif" font-size="12" lengthAdjust="spacing" textLength="69.5859" x="35.5391" y="385.7324">/usr/bin/ssh</text></g><g id="setup_filesystems"><rect fill="#F1F1F1" height="50.2656" rx="12.5" ry="12.5" style="stroke:#181818;stroke-width:0.5;" width="171.916" x="30.5391" y="563.2969"/><line style="stroke:#181818;stroke-width:0.5;" x1="30.5391" x2="202.4551" y1="589.5938" y2="589.5938"/><text fill="#000000" font-family="sans-serif" font-size="14" lengthAdjust="spacing" textLength="125.3848" x="53.8047" y="581.292">setup_filesystems</text><text fill="#000000" font-family="sans-serif" font-size="12" lengthAdjust="spacing" textLength="151.916" x="35.5391" y="605.7324">/etc/setup_filesystems.sh</text></g><g id="eth_driver"><rect fill="#F1F1F1" height="50.2656" rx="12.5" ry="12.5" style="stroke:#181818;stroke-width:0.5;" width="116.791" x="238.0391" y="563.2969"/><line style="stroke:#181818;stroke-width:0.5;" x1="238.0391" x2="354.8301" y1="589.5938" y2="589.5938"/><text fill="#000000" font-family="sans-serif" font-size="14" lengthAdjust="spacing" textLength="71.1621" x="260.8535" y="581.292">eth_driver</text><text fill="#000000" font-family="sans-serif" font-size="12" lengthAdjust="spacing" textLength="96.791" x="243.0391" y="605.7324">/bin/net-dev-eth</text></g><g id="filesystem"><rect fill="#F1F1F1" height="50.2656" rx="12.5" ry="12.5" style="stroke:#181818;stroke-width:0.5;" width="115.1797" x="59.0391" y="673.2969"/><line style="stroke:#181818;stroke-width:0.5;" x1="59.0391" x2="174.2188" y1="699.5938" y2="699.5938"/><text fill="#000000" font-family="sans-serif" font-size="14" lengthAdjust="spacing" textLength="71.9346" x="80.6616" y="691.292">filesystem</text><text fill="#000000" font-family="sans-serif" font-size="12" lengthAdjust="spacing" textLength="95.1797" x="64.0391" y="715.7324">/bin/net-dev-ufs</text></g><g id="flash_driver"><rect fill="#F1F1F1" height="50.2656" rx="12.5" ry="12.5" style="stroke:#181818;stroke-width:0.5;" width="110.4336" x="61.5391" y="783.2969"/><line style="stroke:#181818;stroke-width:0.5;" x1="61.5391" x2="171.9727" y1="809.5938" y2="809.5938"/><text fill="#000000" font-family="sans-serif" font-size="14" lengthAdjust="spacing" textLength="81.751" x="75.8804" y="801.292">flash_driver</text><text fill="#000000" font-family="sans-serif" font-size="12" lengthAdjust="spacing" textLength="90.4336" x="66.5391" y="825.7324">/bin/dev-emmc</text></g><ellipse cx="179.5391" cy="53.2969" fill="#222222" rx="10" ry="10" style="stroke:#222222;stroke-width:1;"/><g id="networking"><rect fill="#F1F1F1" height="50" rx="12.5" ry="12.5" style="stroke:#181818;stroke-width:0.5;" width="98.5039" x="157.0391" y="453.2969"/><line style="stroke:#181818;stroke-width:0.5;" x1="157.0391" x2="255.543" y1="479.5938" y2="479.5938"/><text fill="#000000" font-family="sans-serif" font-size="14" lengthAdjust="spacing" textLength="78.5039" x="167.0391" y="471.292">networking</text></g><!--link *start* to debug--><g id="link_*start*_debug"><path d="M172.3891,60.6869 C158.2591,73.3269 130.5521,98.1079 107.1521,119.0279 " fill="transparent" id="*start*-to-debug" style="stroke:#181818;stroke-width:1;"/><polygon fill="#181818" points="102.6791,123.0269,112.0546,120.0104,106.4066,119.6944,106.7226,114.0464,102.6791,123.0269" style="stroke:#181818;stroke-width:1;"/></g><!--link *start* to running--><!--link *start* to ready_for_shutdown--><!--link running to app1--><g id="link_running_app1"><path d="M179.5391,173.5369 C179.5391,191.3169 179.5391,209.3769 179.5391,227.1369 " fill="transparent" id="running-to-app1" style="stroke:#181818;stroke-width:1;"/><polygon fill="#181818" points="179.5391,233.1369,183.5391,224.1369,179.5391,228.1369,175.5391,224.1369,179.5391,233.1369" style="stroke:#181818;stroke-width:1;"/></g><!--link app1 to app2--><g id="link_app1_app2"><path d="M185.5991,283.5369 C190.0491,301.3169 194.6038,319.556 199.0438,337.316 " fill="transparent" id="app1-to-app2" style="stroke:#181818;stroke-width:1;"/><polygon fill="#181818" points="200.4991,343.1369,202.1968,333.4354,199.2864,338.2862,194.4357,335.3757,200.4991,343.1369" style="stroke:#181818;stroke-width:1;"/></g><!--link app2 to networking--><g id="link_app2_networking"><path d="M206.5391,393.5369 C206.5391,411.3169 206.5391,429.3769 206.5391,447.1369 " fill="transparent" id="app2-to-networking" style="stroke:#181818;stroke-width:1;"/><polygon fill="#181818" points="206.5391,453.1369,210.5391,444.1369,206.5391,448.1369,202.5391,444.1369,206.5391,453.1369" style="stroke:#181818;stroke-width:1;"/></g><!--link running to app3--><g id="link_running_app3"><path d="M210.0591,173.5369 C232.4591,191.3169 258.0499,211.6462 280.4199,229.4062 " fill="transparent" id="running-to-app3" style="stroke:#181818;stroke-width:1;"/><polygon fill="#181818" points="285.1191,233.1369,280.5575,224.408,281.2031,230.0279,275.5832,230.6735,285.1191,233.1369" style="stroke:#181818;stroke-width:1;"/></g><!--link app3 to networking--><g id="link_app3_networking"><path d="M311.0391,283.6169 C305.2491,311.3269 293.6191,357.4269 274.5391,393.2969 C262.8191,415.3269 248.9762,432.7174 234.4762,448.5874 " fill="transparent" id="app3-to-networking" style="stroke:#181818;stroke-width:1;"/><polygon fill="#181818" points="230.4291,453.0169,239.4528,449.0707,233.8017,449.3256,233.5468,443.6745,230.4291,453.0169" style="stroke:#181818;stroke-width:1;"/></g><!--link debug to ssh--><g id="link_debug_ssh"><path d="M75.5391,173.4569 C75.5391,215.3669 75.5391,295.0469 75.5391,337.0269 " fill="transparent" id="debug-to-ssh" style="stroke:#181818;stroke-width:1;"/><polygon fill="#181818" points="75.5391,343.0269,79.5391,334.0269,75.5391,338.0269,71.5391,334.0269,75.5391,343.0269" style="stroke:#181818;stroke-width:1;"/></g><!--link ssh to networking--><g id="link_ssh_networking"><path d="M104.9391,393.5369 C126.5091,411.3169 151.0588,431.561 172.6088,449.321 " fill="transparent" id="ssh-to-networking" style="stroke:#181818;stroke-width:1;"/><polygon fill="#181818" points="177.2391,453.1369,172.8377,444.3262,173.3805,449.957,167.7498,450.4998,177.2391,453.1369" style="stroke:#181818;stroke-width:1;"/></g><!--link networking to setup_filesystems--><g id="link_networking_setup_filesystems"><path d="M186.3391,503.5369 C171.5191,521.3169 155.3217,540.7688 140.5117,558.5288 " fill="transparent" id="networking-to-setup_filesystems" style="stroke:#181818;stroke-width:1;"/><polygon fill="#181818" points="136.6691,563.1369,145.5051,558.7866,139.8713,559.2968,139.361,553.663,136.6691,563.1369" style="stroke:#181818;stroke-width:1;"/></g><!--link setup_filesystems to filesystem--><g id="link_setup_filesystems_filesystem"><path d="M116.5391,613.5369 C116.5391,631.3169 116.5391,649.3769 116.5391,667.1369 " fill="transparent" id="setup_filesystems-to-filesystem" style="stroke:#181818;stroke-width:1;"/><polygon fill="#181818" points="116.5391,673.1369,120.5391,664.1369,116.5391,668.1369,112.5391,664.1369,116.5391,673.1369" style="stroke:#181818;stroke-width:1;"/></g><!--link networking to eth_driver--><g id="link_networking_eth_driver"><path d="M226.7391,503.5369 C241.5591,521.3169 257.7564,540.7688 272.5664,558.5288 " fill="transparent" id="networking-to-eth_driver" style="stroke:#181818;stroke-width:1;"/><polygon fill="#181818" points="276.4091,563.1369,273.7171,553.663,273.2069,559.2968,267.5731,558.7866,276.4091,563.1369" style="stroke:#181818;stroke-width:1;"/></g><!--link filesystem to flash_driver--><g id="link_filesystem_flash_driver"><path d="M116.5391,723.5369 C116.5391,741.3169 116.5391,759.3769 116.5391,777.1369 " fill="transparent" id="filesystem-to-flash_driver" style="stroke:#181818;stroke-width:1;"/><polygon fill="#181818" points="116.5391,783.1369,120.5391,774.1369,116.5391,778.1369,112.5391,774.1369,116.5391,783.1369" style="stroke:#181818;stroke-width:1;"/></g><rect fill="#DDDDDD" height="46.5938" id="_legend" rx="7.5" ry="7.5" style="stroke:#000000;stroke-width:1;" width="405.7529" x="12" y="850.5625"/><text fill="#000000" font-family="sans-serif" font-size="14" lengthAdjust="spacing" textLength="36.5518" x="17" y="870.5576">Color</text><text fill="#000000" font-family="sans-serif" font-size="14" lengthAdjust="spacing" textLength="34.3369" x="58.002" y="870.5576">Type</text><rect fill="#ADD8E6" height="16.2969" style="stroke:transparent;stroke-width:1;" width="36.5518" x="17" y="873.8594"/><text fill="#000000" font-family="sans-serif" font-size="14" lengthAdjust="spacing" textLength="4.4502" x="17" y="886.8545">&#160;</text><text fill="#000000" font-family="sans-serif" font-size="14" lengthAdjust="spacing" textLength="354.751" x="58.002" y="886.8545">Operating modes provided by the ControlInterface</text><line style="stroke:#000000;stroke-width:1;" x1="17" x2="412.7529" y1="857.5625" y2="857.5625"/><line style="stroke:#000000;stroke-width:1;" x1="17" x2="412.7529" y1="873.8594" y2="873.8594"/><line style="stroke:#000000;stroke-width:1;" x1="17" x2="412.7529" y1="890.1563" y2="890.1563"/><line style="stroke:#000000;stroke-width:1;" x1="17" x2="17" y1="857.5625" y2="890.1563"/><line style="stroke:#000000;stroke-width:1;" x1="53.5518" x2="53.5518" y1="857.5625" y2="890.1563"/><line style="stroke:#000000;stroke-width:1;" x1="412.7529" x2="412.7529" y1="857.5625" y2="890.1563"/><!--SRC=[RLBBQeGm5DtdAmBT5QnKTwNCPhhfgflkXa6YkMfeJ49oTH3y-2O-cXcj2_4yxecSN1GeWNw00SL1LICjcGDEfQYX6YilTKon1ZfGI8X3Xa0vb7r3dwHeMYnb3ojjUwM4-ay0niUYrhPmROzStzIzPpKnOrxVQAeDfgLGQO1HoHwLB2hvev9lSSwrNkcTdHMFDXwmDqKj9BZH8NJEkm2hzC2__8q0jWMtOW3hlI5D0IOSXiGBgoNExInzxJQBP6wNCsTqNKN8vVbAa-IqDBkWIokulv2hPzTYZ_oXLqB8TWiXRYunl3QK1PJDoF_XJTkVaBiRoOCftvl8Skk1dTjqxTuHFnVNlb5oO6PVnFk4M3o9fcNchan293H-UQaDAqMeVwQpbjfEz7iqGAU5UeyhTvhebm7BC1pKQGwE6gi7mVtUboF55kXPAxHQVYe4MxCA9k9FMCxv1G00]--></g></svg>