<svg xmlns="http://www.w3.org/2000/svg" xmlns:xlink="http://www.w3.org/1999/xlink" contentStyleType="text/css" data-diagram-type="SEQUENCE" height="320px" preserveAspectRatio="none" style="width:685px;height:320px;background:#FFFFFF;" version="1.1" viewBox="0 0 685 320" width="685px" zoomAndPan="magnify"><title>Sequence Diagram: Restore Snapshot</title><defs/><g><text fill="#000000" font-family="sans-serif" font-size="14" font-weight="bold" lengthAdjust="spacing" textLength="299.3184" x="193.9324" y="27.9951">Sequence Diagram: Restore Snapshot</text><rect fill="transparent" height="148.4688" style="stroke:#000000;stroke-width:1.5;" width="668.1831" x="10" y="119.7266"/><g><title>User</title><rect fill="transparent" height="211.6016" width="8" x="38.9551" y="73.5938"/><line style="stroke:#181818;stroke-width:0.5;stroke-dasharray:5.0,5.0;" x1="42" x2="42" y1="73.5938" y2="285.1953"/></g><g><title>&#171;component&#187; :kvs</title><rect fill="transparent" height="211.6016" width="8" x="265.3374" y="73.5938"/><line style="stroke:#181818;stroke-width:0.5;stroke-dasharray:5.0,5.0;" x1="268.7446" x2="268.7446" y1="73.5938" y2="285.1953"/></g><g><title>&#171;component&#187; :snapshot</title><rect fill="transparent" height="211.6016" width="8" x="572.5063" y="73.5938"/><line style="stroke:#181818;stroke-width:0.5;stroke-dasharray:5.0,5.0;" x1="575.8296" x2="575.8296" y1="73.5938" y2="285.1953"/></g><rect fill="#E2E2F0" height="30.2969" rx="2.5" ry="2.5" style="stroke:#181818;stroke-width:0.5;" width="45.9102" x="20" y="42.2969"/><text fill="#000000" font-family="sans-serif" font-size="14" lengthAdjust="spacing" textLength="31.9102" x="27" y="62.292">User</text><rect fill="#E2E2F0" height="30.2969" rx="2.5" ry="2.5" style="stroke:#181818;stroke-width:0.5;" width="45.9102" x="20" y="284.1953"/><text fill="#000000" font-family="sans-serif" font-size="14" lengthAdjust="spacing" textLength="31.9102" x="27" y="304.1904">User</text><rect fill="#E2E2F0" height="30.2969" rx="2.5" ry="2.5" style="stroke:#181818;stroke-width:0.5;" width="143.1855" x="197.7446" y="42.2969"/><text fill="#000000" font-family="sans-serif" font-size="14" lengthAdjust="spacing" textLength="129.1855" x="204.7446" y="62.292">&#171;component&#187; :kvs</text><rect fill="#E2E2F0" height="30.2969" rx="2.5" ry="2.5" style="stroke:#181818;stroke-width:0.5;" width="143.1855" x="197.7446" y="284.1953"/><text fill="#000000" font-family="sans-serif" font-size="14" lengthAdjust="spacing" textLength="129.1855" x="204.7446" y="304.1904">&#171;component&#187; :kvs</text><rect fill="#E2E2F0" height="30.2969" rx="2.5" ry="2.5" style="stroke:#181818;stroke-width:0.5;" width="183.3535" x="484.8296" y="42.2969"/><text fill="#000000" font-family="sans-serif" font-size="14" lengthAdjust="spacing" textLength="169.3535" x="491.8296" y="62.292">&#171;component&#187; :snapshot</text><rect fill="#E2E2F0" height="30.2969" rx="2.5" ry="2.5" style="stroke:#181818;stroke-width:0.5;" width="183.3535" x="484.8296" y="284.1953"/><text fill="#000000" font-family="sans-serif" font-size="14" lengthAdjust="spacing" textLength="169.3535" x="491.8296" y="304.1904">&#171;component&#187; :snapshot</text><polygon fill="#181818" points="257.3374,100.7266,267.3374,104.7266,257.3374,108.7266,261.3374,104.7266" style="stroke:#181818;stroke-width:1;"/><line style="stroke:#181818;stroke-width:1;" x1="42.9551" x2="263.3374" y1="104.7266" y2="104.7266"/><text fill="#000000" font-family="sans-serif" font-size="13" lengthAdjust="spacing" textLength="113.623" x="49.9551" y="99.6606">Restore snapshot</text><path d="M10,119.7266 L74.4429,119.7266 L74.4429,126.8594 L64.4429,136.8594 L10,136.8594 L10,119.7266 " fill="#EEEEEE" style="stroke:#000000;stroke-width:1.5;"/><rect fill="transparent" height="148.4688" style="stroke:#000000;stroke-width:1.5;" width="668.1831" x="10" y="119.7266"/><text fill="#000000" font-family="sans-serif" font-size="13" font-weight="bold" lengthAdjust="spacing" textLength="19.4429" x="25" y="132.7935">alt</text><text fill="#000000" font-family="sans-serif" font-size="11" font-weight="bold" lengthAdjust="spacing" textLength="107.3682" x="89.4429" y="131.937">[snapshot-found]</text><polygon fill="#181818" points="280.3374,153.9922,270.3374,157.9922,280.3374,161.9922,276.3374,157.9922" style="stroke:#181818;stroke-width:1;"/><line style="stroke:#181818;stroke-width:1;stroke-dasharray:2.0,2.0;" x1="274.3374" x2="575.5063" y1="157.9922" y2="157.9922"/><text fill="#000000" font-family="sans-serif" font-size="13" lengthAdjust="spacing" textLength="283.1689" x="286.3374" y="152.9263">Snapshot restored into local representation</text><polygon fill="#181818" points="53.9551,183.125,43.9551,187.125,53.9551,191.125,49.9551,187.125" style="stroke:#181818;stroke-width:1;"/><line style="stroke:#181818;stroke-width:1;stroke-dasharray:2.0,2.0;" x1="47.9551" x2="268.3374" y1="187.125" y2="187.125"/><text fill="#000000" font-family="sans-serif" font-size="13" lengthAdjust="spacing" textLength="202.3823" x="59.9551" y="182.0591">Snapshot restored successfully</text><line style="stroke:#000000;stroke-width:1;stroke-dasharray:2.0,2.0;" x1="10" x2="678.1831" y1="196.125" y2="196.125"/><text fill="#000000" font-family="sans-serif" font-size="11" font-weight="bold" lengthAdjust="spacing" textLength="102.7813" x="15" y="206.3354">[snapshot-error]</text><polygon fill="#181818" points="280.3374,227.0625,270.3374,231.0625,280.3374,235.0625,276.3374,231.0625" style="stroke:#181818;stroke-width:1;"/><line style="stroke:#181818;stroke-width:1;stroke-dasharray:2.0,2.0;" x1="274.3374" x2="575.5063" y1="231.0625" y2="231.0625"/><text fill="#000000" font-family="sans-serif" font-size="13" lengthAdjust="spacing" textLength="189.4268" x="286.3374" y="225.9966">Snapshot-Not-Available-Error</text><polygon fill="#181818" points="53.9551,256.1953,43.9551,260.1953,53.9551,264.1953,49.9551,260.1953" style="stroke:#181818;stroke-width:1;"/><line style="stroke:#181818;stroke-width:1;stroke-dasharray:2.0,2.0;" x1="47.9551" x2="268.3374" y1="260.1953" y2="260.1953"/><text fill="#000000" font-family="sans-serif" font-size="13" lengthAdjust="spacing" textLength="189.4268" x="59.9551" y="255.1294">Snapshot-Not-Available-Error</text><!--SRC=[VL0nRiCm3Dpz2YAxFk0XG85sxP2Y3s1bkXN2I8f81yYR-eHiVbbODRPJm8q0GI3lZdUK1cM2DpeE53t1Sy3FWeSMTYIQYY4HitmbRPgCHOCF6QF2vbseR005q1ljBpP- -tJ8ALBKyGBj_YILQUz3djoSAbbcsse0RlkZNsBTuQnpvVeqnAu1ErCBt2ITDe7oEwE343K19uzilMnjIu8QKgmJJ5J5DS2QN0RlIQGVcCyDiIof79LYl_8uXtkr-tJ2mFZ1v5vcoJ_6gtooTQy0]--></g></svg>