<svg xmlns="http://www.w3.org/2000/svg" xmlns:xlink="http://www.w3.org/1999/xlink" contentStyleType="text/css" data-diagram-type="SEQUENCE" height="524px" preserveAspectRatio="none" style="width:514px;height:524px;background:#FFFFFF;" version="1.1" viewBox="0 0 514 524" width="514px" zoomAndPan="magnify"><title>Sequence Diagram: KVS Builder</title><defs/><g><text fill="#000000" font-family="sans-serif" font-size="14" font-weight="bold" lengthAdjust="spacing" textLength="252.2939" x="132.1829" y="27.9951">Sequence Diagram: KVS Builder</text><rect fill="transparent" height="148.4688" style="stroke:#000000;stroke-width:1.5;" width="497.6597" x="10" y="323.6563"/><g><title>User</title><rect fill="transparent" height="415.5313" width="8" x="38.9551" y="73.5938"/><line style="stroke:#181818;stroke-width:0.5;stroke-dasharray:5.0,5.0;" x1="42" x2="42" y1="73.5938" y2="489.125"/></g><g><title>&#171;component&#187; :builder</title><rect fill="transparent" height="415.5313" width="8" x="208.4751" y="73.5938"/><line style="stroke:#181818;stroke-width:0.5;stroke-dasharray:5.0,5.0;" x1="212.3281" x2="212.3281" y1="73.5938" y2="489.125"/></g><g><title>&#171;component&#187; :kvs</title><rect fill="transparent" height="415.5313" width="8" x="422.0669" y="73.5938"/><line style="stroke:#181818;stroke-width:0.5;stroke-dasharray:5.0,5.0;" x1="425.4741" x2="425.4741" y1="73.5938" y2="489.125"/></g><rect fill="#E2E2F0" height="30.2969" rx="2.5" ry="2.5" style="stroke:#181818;stroke-width:0.5;" width="45.9102" x="20" y="42.2969"/><text fill="#000000" font-family="sans-serif" font-size="14" lengthAdjust="spacing" textLength="31.9102" x="27" y="62.292">User</text><rect fill="#E2E2F0" height="30.2969" rx="2.5" ry="2.5" style="stroke:#181818;stroke-width:0.5;" width="45.9102" x="20" y="488.125"/><text fill="#000000" font-family="sans-serif" font-size="14" lengthAdjust="spacing" textLength="31.9102" x="27" y="508.1201">User</text><rect fill="#E2E2F0" height="30.2969" rx="2.5" ry="2.5" style="stroke:#181818;stroke-width:0.5;" width="168.2939" x="128.3281" y="42.2969"/><text fill="#000000" font-family="sans-serif" font-size="14" lengthAdjust="spacing" textLength="154.2939" x="135.3281" y="62.292">&#171;component&#187; :builder</text><rect fill="#E2E2F0" height="30.2969" rx="2.5" ry="2.5" style="stroke:#181818;stroke-width:0.5;" width="168.2939" x="128.3281" y="488.125"/><text fill="#000000" font-family="sans-serif" font-size="14" lengthAdjust="spacing" textLength="154.2939" x="135.3281" y="508.1201">&#171;component&#187; :builder</text><rect fill="#E2E2F0" height="30.2969" rx="2.5" ry="2.5" style="stroke:#181818;stroke-width:0.5;" width="143.1855" x="354.4741" y="42.2969"/><text fill="#000000" font-family="sans-serif" font-size="14" lengthAdjust="spacing" textLength="129.1855" x="361.4741" y="62.292">&#171;component&#187; :kvs</text><rect fill="#E2E2F0" height="30.2969" rx="2.5" ry="2.5" style="stroke:#181818;stroke-width:0.5;" width="143.1855" x="354.4741" y="488.125"/><text fill="#000000" font-family="sans-serif" font-size="14" lengthAdjust="spacing" textLength="129.1855" x="361.4741" y="508.1201">&#171;component&#187; :kvs</text><polygon fill="#181818" points="200.4751,100.7266,210.4751,104.7266,200.4751,108.7266,204.4751,104.7266" style="stroke:#181818;stroke-width:1;"/><line style="stroke:#181818;stroke-width:1;" x1="42.9551" x2="206.4751" y1="104.7266" y2="104.7266"/><text fill="#000000" font-family="sans-serif" font-size="13" lengthAdjust="spacing" textLength="122.7256" x="49.9551" y="99.6606">Create KVS builder</text><polygon fill="#181818" points="53.9551,129.8594,43.9551,133.8594,53.9551,137.8594,49.9551,133.8594" style="stroke:#181818;stroke-width:1;"/><line style="stroke:#181818;stroke-width:1;stroke-dasharray:2.0,2.0;" x1="47.9551" x2="211.4751" y1="133.8594" y2="133.8594"/><text fill="#000000" font-family="sans-serif" font-size="13" lengthAdjust="spacing" textLength="134.3164" x="59.9551" y="128.7935">KVS builder instance</text><polygon fill="#181818" points="200.4751,158.9922,210.4751,162.9922,200.4751,166.9922,204.4751,162.9922" style="stroke:#181818;stroke-width:1;"/><line style="stroke:#181818;stroke-width:1;" x1="42.9551" x2="206.4751" y1="162.9922" y2="162.9922"/><text fill="#000000" font-family="sans-serif" font-size="13" lengthAdjust="spacing" textLength="145.52" x="49.9551" y="157.9263">Set need_defaults flag</text><polygon fill="#181818" points="53.9551,188.125,43.9551,192.125,53.9551,196.125,49.9551,192.125" style="stroke:#181818;stroke-width:1;"/><line style="stroke:#181818;stroke-width:1;stroke-dasharray:2.0,2.0;" x1="47.9551" x2="211.4751" y1="192.125" y2="192.125"/><text fill="#000000" font-family="sans-serif" font-size="13" lengthAdjust="spacing" textLength="134.3164" x="59.9551" y="187.0591">KVS builder instance</text><polygon fill="#181818" points="200.4751,217.2578,210.4751,221.2578,200.4751,225.2578,204.4751,221.2578" style="stroke:#181818;stroke-width:1;"/><line style="stroke:#181818;stroke-width:1;" x1="42.9551" x2="206.4751" y1="221.2578" y2="221.2578"/><text fill="#000000" font-family="sans-serif" font-size="13" lengthAdjust="spacing" textLength="115.0005" x="49.9551" y="216.1919">Set need_kvs flag</text><polygon fill="#181818" points="53.9551,246.3906,43.9551,250.3906,53.9551,254.3906,49.9551,250.3906" style="stroke:#181818;stroke-width:1;"/><line style="stroke:#181818;stroke-width:1;stroke-dasharray:2.0,2.0;" x1="47.9551" x2="211.4751" y1="250.3906" y2="250.3906"/><text fill="#000000" font-family="sans-serif" font-size="13" lengthAdjust="spacing" textLength="134.3164" x="59.9551" y="245.3247">KVS builder instance</text><polygon fill="#181818" points="200.4751,275.5234,210.4751,279.5234,200.4751,283.5234,204.4751,279.5234" style="stroke:#181818;stroke-width:1;"/><line style="stroke:#181818;stroke-width:1;" x1="42.9551" x2="206.4751" y1="279.5234" y2="279.5234"/><text fill="#000000" font-family="sans-serif" font-size="13" lengthAdjust="spacing" textLength="121.6401" x="49.9551" y="274.4575">Build KVS instance</text><polygon fill="#181818" points="414.0669,304.6563,424.0669,308.6563,414.0669,312.6563,418.0669,308.6563" style="stroke:#181818;stroke-width:1;"/><line style="stroke:#181818;stroke-width:1;" x1="212.4751" x2="420.0669" y1="308.6563" y2="308.6563"/><text fill="#000000" font-family="sans-serif" font-size="13" lengthAdjust="spacing" textLength="189.5918" x="219.4751" y="303.5903">Open KVS with builder config</text><path d="M10,323.6563 L74.4429,323.6563 L74.4429,330.7891 L64.4429,340.7891 L10,340.7891 L10,323.6563 " fill="#EEEEEE" style="stroke:#000000;stroke-width:1.5;"/><rect fill="transparent" height="148.4688" style="stroke:#000000;stroke-width:1.5;" width="497.6597" x="10" y="323.6563"/><text fill="#000000" font-family="sans-serif" font-size="13" font-weight="bold" lengthAdjust="spacing" textLength="19.4429" x="25" y="336.7231">alt</text><text fill="#000000" font-family="sans-serif" font-size="11" font-weight="bold" lengthAdjust="spacing" textLength="66.376" x="89.4429" y="335.8667">[kvs-open]</text><polygon fill="#181818" points="223.4751,357.9219,213.4751,361.9219,223.4751,365.9219,219.4751,361.9219" style="stroke:#181818;stroke-width:1;"/><line style="stroke:#181818;stroke-width:1;stroke-dasharray:2.0,2.0;" x1="217.4751" x2="425.0669" y1="361.9219" y2="361.9219"/><text fill="#000000" font-family="sans-serif" font-size="13" lengthAdjust="spacing" textLength="84.8745" x="229.4751" y="356.856">KVS instance</text><polygon fill="#181818" points="53.9551,387.0547,43.9551,391.0547,53.9551,395.0547,49.9551,391.0547" style="stroke:#181818;stroke-width:1;"/><line style="stroke:#181818;stroke-width:1;stroke-dasharray:2.0,2.0;" x1="47.9551" x2="211.4751" y1="391.0547" y2="391.0547"/><text fill="#000000" font-family="sans-serif" font-size="13" lengthAdjust="spacing" textLength="84.8745" x="59.9551" y="385.9888">KVS instance</text><line style="stroke:#000000;stroke-width:1;stroke-dasharray:2.0,2.0;" x1="10" x2="507.6597" y1="400.0547" y2="400.0547"/><text fill="#000000" font-family="sans-serif" font-size="11" font-weight="bold" lengthAdjust="spacing" textLength="102.2334" x="15" y="410.2651">[kvs-open-error]</text><polygon fill="#181818" points="223.4751,430.9922,213.4751,434.9922,223.4751,438.9922,219.4751,434.9922" style="stroke:#181818;stroke-width:1;"/><line style="stroke:#181818;stroke-width:1;stroke-dasharray:2.0,2.0;" x1="217.4751" x2="425.0669" y1="434.9922" y2="434.9922"/><text fill="#000000" font-family="sans-serif" font-size="13" lengthAdjust="spacing" textLength="95.2847" x="229.4751" y="429.9263">KVS ErrorCode</text><polygon fill="#181818" points="53.9551,460.125,43.9551,464.125,53.9551,468.125,49.9551,464.125" style="stroke:#181818;stroke-width:1;"/><line style="stroke:#181818;stroke-width:1;stroke-dasharray:2.0,2.0;" x1="47.9551" x2="211.4751" y1="464.125" y2="464.125"/><text fill="#000000" font-family="sans-serif" font-size="13" lengthAdjust="spacing" textLength="95.2847" x="59.9551" y="459.0591">KVS ErrorCode</text><!--SRC=[hP4nKaCX48PxJh6JdWjGf31QMLYyqTPPOT-JaInFsAU7yWXsEPc02IOp9etIB3FxyV6pY9T0CD3hGcm9hZrE2RS6RXy6k5fyS9IKcZ69jtv65bZTPqehm0ne9QRJtkx3nkqScLXsds2UlWMDtkylyYzlkR6bAjNqeDU7amOsYL2eHJlOzXLquTe1Szm6prcmlEitsq02JEGU7Osu1Cam1fp-nLZo_rdMXj_eJdNRkax8mDrCt8XtByzTQYEFVYhA81NJiL0AoggfzF4L9_9Ad8dR6GgPkbDJIkN_pvflQdiJtKNr3qJir1S0]--></g></svg>