<svg xmlns="http://www.w3.org/2000/svg" xmlns:xlink="http://www.w3.org/1999/xlink" contentStyleType="text/css" data-diagram-type="CLASS" height="639px" preserveAspectRatio="none" style="width:545px;height:639px;background:#FFFFFF;" version="1.1" viewBox="0 0 545 639" width="545px" zoomAndPan="magnify"><title>Static View - kvs</title><defs/><g><text fill="#000000" font-family="sans-serif" font-size="14" font-weight="bold" lengthAdjust="spacing" textLength="131.2773" x="199.8613" y="22.9951">Static View - kvs</text><!--cluster kvs--><g id="cluster_kvs"><path d="M8.5,424.2969 L36.2695,424.2969 A3.75,3.75 0 0 1 38.7695,426.7969 L45.7695,446.5938 L535.5,446.5938 A2.5,2.5 0 0 1 538,449.0938 L538,629.5169 A2.5,2.5 0 0 1 535.5,632.0169 L8.5,632.0169 A2.5,2.5 0 0 1 6,629.5169 L6,426.7969 A2.5,2.5 0 0 1 8.5,424.2969 " fill="#FFFF00" style="stroke:#000000;stroke-width:1.5;"/><line style="stroke:#000000;stroke-width:1.5;" x1="6" x2="45.7695" y1="446.5938" y2="446.5938"/><text fill="#000000" font-family="sans-serif" font-size="14" font-weight="bold" lengthAdjust="spacing" textLength="26.7695" x="10" y="439.292">kvs</text><text fill="#000000" font-family="sans-serif" font-size="14" font-style="italic" lengthAdjust="spacing" textLength="68.1338" x="241.9331" y="461.5889">&#171;feature&#187;</text></g><!--entity kvs--><g id="elem_kvs"><rect fill="#FFFFFF" height="62.5938" rx="2.5" ry="2.5" style="stroke:#181818;stroke-width:0.5;" width="138.4824" x="376" y="545.0169"/><rect fill="#FFFFFF" height="10" style="stroke:#181818;stroke-width:0.5;" width="15" x="494.4824" y="550.0169"/><rect fill="#FFFFFF" height="2" style="stroke:#181818;stroke-width:0.5;" width="4" x="492.4824" y="552.0169"/><rect fill="#FFFFFF" height="2" style="stroke:#181818;stroke-width:0.5;" width="4" x="492.4824" y="556.0169"/><text fill="#000000" font-family="sans-serif" font-size="14" font-style="italic" lengthAdjust="spacing" textLength="96.4824" x="392" y="578.012">&#171;component&#187;</text><text fill="#000000" font-family="sans-serif" font-size="14" lengthAdjust="spacing" textLength="23.6865" x="428.3979" y="594.3089">kvs</text></g><!--entity fs--><g id="elem_fs"><rect fill="#FFFFFF" height="62.5938" rx="2.5" ry="2.5" style="stroke:#181818;stroke-width:0.5;" width="138.4824" x="30" y="545.0169"/><rect fill="#FFFFFF" height="10" style="stroke:#181818;stroke-width:0.5;" width="15" x="148.4824" y="550.0169"/><rect fill="#FFFFFF" height="2" style="stroke:#181818;stroke-width:0.5;" width="4" x="146.4824" y="552.0169"/><rect fill="#FFFFFF" height="2" style="stroke:#181818;stroke-width:0.5;" width="4" x="146.4824" y="556.0169"/><text fill="#000000" font-family="sans-serif" font-size="14" font-style="italic" lengthAdjust="spacing" textLength="96.4824" x="46" y="578.012">&#171;component&#187;</text><text fill="#000000" font-family="sans-serif" font-size="14" lengthAdjust="spacing" textLength="12.2227" x="88.1299" y="594.3089">fs</text></g><!--entity tiny_json--><g id="elem_tiny_json"><rect fill="#FFFFFF" height="62.5938" rx="2.5" ry="2.5" style="stroke:#181818;stroke-width:0.5;" width="138.4824" x="203" y="545.0169"/><rect fill="#FFFFFF" height="10" style="stroke:#181818;stroke-width:0.5;" width="15" x="321.4824" y="550.0169"/><rect fill="#FFFFFF" height="2" style="stroke:#181818;stroke-width:0.5;" width="4" x="319.4824" y="552.0169"/><rect fill="#FFFFFF" height="2" style="stroke:#181818;stroke-width:0.5;" width="4" x="319.4824" y="556.0169"/><text fill="#000000" font-family="sans-serif" font-size="14" font-style="italic" lengthAdjust="spacing" textLength="96.4824" x="219" y="578.012">&#171;component&#187;</text><text fill="#000000" font-family="sans-serif" font-size="14" lengthAdjust="spacing" textLength="62.1592" x="236.1616" y="594.3089">tiny_json</text></g><!--class Kvs--><g id="elem_Kvs"><rect codeLine="2" fill="#F1F1F1" height="325.0469" id="Kvs" rx="2.5" ry="2.5" style="stroke:#181818;stroke-width:0.5;" width="159.8545" x="105" y="44.2969"/><ellipse cx="168.2974" cy="60.2969" fill="#B4A7E5" rx="11" ry="11" style="stroke:#181818;stroke-width:1;"/><path d="M164.2192,56.0625 L164.2192,53.9063 L171.6099,53.9063 L171.6099,56.0625 L169.1411,56.0625 L169.1411,64.1406 L171.6099,64.1406 L171.6099,66.2969 L164.2192,66.2969 L164.2192,64.1406 L166.688,64.1406 L166.688,56.0625 L164.2192,56.0625 Z " fill="#000000"/><text fill="#000000" font-family="sans-serif" font-size="14" font-style="italic" lengthAdjust="spacing" textLength="24.7598" x="188.7974" y="65.1436">Kvs</text><line style="stroke:#181818;stroke-width:0.5;" x1="106" x2="263.8545" y1="76.2969" y2="76.2969"/><text fill="#000000" font-family="sans-serif" font-size="14" lengthAdjust="spacing" textLength="34.9385" x="111" y="93.292">open</text><text fill="#000000" font-family="sans-serif" font-size="14" lengthAdjust="spacing" textLength="91.5742" x="111" y="109.5889">flush_on_exit</text><text fill="#000000" font-family="sans-serif" font-size="14" lengthAdjust="spacing" textLength="35.7656" x="111" y="125.8857">reset</text><text fill="#000000" font-family="sans-serif" font-size="14" lengthAdjust="spacing" textLength="85.6475" x="111" y="142.1826">get_all_keys</text><text fill="#000000" font-family="sans-serif" font-size="14" lengthAdjust="spacing" textLength="72.8711" x="111" y="158.4795">key_exists</text><text fill="#000000" font-family="sans-serif" font-size="14" lengthAdjust="spacing" textLength="68.2295" x="111" y="174.7764">get_value</text><text fill="#000000" font-family="sans-serif" font-size="14" lengthAdjust="spacing" textLength="124.4893" x="111" y="191.0732">get_default_value</text><text fill="#000000" font-family="sans-serif" font-size="14" lengthAdjust="spacing" textLength="126.2461" x="111" y="207.3701">has_default_value</text><text fill="#000000" font-family="sans-serif" font-size="14" lengthAdjust="spacing" textLength="122.8965" x="111" y="223.667">set_default_value</text><text fill="#000000" font-family="sans-serif" font-size="14" lengthAdjust="spacing" textLength="66.6367" x="111" y="239.9639">set_value</text><text fill="#000000" font-family="sans-serif" font-size="14" lengthAdjust="spacing" textLength="85.4766" x="111" y="256.2607">remove_key</text><text fill="#000000" font-family="sans-serif" font-size="14" lengthAdjust="spacing" textLength="33.8584" x="111" y="272.5576">flush</text><text fill="#000000" font-family="sans-serif" font-size="14" lengthAdjust="spacing" textLength="110.3525" x="111" y="288.8545">snapshot_count</text><text fill="#000000" font-family="sans-serif" font-size="14" lengthAdjust="spacing" textLength="147.8545" x="111" y="305.1514">snapshot_max_count</text><text fill="#000000" font-family="sans-serif" font-size="14" lengthAdjust="spacing" textLength="120.9414" x="111" y="321.4482">snapshot_restore</text><text fill="#000000" font-family="sans-serif" font-size="14" lengthAdjust="spacing" textLength="121.7002" x="111" y="337.7451">get_kvs_filename</text><text fill="#000000" font-family="sans-serif" font-size="14" lengthAdjust="spacing" textLength="131.6328" x="111" y="354.042">get_hash_filename</text><line style="stroke:#181818;stroke-width:0.5;" x1="106" x2="263.8545" y1="361.3438" y2="361.3438"/></g><!--link Kvs to kvs--><g id="link_Kvs_kvs"><path codeLine="25" d="M185,369.5269 C185,382.1994 185,394.4306 185,405.6911 C185,411.3213 185,416.7089 185,421.7875 C185,422.4224 185,423.0524 185,423.6774 C185,423.8337 185,446.2865 185,446.4421 " fill="transparent" id="Kvs-kvs" style="stroke:#181818;stroke-width:1;"/></g><!--link kvs to tiny_json--><g id="link_kvs_tiny_json"><path codeLine="27" d="M185.06,468.0969 C186.76,470.1869 218.3951,509.2832 243.4951,540.2932 " fill="transparent" id="kvs-to-tiny_json" style="stroke:#181818;stroke-width:1;stroke-dasharray:7.0,7.0;"/><polygon fill="#181818" points="247.27,544.9569,244.7168,535.4447,244.1243,541.0704,238.4985,540.4779,247.27,544.9569" style="stroke:#181818;stroke-width:1;"/><text fill="#000000" font-family="sans-serif" font-size="13" lengthAdjust="spacing" textLength="23.0103" x="221" y="511.0838">use</text></g><!--link kvs to fs--><g id="link_kvs_fs"><path codeLine="28" d="M184.94,468.0969 C183.26,470.1869 152.0084,509.2618 127.1984,540.2718 " fill="transparent" id="kvs-to-fs" style="stroke:#181818;stroke-width:1;stroke-dasharray:7.0,7.0;"/><polygon fill="#181818" points="123.45,544.9569,132.1959,540.4282,126.5736,541.0527,125.9492,535.4304,123.45,544.9569" style="stroke:#181818;stroke-width:1;"/><text fill="#000000" font-family="sans-serif" font-size="13" lengthAdjust="spacing" textLength="23.0103" x="160" y="511.0838">use</text></g><!--SRC=[VL0xJyCm4DxlLnnbO4gKkQeob9Q54OcrCiub777EaMCtL8Z_Zervf4N2szttF2jZx3pmAqi7uDaRmWUlF6jyP9gnmFuu0LonQ1CQIjE1nPDhbQPo38C1WAbd6PLJ0uvAzweZV0ECRnkdpjaWpQqrrk7rljfNkofZrZNaydvh8l5p-tIks6nQKZuugciyKMeAxyiuROVH2ed_2lmZ_o54W_cPFINz3UwePI6yo-OJVDTUnVDMk4pDlhyvaO1djXTu-p_iMKw7bydA1IksIiv5AF0-_NSQi2nhN2ZM62PQ834gh-03]--></g></svg>