<svg xmlns="http://www.w3.org/2000/svg" xmlns:xlink="http://www.w3.org/1999/xlink" contentStyleType="text/css" data-diagram-type="SEQUENCE" height="412px" preserveAspectRatio="none" style="width:468px;height:412px;background:#FFFFFF;" version="1.1" viewBox="0 0 468 412" width="468px" zoomAndPan="magnify"><title>Sequence Diagram: Check if Key contains Default Value</title><defs/><g><text fill="#000000" font-family="sans-serif" font-size="14" font-weight="bold" lengthAdjust="spacing" textLength="440.8496" x="10" y="27.9951">Sequence Diagram: Check if Key contains Default Value</text><rect fill="transparent" height="240.3438" style="stroke:#000000;stroke-width:1.5;" width="401.7822" x="30.0337" y="119.7266"/><rect fill="transparent" height="165.2734" style="stroke:#000000;stroke-width:1.5;" width="381.7822" x="40.0337" y="143.8594"/><rect fill="transparent" height="90.2031" style="stroke:#000000;stroke-width:1.5;" width="361.7822" x="50.0337" y="167.9922"/><g><title>User</title><rect fill="transparent" height="303.4766" width="8" x="78.9888" y="73.5938"/><line style="stroke:#181818;stroke-width:0.5;stroke-dasharray:5.0,5.0;" x1="82.0337" x2="82.0337" y1="73.5938" y2="377.0703"/></g><g><title>&#171;component&#187; :kvs</title><rect fill="transparent" height="303.4766" width="8" x="326.2231" y="73.5938"/><line style="stroke:#181818;stroke-width:0.5;stroke-dasharray:5.0,5.0;" x1="329.6304" x2="329.6304" y1="73.5938" y2="377.0703"/></g><rect fill="#E2E2F0" height="30.2969" rx="2.5" ry="2.5" style="stroke:#181818;stroke-width:0.5;" width="45.9102" x="60.0337" y="42.2969"/><text fill="#000000" font-family="sans-serif" font-size="14" lengthAdjust="spacing" textLength="31.9102" x="67.0337" y="62.292">User</text><rect fill="#E2E2F0" height="30.2969" rx="2.5" ry="2.5" style="stroke:#181818;stroke-width:0.5;" width="45.9102" x="60.0337" y="376.0703"/><text fill="#000000" font-family="sans-serif" font-size="14" lengthAdjust="spacing" textLength="31.9102" x="67.0337" y="396.0654">User</text><rect fill="#E2E2F0" height="30.2969" rx="2.5" ry="2.5" style="stroke:#181818;stroke-width:0.5;" width="143.1855" x="258.6304" y="42.2969"/><text fill="#000000" font-family="sans-serif" font-size="14" lengthAdjust="spacing" textLength="129.1855" x="265.6304" y="62.292">&#171;component&#187; :kvs</text><rect fill="#E2E2F0" height="30.2969" rx="2.5" ry="2.5" style="stroke:#181818;stroke-width:0.5;" width="143.1855" x="258.6304" y="376.0703"/><text fill="#000000" font-family="sans-serif" font-size="14" lengthAdjust="spacing" textLength="129.1855" x="265.6304" y="396.0654">&#171;component&#187; :kvs</text><polygon fill="#181818" points="318.2231,100.7266,328.2231,104.7266,318.2231,108.7266,322.2231,104.7266" style="stroke:#181818;stroke-width:1;"/><line style="stroke:#181818;stroke-width:1;" x1="82.9888" x2="324.2231" y1="104.7266" y2="104.7266"/><text fill="#000000" font-family="sans-serif" font-size="13" lengthAdjust="spacing" textLength="185.6309" x="89.9888" y="99.6606">Does key have default value</text><path d="M30.0337,119.7266 L94.4766,119.7266 L94.4766,126.8594 L84.4766,136.8594 L30.0337,136.8594 L30.0337,119.7266 " fill="#EEEEEE" style="stroke:#000000;stroke-width:1.5;"/><rect fill="transparent" height="240.3438" style="stroke:#000000;stroke-width:1.5;" width="401.7822" x="30.0337" y="119.7266"/><text fill="#000000" font-family="sans-serif" font-size="13" font-weight="bold" lengthAdjust="spacing" textLength="19.4429" x="45.0337" y="132.7935">alt</text><text fill="#000000" font-family="sans-serif" font-size="11" font-weight="bold" lengthAdjust="spacing" textLength="122.2139" x="109.4766" y="131.937">[default-key-exists]</text><path d="M40.0337,143.8594 L104.4766,143.8594 L104.4766,150.9922 L94.4766,160.9922 L40.0337,160.9922 L40.0337,143.8594 " fill="#EEEEEE" style="stroke:#000000;stroke-width:1.5;"/><rect fill="transparent" height="165.2734" style="stroke:#000000;stroke-width:1.5;" width="381.7822" x="40.0337" y="143.8594"/><text fill="#000000" font-family="sans-serif" font-size="13" font-weight="bold" lengthAdjust="spacing" textLength="19.4429" x="55.0337" y="156.9263">alt</text><text fill="#000000" font-family="sans-serif" font-size="11" font-weight="bold" lengthAdjust="spacing" textLength="73.2456" x="119.4766" y="156.0698">[key-exists]</text><path d="M50.0337,167.9922 L114.4766,167.9922 L114.4766,175.125 L104.4766,185.125 L50.0337,185.125 L50.0337,167.9922 " fill="#EEEEEE" style="stroke:#000000;stroke-width:1.5;"/><rect fill="transparent" height="90.2031" style="stroke:#000000;stroke-width:1.5;" width="361.7822" x="50.0337" y="167.9922"/><text fill="#000000" font-family="sans-serif" font-size="13" font-weight="bold" lengthAdjust="spacing" textLength="19.4429" x="65.0337" y="181.0591">alt</text><text fill="#000000" font-family="sans-serif" font-size="11" font-weight="bold" lengthAdjust="spacing" textLength="151.7227" x="129.4766" y="180.2026">[default-and-key-match]</text><polygon fill="#181818" points="93.9888,202.2578,83.9888,206.2578,93.9888,210.2578,89.9888,206.2578" style="stroke:#181818;stroke-width:1;"/><line style="stroke:#181818;stroke-width:1;stroke-dasharray:2.0,2.0;" x1="87.9888" x2="329.2231" y1="206.2578" y2="206.2578"/><text fill="#000000" font-family="sans-serif" font-size="13" lengthAdjust="spacing" textLength="172.8911" x="99.9888" y="201.1919">Key contains default value</text><line style="stroke:#000000;stroke-width:1;stroke-dasharray:2.0,2.0;" x1="50.0337" x2="411.8159" y1="215.2578" y2="215.2578"/><text fill="#000000" font-family="sans-serif" font-size="11" font-weight="bold" lengthAdjust="spacing" textLength="113.792" x="55.0337" y="225.4683">[key-doesnt-exist]</text><polygon fill="#181818" points="93.9888,246.1953,83.9888,250.1953,93.9888,254.1953,89.9888,250.1953" style="stroke:#181818;stroke-width:1;"/><line style="stroke:#181818;stroke-width:1;stroke-dasharray:2.0,2.0;" x1="87.9888" x2="329.2231" y1="250.1953" y2="250.1953"/><text fill="#000000" font-family="sans-serif" font-size="13" lengthAdjust="spacing" textLength="223.2344" x="99.9888" y="245.1294">Key doesn't containt default value</text><line style="stroke:#000000;stroke-width:1;stroke-dasharray:2.0,2.0;" x1="40.0337" x2="421.8159" y1="266.1953" y2="266.1953"/><text fill="#000000" font-family="sans-serif" font-size="11" font-weight="bold" lengthAdjust="spacing" textLength="113.792" x="45.0337" y="276.4058">[key-doesnt-exist]</text><polygon fill="#181818" points="93.9888,297.1328,83.9888,301.1328,93.9888,305.1328,89.9888,301.1328" style="stroke:#181818;stroke-width:1;"/><line style="stroke:#181818;stroke-width:1;stroke-dasharray:2.0,2.0;" x1="87.9888" x2="329.2231" y1="301.1328" y2="301.1328"/><text fill="#000000" font-family="sans-serif" font-size="13" lengthAdjust="spacing" textLength="172.8911" x="99.9888" y="296.0669">Key contains default value</text><line style="stroke:#000000;stroke-width:1;stroke-dasharray:2.0,2.0;" x1="30.0337" x2="431.8159" y1="317.1328" y2="317.1328"/><text fill="#000000" font-family="sans-serif" font-size="11" font-weight="bold" lengthAdjust="spacing" textLength="136.2485" x="35.0337" y="327.3433">[default-doesnt-exist]</text><polygon fill="#181818" points="93.9888,348.0703,83.9888,352.0703,93.9888,356.0703,89.9888,352.0703" style="stroke:#181818;stroke-width:1;"/><line style="stroke:#181818;stroke-width:1;stroke-dasharray:2.0,2.0;" x1="87.9888" x2="329.2231" y1="352.0703" y2="352.0703"/><text fill="#000000" font-family="sans-serif" font-size="13" lengthAdjust="spacing" textLength="218.1372" x="99.9888" y="347.0044">Key doesn't contain default value</text><!--SRC=[bP0nRiCm34LtdOB8aiaNyD0btZe6oKx8T2p4fboBDjepvGZTSh9IIbJ02G8ZN2HHd-z_IPnq17lwceWjGUNmD69VmgubUmRNm2VzWFKiw3X0HGrEdS0HkucC6N0KPzs0BB0v11etW07GYX-NTzUBzVtWcLYklr2Uvv2KkXgJv51yn5C9bIVjgsUBCq5zzvjlVgZRUwjGJK7VBaWme1Ml7bgvdIUGwpJLezZsNn5BdQ7G12bAkNpoCaAUe2vGygirBylDTesPj5l9R7d5vjgiUxoNEJ8JBt_64tCzxmCs8ly0]--></g></svg>