<svg host="65bd71144e" xmlns="http://www.w3.org/2000/svg" style="background: #ffffff; background-color: light-dark(#ffffff, #121212);" xmlns:xlink="http://www.w3.org/1999/xlink" version="1.1" width="642px" height="189px" viewBox="-0.5 -0.5 642 189" content="&lt;mxfile scale=&quot;1&quot; border=&quot;0&quot;&gt;&lt;diagram name=&quot;Page-1&quot; id=&quot;T3BMX8OljUpALTbiXzM3&quot;&gt;7Vpbb6M6EP41kboPibiTPJa06WrVo7NSz9Fe3hwwxKrBHGOaZH/9sbEdIJA2ScNuKzVSWzwej4eZby52OrLn6eaOgnz1F4kgHllGtBnZNyPLMl3b5H8EZSspM9eQhISiSDHVhAf0CyqiZitRBIsWIyMEM5S3iSHJMhiyFg1QStZttpjg9q45SGCH8BAC3KV+QxFbSepUv4Wgf4YoWemdTUPNLEH4mFBSZmq/kWXH1UdOp0DLUvzFCkRk3SDZtyN7Tglh8indzCEWttVmk+sWB2Z3elOYsWMWfAN3bPFzayx8BCGbrRZf4n/HpivFPAFcQv0eHuYCgwg98cdEPGpSTPhW3MYglLzef6XQPvgM8RNkKAQ1SS99IDFbcx35GKQ5J2TLIm+I5PpKqe2dOLln/8uoVJCShhxylnE15/vwHz4VfDpRo8qlbKthxL2bi8d0k4g4mcSYrMMVoGySlhzM44iEZVp5KqiB83fJMMrEMpPTnyAVCuNrjJJMiEJRJMQHK5ZixVMtg8KjBh9hsIQ42ImbE0won8qIkBkUjJJHqIkcnsbUNWehMBrCuEGPIFzG/m6FDgOxXwSK1W67Qgav5fBnoJQM+TtBqhyxACnCIg/U1pcTKuxNS4315hGMQYlrgzbRrAAurAI3DZJC9x0kKWR0y1nUrOWoSNvqDOPJ8bqOa9NWPKtGTDtTlU5UKkl2outw4g8qovqja6duN5AURGuwaECKibE06jVnMJ18IwG3A2wX1/+gVEB3XkCK4hZruHNoTbSN6tONgRCDLBkzxLP2IdjvAbxGnsDFeoUYfMildmuO+DZM9wA2v7kNpkEHkli4YBwB+njVUJWbmv+2HceDVvjpMtBwzCOgYfZAwzVfDw3H7RgTRrwGqaGK1ob14Aax7yLmJq4a/WjM3GxUOFaDrRocNJLMdtoMqsACmkANfkvShErPmpJCDBh6apfNV9ll1hMyJxmqna+sd2qG95U5AvBLdIDDJw3RSk2nfXXM9uyZHV0mM/jtxKBLSDMv6Pht5gXbu4DjrZccf0pXE/y8FysQFk7u77WWVDNf0bLiMwDvXkWvGlJSHO6A3kKvM2g3U3BQoiy5h7Hw73h6IWz5E/fPdSSOd2bZ0c8/WiWov+yIwVeeULh2oguUtIxr+r05aEgSw1pUNdo2R/vCzk3xVjfFP3sA+v15X58wj/fPmXY904TPmqtpV734D5jQ/B0QfwNwvryJ1dKvBFWVRmUs1522E5auh1qEVEqtal427Avy9hpu29S5UIuSEOqIqny+e6PjYGB3Cul1BvC2QEVlkpxQ9jaK2MeBvVkfOyDpK4/uQOXR7d58zUkWo6SkPIJIdqiJalwC6Wbr437oXcCtcz807Wn2h+rGXP/MUtW+BDAm1ZHo/TZkQ1cwy2hXsN33DKdWsH20dAQdqF/XlIJtgy0XDMVhhU3H7t2nxpWUeHZxnJ3dZk5cz28jZjbzX8BMFx69KDqImWEby34X2P4Lrj4WM/vXjJZpDoIZx7cGxYzXvZK6J0nxUdQGKWqdCtYTGMf3UH1Fbageyjv1wnbgSlTXzNlMl0lVNX3n5LLZm3yOPqo1E5k30GnN2vO9d+5pbS8Bms6xp7VTM9e+ypbhvCZz8WH9Bbpkr/9Lwb79Hw==&lt;/diagram&gt;&lt;/mxfile&gt;">
    <defs/>
    <rect fill="#ffffff" width="100%" height="100%" x="0" y="0" style="fill: light-dark(rgb(255, 255, 255), rgb(18, 18, 18));"/>
    <g>
        <g>
            <path d="M 184.77 69.98 C 184.77 67.78 188.08 66 192.16 66 L 292.61 66 C 296.69 66 300 67.78 300 69.98 L 300 101.83 C 281.59 97.63 260.8 97.63 242.39 101.83 C 223.97 106.04 203.19 106.04 184.77 101.83 Z" fill="#deebf7" stroke="#08519c" stroke-miterlimit="10" pointer-events="all" style="fill: light-dark(rgb(222, 235, 247), rgb(27, 38, 48)); stroke: light-dark(rgb(8, 81, 156), rgb(122, 185, 249));"/>
            <path d="M 177.39 73.96 C 177.39 72.91 178.16 71.89 179.55 71.15 C 180.93 70.4 182.81 69.98 184.77 69.98 L 285.23 69.98 C 287.19 69.98 289.07 70.4 290.45 71.15 C 291.84 71.89 292.61 72.91 292.61 73.96 L 292.61 105.81 C 274.2 101.61 253.41 101.61 235 105.81 C 216.59 110.02 195.8 110.02 177.39 105.81 Z" fill="#deebf7" stroke="#08519c" stroke-miterlimit="10" pointer-events="all" style="fill: light-dark(rgb(222, 235, 247), rgb(27, 38, 48)); stroke: light-dark(rgb(8, 81, 156), rgb(122, 185, 249));"/>
            <path d="M 170 77.94 C 170 75.75 173.31 73.96 177.39 73.96 L 277.84 73.96 C 281.92 73.96 285.23 75.75 285.23 77.94 L 285.23 109.8 C 266.81 105.59 246.03 105.59 227.61 109.8 C 209.2 114 188.41 114 170 109.8 Z" fill="#deebf7" stroke="#08519c" stroke-miterlimit="10" pointer-events="all" style="fill: light-dark(rgb(222, 235, 247), rgb(27, 38, 48)); stroke: light-dark(rgb(8, 81, 156), rgb(122, 185, 249));"/>
        </g>
        <g>
            <g transform="translate(-0.5 -0.5)">
                <switch>
                    <foreignObject style="overflow: visible; text-align: left;" pointer-events="none" width="100%" height="100%" requiredFeatures="http://www.w3.org/TR/SVG11/feature#Extensibility">
                        <div xmlns="http://www.w3.org/1999/xhtml" style="display: flex; align-items: unsafe center; justify-content: unsafe center; width: 1px; height: 1px; padding-top: 90px; margin-left: 235px;">
                            <div style="box-sizing: border-box; font-size: 0; text-align: center; color: #000000; ">
                                <div style="display: inline-block; font-size: 12px; font-family: &quot;Helvetica&quot;; color: light-dark(#000000, #ffffff); line-height: 1.2; pointer-events: all; white-space: nowrap; ">
                                    <div>
                                        <font face="Helvetica">
                                            Software
                                        </font>
                                    </div>
                                    <div>
                                        <font face="Helvetica">
                                            sources (C/C++)
                                        </font>
                                    </div>
                                </div>
                            </div>
                        </div>
                    </foreignObject>
                    <text x="235" y="94" fill="light-dark(#000000, #ffffff)" font-family="&quot;Helvetica&quot;" font-size="12px" text-anchor="middle">
                        Software...
                    </text>
                </switch>
            </g>
        </g>
        <g>
            <rect x="340" y="66" width="110" height="51" rx="7.65" ry="7.65" fill="#cdeb8b" stroke="#000000" pointer-events="all" style="fill: light-dark(rgb(205, 235, 139), rgb(32, 58, 0)); stroke: light-dark(rgb(0, 0, 0), rgb(68, 110, 44));"/>
        </g>
        <g>
            <g transform="translate(-0.5 -0.5)">
                <switch>
                    <foreignObject style="overflow: visible; text-align: left;" pointer-events="none" width="100%" height="100%" requiredFeatures="http://www.w3.org/TR/SVG11/feature#Extensibility">
                        <div xmlns="http://www.w3.org/1999/xhtml" style="display: flex; align-items: unsafe center; justify-content: unsafe center; width: 108px; height: 1px; padding-top: 92px; margin-left: 341px;">
                            <div style="box-sizing: border-box; font-size: 0; text-align: center; color: #000000; ">
                                <div style="display: inline-block; font-size: 12px; font-family: &quot;Helvetica&quot;; color: light-dark(#000000, #ffffff); line-height: 1.2; pointer-events: all; white-space: normal; word-wrap: normal; ">
                                    <font color="#000000" face="Times,serif" style="font-size: 14px; color: light-dark(rgb(0, 0, 0), rgb(237, 237, 237));">
                                        clang-tidy
                                    </font>
                                </div>
                            </div>
                        </div>
                    </foreignObject>
                    <text x="395" y="95" fill="light-dark(#000000, #ffffff)" font-family="&quot;Helvetica&quot;" font-size="12px" text-anchor="middle">
                        clang-tidy
                    </text>
                </switch>
            </g>
        </g>
        <g>
            <path d="M 72.5 36 L 72.5 59.63" fill="none" stroke="#000000" stroke-miterlimit="10" pointer-events="stroke" style="stroke: light-dark(rgb(0, 0, 0), rgb(255, 255, 255));"/>
            <path d="M 72.5 64.88 L 69 57.88 L 72.5 59.63 L 76 57.88 Z" fill="#000000" stroke="#000000" stroke-miterlimit="10" pointer-events="all" style="fill: light-dark(rgb(0, 0, 0), rgb(255, 255, 255)); stroke: light-dark(rgb(0, 0, 0), rgb(255, 255, 255));"/>
        </g>
        <g>
            <path d="M 72.5 36 L 72.5 57.76" fill="none" stroke="#000000" stroke-width="2" stroke-miterlimit="10" pointer-events="stroke" style="stroke: light-dark(rgb(0, 0, 0), rgb(255, 255, 255));"/>
            <path d="M 72.5 63.76 L 68.5 55.76 L 72.5 57.76 L 76.5 55.76 Z" fill="#000000" stroke="#000000" stroke-width="2" stroke-miterlimit="10" pointer-events="all" style="fill: light-dark(rgb(0, 0, 0), rgb(255, 255, 255)); stroke: light-dark(rgb(0, 0, 0), rgb(255, 255, 255));"/>
        </g>
        <g>
            <rect x="0" y="0" width="145" height="36" rx="5.4" ry="5.4" fill="#ffff88" stroke="#36393d" pointer-events="all" style="fill: light-dark(rgb(255, 255, 136), rgb(33, 33, 0)); stroke: light-dark(rgb(54, 57, 61), rgb(186, 189, 192));"/>
        </g>
        <g>
            <g transform="translate(-0.5 -0.5)">
                <switch>
                    <foreignObject style="overflow: visible; text-align: left;" pointer-events="none" width="100%" height="100%" requiredFeatures="http://www.w3.org/TR/SVG11/feature#Extensibility">
                        <div xmlns="http://www.w3.org/1999/xhtml" style="display: flex; align-items: unsafe center; justify-content: unsafe center; width: 143px; height: 1px; padding-top: 18px; margin-left: 1px;">
                            <div style="box-sizing: border-box; font-size: 0; text-align: center; color: #000000; ">
                                <div style="display: inline-block; font-size: 12px; font-family: &quot;Helvetica&quot;; color: light-dark(#000000, #ffffff); line-height: 1.2; pointer-events: all; white-space: normal; word-wrap: normal; ">
                                    <font color="#000000" face="Times,serif" style="font-size: 14px; color: light-dark(rgb(0, 0, 0), rgb(237, 237, 237));">
                                        Bazel
                                    </font>
                                </div>
                            </div>
                        </div>
                    </foreignObject>
                    <text x="72" y="22" fill="light-dark(#000000, #ffffff)" font-family="&quot;Helvetica&quot;" font-size="12px" text-anchor="middle">
                        Bazel
                    </text>
                </switch>
            </g>
        </g>
        <g>
            <path d="M 22.27 69.98 C 22.27 67.78 25.58 66 29.66 66 L 130.11 66 C 134.19 66 137.5 67.78 137.5 69.98 L 137.5 101.83 C 119.09 97.63 98.3 97.63 79.89 101.83 C 61.47 106.04 40.69 106.04 22.27 101.83 Z" fill="#deebf7" stroke="#08519c" stroke-miterlimit="10" pointer-events="all" style="fill: light-dark(rgb(222, 235, 247), rgb(27, 38, 48)); stroke: light-dark(rgb(8, 81, 156), rgb(122, 185, 249));"/>
            <path d="M 14.89 73.96 C 14.89 72.91 15.66 71.89 17.05 71.15 C 18.43 70.4 20.31 69.98 22.27 69.98 L 122.73 69.98 C 124.69 69.98 126.57 70.4 127.95 71.15 C 129.34 71.89 130.11 72.91 130.11 73.96 L 130.11 105.81 C 111.7 101.61 90.91 101.61 72.5 105.81 C 54.09 110.02 33.3 110.02 14.89 105.81 Z" fill="#deebf7" stroke="#08519c" stroke-miterlimit="10" pointer-events="all" style="fill: light-dark(rgb(222, 235, 247), rgb(27, 38, 48)); stroke: light-dark(rgb(8, 81, 156), rgb(122, 185, 249));"/>
            <path d="M 7.5 77.94 C 7.5 75.75 10.81 73.96 14.89 73.96 L 115.34 73.96 C 119.42 73.96 122.73 75.75 122.73 77.94 L 122.73 109.8 C 104.31 105.59 83.53 105.59 65.11 109.8 C 46.7 114 25.91 114 7.5 109.8 Z" fill="#deebf7" stroke="#08519c" stroke-miterlimit="10" pointer-events="all" style="fill: light-dark(rgb(222, 235, 247), rgb(27, 38, 48)); stroke: light-dark(rgb(8, 81, 156), rgb(122, 185, 249));"/>
        </g>
        <g>
            <g transform="translate(-0.5 -0.5)">
                <switch>
                    <foreignObject style="overflow: visible; text-align: left;" pointer-events="none" width="100%" height="100%" requiredFeatures="http://www.w3.org/TR/SVG11/feature#Extensibility">
                        <div xmlns="http://www.w3.org/1999/xhtml" style="display: flex; align-items: unsafe center; justify-content: unsafe center; width: 1px; height: 1px; padding-top: 90px; margin-left: 69px;">
                            <div style="box-sizing: border-box; font-size: 0; text-align: center; color: #000000; ">
                                <div style="display: inline-block; font-size: 12px; font-family: &quot;Helvetica&quot;; color: light-dark(#000000, #ffffff); line-height: 1.2; pointer-events: all; white-space: nowrap; ">
                                    <font face="Helvetica">
                                        BZL files
                                        <br/>
                                        (rules and macros)
                                    </font>
                                </div>
                            </div>
                        </div>
                    </foreignObject>
                    <text x="69" y="94" fill="light-dark(#000000, #ffffff)" font-family="&quot;Helvetica&quot;" font-size="12px" text-anchor="middle">
                        BZL files...
                    </text>
                </switch>
            </g>
        </g>
        <g>
            <path d="M 137.5 90 L 161.76 90" fill="none" stroke="#000000" stroke-width="2" stroke-miterlimit="10" pointer-events="stroke" style="stroke: light-dark(rgb(0, 0, 0), rgb(255, 255, 255));"/>
            <path d="M 167.76 90 L 159.76 94 L 161.76 90 L 159.76 86 Z" fill="#000000" stroke="#000000" stroke-width="2" stroke-miterlimit="10" pointer-events="all" style="fill: light-dark(rgb(0, 0, 0), rgb(255, 255, 255)); stroke: light-dark(rgb(0, 0, 0), rgb(255, 255, 255));"/>
        </g>
        <g>
            <path d="M 300 90.93 L 331.76 91.38" fill="none" stroke="#000000" stroke-width="2" stroke-miterlimit="10" pointer-events="stroke" style="stroke: light-dark(rgb(0, 0, 0), rgb(255, 255, 255));"/>
            <path d="M 337.76 91.47 L 329.71 95.35 L 331.76 91.38 L 329.82 87.35 Z" fill="#000000" stroke="#000000" stroke-width="2" stroke-miterlimit="10" pointer-events="all" style="fill: light-dark(rgb(0, 0, 0), rgb(255, 255, 255)); stroke: light-dark(rgb(0, 0, 0), rgb(255, 255, 255));"/>
        </g>
        <g>
            <path d="M 450 91.5 L 481.76 91.5" fill="none" stroke="#000000" stroke-width="2" stroke-miterlimit="10" pointer-events="stroke" style="stroke: light-dark(rgb(0, 0, 0), rgb(255, 255, 255));"/>
            <path d="M 487.76 91.5 L 479.76 95.5 L 481.76 91.5 L 479.76 87.5 Z" fill="#000000" stroke="#000000" stroke-width="2" stroke-miterlimit="10" pointer-events="all" style="fill: light-dark(rgb(0, 0, 0), rgb(255, 255, 255)); stroke: light-dark(rgb(0, 0, 0), rgb(255, 255, 255));"/>
        </g>
        <g>
            <path d="M 507.05 69.98 C 507.05 68.93 507.94 67.91 509.54 67.17 C 511.14 66.42 513.31 66 515.57 66 L 631.48 66 C 633.74 66 635.91 66.42 637.5 67.17 C 639.1 67.91 640 68.93 640 69.98 L 640 101.83 C 618.75 97.63 594.77 97.63 573.52 101.83 C 552.28 106.04 528.29 106.04 507.05 101.83 Z" fill="#deebf7" stroke="#08519c" stroke-miterlimit="10" pointer-events="all" style="fill: light-dark(rgb(222, 235, 247), rgb(27, 38, 48)); stroke: light-dark(rgb(8, 81, 156), rgb(122, 185, 249));"/>
            <path d="M 498.52 73.96 C 498.52 72.91 499.42 71.89 501.02 71.15 C 502.62 70.4 504.79 69.98 507.05 69.98 L 622.95 69.98 C 625.21 69.98 627.38 70.4 628.98 71.15 C 630.58 71.89 631.48 72.91 631.48 73.96 L 631.48 105.81 C 610.23 101.61 586.25 101.61 565 105.81 C 543.75 110.02 519.77 110.02 498.52 105.81 Z" fill="#deebf7" stroke="#08519c" stroke-miterlimit="10" pointer-events="all" style="fill: light-dark(rgb(222, 235, 247), rgb(27, 38, 48)); stroke: light-dark(rgb(8, 81, 156), rgb(122, 185, 249));"/>
            <path d="M 490 77.94 C 490 76.89 490.9 75.88 492.5 75.13 C 494.09 74.38 496.26 73.96 498.52 73.96 L 614.43 73.96 C 616.69 73.96 618.86 74.38 620.46 75.13 C 622.06 75.88 622.95 76.89 622.95 77.94 L 622.95 109.8 C 601.71 105.59 577.72 105.59 556.48 109.8 C 535.23 114 511.25 114 490 109.8 Z" fill="#deebf7" stroke="#08519c" stroke-miterlimit="10" pointer-events="all" style="fill: light-dark(rgb(222, 235, 247), rgb(27, 38, 48)); stroke: light-dark(rgb(8, 81, 156), rgb(122, 185, 249));"/>
        </g>
        <g>
            <g transform="translate(-0.5 -0.5)">
                <switch>
                    <foreignObject style="overflow: visible; text-align: left;" pointer-events="none" width="100%" height="100%" requiredFeatures="http://www.w3.org/TR/SVG11/feature#Extensibility">
                        <div xmlns="http://www.w3.org/1999/xhtml" style="display: flex; align-items: unsafe center; justify-content: unsafe center; width: 1px; height: 1px; padding-top: 90px; margin-left: 565px;">
                            <div style="box-sizing: border-box; font-size: 0; text-align: center; color: #000000; ">
                                <div style="display: inline-block; font-size: 12px; font-family: &quot;Helvetica&quot;; color: light-dark(#000000, #ffffff); line-height: 1.2; pointer-events: all; white-space: nowrap; ">
                                    Analysis report
                                </div>
                            </div>
                        </div>
                    </foreignObject>
                    <text x="565" y="94" fill="light-dark(#000000, #ffffff)" font-family="&quot;Helvetica&quot;" font-size="12px" text-anchor="middle">
                        Analysis report
                    </text>
                </switch>
            </g>
        </g>
        <g>
            <path d="M 184.77 143.98 C 184.77 141.78 188.08 140 192.16 140 L 292.61 140 C 296.69 140 300 141.78 300 143.98 L 300 175.83 C 281.59 171.63 260.8 171.63 242.39 175.83 C 223.97 180.04 203.19 180.04 184.77 175.83 Z" fill="#deebf7" stroke="#08519c" stroke-miterlimit="10" pointer-events="all" style="fill: light-dark(rgb(222, 235, 247), rgb(27, 38, 48)); stroke: light-dark(rgb(8, 81, 156), rgb(122, 185, 249));"/>
            <path d="M 177.39 147.96 C 177.39 146.91 178.16 145.89 179.55 145.15 C 180.93 144.4 182.81 143.98 184.77 143.98 L 285.23 143.98 C 287.19 143.98 289.07 144.4 290.45 145.15 C 291.84 145.89 292.61 146.91 292.61 147.96 L 292.61 179.81 C 274.2 175.61 253.41 175.61 235 179.81 C 216.59 184.02 195.8 184.02 177.39 179.81 Z" fill="#deebf7" stroke="#08519c" stroke-miterlimit="10" pointer-events="all" style="fill: light-dark(rgb(222, 235, 247), rgb(27, 38, 48)); stroke: light-dark(rgb(8, 81, 156), rgb(122, 185, 249));"/>
            <path d="M 170 151.94 C 170 149.75 173.31 147.96 177.39 147.96 L 277.84 147.96 C 281.92 147.96 285.23 149.75 285.23 151.94 L 285.23 183.8 C 266.81 179.59 246.03 179.59 227.61 183.8 C 209.2 188 188.41 188 170 183.8 Z" fill="#deebf7" stroke="#08519c" stroke-miterlimit="10" pointer-events="all" style="fill: light-dark(rgb(222, 235, 247), rgb(27, 38, 48)); stroke: light-dark(rgb(8, 81, 156), rgb(122, 185, 249));"/>
        </g>
        <g>
            <g transform="translate(-0.5 -0.5)">
                <switch>
                    <foreignObject style="overflow: visible; text-align: left;" pointer-events="none" width="100%" height="100%" requiredFeatures="http://www.w3.org/TR/SVG11/feature#Extensibility">
                        <div xmlns="http://www.w3.org/1999/xhtml" style="display: flex; align-items: unsafe center; justify-content: unsafe center; width: 1px; height: 1px; padding-top: 164px; margin-left: 235px;">
                            <div style="box-sizing: border-box; font-size: 0; text-align: center; color: #000000; ">
                                <div style="display: inline-block; font-size: 12px; font-family: &quot;Helvetica&quot;; color: light-dark(#000000, #ffffff); line-height: 1.2; pointer-events: all; white-space: nowrap; ">
                                    Configuration
                                    <div>
                                        files
                                    </div>
                                </div>
                            </div>
                        </div>
                    </foreignObject>
                    <text x="235" y="168" fill="light-dark(#000000, #ffffff)" font-family="&quot;Helvetica&quot;" font-size="12px" text-anchor="middle">
                        Configuration...
                    </text>
                </switch>
            </g>
        </g>
        <g>
            <path d="M 72.5 108.24 L 72.92 160 Q 73 170 83 170 L 161.76 170" fill="none" stroke="#000000" stroke-width="2" stroke-miterlimit="10" pointer-events="stroke" style="stroke: light-dark(rgb(0, 0, 0), rgb(255, 255, 255));"/>
            <path d="M 167.76 170 L 159.76 174 L 161.76 170 L 159.76 166 Z" fill="#000000" stroke="#000000" stroke-width="2" stroke-miterlimit="10" pointer-events="all" style="fill: light-dark(rgb(0, 0, 0), rgb(255, 255, 255)); stroke: light-dark(rgb(0, 0, 0), rgb(255, 255, 255));"/>
        </g>
        <g>
            <path d="M 300 170 L 392 170 Q 402 170 402.07 160 L 402.31 125.08" fill="none" stroke="#000000" stroke-width="2" stroke-miterlimit="10" pointer-events="stroke" style="stroke: light-dark(rgb(0, 0, 0), rgb(255, 255, 255));"/>
            <path d="M 402.35 119.08 L 406.3 127.11 L 402.31 125.08 L 398.3 127.05 Z" fill="#000000" stroke="#000000" stroke-width="2" stroke-miterlimit="10" pointer-events="all" style="fill: light-dark(rgb(0, 0, 0), rgb(255, 255, 255)); stroke: light-dark(rgb(0, 0, 0), rgb(255, 255, 255));"/>
        </g>
        <g>
            <path d="M 507.05 143.98 C 507.05 142.93 507.94 141.91 509.54 141.17 C 511.14 140.42 513.31 140 515.57 140 L 631.48 140 C 633.74 140 635.91 140.42 637.5 141.17 C 639.1 141.91 640 142.93 640 143.98 L 640 175.83 C 618.75 171.63 594.77 171.63 573.52 175.83 C 552.28 180.04 528.29 180.04 507.05 175.83 Z" fill="#deebf7" stroke="#08519c" stroke-miterlimit="10" pointer-events="all" style="fill: light-dark(rgb(222, 235, 247), rgb(27, 38, 48)); stroke: light-dark(rgb(8, 81, 156), rgb(122, 185, 249));"/>
            <path d="M 498.52 147.96 C 498.52 146.91 499.42 145.89 501.02 145.15 C 502.62 144.4 504.79 143.98 507.05 143.98 L 622.95 143.98 C 625.21 143.98 627.38 144.4 628.98 145.15 C 630.58 145.89 631.48 146.91 631.48 147.96 L 631.48 179.81 C 610.23 175.61 586.25 175.61 565 179.81 C 543.75 184.02 519.77 184.02 498.52 179.81 Z" fill="#deebf7" stroke="#08519c" stroke-miterlimit="10" pointer-events="all" style="fill: light-dark(rgb(222, 235, 247), rgb(27, 38, 48)); stroke: light-dark(rgb(8, 81, 156), rgb(122, 185, 249));"/>
            <path d="M 490 151.94 C 490 150.89 490.9 149.88 492.5 149.13 C 494.09 148.38 496.26 147.96 498.52 147.96 L 614.43 147.96 C 616.69 147.96 618.86 148.38 620.46 149.13 C 622.06 149.88 622.95 150.89 622.95 151.94 L 622.95 183.8 C 601.71 179.59 577.72 179.59 556.48 183.8 C 535.23 188 511.25 188 490 183.8 Z" fill="#deebf7" stroke="#08519c" stroke-miterlimit="10" pointer-events="all" style="fill: light-dark(rgb(222, 235, 247), rgb(27, 38, 48)); stroke: light-dark(rgb(8, 81, 156), rgb(122, 185, 249));"/>
        </g>
        <g>
            <g transform="translate(-0.5 -0.5)">
                <switch>
                    <foreignObject style="overflow: visible; text-align: left;" pointer-events="none" width="100%" height="100%" requiredFeatures="http://www.w3.org/TR/SVG11/feature#Extensibility">
                        <div xmlns="http://www.w3.org/1999/xhtml" style="display: flex; align-items: unsafe center; justify-content: unsafe center; width: 1px; height: 1px; padding-top: 164px; margin-left: 565px;">
                            <div style="box-sizing: border-box; font-size: 0; text-align: center; color: #000000; ">
                                <div style="display: inline-block; font-size: 12px; font-family: &quot;Helvetica&quot;; color: light-dark(#000000, #ffffff); line-height: 1.2; pointer-events: all; white-space: nowrap; ">
                                    Logs
                                </div>
                            </div>
                        </div>
                    </foreignObject>
                    <text x="565" y="168" fill="light-dark(#000000, #ffffff)" font-family="&quot;Helvetica&quot;" font-size="12px" text-anchor="middle">
                        Logs
                    </text>
                </switch>
            </g>
        </g>
        <g>
            <path d="M 449.78 110.57 L 449.96 154 Q 450 164 460 164 L 481.76 164" fill="none" stroke="#000000" stroke-width="2" stroke-miterlimit="10" pointer-events="stroke" style="stroke: light-dark(rgb(0, 0, 0), rgb(255, 255, 255));"/>
            <path d="M 487.76 164 L 479.76 168 L 481.76 164 L 479.76 160 Z" fill="#000000" stroke="#000000" stroke-width="2" stroke-miterlimit="10" pointer-events="all" style="fill: light-dark(rgb(0, 0, 0), rgb(255, 255, 255)); stroke: light-dark(rgb(0, 0, 0), rgb(255, 255, 255));"/>
        </g>
    </g>
    <switch>
        <g requiredFeatures="http://www.w3.org/TR/SVG11/feature#Extensibility"/>
        <a transform="translate(0,-5)" xlink:href="https://www.drawio.com/doc/faq/svg-export-text-problems" target="_blank">
            <text text-anchor="middle" font-size="10px" x="50%" y="100%">
                Text is not SVG - cannot display
            </text>
        </a>
    </switch>
</svg>
